<?xml version="1.0" encoding="UTF-8" standalone="no"?>
<!DOCTYPE svg PUBLIC "-//W3C//DTD SVG 1.1//EN" "http://www.w3.org/Graphics/SVG/1.1/DTD/svg11.dtd">
<svg width="1248px" height="960px" version="1.1" xmlns="http://www.w3.org/2000/svg" xmlns:xlink="http://www.w3.org/1999/xlink" xml:space="preserve" xmlns:serif="http://www.serif.com/" style="fill-rule:evenodd;clip-rule:evenodd;stroke-linecap:round;stroke-linejoin:round;stroke-miterlimit:1.5;">
    <g id="_4.5---3mm-First-layer-battery-holder" serif:id="4.5 / 3mm First layer battery holder">
        <ellipse cx="905.575" cy="935.481" rx="6.047" ry="5.999" style="fill:none;stroke:#00f;stroke-width:0.04px;"/>
        <ellipse cx="828.094" cy="512.151" rx="6.047" ry="5.999" style="fill:none;stroke:#00f;stroke-width:0.04px;"/>
        <ellipse cx="1181.48" cy="544.3" rx="6.047" ry="5.999" style="fill:none;stroke:#00f;stroke-width:0.04px;"/>
        <ellipse cx="66.52" cy="544.3" rx="6.047" ry="5.999" style="fill:none;stroke:#00f;stroke-width:0.04px;"/>
        <ellipse cx="66.52" cy="814.536" rx="6.047" ry="5.999" style="fill:none;stroke:#00f;stroke-width:0.04px;"/>
        <ellipse cx="1181.48" cy="814.536" rx="6.047" ry="5.999" style="fill:none;stroke:#00f;stroke-width:0.04px;"/>
        <ellipse cx="342.425" cy="935.526" rx="6.047" ry="5.999" style="fill:none;stroke:#00f;stroke-width:0.04px;"/>
        <ellipse cx="419.906" cy="512.196" rx="6.047" ry="5.999" style="fill:none;stroke:#00f;stroke-width:0.04px;"/>
        <path id="Outside-shape" serif:id="Outside shape" d="M48.756,480c-1.804,0 -3.535,0.717 -4.811,1.993c-1.275,1.275 -1.992,3.006 -1.992,4.81c0,53.463 0,405.372 0,458.835c0,3.757 3.046,6.803 6.803,6.803c41.687,0 262.187,0 303.874,0c3.757,0 6.803,-3.046 6.803,-6.803c0,-1.722 0,-3.57 0,-5.292c0,-1.804 0.717,-3.534 1.993,-4.81c1.276,-1.276 3.006,-1.993 4.81,-1.993c57.274,0 458.254,0 515.528,0c1.804,0 3.534,0.717 4.81,1.993c1.276,1.276 1.993,3.006 1.993,4.81c0,1.722 0,3.57 0,5.292c0,3.757 3.046,6.803 6.803,6.803c41.687,0 262.187,0 303.874,0c3.757,0 6.803,-3.046 6.803,-6.803c0,-53.463 0,-405.372 0,-458.835c0,-1.804 -0.717,-3.535 -1.992,-4.81c-1.276,-1.276 -3.007,-1.993 -4.811,-1.993c-21.23,0 -86.108,0 -107.338,0c-1.805,0 -3.535,0.717 -4.811,1.993c-1.276,1.275 -1.993,3.006 -1.993,4.81c0,0.503 0,1.01 0,1.512c0,1.804 -0.716,3.535 -1.992,4.811c-1.276,1.275 -3.006,1.992 -4.811,1.992c-79.433,0 -829.165,0 -908.598,0c-1.805,0 -3.535,-0.717 -4.811,-1.992c-1.276,-1.276 -1.992,-3.007 -1.992,-4.811c0,-0.502 0,-1.009 0,-1.512c0,-1.804 -0.717,-3.535 -1.993,-4.81c-1.276,-1.276 -3.006,-1.993 -4.811,-1.993c-21.23,0 -86.108,0 -107.338,0Z" style="fill:none;stroke:#00f;stroke-width:0.04px;"/>
        <path d="M671.244,763.325l0,133.861l-94.488,0l0,-196.535l24.567,0l0,-177.186l45.357,0l0,177.186l24.564,0l0,19.243l9.61,0l106.138,-96.166l0,-0.221l139.843,0l0,245.669l-139.843,0l0,-105.851l-115.748,0Z" style="fill:none;stroke:#00f;stroke-width:0.04px;stroke-miterlimit:1;"/>
    </g>
    <g id="_4.5---3mm-Switch-Support" serif:id="4.5 / 3mm Switch Support">
        <path d="M133.986,67.255l3.033,0.535l0.643,-3.647l3.648,0.643l0.535,-3.034l11.911,2.1l-0.535,3.034l19.764,3.485l0.535,-3.034l11.911,2.101l-0.535,3.033l3.647,0.643l-0.643,3.648l3.034,0.535l-2.1,11.911l-3.034,-0.535l-3.485,19.764l3.034,0.535l-2.101,11.911l-3.033,-0.535l-0.643,3.648l-3.648,-0.644l-0.535,3.034l-11.911,-2.1l0.535,-3.034l-19.764,-3.485l-0.535,3.034l-11.911,-2.1l0.535,-3.034l-3.648,-0.643l0.644,-3.648l-3.034,-0.535l2.1,-11.91l3.034,0.534l3.485,-19.764l-3.034,-0.535l2.101,-11.911Z" style="fill:none;stroke:#00f;stroke-width:0.04px;stroke-linejoin:miter;"/>
        <path d="M174.815,129.531l-43.548,-7.679l-1.313,7.445l43.549,7.678l1.312,-7.444Z" style="fill:none;stroke:#00f;stroke-width:0.04px;stroke-linejoin:miter;"/>
        <path d="M204.891,79.758l3.033,0.535l0.643,-3.648l3.648,0.643l0.535,-3.033l11.911,2.1l-0.535,3.033l19.764,3.485l0.535,-3.033l11.911,2.1l-0.535,3.034l3.647,0.643l-0.643,3.647l3.034,0.535l-2.1,11.911l-3.034,-0.535l-3.485,19.765l3.034,0.535l-2.101,11.91l-3.033,-0.535l-0.643,3.648l-3.648,-0.643l-0.535,3.033l-11.911,-2.1l0.535,-3.033l-19.764,-3.485l-0.535,3.033l-11.911,-2.1l0.535,-3.034l-3.648,-0.643l0.644,-3.647l-3.034,-0.535l2.1,-11.911l3.034,0.535l3.485,-19.764l-3.034,-0.535l2.101,-11.911Z" style="fill:none;stroke:#00f;stroke-width:0.04px;stroke-linejoin:miter;"/>
        <path d="M245.72,142.034l-43.548,-7.679l-1.313,7.444l43.549,7.679l1.312,-7.444Z" style="fill:none;stroke:#00f;stroke-width:0.04px;stroke-linejoin:miter;"/>
        <path d="M279.963,68.624l3.034,0.535l0.643,-3.648l3.648,0.643l0.534,-3.033l11.911,2.1l-0.535,3.034l19.765,3.485l0.535,-3.034l11.91,2.1l-0.535,3.034l3.648,0.643l-0.643,3.648l3.033,0.535l-2.1,11.91l-3.033,-0.535l-3.485,19.765l3.033,0.535l-2.1,11.91l-3.033,-0.534l-0.644,3.647l-3.647,-0.643l-0.535,3.034l-11.911,-2.101l0.535,-3.033l-19.764,-3.485l-0.535,3.033l-11.911,-2.1l0.535,-3.033l-3.648,-0.643l0.643,-3.648l-3.033,-0.535l2.1,-11.911l3.034,0.535l3.485,-19.764l-3.034,-0.535l2.1,-11.911Z" style="fill:none;stroke:#00f;stroke-width:0.04px;stroke-linejoin:miter;"/>
        <path d="M320.793,130.9l-43.549,-7.679l-1.312,7.444l43.548,7.679l1.313,-7.444Z" style="fill:none;stroke:#00f;stroke-width:0.04px;stroke-linejoin:miter;"/>
        <path d="M355.036,57.491l3.033,0.535l0.643,-3.648l3.648,0.644l0.535,-3.034l11.911,2.1l-0.535,3.034l19.764,3.485l0.535,-3.034l11.911,2.1l-0.535,3.034l3.648,0.643l-0.643,3.648l3.033,0.535l-2.1,11.91l-3.034,-0.534l-3.485,19.764l3.034,0.535l-2.1,11.911l-3.034,-0.535l-0.643,3.647l-3.648,-0.643l-0.535,3.034l-11.91,-2.101l0.535,-3.033l-19.765,-3.485l-0.535,3.033l-11.91,-2.1l0.534,-3.033l-3.647,-0.643l0.643,-3.648l-3.034,-0.535l2.101,-11.911l3.033,0.535l3.485,-19.764l-3.033,-0.535l2.1,-11.911Z" style="fill:none;stroke:#00f;stroke-width:0.04px;stroke-linejoin:miter;"/>
        <path d="M395.866,119.767l-43.549,-7.679l-1.313,7.444l43.549,7.679l1.313,-7.444Z" style="fill:none;stroke:#00f;stroke-width:0.04px;stroke-linejoin:miter;"/>
        <path d="M421.773,93.629l3.034,0.535l0.643,-3.648l3.648,0.643l0.534,-3.033l11.911,2.1l-0.535,3.034l19.765,3.485l0.535,-3.034l11.91,2.1l-0.535,3.034l3.648,0.643l-0.643,3.648l3.033,0.535l-2.1,11.91l-3.033,-0.535l-3.485,19.765l3.033,0.535l-2.1,11.91l-3.033,-0.534l-0.644,3.647l-3.647,-0.643l-0.535,3.034l-11.911,-2.101l0.535,-3.033l-19.764,-3.485l-0.535,3.033l-11.911,-2.1l0.535,-3.033l-3.648,-0.644l0.643,-3.647l-3.033,-0.535l2.1,-11.911l3.034,0.535l3.485,-19.764l-3.034,-0.535l2.1,-11.911Z" style="fill:none;stroke:#00f;stroke-width:0.04px;stroke-linejoin:miter;"/>
        <path d="M462.603,155.905l-43.549,-7.679l-1.312,7.444l43.548,7.679l1.313,-7.444Z" style="fill:none;stroke:#00f;stroke-width:0.04px;stroke-linejoin:miter;"/>
        <path d="M492.678,106.131l3.034,0.535l0.643,-3.647l3.648,0.643l0.534,-3.034l11.911,2.101l-0.535,3.033l19.765,3.485l0.535,-3.033l11.91,2.1l-0.535,3.033l3.648,0.643l-0.643,3.648l3.033,0.535l-2.1,11.911l-3.033,-0.535l-3.485,19.764l3.033,0.535l-2.1,11.911l-3.033,-0.535l-0.644,3.648l-3.647,-0.644l-0.535,3.034l-11.911,-2.1l0.535,-3.034l-19.764,-3.485l-0.535,3.034l-11.911,-2.1l0.535,-3.034l-3.648,-0.643l0.643,-3.648l-3.033,-0.535l2.1,-11.91l3.034,0.534l3.485,-19.764l-3.034,-0.535l2.1,-11.911Z" style="fill:none;stroke:#00f;stroke-width:0.04px;stroke-linejoin:miter;"/>
        <path d="M533.508,168.407l-43.549,-7.679l-1.312,7.445l43.548,7.679l1.313,-7.445Z" style="fill:none;stroke:#00f;stroke-width:0.04px;stroke-linejoin:miter;"/>
        <path d="M121.483,138.161l3.034,0.535l0.643,-3.648l3.647,0.643l0.535,-3.033l11.911,2.1l-0.535,3.033l19.765,3.485l0.534,-3.033l11.911,2.1l-0.535,3.033l3.648,0.644l-0.643,3.647l3.033,0.535l-2.1,11.911l-3.033,-0.535l-3.485,19.764l3.033,0.535l-2.1,11.911l-3.034,-0.535l-0.643,3.648l-3.647,-0.643l-0.535,3.033l-11.911,-2.1l0.535,-3.034l-19.765,-3.485l-0.535,3.034l-11.91,-2.1l0.535,-3.034l-3.648,-0.643l0.643,-3.648l-3.033,-0.534l2.1,-11.911l3.033,0.535l3.485,-19.765l-3.033,-0.535l2.1,-11.91Z" style="fill:none;stroke:#00f;stroke-width:0.04px;stroke-linejoin:miter;"/>
        <path d="M162.313,200.437l-43.549,-7.679l-1.312,7.444l43.548,7.679l1.313,-7.444Z" style="fill:none;stroke:#00f;stroke-width:0.04px;stroke-linejoin:miter;"/>
        <path d="M192.388,150.663l3.034,0.535l0.643,-3.648l3.647,0.644l0.535,-3.034l11.911,2.1l-0.535,3.034l19.765,3.485l0.534,-3.034l11.911,2.1l-0.535,3.034l3.648,0.643l-0.643,3.648l3.033,0.535l-2.1,11.91l-3.033,-0.534l-3.485,19.764l3.033,0.535l-2.1,11.911l-3.034,-0.535l-0.643,3.647l-3.647,-0.643l-0.535,3.034l-11.911,-2.101l0.535,-3.033l-19.765,-3.485l-0.535,3.033l-11.91,-2.1l0.535,-3.033l-3.648,-0.643l0.643,-3.648l-3.033,-0.535l2.1,-11.911l3.033,0.535l3.485,-19.764l-3.033,-0.535l2.1,-11.911Z" style="fill:none;stroke:#00f;stroke-width:0.04px;stroke-linejoin:miter;"/>
        <path d="M233.218,212.939l-43.549,-7.679l-1.312,7.444l43.548,7.679l1.313,-7.444Z" style="fill:none;stroke:#00f;stroke-width:0.04px;stroke-linejoin:miter;"/>
        <path d="M267.461,139.529l3.033,0.535l0.643,-3.647l3.648,0.643l0.535,-3.034l11.911,2.1l-0.535,3.034l19.764,3.485l0.535,-3.034l11.911,2.101l-0.535,3.033l3.648,0.643l-0.644,3.648l3.034,0.535l-2.1,11.911l-3.034,-0.535l-3.485,19.764l3.034,0.535l-2.1,11.911l-3.034,-0.535l-0.643,3.648l-3.648,-0.644l-0.535,3.034l-11.91,-2.1l0.534,-3.034l-19.764,-3.485l-0.535,3.034l-11.911,-2.101l0.535,-3.033l-3.647,-0.643l0.643,-3.648l-3.034,-0.535l2.101,-11.911l3.033,0.535l3.485,-19.764l-3.033,-0.535l2.1,-11.911Z" style="fill:none;stroke:#00f;stroke-width:0.04px;stroke-linejoin:miter;"/>
        <path d="M308.291,201.805l-43.549,-7.679l-1.313,7.445l43.549,7.678l1.313,-7.444Z" style="fill:none;stroke:#00f;stroke-width:0.04px;stroke-linejoin:miter;"/>
        <path d="M342.533,128.396l3.034,0.535l0.643,-3.647l3.648,0.643l0.535,-3.034l11.91,2.101l-0.535,3.033l19.765,3.485l0.535,-3.034l11.91,2.101l-0.534,3.033l3.647,0.643l-0.643,3.648l3.034,0.535l-2.101,11.911l-3.033,-0.535l-3.485,19.764l3.033,0.535l-2.1,11.911l-3.033,-0.535l-0.644,3.648l-3.647,-0.644l-0.535,3.034l-11.911,-2.1l0.535,-3.034l-19.764,-3.485l-0.535,3.034l-11.911,-2.1l0.535,-3.034l-3.648,-0.643l0.643,-3.648l-3.033,-0.535l2.1,-11.91l3.034,0.534l3.485,-19.764l-3.034,-0.535l2.1,-11.911Z" style="fill:none;stroke:#00f;stroke-width:0.04px;stroke-linejoin:miter;"/>
        <path d="M383.363,190.672l-43.549,-7.679l-1.312,7.445l43.548,7.678l1.313,-7.444Z" style="fill:none;stroke:#00f;stroke-width:0.04px;stroke-linejoin:miter;"/>
        <path d="M409.271,164.534l3.033,0.535l0.643,-3.647l3.648,0.643l0.535,-3.034l11.911,2.1l-0.535,3.034l19.764,3.485l0.535,-3.034l11.911,2.101l-0.535,3.033l3.648,0.643l-0.644,3.648l3.034,0.535l-2.1,11.911l-3.034,-0.535l-3.485,19.764l3.034,0.535l-2.1,11.911l-3.034,-0.535l-0.643,3.647l-3.648,-0.643l-0.535,3.034l-11.91,-2.1l0.534,-3.034l-19.764,-3.485l-0.535,3.034l-11.911,-2.101l0.535,-3.033l-3.647,-0.643l0.643,-3.648l-3.034,-0.535l2.101,-11.911l3.033,0.535l3.485,-19.764l-3.033,-0.535l2.1,-11.911Z" style="fill:none;stroke:#00f;stroke-width:0.04px;stroke-linejoin:miter;"/>
        <path d="M450.101,226.81l-43.549,-7.679l-1.313,7.445l43.549,7.678l1.313,-7.444Z" style="fill:none;stroke:#00f;stroke-width:0.04px;stroke-linejoin:miter;"/>
        <path d="M480.176,177.037l3.033,0.535l0.643,-3.648l3.648,0.643l0.535,-3.033l11.911,2.1l-0.535,3.033l19.764,3.485l0.535,-3.033l11.911,2.1l-0.535,3.034l3.648,0.643l-0.644,3.647l3.034,0.535l-2.1,11.911l-3.034,-0.535l-3.485,19.765l3.034,0.534l-2.1,11.911l-3.034,-0.535l-0.643,3.648l-3.648,-0.643l-0.535,3.033l-11.91,-2.1l0.534,-3.033l-19.764,-3.485l-0.535,3.033l-11.911,-2.1l0.535,-3.034l-3.647,-0.643l0.643,-3.647l-3.034,-0.535l2.101,-11.911l3.033,0.535l3.485,-19.765l-3.033,-0.535l2.1,-11.91Z" style="fill:none;stroke:#00f;stroke-width:0.04px;stroke-linejoin:miter;"/>
        <path d="M521.006,239.313l-43.549,-7.679l-1.313,7.444l43.549,7.679l1.313,-7.444Z" style="fill:none;stroke:#00f;stroke-width:0.04px;stroke-linejoin:miter;"/>
        <path d="M108.98,209.066l3.034,0.535l0.643,-3.648l3.648,0.643l0.535,-3.033l11.91,2.1l-0.534,3.034l19.764,3.485l0.535,-3.034l11.911,2.1l-0.535,3.034l3.647,0.643l-0.643,3.648l3.034,0.534l-2.1,11.911l-3.034,-0.535l-3.485,19.765l3.034,0.535l-2.101,11.91l-3.033,-0.535l-0.643,3.648l-3.648,-0.643l-0.535,3.033l-11.911,-2.1l0.535,-3.033l-19.764,-3.485l-0.535,3.033l-11.911,-2.1l0.535,-3.033l-3.648,-0.644l0.644,-3.647l-3.034,-0.535l2.1,-11.911l3.034,0.535l3.485,-19.764l-3.034,-0.535l2.1,-11.911Z" style="fill:none;stroke:#00f;stroke-width:0.04px;stroke-linejoin:miter;"/>
        <path d="M149.81,271.342l-43.548,-7.679l-1.313,7.444l43.549,7.679l1.312,-7.444Z" style="fill:none;stroke:#00f;stroke-width:0.04px;stroke-linejoin:miter;"/>
        <path d="M179.885,221.568l3.034,0.535l0.643,-3.647l3.648,0.643l0.535,-3.034l11.91,2.101l-0.534,3.033l19.764,3.485l0.535,-3.034l11.911,2.101l-0.535,3.033l3.647,0.643l-0.643,3.648l3.034,0.535l-2.1,11.911l-3.034,-0.535l-3.485,19.764l3.034,0.535l-2.101,11.911l-3.033,-0.535l-0.643,3.648l-3.648,-0.644l-0.535,3.034l-11.911,-2.1l0.535,-3.034l-19.764,-3.485l-0.535,3.034l-11.911,-2.1l0.535,-3.034l-3.648,-0.643l0.644,-3.648l-3.034,-0.535l2.1,-11.91l3.034,0.534l3.485,-19.764l-3.034,-0.535l2.1,-11.911Z" style="fill:none;stroke:#00f;stroke-width:0.04px;stroke-linejoin:miter;"/>
        <path d="M220.715,283.844l-43.548,-7.679l-1.313,7.445l43.549,7.678l1.312,-7.444Z" style="fill:none;stroke:#00f;stroke-width:0.04px;stroke-linejoin:miter;"/>
        <path d="M254.958,210.435l3.034,0.535l0.643,-3.648l3.648,0.643l0.534,-3.033l11.911,2.1l-0.535,3.033l19.765,3.485l0.535,-3.033l11.91,2.1l-0.535,3.033l3.648,0.644l-0.643,3.647l3.033,0.535l-2.1,11.911l-3.033,-0.535l-3.485,19.764l3.033,0.535l-2.1,11.911l-3.033,-0.535l-0.644,3.648l-3.647,-0.643l-0.535,3.033l-11.911,-2.1l0.535,-3.034l-19.764,-3.485l-0.535,3.034l-11.911,-2.1l0.535,-3.034l-3.648,-0.643l0.643,-3.648l-3.033,-0.534l2.1,-11.911l3.034,0.535l3.485,-19.765l-3.034,-0.535l2.1,-11.91Z" style="fill:none;stroke:#00f;stroke-width:0.04px;stroke-linejoin:miter;"/>
        <path d="M295.788,272.71l-43.549,-7.678l-1.312,7.444l43.548,7.679l1.313,-7.445Z" style="fill:none;stroke:#00f;stroke-width:0.04px;stroke-linejoin:miter;"/>
        <path d="M330.031,199.302l3.033,0.535l0.643,-3.648l3.648,0.643l0.535,-3.033l11.911,2.1l-0.535,3.033l19.764,3.485l0.535,-3.033l11.911,2.1l-0.535,3.033l3.648,0.644l-0.644,3.647l3.034,0.535l-2.1,11.911l-3.034,-0.535l-3.485,19.764l3.034,0.535l-2.1,11.911l-3.034,-0.535l-0.643,3.648l-3.648,-0.643l-0.535,3.033l-11.91,-2.1l0.535,-3.033l-19.765,-3.485l-0.535,3.033l-11.911,-2.1l0.535,-3.034l-3.647,-0.643l0.643,-3.648l-3.034,-0.534l2.101,-11.911l3.033,0.535l3.485,-19.765l-3.033,-0.535l2.1,-11.91Z" style="fill:none;stroke:#00f;stroke-width:0.04px;stroke-linejoin:miter;"/>
        <path d="M370.861,261.578l-43.549,-7.679l-1.313,7.444l43.549,7.679l1.313,-7.444Z" style="fill:none;stroke:#00f;stroke-width:0.04px;stroke-linejoin:miter;"/>
        <path d="M396.768,235.44l3.034,0.534l0.643,-3.647l3.648,0.643l0.534,-3.034l11.911,2.101l-0.535,3.033l19.765,3.485l0.535,-3.033l11.91,2.1l-0.535,3.033l3.648,0.644l-0.643,3.647l3.033,0.535l-2.1,11.911l-3.033,-0.535l-3.485,19.764l3.033,0.535l-2.1,11.911l-3.033,-0.535l-0.644,3.648l-3.647,-0.643l-0.535,3.033l-11.911,-2.1l0.535,-3.034l-19.764,-3.485l-0.535,3.034l-11.911,-2.1l0.535,-3.034l-3.648,-0.643l0.643,-3.648l-3.033,-0.535l2.1,-11.91l3.034,0.535l3.485,-19.765l-3.034,-0.535l2.1,-11.91Z" style="fill:none;stroke:#00f;stroke-width:0.04px;stroke-linejoin:miter;"/>
        <path d="M437.598,297.715l-43.549,-7.678l-1.312,7.444l43.548,7.679l1.313,-7.445Z" style="fill:none;stroke:#00f;stroke-width:0.04px;stroke-linejoin:miter;"/>
        <path d="M467.673,247.942l3.034,0.535l0.643,-3.648l3.648,0.643l0.534,-3.033l11.911,2.1l-0.535,3.034l19.765,3.485l0.535,-3.034l11.91,2.1l-0.535,3.034l3.648,0.643l-0.643,3.648l3.033,0.535l-2.1,11.91l-3.033,-0.535l-3.485,19.765l3.033,0.535l-2.1,11.91l-3.033,-0.534l-0.644,3.647l-3.647,-0.643l-0.535,3.034l-11.911,-2.101l0.535,-3.033l-19.764,-3.485l-0.535,3.033l-11.911,-2.1l0.535,-3.033l-3.648,-0.644l0.643,-3.647l-3.033,-0.535l2.1,-11.911l3.034,0.535l3.485,-19.764l-3.034,-0.535l2.1,-11.911Z" style="fill:none;stroke:#00f;stroke-width:0.04px;stroke-linejoin:miter;"/>
        <path d="M508.503,310.218l-43.549,-7.679l-1.312,7.444l43.548,7.679l1.313,-7.444Z" style="fill:none;stroke:#00f;stroke-width:0.04px;stroke-linejoin:miter;"/>
        <path d="M96.478,279.971l3.033,0.535l0.644,-3.648l3.647,0.644l0.535,-3.034l11.911,2.1l-0.535,3.034l19.764,3.485l0.535,-3.034l11.911,2.101l-0.535,3.033l3.648,0.643l-0.643,3.648l3.033,0.535l-2.1,11.911l-3.033,-0.535l-3.485,19.764l3.033,0.535l-2.1,11.911l-3.034,-0.535l-0.643,3.647l-3.648,-0.643l-0.534,3.034l-11.911,-2.1l0.535,-3.034l-19.765,-3.485l-0.535,3.034l-11.91,-2.101l0.535,-3.033l-3.648,-0.643l0.643,-3.648l-3.033,-0.535l2.1,-11.911l3.033,0.535l3.485,-19.764l-3.033,-0.535l2.1,-11.911Z" style="fill:none;stroke:#00f;stroke-width:0.04px;stroke-linejoin:miter;"/>
        <path d="M137.308,342.247l-43.549,-7.679l-1.312,7.445l43.548,7.678l1.313,-7.444Z" style="fill:none;stroke:#00f;stroke-width:0.04px;stroke-linejoin:miter;"/>
        <path d="M167.359,292.464l3.034,0.535l0.643,-3.648l3.647,0.644l0.535,-3.034l11.911,2.1l-0.535,3.034l19.765,3.485l0.534,-3.034l11.911,2.1l-0.535,3.034l3.648,0.643l-0.643,3.648l3.033,0.535l-2.1,11.91l-3.033,-0.534l-3.485,19.764l3.033,0.535l-2.1,11.911l-3.034,-0.535l-0.643,3.647l-3.647,-0.643l-0.535,3.034l-11.911,-2.101l0.535,-3.033l-19.765,-3.485l-0.534,3.033l-11.911,-2.1l0.535,-3.033l-3.648,-0.643l0.643,-3.648l-3.033,-0.535l2.1,-11.911l3.033,0.535l3.485,-19.764l-3.033,-0.535l2.1,-11.911Z" style="fill:none;stroke:#00f;stroke-width:0.04px;stroke-linejoin:miter;"/>
        <path d="M208.189,354.74l-43.549,-7.679l-1.312,7.444l43.548,7.679l1.313,-7.444Z" style="fill:none;stroke:#00f;stroke-width:0.04px;stroke-linejoin:miter;"/>
        <path d="M238.288,304.976l3.033,0.535l0.644,-3.648l3.647,0.644l0.535,-3.034l11.911,2.1l-0.535,3.034l19.764,3.485l0.535,-3.034l11.911,2.1l-0.535,3.034l3.648,0.643l-0.643,3.648l3.033,0.535l-2.1,11.91l-3.033,-0.534l-3.485,19.764l3.033,0.535l-2.1,11.911l-3.034,-0.535l-0.643,3.647l-3.648,-0.643l-0.534,3.034l-11.911,-2.101l0.535,-3.033l-19.765,-3.485l-0.535,3.034l-11.91,-2.101l0.535,-3.033l-3.648,-0.643l0.643,-3.648l-3.033,-0.535l2.1,-11.911l3.033,0.535l3.485,-19.764l-3.033,-0.535l2.1,-11.911Z" style="fill:none;stroke:#00f;stroke-width:0.04px;stroke-linejoin:miter;"/>
        <path d="M279.118,367.252l-43.549,-7.679l-1.312,7.444l43.548,7.679l1.313,-7.444Z" style="fill:none;stroke:#00f;stroke-width:0.04px;stroke-linejoin:miter;"/>
        <path d="M309.169,317.469l3.034,0.535l0.643,-3.648l3.647,0.643l0.535,-3.033l11.911,2.1l-0.535,3.034l19.765,3.485l0.534,-3.034l11.911,2.1l-0.535,3.034l3.648,0.643l-0.643,3.648l3.033,0.535l-2.1,11.91l-3.033,-0.535l-3.485,19.765l3.033,0.535l-2.1,11.91l-3.034,-0.534l-0.643,3.647l-3.647,-0.643l-0.535,3.034l-11.911,-2.101l0.535,-3.033l-19.765,-3.485l-0.534,3.033l-11.911,-2.1l0.535,-3.033l-3.648,-0.643l0.643,-3.648l-3.033,-0.535l2.1,-11.911l3.033,0.535l3.485,-19.764l-3.033,-0.535l2.1,-11.911Z" style="fill:none;stroke:#00f;stroke-width:0.04px;stroke-linejoin:miter;"/>
        <path d="M349.999,379.745l-43.549,-7.679l-1.312,7.444l43.548,7.679l1.313,-7.444Z" style="fill:none;stroke:#00f;stroke-width:0.04px;stroke-linejoin:miter;"/>
        <path d="M409.056,311.932l2.895,1.054l1.266,-3.481l3.481,1.267l1.054,-2.894l11.365,4.136l-1.054,2.895l18.859,6.864l1.054,-2.895l11.365,4.137l-1.054,2.894l3.481,1.267l-1.267,3.481l2.894,1.053l-4.136,11.365l-2.895,-1.053l-6.864,18.859l2.895,1.053l-4.137,11.365l-2.894,-1.053l-1.267,3.48l-3.481,-1.266l-1.053,2.894l-11.365,-4.136l1.053,-2.895l-18.859,-6.864l-1.053,2.895l-11.365,-4.137l1.053,-2.895l-3.48,-1.266l1.266,-3.481l-2.894,-1.053l4.136,-11.366l2.895,1.054l6.864,-18.859l-2.894,-1.054l4.136,-11.365Z" style="fill:none;stroke:#00f;stroke-width:0.04px;stroke-linejoin:miter;"/>
        <path d="M438.452,380.352l-41.554,-15.124l-2.585,7.103l41.553,15.124l2.586,-7.103Z" style="fill:none;stroke:#00f;stroke-width:0.04px;stroke-linejoin:miter;"/>
        <path d="M502.701,359.877l1.875,2.444l2.939,-2.255l2.254,2.939l2.444,-1.875l7.363,9.595l-2.444,1.875l12.217,15.922l2.444,-1.875l7.363,9.595l-2.444,1.875l2.255,2.939l-2.939,2.254l1.876,2.444l-9.596,7.363l-1.875,-2.444l-15.922,12.218l1.875,2.443l-9.595,7.363l-1.875,-2.444l-2.939,2.255l-2.254,-2.939l-2.444,1.876l-7.363,-9.596l2.444,-1.875l-12.217,-15.922l-2.444,1.875l-7.363,-9.595l2.444,-1.875l-2.255,-2.938l2.939,-2.255l-1.876,-2.444l9.596,-7.363l1.875,2.444l15.922,-12.217l-1.875,-2.444l9.595,-7.363Z" style="fill:none;stroke:#00f;stroke-width:0.04px;stroke-linejoin:miter;"/>
        <path d="M497.648,350.156l-35.082,26.92l4.601,5.997l35.083,-26.92l-4.602,-5.997Z" style="fill:none;stroke:#00f;stroke-width:0.04px;stroke-linejoin:miter;"/>
        <path d="M1113.62,66.877l-3.034,0.535l-0.643,-3.647l-3.648,0.643l-0.535,-3.034l-11.91,2.101l0.535,3.033l-19.765,3.485l-0.535,-3.033l-11.91,2.1l0.534,3.033l-3.647,0.643l0.643,3.648l-3.034,0.535l2.101,11.911l3.033,-0.535l3.485,19.764l-3.033,0.535l2.1,11.911l3.033,-0.535l0.644,3.648l3.647,-0.644l0.535,3.034l11.911,-2.1l-0.535,-3.034l19.764,-3.485l0.535,3.034l11.911,-2.1l-0.535,-3.034l3.648,-0.643l-0.643,-3.648l3.033,-0.535l-2.1,-11.91l-3.034,0.534l-3.485,-19.764l3.034,-0.535l-2.1,-11.911Z" style="fill:none;stroke:#00f;stroke-width:0.04px;stroke-linejoin:miter;"/>
        <path d="M1072.79,129.153l43.549,-7.679l1.312,7.445l-43.548,7.679l-1.313,-7.445Z" style="fill:none;stroke:#00f;stroke-width:0.04px;stroke-linejoin:miter;"/>
        <path d="M1042.72,79.38l-3.034,0.535l-0.643,-3.648l-3.648,0.643l-0.535,-3.033l-11.91,2.1l0.535,3.034l-19.765,3.485l-0.535,-3.034l-11.91,2.1l0.534,3.034l-3.647,0.643l0.643,3.648l-3.034,0.534l2.101,11.911l3.033,-0.535l3.485,19.765l-3.033,0.535l2.1,11.91l3.033,-0.535l0.644,3.648l3.647,-0.643l0.535,3.033l11.911,-2.1l-0.535,-3.033l19.764,-3.485l0.535,3.033l11.911,-2.1l-0.535,-3.033l3.648,-0.644l-0.643,-3.647l3.033,-0.535l-2.1,-11.911l-3.034,0.535l-3.485,-19.764l3.034,-0.535l-2.1,-11.911Z" style="fill:none;stroke:#00f;stroke-width:0.04px;stroke-linejoin:miter;"/>
        <path d="M1001.89,141.656l43.549,-7.679l1.312,7.444l-43.548,7.679l-1.313,-7.444Z" style="fill:none;stroke:#00f;stroke-width:0.04px;stroke-linejoin:miter;"/>
        <path d="M967.646,68.246l-3.033,0.535l-0.644,-3.648l-3.647,0.644l-0.535,-3.034l-11.911,2.1l0.535,3.034l-19.764,3.485l-0.535,-3.034l-11.911,2.1l0.535,3.034l-3.648,0.643l0.643,3.648l-3.033,0.535l2.1,11.91l3.033,-0.535l3.485,19.765l-3.033,0.535l2.1,11.911l3.034,-0.535l0.643,3.647l3.648,-0.643l0.534,3.034l11.911,-2.101l-0.535,-3.033l19.765,-3.485l0.535,3.033l11.91,-2.1l-0.535,-3.033l3.648,-0.643l-0.643,-3.648l3.033,-0.535l-2.1,-11.911l-3.033,0.535l-3.485,-19.764l3.033,-0.535l-2.1,-11.911Z" style="fill:none;stroke:#00f;stroke-width:0.04px;stroke-linejoin:miter;"/>
        <path d="M926.816,130.522l43.549,-7.679l1.312,7.444l-43.548,7.679l-1.313,-7.444Z" style="fill:none;stroke:#00f;stroke-width:0.04px;stroke-linejoin:miter;"/>
        <path d="M892.573,57.113l-3.033,0.535l-0.643,-3.648l-3.648,0.644l-0.535,-3.034l-11.911,2.1l0.535,3.034l-19.764,3.485l-0.535,-3.034l-11.911,2.1l0.535,3.034l-3.647,0.643l0.643,3.648l-3.034,0.535l2.1,11.91l3.034,-0.534l3.485,19.764l-3.034,0.535l2.101,11.911l3.033,-0.535l0.643,3.647l3.648,-0.643l0.535,3.034l11.911,-2.1l-0.535,-3.034l19.764,-3.485l0.535,3.034l11.911,-2.101l-0.535,-3.033l3.648,-0.643l-0.644,-3.648l3.034,-0.535l-2.1,-11.911l-3.034,0.535l-3.485,-19.764l3.034,-0.535l-2.101,-11.911Z" style="fill:none;stroke:#00f;stroke-width:0.04px;stroke-linejoin:miter;"/>
        <path d="M851.744,119.389l43.548,-7.679l1.313,7.444l-43.549,7.679l-1.312,-7.444Z" style="fill:none;stroke:#00f;stroke-width:0.04px;stroke-linejoin:miter;"/>
        <path d="M825.836,93.251l-3.033,0.535l-0.644,-3.648l-3.647,0.643l-0.535,-3.033l-11.911,2.1l0.535,3.034l-19.764,3.485l-0.535,-3.034l-11.911,2.1l0.535,3.034l-3.648,0.643l0.643,3.648l-3.033,0.535l2.1,11.91l3.033,-0.535l3.485,19.765l-3.033,0.535l2.1,11.91l3.034,-0.534l0.643,3.647l3.648,-0.643l0.534,3.034l11.911,-2.101l-0.535,-3.033l19.765,-3.485l0.535,3.033l11.91,-2.1l-0.535,-3.033l3.648,-0.644l-0.643,-3.647l3.033,-0.535l-2.1,-11.911l-3.033,0.535l-3.485,-19.764l3.033,-0.535l-2.1,-11.911Z" style="fill:none;stroke:#00f;stroke-width:0.04px;stroke-linejoin:miter;"/>
        <path d="M785.006,155.527l43.549,-7.679l1.312,7.444l-43.548,7.679l-1.313,-7.444Z" style="fill:none;stroke:#00f;stroke-width:0.04px;stroke-linejoin:miter;"/>
        <path d="M754.931,105.754l-3.033,0.534l-0.644,-3.647l-3.647,0.643l-0.535,-3.034l-11.911,2.101l0.535,3.033l-19.764,3.485l-0.535,-3.033l-11.911,2.1l0.535,3.033l-3.648,0.643l0.643,3.648l-3.033,0.535l2.1,11.911l3.033,-0.535l3.485,19.764l-3.033,0.535l2.1,11.911l3.034,-0.535l0.643,3.648l3.648,-0.644l0.534,3.034l11.911,-2.1l-0.535,-3.034l19.765,-3.485l0.535,3.034l11.91,-2.1l-0.535,-3.034l3.648,-0.643l-0.643,-3.648l3.033,-0.535l-2.1,-11.91l-3.033,0.535l-3.485,-19.765l3.033,-0.535l-2.1,-11.91Z" style="fill:none;stroke:#00f;stroke-width:0.04px;stroke-linejoin:miter;"/>
        <path d="M714.101,168.029l43.549,-7.678l1.312,7.444l-43.548,7.679l-1.313,-7.445Z" style="fill:none;stroke:#00f;stroke-width:0.04px;stroke-linejoin:miter;"/>
        <path d="M1126.13,137.783l-3.033,0.535l-0.643,-3.648l-3.648,0.643l-0.535,-3.033l-11.911,2.1l0.535,3.033l-19.764,3.485l-0.535,-3.033l-11.911,2.1l0.535,3.034l-3.648,0.643l0.644,3.647l-3.034,0.535l2.1,11.911l3.034,-0.535l3.485,19.764l-3.034,0.535l2.1,11.911l3.034,-0.535l0.643,3.648l3.648,-0.643l0.535,3.033l11.91,-2.1l-0.535,-3.033l19.765,-3.485l0.535,3.033l11.911,-2.1l-0.535,-3.034l3.647,-0.643l-0.643,-3.647l3.034,-0.535l-2.101,-11.911l-3.033,0.535l-3.485,-19.765l3.033,-0.535l-2.1,-11.91Z" style="fill:none;stroke:#00f;stroke-width:0.04px;stroke-linejoin:miter;"/>
        <path d="M1085.3,200.059l43.549,-7.679l1.313,7.444l-43.549,7.679l-1.313,-7.444Z" style="fill:none;stroke:#00f;stroke-width:0.04px;stroke-linejoin:miter;"/>
        <path d="M1055.22,150.285l-3.033,0.535l-0.643,-3.648l-3.648,0.644l-0.535,-3.034l-11.911,2.1l0.535,3.034l-19.764,3.485l-0.535,-3.034l-11.911,2.1l0.535,3.034l-3.648,0.643l0.644,3.648l-3.034,0.535l2.1,11.91l3.034,-0.534l3.485,19.764l-3.034,0.535l2.1,11.911l3.034,-0.535l0.643,3.647l3.648,-0.643l0.535,3.034l11.91,-2.1l-0.535,-3.034l19.765,-3.485l0.535,3.034l11.911,-2.101l-0.535,-3.033l3.647,-0.643l-0.643,-3.648l3.034,-0.535l-2.101,-11.911l-3.033,0.535l-3.485,-19.764l3.033,-0.535l-2.1,-11.911Z" style="fill:none;stroke:#00f;stroke-width:0.04px;stroke-linejoin:miter;"/>
        <path d="M1014.39,212.561l43.549,-7.679l1.313,7.444l-43.549,7.679l-1.313,-7.444Z" style="fill:none;stroke:#00f;stroke-width:0.04px;stroke-linejoin:miter;"/>
        <path d="M980.149,139.151l-3.034,0.535l-0.643,-3.647l-3.648,0.643l-0.535,-3.034l-11.91,2.1l0.534,3.034l-19.764,3.485l-0.535,-3.034l-11.911,2.101l0.535,3.033l-3.647,0.643l0.643,3.648l-3.034,0.535l2.1,11.911l3.034,-0.535l3.485,19.764l-3.034,0.535l2.101,11.911l3.033,-0.535l0.643,3.648l3.648,-0.644l0.535,3.034l11.911,-2.1l-0.535,-3.034l19.764,-3.485l0.535,3.034l11.911,-2.1l-0.535,-3.034l3.648,-0.643l-0.644,-3.648l3.034,-0.535l-2.1,-11.91l-3.034,0.534l-3.485,-19.764l3.034,-0.535l-2.1,-11.911Z" style="fill:none;stroke:#00f;stroke-width:0.04px;stroke-linejoin:miter;"/>
        <path d="M939.319,201.427l43.548,-7.679l1.313,7.445l-43.549,7.678l-1.312,-7.444Z" style="fill:none;stroke:#00f;stroke-width:0.04px;stroke-linejoin:miter;"/>
        <path d="M905.076,128.018l-3.034,0.535l-0.643,-3.647l-3.647,0.643l-0.535,-3.034l-11.911,2.101l0.535,3.033l-19.765,3.485l-0.534,-3.033l-11.911,2.1l0.535,3.033l-3.648,0.643l0.643,3.648l-3.033,0.535l2.1,11.911l3.033,-0.535l3.485,19.764l-3.033,0.535l2.1,11.911l3.034,-0.535l0.643,3.648l3.647,-0.644l0.535,3.034l11.911,-2.1l-0.535,-3.034l19.765,-3.485l0.535,3.034l11.91,-2.1l-0.535,-3.034l3.648,-0.643l-0.643,-3.648l3.033,-0.535l-2.1,-11.91l-3.033,0.535l-3.485,-19.765l3.033,-0.535l-2.1,-11.911Z" style="fill:none;stroke:#00f;stroke-width:0.04px;stroke-linejoin:miter;"/>
        <path d="M864.246,190.294l43.549,-7.678l1.312,7.444l-43.548,7.679l-1.313,-7.445Z" style="fill:none;stroke:#00f;stroke-width:0.04px;stroke-linejoin:miter;"/>
        <path d="M838.339,164.156l-3.034,0.535l-0.643,-3.647l-3.648,0.643l-0.535,-3.034l-11.91,2.1l0.534,3.034l-19.764,3.485l-0.535,-3.034l-11.911,2.101l0.535,3.033l-3.647,0.643l0.643,3.648l-3.034,0.535l2.1,11.911l3.034,-0.535l3.485,19.764l-3.034,0.535l2.101,11.911l3.033,-0.535l0.643,3.647l3.648,-0.643l0.535,3.034l11.911,-2.1l-0.535,-3.034l19.764,-3.485l0.535,3.034l11.911,-2.101l-0.535,-3.033l3.648,-0.643l-0.644,-3.648l3.034,-0.535l-2.1,-11.911l-3.034,0.535l-3.485,-19.764l3.034,-0.535l-2.1,-11.911Z" style="fill:none;stroke:#00f;stroke-width:0.04px;stroke-linejoin:miter;"/>
        <path d="M797.509,226.432l43.548,-7.679l1.313,7.445l-43.549,7.678l-1.312,-7.444Z" style="fill:none;stroke:#00f;stroke-width:0.04px;stroke-linejoin:miter;"/>
        <path d="M767.434,176.659l-3.034,0.535l-0.643,-3.648l-3.648,0.643l-0.535,-3.033l-11.91,2.1l0.534,3.033l-19.764,3.485l-0.535,-3.033l-11.911,2.1l0.535,3.034l-3.647,0.643l0.643,3.647l-3.034,0.535l2.1,11.911l3.034,-0.535l3.485,19.765l-3.034,0.534l2.101,11.911l3.033,-0.535l0.643,3.648l3.648,-0.643l0.535,3.033l11.911,-2.1l-0.535,-3.033l19.764,-3.485l0.535,3.033l11.911,-2.1l-0.535,-3.034l3.648,-0.643l-0.644,-3.647l3.034,-0.535l-2.1,-11.911l-3.034,0.535l-3.485,-19.765l3.034,-0.534l-2.1,-11.911Z" style="fill:none;stroke:#00f;stroke-width:0.04px;stroke-linejoin:miter;"/>
        <path d="M726.604,238.935l43.548,-7.679l1.313,7.444l-43.549,7.679l-1.312,-7.444Z" style="fill:none;stroke:#00f;stroke-width:0.04px;stroke-linejoin:miter;"/>
        <path d="M1138.63,208.688l-3.034,0.535l-0.643,-3.648l-3.648,0.643l-0.534,-3.033l-11.911,2.1l0.535,3.034l-19.765,3.485l-0.535,-3.034l-11.91,2.1l0.535,3.034l-3.648,0.643l0.643,3.648l-3.033,0.535l2.1,11.91l3.033,-0.535l3.485,19.765l-3.033,0.535l2.1,11.91l3.033,-0.534l0.644,3.647l3.647,-0.643l0.535,3.034l11.911,-2.101l-0.535,-3.033l19.764,-3.485l0.535,3.033l11.911,-2.1l-0.535,-3.033l3.648,-0.644l-0.643,-3.647l3.033,-0.535l-2.1,-11.911l-3.034,0.535l-3.485,-19.764l3.034,-0.535l-2.1,-11.911Z" style="fill:none;stroke:#00f;stroke-width:0.04px;stroke-linejoin:miter;"/>
        <path d="M1097.8,270.964l43.549,-7.679l1.312,7.444l-43.548,7.679l-1.313,-7.444Z" style="fill:none;stroke:#00f;stroke-width:0.04px;stroke-linejoin:miter;"/>
        <path d="M1067.72,221.19l-3.034,0.535l-0.643,-3.647l-3.648,0.643l-0.534,-3.034l-11.911,2.101l0.535,3.033l-19.765,3.485l-0.535,-3.033l-11.91,2.1l0.535,3.033l-3.648,0.643l0.643,3.648l-3.033,0.535l2.1,11.911l3.033,-0.535l3.485,19.764l-3.033,0.535l2.1,11.911l3.033,-0.535l0.644,3.648l3.647,-0.644l0.535,3.034l11.911,-2.1l-0.535,-3.034l19.764,-3.485l0.535,3.034l11.911,-2.1l-0.535,-3.034l3.648,-0.643l-0.643,-3.648l3.033,-0.535l-2.1,-11.91l-3.034,0.535l-3.485,-19.765l3.034,-0.535l-2.1,-11.911Z" style="fill:none;stroke:#00f;stroke-width:0.04px;stroke-linejoin:miter;"/>
        <path d="M1026.89,283.466l43.549,-7.678l1.312,7.444l-43.548,7.679l-1.313,-7.445Z" style="fill:none;stroke:#00f;stroke-width:0.04px;stroke-linejoin:miter;"/>
        <path d="M992.651,210.057l-3.033,0.535l-0.644,-3.648l-3.647,0.643l-0.535,-3.033l-11.911,2.1l0.535,3.033l-19.764,3.485l-0.535,-3.033l-11.911,2.1l0.535,3.033l-3.648,0.644l0.643,3.647l-3.033,0.535l2.1,11.911l3.034,-0.535l3.485,19.764l-3.034,0.535l2.1,11.911l3.034,-0.535l0.643,3.648l3.648,-0.643l0.534,3.033l11.911,-2.1l-0.535,-3.034l19.765,-3.485l0.535,3.034l11.91,-2.1l-0.535,-3.034l3.648,-0.643l-0.643,-3.648l3.033,-0.534l-2.1,-11.911l-3.033,0.535l-3.485,-19.765l3.033,-0.535l-2.1,-11.91Z" style="fill:none;stroke:#00f;stroke-width:0.04px;stroke-linejoin:miter;"/>
        <path d="M951.821,272.333l43.549,-7.679l1.313,7.444l-43.549,7.679l-1.313,-7.444Z" style="fill:none;stroke:#00f;stroke-width:0.04px;stroke-linejoin:miter;"/>
        <path d="M917.579,198.924l-3.034,0.535l-0.643,-3.648l-3.648,0.643l-0.535,-3.033l-11.91,2.1l0.534,3.033l-19.764,3.485l-0.535,-3.033l-11.911,2.1l0.535,3.034l-3.647,0.643l0.643,3.647l-3.034,0.535l2.1,11.911l3.034,-0.535l3.485,19.765l-3.034,0.534l2.101,11.911l3.033,-0.535l0.643,3.648l3.648,-0.643l0.535,3.033l11.911,-2.1l-0.535,-3.033l19.764,-3.485l0.535,3.033l11.911,-2.1l-0.535,-3.034l3.648,-0.643l-0.644,-3.647l3.034,-0.535l-2.1,-11.911l-3.034,0.535l-3.485,-19.765l3.034,-0.534l-2.1,-11.911Z" style="fill:none;stroke:#00f;stroke-width:0.04px;stroke-linejoin:miter;"/>
        <path d="M876.749,261.2l43.548,-7.679l1.313,7.444l-43.549,7.679l-1.312,-7.444Z" style="fill:none;stroke:#00f;stroke-width:0.04px;stroke-linejoin:miter;"/>
        <path d="M850.841,235.062l-3.033,0.534l-0.644,-3.647l-3.647,0.643l-0.535,-3.034l-11.911,2.101l0.535,3.033l-19.764,3.485l-0.535,-3.033l-11.911,2.1l0.535,3.033l-3.648,0.644l0.643,3.647l-3.033,0.535l2.1,11.911l3.034,-0.535l3.485,19.764l-3.034,0.535l2.1,11.911l3.034,-0.535l0.643,3.648l3.648,-0.643l0.534,3.033l11.911,-2.1l-0.535,-3.034l19.765,-3.485l0.535,3.034l11.91,-2.1l-0.535,-3.034l3.648,-0.643l-0.643,-3.648l3.033,-0.535l-2.1,-11.91l-3.033,0.535l-3.485,-19.765l3.033,-0.535l-2.1,-11.91Z" style="fill:none;stroke:#00f;stroke-width:0.04px;stroke-linejoin:miter;"/>
        <path d="M810.011,297.337l43.549,-7.678l1.313,7.444l-43.549,7.679l-1.313,-7.445Z" style="fill:none;stroke:#00f;stroke-width:0.04px;stroke-linejoin:miter;"/>
        <path d="M779.936,247.564l-3.033,0.535l-0.644,-3.648l-3.647,0.643l-0.535,-3.033l-11.911,2.1l0.535,3.034l-19.764,3.485l-0.535,-3.034l-11.911,2.1l0.535,3.034l-3.648,0.643l0.643,3.648l-3.033,0.535l2.1,11.91l3.034,-0.535l3.485,19.765l-3.034,0.535l2.1,11.91l3.034,-0.534l0.643,3.647l3.648,-0.643l0.534,3.034l11.911,-2.101l-0.535,-3.033l19.765,-3.485l0.535,3.033l11.91,-2.1l-0.535,-3.033l3.648,-0.643l-0.643,-3.648l3.033,-0.535l-2.1,-11.911l-3.033,0.535l-3.485,-19.764l3.033,-0.535l-2.1,-11.911Z" style="fill:none;stroke:#00f;stroke-width:0.04px;stroke-linejoin:miter;"/>
        <path d="M739.106,309.84l43.549,-7.679l1.313,7.444l-43.549,7.679l-1.313,-7.444Z" style="fill:none;stroke:#00f;stroke-width:0.04px;stroke-linejoin:miter;"/>
        <path d="M1151.13,279.593l-3.033,0.535l-0.643,-3.647l-3.648,0.643l-0.535,-3.034l-11.911,2.1l0.535,3.034l-19.764,3.485l-0.535,-3.034l-11.911,2.101l0.535,3.033l-3.648,0.643l0.644,3.648l-3.034,0.535l2.1,11.911l3.034,-0.535l3.485,19.764l-3.034,0.535l2.1,11.911l3.034,-0.535l0.643,3.647l3.648,-0.643l0.535,3.034l11.91,-2.1l-0.534,-3.034l19.764,-3.485l0.535,3.034l11.911,-2.101l-0.535,-3.033l3.647,-0.643l-0.643,-3.648l3.034,-0.535l-2.101,-11.911l-3.033,0.535l-3.485,-19.764l3.033,-0.535l-2.1,-11.911Z" style="fill:none;stroke:#00f;stroke-width:0.04px;stroke-linejoin:miter;"/>
        <path d="M1110.3,341.869l43.549,-7.679l1.313,7.445l-43.549,7.678l-1.313,-7.444Z" style="fill:none;stroke:#00f;stroke-width:0.04px;stroke-linejoin:miter;"/>
        <path d="M1080.25,292.086l-3.033,0.535l-0.643,-3.648l-3.648,0.644l-0.535,-3.034l-11.911,2.1l0.535,3.034l-19.764,3.485l-0.535,-3.034l-11.911,2.1l0.535,3.034l-3.648,0.643l0.643,3.648l-3.033,0.535l2.1,11.91l3.034,-0.534l3.485,19.764l-3.034,0.535l2.1,11.911l3.034,-0.535l0.643,3.647l3.648,-0.643l0.535,3.034l11.91,-2.1l-0.535,-3.034l19.765,-3.485l0.535,3.034l11.91,-2.101l-0.534,-3.033l3.647,-0.643l-0.643,-3.648l3.034,-0.535l-2.101,-11.911l-3.033,0.535l-3.485,-19.764l3.033,-0.535l-2.1,-11.911Z" style="fill:none;stroke:#00f;stroke-width:0.04px;stroke-linejoin:miter;"/>
        <path d="M1039.42,354.362l43.549,-7.679l1.313,7.444l-43.549,7.679l-1.313,-7.444Z" style="fill:none;stroke:#00f;stroke-width:0.04px;stroke-linejoin:miter;"/>
        <path d="M1009.32,304.598l-3.033,0.535l-0.643,-3.648l-3.648,0.644l-0.535,-3.034l-11.911,2.1l0.535,3.034l-19.764,3.485l-0.535,-3.034l-11.911,2.1l0.535,3.034l-3.648,0.643l0.644,3.648l-3.034,0.535l2.1,11.91l3.034,-0.534l3.485,19.764l-3.034,0.535l2.1,11.911l3.034,-0.535l0.643,3.647l3.648,-0.643l0.535,3.034l11.91,-2.1l-0.534,-3.034l19.764,-3.485l0.535,3.034l11.911,-2.101l-0.535,-3.033l3.647,-0.643l-0.643,-3.648l3.034,-0.535l-2.101,-11.911l-3.033,0.535l-3.485,-19.764l3.033,-0.535l-2.1,-11.911Z" style="fill:none;stroke:#00f;stroke-width:0.04px;stroke-linejoin:miter;"/>
        <path d="M968.491,366.874l43.549,-7.679l1.313,7.444l-43.549,7.679l-1.313,-7.444Z" style="fill:none;stroke:#00f;stroke-width:0.04px;stroke-linejoin:miter;"/>
        <path d="M938.44,317.091l-3.033,0.535l-0.643,-3.648l-3.648,0.644l-0.535,-3.034l-11.911,2.1l0.535,3.034l-19.764,3.485l-0.535,-3.034l-11.911,2.1l0.535,3.034l-3.648,0.643l0.643,3.648l-3.033,0.535l2.1,11.91l3.034,-0.534l3.485,19.764l-3.034,0.535l2.1,11.911l3.034,-0.535l0.643,3.647l3.648,-0.643l0.535,3.034l11.91,-2.101l-0.535,-3.033l19.765,-3.485l0.535,3.033l11.91,-2.1l-0.534,-3.033l3.647,-0.643l-0.643,-3.648l3.034,-0.535l-2.101,-11.911l-3.033,0.535l-3.485,-19.764l3.033,-0.535l-2.1,-11.911Z" style="fill:none;stroke:#00f;stroke-width:0.04px;stroke-linejoin:miter;"/>
        <path d="M897.61,379.367l43.549,-7.679l1.313,7.444l-43.549,7.679l-1.313,-7.444Z" style="fill:none;stroke:#00f;stroke-width:0.04px;stroke-linejoin:miter;"/>
        <path d="M838.553,311.554l-2.894,1.054l-1.267,-3.481l-3.481,1.267l-1.053,-2.894l-11.365,4.136l1.053,2.895l-18.859,6.864l-1.053,-2.895l-11.365,4.137l1.053,2.894l-3.48,1.267l1.266,3.481l-2.894,1.053l4.136,11.365l2.895,-1.053l6.864,18.859l-2.895,1.053l4.137,11.365l2.895,-1.053l1.266,3.481l3.481,-1.267l1.053,2.894l11.366,-4.136l-1.054,-2.895l18.859,-6.864l1.054,2.895l11.365,-4.137l-1.054,-2.895l3.481,-1.266l-1.267,-3.481l2.894,-1.053l-4.136,-11.366l-2.895,1.054l-6.864,-18.859l2.895,-1.053l-4.137,-11.366Z" style="fill:none;stroke:#00f;stroke-width:0.04px;stroke-linejoin:miter;"/>
        <path d="M809.158,379.974l41.553,-15.124l2.586,7.103l-41.554,15.124l-2.585,-7.103Z" style="fill:none;stroke:#00f;stroke-width:0.04px;stroke-linejoin:miter;"/>
        <path d="M746.798,359.877l-1.875,2.444l-2.939,-2.255l-2.254,2.939l-2.444,-1.875l-7.363,9.595l2.444,1.875l-12.217,15.922l-2.444,-1.875l-7.363,9.595l2.444,1.875l-2.255,2.939l2.939,2.254l-1.876,2.444l9.596,7.363l1.875,-2.444l15.922,12.218l-1.875,2.443l9.595,7.363l1.875,-2.444l2.939,2.255l2.254,-2.939l2.444,1.876l7.363,-9.596l-2.444,-1.875l12.217,-15.922l2.444,1.875l7.363,-9.595l-2.444,-1.875l2.255,-2.938l-2.939,-2.255l1.876,-2.444l-9.596,-7.363l-1.875,2.444l-15.922,-12.217l1.875,-2.444l-9.595,-7.363Z" style="fill:none;stroke:#00f;stroke-width:0.04px;stroke-linejoin:miter;"/>
        <path d="M786.214,380.304l-35.082,-26.92l4.601,-5.997l35.083,26.92l-4.602,5.997Z" style="fill:none;stroke:#00f;stroke-width:0.04px;stroke-linejoin:miter;"/>
        <ellipse cx="905.575" cy="462.944" rx="6.047" ry="5.999" style="fill:none;stroke:#00f;stroke-width:0.04px;"/>
        <ellipse cx="828.094" cy="39.615" rx="6.047" ry="5.999" style="fill:none;stroke:#00f;stroke-width:0.04px;"/>
        <ellipse cx="1181.48" cy="71.763" rx="6.047" ry="5.999" style="fill:none;stroke:#00f;stroke-width:0.04px;"/>
        <ellipse cx="66.52" cy="71.763" rx="6.047" ry="5.999" style="fill:none;stroke:#00f;stroke-width:0.04px;"/>
        <ellipse cx="66.52" cy="341.999" rx="6.047" ry="5.999" style="fill:none;stroke:#00f;stroke-width:0.04px;"/>
        <ellipse cx="1181.48" cy="341.999" rx="6.047" ry="5.999" style="fill:none;stroke:#00f;stroke-width:0.04px;"/>
        <ellipse cx="342.425" cy="462.989" rx="6.047" ry="5.999" style="fill:none;stroke:#00f;stroke-width:0.04px;"/>
        <ellipse cx="419.906" cy="39.66" rx="6.047" ry="5.999" style="fill:none;stroke:#00f;stroke-width:0.04px;"/>
        <path id="Power-switch" serif:id="Power switch" d="M881.467,270.938l2.757,15.633l44.665,-7.875l-2.757,-15.633l-44.665,7.875Z" style="fill:none;stroke:#00f;stroke-width:0.04px;stroke-miterlimit:1;"/>
        <rect id="Reset-button-cutout" serif:id="Reset button cutout" x="661.83" y="129.939" width="11.339" height="19.843" style="fill:none;stroke:#00f;stroke-width:0.04px;stroke-miterlimit:1;"/>
        <path id="Feather-and-reset-cutout" serif:id="Feather and reset cutout" d="M601.323,165.053l-3.156,0l0,-3.704l-3.08,0l0,-12.095l3.08,0l0,-20.069l-3.08,0l0,-12.095l3.08,0l0,-3.704l3.704,0l0,-3.08l12.094,0l0,3.08l20.07,0l0,-3.08l12.094,0l0,3.08l3.704,0l0,3.704l3.08,0l0,12.095l-3.08,0l0,20.069l3.08,0l0,12.095l-3.08,0l0,3.704l-3.153,0l0,63.157l24.564,0l0,11.284c22.797,15.268 37.795,41.239 37.795,70.684c0,29.458 -15.011,55.438 -37.795,70.701l0,43.866l-94.488,0l0,-43.866c-22.784,-15.263 -37.795,-41.243 -37.795,-70.701c0,-29.459 15.011,-55.439 37.795,-70.702l0,-11.266l24.536,0l0.031,-0.009l0,-63.148Z" style="fill:none;stroke:#00f;stroke-width:0.04px;stroke-linejoin:miter;"/>
        <path id="Outside-shape1" serif:id="Outside shape" d="M641.008,22.677l437.291,0c1.805,0 3.535,-0.717 4.811,-1.992c1.276,-1.276 1.992,-3.007 1.992,-4.811c0,-0.502 0,-1.009 0,-1.512c0,-3.757 3.046,-6.803 6.804,-6.803c20.186,0 87.152,0 107.338,0c3.757,0 6.803,3.046 6.803,6.803c0,53.463 0,405.372 0,458.835c0,3.757 -3.046,6.803 -6.803,6.803c-41.045,0 -262.828,0 -303.874,0c-3.757,0 -6.803,-3.046 -6.803,-6.803c0,-1.721 0,-3.57 0,-5.291c0,-1.805 -0.717,-3.535 -1.993,-4.811c-1.276,-1.276 -3.006,-1.993 -4.81,-1.993c-57.274,0 -458.254,0 -515.528,0c-1.804,0 -3.534,0.717 -4.81,1.993c-1.276,1.276 -1.993,3.006 -1.993,4.811c0,1.721 0,3.57 0,5.291c0,3.757 -3.046,6.803 -6.803,6.803c-41.046,0 -262.829,0 -303.874,0c-3.757,0 -6.803,-3.046 -6.803,-6.803c0,-53.463 0,-405.372 0,-458.835c0,-3.757 3.046,-6.803 6.803,-6.803c20.186,0 87.152,0 107.338,0c3.758,0 6.804,3.046 6.804,6.803c0,0.503 0,1.01 0,1.512c0,1.804 0.716,3.535 1.992,4.811c1.276,1.275 3.006,1.992 4.811,1.992l437.291,0l0,32.163l34.016,0l0,-32.163Z" style="fill:none;stroke:#00f;stroke-width:0.04px;"/>
        <circle cx="653.291" cy="38.74" r="3.969" style="fill:none;stroke:#00f;stroke-width:0.04px;stroke-miterlimit:1;"/>
        <circle cx="594.709" cy="38.74" r="3.969" style="fill:none;stroke:#00f;stroke-width:0.04px;stroke-miterlimit:1;"/>
        <rect x="1219.65" y="24" width="18.898" height="912" style="fill:none;stroke:#00f;stroke-width:0.04px;"/>
        <rect x="9.449" y="24" width="18.898" height="912" style="fill:none;stroke:#00f;stroke-width:0.04px;"/>
    </g>
</svg>
