<?xml version="1.0" encoding="UTF-8" standalone="no"?>
<svg
   xmlns="http://www.w3.org/2000/svg"
   version="1.1"
   id="svg4148"
   viewBox="0 0 63.381517 67.170577"
   height="18.957029mm"
   width="17.887672mm">
  <metadata id="metadata1"/>
  <g
     transform="translate(-168.90788,312.08144)"
     id="layer1">
      <path
         id="path1"
         d="m 230.87207,-300.66412 -9.88281,0 -25.58594,32.77343 q 1.09375,-0.23437 2.30469,-0.23437 4.53125,0 7.69531,3.20312 3.20313,3.16407 3.20313,7.69532 0,4.53125 -3.20313,7.69531 -3.16406,3.20312 -7.69531,3.20312 -4.41406,0 -7.61719,-3.08593 -3.16406,-3.04688 -3.28125,-7.46094 l -4.21875,5.39062 -12.26562,0 0,-4.84375 9.84375,0 25.58593,-32.77343 q -1.09375,0.23437 -2.26562,0.23437 -4.53125,0 -7.73438,-3.16406 -3.16406,-3.20313 -3.16406,-7.73438 0,-4.53125 3.16406,-7.69531 3.20313,-3.20312 7.73438,-3.20312 4.41406,0 7.57812,3.08593 3.16407,3.04688 3.32032,7.42188 l 4.17968,-5.35156 12.30469,0 0,4.84375 z m -21.17187,0.89843 q 0,-2.57812 -1.83594,-4.375 -1.79688,-1.83593 -4.375,-1.83593 -2.57813,0 -4.41406,1.83593 -1.79688,1.79688 -1.79688,4.375 0,2.57813 1.79688,4.41407 1.83593,1.79687 4.41406,1.79687 2.57812,0 4.375,-1.79687 1.83594,-1.83594 1.83594,-4.41407 z m -5.78125,42.53907 q 0,-2.57813 -1.83594,-4.375 -1.79688,-1.83594 -4.375,-1.83594 -2.57813,0 -4.41406,1.83594 -1.79688,1.79687 -1.79688,4.375 0,2.57812 1.79688,4.375 1.83593,1.83593 4.41406,1.83593 2.57812,0 4.375,-1.83593 1.83594,-1.79688 1.83594,-4.375 z" />
  </g>
</svg>
