<?xml version="1.0" encoding="UTF-8" standalone="no"?>
<svg
   xmlns="http://www.w3.org/2000/svg"
   version="1.1"
   id="svg4148"
   viewBox="0 0 62.483086 68.928396"
   height="19.453125mm"
   width="17.634115mm">
  <metadata id="metadata1"/>
  <g
     transform="translate(-210.67156,605.17294)"
     id="layer1">
      <path
         id="path1"
         d="m 271.73732,-558.20874 -15.58594,0 0,7.85156 7.8125,0 0,4.88281 -7.8125,0 0,7.8125 -4.88281,0 0,-7.8125 -7.8125,0 0,-4.88281 7.8125,0 0,-7.85156 -39.17969,0 q 8.16406,-7.42188 10.625,-10.35156 5.74219,-6.875 5.74219,-13.125 0,-10.03907 -14.33594,-17.77344 l 2.34375,-4.29688 q 16.875,9.10157 16.875,22.07032 0,9.14062 -8.90625,18.59375 l 26.83594,0 0,-13.82813 q -3.16406,-0.85937 -5.23438,-3.47656 -2.03125,-2.61719 -2.03125,-5.89844 0,-3.98437 2.85157,-6.875 2.85156,-2.89062 6.83593,-2.89062 3.98438,0 6.83594,2.89062 2.85156,2.89063 2.85156,6.875 0,3.28125 -2.03125,5.9375 -2.03125,2.61719 -5.19531,3.4375 l 0,13.82813 15.58594,0 0,4.88281 z m -13.24219,-28.08594 q 0,-1.95312 -1.44531,-3.39844 -1.40625,-1.48437 -3.35938,-1.48437 -1.95312,0 -3.39843,1.48437 -1.40625,1.44532 -1.40625,3.39844 0,1.95313 1.40625,3.39844 1.44531,1.40625 3.39843,1.40625 1.95313,0 3.35938,-1.40625 1.44531,-1.44531 1.44531,-3.39844 z" />
  </g>
</svg>
