<?xml version="1.0" encoding="UTF-8" standalone="no"?>
<svg
   xmlns="http://www.w3.org/2000/svg"
   version="1.1"
   id="svg4148"
   viewBox="0 0 61.428397 76.311207"
   height="21.536718mm"
   width="17.336458mm">
  <metadata id="metadata1"/>
  <g
     transform="translate(-236.65424,640.27761)"
     id="layer1">
      <path
         id="path1"
         d="m 296.66531,-608.19623 -4.88281,0.11719 q -0.3125,-10.9375 -6.83594,-18.20313 -6.83593,-7.69531 -17.57812,-7.69531 -10.74219,0 -17.57813,7.69531 -6.52343,7.26563 -6.83593,18.20313 l -4.88282,-0.11719 q 0.39063,-12.92969 8.28125,-21.60156 8.28125,-9.0625 21.01563,-9.0625 12.73437,0 21.01562,9.0625 7.89063,8.67187 8.28125,21.60156 z m -14.17968,4.0625 -12.5,0 0,38.75 -4.88282,0 0,-38.75 -12.5,0 0,-4.88281 12.5,0 0,-13.71094 4.88282,0 0,13.71094 12.5,0 0,4.88281 z" />
  </g>
</svg>
