<?xml version="1.0" encoding="UTF-8" standalone="no"?>
<svg
   xmlns="http://www.w3.org/2000/svg"
   version="1.1"
   id="svg4148"
   viewBox="0 0 44.475278 82.717454"
   height="23.344704mm"
   width="12.551911mm">
  <metadata id="metadata1"/>
  <g
     transform="translate(-259.82163,728.04201)"
     id="layer1">
      <path
         id="path1"
         d="m 302.87958,-693.22626 q 0,8.00782 -5.27344,13.90625 -5.23437,5.85938 -13.08594,6.75782 l 0,25.82031 -4.88281,0 0,-25.78125 q -7.85156,-0.89844 -13.125,-6.75781 -5.27344,-5.89844 -5.27344,-13.94532 0,-6.01562 3.125,-11.05468 3.04688,-4.92188 8.16407,-7.53907 -7.14844,-4.45312 -8.28125,-14.80468 l 2.38281,0 q 2.85156,12.53906 15.42969,12.53906 12.57812,0 15.42968,-12.53906 l 2.42188,0 q -1.13281,10.35156 -8.32031,14.80468 5.11718,2.61719 8.16406,7.53907 3.125,5.03906 3.125,11.05468 z m -5.07813,-2.42187 q -0.78125,-5.19531 -4.45312,-8.86719 -3.63281,-3.71094 -8.82813,-4.49219 l 0,13.35938 13.28125,0 z m -18.16406,0 0,-13.35938 q -5.19531,0.78125 -8.86719,4.49219 -3.67187,3.67188 -4.45312,8.86719 l 13.32031,0 z m 18.16406,4.88281 -13.28125,0 0,13.28125 q 5.15625,-0.78125 8.82813,-4.45312 3.67187,-3.67188 4.45312,-8.82813 z m -18.16406,13.28125 0,-13.28125 -13.32031,0 q 0.78125,5.19531 4.45312,8.86719 3.67188,3.63281 8.86719,4.41406 z" />
  </g>
</svg>
