<?xml version="1.0" encoding="UTF-8" standalone="no"?>
<svg
   xmlns="http://www.w3.org/2000/svg"
   version="1.1"
   id="svg4148"
   viewBox="0 0 75.725276 56.389329"
   height="15.914322mm"
   width="21.371355mm">
  <metadata id="metadata1"/>
  <g
     transform="translate(-280.78147,801.79684)"
     id="layer1">
      <path
         id="path1"
         d="m 355.08942,-748.85608 -4.45312,2.03125 q -3.67188,-8.00781 -12.26563,-12.61719 -7.61719,-4.0625 -17.26562,-4.57031 l 0,13.28125 -4.92188,0 0,-13.28125 q -9.64844,0.50781 -17.26563,4.57031 -8.59375,4.60938 -12.26562,12.61719 l -4.45313,-2.03125 q 4.29688,-9.375 14.0625,-14.72656 8.82813,-4.80469 19.92188,-5.35157 l 0,-9.33593 q -11.09375,-0.54688 -19.92188,-5.35157 -9.76562,-5.35156 -14.0625,-14.72656 l 4.45313,-2.03125 q 3.67187,8.00781 12.26562,12.61719 7.61719,4.0625 17.26563,4.57031 l 0,-13.00781 4.92188,0 0,13.00781 q 9.64843,-0.50781 17.26562,-4.57031 8.59375,-4.60938 12.26563,-12.61719 l 4.45312,2.03125 q -4.29687,9.375 -14.0625,14.72656 -8.82812,4.80469 -19.92187,5.35157 l 0,9.33593 q 11.09375,0.54688 19.92187,5.35157 9.76563,5.35156 14.0625,14.72656 z" />
  </g>
</svg>
