<?xml version="1.0" encoding="UTF-8" standalone="no"?>
<svg
   xmlns="http://www.w3.org/2000/svg"
   version="1.1"
   id="svg4148"
   viewBox="0 0 62.248707 61.194017"
   height="17.270311mm"
   width="17.567968mm">
  <metadata id="metadata1"/>
  <g
     transform="translate(-157.98893,270.53385)"
     id="layer1">
      <path
         id="path1"
         d="m 218.82031,-210.83528 -18.82812,0 0,-58.28125 18.82812,0 0,5.07812 -13.86719,0 0,48.04688 13.86719,0 0,5.15625 z m -25.54687,-29.14063 q 0,1.60157 -1.28907,2.89063 -1.28906,1.28906 -2.89062,1.28906 -1.52344,0 -2.85156,-1.25 -1.32813,-1.28906 -1.32813,-2.8125 0,-1.64062 1.21094,-2.89062 1.21094,-1.28907 2.85156,-1.28907 1.79688,0 3.04688,1.17188 1.25,1.13281 1.25,2.89062 z m -15.07813,29.21875 -18.78906,0 0,-5.11718 13.90625,0 0,-48.04688 -13.90625,0 0,-5.19531 18.78906,0 0,58.35937 z" />
  </g>
</svg>
