<?xml version="1.0" encoding="UTF-8" standalone="no"?>
<svg
   xmlns="http://www.w3.org/2000/svg"
   version="1.1"
   id="svg4148"
   viewBox="0 0 42.522145 68.967459"
   height="19.464149mm"
   width="12.000694mm">
  <metadata id="metadata1"/>
  <g
     transform="translate(-148.45103,222.87185)"
     id="layer1">
      <path
         id="path1"
         d="m 189.55585,-175.16547 q 0,8.20313 -5.82032,14.02344 -5.82031,5.82031 -14.02343,5.82031 -8.20313,0 -14.02344,-5.82031 -5.82031,-5.82031 -5.82031,-14.02344 0,-7.53906 4.96093,-13.125 5,-5.625 12.34375,-6.5625 l 0,-15.78125 -6.67968,7.85157 -3.67188,-3.16407 12.89063,-15.50781 12.89062,15.50781 -3.67187,3.16407 -6.67969,-7.85157 0,15.78125 q 7.34375,0.9375 12.30469,6.5625 5,5.58594 5,13.125 z m -7.92969,-8.86718 q -4.45313,-5.97657 -11.91406,-5.97657 -7.30469,0 -11.79688,5.85938 6.13281,5.97656 11.79688,5.97656 5.50781,0 11.91406,-5.85937 z m 2.92969,8.86718 q 0,-2.1875 -0.625,-4.25781 -7.14844,6.25 -14.21875,6.25 -7.1875,0 -14.17969,-6.40625 -0.66406,2.14844 -0.66406,4.41406 0,6.13282 4.33593,10.50782 4.375,4.33593 10.50782,4.33593 6.13281,0 10.46875,-4.33593 4.375,-4.375 4.375,-10.50782 z" />
  </g>
</svg>
