<?xml version="1.0" encoding="UTF-8" standalone="no"?>
<svg
   xmlns="http://www.w3.org/2000/svg"
   version="1.1"
   id="svg4148"
   viewBox="0 0 51.311215 72.834645"
   height="20.555555mm"
   width="14.481165mm">
  <metadata id="metadata1"/>
  <g
     transform="translate(-221.72153,625.59475)"
     id="layer1">
      <path
         id="path1"
         d="m 271.61542,-571.9118 q -6.17188,5.11718 -14.0625,6.44531 l 0,11.28906 -4.88282,0 0,-10.89844 q -12.26562,0 -20.89843,-8.63281 -8.63282,-8.63281 -8.63282,-20.89844 0,-12.26562 8.63282,-20.89843 8.63281,-8.67188 20.89843,-8.67188 10.74219,0 18.94532,6.83594 l -3.125,3.78906 q -6.83594,-5.70312 -15.82032,-5.70312 -10.23437,0 -17.42187,7.22656 -7.1875,7.1875 -7.1875,17.42187 0,10.23438 7.1875,17.42188 7.1875,7.1875 17.42187,7.1875 l 0,-17.42188 -10.15625,0 0,-4.88281 10.15625,0 0,-9.02344 4.88282,0 0,9.02344 10.15625,0 0,4.88281 -10.15625,0 0,16.95313 q 6.13281,-1.25 10.9375,-5.23438 l 3.125,3.78907 z" />
  </g>
</svg>
