<?xml version="1.0" encoding="UTF-8" standalone="no"?>
<svg
   xmlns="http://www.w3.org/2000/svg"
   version="1.1"
   id="svg4148"
   viewBox="0 0 62.483087 67.639334"
   height="19.089323mm"
   width="17.634115mm">
  <metadata id="metadata1"/>
  <g
     transform="translate(-253.15847,700.61727)"
     id="layer1">
      <path
         id="path1"
         d="m 314.22423,-653.65308 -10,0 0,13.75 q 1.67969,0.3125 3.55469,0.82032 l -1.28907,4.6875 q -4.96093,-1.36719 -10.74218,-1.36719 -5.78125,0 -10.70313,1.36719 l -1.28906,-4.6875 q 1.83594,-0.50782 3.55469,-0.82032 l 0,-13.75 -32.73438,0 q 8.16406,-7.42187 10.625,-10.35156 5.74219,-6.875 5.74219,-13.125 0,-10.03906 -14.33594,-17.77344 l 2.34375,-4.29687 q 16.875,9.10156 16.875,22.07031 0,9.14063 -8.90625,18.59375 l 20.39063,0 0,-13.78906 q -1.875,-0.3125 -3.59375,-0.82031 l 1.36718,-4.6875 q 4.29688,1.25 10.66407,1.25 6.44531,0 10.70312,-1.25 l 1.36719,4.6875 q -1.71875,0.50781 -3.59375,0.82031 l 0,13.78906 10,0 0,4.88281 z m -14.88281,-4.88281 0,-13.28125 q -3.94532,0.19531 -7.14844,0.0391 l 0,13.24219 7.14844,0 z m 0,18.04688 0,-13.16407 -7.14844,0 0,13.16407 q 2.26562,-0.15625 3.55469,-0.15625 1.32812,0 3.59375,0.15625 z" />
  </g>
</svg>
