<?xml version="1.0"?>
<svg width="50" height="50" xmlns="http://www.w3.org/2000/svg">
 <metadata id="metadata2220">image/svg+xml</metadata>
 <g>
  <title>Eris symbol (Poland)</title>
  <g id="layer1">
   <path id="path2248" d="m21.648907,9.842188c6.75,0 6.75,0 6.75,0" stroke-miterlimit="4" stroke-width="1.985177" stroke="#000000" fill-rule="evenodd" fill="none"/>
   <path id="path2250" d="m25.103626,25.678886c0,-23.75 0.040968,-12.52956 0.040968,-12.52956" clip-path="none" stroke-miterlimit="4" stroke-width="2.846522" stroke="#000000" fill-rule="evenodd" fill="none"/>
   <path id="path2252" d="m17.539021,16.921612c13.223909,0 14.943485,0.132275 14.943485,0.132275" stroke-miterlimit="4" stroke-width="2.858937" stroke="#000000" fill-rule="evenodd" fill="none"/>
   <path id="path2256" d="m32.428905,13.592188c-0.099998,6.9 -0.099998,6.9 -0.099998,6.9" stroke-miterlimit="4" stroke-width="1.993319" stroke="#000000" fill-rule="evenodd" fill="none"/>
   <path id="path4199" d="m32.61993,32.218086c0,4.265888 -3.384672,7.724072 -7.559875,7.724072c-4.175205,0 -7.559877,-3.458183 -7.559877,-7.724072c0,-4.265892 3.384672,-7.724077 7.559877,-7.724077c4.175203,0 7.559875,3.458185 7.559875,7.724077l0,0z" stroke-miterlimit="4" stroke-width="3" stroke="#000000" fill-rule="nonzero" fill="none" opacity="0.99"/>
   <path id="path4203" d="m17.928905,13.592188c0,6.9 0,6.9 0,6.9" stroke-miterlimit="4" stroke-width="1.997116" stroke="#000000" fill-rule="evenodd" fill="none"/>
  </g>
 </g>
</svg>