G04 #@! TF.GenerationSoftware,KiCad,Pcbnew,(6.0.0-rc1-dev-1469-g932b9a334)*
G04 #@! TF.CreationDate,2019-09-07T17:34:56-07:00
G04 #@! TF.ProjectId,Laptreus-v2,4c617074-7265-4757-932d-76322e6b6963,rev?*
G04 #@! TF.SameCoordinates,Original*
G04 #@! TF.FileFunction,Glue,Top*
G04 #@! TF.FilePolarity,Positive*
%FSLAX46Y46*%
G04 Gerber Fmt 4.6, Leading zero omitted, Abs format (unit mm)*
G04 Created by KiCad (PCBNEW (6.0.0-rc1-dev-1469-g932b9a334)) date Saturday, September 07, 2019 at 05:34:56 PM*
%MOMM*%
%LPD*%
G04 APERTURE LIST*
%ADD10C,0.100000*%
%ADD11C,0.150000*%
G04 APERTURE END LIST*
D10*
G04 #@! TO.C,R13*
G36*
X229224170Y-96495103D02*
G01*
X229624170Y-96495103D01*
X229624170Y-97295103D01*
X229224170Y-97295103D01*
X229224170Y-96495103D01*
G37*
X229224170Y-96495103D02*
X229624170Y-96495103D01*
X229624170Y-97295103D01*
X229224170Y-97295103D01*
X229224170Y-96495103D01*
G04 #@! TO.C,R12*
G36*
X372374170Y-84620103D02*
G01*
X371974170Y-84620103D01*
X371974170Y-83820103D01*
X372374170Y-83820103D01*
X372374170Y-84620103D01*
G37*
X372374170Y-84620103D02*
X371974170Y-84620103D01*
X371974170Y-83820103D01*
X372374170Y-83820103D01*
X372374170Y-84620103D01*
G04 #@! TO.C,R11*
G36*
X371974170Y-81570103D02*
G01*
X372374170Y-81570103D01*
X372374170Y-82370103D01*
X371974170Y-82370103D01*
X371974170Y-81570103D01*
G37*
X371974170Y-81570103D02*
X372374170Y-81570103D01*
X372374170Y-82370103D01*
X371974170Y-82370103D01*
X371974170Y-81570103D01*
G04 #@! TO.C,R10*
G36*
X235849170Y-139920103D02*
G01*
X235849170Y-139520103D01*
X236649170Y-139520103D01*
X236649170Y-139920103D01*
X235849170Y-139920103D01*
G37*
X235849170Y-139920103D02*
X235849170Y-139520103D01*
X236649170Y-139520103D01*
X236649170Y-139920103D01*
X235849170Y-139920103D01*
G04 #@! TO.C,R9*
G36*
X346499170Y-75645103D02*
G01*
X346099170Y-75645103D01*
X346099170Y-74845103D01*
X346499170Y-74845103D01*
X346499170Y-75645103D01*
G37*
X346499170Y-75645103D02*
X346099170Y-75645103D01*
X346099170Y-74845103D01*
X346499170Y-74845103D01*
X346499170Y-75645103D01*
G04 #@! TO.C,R8*
G36*
X346099170Y-73245103D02*
G01*
X346499170Y-73245103D01*
X346499170Y-74045103D01*
X346099170Y-74045103D01*
X346099170Y-73245103D01*
G37*
X346099170Y-73245103D02*
X346499170Y-73245103D01*
X346499170Y-74045103D01*
X346099170Y-74045103D01*
X346099170Y-73245103D01*
G04 #@! TO.C,R1*
G36*
X236699660Y-96494781D02*
G01*
X237099660Y-96494781D01*
X237099660Y-97294781D01*
X236699660Y-97294781D01*
X236699660Y-96494781D01*
G37*
X236699660Y-96494781D02*
X237099660Y-96494781D01*
X237099660Y-97294781D01*
X236699660Y-97294781D01*
X236699660Y-96494781D01*
G04 #@! TO.C,D1*
G36*
X368863719Y-83780997D02*
G01*
X368933178Y-84174920D01*
X367751409Y-84383297D01*
X367681950Y-83989374D01*
X368863719Y-83780997D01*
G37*
X368863719Y-83780997D02*
X368933178Y-84174920D01*
X367751409Y-84383297D01*
X367681950Y-83989374D01*
X368863719Y-83780997D01*
G04 #@! TO.C,D48*
G36*
X110075275Y-138302008D02*
G01*
X110005816Y-138695931D01*
X108824047Y-138487554D01*
X108893506Y-138093631D01*
X110075275Y-138302008D01*
G37*
X110075275Y-138302008D02*
X110005816Y-138695931D01*
X108824047Y-138487554D01*
X108893506Y-138093631D01*
X110075275Y-138302008D01*
G04 #@! TO.C,D47*
G36*
X128825274Y-141627008D02*
G01*
X128755815Y-142020931D01*
X127574046Y-141812554D01*
X127643505Y-141418631D01*
X128825274Y-141627008D01*
G37*
X128825274Y-141627008D02*
X128755815Y-142020931D01*
X127574046Y-141812554D01*
X127643505Y-141418631D01*
X128825274Y-141627008D01*
G04 #@! TO.C,D46*
G36*
X147600275Y-144927008D02*
G01*
X147530816Y-145320931D01*
X146349047Y-145112554D01*
X146418506Y-144718631D01*
X147600275Y-144927008D01*
G37*
X147600275Y-144927008D02*
X147530816Y-145320931D01*
X146349047Y-145112554D01*
X146418506Y-144718631D01*
X147600275Y-144927008D01*
G04 #@! TO.C,D45*
G36*
X166350274Y-148227008D02*
G01*
X166280815Y-148620931D01*
X165099046Y-148412554D01*
X165168505Y-148018631D01*
X166350274Y-148227008D01*
G37*
X166350274Y-148227008D02*
X166280815Y-148620931D01*
X165099046Y-148412554D01*
X165168505Y-148018631D01*
X166350274Y-148227008D01*
G04 #@! TO.C,D44*
G36*
X189637354Y-149052567D02*
G01*
X189380239Y-149358984D01*
X188460986Y-148587639D01*
X188718101Y-148281222D01*
X189637354Y-149052567D01*
G37*
X189637354Y-149052567D02*
X189380239Y-149358984D01*
X188460986Y-148587639D01*
X188718101Y-148281222D01*
X189637354Y-149052567D01*
G04 #@! TO.C,D43*
G36*
X208527143Y-139227680D02*
G01*
X208256907Y-139522591D01*
X207372175Y-138711882D01*
X207642411Y-138416971D01*
X208527143Y-139227680D01*
G37*
X208527143Y-139227680D02*
X208256907Y-139522591D01*
X207372175Y-138711882D01*
X207642411Y-138416971D01*
X208527143Y-139227680D01*
G04 #@! TO.C,D42*
G36*
X246281418Y-149517293D02*
G01*
X246551654Y-149812204D01*
X245666922Y-150622913D01*
X245396686Y-150328002D01*
X246281418Y-149517293D01*
G37*
X246281418Y-149517293D02*
X246551654Y-149812204D01*
X245666922Y-150622913D01*
X245396686Y-150328002D01*
X246281418Y-149517293D01*
G04 #@! TO.C,D41*
G36*
X264880239Y-158731222D02*
G01*
X265137354Y-159037639D01*
X264218101Y-159808984D01*
X263960986Y-159502567D01*
X264880239Y-158731222D01*
G37*
X264880239Y-158731222D02*
X265137354Y-159037639D01*
X264218101Y-159808984D01*
X263960986Y-159502567D01*
X264880239Y-158731222D01*
G04 #@! TO.C,D40*
G36*
X284780816Y-150743631D02*
G01*
X284850275Y-151137554D01*
X283668506Y-151345931D01*
X283599047Y-150952008D01*
X284780816Y-150743631D01*
G37*
X284780816Y-150743631D02*
X284850275Y-151137554D01*
X283668506Y-151345931D01*
X283599047Y-150952008D01*
X284780816Y-150743631D01*
G04 #@! TO.C,D39*
G36*
X303530815Y-147443631D02*
G01*
X303600274Y-147837554D01*
X302418505Y-148045931D01*
X302349046Y-147652008D01*
X303530815Y-147443631D01*
G37*
X303530815Y-147443631D02*
X303600274Y-147837554D01*
X302418505Y-148045931D01*
X302349046Y-147652008D01*
X303530815Y-147443631D01*
G04 #@! TO.C,D38*
G36*
X322312708Y-144139901D02*
G01*
X322382167Y-144533824D01*
X321200398Y-144742201D01*
X321130939Y-144348278D01*
X322312708Y-144139901D01*
G37*
X322312708Y-144139901D02*
X322382167Y-144533824D01*
X321200398Y-144742201D01*
X321130939Y-144348278D01*
X322312708Y-144139901D01*
G04 #@! TO.C,D37*
G36*
X341055815Y-140843631D02*
G01*
X341125274Y-141237554D01*
X339943505Y-141445931D01*
X339874046Y-141052008D01*
X341055815Y-140843631D01*
G37*
X341055815Y-140843631D02*
X341125274Y-141237554D01*
X339943505Y-141445931D01*
X339874046Y-141052008D01*
X341055815Y-140843631D01*
G04 #@! TO.C,D36*
G36*
X94043721Y-119371446D02*
G01*
X93974262Y-119765369D01*
X92792493Y-119556992D01*
X92861952Y-119163069D01*
X94043721Y-119371446D01*
G37*
X94043721Y-119371446D02*
X93974262Y-119765369D01*
X92792493Y-119556992D01*
X92861952Y-119163069D01*
X94043721Y-119371446D01*
G04 #@! TO.C,D35*
G36*
X113375273Y-119552008D02*
G01*
X113305814Y-119945931D01*
X112124045Y-119737554D01*
X112193504Y-119343631D01*
X113375273Y-119552008D01*
G37*
X113375273Y-119552008D02*
X113305814Y-119945931D01*
X112124045Y-119737554D01*
X112193504Y-119343631D01*
X113375273Y-119552008D01*
G04 #@! TO.C,D34*
G36*
X132700274Y-119727008D02*
G01*
X132630815Y-120120931D01*
X131449046Y-119912554D01*
X131518505Y-119518631D01*
X132700274Y-119727008D01*
G37*
X132700274Y-119727008D02*
X132630815Y-120120931D01*
X131449046Y-119912554D01*
X131518505Y-119518631D01*
X132700274Y-119727008D01*
G04 #@! TO.C,D33*
G36*
X152000274Y-119902008D02*
G01*
X151930815Y-120295931D01*
X150749046Y-120087554D01*
X150818505Y-119693631D01*
X152000274Y-119902008D01*
G37*
X152000274Y-119902008D02*
X151930815Y-120295931D01*
X150749046Y-120087554D01*
X150818505Y-119693631D01*
X152000274Y-119902008D01*
G04 #@! TO.C,D32*
G36*
X170200273Y-126352009D02*
G01*
X170130814Y-126745932D01*
X168949045Y-126537555D01*
X169018504Y-126143632D01*
X170200273Y-126352009D01*
G37*
X170200273Y-126352009D02*
X170130814Y-126745932D01*
X168949045Y-126537555D01*
X169018504Y-126143632D01*
X170200273Y-126352009D01*
G04 #@! TO.C,D31*
G36*
X188975275Y-129652008D02*
G01*
X188905816Y-130045931D01*
X187724047Y-129837554D01*
X187793506Y-129443631D01*
X188975275Y-129652008D01*
G37*
X188975275Y-129652008D02*
X188905816Y-130045931D01*
X187724047Y-129837554D01*
X187793506Y-129443631D01*
X188975275Y-129652008D01*
G04 #@! TO.C,D30*
G36*
X262155815Y-132168632D02*
G01*
X262225274Y-132562555D01*
X261043505Y-132770932D01*
X260974046Y-132377009D01*
X262155815Y-132168632D01*
G37*
X262155815Y-132168632D02*
X262225274Y-132562555D01*
X261043505Y-132770932D01*
X260974046Y-132377009D01*
X262155815Y-132168632D01*
G04 #@! TO.C,D29*
G36*
X280905815Y-128868632D02*
G01*
X280975274Y-129262555D01*
X279793505Y-129470932D01*
X279724046Y-129077009D01*
X280905815Y-128868632D01*
G37*
X280905815Y-128868632D02*
X280975274Y-129262555D01*
X279793505Y-129470932D01*
X279724046Y-129077009D01*
X280905815Y-128868632D01*
G04 #@! TO.C,D28*
G36*
X299130815Y-122418631D02*
G01*
X299200274Y-122812554D01*
X298018505Y-123020931D01*
X297949046Y-122627008D01*
X299130815Y-122418631D01*
G37*
X299130815Y-122418631D02*
X299200274Y-122812554D01*
X298018505Y-123020931D01*
X297949046Y-122627008D01*
X299130815Y-122418631D01*
G04 #@! TO.C,D27*
G36*
X318430815Y-122243631D02*
G01*
X318500274Y-122637554D01*
X317318505Y-122845931D01*
X317249046Y-122452008D01*
X318430815Y-122243631D01*
G37*
X318430815Y-122243631D02*
X318500274Y-122637554D01*
X317318505Y-122845931D01*
X317249046Y-122452008D01*
X318430815Y-122243631D01*
G04 #@! TO.C,D26*
G36*
X337755815Y-122068632D02*
G01*
X337825274Y-122462555D01*
X336643505Y-122670932D01*
X336574046Y-122277009D01*
X337755815Y-122068632D01*
G37*
X337755815Y-122068632D02*
X337825274Y-122462555D01*
X336643505Y-122670932D01*
X336574046Y-122277009D01*
X337755815Y-122068632D01*
G04 #@! TO.C,D25*
G36*
X357055815Y-121893631D02*
G01*
X357125274Y-122287554D01*
X355943505Y-122495931D01*
X355874046Y-122102008D01*
X357055815Y-121893631D01*
G37*
X357055815Y-121893631D02*
X357125274Y-122287554D01*
X355943505Y-122495931D01*
X355874046Y-122102008D01*
X357055815Y-121893631D01*
G04 #@! TO.C,D24*
G36*
X98555307Y-93576406D02*
G01*
X98485848Y-93970329D01*
X97304079Y-93761952D01*
X97373538Y-93368029D01*
X98555307Y-93576406D01*
G37*
X98555307Y-93576406D02*
X98485848Y-93970329D01*
X97304079Y-93761952D01*
X97373538Y-93368029D01*
X98555307Y-93576406D01*
G04 #@! TO.C,D23*
G36*
X115601119Y-106609379D02*
G01*
X115531660Y-107003302D01*
X114349891Y-106794925D01*
X114419350Y-106401002D01*
X115601119Y-106609379D01*
G37*
X115601119Y-106609379D02*
X115531660Y-107003302D01*
X114349891Y-106794925D01*
X114419350Y-106401002D01*
X115601119Y-106609379D01*
G04 #@! TO.C,D22*
G36*
X136000274Y-100977008D02*
G01*
X135930815Y-101370931D01*
X134749046Y-101162554D01*
X134818505Y-100768631D01*
X136000274Y-100977008D01*
G37*
X136000274Y-100977008D02*
X135930815Y-101370931D01*
X134749046Y-101162554D01*
X134818505Y-100768631D01*
X136000274Y-100977008D01*
G04 #@! TO.C,D21*
G36*
X155300274Y-101152009D02*
G01*
X155230815Y-101545932D01*
X154049046Y-101337555D01*
X154118505Y-100943632D01*
X155300274Y-101152009D01*
G37*
X155300274Y-101152009D02*
X155230815Y-101545932D01*
X154049046Y-101337555D01*
X154118505Y-100943632D01*
X155300274Y-101152009D01*
G04 #@! TO.C,D20*
G36*
X173525274Y-107577008D02*
G01*
X173455815Y-107970931D01*
X172274046Y-107762554D01*
X172343505Y-107368631D01*
X173525274Y-107577008D01*
G37*
X173525274Y-107577008D02*
X173455815Y-107970931D01*
X172274046Y-107762554D01*
X172343505Y-107368631D01*
X173525274Y-107577008D01*
G04 #@! TO.C,D19*
G36*
X192275275Y-110877008D02*
G01*
X192205816Y-111270931D01*
X191024047Y-111062554D01*
X191093506Y-110668631D01*
X192275275Y-110877008D01*
G37*
X192275275Y-110877008D02*
X192205816Y-111270931D01*
X191024047Y-111062554D01*
X191093506Y-110668631D01*
X192275275Y-110877008D01*
G04 #@! TO.C,D18*
G36*
X258980325Y-113518953D02*
G01*
X259049784Y-113912876D01*
X257868015Y-114121253D01*
X257798556Y-113727330D01*
X258980325Y-113518953D01*
G37*
X258980325Y-113518953D02*
X259049784Y-113912876D01*
X257868015Y-114121253D01*
X257798556Y-113727330D01*
X258980325Y-113518953D01*
G04 #@! TO.C,D17*
G36*
X277605815Y-110118632D02*
G01*
X277675274Y-110512555D01*
X276493505Y-110720932D01*
X276424046Y-110327009D01*
X277605815Y-110118632D01*
G37*
X277605815Y-110118632D02*
X277675274Y-110512555D01*
X276493505Y-110720932D01*
X276424046Y-110327009D01*
X277605815Y-110118632D01*
G04 #@! TO.C,D16*
G36*
X295830815Y-103668632D02*
G01*
X295900274Y-104062555D01*
X294718505Y-104270932D01*
X294649046Y-103877009D01*
X295830815Y-103668632D01*
G37*
X295830815Y-103668632D02*
X295900274Y-104062555D01*
X294718505Y-104270932D01*
X294649046Y-103877009D01*
X295830815Y-103668632D01*
G04 #@! TO.C,D15*
G36*
X315130816Y-103489900D02*
G01*
X315200275Y-103883823D01*
X314018506Y-104092200D01*
X313949047Y-103698277D01*
X315130816Y-103489900D01*
G37*
X315130816Y-103489900D02*
X315200275Y-103883823D01*
X314018506Y-104092200D01*
X313949047Y-103698277D01*
X315130816Y-103489900D01*
G04 #@! TO.C,D14*
G36*
X333372214Y-95573182D02*
G01*
X333441673Y-95967105D01*
X332259904Y-96175482D01*
X332190445Y-95781559D01*
X333372214Y-95573182D01*
G37*
X333372214Y-95573182D02*
X333441673Y-95967105D01*
X332259904Y-96175482D01*
X332190445Y-95781559D01*
X333372214Y-95573182D01*
G04 #@! TO.C,D13*
G36*
X371973922Y-100897362D02*
G01*
X372043381Y-101291285D01*
X370861612Y-101499662D01*
X370792153Y-101105739D01*
X371973922Y-100897362D01*
G37*
X371973922Y-100897362D02*
X372043381Y-101291285D01*
X370861612Y-101499662D01*
X370792153Y-101105739D01*
X371973922Y-100897362D01*
G04 #@! TO.C,D12*
G36*
X100674784Y-81827330D02*
G01*
X100605325Y-82221253D01*
X99423556Y-82012876D01*
X99493015Y-81618953D01*
X100674784Y-81827330D01*
G37*
X100674784Y-81827330D02*
X100605325Y-82221253D01*
X99423556Y-82012876D01*
X99493015Y-81618953D01*
X100674784Y-81827330D01*
G04 #@! TO.C,D11*
G36*
X120000274Y-82027009D02*
G01*
X119930815Y-82420932D01*
X118749046Y-82212555D01*
X118818505Y-81818632D01*
X120000274Y-82027009D01*
G37*
X120000274Y-82027009D02*
X119930815Y-82420932D01*
X118749046Y-82212555D01*
X118818505Y-81818632D01*
X120000274Y-82027009D01*
G04 #@! TO.C,D10*
G36*
X139300274Y-82202008D02*
G01*
X139230815Y-82595931D01*
X138049046Y-82387554D01*
X138118505Y-81993631D01*
X139300274Y-82202008D01*
G37*
X139300274Y-82202008D02*
X139230815Y-82595931D01*
X138049046Y-82387554D01*
X138118505Y-81993631D01*
X139300274Y-82202008D01*
G04 #@! TO.C,D9*
G36*
X158625275Y-82377008D02*
G01*
X158555816Y-82770931D01*
X157374047Y-82562554D01*
X157443506Y-82168631D01*
X158625275Y-82377008D01*
G37*
X158625275Y-82377008D02*
X158555816Y-82770931D01*
X157374047Y-82562554D01*
X157443506Y-82168631D01*
X158625275Y-82377008D01*
G04 #@! TO.C,D8*
G36*
X176825275Y-88827008D02*
G01*
X176755816Y-89220931D01*
X175574047Y-89012554D01*
X175643506Y-88618631D01*
X176825275Y-88827008D01*
G37*
X176825275Y-88827008D02*
X176755816Y-89220931D01*
X175574047Y-89012554D01*
X175643506Y-88618631D01*
X176825275Y-88827008D01*
G04 #@! TO.C,D7*
G36*
X195600274Y-92127008D02*
G01*
X195530815Y-92520931D01*
X194349046Y-92312554D01*
X194418505Y-91918631D01*
X195600274Y-92127008D01*
G37*
X195600274Y-92127008D02*
X195530815Y-92520931D01*
X194349046Y-92312554D01*
X194418505Y-91918631D01*
X195600274Y-92127008D01*
G04 #@! TO.C,D6*
G36*
X255655325Y-94768953D02*
G01*
X255724784Y-95162876D01*
X254543015Y-95371253D01*
X254473556Y-94977330D01*
X255655325Y-94768953D01*
G37*
X255655325Y-94768953D02*
X255724784Y-95162876D01*
X254543015Y-95371253D01*
X254473556Y-94977330D01*
X255655325Y-94768953D01*
G04 #@! TO.C,D5*
G36*
X274455325Y-91468953D02*
G01*
X274524784Y-91862876D01*
X273343015Y-92071253D01*
X273273556Y-91677330D01*
X274455325Y-91468953D01*
G37*
X274455325Y-91468953D02*
X274524784Y-91862876D01*
X273343015Y-92071253D01*
X273273556Y-91677330D01*
X274455325Y-91468953D01*
G04 #@! TO.C,D4*
G36*
X292655325Y-85043953D02*
G01*
X292724784Y-85437876D01*
X291543015Y-85646253D01*
X291473556Y-85252330D01*
X292655325Y-85043953D01*
G37*
X292655325Y-85043953D02*
X292724784Y-85437876D01*
X291543015Y-85646253D01*
X291473556Y-85252330D01*
X292655325Y-85043953D01*
G04 #@! TO.C,D3*
G36*
X311980325Y-84868953D02*
G01*
X312049784Y-85262876D01*
X310868015Y-85471253D01*
X310798556Y-85077330D01*
X311980325Y-84868953D01*
G37*
X311980325Y-84868953D02*
X312049784Y-85262876D01*
X310868015Y-85471253D01*
X310798556Y-85077330D01*
X311980325Y-84868953D01*
G04 #@! TO.C,D2*
G36*
X331330325Y-84693953D02*
G01*
X331399784Y-85087876D01*
X330218015Y-85296253D01*
X330148556Y-84902330D01*
X331330325Y-84693953D01*
G37*
X331330325Y-84693953D02*
X331399784Y-85087876D01*
X330218015Y-85296253D01*
X330148556Y-84902330D01*
X331330325Y-84693953D01*
G04 #@! TO.C,U6*
G36*
X349799170Y-73495103D02*
G01*
X349799170Y-75295103D01*
X349299170Y-75295103D01*
X349299170Y-73495103D01*
X349799170Y-73495103D01*
G37*
X349799170Y-73495103D02*
X349799170Y-75295103D01*
X349299170Y-75295103D01*
X349299170Y-73495103D01*
X349799170Y-73495103D01*
G04 #@! TO.C,SW2*
G36*
X336607186Y-75789820D02*
G01*
X341432744Y-74938944D01*
X341849500Y-77302483D01*
X339682923Y-77684509D01*
X339978124Y-79358682D01*
X337319143Y-79827532D01*
X336607186Y-75789820D01*
G37*
X336607186Y-75789820D02*
X341432744Y-74938944D01*
X341849500Y-77302483D01*
X339682923Y-77684509D01*
X339978124Y-79358682D01*
X337319143Y-79827532D01*
X336607186Y-75789820D01*
G04 #@! TO.C,SW8*
G36*
X184846828Y-82301367D02*
G01*
X189672386Y-83152243D01*
X189255631Y-85515781D01*
X187089053Y-85133755D01*
X186793852Y-86807928D01*
X184134871Y-86339078D01*
X184846828Y-82301367D01*
G37*
X184846828Y-82301367D02*
X189672386Y-83152243D01*
X189255631Y-85515781D01*
X187089053Y-85133755D01*
X186793852Y-86807928D01*
X184134871Y-86339078D01*
X184846828Y-82301367D01*
G04 #@! TO.C,SW3*
G36*
X317295265Y-75971055D02*
G01*
X322120823Y-75120179D01*
X322537579Y-77483718D01*
X320371002Y-77865744D01*
X320666203Y-79539917D01*
X318007222Y-80008767D01*
X317295265Y-75971055D01*
G37*
X317295265Y-75971055D02*
X322120823Y-75120179D01*
X322537579Y-77483718D01*
X320371002Y-77865744D01*
X320666203Y-79539917D01*
X318007222Y-80008767D01*
X317295265Y-75971055D01*
G04 #@! TO.C,SW20*
G36*
X181538832Y-101061953D02*
G01*
X186364390Y-101912829D01*
X185947635Y-104276367D01*
X183781057Y-103894341D01*
X183485856Y-105568514D01*
X180826875Y-105099664D01*
X181538832Y-101061953D01*
G37*
X181538832Y-101061953D02*
X186364390Y-101912829D01*
X185947635Y-104276367D01*
X183781057Y-103894341D01*
X183485856Y-105568514D01*
X180826875Y-105099664D01*
X181538832Y-101061953D01*
G04 #@! TO.C,SW31*
G36*
X196991421Y-123130540D02*
G01*
X201816979Y-123981416D01*
X201400224Y-126344954D01*
X199233646Y-125962928D01*
X198938445Y-127637101D01*
X196279464Y-127168251D01*
X196991421Y-123130540D01*
G37*
X196991421Y-123130540D02*
X201816979Y-123981416D01*
X201400224Y-126344954D01*
X199233646Y-125962928D01*
X198938445Y-127637101D01*
X196279464Y-127168251D01*
X196991421Y-123130540D01*
G04 #@! TO.C,SW32*
G36*
X178230835Y-119822544D02*
G01*
X183056393Y-120673420D01*
X182639638Y-123036958D01*
X180473060Y-122654932D01*
X180177859Y-124329105D01*
X177518878Y-123860255D01*
X178230835Y-119822544D01*
G37*
X178230835Y-119822544D02*
X183056393Y-120673420D01*
X182639638Y-123036958D01*
X180473060Y-122654932D01*
X180177859Y-124329105D01*
X177518878Y-123860255D01*
X178230835Y-119822544D01*
G04 #@! TO.C,SW34*
G36*
X140709658Y-113206548D02*
G01*
X145535216Y-114057424D01*
X145118461Y-116420962D01*
X142951883Y-116038936D01*
X142656682Y-117713109D01*
X139997701Y-117244259D01*
X140709658Y-113206548D01*
G37*
X140709658Y-113206548D02*
X145535216Y-114057424D01*
X145118461Y-116420962D01*
X142951883Y-116038936D01*
X142656682Y-117713109D01*
X139997701Y-117244259D01*
X140709658Y-113206548D01*
G04 #@! TO.C,SW42*
G36*
X246496444Y-139199506D02*
G01*
X250250062Y-136049847D01*
X251792752Y-137888353D01*
X250107454Y-139302486D01*
X251200193Y-140604762D01*
X249131873Y-142340288D01*
X246496444Y-139199506D01*
G37*
X246496444Y-139199506D02*
X250250062Y-136049847D01*
X251792752Y-137888353D01*
X250107454Y-139302486D01*
X251200193Y-140604762D01*
X249131873Y-142340288D01*
X246496444Y-139199506D01*
G04 #@! TO.C,SW47*
G36*
X136850327Y-135093900D02*
G01*
X141675885Y-135944776D01*
X141259130Y-138308314D01*
X139092552Y-137926288D01*
X138797351Y-139600461D01*
X136138370Y-139131611D01*
X136850327Y-135093900D01*
G37*
X136850327Y-135093900D02*
X141675885Y-135944776D01*
X141259130Y-138308314D01*
X139092552Y-137926288D01*
X138797351Y-139600461D01*
X136138370Y-139131611D01*
X136850327Y-135093900D01*
G04 #@! TO.C,SW6*
G36*
X261013501Y-85895047D02*
G01*
X265839059Y-85044171D01*
X266255815Y-87407710D01*
X264089238Y-87789736D01*
X264384439Y-89463909D01*
X261725458Y-89932759D01*
X261013501Y-85895047D01*
G37*
X261013501Y-85895047D02*
X265839059Y-85044171D01*
X266255815Y-87407710D01*
X264089238Y-87789736D01*
X264384439Y-89463909D01*
X261725458Y-89932759D01*
X261013501Y-85895047D01*
G04 #@! TO.C,SW9*
G36*
X166637573Y-75866605D02*
G01*
X171463131Y-76717481D01*
X171046376Y-79081019D01*
X168879798Y-78698993D01*
X168584597Y-80373166D01*
X165925616Y-79904316D01*
X166637573Y-75866605D01*
G37*
X166637573Y-75866605D02*
X171463131Y-76717481D01*
X171046376Y-79081019D01*
X168879798Y-78698993D01*
X168584597Y-80373166D01*
X165925616Y-79904316D01*
X166637573Y-75866605D01*
G04 #@! TO.C,SW7*
G36*
X203607417Y-85609365D02*
G01*
X208432975Y-86460241D01*
X208016220Y-88823779D01*
X205849642Y-88441753D01*
X205554441Y-90115926D01*
X202895460Y-89647076D01*
X203607417Y-85609365D01*
G37*
X203607417Y-85609365D02*
X208432975Y-86460241D01*
X208016220Y-88823779D01*
X205849642Y-88441753D01*
X205554441Y-90115926D01*
X202895460Y-89647076D01*
X203607417Y-85609365D01*
G04 #@! TO.C,SW19*
G36*
X200299419Y-104369953D02*
G01*
X205124977Y-105220829D01*
X204708222Y-107584367D01*
X202541644Y-107202341D01*
X202246443Y-108876514D01*
X199587462Y-108407664D01*
X200299419Y-104369953D01*
G37*
X200299419Y-104369953D02*
X205124977Y-105220829D01*
X204708222Y-107584367D01*
X202541644Y-107202341D01*
X202246443Y-108876514D01*
X199587462Y-108407664D01*
X200299419Y-104369953D01*
G04 #@! TO.C,SW12*
G36*
X108691087Y-75276808D02*
G01*
X113516645Y-76127684D01*
X113099890Y-78491222D01*
X110933312Y-78109196D01*
X110638111Y-79783369D01*
X107979130Y-79314519D01*
X108691087Y-75276808D01*
G37*
X108691087Y-75276808D02*
X113516645Y-76127684D01*
X113099890Y-78491222D01*
X110933312Y-78109196D01*
X110638111Y-79783369D01*
X107979130Y-79314519D01*
X108691087Y-75276808D01*
G04 #@! TO.C,SW5*
G36*
X279774090Y-82587048D02*
G01*
X284599648Y-81736172D01*
X285016404Y-84099711D01*
X282849827Y-84481737D01*
X283145028Y-86155910D01*
X280486047Y-86624760D01*
X279774090Y-82587048D01*
G37*
X279774090Y-82587048D02*
X284599648Y-81736172D01*
X285016404Y-84099711D01*
X282849827Y-84481737D01*
X283145028Y-86155910D01*
X280486047Y-86624760D01*
X279774090Y-82587048D01*
G04 #@! TO.C,SW10*
G36*
X147325654Y-75685371D02*
G01*
X152151212Y-76536247D01*
X151734457Y-78899785D01*
X149567879Y-78517759D01*
X149272678Y-80191932D01*
X146613697Y-79723082D01*
X147325654Y-75685371D01*
G37*
X147325654Y-75685371D02*
X152151212Y-76536247D01*
X151734457Y-78899785D01*
X149567879Y-78517759D01*
X149272678Y-80191932D01*
X146613697Y-79723082D01*
X147325654Y-75685371D01*
G04 #@! TO.C,SW13*
G36*
X362967450Y-107519453D02*
G01*
X358141892Y-108370329D01*
X357725136Y-106006790D01*
X359891713Y-105624764D01*
X359596512Y-103950591D01*
X362255493Y-103481741D01*
X362967450Y-107519453D01*
G37*
X362967450Y-107519453D02*
X358141892Y-108370329D01*
X357725136Y-106006790D01*
X359891713Y-105624764D01*
X359596512Y-103950591D01*
X362255493Y-103481741D01*
X362967450Y-107519453D01*
G04 #@! TO.C,SW16*
G36*
X301291342Y-94912874D02*
G01*
X306116900Y-94061998D01*
X306533656Y-96425537D01*
X304367079Y-96807563D01*
X304662280Y-98481736D01*
X302003299Y-98950586D01*
X301291342Y-94912874D01*
G37*
X301291342Y-94912874D02*
X306116900Y-94061998D01*
X306533656Y-96425537D01*
X304367079Y-96807563D01*
X304662280Y-98481736D01*
X302003299Y-98950586D01*
X301291342Y-94912874D01*
G04 #@! TO.C,SW17*
G36*
X283082086Y-101347636D02*
G01*
X287907644Y-100496760D01*
X288324400Y-102860299D01*
X286157823Y-103242325D01*
X286453024Y-104916498D01*
X283794043Y-105385348D01*
X283082086Y-101347636D01*
G37*
X283082086Y-101347636D02*
X287907644Y-100496760D01*
X288324400Y-102860299D01*
X286157823Y-103242325D01*
X286453024Y-104916498D01*
X283794043Y-105385348D01*
X283082086Y-101347636D01*
G04 #@! TO.C,SW21*
G36*
X163329576Y-94627192D02*
G01*
X168155134Y-95478068D01*
X167738379Y-97841606D01*
X165571801Y-97459580D01*
X165276600Y-99133753D01*
X162617619Y-98664903D01*
X163329576Y-94627192D01*
G37*
X163329576Y-94627192D02*
X168155134Y-95478068D01*
X167738379Y-97841606D01*
X165571801Y-97459580D01*
X165276600Y-99133753D01*
X162617619Y-98664903D01*
X163329576Y-94627192D01*
G04 #@! TO.C,SW18*
G36*
X264321499Y-104655636D02*
G01*
X269147057Y-103804760D01*
X269563813Y-106168299D01*
X267397236Y-106550325D01*
X267692437Y-108224498D01*
X265033456Y-108693348D01*
X264321499Y-104655636D01*
G37*
X264321499Y-104655636D02*
X269147057Y-103804760D01*
X269563813Y-106168299D01*
X267397236Y-106550325D01*
X267692437Y-108224498D01*
X265033456Y-108693348D01*
X264321499Y-104655636D01*
G04 #@! TO.C,SW22*
G36*
X144017658Y-94445957D02*
G01*
X148843216Y-95296833D01*
X148426461Y-97660371D01*
X146259883Y-97278345D01*
X145964682Y-98952518D01*
X143305701Y-98483668D01*
X144017658Y-94445957D01*
G37*
X144017658Y-94445957D02*
X148843216Y-95296833D01*
X148426461Y-97660371D01*
X146259883Y-97278345D01*
X145964682Y-98952518D01*
X143305701Y-98483668D01*
X144017658Y-94445957D01*
G04 #@! TO.C,SW29*
G36*
X286390086Y-120108224D02*
G01*
X291215644Y-119257348D01*
X291632400Y-121620887D01*
X289465823Y-122002913D01*
X289761024Y-123677086D01*
X287102043Y-124145936D01*
X286390086Y-120108224D01*
G37*
X286390086Y-120108224D02*
X291215644Y-119257348D01*
X291632400Y-121620887D01*
X289465823Y-122002913D01*
X289761024Y-123677086D01*
X287102043Y-124145936D01*
X286390086Y-120108224D01*
G04 #@! TO.C,SW33*
G36*
X160021577Y-113387781D02*
G01*
X164847135Y-114238657D01*
X164430380Y-116602195D01*
X162263802Y-116220169D01*
X161968601Y-117894342D01*
X159309620Y-117425492D01*
X160021577Y-113387781D01*
G37*
X160021577Y-113387781D02*
X164847135Y-114238657D01*
X164430380Y-116602195D01*
X162263802Y-116220169D01*
X161968601Y-117894342D01*
X159309620Y-117425492D01*
X160021577Y-113387781D01*
G04 #@! TO.C,SW37*
G36*
X346531178Y-132071584D02*
G01*
X351356736Y-131220708D01*
X351773492Y-133584247D01*
X349606915Y-133966273D01*
X349902116Y-135640446D01*
X347243135Y-136109296D01*
X346531178Y-132071584D01*
G37*
X346531178Y-132071584D02*
X351356736Y-131220708D01*
X351773492Y-133584247D01*
X349606915Y-133966273D01*
X349902116Y-135640446D01*
X347243135Y-136109296D01*
X346531178Y-132071584D01*
G04 #@! TO.C,SW39*
G36*
X309010005Y-138687578D02*
G01*
X313835563Y-137836702D01*
X314252319Y-140200241D01*
X312085742Y-140582267D01*
X312380943Y-142256440D01*
X309721962Y-142725290D01*
X309010005Y-138687578D01*
G37*
X309010005Y-138687578D02*
X313835563Y-137836702D01*
X314252319Y-140200241D01*
X312085742Y-140582267D01*
X312380943Y-142256440D01*
X309721962Y-142725290D01*
X309010005Y-138687578D01*
G04 #@! TO.C,SW46*
G36*
X155610916Y-138401897D02*
G01*
X160436474Y-139252773D01*
X160019719Y-141616311D01*
X157853141Y-141234285D01*
X157557940Y-142908458D01*
X154898959Y-142439608D01*
X155610916Y-138401897D01*
G37*
X155610916Y-138401897D02*
X160436474Y-139252773D01*
X160019719Y-141616311D01*
X157853141Y-141234285D01*
X157557940Y-142908458D01*
X154898959Y-142439608D01*
X155610916Y-138401897D01*
G04 #@! TO.C,SW41*
G36*
X265092680Y-148374712D02*
G01*
X268846298Y-145225053D01*
X270388988Y-147063559D01*
X268703690Y-148477692D01*
X269796429Y-149779968D01*
X267728109Y-151515494D01*
X265092680Y-148374712D01*
G37*
X265092680Y-148374712D02*
X268846298Y-145225053D01*
X270388988Y-147063559D01*
X268703690Y-148477692D01*
X269796429Y-149779968D01*
X267728109Y-151515494D01*
X265092680Y-148374712D01*
G04 #@! TO.C,SW26*
G36*
X343223181Y-113310996D02*
G01*
X348048739Y-112460120D01*
X348465495Y-114823659D01*
X346298918Y-115205685D01*
X346594119Y-116879858D01*
X343935138Y-117348708D01*
X343223181Y-113310996D01*
G37*
X343223181Y-113310996D02*
X348048739Y-112460120D01*
X348465495Y-114823659D01*
X346298918Y-115205685D01*
X346594119Y-116879858D01*
X343935138Y-117348708D01*
X343223181Y-113310996D01*
G04 #@! TO.C,SW27*
G36*
X323911261Y-113492228D02*
G01*
X328736819Y-112641352D01*
X329153575Y-115004891D01*
X326986998Y-115386917D01*
X327282199Y-117061090D01*
X324623218Y-117529940D01*
X323911261Y-113492228D01*
G37*
X323911261Y-113492228D02*
X328736819Y-112641352D01*
X329153575Y-115004891D01*
X326986998Y-115386917D01*
X327282199Y-117061090D01*
X324623218Y-117529940D01*
X323911261Y-113492228D01*
G04 #@! TO.C,SW28*
G36*
X304599341Y-113673461D02*
G01*
X309424899Y-112822585D01*
X309841655Y-115186124D01*
X307675078Y-115568150D01*
X307970279Y-117242323D01*
X305311298Y-117711173D01*
X304599341Y-113673461D01*
G37*
X304599341Y-113673461D02*
X309424899Y-112822585D01*
X309841655Y-115186124D01*
X307675078Y-115568150D01*
X307970279Y-117242323D01*
X305311298Y-117711173D01*
X304599341Y-113673461D01*
G04 #@! TO.C,SW30*
G36*
X267629496Y-123416221D02*
G01*
X272455054Y-122565345D01*
X272871810Y-124928884D01*
X270705233Y-125310910D01*
X271000434Y-126985083D01*
X268341453Y-127453933D01*
X267629496Y-123416221D01*
G37*
X267629496Y-123416221D02*
X272455054Y-122565345D01*
X272871810Y-124928884D01*
X270705233Y-125310910D01*
X271000434Y-126985083D01*
X268341453Y-127453933D01*
X267629496Y-123416221D01*
G04 #@! TO.C,SW38*
G36*
X327770592Y-135379581D02*
G01*
X332596150Y-134528705D01*
X333012906Y-136892244D01*
X330846329Y-137274270D01*
X331141530Y-138948443D01*
X328482549Y-139417293D01*
X327770592Y-135379581D01*
G37*
X327770592Y-135379581D02*
X332596150Y-134528705D01*
X333012906Y-136892244D01*
X330846329Y-137274270D01*
X331141530Y-138948443D01*
X328482549Y-139417293D01*
X327770592Y-135379581D01*
G04 #@! TO.C,SW45*
G36*
X174371501Y-141709896D02*
G01*
X179197059Y-142560772D01*
X178780304Y-144924310D01*
X176613726Y-144542284D01*
X176318525Y-146216457D01*
X173659544Y-145747607D01*
X174371501Y-141709896D01*
G37*
X174371501Y-141709896D02*
X179197059Y-142560772D01*
X178780304Y-144924310D01*
X176613726Y-144542284D01*
X176318525Y-146216457D01*
X173659544Y-145747607D01*
X174371501Y-141709896D01*
G04 #@! TO.C,SW43*
G36*
X218378485Y-138298944D02*
G01*
X222132102Y-141448604D01*
X220589412Y-143287110D01*
X218904114Y-141872978D01*
X217811375Y-143175253D01*
X215743055Y-141439727D01*
X218378485Y-138298944D01*
G37*
X218378485Y-138298944D02*
X222132102Y-141448604D01*
X220589412Y-143287110D01*
X218904114Y-141872978D01*
X217811375Y-143175253D01*
X215743055Y-141439727D01*
X218378485Y-138298944D01*
G04 #@! TO.C,SW35*
G36*
X121397739Y-113025315D02*
G01*
X126223297Y-113876191D01*
X125806542Y-116239729D01*
X123639964Y-115857703D01*
X123344763Y-117531876D01*
X120685782Y-117063026D01*
X121397739Y-113025315D01*
G37*
X121397739Y-113025315D02*
X126223297Y-113876191D01*
X125806542Y-116239729D01*
X123639964Y-115857703D01*
X123344763Y-117531876D01*
X120685782Y-117063026D01*
X121397739Y-113025315D01*
G04 #@! TO.C,SW48*
G36*
X118089739Y-131785901D02*
G01*
X122915297Y-132636777D01*
X122498542Y-135000315D01*
X120331964Y-134618289D01*
X120036763Y-136292462D01*
X117377782Y-135823612D01*
X118089739Y-131785901D01*
G37*
X118089739Y-131785901D02*
X122915297Y-132636777D01*
X122498542Y-135000315D01*
X120331964Y-134618289D01*
X120036763Y-136292462D01*
X117377782Y-135823612D01*
X118089739Y-131785901D01*
G04 #@! TO.C,SW11*
G36*
X128013733Y-75504140D02*
G01*
X132839291Y-76355016D01*
X132422536Y-78718554D01*
X130255958Y-78336528D01*
X129960757Y-80010701D01*
X127301776Y-79541851D01*
X128013733Y-75504140D01*
G37*
X128013733Y-75504140D02*
X132839291Y-76355016D01*
X132422536Y-78718554D01*
X130255958Y-78336528D01*
X129960757Y-80010701D01*
X127301776Y-79541851D01*
X128013733Y-75504140D01*
G04 #@! TO.C,SW4*
G36*
X297983343Y-76152286D02*
G01*
X302808901Y-75301410D01*
X303225657Y-77664949D01*
X301059080Y-78046975D01*
X301354281Y-79721148D01*
X298695300Y-80189998D01*
X297983343Y-76152286D01*
G37*
X297983343Y-76152286D02*
X302808901Y-75301410D01*
X303225657Y-77664949D01*
X301059080Y-78046975D01*
X301354281Y-79721148D01*
X298695300Y-80189998D01*
X297983343Y-76152286D01*
G04 #@! TO.C,SW15*
G36*
X320603263Y-94731639D02*
G01*
X325428821Y-93880763D01*
X325845577Y-96244302D01*
X323679000Y-96626328D01*
X323974201Y-98300501D01*
X321315220Y-98769351D01*
X320603263Y-94731639D01*
G37*
X320603263Y-94731639D02*
X325428821Y-93880763D01*
X325845577Y-96244302D01*
X323679000Y-96626328D01*
X323974201Y-98300501D01*
X321315220Y-98769351D01*
X320603263Y-94731639D01*
G04 #@! TO.C,SW40*
G36*
X290249417Y-141995576D02*
G01*
X295074975Y-141144700D01*
X295491731Y-143508239D01*
X293325154Y-143890265D01*
X293620355Y-145564438D01*
X290961374Y-146033288D01*
X290249417Y-141995576D01*
G37*
X290249417Y-141995576D02*
X295074975Y-141144700D01*
X295491731Y-143508239D01*
X293325154Y-143890265D01*
X293620355Y-145564438D01*
X290961374Y-146033288D01*
X290249417Y-141995576D01*
G04 #@! TO.C,SW44*
G36*
X199834585Y-147472791D02*
G01*
X203588202Y-150622451D01*
X202045512Y-152460957D01*
X200360214Y-151046825D01*
X199267475Y-152349100D01*
X197199155Y-150613574D01*
X199834585Y-147472791D01*
G37*
X199834585Y-147472791D02*
X203588202Y-150622451D01*
X202045512Y-152460957D01*
X200360214Y-151046825D01*
X199267475Y-152349100D01*
X197199155Y-150613574D01*
X199834585Y-147472791D01*
G04 #@! TO.C,SW1*
G36*
X359759450Y-88708866D02*
G01*
X354933892Y-89559742D01*
X354517136Y-87196203D01*
X356683713Y-86814177D01*
X356388512Y-85140004D01*
X359047493Y-84671154D01*
X359759450Y-88708866D01*
G37*
X359759450Y-88708866D02*
X354933892Y-89559742D01*
X354517136Y-87196203D01*
X356683713Y-86814177D01*
X356388512Y-85140004D01*
X359047493Y-84671154D01*
X359759450Y-88708866D01*
G04 #@! TO.C,SW_RESET2*
G36*
X232399645Y-86995051D02*
G01*
X237299645Y-86995051D01*
X237299645Y-89395051D01*
X235099645Y-89395051D01*
X235099645Y-91095051D01*
X232399645Y-91095051D01*
X232399645Y-86995051D01*
G37*
X232399645Y-86995051D02*
X237299645Y-86995051D01*
X237299645Y-89395051D01*
X235099645Y-89395051D01*
X235099645Y-91095051D01*
X232399645Y-91095051D01*
X232399645Y-86995051D01*
G04 #@! TO.C,SW25*
G36*
X362535105Y-113129763D02*
G01*
X367360663Y-112278887D01*
X367777419Y-114642426D01*
X365610842Y-115024452D01*
X365906043Y-116698625D01*
X363247062Y-117167475D01*
X362535105Y-113129763D01*
G37*
X362535105Y-113129763D02*
X367360663Y-112278887D01*
X367777419Y-114642426D01*
X365610842Y-115024452D01*
X365906043Y-116698625D01*
X363247062Y-117167475D01*
X362535105Y-113129763D01*
G04 #@! TO.C,SW14*
G36*
X343655528Y-107700685D02*
G01*
X338829970Y-108551561D01*
X338413214Y-106188022D01*
X340579791Y-105805996D01*
X340284590Y-104131823D01*
X342943571Y-103662973D01*
X343655528Y-107700685D01*
G37*
X343655528Y-107700685D02*
X338829970Y-108551561D01*
X338413214Y-106188022D01*
X340579791Y-105805996D01*
X340284590Y-104131823D01*
X342943571Y-103662973D01*
X343655528Y-107700685D01*
G04 #@! TO.C,SW23*
G36*
X124705736Y-94264727D02*
G01*
X129531294Y-95115603D01*
X129114539Y-97479141D01*
X126947961Y-97097115D01*
X126652760Y-98771288D01*
X123993779Y-98302438D01*
X124705736Y-94264727D01*
G37*
X124705736Y-94264727D02*
X129531294Y-95115603D01*
X129114539Y-97479141D01*
X126947961Y-97097115D01*
X126652760Y-98771288D01*
X123993779Y-98302438D01*
X124705736Y-94264727D01*
G04 #@! TO.C,SW24*
G36*
X104410929Y-107719985D02*
G01*
X99585371Y-106869109D01*
X100002126Y-104505571D01*
X102168704Y-104887597D01*
X102463905Y-103213424D01*
X105122886Y-103682274D01*
X104410929Y-107719985D01*
G37*
X104410929Y-107719985D02*
X99585371Y-106869109D01*
X100002126Y-104505571D01*
X102168704Y-104887597D01*
X102463905Y-103213424D01*
X105122886Y-103682274D01*
X104410929Y-107719985D01*
G04 #@! TO.C,SW36*
G36*
X102085818Y-112844082D02*
G01*
X106911376Y-113694958D01*
X106494621Y-116058496D01*
X104328043Y-115676470D01*
X104032842Y-117350643D01*
X101373861Y-116881793D01*
X102085818Y-112844082D01*
G37*
X102085818Y-112844082D02*
X106911376Y-113694958D01*
X106494621Y-116058496D01*
X104328043Y-115676470D01*
X104032842Y-117350643D01*
X101373861Y-116881793D01*
X102085818Y-112844082D01*
G04 #@! TO.C,J2*
G36*
X370824170Y-75295103D02*
G01*
X365224170Y-75295103D01*
X365224170Y-74595103D01*
X370824170Y-74595103D01*
X370824170Y-75295103D01*
G37*
X370824170Y-75295103D02*
X365224170Y-75295103D01*
X365224170Y-74595103D01*
X370824170Y-74595103D01*
X370824170Y-75295103D01*
G04 #@! TO.C,F1*
G36*
X350524170Y-79970103D02*
G01*
X350524170Y-80970103D01*
X347724170Y-80970103D01*
X347724170Y-79970103D01*
X350524170Y-79970103D01*
G37*
X350524170Y-79970103D02*
X350524170Y-80970103D01*
X347724170Y-80970103D01*
X347724170Y-79970103D01*
X350524170Y-79970103D01*
G04 #@! TO.C,C5*
G36*
X222099561Y-121794881D02*
G01*
X222099561Y-122194681D01*
X223099761Y-122194681D01*
X223099761Y-121794881D01*
X222099561Y-121794881D01*
G37*
G04 #@! TO.C,J1*
G36*
X359299645Y-72795053D02*
G01*
X355299645Y-72795053D01*
X355299645Y-71795053D01*
X359299645Y-71795053D01*
X359299645Y-72795053D01*
G37*
G04 #@! TO.C,C2*
G36*
X229274560Y-139519881D02*
G01*
X229274560Y-139919681D01*
X230274760Y-139919681D01*
X230274760Y-139519881D01*
X229274560Y-139519881D01*
G37*
D11*
G04 #@! TO.C,C3*
G36*
X242324560Y-124519881D02*
G01*
X242324560Y-124919681D01*
X243324760Y-124919681D01*
X243324760Y-124519881D01*
X242324560Y-124519881D01*
G37*
X242324560Y-124519881D02*
X242324560Y-124919681D01*
X243324760Y-124919681D01*
X243324760Y-124519881D01*
X242324560Y-124519881D01*
G04 #@! TO.C,C4*
G36*
X243349760Y-132094681D02*
G01*
X243349760Y-131694881D01*
X242349560Y-131694881D01*
X242349560Y-132094681D01*
X243349760Y-132094681D01*
G37*
X243349760Y-132094681D02*
X243349760Y-131694881D01*
X242349560Y-131694881D01*
X242349560Y-132094681D01*
X243349760Y-132094681D01*
G04 #@! TO.C,C7*
G36*
X233199745Y-119895152D02*
G01*
X233599545Y-119895152D01*
X233599545Y-118894952D01*
X233199745Y-118894952D01*
X233199745Y-119895152D01*
G37*
X233199745Y-119895152D02*
X233599545Y-119895152D01*
X233599545Y-118894952D01*
X233199745Y-118894952D01*
X233199745Y-119895152D01*
G04 #@! TO.C,Y1*
G36*
X221999645Y-127520052D02*
G01*
X221999645Y-127120052D01*
X222999645Y-127120052D01*
X222999645Y-127520052D01*
X221999645Y-127520052D01*
G37*
X221999645Y-127520052D02*
X221999645Y-127120052D01*
X222999645Y-127120052D01*
X222999645Y-127520052D01*
X221999645Y-127520052D01*
G36*
X221999645Y-128720052D02*
G01*
X221999645Y-128320052D01*
X222999645Y-128320052D01*
X222999645Y-128720052D01*
X221999645Y-128720052D01*
G37*
X221999645Y-128720052D02*
X221999645Y-128320052D01*
X222999645Y-128320052D01*
X222999645Y-128720052D01*
X221999645Y-128720052D01*
G04 #@! TD*
M02*
