G04 #@! TF.GenerationSoftware,KiCad,Pcbnew,(6.0.0-rc1-dev-1469-g932b9a334)*
G04 #@! TF.CreationDate,2019-09-07T17:34:57-07:00
G04 #@! TF.ProjectId,Laptreus-v2,4c617074-7265-4757-932d-76322e6b6963,rev?*
G04 #@! TF.SameCoordinates,Original*
G04 #@! TF.FileFunction,Other,ECO2*
%FSLAX46Y46*%
G04 Gerber Fmt 4.6, Leading zero omitted, Abs format (unit mm)*
G04 Created by KiCad (PCBNEW (6.0.0-rc1-dev-1469-g932b9a334)) date Saturday, September 07, 2019 at 05:34:57 PM*
%MOMM*%
%LPD*%
G04 APERTURE LIST*
%ADD10C,0.150000*%
G04 APERTURE END LIST*
D10*
X212555113Y-219053583D02*
X211983685Y-219053583D01*
X212269399Y-219053583D02*
X212269399Y-218053583D01*
X212174161Y-218196441D01*
X212078923Y-218291679D01*
X211983685Y-218339298D01*
X212936066Y-218767869D02*
X213412256Y-218767869D01*
X212840828Y-219053583D02*
X213174161Y-218053583D01*
X213507494Y-219053583D01*
X213840828Y-219053583D02*
X213840828Y-218053583D01*
X214269399Y-219053583D02*
X214269399Y-218529774D01*
X214221780Y-218434536D01*
X214126542Y-218386917D01*
X213983685Y-218386917D01*
X213888447Y-218434536D01*
X213840828Y-218482155D01*
X215793209Y-219434536D02*
X215745590Y-219386917D01*
X215650352Y-219244060D01*
X215602733Y-219148822D01*
X215555113Y-219005964D01*
X215507494Y-218767869D01*
X215507494Y-218577393D01*
X215555113Y-218339298D01*
X215602733Y-218196441D01*
X215650352Y-218101203D01*
X215745590Y-217958345D01*
X215793209Y-217910726D01*
X216650352Y-218053583D02*
X216174161Y-218053583D01*
X216126542Y-218529774D01*
X216174161Y-218482155D01*
X216269399Y-218434536D01*
X216507494Y-218434536D01*
X216602733Y-218482155D01*
X216650352Y-218529774D01*
X216697971Y-218625012D01*
X216697971Y-218863107D01*
X216650352Y-218958345D01*
X216602733Y-219005964D01*
X216507494Y-219053583D01*
X216269399Y-219053583D01*
X216174161Y-219005964D01*
X216126542Y-218958345D01*
X217650352Y-219053583D02*
X217078923Y-219053583D01*
X217364637Y-219053583D02*
X217364637Y-218053583D01*
X217269399Y-218196441D01*
X217174161Y-218291679D01*
X217078923Y-218339298D01*
X217983685Y-219053583D02*
X218507494Y-218386917D01*
X217983685Y-218386917D02*
X218507494Y-219053583D01*
X218793209Y-218053583D02*
X219412256Y-218053583D01*
X219078923Y-218434536D01*
X219221780Y-218434536D01*
X219317018Y-218482155D01*
X219364637Y-218529774D01*
X219412256Y-218625012D01*
X219412256Y-218863107D01*
X219364637Y-218958345D01*
X219317018Y-219005964D01*
X219221780Y-219053583D01*
X218936066Y-219053583D01*
X218840828Y-219005964D01*
X218793209Y-218958345D01*
X220269399Y-218386917D02*
X220269399Y-219053583D01*
X220031304Y-218005964D02*
X219793209Y-218720250D01*
X220412256Y-218720250D01*
X220697971Y-219053583D02*
X221221780Y-218386917D01*
X220697971Y-218386917D02*
X221221780Y-219053583D01*
X222078923Y-218053583D02*
X221602733Y-218053583D01*
X221555113Y-218529774D01*
X221602733Y-218482155D01*
X221697971Y-218434536D01*
X221936066Y-218434536D01*
X222031304Y-218482155D01*
X222078923Y-218529774D01*
X222126542Y-218625012D01*
X222126542Y-218863107D01*
X222078923Y-218958345D01*
X222031304Y-219005964D01*
X221936066Y-219053583D01*
X221697971Y-219053583D01*
X221602733Y-219005964D01*
X221555113Y-218958345D01*
X222555113Y-218958345D02*
X222602733Y-219005964D01*
X222555113Y-219053583D01*
X222507494Y-219005964D01*
X222555113Y-218958345D01*
X222555113Y-219053583D01*
X223078923Y-219053583D02*
X223269399Y-219053583D01*
X223364637Y-219005964D01*
X223412256Y-218958345D01*
X223507494Y-218815488D01*
X223555113Y-218625012D01*
X223555113Y-218244060D01*
X223507494Y-218148822D01*
X223459875Y-218101203D01*
X223364637Y-218053583D01*
X223174161Y-218053583D01*
X223078923Y-218101203D01*
X223031304Y-218148822D01*
X222983685Y-218244060D01*
X222983685Y-218482155D01*
X223031304Y-218577393D01*
X223078923Y-218625012D01*
X223174161Y-218672631D01*
X223364637Y-218672631D01*
X223459875Y-218625012D01*
X223507494Y-218577393D01*
X223555113Y-218482155D01*
X223888447Y-219434536D02*
X223936066Y-219386917D01*
X224031304Y-219244060D01*
X224078923Y-219148822D01*
X224126542Y-219005964D01*
X224174161Y-218767869D01*
X224174161Y-218577393D01*
X224126542Y-218339298D01*
X224078923Y-218196441D01*
X224031304Y-218101203D01*
X223936066Y-217958345D01*
X223888447Y-217910726D01*
X179815955Y-216521960D02*
X180482621Y-216521960D01*
X179435002Y-216760055D02*
X180149288Y-216998150D01*
X180149288Y-216379102D01*
X179482621Y-215807674D02*
X179482621Y-215712436D01*
X179530241Y-215617198D01*
X179577860Y-215569579D01*
X179673098Y-215521960D01*
X179863574Y-215474341D01*
X180101669Y-215474341D01*
X180292145Y-215521960D01*
X180387383Y-215569579D01*
X180435002Y-215617198D01*
X180482621Y-215712436D01*
X180482621Y-215807674D01*
X180435002Y-215902912D01*
X180387383Y-215950531D01*
X180292145Y-215998150D01*
X180101669Y-216045769D01*
X179863574Y-216045769D01*
X179673098Y-215998150D01*
X179577860Y-215950531D01*
X179530241Y-215902912D01*
X179482621Y-215807674D01*
X179482621Y-214855293D02*
X179482621Y-214760055D01*
X179530241Y-214664817D01*
X179577860Y-214617198D01*
X179673098Y-214569579D01*
X179863574Y-214521960D01*
X180101669Y-214521960D01*
X180292145Y-214569579D01*
X180387383Y-214617198D01*
X180435002Y-214664817D01*
X180482621Y-214760055D01*
X180482621Y-214855293D01*
X180435002Y-214950531D01*
X180387383Y-214998150D01*
X180292145Y-215045769D01*
X180101669Y-215093388D01*
X179863574Y-215093388D01*
X179673098Y-215045769D01*
X179577860Y-214998150D01*
X179530241Y-214950531D01*
X179482621Y-214855293D01*
X180482621Y-214093388D02*
X179815955Y-214093388D01*
X179911193Y-214093388D02*
X179863574Y-214045769D01*
X179815955Y-213950531D01*
X179815955Y-213807674D01*
X179863574Y-213712436D01*
X179958812Y-213664817D01*
X180482621Y-213664817D01*
X179958812Y-213664817D02*
X179863574Y-213617198D01*
X179815955Y-213521960D01*
X179815955Y-213379102D01*
X179863574Y-213283864D01*
X179958812Y-213236245D01*
X180482621Y-213236245D01*
X180196907Y-212807674D02*
X180196907Y-212331483D01*
X180482621Y-212902912D02*
X179482621Y-212569579D01*
X180482621Y-212236245D01*
X180482621Y-211902912D02*
X179482621Y-211902912D01*
X180482621Y-211474341D02*
X179958812Y-211474341D01*
X179863574Y-211521960D01*
X179815955Y-211617198D01*
X179815955Y-211760055D01*
X179863574Y-211855293D01*
X179911193Y-211902912D01*
X180863574Y-209950531D02*
X180815955Y-209998150D01*
X180673098Y-210093388D01*
X180577860Y-210141007D01*
X180435002Y-210188626D01*
X180196907Y-210236245D01*
X180006431Y-210236245D01*
X179768336Y-210188626D01*
X179625479Y-210141007D01*
X179530241Y-210093388D01*
X179387383Y-209998150D01*
X179339764Y-209950531D01*
X179577860Y-209617198D02*
X179530241Y-209569579D01*
X179482621Y-209474341D01*
X179482621Y-209236245D01*
X179530241Y-209141007D01*
X179577860Y-209093388D01*
X179673098Y-209045769D01*
X179768336Y-209045769D01*
X179911193Y-209093388D01*
X180482621Y-209664817D01*
X180482621Y-209045769D01*
X179482621Y-208712436D02*
X179482621Y-208045769D01*
X180482621Y-208474341D01*
X180482621Y-207760055D02*
X179815955Y-207236245D01*
X179815955Y-207760055D02*
X180482621Y-207236245D01*
X179482621Y-206950531D02*
X179482621Y-206331483D01*
X179863574Y-206664817D01*
X179863574Y-206521960D01*
X179911193Y-206426721D01*
X179958812Y-206379102D01*
X180054050Y-206331483D01*
X180292145Y-206331483D01*
X180387383Y-206379102D01*
X180435002Y-206426721D01*
X180482621Y-206521960D01*
X180482621Y-206807674D01*
X180435002Y-206902912D01*
X180387383Y-206950531D01*
X179482621Y-205998150D02*
X179482621Y-205331483D01*
X180482621Y-205760055D01*
X180482621Y-205045769D02*
X179815955Y-204521960D01*
X179815955Y-205045769D02*
X180482621Y-204521960D01*
X179482621Y-203664817D02*
X179482621Y-204141007D01*
X179958812Y-204188626D01*
X179911193Y-204141007D01*
X179863574Y-204045769D01*
X179863574Y-203807674D01*
X179911193Y-203712436D01*
X179958812Y-203664817D01*
X180054050Y-203617198D01*
X180292145Y-203617198D01*
X180387383Y-203664817D01*
X180435002Y-203712436D01*
X180482621Y-203807674D01*
X180482621Y-204045769D01*
X180435002Y-204141007D01*
X180387383Y-204188626D01*
X180863574Y-203283864D02*
X180815955Y-203236245D01*
X180673098Y-203141007D01*
X180577860Y-203093388D01*
X180435002Y-203045769D01*
X180196907Y-202998150D01*
X180006431Y-202998150D01*
X179768336Y-203045769D01*
X179625479Y-203093388D01*
X179530241Y-203141007D01*
X179387383Y-203236245D01*
X179339764Y-203283864D01*
X213904245Y-103541147D02*
X213951864Y-103493528D01*
X214047103Y-103445908D01*
X214285198Y-103445908D01*
X214380436Y-103493528D01*
X214428055Y-103541147D01*
X214475674Y-103636385D01*
X214475674Y-103731623D01*
X214428055Y-103874480D01*
X213856626Y-104445908D01*
X214475674Y-104445908D01*
X214951864Y-104445908D02*
X215142341Y-104445908D01*
X215237579Y-104398289D01*
X215285198Y-104350670D01*
X215380436Y-104207813D01*
X215428055Y-104017337D01*
X215428055Y-103636385D01*
X215380436Y-103541147D01*
X215332817Y-103493528D01*
X215237579Y-103445908D01*
X215047103Y-103445908D01*
X214951864Y-103493528D01*
X214904245Y-103541147D01*
X214856626Y-103636385D01*
X214856626Y-103874480D01*
X214904245Y-103969718D01*
X214951864Y-104017337D01*
X215047103Y-104064956D01*
X215237579Y-104064956D01*
X215332817Y-104017337D01*
X215380436Y-103969718D01*
X215428055Y-103874480D01*
X215856626Y-104350670D02*
X215904245Y-104398289D01*
X215856626Y-104445908D01*
X215809007Y-104398289D01*
X215856626Y-104350670D01*
X215856626Y-104445908D01*
X216475674Y-103874480D02*
X216380436Y-103826861D01*
X216332817Y-103779242D01*
X216285198Y-103684004D01*
X216285198Y-103636385D01*
X216332817Y-103541147D01*
X216380436Y-103493528D01*
X216475674Y-103445908D01*
X216666150Y-103445908D01*
X216761388Y-103493528D01*
X216809007Y-103541147D01*
X216856626Y-103636385D01*
X216856626Y-103684004D01*
X216809007Y-103779242D01*
X216761388Y-103826861D01*
X216666150Y-103874480D01*
X216475674Y-103874480D01*
X216380436Y-103922099D01*
X216332817Y-103969718D01*
X216285198Y-104064956D01*
X216285198Y-104255432D01*
X216332817Y-104350670D01*
X216380436Y-104398289D01*
X216475674Y-104445908D01*
X216666150Y-104445908D01*
X216761388Y-104398289D01*
X216809007Y-104350670D01*
X216856626Y-104255432D01*
X216856626Y-104064956D01*
X216809007Y-103969718D01*
X216761388Y-103922099D01*
X216666150Y-103874480D01*
X217428055Y-103874480D02*
X217332817Y-103826861D01*
X217285198Y-103779242D01*
X217237579Y-103684004D01*
X217237579Y-103636385D01*
X217285198Y-103541147D01*
X217332817Y-103493528D01*
X217428055Y-103445908D01*
X217618531Y-103445908D01*
X217713769Y-103493528D01*
X217761388Y-103541147D01*
X217809007Y-103636385D01*
X217809007Y-103684004D01*
X217761388Y-103779242D01*
X217713769Y-103826861D01*
X217618531Y-103874480D01*
X217428055Y-103874480D01*
X217332817Y-103922099D01*
X217285198Y-103969718D01*
X217237579Y-104064956D01*
X217237579Y-104255432D01*
X217285198Y-104350670D01*
X217332817Y-104398289D01*
X217428055Y-104445908D01*
X217618531Y-104445908D01*
X217713769Y-104398289D01*
X217761388Y-104350670D01*
X217809007Y-104255432D01*
X217809007Y-104064956D01*
X217761388Y-103969718D01*
X217713769Y-103922099D01*
X217618531Y-103874480D01*
X218666150Y-103779242D02*
X218666150Y-104445908D01*
X218428055Y-103398289D02*
X218189960Y-104112575D01*
X218809007Y-104112575D01*
X219951864Y-104445908D02*
X219951864Y-103779242D01*
X219951864Y-103874480D02*
X219999483Y-103826861D01*
X220094722Y-103779242D01*
X220237579Y-103779242D01*
X220332817Y-103826861D01*
X220380436Y-103922099D01*
X220380436Y-104445908D01*
X220380436Y-103922099D02*
X220428055Y-103826861D01*
X220523293Y-103779242D01*
X220666150Y-103779242D01*
X220761388Y-103826861D01*
X220809007Y-103922099D01*
X220809007Y-104445908D01*
X221285198Y-104445908D02*
X221285198Y-103779242D01*
X221285198Y-103874480D02*
X221332817Y-103826861D01*
X221428055Y-103779242D01*
X221570912Y-103779242D01*
X221666150Y-103826861D01*
X221713769Y-103922099D01*
X221713769Y-104445908D01*
X221713769Y-103922099D02*
X221761388Y-103826861D01*
X221856626Y-103779242D01*
X221999483Y-103779242D01*
X222094722Y-103826861D01*
X222142341Y-103922099D01*
X222142341Y-104445908D01*
X203105269Y-102693528D02*
X232988939Y-102693527D01*
X203105267Y-92426084D02*
X203105268Y-103279948D01*
X232988939Y-92426084D02*
X232988939Y-103279948D01*
X232988939Y-102693527D02*
X231862436Y-103279950D01*
X232988939Y-102693527D02*
X231862435Y-102107107D01*
X203105269Y-102693528D02*
X204231773Y-103279949D01*
X203105269Y-102693528D02*
X204231773Y-102107107D01*
X212202627Y-115127432D02*
X212821675Y-115127432D01*
X212488342Y-115508385D01*
X212631199Y-115508385D01*
X212726437Y-115556004D01*
X212774056Y-115603623D01*
X212821675Y-115698861D01*
X212821675Y-115936956D01*
X212774056Y-116032194D01*
X212726437Y-116079813D01*
X212631199Y-116127432D01*
X212345484Y-116127432D01*
X212250246Y-116079813D01*
X212202627Y-116032194D01*
X213155008Y-115127432D02*
X213774056Y-115127432D01*
X213440723Y-115508385D01*
X213583580Y-115508385D01*
X213678818Y-115556004D01*
X213726437Y-115603623D01*
X213774056Y-115698861D01*
X213774056Y-115936956D01*
X213726437Y-116032194D01*
X213678818Y-116079813D01*
X213583580Y-116127432D01*
X213297865Y-116127432D01*
X213202627Y-116079813D01*
X213155008Y-116032194D01*
X214202627Y-116032194D02*
X214250246Y-116079813D01*
X214202627Y-116127432D01*
X214155008Y-116079813D01*
X214202627Y-116032194D01*
X214202627Y-116127432D01*
X215202627Y-116127432D02*
X214631199Y-116127432D01*
X214916913Y-116127432D02*
X214916913Y-115127432D01*
X214821675Y-115270290D01*
X214726437Y-115365528D01*
X214631199Y-115413147D01*
X215678818Y-116127432D02*
X215869294Y-116127432D01*
X215964532Y-116079813D01*
X216012151Y-116032194D01*
X216107389Y-115889337D01*
X216155008Y-115698861D01*
X216155008Y-115317909D01*
X216107389Y-115222671D01*
X216059770Y-115175052D01*
X215964532Y-115127432D01*
X215774056Y-115127432D01*
X215678818Y-115175052D01*
X215631199Y-115222671D01*
X215583580Y-115317909D01*
X215583580Y-115556004D01*
X215631199Y-115651242D01*
X215678818Y-115698861D01*
X215774056Y-115746480D01*
X215964532Y-115746480D01*
X216059770Y-115698861D01*
X216107389Y-115651242D01*
X216155008Y-115556004D01*
X216535961Y-115222671D02*
X216583580Y-115175052D01*
X216678818Y-115127432D01*
X216916913Y-115127432D01*
X217012151Y-115175052D01*
X217059770Y-115222671D01*
X217107389Y-115317909D01*
X217107389Y-115413147D01*
X217059770Y-115556004D01*
X216488342Y-116127432D01*
X217107389Y-116127432D01*
X218297865Y-116127432D02*
X218297865Y-115460766D01*
X218297865Y-115556004D02*
X218345484Y-115508385D01*
X218440723Y-115460766D01*
X218583580Y-115460766D01*
X218678818Y-115508385D01*
X218726437Y-115603623D01*
X218726437Y-116127432D01*
X218726437Y-115603623D02*
X218774056Y-115508385D01*
X218869294Y-115460766D01*
X219012151Y-115460766D01*
X219107389Y-115508385D01*
X219155008Y-115603623D01*
X219155008Y-116127432D01*
X219631199Y-116127432D02*
X219631199Y-115460766D01*
X219631199Y-115556004D02*
X219678818Y-115508385D01*
X219774056Y-115460766D01*
X219916913Y-115460766D01*
X220012151Y-115508385D01*
X220059770Y-115603623D01*
X220059770Y-116127432D01*
X220059770Y-115603623D02*
X220107389Y-115508385D01*
X220202627Y-115460766D01*
X220345484Y-115460766D01*
X220440723Y-115508385D01*
X220488342Y-115603623D01*
X220488342Y-116127432D01*
X199797271Y-114375053D02*
X232988940Y-114375054D01*
X199797271Y-111186672D02*
X199797270Y-114961474D01*
X232988939Y-111186672D02*
X232988940Y-114961474D01*
X232988940Y-114375054D02*
X231862435Y-114961475D01*
X232988940Y-114375054D02*
X231862435Y-113788633D01*
X199797271Y-114375053D02*
X200923775Y-114961474D01*
X199797271Y-114375053D02*
X200923775Y-113788633D01*
X245394474Y-115127758D02*
X246013522Y-115127758D01*
X245680189Y-115508711D01*
X245823046Y-115508711D01*
X245918284Y-115556330D01*
X245965903Y-115603949D01*
X246013522Y-115699187D01*
X246013522Y-115937282D01*
X245965903Y-116032520D01*
X245918284Y-116080139D01*
X245823046Y-116127758D01*
X245537331Y-116127758D01*
X245442093Y-116080139D01*
X245394474Y-116032520D01*
X246346855Y-115127758D02*
X246965903Y-115127758D01*
X246632570Y-115508711D01*
X246775427Y-115508711D01*
X246870665Y-115556330D01*
X246918284Y-115603949D01*
X246965903Y-115699187D01*
X246965903Y-115937282D01*
X246918284Y-116032520D01*
X246870665Y-116080139D01*
X246775427Y-116127758D01*
X246489712Y-116127758D01*
X246394474Y-116080139D01*
X246346855Y-116032520D01*
X247394474Y-116032520D02*
X247442093Y-116080139D01*
X247394474Y-116127758D01*
X247346855Y-116080139D01*
X247394474Y-116032520D01*
X247394474Y-116127758D01*
X248394474Y-116127758D02*
X247823046Y-116127758D01*
X248108760Y-116127758D02*
X248108760Y-115127758D01*
X248013522Y-115270616D01*
X247918284Y-115365854D01*
X247823046Y-115413473D01*
X248870665Y-116127758D02*
X249061141Y-116127758D01*
X249156379Y-116080139D01*
X249203998Y-116032520D01*
X249299236Y-115889663D01*
X249346855Y-115699187D01*
X249346855Y-115318235D01*
X249299236Y-115222997D01*
X249251617Y-115175378D01*
X249156379Y-115127758D01*
X248965903Y-115127758D01*
X248870665Y-115175378D01*
X248823046Y-115222997D01*
X248775427Y-115318235D01*
X248775427Y-115556330D01*
X248823046Y-115651568D01*
X248870665Y-115699187D01*
X248965903Y-115746806D01*
X249156379Y-115746806D01*
X249251617Y-115699187D01*
X249299236Y-115651568D01*
X249346855Y-115556330D01*
X249727808Y-115222997D02*
X249775427Y-115175378D01*
X249870665Y-115127758D01*
X250108760Y-115127758D01*
X250203998Y-115175378D01*
X250251617Y-115222997D01*
X250299236Y-115318235D01*
X250299236Y-115413473D01*
X250251617Y-115556330D01*
X249680189Y-116127758D01*
X250299236Y-116127758D01*
X251489712Y-116127758D02*
X251489712Y-115461092D01*
X251489712Y-115556330D02*
X251537331Y-115508711D01*
X251632570Y-115461092D01*
X251775427Y-115461092D01*
X251870665Y-115508711D01*
X251918284Y-115603949D01*
X251918284Y-116127758D01*
X251918284Y-115603949D02*
X251965903Y-115508711D01*
X252061141Y-115461092D01*
X252203998Y-115461092D01*
X252299236Y-115508711D01*
X252346855Y-115603949D01*
X252346855Y-116127758D01*
X252823046Y-116127758D02*
X252823046Y-115461092D01*
X252823046Y-115556330D02*
X252870665Y-115508711D01*
X252965903Y-115461092D01*
X253108760Y-115461092D01*
X253203998Y-115508711D01*
X253251617Y-115603949D01*
X253251617Y-116127758D01*
X253251617Y-115603949D02*
X253299236Y-115508711D01*
X253394474Y-115461092D01*
X253537331Y-115461092D01*
X253632570Y-115508711D01*
X253680189Y-115603949D01*
X253680189Y-116127758D01*
X266180967Y-114375380D02*
X232988940Y-114375378D01*
X266180967Y-111229247D02*
X266180967Y-114961800D01*
X232988939Y-111229246D02*
X232988940Y-114961800D01*
X232988940Y-114375378D02*
X234115444Y-113788957D01*
X232988940Y-114375378D02*
X234115443Y-114961799D01*
X266180967Y-114375380D02*
X265054462Y-113788959D01*
X266180967Y-114375380D02*
X265054463Y-114961801D01*
X258929863Y-140145908D02*
X258453672Y-140145908D01*
X258406053Y-140622099D01*
X258453672Y-140574480D01*
X258548911Y-140526861D01*
X258787006Y-140526861D01*
X258882244Y-140574480D01*
X258929863Y-140622099D01*
X258977482Y-140717337D01*
X258977482Y-140955432D01*
X258929863Y-141050670D01*
X258882244Y-141098289D01*
X258787006Y-141145908D01*
X258548911Y-141145908D01*
X258453672Y-141098289D01*
X258406053Y-141050670D01*
X259453672Y-141145908D02*
X259644149Y-141145908D01*
X259739387Y-141098289D01*
X259787006Y-141050670D01*
X259882244Y-140907813D01*
X259929863Y-140717337D01*
X259929863Y-140336385D01*
X259882244Y-140241147D01*
X259834625Y-140193528D01*
X259739387Y-140145908D01*
X259548911Y-140145908D01*
X259453672Y-140193528D01*
X259406053Y-140241147D01*
X259358434Y-140336385D01*
X259358434Y-140574480D01*
X259406053Y-140669718D01*
X259453672Y-140717337D01*
X259548911Y-140764956D01*
X259739387Y-140764956D01*
X259834625Y-140717337D01*
X259882244Y-140669718D01*
X259929863Y-140574480D01*
X260358434Y-141050670D02*
X260406053Y-141098289D01*
X260358434Y-141145908D01*
X260310815Y-141098289D01*
X260358434Y-141050670D01*
X260358434Y-141145908D01*
X261358434Y-141145908D02*
X260787006Y-141145908D01*
X261072720Y-141145908D02*
X261072720Y-140145908D01*
X260977482Y-140288766D01*
X260882244Y-140384004D01*
X260787006Y-140431623D01*
X261739387Y-140241147D02*
X261787006Y-140193528D01*
X261882244Y-140145908D01*
X262120339Y-140145908D01*
X262215577Y-140193528D01*
X262263196Y-140241147D01*
X262310815Y-140336385D01*
X262310815Y-140431623D01*
X262263196Y-140574480D01*
X261691768Y-141145908D01*
X262310815Y-141145908D01*
X262929863Y-140145908D02*
X263025101Y-140145908D01*
X263120339Y-140193528D01*
X263167958Y-140241147D01*
X263215577Y-140336385D01*
X263263196Y-140526861D01*
X263263196Y-140764956D01*
X263215577Y-140955432D01*
X263167958Y-141050670D01*
X263120339Y-141098289D01*
X263025101Y-141145908D01*
X262929863Y-141145908D01*
X262834625Y-141098289D01*
X262787006Y-141050670D01*
X262739387Y-140955432D01*
X262691768Y-140764956D01*
X262691768Y-140526861D01*
X262739387Y-140336385D01*
X262787006Y-140241147D01*
X262834625Y-140193528D01*
X262929863Y-140145908D01*
X264453672Y-141145908D02*
X264453672Y-140479242D01*
X264453672Y-140574480D02*
X264501291Y-140526861D01*
X264596530Y-140479242D01*
X264739387Y-140479242D01*
X264834625Y-140526861D01*
X264882244Y-140622099D01*
X264882244Y-141145908D01*
X264882244Y-140622099D02*
X264929863Y-140526861D01*
X265025101Y-140479242D01*
X265167958Y-140479242D01*
X265263196Y-140526861D01*
X265310815Y-140622099D01*
X265310815Y-141145908D01*
X265787006Y-141145908D02*
X265787006Y-140479242D01*
X265787006Y-140574480D02*
X265834625Y-140526861D01*
X265929863Y-140479242D01*
X266072720Y-140479242D01*
X266167958Y-140526861D01*
X266215577Y-140622099D01*
X266215577Y-141145908D01*
X266215577Y-140622099D02*
X266263196Y-140526861D01*
X266358434Y-140479242D01*
X266501291Y-140479242D01*
X266596530Y-140526861D01*
X266644149Y-140622099D01*
X266644149Y-141145908D01*
X292108882Y-141993528D02*
X232988939Y-141993528D01*
X292108883Y-148569190D02*
X292108882Y-141407107D01*
X232988940Y-148569189D02*
X232988939Y-141407107D01*
X232988939Y-141993528D02*
X234115444Y-141407108D01*
X232988939Y-141993528D02*
X234115444Y-142579950D01*
X292108882Y-141993528D02*
X290982378Y-141407106D01*
X292108882Y-141993528D02*
X290982378Y-142579950D01*
X199810098Y-140145908D02*
X199333907Y-140145908D01*
X199286288Y-140622099D01*
X199333907Y-140574480D01*
X199429146Y-140526861D01*
X199667241Y-140526861D01*
X199762479Y-140574480D01*
X199810098Y-140622099D01*
X199857717Y-140717337D01*
X199857717Y-140955432D01*
X199810098Y-141050670D01*
X199762479Y-141098289D01*
X199667241Y-141145908D01*
X199429146Y-141145908D01*
X199333907Y-141098289D01*
X199286288Y-141050670D01*
X200333907Y-141145908D02*
X200524384Y-141145908D01*
X200619622Y-141098289D01*
X200667241Y-141050670D01*
X200762479Y-140907813D01*
X200810098Y-140717337D01*
X200810098Y-140336385D01*
X200762479Y-140241147D01*
X200714860Y-140193528D01*
X200619622Y-140145908D01*
X200429146Y-140145908D01*
X200333907Y-140193528D01*
X200286288Y-140241147D01*
X200238669Y-140336385D01*
X200238669Y-140574480D01*
X200286288Y-140669718D01*
X200333907Y-140717337D01*
X200429146Y-140764956D01*
X200619622Y-140764956D01*
X200714860Y-140717337D01*
X200762479Y-140669718D01*
X200810098Y-140574480D01*
X201238669Y-141050670D02*
X201286288Y-141098289D01*
X201238669Y-141145908D01*
X201191050Y-141098289D01*
X201238669Y-141050670D01*
X201238669Y-141145908D01*
X202238669Y-141145908D02*
X201667241Y-141145908D01*
X201952955Y-141145908D02*
X201952955Y-140145908D01*
X201857717Y-140288766D01*
X201762479Y-140384004D01*
X201667241Y-140431623D01*
X202619622Y-140241147D02*
X202667241Y-140193528D01*
X202762479Y-140145908D01*
X203000574Y-140145908D01*
X203095812Y-140193528D01*
X203143431Y-140241147D01*
X203191050Y-140336385D01*
X203191050Y-140431623D01*
X203143431Y-140574480D01*
X202572003Y-141145908D01*
X203191050Y-141145908D01*
X203810098Y-140145908D02*
X203905336Y-140145908D01*
X204000574Y-140193528D01*
X204048193Y-140241147D01*
X204095812Y-140336385D01*
X204143431Y-140526861D01*
X204143431Y-140764956D01*
X204095812Y-140955432D01*
X204048193Y-141050670D01*
X204000574Y-141098289D01*
X203905336Y-141145908D01*
X203810098Y-141145908D01*
X203714860Y-141098289D01*
X203667241Y-141050670D01*
X203619622Y-140955432D01*
X203572003Y-140764956D01*
X203572003Y-140526861D01*
X203619622Y-140336385D01*
X203667241Y-140241147D01*
X203714860Y-140193528D01*
X203810098Y-140145908D01*
X205333907Y-141145908D02*
X205333907Y-140479242D01*
X205333907Y-140574480D02*
X205381526Y-140526861D01*
X205476765Y-140479242D01*
X205619622Y-140479242D01*
X205714860Y-140526861D01*
X205762479Y-140622099D01*
X205762479Y-141145908D01*
X205762479Y-140622099D02*
X205810098Y-140526861D01*
X205905336Y-140479242D01*
X206048193Y-140479242D01*
X206143431Y-140526861D01*
X206191050Y-140622099D01*
X206191050Y-141145908D01*
X206667241Y-141145908D02*
X206667241Y-140479242D01*
X206667241Y-140574480D02*
X206714860Y-140526861D01*
X206810098Y-140479242D01*
X206952955Y-140479242D01*
X207048193Y-140526861D01*
X207095812Y-140622099D01*
X207095812Y-141145908D01*
X207095812Y-140622099D02*
X207143431Y-140526861D01*
X207238669Y-140479242D01*
X207381526Y-140479242D01*
X207476765Y-140526861D01*
X207524384Y-140622099D01*
X207524384Y-141145908D01*
X173869353Y-141993528D02*
X232988939Y-141993528D01*
X173869354Y-148526616D02*
X173869353Y-141407107D01*
X232988939Y-148526614D02*
X232988939Y-141407107D01*
X232988939Y-141993528D02*
X231862436Y-142579949D01*
X232988939Y-141993528D02*
X231862435Y-141407107D01*
X173869353Y-141993528D02*
X174995858Y-142579950D01*
X173869353Y-141993528D02*
X174995858Y-141407107D01*
X210548628Y-131845908D02*
X211167676Y-131845908D01*
X210834343Y-132226861D01*
X210977200Y-132226861D01*
X211072438Y-132274480D01*
X211120057Y-132322099D01*
X211167676Y-132417337D01*
X211167676Y-132655432D01*
X211120057Y-132750670D01*
X211072438Y-132798289D01*
X210977200Y-132845908D01*
X210691485Y-132845908D01*
X210596247Y-132798289D01*
X210548628Y-132750670D01*
X212024819Y-131845908D02*
X211834343Y-131845908D01*
X211739105Y-131893528D01*
X211691485Y-131941147D01*
X211596247Y-132084004D01*
X211548628Y-132274480D01*
X211548628Y-132655432D01*
X211596247Y-132750670D01*
X211643866Y-132798289D01*
X211739105Y-132845908D01*
X211929581Y-132845908D01*
X212024819Y-132798289D01*
X212072438Y-132750670D01*
X212120057Y-132655432D01*
X212120057Y-132417337D01*
X212072438Y-132322099D01*
X212024819Y-132274480D01*
X211929581Y-132226861D01*
X211739105Y-132226861D01*
X211643866Y-132274480D01*
X211596247Y-132322099D01*
X211548628Y-132417337D01*
X212548628Y-132750670D02*
X212596247Y-132798289D01*
X212548628Y-132845908D01*
X212501009Y-132798289D01*
X212548628Y-132750670D01*
X212548628Y-132845908D01*
X213501009Y-131845908D02*
X213024819Y-131845908D01*
X212977200Y-132322099D01*
X213024819Y-132274480D01*
X213120057Y-132226861D01*
X213358152Y-132226861D01*
X213453390Y-132274480D01*
X213501009Y-132322099D01*
X213548628Y-132417337D01*
X213548628Y-132655432D01*
X213501009Y-132750670D01*
X213453390Y-132798289D01*
X213358152Y-132845908D01*
X213120057Y-132845908D01*
X213024819Y-132798289D01*
X212977200Y-132750670D01*
X214167676Y-131845908D02*
X214262914Y-131845908D01*
X214358152Y-131893528D01*
X214405771Y-131941147D01*
X214453390Y-132036385D01*
X214501009Y-132226861D01*
X214501009Y-132464956D01*
X214453390Y-132655432D01*
X214405771Y-132750670D01*
X214358152Y-132798289D01*
X214262914Y-132845908D01*
X214167676Y-132845908D01*
X214072438Y-132798289D01*
X214024819Y-132750670D01*
X213977200Y-132655432D01*
X213929581Y-132464956D01*
X213929581Y-132226861D01*
X213977200Y-132036385D01*
X214024819Y-131941147D01*
X214072438Y-131893528D01*
X214167676Y-131845908D01*
X215120057Y-131845908D02*
X215215295Y-131845908D01*
X215310533Y-131893528D01*
X215358152Y-131941147D01*
X215405771Y-132036385D01*
X215453390Y-132226861D01*
X215453390Y-132464956D01*
X215405771Y-132655432D01*
X215358152Y-132750670D01*
X215310533Y-132798289D01*
X215215295Y-132845908D01*
X215120057Y-132845908D01*
X215024819Y-132798289D01*
X214977200Y-132750670D01*
X214929581Y-132655432D01*
X214881962Y-132464956D01*
X214881962Y-132226861D01*
X214929581Y-132036385D01*
X214977200Y-131941147D01*
X215024819Y-131893528D01*
X215120057Y-131845908D01*
X216643866Y-132845908D02*
X216643866Y-132179242D01*
X216643866Y-132274480D02*
X216691485Y-132226861D01*
X216786724Y-132179242D01*
X216929581Y-132179242D01*
X217024819Y-132226861D01*
X217072438Y-132322099D01*
X217072438Y-132845908D01*
X217072438Y-132322099D02*
X217120057Y-132226861D01*
X217215295Y-132179242D01*
X217358152Y-132179242D01*
X217453390Y-132226861D01*
X217501009Y-132322099D01*
X217501009Y-132845908D01*
X217977200Y-132845908D02*
X217977200Y-132179242D01*
X217977200Y-132274480D02*
X218024819Y-132226861D01*
X218120057Y-132179242D01*
X218262914Y-132179242D01*
X218358152Y-132226861D01*
X218405771Y-132322099D01*
X218405771Y-132845908D01*
X218405771Y-132322099D02*
X218453390Y-132226861D01*
X218548628Y-132179242D01*
X218691485Y-132179242D01*
X218786724Y-132226861D01*
X218834343Y-132322099D01*
X218834343Y-132845908D01*
X196489272Y-131093528D02*
X232988940Y-131093528D01*
X196489272Y-129947260D02*
X196489273Y-131679949D01*
X232988940Y-129947260D02*
X232988939Y-131679950D01*
X232988940Y-131093528D02*
X231862436Y-131679950D01*
X232988940Y-131093528D02*
X231862436Y-130507107D01*
X196489272Y-131093528D02*
X197615777Y-131679948D01*
X196489272Y-131093528D02*
X197615775Y-130507107D01*
X247048474Y-131845908D02*
X247667522Y-131845908D01*
X247334189Y-132226861D01*
X247477046Y-132226861D01*
X247572284Y-132274480D01*
X247619903Y-132322099D01*
X247667522Y-132417337D01*
X247667522Y-132655432D01*
X247619903Y-132750670D01*
X247572284Y-132798289D01*
X247477046Y-132845908D01*
X247191331Y-132845908D01*
X247096093Y-132798289D01*
X247048474Y-132750670D01*
X248524665Y-131845908D02*
X248334189Y-131845908D01*
X248238951Y-131893528D01*
X248191331Y-131941147D01*
X248096093Y-132084004D01*
X248048474Y-132274480D01*
X248048474Y-132655432D01*
X248096093Y-132750670D01*
X248143712Y-132798289D01*
X248238951Y-132845908D01*
X248429427Y-132845908D01*
X248524665Y-132798289D01*
X248572284Y-132750670D01*
X248619903Y-132655432D01*
X248619903Y-132417337D01*
X248572284Y-132322099D01*
X248524665Y-132274480D01*
X248429427Y-132226861D01*
X248238951Y-132226861D01*
X248143712Y-132274480D01*
X248096093Y-132322099D01*
X248048474Y-132417337D01*
X249048474Y-132750670D02*
X249096093Y-132798289D01*
X249048474Y-132845908D01*
X249000855Y-132798289D01*
X249048474Y-132750670D01*
X249048474Y-132845908D01*
X250000855Y-131845908D02*
X249524665Y-131845908D01*
X249477046Y-132322099D01*
X249524665Y-132274480D01*
X249619903Y-132226861D01*
X249857998Y-132226861D01*
X249953236Y-132274480D01*
X250000855Y-132322099D01*
X250048474Y-132417337D01*
X250048474Y-132655432D01*
X250000855Y-132750670D01*
X249953236Y-132798289D01*
X249857998Y-132845908D01*
X249619903Y-132845908D01*
X249524665Y-132798289D01*
X249477046Y-132750670D01*
X250667522Y-131845908D02*
X250762760Y-131845908D01*
X250857998Y-131893528D01*
X250905617Y-131941147D01*
X250953236Y-132036385D01*
X251000855Y-132226861D01*
X251000855Y-132464956D01*
X250953236Y-132655432D01*
X250905617Y-132750670D01*
X250857998Y-132798289D01*
X250762760Y-132845908D01*
X250667522Y-132845908D01*
X250572284Y-132798289D01*
X250524665Y-132750670D01*
X250477046Y-132655432D01*
X250429427Y-132464956D01*
X250429427Y-132226861D01*
X250477046Y-132036385D01*
X250524665Y-131941147D01*
X250572284Y-131893528D01*
X250667522Y-131845908D01*
X251619903Y-131845908D02*
X251715141Y-131845908D01*
X251810379Y-131893528D01*
X251857998Y-131941147D01*
X251905617Y-132036385D01*
X251953236Y-132226861D01*
X251953236Y-132464956D01*
X251905617Y-132655432D01*
X251857998Y-132750670D01*
X251810379Y-132798289D01*
X251715141Y-132845908D01*
X251619903Y-132845908D01*
X251524665Y-132798289D01*
X251477046Y-132750670D01*
X251429427Y-132655432D01*
X251381808Y-132464956D01*
X251381808Y-132226861D01*
X251429427Y-132036385D01*
X251477046Y-131941147D01*
X251524665Y-131893528D01*
X251619903Y-131845908D01*
X253143712Y-132845908D02*
X253143712Y-132179242D01*
X253143712Y-132274480D02*
X253191331Y-132226861D01*
X253286570Y-132179242D01*
X253429427Y-132179242D01*
X253524665Y-132226861D01*
X253572284Y-132322099D01*
X253572284Y-132845908D01*
X253572284Y-132322099D02*
X253619903Y-132226861D01*
X253715141Y-132179242D01*
X253857998Y-132179242D01*
X253953236Y-132226861D01*
X254000855Y-132322099D01*
X254000855Y-132845908D01*
X254477046Y-132845908D02*
X254477046Y-132179242D01*
X254477046Y-132274480D02*
X254524665Y-132226861D01*
X254619903Y-132179242D01*
X254762760Y-132179242D01*
X254857998Y-132226861D01*
X254905617Y-132322099D01*
X254905617Y-132845908D01*
X254905617Y-132322099D02*
X254953236Y-132226861D01*
X255048474Y-132179242D01*
X255191331Y-132179242D01*
X255286570Y-132226861D01*
X255334189Y-132322099D01*
X255334189Y-132845908D01*
X269488963Y-131093528D02*
X232988940Y-131093528D01*
X269488964Y-129989834D02*
X269488963Y-131679948D01*
X232988939Y-129989833D02*
X232988939Y-131679950D01*
X232988940Y-131093528D02*
X234115442Y-130507107D01*
X232988940Y-131093528D02*
X234115443Y-131679949D01*
X269488963Y-131093528D02*
X268362460Y-130507107D01*
X269488963Y-131093528D02*
X268362459Y-131679949D01*
X210298569Y-134545908D02*
X210917617Y-134545908D01*
X210584284Y-134926861D01*
X210727141Y-134926861D01*
X210822379Y-134974480D01*
X210869998Y-135022099D01*
X210917617Y-135117337D01*
X210917617Y-135355432D01*
X210869998Y-135450670D01*
X210822379Y-135498289D01*
X210727141Y-135545908D01*
X210441426Y-135545908D01*
X210346188Y-135498289D01*
X210298569Y-135450670D01*
X211250950Y-134545908D02*
X211917617Y-134545908D01*
X211489046Y-135545908D01*
X212298569Y-135450670D02*
X212346188Y-135498289D01*
X212298569Y-135545908D01*
X212250950Y-135498289D01*
X212298569Y-135450670D01*
X212298569Y-135545908D01*
X212965236Y-134545908D02*
X213060474Y-134545908D01*
X213155712Y-134593528D01*
X213203331Y-134641147D01*
X213250950Y-134736385D01*
X213298569Y-134926861D01*
X213298569Y-135164956D01*
X213250950Y-135355432D01*
X213203331Y-135450670D01*
X213155712Y-135498289D01*
X213060474Y-135545908D01*
X212965236Y-135545908D01*
X212869998Y-135498289D01*
X212822379Y-135450670D01*
X212774760Y-135355432D01*
X212727141Y-135164956D01*
X212727141Y-134926861D01*
X212774760Y-134736385D01*
X212822379Y-134641147D01*
X212869998Y-134593528D01*
X212965236Y-134545908D01*
X213917617Y-134545908D02*
X214012855Y-134545908D01*
X214108093Y-134593528D01*
X214155712Y-134641147D01*
X214203331Y-134736385D01*
X214250950Y-134926861D01*
X214250950Y-135164956D01*
X214203331Y-135355432D01*
X214155712Y-135450670D01*
X214108093Y-135498289D01*
X214012855Y-135545908D01*
X213917617Y-135545908D01*
X213822379Y-135498289D01*
X213774760Y-135450670D01*
X213727141Y-135355432D01*
X213679522Y-135164956D01*
X213679522Y-134926861D01*
X213727141Y-134736385D01*
X213774760Y-134641147D01*
X213822379Y-134593528D01*
X213917617Y-134545908D01*
X214869998Y-134545908D02*
X214965236Y-134545908D01*
X215060474Y-134593528D01*
X215108093Y-134641147D01*
X215155712Y-134736385D01*
X215203331Y-134926861D01*
X215203331Y-135164956D01*
X215155712Y-135355432D01*
X215108093Y-135450670D01*
X215060474Y-135498289D01*
X214965236Y-135545908D01*
X214869998Y-135545908D01*
X214774760Y-135498289D01*
X214727141Y-135450670D01*
X214679522Y-135355432D01*
X214631903Y-135164956D01*
X214631903Y-134926861D01*
X214679522Y-134736385D01*
X214727141Y-134641147D01*
X214774760Y-134593528D01*
X214869998Y-134545908D01*
X216393807Y-135545908D02*
X216393807Y-134879242D01*
X216393807Y-134974480D02*
X216441426Y-134926861D01*
X216536665Y-134879242D01*
X216679522Y-134879242D01*
X216774760Y-134926861D01*
X216822379Y-135022099D01*
X216822379Y-135545908D01*
X216822379Y-135022099D02*
X216869998Y-134926861D01*
X216965236Y-134879242D01*
X217108093Y-134879242D01*
X217203331Y-134926861D01*
X217250950Y-135022099D01*
X217250950Y-135545908D01*
X217727141Y-135545908D02*
X217727141Y-134879242D01*
X217727141Y-134974480D02*
X217774760Y-134926861D01*
X217869998Y-134879242D01*
X218012855Y-134879242D01*
X218108093Y-134926861D01*
X218155712Y-135022099D01*
X218155712Y-135545908D01*
X218155712Y-135022099D02*
X218203331Y-134926861D01*
X218298569Y-134879242D01*
X218441426Y-134879242D01*
X218536665Y-134926861D01*
X218584284Y-135022099D01*
X218584284Y-135545908D01*
X195989152Y-136393527D02*
X232988940Y-136393528D01*
X195989152Y-153130320D02*
X195989152Y-135807106D01*
X232988939Y-153130319D02*
X232988940Y-135807107D01*
X232988940Y-136393528D02*
X231862435Y-136979949D01*
X232988940Y-136393528D02*
X231862434Y-135807107D01*
X195989152Y-136393527D02*
X197115657Y-136979950D01*
X195989152Y-136393527D02*
X197115656Y-135807108D01*
X247298574Y-134545908D02*
X247917622Y-134545908D01*
X247584289Y-134926861D01*
X247727146Y-134926861D01*
X247822384Y-134974480D01*
X247870003Y-135022099D01*
X247917622Y-135117337D01*
X247917622Y-135355432D01*
X247870003Y-135450670D01*
X247822384Y-135498289D01*
X247727146Y-135545908D01*
X247441431Y-135545908D01*
X247346193Y-135498289D01*
X247298574Y-135450670D01*
X248250955Y-134545908D02*
X248917622Y-134545908D01*
X248489051Y-135545908D01*
X249298574Y-135450670D02*
X249346193Y-135498289D01*
X249298574Y-135545908D01*
X249250955Y-135498289D01*
X249298574Y-135450670D01*
X249298574Y-135545908D01*
X249965241Y-134545908D02*
X250060479Y-134545908D01*
X250155717Y-134593528D01*
X250203336Y-134641147D01*
X250250955Y-134736385D01*
X250298574Y-134926861D01*
X250298574Y-135164956D01*
X250250955Y-135355432D01*
X250203336Y-135450670D01*
X250155717Y-135498289D01*
X250060479Y-135545908D01*
X249965241Y-135545908D01*
X249870003Y-135498289D01*
X249822384Y-135450670D01*
X249774765Y-135355432D01*
X249727146Y-135164956D01*
X249727146Y-134926861D01*
X249774765Y-134736385D01*
X249822384Y-134641147D01*
X249870003Y-134593528D01*
X249965241Y-134545908D01*
X250917622Y-134545908D02*
X251012860Y-134545908D01*
X251108098Y-134593528D01*
X251155717Y-134641147D01*
X251203336Y-134736385D01*
X251250955Y-134926861D01*
X251250955Y-135164956D01*
X251203336Y-135355432D01*
X251155717Y-135450670D01*
X251108098Y-135498289D01*
X251012860Y-135545908D01*
X250917622Y-135545908D01*
X250822384Y-135498289D01*
X250774765Y-135450670D01*
X250727146Y-135355432D01*
X250679527Y-135164956D01*
X250679527Y-134926861D01*
X250727146Y-134736385D01*
X250774765Y-134641147D01*
X250822384Y-134593528D01*
X250917622Y-134545908D01*
X251870003Y-134545908D02*
X251965241Y-134545908D01*
X252060479Y-134593528D01*
X252108098Y-134641147D01*
X252155717Y-134736385D01*
X252203336Y-134926861D01*
X252203336Y-135164956D01*
X252155717Y-135355432D01*
X252108098Y-135450670D01*
X252060479Y-135498289D01*
X251965241Y-135545908D01*
X251870003Y-135545908D01*
X251774765Y-135498289D01*
X251727146Y-135450670D01*
X251679527Y-135355432D01*
X251631908Y-135164956D01*
X251631908Y-134926861D01*
X251679527Y-134736385D01*
X251727146Y-134641147D01*
X251774765Y-134593528D01*
X251870003Y-134545908D01*
X253393812Y-135545908D02*
X253393812Y-134879242D01*
X253393812Y-134974480D02*
X253441431Y-134926861D01*
X253536670Y-134879242D01*
X253679527Y-134879242D01*
X253774765Y-134926861D01*
X253822384Y-135022099D01*
X253822384Y-135545908D01*
X253822384Y-135022099D02*
X253870003Y-134926861D01*
X253965241Y-134879242D01*
X254108098Y-134879242D01*
X254203336Y-134926861D01*
X254250955Y-135022099D01*
X254250955Y-135545908D01*
X254727146Y-135545908D02*
X254727146Y-134879242D01*
X254727146Y-134974480D02*
X254774765Y-134926861D01*
X254870003Y-134879242D01*
X255012860Y-134879242D01*
X255108098Y-134926861D01*
X255155717Y-135022099D01*
X255155717Y-135545908D01*
X255155717Y-135022099D02*
X255203336Y-134926861D01*
X255298574Y-134879242D01*
X255441431Y-134879242D01*
X255536670Y-134926861D01*
X255584289Y-135022099D01*
X255584289Y-135545908D01*
X269989162Y-136393528D02*
X232988940Y-136393528D01*
X269989162Y-153132336D02*
X269989163Y-135807107D01*
X232988940Y-153132335D02*
X232988940Y-135807107D01*
X232988940Y-136393528D02*
X234115443Y-135807107D01*
X232988940Y-136393528D02*
X234115443Y-136979948D01*
X269989162Y-136393528D02*
X268862657Y-135807108D01*
X269989162Y-136393528D02*
X268862658Y-136979949D01*
X275049254Y-196303847D02*
X275049255Y-261303848D01*
X238049254Y-196303846D02*
X275049254Y-196303847D01*
X238049254Y-261303846D02*
X238049254Y-196303846D01*
X275049255Y-261303848D02*
X238049254Y-261303846D01*
X201302733Y-247401202D02*
X235302734Y-247401202D01*
X235302734Y-247401202D02*
X235302733Y-196401203D01*
X235302733Y-196401203D02*
X201302732Y-196401203D01*
X201302732Y-196401203D02*
X201302733Y-247401202D01*
X160330241Y-196274341D02*
X197330241Y-196274342D01*
X197330241Y-196274342D02*
X197330242Y-223274342D01*
X197330242Y-223274342D02*
X160330241Y-223274341D01*
X160330241Y-223274341D02*
X160330241Y-196274341D01*
X243788094Y-103541147D02*
X243835713Y-103493528D01*
X243930952Y-103445908D01*
X244169047Y-103445908D01*
X244264285Y-103493528D01*
X244311904Y-103541147D01*
X244359523Y-103636385D01*
X244359523Y-103731623D01*
X244311904Y-103874480D01*
X243740475Y-104445908D01*
X244359523Y-104445908D01*
X244835713Y-104445908D02*
X245026190Y-104445908D01*
X245121428Y-104398289D01*
X245169047Y-104350670D01*
X245264285Y-104207813D01*
X245311904Y-104017337D01*
X245311904Y-103636385D01*
X245264285Y-103541147D01*
X245216666Y-103493528D01*
X245121428Y-103445908D01*
X244930952Y-103445908D01*
X244835713Y-103493528D01*
X244788094Y-103541147D01*
X244740475Y-103636385D01*
X244740475Y-103874480D01*
X244788094Y-103969718D01*
X244835713Y-104017337D01*
X244930952Y-104064956D01*
X245121428Y-104064956D01*
X245216666Y-104017337D01*
X245264285Y-103969718D01*
X245311904Y-103874480D01*
X245740475Y-104350670D02*
X245788094Y-104398289D01*
X245740475Y-104445908D01*
X245692856Y-104398289D01*
X245740475Y-104350670D01*
X245740475Y-104445908D01*
X246359523Y-103874480D02*
X246264285Y-103826861D01*
X246216666Y-103779242D01*
X246169047Y-103684004D01*
X246169047Y-103636385D01*
X246216666Y-103541147D01*
X246264285Y-103493528D01*
X246359523Y-103445908D01*
X246549999Y-103445908D01*
X246645237Y-103493528D01*
X246692856Y-103541147D01*
X246740475Y-103636385D01*
X246740475Y-103684004D01*
X246692856Y-103779242D01*
X246645237Y-103826861D01*
X246549999Y-103874480D01*
X246359523Y-103874480D01*
X246264285Y-103922099D01*
X246216666Y-103969718D01*
X246169047Y-104064956D01*
X246169047Y-104255432D01*
X246216666Y-104350670D01*
X246264285Y-104398289D01*
X246359523Y-104445908D01*
X246549999Y-104445908D01*
X246645237Y-104398289D01*
X246692856Y-104350670D01*
X246740475Y-104255432D01*
X246740475Y-104064956D01*
X246692856Y-103969718D01*
X246645237Y-103922099D01*
X246549999Y-103874480D01*
X247311904Y-103874480D02*
X247216666Y-103826861D01*
X247169047Y-103779242D01*
X247121428Y-103684004D01*
X247121428Y-103636385D01*
X247169047Y-103541147D01*
X247216666Y-103493528D01*
X247311904Y-103445908D01*
X247502380Y-103445908D01*
X247597618Y-103493528D01*
X247645237Y-103541147D01*
X247692856Y-103636385D01*
X247692856Y-103684004D01*
X247645237Y-103779242D01*
X247597618Y-103826861D01*
X247502380Y-103874480D01*
X247311904Y-103874480D01*
X247216666Y-103922099D01*
X247169047Y-103969718D01*
X247121428Y-104064956D01*
X247121428Y-104255432D01*
X247169047Y-104350670D01*
X247216666Y-104398289D01*
X247311904Y-104445908D01*
X247502380Y-104445908D01*
X247597618Y-104398289D01*
X247645237Y-104350670D01*
X247692856Y-104255432D01*
X247692856Y-104064956D01*
X247645237Y-103969718D01*
X247597618Y-103922099D01*
X247502380Y-103874480D01*
X248549999Y-103779242D02*
X248549999Y-104445908D01*
X248311904Y-103398289D02*
X248073809Y-104112575D01*
X248692856Y-104112575D01*
X249835713Y-104445908D02*
X249835713Y-103779242D01*
X249835713Y-103874480D02*
X249883332Y-103826861D01*
X249978571Y-103779242D01*
X250121428Y-103779242D01*
X250216666Y-103826861D01*
X250264285Y-103922099D01*
X250264285Y-104445908D01*
X250264285Y-103922099D02*
X250311904Y-103826861D01*
X250407142Y-103779242D01*
X250549999Y-103779242D01*
X250645237Y-103826861D01*
X250692856Y-103922099D01*
X250692856Y-104445908D01*
X251169047Y-104445908D02*
X251169047Y-103779242D01*
X251169047Y-103874480D02*
X251216666Y-103826861D01*
X251311904Y-103779242D01*
X251454761Y-103779242D01*
X251549999Y-103826861D01*
X251597618Y-103922099D01*
X251597618Y-104445908D01*
X251597618Y-103922099D02*
X251645237Y-103826861D01*
X251740475Y-103779242D01*
X251883332Y-103779242D01*
X251978571Y-103826861D01*
X252026190Y-103922099D01*
X252026190Y-104445908D01*
X262872969Y-102693528D02*
X232988939Y-102693527D01*
X262872968Y-92468659D02*
X262872969Y-103279950D01*
X232988939Y-92468659D02*
X232988939Y-103279948D01*
X232988939Y-102693527D02*
X234115445Y-102107107D01*
X232988939Y-102693527D02*
X234115443Y-103279949D01*
X262872969Y-102693528D02*
X261746464Y-102107107D01*
X262872969Y-102693528D02*
X261746465Y-103279948D01*
M02*
