G04 #@! TF.GenerationSoftware,KiCad,Pcbnew,(6.0.0-rc1-dev-1469-g932b9a334)*
G04 #@! TF.CreationDate,2019-09-07T17:34:57-07:00
G04 #@! TF.ProjectId,Laptreus-v2,4c617074-7265-4757-932d-76322e6b6963,rev?*
G04 #@! TF.SameCoordinates,Original*
G04 #@! TF.FileFunction,Drawing*
%FSLAX46Y46*%
G04 Gerber Fmt 4.6, Leading zero omitted, Abs format (unit mm)*
G04 Created by KiCad (PCBNEW (6.0.0-rc1-dev-1469-g932b9a334)) date Saturday, September 07, 2019 at 05:34:57 PM*
%MOMM*%
%LPD*%
G04 APERTURE LIST*
%ADD10C,0.150000*%
%ADD11C,0.100000*%
G04 APERTURE END LIST*
D10*
X232988940Y-71493528D02*
X232988940Y-172993527D01*
D11*
G04 #@! TO.C,BOARD1*
X232999645Y-118895053D02*
X90349645Y-118895053D01*
X232999645Y-119095053D02*
X232999645Y-71645053D01*
D10*
X357299645Y-69995053D02*
X357299645Y-73145053D01*
D11*
X115449645Y-99495053D02*
X115449645Y-118895053D01*
X115449645Y-99495053D02*
X90349645Y-99495053D01*
X115449645Y-99495053D02*
X115449645Y-71445053D01*
X184999645Y-156795053D02*
X184999645Y-166345053D01*
X115449645Y-156795053D02*
X115449645Y-166345053D01*
X115469645Y-156795053D02*
X90369645Y-156795053D01*
X350299645Y-156795053D02*
X350299645Y-166345053D01*
X350299645Y-156795053D02*
X375649645Y-156795053D01*
X350299645Y-99495053D02*
X375649645Y-99495053D01*
X350299645Y-99495053D02*
X350299645Y-71445053D01*
X232999645Y-118895053D02*
X247299645Y-118895053D01*
X350299645Y-156795053D02*
X350299645Y-118895053D01*
X344999645Y-118895053D02*
X350299645Y-118895053D01*
X347750809Y-118895053D02*
G75*
G03X347750809Y-118895053I-2750164J0D01*
G01*
X247299645Y-118895053D02*
X344999645Y-118895053D01*
X344999645Y-118895053D02*
X344999645Y-117895053D01*
X344999645Y-118895053D02*
X344999645Y-119895053D01*
X350299645Y-118895053D02*
X350299645Y-99495053D01*
X232989645Y-118895053D02*
X232989645Y-166345053D01*
D10*
G04 #@! TO.C,J1*
X361769645Y-69795053D02*
X352829645Y-69795053D01*
X361769645Y-69795053D02*
X361769645Y-77095053D01*
X352829645Y-69795053D02*
X352829645Y-77095053D01*
X361769645Y-77095053D02*
X352829645Y-77095053D01*
G04 #@! TD*
G04 #@! TO.C,BOARD1*
X216759168Y-121147433D02*
X216187740Y-121147433D01*
X216473454Y-121147433D02*
X216473454Y-120147433D01*
X216378216Y-120290291D01*
X216282978Y-120385529D01*
X216187740Y-120433148D01*
X217616311Y-120480767D02*
X217616311Y-121147433D01*
X217378216Y-120099814D02*
X217140121Y-120814100D01*
X217759168Y-120814100D01*
X218092502Y-120242672D02*
X218140121Y-120195053D01*
X218235359Y-120147433D01*
X218473454Y-120147433D01*
X218568692Y-120195053D01*
X218616311Y-120242672D01*
X218663930Y-120337910D01*
X218663930Y-120433148D01*
X218616311Y-120576005D01*
X218044883Y-121147433D01*
X218663930Y-121147433D01*
X219092502Y-121052195D02*
X219140121Y-121099814D01*
X219092502Y-121147433D01*
X219044883Y-121099814D01*
X219092502Y-121052195D01*
X219092502Y-121147433D01*
X219997264Y-120147433D02*
X219806787Y-120147433D01*
X219711549Y-120195053D01*
X219663930Y-120242672D01*
X219568692Y-120385529D01*
X219521073Y-120576005D01*
X219521073Y-120956957D01*
X219568692Y-121052195D01*
X219616311Y-121099814D01*
X219711549Y-121147433D01*
X219902025Y-121147433D01*
X219997264Y-121099814D01*
X220044883Y-121052195D01*
X220092502Y-120956957D01*
X220092502Y-120718862D01*
X220044883Y-120623624D01*
X219997264Y-120576005D01*
X219902025Y-120528386D01*
X219711549Y-120528386D01*
X219616311Y-120576005D01*
X219568692Y-120623624D01*
X219521073Y-120718862D01*
X220997264Y-120147433D02*
X220521073Y-120147433D01*
X220473454Y-120623624D01*
X220521073Y-120576005D01*
X220616311Y-120528386D01*
X220854406Y-120528386D01*
X220949645Y-120576005D01*
X220997264Y-120623624D01*
X221044883Y-120718862D01*
X221044883Y-120956957D01*
X220997264Y-121052195D01*
X220949645Y-121099814D01*
X220854406Y-121147433D01*
X220616311Y-121147433D01*
X220521073Y-121099814D01*
X220473454Y-121052195D01*
X221473454Y-121147433D02*
X221473454Y-120480767D01*
X221473454Y-120576005D02*
X221521073Y-120528386D01*
X221616311Y-120480767D01*
X221759168Y-120480767D01*
X221854406Y-120528386D01*
X221902025Y-120623624D01*
X221902025Y-121147433D01*
X221902025Y-120623624D02*
X221949645Y-120528386D01*
X222044883Y-120480767D01*
X222187740Y-120480767D01*
X222282978Y-120528386D01*
X222330597Y-120623624D01*
X222330597Y-121147433D01*
X222806787Y-121147433D02*
X222806787Y-120480767D01*
X222806787Y-120576005D02*
X222854406Y-120528386D01*
X222949645Y-120480767D01*
X223092502Y-120480767D01*
X223187740Y-120528386D01*
X223235359Y-120623624D01*
X223235359Y-121147433D01*
X223235359Y-120623624D02*
X223282978Y-120528386D01*
X223378216Y-120480767D01*
X223521073Y-120480767D01*
X223616311Y-120528386D01*
X223663930Y-120623624D01*
X223663930Y-121147433D01*
X114972025Y-112723148D02*
X114972025Y-113294576D01*
X114972025Y-113008862D02*
X113972025Y-113008862D01*
X114114883Y-113104100D01*
X114210121Y-113199338D01*
X114257740Y-113294576D01*
X114972025Y-112246957D02*
X114972025Y-112056481D01*
X114924406Y-111961243D01*
X114876787Y-111913624D01*
X114733930Y-111818386D01*
X114543454Y-111770767D01*
X114162502Y-111770767D01*
X114067264Y-111818386D01*
X114019645Y-111866005D01*
X113972025Y-111961243D01*
X113972025Y-112151719D01*
X114019645Y-112246957D01*
X114067264Y-112294576D01*
X114162502Y-112342195D01*
X114400597Y-112342195D01*
X114495835Y-112294576D01*
X114543454Y-112246957D01*
X114591073Y-112151719D01*
X114591073Y-111961243D01*
X114543454Y-111866005D01*
X114495835Y-111818386D01*
X114400597Y-111770767D01*
X114876787Y-111342195D02*
X114924406Y-111294576D01*
X114972025Y-111342195D01*
X114924406Y-111389814D01*
X114876787Y-111342195D01*
X114972025Y-111342195D01*
X114305359Y-110437433D02*
X114972025Y-110437433D01*
X113924406Y-110675529D02*
X114638692Y-110913624D01*
X114638692Y-110294576D01*
X114972025Y-109913624D02*
X114305359Y-109913624D01*
X114400597Y-109913624D02*
X114352978Y-109866005D01*
X114305359Y-109770767D01*
X114305359Y-109627910D01*
X114352978Y-109532672D01*
X114448216Y-109485053D01*
X114972025Y-109485053D01*
X114448216Y-109485053D02*
X114352978Y-109437433D01*
X114305359Y-109342195D01*
X114305359Y-109199338D01*
X114352978Y-109104100D01*
X114448216Y-109056481D01*
X114972025Y-109056481D01*
X114972025Y-108580291D02*
X114305359Y-108580291D01*
X114400597Y-108580291D02*
X114352978Y-108532672D01*
X114305359Y-108437433D01*
X114305359Y-108294576D01*
X114352978Y-108199338D01*
X114448216Y-108151719D01*
X114972025Y-108151719D01*
X114448216Y-108151719D02*
X114352978Y-108104100D01*
X114305359Y-108008862D01*
X114305359Y-107866005D01*
X114352978Y-107770767D01*
X114448216Y-107723148D01*
X114972025Y-107723148D01*
X101800121Y-97852672D02*
X101847740Y-97805053D01*
X101942978Y-97757433D01*
X102181073Y-97757433D01*
X102276311Y-97805053D01*
X102323930Y-97852672D01*
X102371549Y-97947910D01*
X102371549Y-98043148D01*
X102323930Y-98186005D01*
X101752502Y-98757433D01*
X102371549Y-98757433D01*
X103276311Y-97757433D02*
X102800121Y-97757433D01*
X102752502Y-98233624D01*
X102800121Y-98186005D01*
X102895359Y-98138386D01*
X103133454Y-98138386D01*
X103228692Y-98186005D01*
X103276311Y-98233624D01*
X103323930Y-98328862D01*
X103323930Y-98566957D01*
X103276311Y-98662195D01*
X103228692Y-98709814D01*
X103133454Y-98757433D01*
X102895359Y-98757433D01*
X102800121Y-98709814D01*
X102752502Y-98662195D01*
X103752502Y-98662195D02*
X103800121Y-98709814D01*
X103752502Y-98757433D01*
X103704883Y-98709814D01*
X103752502Y-98662195D01*
X103752502Y-98757433D01*
X104752502Y-98757433D02*
X104181073Y-98757433D01*
X104466787Y-98757433D02*
X104466787Y-97757433D01*
X104371549Y-97900291D01*
X104276311Y-97995529D01*
X104181073Y-98043148D01*
X105181073Y-98757433D02*
X105181073Y-98090767D01*
X105181073Y-98186005D02*
X105228692Y-98138386D01*
X105323930Y-98090767D01*
X105466787Y-98090767D01*
X105562025Y-98138386D01*
X105609645Y-98233624D01*
X105609645Y-98757433D01*
X105609645Y-98233624D02*
X105657264Y-98138386D01*
X105752502Y-98090767D01*
X105895359Y-98090767D01*
X105990597Y-98138386D01*
X106038216Y-98233624D01*
X106038216Y-98757433D01*
X106514406Y-98757433D02*
X106514406Y-98090767D01*
X106514406Y-98186005D02*
X106562025Y-98138386D01*
X106657264Y-98090767D01*
X106800121Y-98090767D01*
X106895359Y-98138386D01*
X106942978Y-98233624D01*
X106942978Y-98757433D01*
X106942978Y-98233624D02*
X106990597Y-98138386D01*
X107085835Y-98090767D01*
X107228692Y-98090767D01*
X107323930Y-98138386D01*
X107371549Y-98233624D01*
X107371549Y-98757433D01*
X114077264Y-87696957D02*
X114029645Y-87649338D01*
X113982025Y-87554100D01*
X113982025Y-87316005D01*
X114029645Y-87220767D01*
X114077264Y-87173148D01*
X114172502Y-87125529D01*
X114267740Y-87125529D01*
X114410597Y-87173148D01*
X114982025Y-87744576D01*
X114982025Y-87125529D01*
X114410597Y-86554100D02*
X114362978Y-86649338D01*
X114315359Y-86696957D01*
X114220121Y-86744576D01*
X114172502Y-86744576D01*
X114077264Y-86696957D01*
X114029645Y-86649338D01*
X113982025Y-86554100D01*
X113982025Y-86363624D01*
X114029645Y-86268386D01*
X114077264Y-86220767D01*
X114172502Y-86173148D01*
X114220121Y-86173148D01*
X114315359Y-86220767D01*
X114362978Y-86268386D01*
X114410597Y-86363624D01*
X114410597Y-86554100D01*
X114458216Y-86649338D01*
X114505835Y-86696957D01*
X114601073Y-86744576D01*
X114791549Y-86744576D01*
X114886787Y-86696957D01*
X114934406Y-86649338D01*
X114982025Y-86554100D01*
X114982025Y-86363624D01*
X114934406Y-86268386D01*
X114886787Y-86220767D01*
X114791549Y-86173148D01*
X114601073Y-86173148D01*
X114505835Y-86220767D01*
X114458216Y-86268386D01*
X114410597Y-86363624D01*
X114886787Y-85744576D02*
X114934406Y-85696957D01*
X114982025Y-85744576D01*
X114934406Y-85792195D01*
X114886787Y-85744576D01*
X114982025Y-85744576D01*
X113982025Y-85077910D02*
X113982025Y-84982672D01*
X114029645Y-84887433D01*
X114077264Y-84839814D01*
X114172502Y-84792195D01*
X114362978Y-84744576D01*
X114601073Y-84744576D01*
X114791549Y-84792195D01*
X114886787Y-84839814D01*
X114934406Y-84887433D01*
X114982025Y-84982672D01*
X114982025Y-85077910D01*
X114934406Y-85173148D01*
X114886787Y-85220767D01*
X114791549Y-85268386D01*
X114601073Y-85316005D01*
X114362978Y-85316005D01*
X114172502Y-85268386D01*
X114077264Y-85220767D01*
X114029645Y-85173148D01*
X113982025Y-85077910D01*
X113982025Y-83839814D02*
X113982025Y-84316005D01*
X114458216Y-84363624D01*
X114410597Y-84316005D01*
X114362978Y-84220767D01*
X114362978Y-83982672D01*
X114410597Y-83887433D01*
X114458216Y-83839814D01*
X114553454Y-83792195D01*
X114791549Y-83792195D01*
X114886787Y-83839814D01*
X114934406Y-83887433D01*
X114982025Y-83982672D01*
X114982025Y-84220767D01*
X114934406Y-84316005D01*
X114886787Y-84363624D01*
X113982025Y-83173148D02*
X113982025Y-83077910D01*
X114029645Y-82982672D01*
X114077264Y-82935053D01*
X114172502Y-82887433D01*
X114362978Y-82839814D01*
X114601073Y-82839814D01*
X114791549Y-82887433D01*
X114886787Y-82935053D01*
X114934406Y-82982672D01*
X114982025Y-83077910D01*
X114982025Y-83173148D01*
X114934406Y-83268386D01*
X114886787Y-83316005D01*
X114791549Y-83363624D01*
X114601073Y-83411243D01*
X114362978Y-83411243D01*
X114172502Y-83363624D01*
X114077264Y-83316005D01*
X114029645Y-83268386D01*
X113982025Y-83173148D01*
X114982025Y-82411243D02*
X114315359Y-82411243D01*
X114410597Y-82411243D02*
X114362978Y-82363624D01*
X114315359Y-82268386D01*
X114315359Y-82125529D01*
X114362978Y-82030291D01*
X114458216Y-81982672D01*
X114982025Y-81982672D01*
X114458216Y-81982672D02*
X114362978Y-81935053D01*
X114315359Y-81839814D01*
X114315359Y-81696957D01*
X114362978Y-81601719D01*
X114458216Y-81554100D01*
X114982025Y-81554100D01*
X114982025Y-81077910D02*
X114315359Y-81077910D01*
X114410597Y-81077910D02*
X114362978Y-81030291D01*
X114315359Y-80935053D01*
X114315359Y-80792195D01*
X114362978Y-80696957D01*
X114458216Y-80649338D01*
X114982025Y-80649338D01*
X114458216Y-80649338D02*
X114362978Y-80601719D01*
X114315359Y-80506481D01*
X114315359Y-80363624D01*
X114362978Y-80268386D01*
X114458216Y-80220767D01*
X114982025Y-80220767D01*
X186482025Y-165549338D02*
X186482025Y-165358862D01*
X186434406Y-165263624D01*
X186386787Y-165216005D01*
X186243930Y-165120767D01*
X186053454Y-165073148D01*
X185672502Y-165073148D01*
X185577264Y-165120767D01*
X185529645Y-165168386D01*
X185482025Y-165263624D01*
X185482025Y-165454100D01*
X185529645Y-165549338D01*
X185577264Y-165596957D01*
X185672502Y-165644576D01*
X185910597Y-165644576D01*
X186005835Y-165596957D01*
X186053454Y-165549338D01*
X186101073Y-165454100D01*
X186101073Y-165263624D01*
X186053454Y-165168386D01*
X186005835Y-165120767D01*
X185910597Y-165073148D01*
X186386787Y-164644576D02*
X186434406Y-164596957D01*
X186482025Y-164644576D01*
X186434406Y-164692195D01*
X186386787Y-164644576D01*
X186482025Y-164644576D01*
X185482025Y-163692195D02*
X185482025Y-164168386D01*
X185958216Y-164216005D01*
X185910597Y-164168386D01*
X185862978Y-164073148D01*
X185862978Y-163835053D01*
X185910597Y-163739814D01*
X185958216Y-163692195D01*
X186053454Y-163644576D01*
X186291549Y-163644576D01*
X186386787Y-163692195D01*
X186434406Y-163739814D01*
X186482025Y-163835053D01*
X186482025Y-164073148D01*
X186434406Y-164168386D01*
X186386787Y-164216005D01*
X185482025Y-162739814D02*
X185482025Y-163216005D01*
X185958216Y-163263624D01*
X185910597Y-163216005D01*
X185862978Y-163120767D01*
X185862978Y-162882672D01*
X185910597Y-162787433D01*
X185958216Y-162739814D01*
X186053454Y-162692195D01*
X186291549Y-162692195D01*
X186386787Y-162739814D01*
X186434406Y-162787433D01*
X186482025Y-162882672D01*
X186482025Y-163120767D01*
X186434406Y-163216005D01*
X186386787Y-163263624D01*
X186482025Y-162263624D02*
X185815359Y-162263624D01*
X185910597Y-162263624D02*
X185862978Y-162216005D01*
X185815359Y-162120767D01*
X185815359Y-161977910D01*
X185862978Y-161882672D01*
X185958216Y-161835053D01*
X186482025Y-161835053D01*
X185958216Y-161835053D02*
X185862978Y-161787433D01*
X185815359Y-161692195D01*
X185815359Y-161549338D01*
X185862978Y-161454100D01*
X185958216Y-161406481D01*
X186482025Y-161406481D01*
X186482025Y-160930291D02*
X185815359Y-160930291D01*
X185910597Y-160930291D02*
X185862978Y-160882672D01*
X185815359Y-160787433D01*
X185815359Y-160644576D01*
X185862978Y-160549338D01*
X185958216Y-160501719D01*
X186482025Y-160501719D01*
X185958216Y-160501719D02*
X185862978Y-160454100D01*
X185815359Y-160358862D01*
X185815359Y-160216005D01*
X185862978Y-160120767D01*
X185958216Y-160073148D01*
X186482025Y-160073148D01*
X116932025Y-165549338D02*
X116932025Y-165358862D01*
X116884406Y-165263624D01*
X116836787Y-165216005D01*
X116693930Y-165120767D01*
X116503454Y-165073148D01*
X116122502Y-165073148D01*
X116027264Y-165120767D01*
X115979645Y-165168386D01*
X115932025Y-165263624D01*
X115932025Y-165454100D01*
X115979645Y-165549338D01*
X116027264Y-165596957D01*
X116122502Y-165644576D01*
X116360597Y-165644576D01*
X116455835Y-165596957D01*
X116503454Y-165549338D01*
X116551073Y-165454100D01*
X116551073Y-165263624D01*
X116503454Y-165168386D01*
X116455835Y-165120767D01*
X116360597Y-165073148D01*
X116836787Y-164644576D02*
X116884406Y-164596957D01*
X116932025Y-164644576D01*
X116884406Y-164692195D01*
X116836787Y-164644576D01*
X116932025Y-164644576D01*
X115932025Y-163692195D02*
X115932025Y-164168386D01*
X116408216Y-164216005D01*
X116360597Y-164168386D01*
X116312978Y-164073148D01*
X116312978Y-163835053D01*
X116360597Y-163739814D01*
X116408216Y-163692195D01*
X116503454Y-163644576D01*
X116741549Y-163644576D01*
X116836787Y-163692195D01*
X116884406Y-163739814D01*
X116932025Y-163835053D01*
X116932025Y-164073148D01*
X116884406Y-164168386D01*
X116836787Y-164216005D01*
X115932025Y-162739814D02*
X115932025Y-163216005D01*
X116408216Y-163263624D01*
X116360597Y-163216005D01*
X116312978Y-163120767D01*
X116312978Y-162882672D01*
X116360597Y-162787433D01*
X116408216Y-162739814D01*
X116503454Y-162692195D01*
X116741549Y-162692195D01*
X116836787Y-162739814D01*
X116884406Y-162787433D01*
X116932025Y-162882672D01*
X116932025Y-163120767D01*
X116884406Y-163216005D01*
X116836787Y-163263624D01*
X116932025Y-162263624D02*
X116265359Y-162263624D01*
X116360597Y-162263624D02*
X116312978Y-162216005D01*
X116265359Y-162120767D01*
X116265359Y-161977910D01*
X116312978Y-161882672D01*
X116408216Y-161835053D01*
X116932025Y-161835053D01*
X116408216Y-161835053D02*
X116312978Y-161787433D01*
X116265359Y-161692195D01*
X116265359Y-161549338D01*
X116312978Y-161454100D01*
X116408216Y-161406481D01*
X116932025Y-161406481D01*
X116932025Y-160930291D02*
X116265359Y-160930291D01*
X116360597Y-160930291D02*
X116312978Y-160882672D01*
X116265359Y-160787433D01*
X116265359Y-160644576D01*
X116312978Y-160549338D01*
X116408216Y-160501719D01*
X116932025Y-160501719D01*
X116408216Y-160501719D02*
X116312978Y-160454100D01*
X116265359Y-160358862D01*
X116265359Y-160216005D01*
X116312978Y-160120767D01*
X116408216Y-160073148D01*
X116932025Y-160073148D01*
X101800121Y-155162672D02*
X101847740Y-155115053D01*
X101942978Y-155067433D01*
X102181073Y-155067433D01*
X102276311Y-155115053D01*
X102323930Y-155162672D01*
X102371549Y-155257910D01*
X102371549Y-155353148D01*
X102323930Y-155496005D01*
X101752502Y-156067433D01*
X102371549Y-156067433D01*
X103276311Y-155067433D02*
X102800121Y-155067433D01*
X102752502Y-155543624D01*
X102800121Y-155496005D01*
X102895359Y-155448386D01*
X103133454Y-155448386D01*
X103228692Y-155496005D01*
X103276311Y-155543624D01*
X103323930Y-155638862D01*
X103323930Y-155876957D01*
X103276311Y-155972195D01*
X103228692Y-156019814D01*
X103133454Y-156067433D01*
X102895359Y-156067433D01*
X102800121Y-156019814D01*
X102752502Y-155972195D01*
X103752502Y-155972195D02*
X103800121Y-156019814D01*
X103752502Y-156067433D01*
X103704883Y-156019814D01*
X103752502Y-155972195D01*
X103752502Y-156067433D01*
X104752502Y-156067433D02*
X104181073Y-156067433D01*
X104466787Y-156067433D02*
X104466787Y-155067433D01*
X104371549Y-155210291D01*
X104276311Y-155305529D01*
X104181073Y-155353148D01*
X105181073Y-156067433D02*
X105181073Y-155400767D01*
X105181073Y-155496005D02*
X105228692Y-155448386D01*
X105323930Y-155400767D01*
X105466787Y-155400767D01*
X105562025Y-155448386D01*
X105609645Y-155543624D01*
X105609645Y-156067433D01*
X105609645Y-155543624D02*
X105657264Y-155448386D01*
X105752502Y-155400767D01*
X105895359Y-155400767D01*
X105990597Y-155448386D01*
X106038216Y-155543624D01*
X106038216Y-156067433D01*
X106514406Y-156067433D02*
X106514406Y-155400767D01*
X106514406Y-155496005D02*
X106562025Y-155448386D01*
X106657264Y-155400767D01*
X106800121Y-155400767D01*
X106895359Y-155448386D01*
X106942978Y-155543624D01*
X106942978Y-156067433D01*
X106942978Y-155543624D02*
X106990597Y-155448386D01*
X107085835Y-155400767D01*
X107228692Y-155400767D01*
X107323930Y-155448386D01*
X107371549Y-155543624D01*
X107371549Y-156067433D01*
X351782025Y-165549338D02*
X351782025Y-165358862D01*
X351734406Y-165263624D01*
X351686787Y-165216005D01*
X351543930Y-165120767D01*
X351353454Y-165073148D01*
X350972502Y-165073148D01*
X350877264Y-165120767D01*
X350829645Y-165168386D01*
X350782025Y-165263624D01*
X350782025Y-165454100D01*
X350829645Y-165549338D01*
X350877264Y-165596957D01*
X350972502Y-165644576D01*
X351210597Y-165644576D01*
X351305835Y-165596957D01*
X351353454Y-165549338D01*
X351401073Y-165454100D01*
X351401073Y-165263624D01*
X351353454Y-165168386D01*
X351305835Y-165120767D01*
X351210597Y-165073148D01*
X351686787Y-164644576D02*
X351734406Y-164596957D01*
X351782025Y-164644576D01*
X351734406Y-164692195D01*
X351686787Y-164644576D01*
X351782025Y-164644576D01*
X350782025Y-163692195D02*
X350782025Y-164168386D01*
X351258216Y-164216005D01*
X351210597Y-164168386D01*
X351162978Y-164073148D01*
X351162978Y-163835053D01*
X351210597Y-163739814D01*
X351258216Y-163692195D01*
X351353454Y-163644576D01*
X351591549Y-163644576D01*
X351686787Y-163692195D01*
X351734406Y-163739814D01*
X351782025Y-163835053D01*
X351782025Y-164073148D01*
X351734406Y-164168386D01*
X351686787Y-164216005D01*
X350782025Y-162739814D02*
X350782025Y-163216005D01*
X351258216Y-163263624D01*
X351210597Y-163216005D01*
X351162978Y-163120767D01*
X351162978Y-162882672D01*
X351210597Y-162787433D01*
X351258216Y-162739814D01*
X351353454Y-162692195D01*
X351591549Y-162692195D01*
X351686787Y-162739814D01*
X351734406Y-162787433D01*
X351782025Y-162882672D01*
X351782025Y-163120767D01*
X351734406Y-163216005D01*
X351686787Y-163263624D01*
X351782025Y-162263624D02*
X351115359Y-162263624D01*
X351210597Y-162263624D02*
X351162978Y-162216005D01*
X351115359Y-162120767D01*
X351115359Y-161977910D01*
X351162978Y-161882672D01*
X351258216Y-161835053D01*
X351782025Y-161835053D01*
X351258216Y-161835053D02*
X351162978Y-161787433D01*
X351115359Y-161692195D01*
X351115359Y-161549338D01*
X351162978Y-161454100D01*
X351258216Y-161406481D01*
X351782025Y-161406481D01*
X351782025Y-160930291D02*
X351115359Y-160930291D01*
X351210597Y-160930291D02*
X351162978Y-160882672D01*
X351115359Y-160787433D01*
X351115359Y-160644576D01*
X351162978Y-160549338D01*
X351258216Y-160501719D01*
X351782025Y-160501719D01*
X351258216Y-160501719D02*
X351162978Y-160454100D01*
X351115359Y-160358862D01*
X351115359Y-160216005D01*
X351162978Y-160120767D01*
X351258216Y-160073148D01*
X351782025Y-160073148D01*
X358877740Y-157382672D02*
X358925359Y-157335053D01*
X359020597Y-157287433D01*
X359258692Y-157287433D01*
X359353930Y-157335053D01*
X359401549Y-157382672D01*
X359449168Y-157477910D01*
X359449168Y-157573148D01*
X359401549Y-157716005D01*
X358830121Y-158287433D01*
X359449168Y-158287433D01*
X360353930Y-157287433D02*
X359877740Y-157287433D01*
X359830121Y-157763624D01*
X359877740Y-157716005D01*
X359972978Y-157668386D01*
X360211073Y-157668386D01*
X360306311Y-157716005D01*
X360353930Y-157763624D01*
X360401549Y-157858862D01*
X360401549Y-158096957D01*
X360353930Y-158192195D01*
X360306311Y-158239814D01*
X360211073Y-158287433D01*
X359972978Y-158287433D01*
X359877740Y-158239814D01*
X359830121Y-158192195D01*
X360830121Y-158192195D02*
X360877740Y-158239814D01*
X360830121Y-158287433D01*
X360782502Y-158239814D01*
X360830121Y-158192195D01*
X360830121Y-158287433D01*
X361211073Y-157287433D02*
X361830121Y-157287433D01*
X361496787Y-157668386D01*
X361639645Y-157668386D01*
X361734883Y-157716005D01*
X361782502Y-157763624D01*
X361830121Y-157858862D01*
X361830121Y-158096957D01*
X361782502Y-158192195D01*
X361734883Y-158239814D01*
X361639645Y-158287433D01*
X361353930Y-158287433D01*
X361258692Y-158239814D01*
X361211073Y-158192195D01*
X362734883Y-157287433D02*
X362258692Y-157287433D01*
X362211073Y-157763624D01*
X362258692Y-157716005D01*
X362353930Y-157668386D01*
X362592025Y-157668386D01*
X362687264Y-157716005D01*
X362734883Y-157763624D01*
X362782502Y-157858862D01*
X362782502Y-158096957D01*
X362734883Y-158192195D01*
X362687264Y-158239814D01*
X362592025Y-158287433D01*
X362353930Y-158287433D01*
X362258692Y-158239814D01*
X362211073Y-158192195D01*
X363401549Y-157287433D02*
X363496787Y-157287433D01*
X363592025Y-157335053D01*
X363639645Y-157382672D01*
X363687264Y-157477910D01*
X363734883Y-157668386D01*
X363734883Y-157906481D01*
X363687264Y-158096957D01*
X363639645Y-158192195D01*
X363592025Y-158239814D01*
X363496787Y-158287433D01*
X363401549Y-158287433D01*
X363306311Y-158239814D01*
X363258692Y-158192195D01*
X363211073Y-158096957D01*
X363163454Y-157906481D01*
X363163454Y-157668386D01*
X363211073Y-157477910D01*
X363258692Y-157382672D01*
X363306311Y-157335053D01*
X363401549Y-157287433D01*
X364163454Y-158287433D02*
X364163454Y-157620767D01*
X364163454Y-157716005D02*
X364211073Y-157668386D01*
X364306311Y-157620767D01*
X364449168Y-157620767D01*
X364544406Y-157668386D01*
X364592025Y-157763624D01*
X364592025Y-158287433D01*
X364592025Y-157763624D02*
X364639645Y-157668386D01*
X364734883Y-157620767D01*
X364877740Y-157620767D01*
X364972978Y-157668386D01*
X365020597Y-157763624D01*
X365020597Y-158287433D01*
X365496787Y-158287433D02*
X365496787Y-157620767D01*
X365496787Y-157716005D02*
X365544406Y-157668386D01*
X365639645Y-157620767D01*
X365782502Y-157620767D01*
X365877740Y-157668386D01*
X365925359Y-157763624D01*
X365925359Y-158287433D01*
X365925359Y-157763624D02*
X365972978Y-157668386D01*
X366068216Y-157620767D01*
X366211073Y-157620767D01*
X366306311Y-157668386D01*
X366353930Y-157763624D01*
X366353930Y-158287433D01*
X238311549Y-118597433D02*
X237740121Y-118597433D01*
X238025835Y-118597433D02*
X238025835Y-117597433D01*
X237930597Y-117740291D01*
X237835359Y-117835529D01*
X237740121Y-117883148D01*
X239168692Y-117930767D02*
X239168692Y-118597433D01*
X238930597Y-117549814D02*
X238692502Y-118264100D01*
X239311549Y-118264100D01*
X239692502Y-118502195D02*
X239740121Y-118549814D01*
X239692502Y-118597433D01*
X239644883Y-118549814D01*
X239692502Y-118502195D01*
X239692502Y-118597433D01*
X240073454Y-117597433D02*
X240692502Y-117597433D01*
X240359168Y-117978386D01*
X240502025Y-117978386D01*
X240597264Y-118026005D01*
X240644883Y-118073624D01*
X240692502Y-118168862D01*
X240692502Y-118406957D01*
X240644883Y-118502195D01*
X240597264Y-118549814D01*
X240502025Y-118597433D01*
X240216311Y-118597433D01*
X240121073Y-118549814D01*
X240073454Y-118502195D01*
X241121073Y-118597433D02*
X241121073Y-117930767D01*
X241121073Y-118026005D02*
X241168692Y-117978386D01*
X241263930Y-117930767D01*
X241406787Y-117930767D01*
X241502025Y-117978386D01*
X241549645Y-118073624D01*
X241549645Y-118597433D01*
X241549645Y-118073624D02*
X241597264Y-117978386D01*
X241692502Y-117930767D01*
X241835359Y-117930767D01*
X241930597Y-117978386D01*
X241978216Y-118073624D01*
X241978216Y-118597433D01*
X242454406Y-118597433D02*
X242454406Y-117930767D01*
X242454406Y-118026005D02*
X242502025Y-117978386D01*
X242597264Y-117930767D01*
X242740121Y-117930767D01*
X242835359Y-117978386D01*
X242882978Y-118073624D01*
X242882978Y-118597433D01*
X242882978Y-118073624D02*
X242930597Y-117978386D01*
X243025835Y-117930767D01*
X243168692Y-117930767D01*
X243263930Y-117978386D01*
X243311549Y-118073624D01*
X243311549Y-118597433D01*
X234622025Y-117733148D02*
X234622025Y-117542672D01*
X234574406Y-117447433D01*
X234526787Y-117399814D01*
X234383930Y-117304576D01*
X234193454Y-117256957D01*
X233812502Y-117256957D01*
X233717264Y-117304576D01*
X233669645Y-117352195D01*
X233622025Y-117447433D01*
X233622025Y-117637910D01*
X233669645Y-117733148D01*
X233717264Y-117780767D01*
X233812502Y-117828386D01*
X234050597Y-117828386D01*
X234145835Y-117780767D01*
X234193454Y-117733148D01*
X234241073Y-117637910D01*
X234241073Y-117447433D01*
X234193454Y-117352195D01*
X234145835Y-117304576D01*
X234050597Y-117256957D01*
X234526787Y-116828386D02*
X234574406Y-116780767D01*
X234622025Y-116828386D01*
X234574406Y-116876005D01*
X234526787Y-116828386D01*
X234622025Y-116828386D01*
X233622025Y-116447433D02*
X233622025Y-115780767D01*
X234622025Y-116209338D01*
X234622025Y-115399814D02*
X233955359Y-115399814D01*
X234050597Y-115399814D02*
X234002978Y-115352195D01*
X233955359Y-115256957D01*
X233955359Y-115114100D01*
X234002978Y-115018862D01*
X234098216Y-114971243D01*
X234622025Y-114971243D01*
X234098216Y-114971243D02*
X234002978Y-114923624D01*
X233955359Y-114828386D01*
X233955359Y-114685529D01*
X234002978Y-114590291D01*
X234098216Y-114542672D01*
X234622025Y-114542672D01*
X234622025Y-114066481D02*
X233955359Y-114066481D01*
X234050597Y-114066481D02*
X234002978Y-114018862D01*
X233955359Y-113923624D01*
X233955359Y-113780767D01*
X234002978Y-113685529D01*
X234098216Y-113637910D01*
X234622025Y-113637910D01*
X234098216Y-113637910D02*
X234002978Y-113590291D01*
X233955359Y-113495053D01*
X233955359Y-113352195D01*
X234002978Y-113256957D01*
X234098216Y-113209338D01*
X234622025Y-113209338D01*
X233652025Y-104578386D02*
X233652025Y-103959338D01*
X234032978Y-104292672D01*
X234032978Y-104149814D01*
X234080597Y-104054576D01*
X234128216Y-104006957D01*
X234223454Y-103959338D01*
X234461549Y-103959338D01*
X234556787Y-104006957D01*
X234604406Y-104054576D01*
X234652025Y-104149814D01*
X234652025Y-104435529D01*
X234604406Y-104530767D01*
X234556787Y-104578386D01*
X233652025Y-103626005D02*
X233652025Y-102959338D01*
X234652025Y-103387910D01*
X234556787Y-102578386D02*
X234604406Y-102530767D01*
X234652025Y-102578386D01*
X234604406Y-102626005D01*
X234556787Y-102578386D01*
X234652025Y-102578386D01*
X233652025Y-102197433D02*
X233652025Y-101530767D01*
X234652025Y-101959338D01*
X233652025Y-100673624D02*
X233652025Y-101149814D01*
X234128216Y-101197433D01*
X234080597Y-101149814D01*
X234032978Y-101054576D01*
X234032978Y-100816481D01*
X234080597Y-100721243D01*
X234128216Y-100673624D01*
X234223454Y-100626005D01*
X234461549Y-100626005D01*
X234556787Y-100673624D01*
X234604406Y-100721243D01*
X234652025Y-100816481D01*
X234652025Y-101054576D01*
X234604406Y-101149814D01*
X234556787Y-101197433D01*
X234652025Y-100197433D02*
X233985359Y-100197433D01*
X234080597Y-100197433D02*
X234032978Y-100149814D01*
X233985359Y-100054576D01*
X233985359Y-99911719D01*
X234032978Y-99816481D01*
X234128216Y-99768862D01*
X234652025Y-99768862D01*
X234128216Y-99768862D02*
X234032978Y-99721243D01*
X233985359Y-99626005D01*
X233985359Y-99483148D01*
X234032978Y-99387910D01*
X234128216Y-99340291D01*
X234652025Y-99340291D01*
X234652025Y-98864100D02*
X233985359Y-98864100D01*
X234080597Y-98864100D02*
X234032978Y-98816481D01*
X233985359Y-98721243D01*
X233985359Y-98578386D01*
X234032978Y-98483148D01*
X234128216Y-98435529D01*
X234652025Y-98435529D01*
X234128216Y-98435529D02*
X234032978Y-98387910D01*
X233985359Y-98292672D01*
X233985359Y-98149814D01*
X234032978Y-98054576D01*
X234128216Y-98006957D01*
X234652025Y-98006957D01*
X351082025Y-138912195D02*
X351082025Y-138293148D01*
X351462978Y-138626481D01*
X351462978Y-138483624D01*
X351510597Y-138388386D01*
X351558216Y-138340767D01*
X351653454Y-138293148D01*
X351891549Y-138293148D01*
X351986787Y-138340767D01*
X352034406Y-138388386D01*
X352082025Y-138483624D01*
X352082025Y-138769338D01*
X352034406Y-138864576D01*
X351986787Y-138912195D01*
X351082025Y-137959814D02*
X351082025Y-137293148D01*
X352082025Y-137721719D01*
X351986787Y-136912195D02*
X352034406Y-136864576D01*
X352082025Y-136912195D01*
X352034406Y-136959814D01*
X351986787Y-136912195D01*
X352082025Y-136912195D01*
X352082025Y-136388386D02*
X352082025Y-136197910D01*
X352034406Y-136102672D01*
X351986787Y-136055053D01*
X351843930Y-135959814D01*
X351653454Y-135912195D01*
X351272502Y-135912195D01*
X351177264Y-135959814D01*
X351129645Y-136007433D01*
X351082025Y-136102672D01*
X351082025Y-136293148D01*
X351129645Y-136388386D01*
X351177264Y-136436005D01*
X351272502Y-136483624D01*
X351510597Y-136483624D01*
X351605835Y-136436005D01*
X351653454Y-136388386D01*
X351701073Y-136293148D01*
X351701073Y-136102672D01*
X351653454Y-136007433D01*
X351605835Y-135959814D01*
X351510597Y-135912195D01*
X352082025Y-135483624D02*
X351415359Y-135483624D01*
X351510597Y-135483624D02*
X351462978Y-135436005D01*
X351415359Y-135340767D01*
X351415359Y-135197910D01*
X351462978Y-135102672D01*
X351558216Y-135055053D01*
X352082025Y-135055053D01*
X351558216Y-135055053D02*
X351462978Y-135007433D01*
X351415359Y-134912195D01*
X351415359Y-134769338D01*
X351462978Y-134674100D01*
X351558216Y-134626481D01*
X352082025Y-134626481D01*
X352082025Y-134150291D02*
X351415359Y-134150291D01*
X351510597Y-134150291D02*
X351462978Y-134102672D01*
X351415359Y-134007433D01*
X351415359Y-133864576D01*
X351462978Y-133769338D01*
X351558216Y-133721719D01*
X352082025Y-133721719D01*
X351558216Y-133721719D02*
X351462978Y-133674100D01*
X351415359Y-133578862D01*
X351415359Y-133436005D01*
X351462978Y-133340767D01*
X351558216Y-133293148D01*
X352082025Y-133293148D01*
X345990121Y-117407433D02*
X345513930Y-117407433D01*
X345466311Y-117883624D01*
X345513930Y-117836005D01*
X345609168Y-117788386D01*
X345847264Y-117788386D01*
X345942502Y-117836005D01*
X345990121Y-117883624D01*
X346037740Y-117978862D01*
X346037740Y-118216957D01*
X345990121Y-118312195D01*
X345942502Y-118359814D01*
X345847264Y-118407433D01*
X345609168Y-118407433D01*
X345513930Y-118359814D01*
X345466311Y-118312195D01*
X346466311Y-118312195D02*
X346513930Y-118359814D01*
X346466311Y-118407433D01*
X346418692Y-118359814D01*
X346466311Y-118312195D01*
X346466311Y-118407433D01*
X346847264Y-117407433D02*
X347466311Y-117407433D01*
X347132978Y-117788386D01*
X347275835Y-117788386D01*
X347371073Y-117836005D01*
X347418692Y-117883624D01*
X347466311Y-117978862D01*
X347466311Y-118216957D01*
X347418692Y-118312195D01*
X347371073Y-118359814D01*
X347275835Y-118407433D01*
X346990121Y-118407433D01*
X346894883Y-118359814D01*
X346847264Y-118312195D01*
X347894883Y-118407433D02*
X347894883Y-117740767D01*
X347894883Y-117836005D02*
X347942502Y-117788386D01*
X348037740Y-117740767D01*
X348180597Y-117740767D01*
X348275835Y-117788386D01*
X348323454Y-117883624D01*
X348323454Y-118407433D01*
X348323454Y-117883624D02*
X348371073Y-117788386D01*
X348466311Y-117740767D01*
X348609168Y-117740767D01*
X348704406Y-117788386D01*
X348752025Y-117883624D01*
X348752025Y-118407433D01*
X349228216Y-118407433D02*
X349228216Y-117740767D01*
X349228216Y-117836005D02*
X349275835Y-117788386D01*
X349371073Y-117740767D01*
X349513930Y-117740767D01*
X349609168Y-117788386D01*
X349656787Y-117883624D01*
X349656787Y-118407433D01*
X349656787Y-117883624D02*
X349704406Y-117788386D01*
X349799645Y-117740767D01*
X349942502Y-117740767D01*
X350037740Y-117788386D01*
X350085359Y-117883624D01*
X350085359Y-118407433D01*
X341603930Y-123127433D02*
X341270597Y-122651243D01*
X341032502Y-123127433D02*
X341032502Y-122127433D01*
X341413454Y-122127433D01*
X341508692Y-122175053D01*
X341556311Y-122222672D01*
X341603930Y-122317910D01*
X341603930Y-122460767D01*
X341556311Y-122556005D01*
X341508692Y-122603624D01*
X341413454Y-122651243D01*
X341032502Y-122651243D01*
X342413454Y-123079814D02*
X342318216Y-123127433D01*
X342127740Y-123127433D01*
X342032502Y-123079814D01*
X341984883Y-122984576D01*
X341984883Y-122603624D01*
X342032502Y-122508386D01*
X342127740Y-122460767D01*
X342318216Y-122460767D01*
X342413454Y-122508386D01*
X342461073Y-122603624D01*
X342461073Y-122698862D01*
X341984883Y-122794100D01*
X342842025Y-123079814D02*
X342937264Y-123127433D01*
X343127740Y-123127433D01*
X343222978Y-123079814D01*
X343270597Y-122984576D01*
X343270597Y-122936957D01*
X343222978Y-122841719D01*
X343127740Y-122794100D01*
X342984883Y-122794100D01*
X342889645Y-122746481D01*
X342842025Y-122651243D01*
X342842025Y-122603624D01*
X342889645Y-122508386D01*
X342984883Y-122460767D01*
X343127740Y-122460767D01*
X343222978Y-122508386D01*
X344080121Y-123079814D02*
X343984883Y-123127433D01*
X343794406Y-123127433D01*
X343699168Y-123079814D01*
X343651549Y-122984576D01*
X343651549Y-122603624D01*
X343699168Y-122508386D01*
X343794406Y-122460767D01*
X343984883Y-122460767D01*
X344080121Y-122508386D01*
X344127740Y-122603624D01*
X344127740Y-122698862D01*
X343651549Y-122794100D01*
X344413454Y-122460767D02*
X344794406Y-122460767D01*
X344556311Y-122127433D02*
X344556311Y-122984576D01*
X344603930Y-123079814D01*
X344699168Y-123127433D01*
X344794406Y-123127433D01*
X345889645Y-123127433D02*
X345889645Y-122127433D01*
X345889645Y-122603624D02*
X346461073Y-122603624D01*
X346461073Y-123127433D02*
X346461073Y-122127433D01*
X347080121Y-123127433D02*
X346984883Y-123079814D01*
X346937264Y-123032195D01*
X346889645Y-122936957D01*
X346889645Y-122651243D01*
X346937264Y-122556005D01*
X346984883Y-122508386D01*
X347080121Y-122460767D01*
X347222978Y-122460767D01*
X347318216Y-122508386D01*
X347365835Y-122556005D01*
X347413454Y-122651243D01*
X347413454Y-122936957D01*
X347365835Y-123032195D01*
X347318216Y-123079814D01*
X347222978Y-123127433D01*
X347080121Y-123127433D01*
X347984883Y-123127433D02*
X347889645Y-123079814D01*
X347842025Y-122984576D01*
X347842025Y-122127433D01*
X348746787Y-123079814D02*
X348651549Y-123127433D01*
X348461073Y-123127433D01*
X348365835Y-123079814D01*
X348318216Y-122984576D01*
X348318216Y-122603624D01*
X348365835Y-122508386D01*
X348461073Y-122460767D01*
X348651549Y-122460767D01*
X348746787Y-122508386D01*
X348794406Y-122603624D01*
X348794406Y-122698862D01*
X348318216Y-122794100D01*
X336035359Y-118487433D02*
X336225835Y-118487433D01*
X336321073Y-118439814D01*
X336368692Y-118392195D01*
X336463930Y-118249338D01*
X336511549Y-118058862D01*
X336511549Y-117677910D01*
X336463930Y-117582672D01*
X336416311Y-117535053D01*
X336321073Y-117487433D01*
X336130597Y-117487433D01*
X336035359Y-117535053D01*
X335987740Y-117582672D01*
X335940121Y-117677910D01*
X335940121Y-117916005D01*
X335987740Y-118011243D01*
X336035359Y-118058862D01*
X336130597Y-118106481D01*
X336321073Y-118106481D01*
X336416311Y-118058862D01*
X336463930Y-118011243D01*
X336511549Y-117916005D01*
X336844883Y-117487433D02*
X337511549Y-117487433D01*
X337082978Y-118487433D01*
X337892502Y-118392195D02*
X337940121Y-118439814D01*
X337892502Y-118487433D01*
X337844883Y-118439814D01*
X337892502Y-118392195D01*
X337892502Y-118487433D01*
X338273454Y-117487433D02*
X338940121Y-117487433D01*
X338511549Y-118487433D01*
X339321073Y-118487433D02*
X339321073Y-117820767D01*
X339321073Y-117916005D02*
X339368692Y-117868386D01*
X339463930Y-117820767D01*
X339606787Y-117820767D01*
X339702025Y-117868386D01*
X339749645Y-117963624D01*
X339749645Y-118487433D01*
X339749645Y-117963624D02*
X339797264Y-117868386D01*
X339892502Y-117820767D01*
X340035359Y-117820767D01*
X340130597Y-117868386D01*
X340178216Y-117963624D01*
X340178216Y-118487433D01*
X340654406Y-118487433D02*
X340654406Y-117820767D01*
X340654406Y-117916005D02*
X340702025Y-117868386D01*
X340797264Y-117820767D01*
X340940121Y-117820767D01*
X341035359Y-117868386D01*
X341082978Y-117963624D01*
X341082978Y-118487433D01*
X341082978Y-117963624D02*
X341130597Y-117868386D01*
X341225835Y-117820767D01*
X341368692Y-117820767D01*
X341463930Y-117868386D01*
X341511549Y-117963624D01*
X341511549Y-118487433D01*
X351792025Y-112003148D02*
X351792025Y-112574576D01*
X351792025Y-112288862D02*
X350792025Y-112288862D01*
X350934883Y-112384100D01*
X351030121Y-112479338D01*
X351077740Y-112574576D01*
X351792025Y-111526957D02*
X351792025Y-111336481D01*
X351744406Y-111241243D01*
X351696787Y-111193624D01*
X351553930Y-111098386D01*
X351363454Y-111050767D01*
X350982502Y-111050767D01*
X350887264Y-111098386D01*
X350839645Y-111146005D01*
X350792025Y-111241243D01*
X350792025Y-111431719D01*
X350839645Y-111526957D01*
X350887264Y-111574576D01*
X350982502Y-111622195D01*
X351220597Y-111622195D01*
X351315835Y-111574576D01*
X351363454Y-111526957D01*
X351411073Y-111431719D01*
X351411073Y-111241243D01*
X351363454Y-111146005D01*
X351315835Y-111098386D01*
X351220597Y-111050767D01*
X351696787Y-110622195D02*
X351744406Y-110574576D01*
X351792025Y-110622195D01*
X351744406Y-110669814D01*
X351696787Y-110622195D01*
X351792025Y-110622195D01*
X351125359Y-109717433D02*
X351792025Y-109717433D01*
X350744406Y-109955529D02*
X351458692Y-110193624D01*
X351458692Y-109574576D01*
X351792025Y-109193624D02*
X351125359Y-109193624D01*
X351220597Y-109193624D02*
X351172978Y-109146005D01*
X351125359Y-109050767D01*
X351125359Y-108907910D01*
X351172978Y-108812672D01*
X351268216Y-108765053D01*
X351792025Y-108765053D01*
X351268216Y-108765053D02*
X351172978Y-108717433D01*
X351125359Y-108622195D01*
X351125359Y-108479338D01*
X351172978Y-108384100D01*
X351268216Y-108336481D01*
X351792025Y-108336481D01*
X351792025Y-107860291D02*
X351125359Y-107860291D01*
X351220597Y-107860291D02*
X351172978Y-107812672D01*
X351125359Y-107717433D01*
X351125359Y-107574576D01*
X351172978Y-107479338D01*
X351268216Y-107431719D01*
X351792025Y-107431719D01*
X351268216Y-107431719D02*
X351172978Y-107384100D01*
X351125359Y-107288862D01*
X351125359Y-107146005D01*
X351172978Y-107050767D01*
X351268216Y-107003148D01*
X351792025Y-107003148D01*
X234315359Y-135034576D02*
X234982025Y-135034576D01*
X233934406Y-135272672D02*
X234648692Y-135510767D01*
X234648692Y-134891719D01*
X233982025Y-134606005D02*
X233982025Y-133939338D01*
X234982025Y-134367910D01*
X234886787Y-133558386D02*
X234934406Y-133510767D01*
X234982025Y-133558386D01*
X234934406Y-133606005D01*
X234886787Y-133558386D01*
X234982025Y-133558386D01*
X234315359Y-132653624D02*
X234982025Y-132653624D01*
X233934406Y-132891719D02*
X234648692Y-133129814D01*
X234648692Y-132510767D01*
X233982025Y-131653624D02*
X233982025Y-132129814D01*
X234458216Y-132177433D01*
X234410597Y-132129814D01*
X234362978Y-132034576D01*
X234362978Y-131796481D01*
X234410597Y-131701243D01*
X234458216Y-131653624D01*
X234553454Y-131606005D01*
X234791549Y-131606005D01*
X234886787Y-131653624D01*
X234934406Y-131701243D01*
X234982025Y-131796481D01*
X234982025Y-132034576D01*
X234934406Y-132129814D01*
X234886787Y-132177433D01*
X234982025Y-131177433D02*
X234315359Y-131177433D01*
X234410597Y-131177433D02*
X234362978Y-131129814D01*
X234315359Y-131034576D01*
X234315359Y-130891719D01*
X234362978Y-130796481D01*
X234458216Y-130748862D01*
X234982025Y-130748862D01*
X234458216Y-130748862D02*
X234362978Y-130701243D01*
X234315359Y-130606005D01*
X234315359Y-130463148D01*
X234362978Y-130367910D01*
X234458216Y-130320291D01*
X234982025Y-130320291D01*
X234982025Y-129844100D02*
X234315359Y-129844100D01*
X234410597Y-129844100D02*
X234362978Y-129796481D01*
X234315359Y-129701243D01*
X234315359Y-129558386D01*
X234362978Y-129463148D01*
X234458216Y-129415529D01*
X234982025Y-129415529D01*
X234458216Y-129415529D02*
X234362978Y-129367910D01*
X234315359Y-129272672D01*
X234315359Y-129129814D01*
X234362978Y-129034576D01*
X234458216Y-128986957D01*
X234982025Y-128986957D01*
G04 #@! TD*
M02*
