M48
; DRILL file {KiCad (6.0.0-rc1-dev-1469-g932b9a334)} date Saturday, September 07, 2019 at 05:35:00 PM
; FORMAT={-:-/ absolute / metric / decimal}
; #@! TF.CreationDate,2019-09-07T17:35:00-07:00
; #@! TF.GenerationSoftware,Kicad,Pcbnew,(6.0.0-rc1-dev-1469-g932b9a334)
; #@! TF.FileFunction,Plated,1,2,PTH
FMAT,2
METRIC
T1C0.400
T2C0.500
T3C0.600
T4C1.016
T5C1.200
T6C1.500
T7C2.500
%
G90
G05
T1
X96.0Y-94.62
X99.475Y-94.27
X100.623Y-122.633
X106.8Y-114.82
X109.9Y-95.245
X114.0Y-77.92
X114.15Y-134.895
X123.45Y-133.82
X123.575Y-142.12
X126.7Y-115.32
X130.15Y-96.745
X133.375Y-78.045
X142.225Y-145.42
X142.3Y-137.12
X146.05Y-115.57
X149.4Y-96.895
X152.825Y-78.045
X160.975Y-140.42
X161.1Y-148.72
X165.325Y-115.92
X166.625Y-151.52
X171.925Y-78.27
X179.7Y-143.62
X179.825Y-152.145
X180.031Y-161.887
X180.8Y-161.845
X181.585Y-161.857
X182.374Y-161.844
X183.159Y-161.855
X183.625Y-122.045
X186.45Y-151.945
X201.672Y-158.573
X202.094Y-161.437
X202.879Y-161.448
X203.455Y-158.887
X203.664Y-161.46
X204.478Y-161.451
X205.104Y-139.044
X206.654Y-138.635
X208.49Y-119.84
X209.622Y-120.04
X209.945Y-161.399
X222.239Y-136.838
X223.039Y-136.838
X223.374Y-93.77
X223.839Y-136.838
X224.639Y-136.838
X225.439Y-136.838
X226.574Y-120.07
X229.1Y-125.545
X230.1Y-132.645
X230.525Y-119.37
X230.6Y-135.545
X232.139Y-155.963
X232.139Y-155.063
X232.139Y-156.913
X232.139Y-157.813
X232.2Y-123.92
X232.4Y-81.745
X233.6Y-81.745
X234.775Y-157.82
X234.789Y-154.263
X234.789Y-155.163
X234.789Y-152.413
X234.789Y-153.313
X236.148Y-135.319
X236.2Y-123.945
X237.25Y-132.095
X240.25Y-118.72
X240.447Y-136.848
X241.239Y-136.838
X241.875Y-96.895
X242.039Y-136.838
X242.839Y-136.838
X243.639Y-136.838
X244.439Y-136.838
X244.625Y-96.895
X249.999Y-151.62
X255.494Y-120.221
X256.572Y-161.46
X256.799Y-119.991
X258.433Y-139.047
X259.638Y-148.328
X260.082Y-138.756
X261.064Y-161.455
X261.561Y-147.431
X261.849Y-161.444
X262.638Y-161.457
X263.427Y-161.47
X268.149Y-160.82
X269.664Y-145.875
X276.699Y-161.845
X277.499Y-161.845
X278.324Y-161.845
X278.724Y-154.57
X279.099Y-161.845
X279.924Y-161.845
X283.224Y-145.145
X286.274Y-153.82
X295.424Y-80.42
X295.974Y-141.87
X314.649Y-138.72
X314.724Y-80.295
X320.849Y-138.62
X334.499Y-99.72
X339.449Y-135.02
X347.044Y-102.708
X349.124Y-79.495
X349.124Y-81.445
X351.353Y-87.986
X351.824Y-75.495
X354.6Y-78.795
X355.574Y-116.72
X355.73Y-75.635
X357.299Y-74.895
X358.59Y-78.695
X358.63Y-75.551
X358.774Y-122.245
X360.899Y-79.57
X361.924Y-94.245
X363.424Y-76.77
X363.924Y-126.72
X365.374Y-76.77
X369.949Y-81.945
X369.949Y-84.22
T2
X92.258Y-125.495
X92.258Y-130.695
X94.3Y-125.495
X94.3Y-130.695
X96.138Y-126.257
X96.138Y-129.934
X96.9Y-128.095
X114.25Y-101.795
X114.25Y-97.178
X114.25Y-154.495
X114.25Y-159.095
X115.45Y-97.195
X115.45Y-101.795
X115.45Y-154.495
X115.45Y-159.095
X116.65Y-97.195
X116.65Y-101.795
X116.65Y-154.495
X116.65Y-159.095
X183.8Y-154.495
X183.8Y-159.095
X185.0Y-154.495
X185.0Y-159.095
X186.2Y-154.495
X186.2Y-159.095
X231.8Y-106.795
X231.8Y-111.395
X233.0Y-106.795
X233.0Y-111.395
X234.2Y-106.795
X234.2Y-111.395
X246.1Y-116.595
X246.1Y-121.195
X247.3Y-116.595
X247.3Y-121.195
X248.5Y-116.595
X248.5Y-121.195
X348.0Y-99.495
X348.673Y-97.869
X348.673Y-101.121
X349.1Y-154.495
X349.1Y-159.095
X350.3Y-97.195
X350.3Y-101.795
X350.3Y-154.495
X350.3Y-159.095
X351.5Y-159.095
X351.5Y-154.495
X351.926Y-97.869
X351.926Y-101.121
X352.6Y-99.495
X369.1Y-128.095
X369.861Y-126.257
X369.861Y-129.934
X371.7Y-125.495
X371.7Y-130.695
X373.742Y-125.495
X373.742Y-130.695
T4
X213.3Y-121.32
X213.3Y-124.27
X213.3Y-118.32
T5
X311.922Y-151.172
X316.464Y-148.137
X100.638Y-96.291
X105.944Y-94.993
X180.006Y-113.789
X185.312Y-112.491
X135.317Y-147.821
X140.623Y-146.523
X176.698Y-132.55
X182.004Y-131.251
X339.519Y-88.274
X344.061Y-85.239
X326.823Y-125.976
X331.365Y-122.941
X270.542Y-135.9
X275.084Y-132.865
X300.895Y-88.636
X305.437Y-85.601
X304.203Y-107.397
X308.745Y-104.362
X192.143Y-157.728
X197.387Y-159.257
X126.48Y-88.231
X131.786Y-86.933
X255.26Y-148.555
X257.676Y-143.656
X355.513Y-98.07
X360.055Y-95.035
X330.683Y-147.864
X335.225Y-144.829
X158.488Y-126.115
X163.794Y-124.817
X195.458Y-135.858
X200.764Y-134.559
X107.158Y-88.004
X112.464Y-86.706
X198.766Y-117.097
X204.072Y-115.799
X139.176Y-125.934
X144.482Y-124.635
X282.686Y-95.071
X287.228Y-92.036
X145.792Y-88.412
X151.098Y-87.114
X365.447Y-125.614
X369.989Y-122.579
X165.104Y-88.594
X170.41Y-87.295
X307.511Y-126.157
X312.053Y-123.123
X100.552Y-125.571
X105.859Y-124.273
X202.074Y-98.336
X207.38Y-97.038
X346.135Y-125.795
X350.677Y-122.76
X336.201Y-98.252
X340.743Y-95.217
X154.078Y-151.129
X159.384Y-149.831
X116.556Y-144.513
X121.862Y-143.215
X289.302Y-132.592
X293.844Y-129.557
X273.857Y-157.73
X276.273Y-152.831
X263.926Y-98.379
X268.468Y-95.344
X293.161Y-154.48
X297.703Y-151.445
X210.687Y-148.554
X215.931Y-150.083
X183.313Y-95.028
X188.62Y-93.73
X172.838Y-154.437
X178.144Y-153.139
X123.172Y-106.992
X128.478Y-105.693
X142.484Y-107.173
X147.79Y-105.875
X267.234Y-117.14
X271.776Y-114.105
X285.994Y-113.832
X290.536Y-110.797
X349.443Y-144.556
X353.985Y-141.521
X119.864Y-125.752
X125.17Y-124.454
X323.515Y-107.216
X328.057Y-104.181
X320.207Y-88.455
X324.749Y-85.42
X161.796Y-107.354
X167.102Y-106.056
T6
X307.569Y-148.426
X309.113Y-149.636
X108.059Y-97.397
X109.096Y-99.062
X176.854Y-109.72
X177.891Y-111.385
X132.166Y-143.752
X133.202Y-145.417
X173.546Y-128.481
X174.583Y-130.146
X335.166Y-85.528
X336.71Y-86.738
X322.47Y-123.23
X324.014Y-124.441
X266.189Y-133.154
X267.732Y-134.365
X296.542Y-85.89
X298.086Y-87.101
X299.85Y-104.651
X301.394Y-105.861
X191.449Y-152.629
X191.514Y-154.589
X123.329Y-84.162
X124.366Y-85.827
X250.118Y-148.353
X252.06Y-148.63
X362.865Y-96.571
X364.408Y-97.781
X326.33Y-145.118
X327.873Y-146.328
X155.337Y-122.046
X156.374Y-123.711
X192.307Y-131.789
X193.343Y-133.454
X104.006Y-83.935
X105.043Y-85.6
X195.615Y-113.028
X196.651Y-114.693
X136.025Y-121.865
X137.062Y-123.53
X278.333Y-92.325
X279.877Y-93.536
X142.641Y-84.343
X143.678Y-86.009
X361.094Y-122.868
X362.638Y-124.078
X161.953Y-84.525
X162.99Y-86.19
X303.158Y-123.412
X304.702Y-124.622
X97.401Y-121.502
X98.438Y-123.167
X198.923Y-94.267
X199.959Y-95.933
X341.782Y-123.049
X343.326Y-124.259
X343.553Y-96.752
X345.096Y-97.963
X150.926Y-147.06
X151.963Y-148.725
X113.405Y-140.444
X114.442Y-142.109
X284.949Y-129.846
X286.493Y-131.057
X268.714Y-157.529
X270.656Y-157.805
X259.573Y-95.633
X261.116Y-96.844
X288.809Y-151.734
X290.352Y-152.944
X209.992Y-143.455
X210.057Y-145.415
X180.162Y-90.959
X181.199Y-92.625
X169.687Y-150.368
X170.723Y-152.033
X120.021Y-102.923
X121.058Y-104.588
X139.333Y-103.104
X140.37Y-104.769
X262.881Y-114.394
X264.424Y-115.604
X281.641Y-111.086
X283.185Y-112.296
X345.09Y-141.81
X346.634Y-143.02
X116.713Y-121.683
X117.75Y-123.349
X319.162Y-104.47
X320.706Y-105.68
X315.854Y-85.709
X317.398Y-86.92
X158.645Y-103.285
X159.682Y-104.951
T7
X350.3Y-99.495
T3
G00X352.98Y-72.695
M15
G01X352.98Y-72.095
M16
G05
G00X352.98Y-77.125
M15
G01X352.98Y-76.025
M16
G05
G00X361.62Y-72.695
M15
G01X361.62Y-72.095
M16
G05
G00X361.62Y-77.125
M15
G01X361.62Y-76.025
M16
G05
T6
G00X314.163Y-149.254
M15
G01X314.224Y-149.831
M16
G05
G00X103.183Y-96.028
M15
G01X103.322Y-95.465
M16
G05
G00X182.767Y-112.754
M15
G01X182.628Y-113.317
M16
G05
G00X138.078Y-146.785
M15
G01X137.939Y-147.348
M16
G05
G00X179.459Y-131.514
M15
G01X179.32Y-132.077
M16
G05
G00X341.76Y-86.356
M15
G01X341.822Y-86.933
M16
G05
G00X329.064Y-124.059
M15
G01X329.126Y-124.635
M16
G05
G00X272.782Y-133.983
M15
G01X272.844Y-134.559
M16
G05
G00X303.136Y-86.719
M15
G01X303.198Y-87.295
M16
G05
G00X306.444Y-105.479
M15
G01X306.506Y-106.056
M16
G05
G00X195.052Y-158.212
M15
G01X194.65Y-158.63
M16
G05
G00X129.242Y-87.196
M15
G01X129.103Y-87.759
M16
G05
G00X256.242Y-145.774
M15
G01X256.584Y-146.243
M16
G05
G00X357.815Y-96.953
M15
G01X357.753Y-96.376
M16
G05
G00X332.923Y-145.946
M15
G01X332.985Y-146.523
M16
G05
G00X161.25Y-125.079
M15
G01X161.11Y-125.642
M16
G05
G00X198.22Y-134.822
M15
G01X198.08Y-135.385
M16
G05
G00X109.919Y-86.968
M15
G01X109.78Y-87.531
M16
G05
G00X201.528Y-116.062
M15
G01X201.388Y-116.625
M16
G05
G00X141.938Y-124.898
M15
G01X141.798Y-125.461
M16
G05
G00X284.927Y-93.153
M15
G01X284.989Y-93.73
M16
G05
G00X148.554Y-87.377
M15
G01X148.414Y-87.94
M16
G05
G00X367.688Y-123.696
M15
G01X367.75Y-124.273
M16
G05
G00X167.866Y-87.558
M15
G01X167.726Y-88.121
M16
G05
G00X309.752Y-124.24
M15
G01X309.814Y-124.817
M16
G05
G00X103.314Y-124.536
M15
G01X103.175Y-125.099
M16
G05
G00X204.836Y-97.301
M15
G01X204.696Y-97.864
M16
G05
G00X348.376Y-123.877
M15
G01X348.438Y-124.454
M16
G05
G00X338.503Y-97.134
M15
G01X338.441Y-96.558
M16
G05
G00X156.839Y-150.093
M15
G01X156.7Y-150.656
M16
G05
G00X119.318Y-143.477
M15
G01X119.179Y-144.04
M16
G05
G00X291.543Y-130.675
M15
G01X291.605Y-131.251
M16
G05
G00X274.838Y-154.949
M15
G01X275.18Y-155.418
M16
G05
G00X266.166Y-96.461
M15
G01X266.228Y-97.038
M16
G05
G00X295.402Y-152.562
M15
G01X295.464Y-153.139
M16
G05
G00X213.596Y-149.038
M15
G01X213.194Y-149.456
M16
G05
G00X186.075Y-93.993
M15
G01X185.936Y-94.556
M16
G05
G00X175.6Y-153.401
M15
G01X175.46Y-153.964
M16
G05
G00X125.934Y-105.956
M15
G01X125.795Y-106.519
M16
G05
G00X145.246Y-106.138
M15
G01X145.106Y-106.701
M16
G05
G00X269.474Y-115.222
M15
G01X269.536Y-115.799
M16
G05
G00X288.235Y-111.914
M15
G01X288.297Y-112.491
M16
G05
G00X351.684Y-142.638
M15
G01X351.746Y-143.215
M16
G05
G00X122.626Y-124.717
M15
G01X122.487Y-125.28
M16
G05
G00X325.756Y-105.298
M15
G01X325.818Y-105.875
M16
G05
G00X322.448Y-86.537
M15
G01X322.51Y-87.114
M16
G05
G00X164.558Y-106.319
M15
G01X164.418Y-106.882
M16
G05
T7
G00X116.7Y-99.495
M15
G01X114.2Y-99.495
M16
G05
G00X114.2Y-156.795
M15
G01X116.7Y-156.795
M16
G05
G00X183.75Y-156.795
M15
G01X186.25Y-156.795
M16
G05
G00X231.75Y-109.195
M15
G01X234.25Y-109.195
M16
G05
G00X246.05Y-118.895
M15
G01X248.55Y-118.895
M16
G05
G00X349.05Y-156.795
M15
G01X351.55Y-156.795
M16
G05
T0
M30
