G04 #@! TF.GenerationSoftware,KiCad,Pcbnew,(6.0.0-rc1-dev-1469-g932b9a334)*
G04 #@! TF.CreationDate,2019-09-07T17:34:57-07:00
G04 #@! TF.ProjectId,Laptreus-v2,4c617074-7265-4757-932d-76322e6b6963,rev?*
G04 #@! TF.SameCoordinates,Original*
G04 #@! TF.FileFunction,Other,ECO1*
%FSLAX46Y46*%
G04 Gerber Fmt 4.6, Leading zero omitted, Abs format (unit mm)*
G04 Created by KiCad (PCBNEW (6.0.0-rc1-dev-1469-g932b9a334)) date Saturday, September 07, 2019 at 05:34:57 PM*
%MOMM*%
%LPD*%
G04 APERTURE LIST*
%ADD10C,0.010000*%
%ADD11C,0.100000*%
G04 APERTURE END LIST*
D10*
X232999645Y-141995053D02*
X232999645Y-136995053D01*
X230499645Y-139495053D02*
X235499645Y-139495052D01*
D11*
G04 #@! TO.C,SW2*
X329614089Y-83927793D02*
X328051256Y-75064523D01*
X328051256Y-75064523D02*
X345777795Y-71938856D01*
X345777795Y-71938856D02*
X348903462Y-89665395D01*
X348903462Y-89665395D02*
X331176923Y-92791062D01*
X331176923Y-92791062D02*
X329614089Y-83927793D01*
X330365763Y-93949518D02*
X326892800Y-74253363D01*
X326892800Y-74253363D02*
X346588955Y-70780400D01*
X346588955Y-70780400D02*
X350061918Y-90476555D01*
X350061918Y-90476555D02*
X330365763Y-93949518D01*
G04 #@! TO.C,SW8*
X175492116Y-87556779D02*
X177054950Y-78693510D01*
X177054950Y-78693510D02*
X194781489Y-81819177D01*
X194781489Y-81819177D02*
X191655822Y-99545716D01*
X191655822Y-99545716D02*
X173929283Y-96420049D01*
X173929283Y-96420049D02*
X175492116Y-87556779D01*
X172770827Y-97231209D02*
X176243790Y-77535054D01*
X176243790Y-77535054D02*
X195939945Y-81008017D01*
X195939945Y-81008017D02*
X192466982Y-100704172D01*
X192466982Y-100704172D02*
X172770827Y-97231209D01*
G04 #@! TO.C,SW3*
X310302168Y-84109028D02*
X308739335Y-75245758D01*
X308739335Y-75245758D02*
X326465874Y-72120091D01*
X326465874Y-72120091D02*
X329591541Y-89846630D01*
X329591541Y-89846630D02*
X311865002Y-92972297D01*
X311865002Y-92972297D02*
X310302168Y-84109028D01*
X311053842Y-94130753D02*
X307580879Y-74434598D01*
X307580879Y-74434598D02*
X327277034Y-70961635D01*
X327277034Y-70961635D02*
X330749997Y-90657790D01*
X330749997Y-90657790D02*
X311053842Y-94130753D01*
G04 #@! TO.C,SW20*
X172184120Y-106317365D02*
X173746954Y-97454096D01*
X173746954Y-97454096D02*
X191473493Y-100579763D01*
X191473493Y-100579763D02*
X188347826Y-118306302D01*
X188347826Y-118306302D02*
X170621287Y-115180635D01*
X170621287Y-115180635D02*
X172184120Y-106317365D01*
X169462831Y-115991795D02*
X172935794Y-96295640D01*
X172935794Y-96295640D02*
X192631949Y-99768603D01*
X192631949Y-99768603D02*
X189158986Y-119464758D01*
X189158986Y-119464758D02*
X169462831Y-115991795D01*
G04 #@! TO.C,SW31*
X187636709Y-128385952D02*
X189199543Y-119522683D01*
X189199543Y-119522683D02*
X206926082Y-122648350D01*
X206926082Y-122648350D02*
X203800415Y-140374889D01*
X203800415Y-140374889D02*
X186073876Y-137249222D01*
X186073876Y-137249222D02*
X187636709Y-128385952D01*
X184915420Y-138060382D02*
X188388383Y-118364227D01*
X188388383Y-118364227D02*
X208084538Y-121837190D01*
X208084538Y-121837190D02*
X204611575Y-141533345D01*
X204611575Y-141533345D02*
X184915420Y-138060382D01*
G04 #@! TO.C,SW32*
X168876123Y-125077956D02*
X170438957Y-116214687D01*
X170438957Y-116214687D02*
X188165496Y-119340354D01*
X188165496Y-119340354D02*
X185039829Y-137066893D01*
X185039829Y-137066893D02*
X167313290Y-133941226D01*
X167313290Y-133941226D02*
X168876123Y-125077956D01*
X166154834Y-134752386D02*
X169627797Y-115056231D01*
X169627797Y-115056231D02*
X189323952Y-118529194D01*
X189323952Y-118529194D02*
X185850989Y-138225349D01*
X185850989Y-138225349D02*
X166154834Y-134752386D01*
G04 #@! TO.C,SW34*
X131354946Y-118461960D02*
X132917780Y-109598691D01*
X132917780Y-109598691D02*
X150644319Y-112724358D01*
X150644319Y-112724358D02*
X147518652Y-130450897D01*
X147518652Y-130450897D02*
X129792113Y-127325230D01*
X129792113Y-127325230D02*
X131354946Y-118461960D01*
X128633657Y-128136390D02*
X132106620Y-108440235D01*
X132106620Y-108440235D02*
X151802775Y-111913198D01*
X151802775Y-111913198D02*
X148329812Y-131609353D01*
X148329812Y-131609353D02*
X128633657Y-128136390D01*
G04 #@! TO.C,SW42*
X244509231Y-149743745D02*
X238724143Y-142849345D01*
X238724143Y-142849345D02*
X252512943Y-131279169D01*
X252512943Y-131279169D02*
X264083119Y-145067969D01*
X264083119Y-145067969D02*
X250294319Y-156638145D01*
X250294319Y-156638145D02*
X244509231Y-149743745D01*
X250171063Y-158046978D02*
X237315310Y-142726089D01*
X237315310Y-142726089D02*
X252636199Y-129870336D01*
X252636199Y-129870336D02*
X265491952Y-145191225D01*
X265491952Y-145191225D02*
X250171063Y-158046978D01*
G04 #@! TO.C,SW47*
X127495615Y-140349312D02*
X129058449Y-131486043D01*
X129058449Y-131486043D02*
X146784988Y-134611710D01*
X146784988Y-134611710D02*
X143659321Y-152338249D01*
X143659321Y-152338249D02*
X125932782Y-149212582D01*
X125932782Y-149212582D02*
X127495615Y-140349312D01*
X124774326Y-150023742D02*
X128247289Y-130327587D01*
X128247289Y-130327587D02*
X147943444Y-133800550D01*
X147943444Y-133800550D02*
X144470481Y-153496705D01*
X144470481Y-153496705D02*
X124774326Y-150023742D01*
G04 #@! TO.C,SW6*
X254020404Y-94033020D02*
X252457571Y-85169750D01*
X252457571Y-85169750D02*
X270184110Y-82044083D01*
X270184110Y-82044083D02*
X273309777Y-99770622D01*
X273309777Y-99770622D02*
X255583238Y-102896289D01*
X255583238Y-102896289D02*
X254020404Y-94033020D01*
X254772078Y-104054745D02*
X251299115Y-84358590D01*
X251299115Y-84358590D02*
X270995270Y-80885627D01*
X270995270Y-80885627D02*
X274468233Y-100581782D01*
X274468233Y-100581782D02*
X254772078Y-104054745D01*
G04 #@! TO.C,SW9*
X157282861Y-81122017D02*
X158845695Y-72258748D01*
X158845695Y-72258748D02*
X176572234Y-75384415D01*
X176572234Y-75384415D02*
X173446567Y-93110954D01*
X173446567Y-93110954D02*
X155720028Y-89985287D01*
X155720028Y-89985287D02*
X157282861Y-81122017D01*
X154561572Y-90796447D02*
X158034535Y-71100292D01*
X158034535Y-71100292D02*
X177730690Y-74573255D01*
X177730690Y-74573255D02*
X174257727Y-94269410D01*
X174257727Y-94269410D02*
X154561572Y-90796447D01*
G04 #@! TO.C,SW7*
X194252705Y-90864777D02*
X195815539Y-82001508D01*
X195815539Y-82001508D02*
X213542078Y-85127175D01*
X213542078Y-85127175D02*
X210416411Y-102853714D01*
X210416411Y-102853714D02*
X192689872Y-99728047D01*
X192689872Y-99728047D02*
X194252705Y-90864777D01*
X191531416Y-100539207D02*
X195004379Y-80843052D01*
X195004379Y-80843052D02*
X214700534Y-84316015D01*
X214700534Y-84316015D02*
X211227571Y-104012170D01*
X211227571Y-104012170D02*
X191531416Y-100539207D01*
G04 #@! TO.C,SW19*
X190944707Y-109625365D02*
X192507541Y-100762096D01*
X192507541Y-100762096D02*
X210234080Y-103887763D01*
X210234080Y-103887763D02*
X207108413Y-121614302D01*
X207108413Y-121614302D02*
X189381874Y-118488635D01*
X189381874Y-118488635D02*
X190944707Y-109625365D01*
X188223418Y-119299795D02*
X191696381Y-99603640D01*
X191696381Y-99603640D02*
X211392536Y-103076603D01*
X211392536Y-103076603D02*
X207919573Y-122772758D01*
X207919573Y-122772758D02*
X188223418Y-119299795D01*
G04 #@! TO.C,SW12*
X99336375Y-80532220D02*
X100899209Y-71668951D01*
X100899209Y-71668951D02*
X118625748Y-74794618D01*
X118625748Y-74794618D02*
X115500081Y-92521157D01*
X115500081Y-92521157D02*
X97773542Y-89395490D01*
X97773542Y-89395490D02*
X99336375Y-80532220D01*
X96615086Y-90206650D02*
X100088049Y-70510495D01*
X100088049Y-70510495D02*
X119784204Y-73983458D01*
X119784204Y-73983458D02*
X116311241Y-93679613D01*
X116311241Y-93679613D02*
X96615086Y-90206650D01*
G04 #@! TO.C,SW5*
X272780993Y-90725021D02*
X271218160Y-81861751D01*
X271218160Y-81861751D02*
X288944699Y-78736084D01*
X288944699Y-78736084D02*
X292070366Y-96462623D01*
X292070366Y-96462623D02*
X274343827Y-99588290D01*
X274343827Y-99588290D02*
X272780993Y-90725021D01*
X273532667Y-100746746D02*
X270059704Y-81050591D01*
X270059704Y-81050591D02*
X289755859Y-77577628D01*
X289755859Y-77577628D02*
X293228822Y-97273783D01*
X293228822Y-97273783D02*
X273532667Y-100746746D01*
G04 #@! TO.C,SW10*
X137970942Y-80940783D02*
X139533776Y-72077514D01*
X139533776Y-72077514D02*
X157260315Y-75203181D01*
X157260315Y-75203181D02*
X154134648Y-92929720D01*
X154134648Y-92929720D02*
X136408109Y-89804053D01*
X136408109Y-89804053D02*
X137970942Y-80940783D01*
X135249653Y-90615213D02*
X138722616Y-70919058D01*
X138722616Y-70919058D02*
X158418771Y-74392021D01*
X158418771Y-74392021D02*
X154945808Y-94088176D01*
X154945808Y-94088176D02*
X135249653Y-90615213D01*
G04 #@! TO.C,SW13*
X369960547Y-99381480D02*
X371523380Y-108244750D01*
X371523380Y-108244750D02*
X353796841Y-111370417D01*
X353796841Y-111370417D02*
X350671174Y-93643878D01*
X350671174Y-93643878D02*
X368397713Y-90518211D01*
X368397713Y-90518211D02*
X369960547Y-99381480D01*
X369208873Y-89359755D02*
X372681836Y-109055910D01*
X372681836Y-109055910D02*
X352985681Y-112528873D01*
X352985681Y-112528873D02*
X349512718Y-92832718D01*
X349512718Y-92832718D02*
X369208873Y-89359755D01*
G04 #@! TO.C,SW16*
X294298245Y-103050847D02*
X292735412Y-94187577D01*
X292735412Y-94187577D02*
X310461951Y-91061910D01*
X310461951Y-91061910D02*
X313587618Y-108788449D01*
X313587618Y-108788449D02*
X295861079Y-111914116D01*
X295861079Y-111914116D02*
X294298245Y-103050847D01*
X295049919Y-113072572D02*
X291576956Y-93376417D01*
X291576956Y-93376417D02*
X311273111Y-89903454D01*
X311273111Y-89903454D02*
X314746074Y-109599609D01*
X314746074Y-109599609D02*
X295049919Y-113072572D01*
G04 #@! TO.C,SW17*
X276088989Y-109485609D02*
X274526156Y-100622339D01*
X274526156Y-100622339D02*
X292252695Y-97496672D01*
X292252695Y-97496672D02*
X295378362Y-115223211D01*
X295378362Y-115223211D02*
X277651823Y-118348878D01*
X277651823Y-118348878D02*
X276088989Y-109485609D01*
X276840663Y-119507334D02*
X273367700Y-99811179D01*
X273367700Y-99811179D02*
X293063855Y-96338216D01*
X293063855Y-96338216D02*
X296536818Y-116034371D01*
X296536818Y-116034371D02*
X276840663Y-119507334D01*
G04 #@! TO.C,SW21*
X153974864Y-99882604D02*
X155537698Y-91019335D01*
X155537698Y-91019335D02*
X173264237Y-94145002D01*
X173264237Y-94145002D02*
X170138570Y-111871541D01*
X170138570Y-111871541D02*
X152412031Y-108745874D01*
X152412031Y-108745874D02*
X153974864Y-99882604D01*
X151253575Y-109557034D02*
X154726538Y-89860879D01*
X154726538Y-89860879D02*
X174422693Y-93333842D01*
X174422693Y-93333842D02*
X170949730Y-113029997D01*
X170949730Y-113029997D02*
X151253575Y-109557034D01*
G04 #@! TO.C,SW18*
X257328402Y-112793609D02*
X255765569Y-103930339D01*
X255765569Y-103930339D02*
X273492108Y-100804672D01*
X273492108Y-100804672D02*
X276617775Y-118531211D01*
X276617775Y-118531211D02*
X258891236Y-121656878D01*
X258891236Y-121656878D02*
X257328402Y-112793609D01*
X258080076Y-122815334D02*
X254607113Y-103119179D01*
X254607113Y-103119179D02*
X274303268Y-99646216D01*
X274303268Y-99646216D02*
X277776231Y-119342371D01*
X277776231Y-119342371D02*
X258080076Y-122815334D01*
G04 #@! TO.C,SW22*
X134662946Y-99701369D02*
X136225780Y-90838100D01*
X136225780Y-90838100D02*
X153952319Y-93963767D01*
X153952319Y-93963767D02*
X150826652Y-111690306D01*
X150826652Y-111690306D02*
X133100113Y-108564639D01*
X133100113Y-108564639D02*
X134662946Y-99701369D01*
X131941657Y-109375799D02*
X135414620Y-89679644D01*
X135414620Y-89679644D02*
X155110775Y-93152607D01*
X155110775Y-93152607D02*
X151637812Y-112848762D01*
X151637812Y-112848762D02*
X131941657Y-109375799D01*
G04 #@! TO.C,SW29*
X279396989Y-128246197D02*
X277834156Y-119382927D01*
X277834156Y-119382927D02*
X295560695Y-116257260D01*
X295560695Y-116257260D02*
X298686362Y-133983799D01*
X298686362Y-133983799D02*
X280959823Y-137109466D01*
X280959823Y-137109466D02*
X279396989Y-128246197D01*
X280148663Y-138267922D02*
X276675700Y-118571767D01*
X276675700Y-118571767D02*
X296371855Y-115098804D01*
X296371855Y-115098804D02*
X299844818Y-134794959D01*
X299844818Y-134794959D02*
X280148663Y-138267922D01*
G04 #@! TO.C,SW33*
X150666865Y-118643193D02*
X152229699Y-109779924D01*
X152229699Y-109779924D02*
X169956238Y-112905591D01*
X169956238Y-112905591D02*
X166830571Y-130632130D01*
X166830571Y-130632130D02*
X149104032Y-127506463D01*
X149104032Y-127506463D02*
X150666865Y-118643193D01*
X147945576Y-128317623D02*
X151418539Y-108621468D01*
X151418539Y-108621468D02*
X171114694Y-112094431D01*
X171114694Y-112094431D02*
X167641731Y-131790586D01*
X167641731Y-131790586D02*
X147945576Y-128317623D01*
G04 #@! TO.C,SW37*
X339538081Y-140209557D02*
X337975248Y-131346287D01*
X337975248Y-131346287D02*
X355701787Y-128220620D01*
X355701787Y-128220620D02*
X358827454Y-145947159D01*
X358827454Y-145947159D02*
X341100915Y-149072826D01*
X341100915Y-149072826D02*
X339538081Y-140209557D01*
X340289755Y-150231282D02*
X336816792Y-130535127D01*
X336816792Y-130535127D02*
X356512947Y-127062164D01*
X356512947Y-127062164D02*
X359985910Y-146758319D01*
X359985910Y-146758319D02*
X340289755Y-150231282D01*
G04 #@! TO.C,SW39*
X302016908Y-146825551D02*
X300454075Y-137962281D01*
X300454075Y-137962281D02*
X318180614Y-134836614D01*
X318180614Y-134836614D02*
X321306281Y-152563153D01*
X321306281Y-152563153D02*
X303579742Y-155688820D01*
X303579742Y-155688820D02*
X302016908Y-146825551D01*
X302768582Y-156847276D02*
X299295619Y-137151121D01*
X299295619Y-137151121D02*
X318991774Y-133678158D01*
X318991774Y-133678158D02*
X322464737Y-153374313D01*
X322464737Y-153374313D02*
X302768582Y-156847276D01*
G04 #@! TO.C,SW46*
X146256204Y-143657309D02*
X147819038Y-134794040D01*
X147819038Y-134794040D02*
X165545577Y-137919707D01*
X165545577Y-137919707D02*
X162419910Y-155646246D01*
X162419910Y-155646246D02*
X144693371Y-152520579D01*
X144693371Y-152520579D02*
X146256204Y-143657309D01*
X143534915Y-153331739D02*
X147007878Y-133635584D01*
X147007878Y-133635584D02*
X166704033Y-137108547D01*
X166704033Y-137108547D02*
X163231070Y-156804702D01*
X163231070Y-156804702D02*
X143534915Y-153331739D01*
G04 #@! TO.C,SW41*
X263105467Y-158918951D02*
X257320379Y-152024551D01*
X257320379Y-152024551D02*
X271109179Y-140454375D01*
X271109179Y-140454375D02*
X282679355Y-154243175D01*
X282679355Y-154243175D02*
X268890555Y-165813351D01*
X268890555Y-165813351D02*
X263105467Y-158918951D01*
X268767299Y-167222184D02*
X255911546Y-151901295D01*
X255911546Y-151901295D02*
X271232435Y-139045542D01*
X271232435Y-139045542D02*
X284088188Y-154366431D01*
X284088188Y-154366431D02*
X268767299Y-167222184D01*
G04 #@! TO.C,SW26*
X336230084Y-121448969D02*
X334667251Y-112585699D01*
X334667251Y-112585699D02*
X352393790Y-109460032D01*
X352393790Y-109460032D02*
X355519457Y-127186571D01*
X355519457Y-127186571D02*
X337792918Y-130312238D01*
X337792918Y-130312238D02*
X336230084Y-121448969D01*
X336981758Y-131470694D02*
X333508795Y-111774539D01*
X333508795Y-111774539D02*
X353204950Y-108301576D01*
X353204950Y-108301576D02*
X356677913Y-127997731D01*
X356677913Y-127997731D02*
X336981758Y-131470694D01*
G04 #@! TO.C,SW27*
X316918164Y-121630201D02*
X315355331Y-112766931D01*
X315355331Y-112766931D02*
X333081870Y-109641264D01*
X333081870Y-109641264D02*
X336207537Y-127367803D01*
X336207537Y-127367803D02*
X318480998Y-130493470D01*
X318480998Y-130493470D02*
X316918164Y-121630201D01*
X317669838Y-131651926D02*
X314196875Y-111955771D01*
X314196875Y-111955771D02*
X333893030Y-108482808D01*
X333893030Y-108482808D02*
X337365993Y-128178963D01*
X337365993Y-128178963D02*
X317669838Y-131651926D01*
G04 #@! TO.C,SW28*
X297606244Y-121811434D02*
X296043411Y-112948164D01*
X296043411Y-112948164D02*
X313769950Y-109822497D01*
X313769950Y-109822497D02*
X316895617Y-127549036D01*
X316895617Y-127549036D02*
X299169078Y-130674703D01*
X299169078Y-130674703D02*
X297606244Y-121811434D01*
X298357918Y-131833159D02*
X294884955Y-112137004D01*
X294884955Y-112137004D02*
X314581110Y-108664041D01*
X314581110Y-108664041D02*
X318054073Y-128360196D01*
X318054073Y-128360196D02*
X298357918Y-131833159D01*
G04 #@! TO.C,SW30*
X260636399Y-131554194D02*
X259073566Y-122690924D01*
X259073566Y-122690924D02*
X276800105Y-119565257D01*
X276800105Y-119565257D02*
X279925772Y-137291796D01*
X279925772Y-137291796D02*
X262199233Y-140417463D01*
X262199233Y-140417463D02*
X260636399Y-131554194D01*
X261388073Y-141575919D02*
X257915110Y-121879764D01*
X257915110Y-121879764D02*
X277611265Y-118406801D01*
X277611265Y-118406801D02*
X281084228Y-138102956D01*
X281084228Y-138102956D02*
X261388073Y-141575919D01*
G04 #@! TO.C,SW38*
X320777495Y-143517554D02*
X319214662Y-134654284D01*
X319214662Y-134654284D02*
X336941201Y-131528617D01*
X336941201Y-131528617D02*
X340066868Y-149255156D01*
X340066868Y-149255156D02*
X322340329Y-152380823D01*
X322340329Y-152380823D02*
X320777495Y-143517554D01*
X321529169Y-153539279D02*
X318056206Y-133843124D01*
X318056206Y-133843124D02*
X337752361Y-130370161D01*
X337752361Y-130370161D02*
X341225324Y-150066316D01*
X341225324Y-150066316D02*
X321529169Y-153539279D01*
G04 #@! TO.C,SW45*
X165016789Y-146965308D02*
X166579623Y-138102039D01*
X166579623Y-138102039D02*
X184306162Y-141227706D01*
X184306162Y-141227706D02*
X181180495Y-158954245D01*
X181180495Y-158954245D02*
X163453956Y-155828578D01*
X163453956Y-155828578D02*
X165016789Y-146965308D01*
X162295500Y-156639738D02*
X165768463Y-136943583D01*
X165768463Y-136943583D02*
X185464618Y-140416546D01*
X185464618Y-140416546D02*
X181991655Y-160112701D01*
X181991655Y-160112701D02*
X162295500Y-156639738D01*
G04 #@! TO.C,SW43*
X207649360Y-138172910D02*
X213434448Y-131278510D01*
X213434448Y-131278510D02*
X227223248Y-142848686D01*
X227223248Y-142848686D02*
X215653072Y-156637486D01*
X215653072Y-156637486D02*
X201864272Y-145067310D01*
X201864272Y-145067310D02*
X207649360Y-138172910D01*
X200455439Y-145190566D02*
X213311192Y-129869677D01*
X213311192Y-129869677D02*
X228632081Y-142725430D01*
X228632081Y-142725430D02*
X215776328Y-158046319D01*
X215776328Y-158046319D02*
X200455439Y-145190566D01*
G04 #@! TO.C,SW35*
X112043027Y-118280727D02*
X113605861Y-109417458D01*
X113605861Y-109417458D02*
X131332400Y-112543125D01*
X131332400Y-112543125D02*
X128206733Y-130269664D01*
X128206733Y-130269664D02*
X110480194Y-127143997D01*
X110480194Y-127143997D02*
X112043027Y-118280727D01*
X109321738Y-127955157D02*
X112794701Y-108259002D01*
X112794701Y-108259002D02*
X132490856Y-111731965D01*
X132490856Y-111731965D02*
X129017893Y-131428120D01*
X129017893Y-131428120D02*
X109321738Y-127955157D01*
G04 #@! TO.C,SW48*
X108735027Y-137041313D02*
X110297861Y-128178044D01*
X110297861Y-128178044D02*
X128024400Y-131303711D01*
X128024400Y-131303711D02*
X124898733Y-149030250D01*
X124898733Y-149030250D02*
X107172194Y-145904583D01*
X107172194Y-145904583D02*
X108735027Y-137041313D01*
X106013738Y-146715743D02*
X109486701Y-127019588D01*
X109486701Y-127019588D02*
X129182856Y-130492551D01*
X129182856Y-130492551D02*
X125709893Y-150188706D01*
X125709893Y-150188706D02*
X106013738Y-146715743D01*
G04 #@! TO.C,SW11*
X118659021Y-80759552D02*
X120221855Y-71896283D01*
X120221855Y-71896283D02*
X137948394Y-75021950D01*
X137948394Y-75021950D02*
X134822727Y-92748489D01*
X134822727Y-92748489D02*
X117096188Y-89622822D01*
X117096188Y-89622822D02*
X118659021Y-80759552D01*
X115937732Y-90433982D02*
X119410695Y-70737827D01*
X119410695Y-70737827D02*
X139106850Y-74210790D01*
X139106850Y-74210790D02*
X135633887Y-93906945D01*
X135633887Y-93906945D02*
X115937732Y-90433982D01*
G04 #@! TO.C,SW4*
X290990246Y-84290259D02*
X289427413Y-75426989D01*
X289427413Y-75426989D02*
X307153952Y-72301322D01*
X307153952Y-72301322D02*
X310279619Y-90027861D01*
X310279619Y-90027861D02*
X292553080Y-93153528D01*
X292553080Y-93153528D02*
X290990246Y-84290259D01*
X291741920Y-94311984D02*
X288268957Y-74615829D01*
X288268957Y-74615829D02*
X307965112Y-71142866D01*
X307965112Y-71142866D02*
X311438075Y-90839021D01*
X311438075Y-90839021D02*
X291741920Y-94311984D01*
G04 #@! TO.C,SW15*
X313610166Y-102869612D02*
X312047333Y-94006342D01*
X312047333Y-94006342D02*
X329773872Y-90880675D01*
X329773872Y-90880675D02*
X332899539Y-108607214D01*
X332899539Y-108607214D02*
X315173000Y-111732881D01*
X315173000Y-111732881D02*
X313610166Y-102869612D01*
X314361840Y-112891337D02*
X310888877Y-93195182D01*
X310888877Y-93195182D02*
X330585032Y-89722219D01*
X330585032Y-89722219D02*
X334057995Y-109418374D01*
X334057995Y-109418374D02*
X314361840Y-112891337D01*
G04 #@! TO.C,SW40*
X283256320Y-150133549D02*
X281693487Y-141270279D01*
X281693487Y-141270279D02*
X299420026Y-138144612D01*
X299420026Y-138144612D02*
X302545693Y-155871151D01*
X302545693Y-155871151D02*
X284819154Y-158996818D01*
X284819154Y-158996818D02*
X283256320Y-150133549D01*
X284007994Y-160155274D02*
X280535031Y-140459119D01*
X280535031Y-140459119D02*
X300231186Y-136986156D01*
X300231186Y-136986156D02*
X303704149Y-156682311D01*
X303704149Y-156682311D02*
X284007994Y-160155274D01*
G04 #@! TO.C,SW44*
X189105460Y-147346757D02*
X194890548Y-140452357D01*
X194890548Y-140452357D02*
X208679348Y-152022533D01*
X208679348Y-152022533D02*
X197109172Y-165811333D01*
X197109172Y-165811333D02*
X183320372Y-154241157D01*
X183320372Y-154241157D02*
X189105460Y-147346757D01*
X181911539Y-154364413D02*
X194767292Y-139043524D01*
X194767292Y-139043524D02*
X210088181Y-151899277D01*
X210088181Y-151899277D02*
X197232428Y-167220166D01*
X197232428Y-167220166D02*
X181911539Y-154364413D01*
G04 #@! TO.C,SW1*
X366752547Y-80570893D02*
X368315380Y-89434163D01*
X368315380Y-89434163D02*
X350588841Y-92559830D01*
X350588841Y-92559830D02*
X347463174Y-74833291D01*
X347463174Y-74833291D02*
X365189713Y-71707624D01*
X365189713Y-71707624D02*
X366752547Y-80570893D01*
X366000873Y-70549168D02*
X369473836Y-90245323D01*
X369473836Y-90245323D02*
X349777681Y-93718286D01*
X349777681Y-93718286D02*
X346304718Y-74022131D01*
X346304718Y-74022131D02*
X366000873Y-70549168D01*
G04 #@! TO.C,SW_RESET2*
X224099645Y-93795051D02*
X224099645Y-84795051D01*
X224099645Y-84795051D02*
X242099645Y-84795051D01*
X242099645Y-84795051D02*
X242099645Y-102795051D01*
X242099645Y-102795051D02*
X224099645Y-102795051D01*
X224099645Y-102795051D02*
X224099645Y-93795051D01*
X223099645Y-103795051D02*
X223099645Y-83795051D01*
X223099645Y-83795051D02*
X243099645Y-83795051D01*
X243099645Y-83795051D02*
X243099645Y-103795051D01*
X243099645Y-103795051D02*
X223099645Y-103795051D01*
G04 #@! TO.C,SW25*
X375989837Y-127816498D02*
X356293682Y-131289461D01*
X372516874Y-108120343D02*
X375989837Y-127816498D01*
X352820719Y-111593306D02*
X372516874Y-108120343D01*
X356293682Y-131289461D02*
X352820719Y-111593306D01*
X357104842Y-130131005D02*
X355542008Y-121267736D01*
X374831381Y-127005338D02*
X357104842Y-130131005D01*
X371705714Y-109278799D02*
X374831381Y-127005338D01*
X353979175Y-112404466D02*
X371705714Y-109278799D01*
X355542008Y-121267736D02*
X353979175Y-112404466D01*
G04 #@! TO.C,SW14*
X330200796Y-93013950D02*
X349896951Y-89540987D01*
X333673759Y-112710105D02*
X330200796Y-93013950D01*
X353369914Y-109237142D02*
X333673759Y-112710105D01*
X349896951Y-89540987D02*
X353369914Y-109237142D01*
X349085791Y-90699443D02*
X350648625Y-99562712D01*
X331359252Y-93825110D02*
X349085791Y-90699443D01*
X334484919Y-111551649D02*
X331359252Y-93825110D01*
X352211458Y-108425982D02*
X334484919Y-111551649D01*
X350648625Y-99562712D02*
X352211458Y-108425982D01*
G04 #@! TO.C,SW23*
X132325890Y-112667532D02*
X112629735Y-109194569D01*
X135798853Y-92971377D02*
X132325890Y-112667532D01*
X116102698Y-89498414D02*
X135798853Y-92971377D01*
X112629735Y-109194569D02*
X116102698Y-89498414D01*
X113788191Y-108383409D02*
X115351024Y-99520139D01*
X131514730Y-111509076D02*
X113788191Y-108383409D01*
X134640397Y-93782537D02*
X131514730Y-111509076D01*
X116913858Y-90656870D02*
X134640397Y-93782537D01*
X115351024Y-99520139D02*
X116913858Y-90656870D01*
G04 #@! TO.C,SW24*
X96790775Y-89317180D02*
X116486930Y-92790143D01*
X93317812Y-109013335D02*
X96790775Y-89317180D01*
X113013967Y-112486298D02*
X93317812Y-109013335D01*
X116486930Y-92790143D02*
X113013967Y-112486298D01*
X115328474Y-93601303D02*
X113765641Y-102464573D01*
X97601935Y-90475636D02*
X115328474Y-93601303D01*
X94476268Y-108202175D02*
X97601935Y-90475636D01*
X112202807Y-111327842D02*
X94476268Y-108202175D01*
X113765641Y-102464573D02*
X112202807Y-111327842D01*
G04 #@! TO.C,SW36*
X109705972Y-131246887D02*
X90009817Y-127773924D01*
X113178935Y-111550732D02*
X109705972Y-131246887D01*
X93482780Y-108077769D02*
X113178935Y-111550732D01*
X90009817Y-127773924D02*
X93482780Y-108077769D01*
X91168273Y-126962764D02*
X92731106Y-118099494D01*
X108894812Y-130088431D02*
X91168273Y-126962764D01*
X112020479Y-112361892D02*
X108894812Y-130088431D01*
X94293940Y-109236225D02*
X112020479Y-112361892D01*
X92731106Y-118099494D02*
X94293940Y-109236225D01*
G04 #@! TD*
M02*
