M48
; DRILL file {KiCad (6.0.0-rc1-dev-1469-g932b9a334)} date Wednesday, August 07, 2019 at 07:37:08 AM
; FORMAT={-:-/ absolute / metric / decimal}
; #@! TF.CreationDate,2019-08-07T07:37:08-07:00
; #@! TF.GenerationSoftware,Kicad,Pcbnew,(6.0.0-rc1-dev-1469-g932b9a334)
; #@! TF.FileFunction,NonPlated,1,2,NPTH
FMAT,2
METRIC
T1C0.650
T2C0.900
T3C1.700
T4C2.500
T5C2.950
T6C3.980
%
G90
G05
T1
X105.772Y-76.806
X111.552Y-76.806
T2
X249.212Y-76.145
T3
X228.032Y-93.795
X238.192Y-93.795
X247.12Y-146.334
X254.903Y-139.803
X122.532Y-81.44
X132.537Y-83.204
X324.65Y-142.836
X334.656Y-141.072
X352.799Y-83.065
X362.804Y-81.301
X211.121Y-139.9
X218.904Y-146.431
X320.791Y-120.949
X330.796Y-119.185
X112.608Y-137.722
X122.613Y-139.486
X96.604Y-118.78
X106.609Y-120.544
X99.912Y-100.019
X109.917Y-101.784
X264.509Y-130.873
X274.515Y-129.109
X172.749Y-125.758
X182.754Y-127.523
X356.107Y-101.826
X366.112Y-100.062
X119.224Y-100.2
X129.229Y-101.965
X168.889Y-147.646
X178.895Y-149.41
X192.12Y-149.866
X199.903Y-156.397
X198.125Y-91.545
X208.131Y-93.309
X261.201Y-112.113
X271.207Y-110.348
X266.12Y-156.399
X273.903Y-149.868
X343.411Y-139.528
X353.416Y-137.764
X305.889Y-146.144
X315.895Y-144.38
X191.509Y-129.066
X201.515Y-130.831
X141.844Y-81.621
X151.849Y-83.385
X161.155Y-81.802
X171.161Y-83.567
X333.487Y-83.247
X343.492Y-81.482
X131.368Y-141.03
X141.374Y-142.794
X287.129Y-149.452
X297.135Y-147.688
X340.103Y-120.768
X350.108Y-119.004
X359.415Y-120.587
X369.42Y-118.822
X157.847Y-100.563
X167.853Y-102.327
X176.057Y-106.998
X186.062Y-108.762
X194.817Y-110.306
X204.823Y-112.07
X279.962Y-108.805
X289.967Y-107.04
X298.171Y-102.37
X308.176Y-100.606
X314.175Y-83.428
X324.18Y-81.664
X336.795Y-102.007
X346.8Y-100.243
X283.27Y-127.565
X293.275Y-125.801
X301.479Y-121.13
X311.484Y-119.366
X276.654Y-90.044
X286.659Y-88.28
X103.209Y-81.213
X113.215Y-82.977
X135.228Y-119.142
X145.233Y-120.907
X317.483Y-102.189
X327.488Y-100.424
X115.916Y-118.961
X125.921Y-120.725
X150.129Y-144.338
X160.134Y-146.102
X257.893Y-93.352
X267.899Y-91.588
X294.863Y-83.609
X304.868Y-81.845
X179.365Y-88.237
X189.37Y-90.001
X138.536Y-100.382
X148.541Y-102.146
X154.539Y-119.324
X164.545Y-121.088
T5
X230.572Y-88.715
X236.922Y-91.255
X245.8Y-140.81
X252.298Y-138.674
X123.341Y-84.162
X129.154Y-87.766
X326.269Y-137.393
X332.964Y-138.791
X354.418Y-77.622
X361.112Y-79.02
X216.332Y-137.641
X219.563Y-143.668
X322.41Y-115.505
X329.105Y-116.904
X115.991Y-133.16
X121.804Y-136.764
X99.987Y-114.218
X105.8Y-117.822
X100.721Y-102.741
X106.534Y-106.345
X266.128Y-125.429
X272.823Y-126.828
X176.132Y-121.197
X181.945Y-124.801
X357.798Y-104.107
X364.493Y-105.506
X122.607Y-95.639
X128.42Y-99.243
X172.273Y-143.084
X178.085Y-146.688
X197.332Y-147.607
X200.563Y-153.635
X201.509Y-86.983
X207.321Y-90.587
X262.82Y-106.669
X269.515Y-108.067
X264.801Y-150.875
X271.298Y-148.739
X345.03Y-134.085
X351.725Y-135.483
X307.509Y-140.701
X314.203Y-142.099
X194.893Y-124.505
X200.705Y-128.109
X145.227Y-77.059
X151.04Y-80.663
X164.539Y-77.241
X170.351Y-80.845
X335.106Y-77.803
X341.801Y-79.202
X134.752Y-136.468
X140.564Y-140.072
X288.748Y-144.009
X295.443Y-145.407
X341.722Y-115.324
X348.417Y-116.723
X361.034Y-115.143
X367.728Y-116.542
X161.231Y-96.001
X167.043Y-99.605
X179.44Y-102.436
X185.253Y-106.04
X198.201Y-105.744
X204.013Y-109.348
X281.581Y-103.361
X288.275Y-104.759
X299.79Y-96.926
X306.485Y-98.325
X315.794Y-77.984
X322.489Y-79.383
X338.486Y-104.288
X345.181Y-105.687
X284.889Y-122.121
X291.583Y-123.52
X303.098Y-115.686
X309.793Y-117.085
X278.273Y-84.6
X284.967Y-85.999
X104.019Y-83.935
X109.831Y-87.539
X138.611Y-114.581
X144.424Y-118.185
X319.102Y-96.745
X325.797Y-98.143
X119.299Y-114.399
X125.112Y-118.003
X153.512Y-139.776
X159.325Y-143.38
X259.512Y-87.908
X266.207Y-89.307
X296.482Y-78.165
X303.177Y-79.564
X182.748Y-83.675
X188.561Y-87.279
X141.919Y-95.82
X147.732Y-99.424
X157.923Y-114.762
X163.735Y-118.366
T6
X233.112Y-93.795
X251.012Y-143.069
X127.534Y-82.322
X329.653Y-141.954
X357.801Y-82.183
X215.012Y-143.165
X325.794Y-120.067
X117.61Y-138.604
X101.607Y-119.662
X104.914Y-100.901
X269.512Y-129.991
X177.752Y-126.64
X361.109Y-100.944
X124.226Y-101.083
X173.892Y-148.528
X196.012Y-153.131
X203.128Y-92.427
X266.204Y-111.23
X270.012Y-153.133
X348.413Y-138.646
X310.892Y-145.262
X196.512Y-129.948
X146.846Y-82.503
X166.158Y-82.684
X338.489Y-82.365
X136.371Y-141.912
X292.132Y-148.57
X345.105Y-119.886
X364.417Y-119.705
X162.85Y-101.445
X181.06Y-107.88
X199.82Y-111.188
X284.964Y-107.922
X303.174Y-101.488
X319.178Y-82.546
X341.797Y-101.125
X288.272Y-126.683
X306.482Y-120.248
X281.656Y-89.162
X108.212Y-82.095
X140.23Y-120.024
X322.486Y-101.306
X120.918Y-119.843
X155.132Y-145.22
X262.896Y-92.47
X299.866Y-82.727
X184.368Y-89.119
X143.538Y-101.264
X159.542Y-120.206
T4
G00X371.213Y-128.294
M15
G01X375.713Y-128.294
M16
G05
G00X90.225Y-128.294
M15
G01X94.725Y-128.294
M16
G05
T0
M30
