G04 #@! TF.GenerationSoftware,KiCad,Pcbnew,(6.0.0-rc1-dev-1469-g932b9a334)*
G04 #@! TF.CreationDate,2019-08-07T07:36:24-07:00
G04 #@! TF.ProjectId,Laptreus-v2,4c617074-7265-4757-932d-76322e6b6963,rev?*
G04 #@! TF.SameCoordinates,Original*
G04 #@! TF.FileFunction,Paste,Top*
G04 #@! TF.FilePolarity,Positive*
%FSLAX46Y46*%
G04 Gerber Fmt 4.6, Leading zero omitted, Abs format (unit mm)*
G04 Created by KiCad (PCBNEW (6.0.0-rc1-dev-1469-g932b9a334)) date Wednesday, August 07, 2019 at 07:36:24 AM*
%MOMM*%
%LPD*%
G04 APERTURE LIST*
%ADD10R,1.000000X4.600000*%
%ADD11R,1.600000X3.400000*%
%ADD12C,2.500000*%
%ADD13C,0.100000*%
%ADD14R,1.140000X2.030000*%
%ADD15R,0.300000X1.450000*%
%ADD16R,0.600000X1.450000*%
%ADD17R,2.550000X2.500000*%
%ADD18R,1.500000X0.550000*%
%ADD19R,0.550000X1.500000*%
%ADD20R,1.500000X1.300000*%
%ADD21R,1.300000X1.500000*%
%ADD22R,1.300000X1.200000*%
%ADD23R,1.200000X1.300000*%
%ADD24C,1.200000*%
%ADD25R,1.700000X0.700000*%
%ADD26R,0.550000X1.200000*%
%ADD27R,1.200000X0.600000*%
%ADD28R,1.850000X0.450000*%
%ADD29R,0.450000X1.850000*%
%ADD30R,1.400000X1.400000*%
G04 APERTURE END LIST*
D10*
G04 #@! TO.C,X2*
X253761771Y-130944689D03*
X255761771Y-130944689D03*
D11*
X251361771Y-125744689D03*
X258161771Y-125744689D03*
G04 #@! TD*
D12*
G04 #@! TO.C,SW11*
X119855014Y-83547119D03*
D13*
G36*
X121327704Y-82537511D02*
G01*
X120893584Y-84999530D01*
X118382324Y-84556727D01*
X118816444Y-82094708D01*
X121327704Y-82537511D01*
X121327704Y-82537511D01*
G37*
D12*
X132649763Y-88382362D03*
D13*
G36*
X134122453Y-87372754D02*
G01*
X133688333Y-89834773D01*
X131177073Y-89391970D01*
X131611193Y-86929951D01*
X134122453Y-87372754D01*
X134122453Y-87372754D01*
G37*
G04 #@! TD*
D14*
G04 #@! TO.C,F1*
X207936772Y-80819689D03*
X205536772Y-80819689D03*
G04 #@! TD*
D15*
G04 #@! TO.C,J1*
X108912086Y-78251327D03*
X108412086Y-78251327D03*
X107912086Y-78251327D03*
X109412086Y-78251327D03*
X107412086Y-78251327D03*
X109912086Y-78251327D03*
X106912086Y-78251327D03*
X110412086Y-78251327D03*
D16*
X111112086Y-78251327D03*
X106212086Y-78251327D03*
X111887086Y-78251327D03*
X105437086Y-78251327D03*
G04 #@! TD*
D12*
G04 #@! TO.C,SW12*
X100532369Y-83319789D03*
D13*
G36*
X102005059Y-82310181D02*
G01*
X101570939Y-84772200D01*
X99059679Y-84329397D01*
X99493799Y-81867378D01*
X102005059Y-82310181D01*
X102005059Y-82310181D01*
G37*
D12*
X113327118Y-88155032D03*
D13*
G36*
X114799808Y-87145424D02*
G01*
X114365688Y-89607443D01*
X111854428Y-89164640D01*
X112288548Y-86702621D01*
X114799808Y-87145424D01*
X114799808Y-87145424D01*
G37*
G04 #@! TD*
D12*
G04 #@! TO.C,SW47*
X144050414Y-140686684D03*
D13*
G36*
X142577724Y-141696292D02*
G01*
X143011844Y-139234273D01*
X145523104Y-139677076D01*
X145088984Y-142139095D01*
X142577724Y-141696292D01*
X142577724Y-141696292D01*
G37*
D12*
X131255665Y-135851441D03*
D13*
G36*
X129782975Y-136861049D02*
G01*
X130217095Y-134399030D01*
X132728355Y-134841833D01*
X132294235Y-137303852D01*
X129782975Y-136861049D01*
X129782975Y-136861049D01*
G37*
G04 #@! TD*
D12*
G04 #@! TO.C,SW24*
X97235096Y-102126473D03*
D13*
G36*
X98707786Y-101116865D02*
G01*
X98273666Y-103578884D01*
X95762406Y-103136081D01*
X96196526Y-100674062D01*
X98707786Y-101116865D01*
X98707786Y-101116865D01*
G37*
D12*
X110029845Y-106961716D03*
D13*
G36*
X111502535Y-105952108D02*
G01*
X111068415Y-108414127D01*
X108557155Y-107971324D01*
X108991275Y-105509305D01*
X111502535Y-105952108D01*
X111502535Y-105952108D01*
G37*
G04 #@! TD*
D17*
G04 #@! TO.C,SW_RESET2*
X240461772Y-91254688D03*
X227021772Y-88714688D03*
G04 #@! TD*
D12*
G04 #@! TO.C,SW1*
X364598675Y-78405636D03*
D13*
G36*
X363560105Y-79858047D02*
G01*
X363125985Y-77396028D01*
X365637245Y-76953225D01*
X366071365Y-79415244D01*
X363560105Y-79858047D01*
X363560105Y-79858047D01*
G37*
D12*
X350921792Y-78238056D03*
D13*
G36*
X349883222Y-79690467D02*
G01*
X349449102Y-77228448D01*
X351960362Y-76785645D01*
X352394482Y-79247664D01*
X349883222Y-79690467D01*
X349883222Y-79690467D01*
G37*
G04 #@! TD*
D12*
G04 #@! TO.C,SW2*
X345286756Y-78586869D03*
D13*
G36*
X344248186Y-80039280D02*
G01*
X343814066Y-77577261D01*
X346325326Y-77134458D01*
X346759446Y-79596477D01*
X344248186Y-80039280D01*
X344248186Y-80039280D01*
G37*
D12*
X331609873Y-78419289D03*
D13*
G36*
X330571303Y-79871700D02*
G01*
X330137183Y-77409681D01*
X332648443Y-76966878D01*
X333082563Y-79428897D01*
X330571303Y-79871700D01*
X330571303Y-79871700D01*
G37*
G04 #@! TD*
D12*
G04 #@! TO.C,SW3*
X325974835Y-78768103D03*
D13*
G36*
X324936265Y-80220514D02*
G01*
X324502145Y-77758495D01*
X327013405Y-77315692D01*
X327447525Y-79777711D01*
X324936265Y-80220514D01*
X324936265Y-80220514D01*
G37*
D12*
X312297952Y-78600523D03*
D13*
G36*
X311259382Y-80052934D02*
G01*
X310825262Y-77590915D01*
X313336522Y-77148112D01*
X313770642Y-79610131D01*
X311259382Y-80052934D01*
X311259382Y-80052934D01*
G37*
G04 #@! TD*
D12*
G04 #@! TO.C,SW4*
X306662914Y-78949336D03*
D13*
G36*
X305624344Y-80401747D02*
G01*
X305190224Y-77939728D01*
X307701484Y-77496925D01*
X308135604Y-79958944D01*
X305624344Y-80401747D01*
X305624344Y-80401747D01*
G37*
D12*
X292986031Y-78781756D03*
D13*
G36*
X291947461Y-80234167D02*
G01*
X291513341Y-77772148D01*
X294024601Y-77329345D01*
X294458721Y-79791364D01*
X291947461Y-80234167D01*
X291947461Y-80234167D01*
G37*
G04 #@! TD*
D12*
G04 #@! TO.C,SW5*
X288453661Y-85384098D03*
D13*
G36*
X287415091Y-86836509D02*
G01*
X286980971Y-84374490D01*
X289492231Y-83931687D01*
X289926351Y-86393706D01*
X287415091Y-86836509D01*
X287415091Y-86836509D01*
G37*
D12*
X274776778Y-85216518D03*
D13*
G36*
X273738208Y-86668929D02*
G01*
X273304088Y-84206910D01*
X275815348Y-83764107D01*
X276249468Y-86226126D01*
X273738208Y-86668929D01*
X273738208Y-86668929D01*
G37*
G04 #@! TD*
D12*
G04 #@! TO.C,SW6*
X269693072Y-88692095D03*
D13*
G36*
X268654502Y-90144506D02*
G01*
X268220382Y-87682487D01*
X270731642Y-87239684D01*
X271165762Y-89701703D01*
X268654502Y-90144506D01*
X268654502Y-90144506D01*
G37*
D12*
X256016189Y-88524515D03*
D13*
G36*
X254977619Y-89976926D02*
G01*
X254543499Y-87514907D01*
X257054759Y-87072104D01*
X257488879Y-89534123D01*
X254977619Y-89976926D01*
X254977619Y-89976926D01*
G37*
G04 #@! TD*
D12*
G04 #@! TO.C,SW7*
X210807504Y-91202148D03*
D13*
G36*
X209334814Y-92211756D02*
G01*
X209768934Y-89749737D01*
X212280194Y-90192540D01*
X211846074Y-92654559D01*
X209334814Y-92211756D01*
X209334814Y-92211756D01*
G37*
D12*
X198012755Y-86366905D03*
D13*
G36*
X196540065Y-87376513D02*
G01*
X196974185Y-84914494D01*
X199485445Y-85357297D01*
X199051325Y-87819316D01*
X196540065Y-87376513D01*
X196540065Y-87376513D01*
G37*
G04 #@! TD*
D12*
G04 #@! TO.C,SW8*
X192046916Y-87894151D03*
D13*
G36*
X190574226Y-88903759D02*
G01*
X191008346Y-86441740D01*
X193519606Y-86884543D01*
X193085486Y-89346562D01*
X190574226Y-88903759D01*
X190574226Y-88903759D01*
G37*
D12*
X179252167Y-83058908D03*
D13*
G36*
X177779477Y-84068516D02*
G01*
X178213597Y-81606497D01*
X180724857Y-82049300D01*
X180290737Y-84511319D01*
X177779477Y-84068516D01*
X177779477Y-84068516D01*
G37*
G04 #@! TD*
D12*
G04 #@! TO.C,SW9*
X173837661Y-81459389D03*
D13*
G36*
X172364971Y-82468997D02*
G01*
X172799091Y-80006978D01*
X175310351Y-80449781D01*
X174876231Y-82911800D01*
X172364971Y-82468997D01*
X172364971Y-82468997D01*
G37*
D12*
X161042912Y-76624146D03*
D13*
G36*
X159570222Y-77633754D02*
G01*
X160004342Y-75171735D01*
X162515602Y-75614538D01*
X162081482Y-78076557D01*
X159570222Y-77633754D01*
X159570222Y-77633754D01*
G37*
G04 #@! TD*
D12*
G04 #@! TO.C,SW10*
X154525742Y-81278155D03*
D13*
G36*
X153053052Y-82287763D02*
G01*
X153487172Y-79825744D01*
X155998432Y-80268547D01*
X155564312Y-82730566D01*
X153053052Y-82287763D01*
X153053052Y-82287763D01*
G37*
D12*
X141730993Y-76442912D03*
D13*
G36*
X140258303Y-77452520D02*
G01*
X140692423Y-74990501D01*
X143203683Y-75433304D01*
X142769563Y-77895323D01*
X140258303Y-77452520D01*
X140258303Y-77452520D01*
G37*
G04 #@! TD*
D12*
G04 #@! TO.C,SW13*
X354312133Y-104721677D03*
D13*
G36*
X355350703Y-103269266D02*
G01*
X355784823Y-105731285D01*
X353273563Y-106174088D01*
X352839443Y-103712069D01*
X355350703Y-103269266D01*
X355350703Y-103269266D01*
G37*
D12*
X367989016Y-104889257D03*
D13*
G36*
X369027586Y-103436846D02*
G01*
X369461706Y-105898865D01*
X366950446Y-106341668D01*
X366516326Y-103879649D01*
X369027586Y-103436846D01*
X369027586Y-103436846D01*
G37*
G04 #@! TD*
D12*
G04 #@! TO.C,SW14*
X335000211Y-104902908D03*
D13*
G36*
X336038781Y-103450497D02*
G01*
X336472901Y-105912516D01*
X333961641Y-106355319D01*
X333527521Y-103893300D01*
X336038781Y-103450497D01*
X336038781Y-103450497D01*
G37*
D12*
X348677094Y-105070488D03*
D13*
G36*
X349715664Y-103618077D02*
G01*
X350149784Y-106080096D01*
X347638524Y-106522899D01*
X347204404Y-104060880D01*
X349715664Y-103618077D01*
X349715664Y-103618077D01*
G37*
G04 #@! TD*
D12*
G04 #@! TO.C,SW15*
X329282834Y-97528689D03*
D13*
G36*
X328244264Y-98981100D02*
G01*
X327810144Y-96519081D01*
X330321404Y-96076278D01*
X330755524Y-98538297D01*
X328244264Y-98981100D01*
X328244264Y-98981100D01*
G37*
D12*
X315605951Y-97361109D03*
D13*
G36*
X314567381Y-98813520D02*
G01*
X314133261Y-96351501D01*
X316644521Y-95908698D01*
X317078641Y-98370717D01*
X314567381Y-98813520D01*
X314567381Y-98813520D01*
G37*
G04 #@! TD*
D12*
G04 #@! TO.C,SW16*
X309970912Y-97709923D03*
D13*
G36*
X308932342Y-99162334D02*
G01*
X308498222Y-96700315D01*
X311009482Y-96257512D01*
X311443602Y-98719531D01*
X308932342Y-99162334D01*
X308932342Y-99162334D01*
G37*
D12*
X296294029Y-97542343D03*
D13*
G36*
X295255459Y-98994754D02*
G01*
X294821339Y-96532735D01*
X297332599Y-96089932D01*
X297766719Y-98551951D01*
X295255459Y-98994754D01*
X295255459Y-98994754D01*
G37*
G04 #@! TD*
D12*
G04 #@! TO.C,SW17*
X291761657Y-104144686D03*
D13*
G36*
X290723087Y-105597097D02*
G01*
X290288967Y-103135078D01*
X292800227Y-102692275D01*
X293234347Y-105154294D01*
X290723087Y-105597097D01*
X290723087Y-105597097D01*
G37*
D12*
X278084774Y-103977106D03*
D13*
G36*
X277046204Y-105429517D02*
G01*
X276612084Y-102967498D01*
X279123344Y-102524695D01*
X279557464Y-104986714D01*
X277046204Y-105429517D01*
X277046204Y-105429517D01*
G37*
G04 #@! TD*
D12*
G04 #@! TO.C,SW18*
X273001070Y-107452684D03*
D13*
G36*
X271962500Y-108905095D02*
G01*
X271528380Y-106443076D01*
X274039640Y-106000273D01*
X274473760Y-108462292D01*
X271962500Y-108905095D01*
X271962500Y-108905095D01*
G37*
D12*
X259324187Y-107285104D03*
D13*
G36*
X258285617Y-108737515D02*
G01*
X257851497Y-106275496D01*
X260362757Y-105832693D01*
X260796877Y-108294712D01*
X258285617Y-108737515D01*
X258285617Y-108737515D01*
G37*
G04 #@! TD*
D12*
G04 #@! TO.C,SW19*
X207499506Y-109962736D03*
D13*
G36*
X206026816Y-110972344D02*
G01*
X206460936Y-108510325D01*
X208972196Y-108953128D01*
X208538076Y-111415147D01*
X206026816Y-110972344D01*
X206026816Y-110972344D01*
G37*
D12*
X194704757Y-105127493D03*
D13*
G36*
X193232067Y-106137101D02*
G01*
X193666187Y-103675082D01*
X196177447Y-104117885D01*
X195743327Y-106579904D01*
X193232067Y-106137101D01*
X193232067Y-106137101D01*
G37*
G04 #@! TD*
D12*
G04 #@! TO.C,SW20*
X188738920Y-106654737D03*
D13*
G36*
X187266230Y-107664345D02*
G01*
X187700350Y-105202326D01*
X190211610Y-105645129D01*
X189777490Y-108107148D01*
X187266230Y-107664345D01*
X187266230Y-107664345D01*
G37*
D12*
X175944171Y-101819494D03*
D13*
G36*
X174471481Y-102829102D02*
G01*
X174905601Y-100367083D01*
X177416861Y-100809886D01*
X176982741Y-103271905D01*
X174471481Y-102829102D01*
X174471481Y-102829102D01*
G37*
G04 #@! TD*
D12*
G04 #@! TO.C,SW21*
X170529664Y-100219977D03*
D13*
G36*
X169056974Y-101229585D02*
G01*
X169491094Y-98767566D01*
X172002354Y-99210369D01*
X171568234Y-101672388D01*
X169056974Y-101229585D01*
X169056974Y-101229585D01*
G37*
D12*
X157734915Y-95384734D03*
D13*
G36*
X156262225Y-96394342D02*
G01*
X156696345Y-93932323D01*
X159207605Y-94375126D01*
X158773485Y-96837145D01*
X156262225Y-96394342D01*
X156262225Y-96394342D01*
G37*
G04 #@! TD*
D12*
G04 #@! TO.C,SW22*
X151217745Y-100038742D03*
D13*
G36*
X149745055Y-101048350D02*
G01*
X150179175Y-98586331D01*
X152690435Y-99029134D01*
X152256315Y-101491153D01*
X149745055Y-101048350D01*
X149745055Y-101048350D01*
G37*
D12*
X138422996Y-95203499D03*
D13*
G36*
X136950306Y-96213107D02*
G01*
X137384426Y-93751088D01*
X139895686Y-94193891D01*
X139461566Y-96655910D01*
X136950306Y-96213107D01*
X136950306Y-96213107D01*
G37*
G04 #@! TD*
D12*
G04 #@! TO.C,SW23*
X131905822Y-99857510D03*
D13*
G36*
X130433132Y-100867118D02*
G01*
X130867252Y-98405099D01*
X133378512Y-98847902D01*
X132944392Y-101309921D01*
X130433132Y-100867118D01*
X130433132Y-100867118D01*
G37*
D12*
X119111073Y-95022267D03*
D13*
G36*
X117638383Y-96031875D02*
G01*
X118072503Y-93569856D01*
X120583763Y-94012659D01*
X120149643Y-96474678D01*
X117638383Y-96031875D01*
X117638383Y-96031875D01*
G37*
G04 #@! TD*
D12*
G04 #@! TO.C,SW25*
X371214675Y-115926811D03*
D13*
G36*
X370176105Y-117379222D02*
G01*
X369741985Y-114917203D01*
X372253245Y-114474400D01*
X372687365Y-116936419D01*
X370176105Y-117379222D01*
X370176105Y-117379222D01*
G37*
D12*
X357537792Y-115759231D03*
D13*
G36*
X356499222Y-117211642D02*
G01*
X356065102Y-114749623D01*
X358576362Y-114306820D01*
X359010482Y-116768839D01*
X356499222Y-117211642D01*
X356499222Y-117211642D01*
G37*
G04 #@! TD*
D12*
G04 #@! TO.C,SW26*
X351902751Y-116108045D03*
D13*
G36*
X350864181Y-117560456D02*
G01*
X350430061Y-115098437D01*
X352941321Y-114655634D01*
X353375441Y-117117653D01*
X350864181Y-117560456D01*
X350864181Y-117560456D01*
G37*
D12*
X338225868Y-115940465D03*
D13*
G36*
X337187298Y-117392876D02*
G01*
X336753178Y-114930857D01*
X339264438Y-114488054D01*
X339698558Y-116950073D01*
X337187298Y-117392876D01*
X337187298Y-117392876D01*
G37*
G04 #@! TD*
D12*
G04 #@! TO.C,SW27*
X332590830Y-116289278D03*
D13*
G36*
X331552260Y-117741689D02*
G01*
X331118140Y-115279670D01*
X333629400Y-114836867D01*
X334063520Y-117298886D01*
X331552260Y-117741689D01*
X331552260Y-117741689D01*
G37*
D12*
X318913947Y-116121698D03*
D13*
G36*
X317875377Y-117574109D02*
G01*
X317441257Y-115112090D01*
X319952517Y-114669287D01*
X320386637Y-117131306D01*
X317875377Y-117574109D01*
X317875377Y-117574109D01*
G37*
G04 #@! TD*
D12*
G04 #@! TO.C,SW28*
X313278912Y-116470511D03*
D13*
G36*
X312240342Y-117922922D02*
G01*
X311806222Y-115460903D01*
X314317482Y-115018100D01*
X314751602Y-117480119D01*
X312240342Y-117922922D01*
X312240342Y-117922922D01*
G37*
D12*
X299602029Y-116302931D03*
D13*
G36*
X298563459Y-117755342D02*
G01*
X298129339Y-115293323D01*
X300640599Y-114850520D01*
X301074719Y-117312539D01*
X298563459Y-117755342D01*
X298563459Y-117755342D01*
G37*
G04 #@! TD*
D12*
G04 #@! TO.C,SW29*
X295069656Y-122905273D03*
D13*
G36*
X294031086Y-124357684D02*
G01*
X293596966Y-121895665D01*
X296108226Y-121452862D01*
X296542346Y-123914881D01*
X294031086Y-124357684D01*
X294031086Y-124357684D01*
G37*
D12*
X281392773Y-122737693D03*
D13*
G36*
X280354203Y-124190104D02*
G01*
X279920083Y-121728085D01*
X282431343Y-121285282D01*
X282865463Y-123747301D01*
X280354203Y-124190104D01*
X280354203Y-124190104D01*
G37*
G04 #@! TD*
D12*
G04 #@! TO.C,SW30*
X276309067Y-126213270D03*
D13*
G36*
X275270497Y-127665681D02*
G01*
X274836377Y-125203662D01*
X277347637Y-124760859D01*
X277781757Y-127222878D01*
X275270497Y-127665681D01*
X275270497Y-127665681D01*
G37*
D12*
X262632184Y-126045690D03*
D13*
G36*
X261593614Y-127498101D02*
G01*
X261159494Y-125036082D01*
X263670754Y-124593279D01*
X264104874Y-127055298D01*
X261593614Y-127498101D01*
X261593614Y-127498101D01*
G37*
G04 #@! TD*
D12*
G04 #@! TO.C,SW31*
X204191508Y-128723325D03*
D13*
G36*
X202718818Y-129732933D02*
G01*
X203152938Y-127270914D01*
X205664198Y-127713717D01*
X205230078Y-130175736D01*
X202718818Y-129732933D01*
X202718818Y-129732933D01*
G37*
D12*
X191396759Y-123888082D03*
D13*
G36*
X189924069Y-124897690D02*
G01*
X190358189Y-122435671D01*
X192869449Y-122878474D01*
X192435329Y-125340493D01*
X189924069Y-124897690D01*
X189924069Y-124897690D01*
G37*
G04 #@! TD*
D12*
G04 #@! TO.C,SW32*
X185430922Y-125415327D03*
D13*
G36*
X183958232Y-126424935D02*
G01*
X184392352Y-123962916D01*
X186903612Y-124405719D01*
X186469492Y-126867738D01*
X183958232Y-126424935D01*
X183958232Y-126424935D01*
G37*
D12*
X172636173Y-120580084D03*
D13*
G36*
X171163483Y-121589692D02*
G01*
X171597603Y-119127673D01*
X174108863Y-119570476D01*
X173674743Y-122032495D01*
X171163483Y-121589692D01*
X171163483Y-121589692D01*
G37*
G04 #@! TD*
D12*
G04 #@! TO.C,SW33*
X167221665Y-118980564D03*
D13*
G36*
X165748975Y-119990172D02*
G01*
X166183095Y-117528153D01*
X168694355Y-117970956D01*
X168260235Y-120432975D01*
X165748975Y-119990172D01*
X165748975Y-119990172D01*
G37*
D12*
X154426916Y-114145321D03*
D13*
G36*
X152954226Y-115154929D02*
G01*
X153388346Y-112692910D01*
X155899606Y-113135713D01*
X155465486Y-115597732D01*
X152954226Y-115154929D01*
X152954226Y-115154929D01*
G37*
G04 #@! TD*
D12*
G04 #@! TO.C,SW34*
X147909745Y-118799331D03*
D13*
G36*
X146437055Y-119808939D02*
G01*
X146871175Y-117346920D01*
X149382435Y-117789723D01*
X148948315Y-120251742D01*
X146437055Y-119808939D01*
X146437055Y-119808939D01*
G37*
D12*
X135114996Y-113964088D03*
D13*
G36*
X133642306Y-114973696D02*
G01*
X134076426Y-112511677D01*
X136587686Y-112954480D01*
X136153566Y-115416499D01*
X133642306Y-114973696D01*
X133642306Y-114973696D01*
G37*
G04 #@! TD*
D12*
G04 #@! TO.C,SW37*
X355210749Y-134868633D03*
D13*
G36*
X354172179Y-136321044D02*
G01*
X353738059Y-133859025D01*
X356249319Y-133416222D01*
X356683439Y-135878241D01*
X354172179Y-136321044D01*
X354172179Y-136321044D01*
G37*
D12*
X341533866Y-134701053D03*
D13*
G36*
X340495296Y-136153464D02*
G01*
X340061176Y-133691445D01*
X342572436Y-133248642D01*
X343006556Y-135710661D01*
X340495296Y-136153464D01*
X340495296Y-136153464D01*
G37*
G04 #@! TD*
D12*
G04 #@! TO.C,SW38*
X336450162Y-138176630D03*
D13*
G36*
X335411592Y-139629041D02*
G01*
X334977472Y-137167022D01*
X337488732Y-136724219D01*
X337922852Y-139186238D01*
X335411592Y-139629041D01*
X335411592Y-139629041D01*
G37*
D12*
X322773279Y-138009050D03*
D13*
G36*
X321734709Y-139461461D02*
G01*
X321300589Y-136999442D01*
X323811849Y-136556639D01*
X324245969Y-139018658D01*
X321734709Y-139461461D01*
X321734709Y-139461461D01*
G37*
G04 #@! TD*
D12*
G04 #@! TO.C,SW39*
X317689574Y-141484627D03*
D13*
G36*
X316651004Y-142937038D02*
G01*
X316216884Y-140475019D01*
X318728144Y-140032216D01*
X319162264Y-142494235D01*
X316651004Y-142937038D01*
X316651004Y-142937038D01*
G37*
D12*
X304012691Y-141317047D03*
D13*
G36*
X302974121Y-142769458D02*
G01*
X302540001Y-140307439D01*
X305051261Y-139864636D01*
X305485381Y-142326655D01*
X302974121Y-142769458D01*
X302974121Y-142769458D01*
G37*
G04 #@! TD*
D12*
G04 #@! TO.C,SW40*
X298928989Y-144792625D03*
D13*
G36*
X297890419Y-146245036D02*
G01*
X297456299Y-143783017D01*
X299967559Y-143340214D01*
X300401679Y-145802233D01*
X297890419Y-146245036D01*
X297890419Y-146245036D01*
G37*
D12*
X285252106Y-144625045D03*
D13*
G36*
X284213536Y-146077456D02*
G01*
X283779416Y-143615437D01*
X286290676Y-143172634D01*
X286724796Y-145634653D01*
X284213536Y-146077456D01*
X284213536Y-146077456D01*
G37*
G04 #@! TD*
D12*
G04 #@! TO.C,SW41*
X274009739Y-146463257D03*
D13*
G36*
X273836517Y-148240367D02*
G01*
X272229548Y-146325256D01*
X274182961Y-144686147D01*
X275789930Y-146601258D01*
X273836517Y-148240367D01*
X273836517Y-148240367D01*
G37*
D12*
X262081421Y-153156570D03*
D13*
G36*
X261908199Y-154933680D02*
G01*
X260301230Y-153018569D01*
X262254643Y-151379460D01*
X263861612Y-153294571D01*
X261908199Y-154933680D01*
X261908199Y-154933680D01*
G37*
G04 #@! TD*
D12*
G04 #@! TO.C,SW42*
X255009333Y-136398448D03*
D13*
G36*
X254836111Y-138175558D02*
G01*
X253229142Y-136260447D01*
X255182555Y-134621338D01*
X256789524Y-136536449D01*
X254836111Y-138175558D01*
X254836111Y-138175558D01*
G37*
D12*
X243081015Y-143091761D03*
D13*
G36*
X242907793Y-144868871D02*
G01*
X241300824Y-142953760D01*
X243254237Y-141314651D01*
X244861206Y-143229762D01*
X242907793Y-144868871D01*
X242907793Y-144868871D01*
G37*
G04 #@! TD*
D12*
G04 #@! TO.C,SW44*
X203275092Y-155910218D03*
D13*
G36*
X201494901Y-156048219D02*
G01*
X203101870Y-154133108D01*
X205055283Y-155772217D01*
X203448314Y-157687328D01*
X201494901Y-156048219D01*
X201494901Y-156048219D01*
G37*
D12*
X194612135Y-145325400D03*
D13*
G36*
X192831944Y-145463401D02*
G01*
X194438913Y-143548290D01*
X196392326Y-145187399D01*
X194785357Y-147102510D01*
X192831944Y-145463401D01*
X192831944Y-145463401D01*
G37*
G04 #@! TD*
D12*
G04 #@! TO.C,SW45*
X181571590Y-147302679D03*
D13*
G36*
X180098900Y-148312287D02*
G01*
X180533020Y-145850268D01*
X183044280Y-146293071D01*
X182610160Y-148755090D01*
X180098900Y-148312287D01*
X180098900Y-148312287D01*
G37*
D12*
X168776841Y-142467436D03*
D13*
G36*
X167304151Y-143477044D02*
G01*
X167738271Y-141015025D01*
X170249531Y-141457828D01*
X169815411Y-143919847D01*
X167304151Y-143477044D01*
X167304151Y-143477044D01*
G37*
G04 #@! TD*
D12*
G04 #@! TO.C,SW46*
X162811003Y-143994681D03*
D13*
G36*
X161338313Y-145004289D02*
G01*
X161772433Y-142542270D01*
X164283693Y-142985073D01*
X163849573Y-145447092D01*
X161338313Y-145004289D01*
X161338313Y-145004289D01*
G37*
D12*
X150016254Y-139159438D03*
D13*
G36*
X148543564Y-140169046D02*
G01*
X148977684Y-137707027D01*
X151488944Y-138149830D01*
X151054824Y-140611849D01*
X148543564Y-140169046D01*
X148543564Y-140169046D01*
G37*
G04 #@! TD*
D12*
G04 #@! TO.C,SW43*
X222275135Y-145943890D03*
D13*
G36*
X220494944Y-146081891D02*
G01*
X222101913Y-144166780D01*
X224055326Y-145805889D01*
X222448357Y-147721000D01*
X220494944Y-146081891D01*
X220494944Y-146081891D01*
G37*
D12*
X213612178Y-135359072D03*
D13*
G36*
X211831987Y-135497073D02*
G01*
X213438956Y-133581962D01*
X215392369Y-135221071D01*
X213785400Y-137136182D01*
X211831987Y-135497073D01*
X211831987Y-135497073D01*
G37*
G04 #@! TD*
D12*
G04 #@! TO.C,SW36*
X109285906Y-118436864D03*
D13*
G36*
X107813216Y-119446472D02*
G01*
X108247336Y-116984453D01*
X110758596Y-117427256D01*
X110324476Y-119889275D01*
X107813216Y-119446472D01*
X107813216Y-119446472D01*
G37*
D12*
X96491157Y-113601621D03*
D13*
G36*
X95018467Y-114611229D02*
G01*
X95452587Y-112149210D01*
X97963847Y-112592013D01*
X97529727Y-115054032D01*
X95018467Y-114611229D01*
X95018467Y-114611229D01*
G37*
G04 #@! TD*
D12*
G04 #@! TO.C,SW48*
X125289827Y-137378685D03*
D13*
G36*
X123817137Y-138388293D02*
G01*
X124251257Y-135926274D01*
X126762517Y-136369077D01*
X126328397Y-138831096D01*
X123817137Y-138388293D01*
X123817137Y-138388293D01*
G37*
D12*
X112495078Y-132543442D03*
D13*
G36*
X111022388Y-133553050D02*
G01*
X111456508Y-131091031D01*
X113967768Y-131533834D01*
X113533648Y-133995853D01*
X111022388Y-133553050D01*
X111022388Y-133553050D01*
G37*
G04 #@! TD*
D12*
G04 #@! TO.C,SW35*
X128597825Y-118618099D03*
D13*
G36*
X127125135Y-119627707D02*
G01*
X127559255Y-117165688D01*
X130070515Y-117608491D01*
X129636395Y-120070510D01*
X127125135Y-119627707D01*
X127125135Y-119627707D01*
G37*
D12*
X115803076Y-113782856D03*
D13*
G36*
X114330386Y-114792464D02*
G01*
X114764506Y-112330445D01*
X117275766Y-112773248D01*
X116841646Y-115235267D01*
X114330386Y-114792464D01*
X114330386Y-114792464D01*
G37*
G04 #@! TD*
D18*
G04 #@! TO.C,IC1*
X238711773Y-124298168D03*
X238711773Y-125098168D03*
X238711773Y-125898168D03*
X238711773Y-126698168D03*
X238711773Y-127498168D03*
X238711773Y-128298168D03*
X238711773Y-129098168D03*
X238711773Y-129898168D03*
X238711773Y-130698168D03*
X238711773Y-131498168D03*
X238711773Y-132298168D03*
D19*
X237011773Y-133998168D03*
X236211773Y-133998168D03*
X235411773Y-133998168D03*
X234611773Y-133998168D03*
X233811773Y-133998168D03*
X233011773Y-133998168D03*
X232211773Y-133998168D03*
X231411773Y-133998168D03*
X230611773Y-133998168D03*
X229811773Y-133998168D03*
X229011773Y-133998168D03*
D18*
X227311773Y-132298168D03*
X227311773Y-131498168D03*
X227311773Y-130698168D03*
X227311773Y-129898168D03*
X227311773Y-129098168D03*
X227311773Y-128298168D03*
X227311773Y-127498168D03*
X227311773Y-126698168D03*
X227311773Y-125898168D03*
X227311773Y-125098168D03*
X227311773Y-124298168D03*
D19*
X229011773Y-122598168D03*
X229811773Y-122598168D03*
X230611773Y-122598168D03*
X231411773Y-122598168D03*
X232211773Y-122598168D03*
X233011773Y-122598168D03*
X233811773Y-122598168D03*
X234611773Y-122598168D03*
X235411773Y-122598168D03*
X236211773Y-122598168D03*
X237011773Y-122598168D03*
G04 #@! TD*
D20*
G04 #@! TO.C,R13*
X229608295Y-73097334D03*
X229608295Y-74997334D03*
G04 #@! TD*
D21*
G04 #@! TO.C,R2*
X215586772Y-110319689D03*
X213686772Y-110319689D03*
G04 #@! TD*
D20*
G04 #@! TO.C,R7*
X237958293Y-75022332D03*
X237958293Y-73122332D03*
G04 #@! TD*
G04 #@! TO.C,R6*
X233808295Y-74997334D03*
X233808295Y-73097334D03*
G04 #@! TD*
G04 #@! TO.C,R5*
X253081592Y-118230891D03*
X253081592Y-120130891D03*
G04 #@! TD*
G04 #@! TO.C,R4*
X253081592Y-114580890D03*
X253081592Y-116480890D03*
G04 #@! TD*
D21*
G04 #@! TO.C,R3*
X247961772Y-111444689D03*
X249861772Y-111444689D03*
G04 #@! TD*
D20*
G04 #@! TO.C,R1*
X224861772Y-75019689D03*
X224861772Y-73119689D03*
G04 #@! TD*
D21*
G04 #@! TO.C,R8*
X207711772Y-75894689D03*
X205811772Y-75894689D03*
G04 #@! TD*
G04 #@! TO.C,R12*
X96461773Y-75494690D03*
X98361773Y-75494690D03*
G04 #@! TD*
G04 #@! TO.C,R11*
X98361772Y-77494688D03*
X96461772Y-77494688D03*
G04 #@! TD*
D20*
G04 #@! TO.C,R10*
X237076531Y-138262203D03*
X237076531Y-136362203D03*
G04 #@! TD*
D21*
G04 #@! TO.C,R9*
X205811772Y-78419689D03*
X207711772Y-78419689D03*
G04 #@! TD*
D22*
G04 #@! TO.C,C1*
X219261772Y-93503689D03*
X219261772Y-95535689D03*
G04 #@! TD*
G04 #@! TO.C,C3*
X218936772Y-100478689D03*
X218936772Y-102510689D03*
G04 #@! TD*
G04 #@! TO.C,C4*
X241436772Y-133810689D03*
X241436772Y-131778689D03*
G04 #@! TD*
G04 #@! TO.C,C20*
X197611772Y-81685689D03*
X197611772Y-79653689D03*
G04 #@! TD*
G04 #@! TO.C,C6*
X244936772Y-125919689D03*
X244936772Y-123887689D03*
G04 #@! TD*
D23*
G04 #@! TO.C,C5*
X253545772Y-98144689D03*
X255577772Y-98144689D03*
G04 #@! TD*
G04 #@! TO.C,C2*
X237420772Y-80069689D03*
X239452772Y-80069689D03*
G04 #@! TD*
D22*
G04 #@! TO.C,C7*
X232911772Y-117410688D03*
X232911772Y-115378688D03*
G04 #@! TD*
D24*
G04 #@! TO.C,D42*
X257559484Y-148698483D03*
D13*
G36*
X257743952Y-147715644D02*
G01*
X258554660Y-148600377D01*
X257375016Y-149681322D01*
X256564308Y-148796589D01*
X257743952Y-147715644D01*
X257743952Y-147715644D01*
G37*
D24*
X255495108Y-150590135D03*
D13*
G36*
X255679576Y-149607296D02*
G01*
X256490284Y-150492029D01*
X255310640Y-151572974D01*
X254499932Y-150688241D01*
X255679576Y-149607296D01*
X255679576Y-149607296D01*
G37*
G04 #@! TD*
D24*
G04 #@! TO.C,D9*
X166020824Y-91526196D03*
D13*
G36*
X166912859Y-91074230D02*
G01*
X166704481Y-92255999D01*
X165128789Y-91978162D01*
X165337167Y-90796393D01*
X166912859Y-91074230D01*
X166912859Y-91074230D01*
G37*
D24*
X163263362Y-91039982D03*
D13*
G36*
X164155397Y-90588016D02*
G01*
X163947019Y-91769785D01*
X162371327Y-91491948D01*
X162579705Y-90310179D01*
X164155397Y-90588016D01*
X164155397Y-90588016D01*
G37*
G04 #@! TD*
D24*
G04 #@! TO.C,D36*
X104669692Y-129068028D03*
D13*
G36*
X105561727Y-128616062D02*
G01*
X105353349Y-129797831D01*
X103777657Y-129519994D01*
X103986035Y-128338225D01*
X105561727Y-128616062D01*
X105561727Y-128616062D01*
G37*
D24*
X101912230Y-128581814D03*
D13*
G36*
X102804265Y-128129848D02*
G01*
X102595887Y-129311617D01*
X101020195Y-129033780D01*
X101228573Y-127852011D01*
X102804265Y-128129848D01*
X102804265Y-128129848D01*
G37*
G04 #@! TD*
D24*
G04 #@! TO.C,D25*
X364505596Y-128554930D03*
D13*
G36*
X365189253Y-127825127D02*
G01*
X365397631Y-129006896D01*
X363821939Y-129284733D01*
X363613561Y-128102964D01*
X365189253Y-127825127D01*
X365189253Y-127825127D01*
G37*
D24*
X361748134Y-129041144D03*
D13*
G36*
X362431791Y-128311341D02*
G01*
X362640169Y-129493110D01*
X361064477Y-129770947D01*
X360856099Y-128589178D01*
X362431791Y-128311341D01*
X362431791Y-128311341D01*
G37*
G04 #@! TD*
D24*
G04 #@! TO.C,D24*
X104777066Y-109743084D03*
D13*
G36*
X105669101Y-109291118D02*
G01*
X105460723Y-110472887D01*
X103885031Y-110195050D01*
X104093409Y-109013281D01*
X105669101Y-109291118D01*
X105669101Y-109291118D01*
G37*
D24*
X102019604Y-109256870D03*
D13*
G36*
X102911639Y-108804904D02*
G01*
X102703261Y-109986673D01*
X101127569Y-109708836D01*
X101335947Y-108527067D01*
X102911639Y-108804904D01*
X102911639Y-108804904D01*
G37*
G04 #@! TD*
D24*
G04 #@! TO.C,D13*
X364004300Y-109299445D03*
D13*
G36*
X364687957Y-108569642D02*
G01*
X364896335Y-109751411D01*
X363320643Y-110029248D01*
X363112265Y-108847479D01*
X364687957Y-108569642D01*
X364687957Y-108569642D01*
G37*
D24*
X361246838Y-109785659D03*
D13*
G36*
X361930495Y-109055856D02*
G01*
X362138873Y-110237625D01*
X360563181Y-110515462D01*
X360354803Y-109333693D01*
X361930495Y-109055856D01*
X361930495Y-109055856D01*
G37*
G04 #@! TD*
D24*
G04 #@! TO.C,D12*
X108085062Y-90982496D03*
D13*
G36*
X108977097Y-90530530D02*
G01*
X108768719Y-91712299D01*
X107193027Y-91434462D01*
X107401405Y-90252693D01*
X108977097Y-90530530D01*
X108977097Y-90530530D01*
G37*
D24*
X105327600Y-90496282D03*
D13*
G36*
X106219635Y-90044316D02*
G01*
X106011257Y-91226085D01*
X104435565Y-90948248D01*
X104643943Y-89766479D01*
X106219635Y-90044316D01*
X106219635Y-90044316D01*
G37*
G04 #@! TD*
D24*
G04 #@! TO.C,D1*
X360696304Y-90538857D03*
D13*
G36*
X361379961Y-89809054D02*
G01*
X361588339Y-90990823D01*
X360012647Y-91268660D01*
X359804269Y-90086891D01*
X361379961Y-89809054D01*
X361379961Y-89809054D01*
G37*
D24*
X357938842Y-91025071D03*
D13*
G36*
X358622499Y-90295268D02*
G01*
X358830877Y-91477037D01*
X357255185Y-91754874D01*
X357046807Y-90573105D01*
X358622499Y-90295268D01*
X358622499Y-90295268D01*
G37*
G04 #@! TD*
D24*
G04 #@! TO.C,D48*
X117472992Y-147445493D03*
D13*
G36*
X118365027Y-146993527D02*
G01*
X118156649Y-148175296D01*
X116580957Y-147897459D01*
X116789335Y-146715690D01*
X118365027Y-146993527D01*
X118365027Y-146993527D01*
G37*
D24*
X114715530Y-146959279D03*
D13*
G36*
X115607565Y-146507313D02*
G01*
X115399187Y-147689082D01*
X113823495Y-147411245D01*
X114031873Y-146229476D01*
X115607565Y-146507313D01*
X115607565Y-146507313D01*
G37*
G04 #@! TD*
D24*
G04 #@! TO.C,D18*
X269098695Y-119585905D03*
D13*
G36*
X269782352Y-118856102D02*
G01*
X269990730Y-120037871D01*
X268415038Y-120315708D01*
X268206660Y-119133939D01*
X269782352Y-118856102D01*
X269782352Y-118856102D01*
G37*
D24*
X266341233Y-120072119D03*
D13*
G36*
X267024890Y-119342316D02*
G01*
X267233268Y-120524085D01*
X265657576Y-120801922D01*
X265449198Y-119620153D01*
X267024890Y-119342316D01*
X267024890Y-119342316D01*
G37*
G04 #@! TD*
D24*
G04 #@! TO.C,D17*
X287859284Y-116277908D03*
D13*
G36*
X288542941Y-115548105D02*
G01*
X288751319Y-116729874D01*
X287175627Y-117007711D01*
X286967249Y-115825942D01*
X288542941Y-115548105D01*
X288542941Y-115548105D01*
G37*
D24*
X285101822Y-116764122D03*
D13*
G36*
X285785479Y-116034319D02*
G01*
X285993857Y-117216088D01*
X284418165Y-117493925D01*
X284209787Y-116312156D01*
X285785479Y-116034319D01*
X285785479Y-116034319D01*
G37*
G04 #@! TD*
D24*
G04 #@! TO.C,D43*
X210192916Y-151300677D03*
D13*
G36*
X211188092Y-151398783D02*
G01*
X210377384Y-152283516D01*
X209197740Y-151202571D01*
X210008448Y-150317838D01*
X211188092Y-151398783D01*
X211188092Y-151398783D01*
G37*
D24*
X208128540Y-149409025D03*
D13*
G36*
X209123716Y-149507131D02*
G01*
X208313008Y-150391864D01*
X207133364Y-149310919D01*
X207944072Y-148426186D01*
X209123716Y-149507131D01*
X209123716Y-149507131D01*
G37*
G04 #@! TD*
D24*
G04 #@! TO.C,D35*
X120780988Y-128684906D03*
D13*
G36*
X121673023Y-128232940D02*
G01*
X121464645Y-129414709D01*
X119888953Y-129136872D01*
X120097331Y-127955103D01*
X121673023Y-128232940D01*
X121673023Y-128232940D01*
G37*
D24*
X118023526Y-128198692D03*
D13*
G36*
X118915561Y-127746726D02*
G01*
X118707183Y-128928495D01*
X117131491Y-128650658D01*
X117339869Y-127468889D01*
X118915561Y-127746726D01*
X118915561Y-127746726D01*
G37*
G04 #@! TD*
D24*
G04 #@! TO.C,D23*
X124088986Y-109924316D03*
D13*
G36*
X124981021Y-109472350D02*
G01*
X124772643Y-110654119D01*
X123196951Y-110376282D01*
X123405329Y-109194513D01*
X124981021Y-109472350D01*
X124981021Y-109472350D01*
G37*
D24*
X121331524Y-109438102D03*
D13*
G36*
X122223559Y-108986136D02*
G01*
X122015181Y-110167905D01*
X120439489Y-109890068D01*
X120647867Y-108708299D01*
X122223559Y-108986136D01*
X122223559Y-108986136D01*
G37*
G04 #@! TD*
D24*
G04 #@! TO.C,D10*
X146708904Y-91344963D03*
D13*
G36*
X147600939Y-90892997D02*
G01*
X147392561Y-92074766D01*
X145816869Y-91796929D01*
X146025247Y-90615160D01*
X147600939Y-90892997D01*
X147600939Y-90892997D01*
G37*
D24*
X143951442Y-90858749D03*
D13*
G36*
X144843477Y-90406783D02*
G01*
X144635099Y-91588552D01*
X143059407Y-91310715D01*
X143267785Y-90128946D01*
X144843477Y-90406783D01*
X144843477Y-90406783D01*
G37*
G04 #@! TD*
D24*
G04 #@! TO.C,D40*
X295026612Y-156925847D03*
D13*
G36*
X295710269Y-156196044D02*
G01*
X295918647Y-157377813D01*
X294342955Y-157655650D01*
X294134577Y-156473881D01*
X295710269Y-156196044D01*
X295710269Y-156196044D01*
G37*
D24*
X292269150Y-157412061D03*
D13*
G36*
X292952807Y-156682258D02*
G01*
X293161185Y-157864027D01*
X291585493Y-158141864D01*
X291377115Y-156960095D01*
X292952807Y-156682258D01*
X292952807Y-156682258D01*
G37*
G04 #@! TD*
D24*
G04 #@! TO.C,D38*
X332547787Y-150309852D03*
D13*
G36*
X333231444Y-149580049D02*
G01*
X333439822Y-150761818D01*
X331864130Y-151039655D01*
X331655752Y-149857886D01*
X333231444Y-149580049D01*
X333231444Y-149580049D01*
G37*
D24*
X329790325Y-150796066D03*
D13*
G36*
X330473982Y-150066263D02*
G01*
X330682360Y-151248032D01*
X329106668Y-151525869D01*
X328898290Y-150344100D01*
X330473982Y-150066263D01*
X330473982Y-150066263D01*
G37*
G04 #@! TD*
D24*
G04 #@! TO.C,D37*
X351308376Y-147001854D03*
D13*
G36*
X351992033Y-146272051D02*
G01*
X352200411Y-147453820D01*
X350624719Y-147731657D01*
X350416341Y-146549888D01*
X351992033Y-146272051D01*
X351992033Y-146272051D01*
G37*
D24*
X348550914Y-147488068D03*
D13*
G36*
X349234571Y-146758265D02*
G01*
X349442949Y-147940034D01*
X347867257Y-148217871D01*
X347658879Y-147036102D01*
X349234571Y-146758265D01*
X349234571Y-146758265D01*
G37*
G04 #@! TD*
D24*
G04 #@! TO.C,D34*
X140092908Y-128866138D03*
D13*
G36*
X140984943Y-128414172D02*
G01*
X140776565Y-129595941D01*
X139200873Y-129318104D01*
X139409251Y-128136335D01*
X140984943Y-128414172D01*
X140984943Y-128414172D01*
G37*
D24*
X137335446Y-128379924D03*
D13*
G36*
X138227481Y-127927958D02*
G01*
X138019103Y-129109727D01*
X136443411Y-128831890D01*
X136651789Y-127650121D01*
X138227481Y-127927958D01*
X138227481Y-127927958D01*
G37*
G04 #@! TD*
D24*
G04 #@! TO.C,D31*
X196374672Y-138790132D03*
D13*
G36*
X197266707Y-138338166D02*
G01*
X197058329Y-139519935D01*
X195482637Y-139242098D01*
X195691015Y-138060329D01*
X197266707Y-138338166D01*
X197266707Y-138338166D01*
G37*
D24*
X193617210Y-138303918D03*
D13*
G36*
X194509245Y-137851952D02*
G01*
X194300867Y-139033721D01*
X192725175Y-138755884D01*
X192933553Y-137574115D01*
X194509245Y-137851952D01*
X194509245Y-137851952D01*
G37*
G04 #@! TD*
D24*
G04 #@! TO.C,D30*
X272406694Y-138346493D03*
D13*
G36*
X273090351Y-137616690D02*
G01*
X273298729Y-138798459D01*
X271723037Y-139076296D01*
X271514659Y-137894527D01*
X273090351Y-137616690D01*
X273090351Y-137616690D01*
G37*
D24*
X269649232Y-138832707D03*
D13*
G36*
X270332889Y-138102904D02*
G01*
X270541267Y-139284673D01*
X268965575Y-139562510D01*
X268757197Y-138380741D01*
X270332889Y-138102904D01*
X270332889Y-138102904D01*
G37*
G04 #@! TD*
D24*
G04 #@! TO.C,D29*
X291167282Y-135038494D03*
D13*
G36*
X291850939Y-134308691D02*
G01*
X292059317Y-135490460D01*
X290483625Y-135768297D01*
X290275247Y-134586528D01*
X291850939Y-134308691D01*
X291850939Y-134308691D01*
G37*
D24*
X288409820Y-135524708D03*
D13*
G36*
X289093477Y-134794905D02*
G01*
X289301855Y-135976674D01*
X287726163Y-136254511D01*
X287517785Y-135072742D01*
X289093477Y-134794905D01*
X289093477Y-134794905D01*
G37*
G04 #@! TD*
D24*
G04 #@! TO.C,D27*
X328688458Y-128422501D03*
D13*
G36*
X329372115Y-127692698D02*
G01*
X329580493Y-128874467D01*
X328004801Y-129152304D01*
X327796423Y-127970535D01*
X329372115Y-127692698D01*
X329372115Y-127692698D01*
G37*
D24*
X325930996Y-128908715D03*
D13*
G36*
X326614653Y-128178912D02*
G01*
X326823031Y-129360681D01*
X325247339Y-129638518D01*
X325038961Y-128456749D01*
X326614653Y-128178912D01*
X326614653Y-128178912D01*
G37*
G04 #@! TD*
D24*
G04 #@! TO.C,D26*
X348000379Y-128241266D03*
D13*
G36*
X348684036Y-127511463D02*
G01*
X348892414Y-128693232D01*
X347316722Y-128971069D01*
X347108344Y-127789300D01*
X348684036Y-127511463D01*
X348684036Y-127511463D01*
G37*
D24*
X345242917Y-128727480D03*
D13*
G36*
X345926574Y-127997677D02*
G01*
X346134952Y-129179446D01*
X344559260Y-129457283D01*
X344350882Y-128275514D01*
X345926574Y-127997677D01*
X345926574Y-127997677D01*
G37*
G04 #@! TD*
D24*
G04 #@! TO.C,D21*
X162712827Y-110286784D03*
D13*
G36*
X163604862Y-109834818D02*
G01*
X163396484Y-111016587D01*
X161820792Y-110738750D01*
X162029170Y-109556981D01*
X163604862Y-109834818D01*
X163604862Y-109834818D01*
G37*
D24*
X159955365Y-109800570D03*
D13*
G36*
X160847400Y-109348604D02*
G01*
X160639022Y-110530373D01*
X159063330Y-110252536D01*
X159271708Y-109070767D01*
X160847400Y-109348604D01*
X160847400Y-109348604D01*
G37*
G04 #@! TD*
D24*
G04 #@! TO.C,D16*
X306068538Y-109843144D03*
D13*
G36*
X306752195Y-109113341D02*
G01*
X306960573Y-110295110D01*
X305384881Y-110572947D01*
X305176503Y-109391178D01*
X306752195Y-109113341D01*
X306752195Y-109113341D01*
G37*
D24*
X303311076Y-110329358D03*
D13*
G36*
X303994733Y-109599555D02*
G01*
X304203111Y-110781324D01*
X302627419Y-111059161D01*
X302419041Y-109877392D01*
X303994733Y-109599555D01*
X303994733Y-109599555D01*
G37*
G04 #@! TD*
D24*
G04 #@! TO.C,D15*
X325380459Y-109661912D03*
D13*
G36*
X326064116Y-108932109D02*
G01*
X326272494Y-110113878D01*
X324696802Y-110391715D01*
X324488424Y-109209946D01*
X326064116Y-108932109D01*
X326064116Y-108932109D01*
G37*
D24*
X322622997Y-110148126D03*
D13*
G36*
X323306654Y-109418323D02*
G01*
X323515032Y-110600092D01*
X321939340Y-110877929D01*
X321730962Y-109696160D01*
X323306654Y-109418323D01*
X323306654Y-109418323D01*
G37*
G04 #@! TD*
D24*
G04 #@! TO.C,D11*
X127396983Y-91163731D03*
D13*
G36*
X128289018Y-90711765D02*
G01*
X128080640Y-91893534D01*
X126504948Y-91615697D01*
X126713326Y-90433928D01*
X128289018Y-90711765D01*
X128289018Y-90711765D01*
G37*
D24*
X124639521Y-90677517D03*
D13*
G36*
X125531556Y-90225551D02*
G01*
X125323178Y-91407320D01*
X123747486Y-91129483D01*
X123955864Y-89947714D01*
X125531556Y-90225551D01*
X125531556Y-90225551D01*
G37*
G04 #@! TD*
D24*
G04 #@! TO.C,D8*
X184230079Y-97960958D03*
D13*
G36*
X185122114Y-97508992D02*
G01*
X184913736Y-98690761D01*
X183338044Y-98412924D01*
X183546422Y-97231155D01*
X185122114Y-97508992D01*
X185122114Y-97508992D01*
G37*
D24*
X181472617Y-97474744D03*
D13*
G36*
X182364652Y-97022778D02*
G01*
X182156274Y-98204547D01*
X180580582Y-97926710D01*
X180788960Y-96744941D01*
X182364652Y-97022778D01*
X182364652Y-97022778D01*
G37*
G04 #@! TD*
D24*
G04 #@! TO.C,D5*
X284551286Y-97517320D03*
D13*
G36*
X285234943Y-96787517D02*
G01*
X285443321Y-97969286D01*
X283867629Y-98247123D01*
X283659251Y-97065354D01*
X285234943Y-96787517D01*
X285234943Y-96787517D01*
G37*
D24*
X281793824Y-98003534D03*
D13*
G36*
X282477481Y-97273731D02*
G01*
X282685859Y-98455500D01*
X281110167Y-98733337D01*
X280901789Y-97551568D01*
X282477481Y-97273731D01*
X282477481Y-97273731D01*
G37*
G04 #@! TD*
D24*
G04 #@! TO.C,D4*
X302760540Y-91082556D03*
D13*
G36*
X303444197Y-90352753D02*
G01*
X303652575Y-91534522D01*
X302076883Y-91812359D01*
X301868505Y-90630590D01*
X303444197Y-90352753D01*
X303444197Y-90352753D01*
G37*
D24*
X300003078Y-91568770D03*
D13*
G36*
X300686735Y-90838967D02*
G01*
X300895113Y-92020736D01*
X299319421Y-92298573D01*
X299111043Y-91116804D01*
X300686735Y-90838967D01*
X300686735Y-90838967D01*
G37*
G04 #@! TD*
D24*
G04 #@! TO.C,D7*
X202990668Y-101268957D03*
D13*
G36*
X203882703Y-100816991D02*
G01*
X203674325Y-101998760D01*
X202098633Y-101720923D01*
X202307011Y-100539154D01*
X203882703Y-100816991D01*
X203882703Y-100816991D01*
G37*
D24*
X200233206Y-100782743D03*
D13*
G36*
X201125241Y-100330777D02*
G01*
X200916863Y-101512546D01*
X199341171Y-101234709D01*
X199549549Y-100052940D01*
X201125241Y-100330777D01*
X201125241Y-100330777D01*
G37*
G04 #@! TD*
D24*
G04 #@! TO.C,D47*
X136233578Y-150753491D03*
D13*
G36*
X137125613Y-150301525D02*
G01*
X136917235Y-151483294D01*
X135341543Y-151205457D01*
X135549921Y-150023688D01*
X137125613Y-150301525D01*
X137125613Y-150301525D01*
G37*
D24*
X133476116Y-150267277D03*
D13*
G36*
X134368151Y-149815311D02*
G01*
X134159773Y-150997080D01*
X132584081Y-150719243D01*
X132792459Y-149537474D01*
X134368151Y-149815311D01*
X134368151Y-149815311D01*
G37*
G04 #@! TD*
D24*
G04 #@! TO.C,D46*
X154994165Y-154061488D03*
D13*
G36*
X155886200Y-153609522D02*
G01*
X155677822Y-154791291D01*
X154102130Y-154513454D01*
X154310508Y-153331685D01*
X155886200Y-153609522D01*
X155886200Y-153609522D01*
G37*
D24*
X152236703Y-153575274D03*
D13*
G36*
X153128738Y-153123308D02*
G01*
X152920360Y-154305077D01*
X151344668Y-154027240D01*
X151553046Y-152845471D01*
X153128738Y-153123308D01*
X153128738Y-153123308D01*
G37*
G04 #@! TD*
D24*
G04 #@! TO.C,D45*
X173754753Y-157369487D03*
D13*
G36*
X174646788Y-156917521D02*
G01*
X174438410Y-158099290D01*
X172862718Y-157821453D01*
X173071096Y-156639684D01*
X174646788Y-156917521D01*
X174646788Y-156917521D01*
G37*
D24*
X170997291Y-156883273D03*
D13*
G36*
X171889326Y-156431307D02*
G01*
X171680948Y-157613076D01*
X170105256Y-157335239D01*
X170313634Y-156153470D01*
X171889326Y-156431307D01*
X171889326Y-156431307D01*
G37*
G04 #@! TD*
D24*
G04 #@! TO.C,D44*
X190076433Y-146339741D03*
D13*
G36*
X190131036Y-145341233D02*
G01*
X191050290Y-146112578D01*
X190021830Y-147338249D01*
X189102576Y-146566904D01*
X190131036Y-145341233D01*
X190131036Y-145341233D01*
G37*
D24*
X188276627Y-148484665D03*
D13*
G36*
X188331230Y-147486157D02*
G01*
X189250484Y-148257502D01*
X188222024Y-149483173D01*
X187302770Y-148711828D01*
X188331230Y-147486157D01*
X188331230Y-147486157D01*
G37*
G04 #@! TD*
D24*
G04 #@! TO.C,D41*
X279370807Y-148472205D03*
D13*
G36*
X280344664Y-148699368D02*
G01*
X279425410Y-149470713D01*
X278396950Y-148245042D01*
X279316204Y-147473697D01*
X280344664Y-148699368D01*
X280344664Y-148699368D01*
G37*
D24*
X277571001Y-146327281D03*
D13*
G36*
X278544858Y-146554444D02*
G01*
X277625604Y-147325789D01*
X276597144Y-146100118D01*
X277516398Y-145328773D01*
X278544858Y-146554444D01*
X278544858Y-146554444D01*
G37*
G04 #@! TD*
D24*
G04 #@! TO.C,D39*
X313787200Y-153617849D03*
D13*
G36*
X314470857Y-152888046D02*
G01*
X314679235Y-154069815D01*
X313103543Y-154347652D01*
X312895165Y-153165883D01*
X314470857Y-152888046D01*
X314470857Y-152888046D01*
G37*
D24*
X311029738Y-154104063D03*
D13*
G36*
X311713395Y-153374260D02*
G01*
X311921773Y-154556029D01*
X310346081Y-154833866D01*
X310137703Y-153652097D01*
X311713395Y-153374260D01*
X311713395Y-153374260D01*
G37*
G04 #@! TD*
D24*
G04 #@! TO.C,D33*
X159404829Y-129047371D03*
D13*
G36*
X160296864Y-128595405D02*
G01*
X160088486Y-129777174D01*
X158512794Y-129499337D01*
X158721172Y-128317568D01*
X160296864Y-128595405D01*
X160296864Y-128595405D01*
G37*
D24*
X156647367Y-128561157D03*
D13*
G36*
X157539402Y-128109191D02*
G01*
X157331024Y-129290960D01*
X155755332Y-129013123D01*
X155963710Y-127831354D01*
X157539402Y-128109191D01*
X157539402Y-128109191D01*
G37*
G04 #@! TD*
D24*
G04 #@! TO.C,D32*
X177614085Y-135482134D03*
D13*
G36*
X178506120Y-135030168D02*
G01*
X178297742Y-136211937D01*
X176722050Y-135934100D01*
X176930428Y-134752331D01*
X178506120Y-135030168D01*
X178506120Y-135030168D01*
G37*
D24*
X174856623Y-134995920D03*
D13*
G36*
X175748658Y-134543954D02*
G01*
X175540280Y-135725723D01*
X173964588Y-135447886D01*
X174172966Y-134266117D01*
X175748658Y-134543954D01*
X175748658Y-134543954D01*
G37*
G04 #@! TD*
D24*
G04 #@! TO.C,D28*
X309376536Y-128603733D03*
D13*
G36*
X310060193Y-127873930D02*
G01*
X310268571Y-129055699D01*
X308692879Y-129333536D01*
X308484501Y-128151767D01*
X310060193Y-127873930D01*
X310060193Y-127873930D01*
G37*
D24*
X306619074Y-129089947D03*
D13*
G36*
X307302731Y-128360144D02*
G01*
X307511109Y-129541913D01*
X305935417Y-129819750D01*
X305727039Y-128637981D01*
X307302731Y-128360144D01*
X307302731Y-128360144D01*
G37*
G04 #@! TD*
D24*
G04 #@! TO.C,D22*
X143400907Y-110105551D03*
D13*
G36*
X144292942Y-109653585D02*
G01*
X144084564Y-110835354D01*
X142508872Y-110557517D01*
X142717250Y-109375748D01*
X144292942Y-109653585D01*
X144292942Y-109653585D01*
G37*
D24*
X140643445Y-109619337D03*
D13*
G36*
X141535480Y-109167371D02*
G01*
X141327102Y-110349140D01*
X139751410Y-110071303D01*
X139959788Y-108889534D01*
X141535480Y-109167371D01*
X141535480Y-109167371D01*
G37*
G04 #@! TD*
D24*
G04 #@! TO.C,D20*
X180922082Y-116721546D03*
D13*
G36*
X181814117Y-116269580D02*
G01*
X181605739Y-117451349D01*
X180030047Y-117173512D01*
X180238425Y-115991743D01*
X181814117Y-116269580D01*
X181814117Y-116269580D01*
G37*
D24*
X178164620Y-116235332D03*
D13*
G36*
X179056655Y-115783366D02*
G01*
X178848277Y-116965135D01*
X177272585Y-116687298D01*
X177480963Y-115505529D01*
X179056655Y-115783366D01*
X179056655Y-115783366D01*
G37*
G04 #@! TD*
D24*
G04 #@! TO.C,D19*
X199682670Y-120029546D03*
D13*
G36*
X200574705Y-119577580D02*
G01*
X200366327Y-120759349D01*
X198790635Y-120481512D01*
X198999013Y-119299743D01*
X200574705Y-119577580D01*
X200574705Y-119577580D01*
G37*
D24*
X196925208Y-119543332D03*
D13*
G36*
X197817243Y-119091366D02*
G01*
X197608865Y-120273135D01*
X196033173Y-119995298D01*
X196241551Y-118813529D01*
X197817243Y-119091366D01*
X197817243Y-119091366D01*
G37*
G04 #@! TD*
D24*
G04 #@! TO.C,D14*
X344692380Y-109480679D03*
D13*
G36*
X345376037Y-108750876D02*
G01*
X345584415Y-109932645D01*
X344008723Y-110210482D01*
X343800345Y-109028713D01*
X345376037Y-108750876D01*
X345376037Y-108750876D01*
G37*
D24*
X341934918Y-109966893D03*
D13*
G36*
X342618575Y-109237090D02*
G01*
X342826953Y-110418859D01*
X341251261Y-110696696D01*
X341042883Y-109514927D01*
X342618575Y-109237090D01*
X342618575Y-109237090D01*
G37*
G04 #@! TD*
D24*
G04 #@! TO.C,D6*
X265790699Y-100825319D03*
D13*
G36*
X266474356Y-100095516D02*
G01*
X266682734Y-101277285D01*
X265107042Y-101555122D01*
X264898664Y-100373353D01*
X266474356Y-100095516D01*
X266474356Y-100095516D01*
G37*
D24*
X263033237Y-101311533D03*
D13*
G36*
X263716894Y-100581730D02*
G01*
X263925272Y-101763499D01*
X262349580Y-102041336D01*
X262141202Y-100859567D01*
X263716894Y-100581730D01*
X263716894Y-100581730D01*
G37*
G04 #@! TD*
D24*
G04 #@! TO.C,D3*
X322072462Y-90901323D03*
D13*
G36*
X322756119Y-90171520D02*
G01*
X322964497Y-91353289D01*
X321388805Y-91631126D01*
X321180427Y-90449357D01*
X322756119Y-90171520D01*
X322756119Y-90171520D01*
G37*
D24*
X319315000Y-91387537D03*
D13*
G36*
X319998657Y-90657734D02*
G01*
X320207035Y-91839503D01*
X318631343Y-92117340D01*
X318422965Y-90935571D01*
X319998657Y-90657734D01*
X319998657Y-90657734D01*
G37*
G04 #@! TD*
D24*
G04 #@! TO.C,D2*
X341384381Y-90720090D03*
D13*
G36*
X342068038Y-89990287D02*
G01*
X342276416Y-91172056D01*
X340700724Y-91449893D01*
X340492346Y-90268124D01*
X342068038Y-89990287D01*
X342068038Y-89990287D01*
G37*
D24*
X338626919Y-91206304D03*
D13*
G36*
X339310576Y-90476501D02*
G01*
X339518954Y-91658270D01*
X337943262Y-91936107D01*
X337734884Y-90754338D01*
X339310576Y-90476501D01*
X339310576Y-90476501D01*
G37*
G04 #@! TD*
D25*
G04 #@! TO.C,Y1*
X222511772Y-126719689D03*
X222511772Y-127919689D03*
X222511772Y-129119689D03*
G04 #@! TD*
D26*
G04 #@! TO.C,U1*
X244886772Y-108094789D03*
X242986772Y-108094789D03*
X242986772Y-105494589D03*
X243936772Y-105494589D03*
X244886772Y-105494589D03*
G04 #@! TD*
G04 #@! TO.C,U2*
X217611772Y-96119789D03*
X215711772Y-96119789D03*
X215711772Y-93519589D03*
X216661772Y-93519589D03*
X217611772Y-93519589D03*
G04 #@! TD*
D27*
G04 #@! TO.C,U6*
X119661773Y-76295891D03*
X119661773Y-75345891D03*
X119661773Y-77245891D03*
X117361773Y-77245891D03*
X117361773Y-76295891D03*
X117361773Y-75345891D03*
G04 #@! TD*
D28*
G04 #@! TO.C,U3*
X251836772Y-76594689D03*
X251836772Y-77294689D03*
X251836772Y-77994690D03*
X251836773Y-78694689D03*
X251836772Y-79394689D03*
X251836772Y-80094689D03*
X251836772Y-80794689D03*
X251836773Y-81494689D03*
X251836772Y-82194689D03*
X251836772Y-82894689D03*
X251836772Y-83594689D03*
X251836772Y-84294689D03*
X251836772Y-84994689D03*
X251836772Y-85694689D03*
X251836772Y-86394689D03*
X251836772Y-87094689D03*
X251836772Y-87794689D03*
D29*
X251211772Y-89419689D03*
X250511772Y-89419689D03*
X249811772Y-89419689D03*
X249111772Y-89419689D03*
X248411772Y-89419689D03*
X247711772Y-89419689D03*
X247011772Y-89419689D03*
X246311772Y-89419689D03*
X245611772Y-89419689D03*
X244911772Y-89419689D03*
X244211772Y-89419689D03*
X243511772Y-89419689D03*
X242811772Y-89419689D03*
D28*
X242186772Y-87794689D03*
X242186772Y-87094689D03*
X242186772Y-86394689D03*
X242186772Y-85694688D03*
X242186771Y-84994689D03*
X242186772Y-84294689D03*
X242186772Y-83594689D03*
X242186772Y-82894689D03*
X242186772Y-82194689D03*
X242186772Y-81494689D03*
X242186772Y-77294689D03*
X242186772Y-76594689D03*
G04 #@! TD*
D30*
G04 #@! TO.C,D49*
X253286772Y-102219689D03*
X253286772Y-105919689D03*
G04 #@! TD*
M02*
