G04 #@! TF.GenerationSoftware,KiCad,Pcbnew,(6.0.0-rc1-dev-1469-g932b9a334)*
G04 #@! TF.CreationDate,2019-08-07T07:36:24-07:00
G04 #@! TF.ProjectId,Laptreus-v2,4c617074-7265-4757-932d-76322e6b6963,rev?*
G04 #@! TF.SameCoordinates,Original*
G04 #@! TF.FileFunction,Glue,Top*
G04 #@! TF.FilePolarity,Positive*
%FSLAX46Y46*%
G04 Gerber Fmt 4.6, Leading zero omitted, Abs format (unit mm)*
G04 Created by KiCad (PCBNEW (6.0.0-rc1-dev-1469-g932b9a334)) date Wednesday, August 07, 2019 at 07:36:24 AM*
%MOMM*%
%LPD*%
G04 APERTURE LIST*
%ADD10C,0.100000*%
%ADD11C,0.150000*%
G04 APERTURE END LIST*
D10*
G04 #@! TO.C,SW11*
G36*
X126446142Y-87918060D02*
G01*
X126602425Y-87031733D01*
X123648002Y-86510789D01*
X123491718Y-87397116D01*
X126446142Y-87918060D01*
G37*
G04 #@! TO.C,J1*
G36*
X110662086Y-73556327D02*
G01*
X106662086Y-73556327D01*
X106662086Y-72556327D01*
X110662086Y-72556327D01*
X110662086Y-73556327D01*
G37*
G04 #@! TO.C,SW12*
G36*
X107123497Y-87690730D02*
G01*
X107279780Y-86804403D01*
X104325357Y-86283459D01*
X104169073Y-87169786D01*
X107123497Y-87690730D01*
G37*
G04 #@! TO.C,SW47*
G36*
X137459286Y-136315743D02*
G01*
X137303003Y-137202070D01*
X140257426Y-137723014D01*
X140413710Y-136836687D01*
X137459286Y-136315743D01*
G37*
G04 #@! TO.C,SW24*
G36*
X103826224Y-106497414D02*
G01*
X103982507Y-105611087D01*
X101028084Y-105090143D01*
X100871800Y-105976470D01*
X103826224Y-106497414D01*
G37*
G04 #@! TO.C,SW_RESET2*
G36*
X233211772Y-88094688D02*
G01*
X233211772Y-88994688D01*
X236211772Y-88994688D01*
X236211772Y-88094688D01*
X233211772Y-88094688D01*
G37*
G04 #@! TO.C,SW1*
G36*
X356910090Y-76552593D02*
G01*
X357066374Y-77438920D01*
X360020797Y-76917975D01*
X359864513Y-76031648D01*
X356910090Y-76552593D01*
G37*
G04 #@! TO.C,SW2*
G36*
X337598171Y-76733826D02*
G01*
X337754455Y-77620153D01*
X340708878Y-77099208D01*
X340552594Y-76212881D01*
X337598171Y-76733826D01*
G37*
G04 #@! TO.C,SW3*
G36*
X318286250Y-76915060D02*
G01*
X318442534Y-77801387D01*
X321396957Y-77280442D01*
X321240673Y-76394115D01*
X318286250Y-76915060D01*
G37*
G04 #@! TO.C,SW4*
G36*
X298974329Y-77096293D02*
G01*
X299130613Y-77982620D01*
X302085036Y-77461675D01*
X301928752Y-76575348D01*
X298974329Y-77096293D01*
G37*
G04 #@! TO.C,SW5*
G36*
X280765076Y-83531055D02*
G01*
X280921360Y-84417382D01*
X283875783Y-83896437D01*
X283719499Y-83010110D01*
X280765076Y-83531055D01*
G37*
G04 #@! TO.C,SW6*
G36*
X262004487Y-86839052D02*
G01*
X262160771Y-87725379D01*
X265115194Y-87204434D01*
X264958910Y-86318107D01*
X262004487Y-86839052D01*
G37*
G04 #@! TO.C,SW7*
G36*
X204216376Y-86831207D02*
G01*
X204060093Y-87717534D01*
X207014516Y-88238478D01*
X207170800Y-87352151D01*
X204216376Y-86831207D01*
G37*
G04 #@! TO.C,SW8*
G36*
X185455788Y-83523210D02*
G01*
X185299505Y-84409537D01*
X188253928Y-84930481D01*
X188410212Y-84044154D01*
X185455788Y-83523210D01*
G37*
G04 #@! TO.C,SW9*
G36*
X167246533Y-77088448D02*
G01*
X167090250Y-77974775D01*
X170044673Y-78495719D01*
X170200957Y-77609392D01*
X167246533Y-77088448D01*
G37*
G04 #@! TO.C,SW10*
G36*
X147934614Y-76907214D02*
G01*
X147778331Y-77793541D01*
X150732754Y-78314485D01*
X150889038Y-77428158D01*
X147934614Y-76907214D01*
G37*
G04 #@! TO.C,SW13*
G36*
X362000718Y-106574720D02*
G01*
X361844434Y-105688393D01*
X358890011Y-106209338D01*
X359046295Y-107095665D01*
X362000718Y-106574720D01*
G37*
G04 #@! TO.C,SW14*
G36*
X342688796Y-106755951D02*
G01*
X342532512Y-105869624D01*
X339578089Y-106390569D01*
X339734373Y-107276896D01*
X342688796Y-106755951D01*
G37*
G04 #@! TO.C,SW15*
G36*
X321594249Y-95675646D02*
G01*
X321750533Y-96561973D01*
X324704956Y-96041028D01*
X324548672Y-95154701D01*
X321594249Y-95675646D01*
G37*
G04 #@! TO.C,SW16*
G36*
X302282327Y-95856880D02*
G01*
X302438611Y-96743207D01*
X305393034Y-96222262D01*
X305236750Y-95335935D01*
X302282327Y-95856880D01*
G37*
G04 #@! TO.C,SW17*
G36*
X284073072Y-102291643D02*
G01*
X284229356Y-103177970D01*
X287183779Y-102657025D01*
X287027495Y-101770698D01*
X284073072Y-102291643D01*
G37*
G04 #@! TO.C,SW18*
G36*
X265312485Y-105599641D02*
G01*
X265468769Y-106485968D01*
X268423192Y-105965023D01*
X268266908Y-105078696D01*
X265312485Y-105599641D01*
G37*
G04 #@! TO.C,SW19*
G36*
X200908378Y-105591795D02*
G01*
X200752095Y-106478122D01*
X203706518Y-106999066D01*
X203862802Y-106112739D01*
X200908378Y-105591795D01*
G37*
G04 #@! TO.C,SW20*
G36*
X182147792Y-102283796D02*
G01*
X181991509Y-103170123D01*
X184945932Y-103691067D01*
X185102216Y-102804740D01*
X182147792Y-102283796D01*
G37*
G04 #@! TO.C,SW21*
G36*
X163938536Y-95849036D02*
G01*
X163782253Y-96735363D01*
X166736676Y-97256307D01*
X166892960Y-96369980D01*
X163938536Y-95849036D01*
G37*
G04 #@! TO.C,SW22*
G36*
X144626617Y-95667801D02*
G01*
X144470334Y-96554128D01*
X147424757Y-97075072D01*
X147581041Y-96188745D01*
X144626617Y-95667801D01*
G37*
G04 #@! TO.C,SW23*
G36*
X125314694Y-95486569D02*
G01*
X125158411Y-96372896D01*
X128112834Y-96893840D01*
X128269118Y-96007513D01*
X125314694Y-95486569D01*
G37*
G04 #@! TO.C,SW25*
G36*
X363526090Y-114073768D02*
G01*
X363682374Y-114960095D01*
X366636797Y-114439150D01*
X366480513Y-113552823D01*
X363526090Y-114073768D01*
G37*
G04 #@! TO.C,SW26*
G36*
X344214166Y-114255002D02*
G01*
X344370450Y-115141329D01*
X347324873Y-114620384D01*
X347168589Y-113734057D01*
X344214166Y-114255002D01*
G37*
G04 #@! TO.C,SW27*
G36*
X324902245Y-114436235D02*
G01*
X325058529Y-115322562D01*
X328012952Y-114801617D01*
X327856668Y-113915290D01*
X324902245Y-114436235D01*
G37*
G04 #@! TO.C,SW28*
G36*
X305590327Y-114617468D02*
G01*
X305746611Y-115503795D01*
X308701034Y-114982850D01*
X308544750Y-114096523D01*
X305590327Y-114617468D01*
G37*
G04 #@! TO.C,SW29*
G36*
X287381071Y-121052230D02*
G01*
X287537355Y-121938557D01*
X290491778Y-121417612D01*
X290335494Y-120531285D01*
X287381071Y-121052230D01*
G37*
G04 #@! TO.C,SW30*
G36*
X268620482Y-124360227D02*
G01*
X268776766Y-125246554D01*
X271731189Y-124725609D01*
X271574905Y-123839282D01*
X268620482Y-124360227D01*
G37*
G04 #@! TO.C,SW31*
G36*
X197600380Y-124352384D02*
G01*
X197444097Y-125238711D01*
X200398520Y-125759655D01*
X200554804Y-124873328D01*
X197600380Y-124352384D01*
G37*
G04 #@! TO.C,SW32*
G36*
X178839794Y-121044386D02*
G01*
X178683511Y-121930713D01*
X181637934Y-122451657D01*
X181794218Y-121565330D01*
X178839794Y-121044386D01*
G37*
G04 #@! TO.C,SW33*
G36*
X160630537Y-114609623D02*
G01*
X160474254Y-115495950D01*
X163428677Y-116016894D01*
X163584961Y-115130567D01*
X160630537Y-114609623D01*
G37*
G04 #@! TO.C,SW34*
G36*
X141318617Y-114428390D02*
G01*
X141162334Y-115314717D01*
X144116757Y-115835661D01*
X144273041Y-114949334D01*
X141318617Y-114428390D01*
G37*
G04 #@! TO.C,SW37*
G36*
X347522164Y-133015590D02*
G01*
X347678448Y-133901917D01*
X350632871Y-133380972D01*
X350476587Y-132494645D01*
X347522164Y-133015590D01*
G37*
G04 #@! TO.C,SW38*
G36*
X328761577Y-136323587D02*
G01*
X328917861Y-137209914D01*
X331872284Y-136688969D01*
X331716000Y-135802642D01*
X328761577Y-136323587D01*
G37*
G04 #@! TO.C,SW39*
G36*
X310000989Y-139631584D02*
G01*
X310157273Y-140517911D01*
X313111696Y-139996966D01*
X312955412Y-139110639D01*
X310000989Y-139631584D01*
G37*
G04 #@! TO.C,SW40*
G36*
X291240404Y-142939582D02*
G01*
X291396688Y-143825909D01*
X294351111Y-143304964D01*
X294194827Y-142418637D01*
X291240404Y-142939582D01*
G37*
G04 #@! TO.C,SW41*
G36*
X266424708Y-148702767D02*
G01*
X267003217Y-149392207D01*
X269301350Y-147463844D01*
X268722841Y-146774404D01*
X266424708Y-148702767D01*
G37*
G04 #@! TO.C,SW42*
G36*
X247424302Y-138637958D02*
G01*
X248002811Y-139327398D01*
X250300944Y-137399035D01*
X249722435Y-136709595D01*
X247424302Y-138637958D01*
G37*
G04 #@! TO.C,SW44*
G36*
X199752479Y-148829307D02*
G01*
X199173970Y-149518747D01*
X201472103Y-151447110D01*
X202050612Y-150757670D01*
X199752479Y-148829307D01*
G37*
G04 #@! TO.C,SW45*
G36*
X174980462Y-142931738D02*
G01*
X174824179Y-143818065D01*
X177778602Y-144339009D01*
X177934886Y-143452682D01*
X174980462Y-142931738D01*
G37*
G04 #@! TO.C,SW46*
G36*
X156219875Y-139623740D02*
G01*
X156063592Y-140510067D01*
X159018015Y-141031011D01*
X159174299Y-140144684D01*
X156219875Y-139623740D01*
G37*
G04 #@! TO.C,SW43*
G36*
X218752522Y-138862979D02*
G01*
X218174013Y-139552419D01*
X220472146Y-141480782D01*
X221050655Y-140791342D01*
X218752522Y-138862979D01*
G37*
G04 #@! TO.C,SW36*
G36*
X102694778Y-114065923D02*
G01*
X102538495Y-114952250D01*
X105492918Y-115473194D01*
X105649202Y-114586867D01*
X102694778Y-114065923D01*
G37*
G04 #@! TO.C,SW48*
G36*
X118698699Y-133007744D02*
G01*
X118542416Y-133894071D01*
X121496839Y-134415015D01*
X121653123Y-133528688D01*
X118698699Y-133007744D01*
G37*
G04 #@! TO.C,SW35*
G36*
X122006697Y-114247158D02*
G01*
X121850414Y-115133485D01*
X124804837Y-115654429D01*
X124961121Y-114768102D01*
X122006697Y-114247158D01*
G37*
D11*
G04 #@! TO.C,R13*
G36*
X230208295Y-73747334D02*
G01*
X230208295Y-74347334D01*
X229008295Y-74347334D01*
X229008295Y-73747334D01*
X230208295Y-73747334D01*
G37*
X230208295Y-73747334D02*
X230208295Y-74347334D01*
X229008295Y-74347334D01*
X229008295Y-73747334D01*
X230208295Y-73747334D01*
G04 #@! TO.C,R2*
G36*
X214936772Y-110919689D02*
G01*
X214336772Y-110919689D01*
X214336772Y-109719689D01*
X214936772Y-109719689D01*
X214936772Y-110919689D01*
G37*
X214936772Y-110919689D02*
X214336772Y-110919689D01*
X214336772Y-109719689D01*
X214936772Y-109719689D01*
X214936772Y-110919689D01*
G04 #@! TO.C,R7*
G36*
X237358293Y-74372332D02*
G01*
X237358293Y-73772332D01*
X238558293Y-73772332D01*
X238558293Y-74372332D01*
X237358293Y-74372332D01*
G37*
X237358293Y-74372332D02*
X237358293Y-73772332D01*
X238558293Y-73772332D01*
X238558293Y-74372332D01*
X237358293Y-74372332D01*
G04 #@! TO.C,R6*
G36*
X233208295Y-74347334D02*
G01*
X233208295Y-73747334D01*
X234408295Y-73747334D01*
X234408295Y-74347334D01*
X233208295Y-74347334D01*
G37*
X233208295Y-74347334D02*
X233208295Y-73747334D01*
X234408295Y-73747334D01*
X234408295Y-74347334D01*
X233208295Y-74347334D01*
G04 #@! TO.C,R5*
G36*
X253681592Y-118880891D02*
G01*
X253681592Y-119480891D01*
X252481592Y-119480891D01*
X252481592Y-118880891D01*
X253681592Y-118880891D01*
G37*
X253681592Y-118880891D02*
X253681592Y-119480891D01*
X252481592Y-119480891D01*
X252481592Y-118880891D01*
X253681592Y-118880891D01*
G04 #@! TO.C,R4*
G36*
X253681592Y-115230890D02*
G01*
X253681592Y-115830890D01*
X252481592Y-115830890D01*
X252481592Y-115230890D01*
X253681592Y-115230890D01*
G37*
X253681592Y-115230890D02*
X253681592Y-115830890D01*
X252481592Y-115830890D01*
X252481592Y-115230890D01*
X253681592Y-115230890D01*
G04 #@! TO.C,R3*
G36*
X248611772Y-110844689D02*
G01*
X249211772Y-110844689D01*
X249211772Y-112044689D01*
X248611772Y-112044689D01*
X248611772Y-110844689D01*
G37*
X248611772Y-110844689D02*
X249211772Y-110844689D01*
X249211772Y-112044689D01*
X248611772Y-112044689D01*
X248611772Y-110844689D01*
G04 #@! TO.C,R1*
G36*
X224261772Y-74369689D02*
G01*
X224261772Y-73769689D01*
X225461772Y-73769689D01*
X225461772Y-74369689D01*
X224261772Y-74369689D01*
G37*
X224261772Y-74369689D02*
X224261772Y-73769689D01*
X225461772Y-73769689D01*
X225461772Y-74369689D01*
X224261772Y-74369689D01*
G04 #@! TO.C,R8*
G36*
X207061772Y-76494689D02*
G01*
X206461772Y-76494689D01*
X206461772Y-75294689D01*
X207061772Y-75294689D01*
X207061772Y-76494689D01*
G37*
X207061772Y-76494689D02*
X206461772Y-76494689D01*
X206461772Y-75294689D01*
X207061772Y-75294689D01*
X207061772Y-76494689D01*
G04 #@! TO.C,R12*
G36*
X97111773Y-74894690D02*
G01*
X97711773Y-74894690D01*
X97711773Y-76094690D01*
X97111773Y-76094690D01*
X97111773Y-74894690D01*
G37*
X97111773Y-74894690D02*
X97711773Y-74894690D01*
X97711773Y-76094690D01*
X97111773Y-76094690D01*
X97111773Y-74894690D01*
G04 #@! TO.C,R11*
G36*
X97711772Y-78094688D02*
G01*
X97111772Y-78094688D01*
X97111772Y-76894688D01*
X97711772Y-76894688D01*
X97711772Y-78094688D01*
G37*
X97711772Y-78094688D02*
X97111772Y-78094688D01*
X97111772Y-76894688D01*
X97711772Y-76894688D01*
X97711772Y-78094688D01*
G04 #@! TO.C,R10*
G36*
X236476531Y-137612203D02*
G01*
X236476531Y-137012203D01*
X237676531Y-137012203D01*
X237676531Y-137612203D01*
X236476531Y-137612203D01*
G37*
X236476531Y-137612203D02*
X236476531Y-137012203D01*
X237676531Y-137012203D01*
X237676531Y-137612203D01*
X236476531Y-137612203D01*
G04 #@! TO.C,R9*
G36*
X206461772Y-77819689D02*
G01*
X207061772Y-77819689D01*
X207061772Y-79019689D01*
X206461772Y-79019689D01*
X206461772Y-77819689D01*
G37*
X206461772Y-77819689D02*
X207061772Y-77819689D01*
X207061772Y-79019689D01*
X206461772Y-79019689D01*
X206461772Y-77819689D01*
G04 #@! TO.C,C1*
G36*
X218761672Y-94319789D02*
G01*
X218761672Y-94719589D01*
X219761872Y-94719589D01*
X219761872Y-94319789D01*
X218761672Y-94319789D01*
G37*
X218761672Y-94319789D02*
X218761672Y-94719589D01*
X219761872Y-94719589D01*
X219761872Y-94319789D01*
X218761672Y-94319789D01*
G04 #@! TO.C,C3*
G36*
X218436672Y-101294789D02*
G01*
X218436672Y-101694589D01*
X219436872Y-101694589D01*
X219436872Y-101294789D01*
X218436672Y-101294789D01*
G37*
X218436672Y-101294789D02*
X218436672Y-101694589D01*
X219436872Y-101694589D01*
X219436872Y-101294789D01*
X218436672Y-101294789D01*
G04 #@! TO.C,C4*
G36*
X241936872Y-132994589D02*
G01*
X241936872Y-132594789D01*
X240936672Y-132594789D01*
X240936672Y-132994589D01*
X241936872Y-132994589D01*
G37*
X241936872Y-132994589D02*
X241936872Y-132594789D01*
X240936672Y-132594789D01*
X240936672Y-132994589D01*
X241936872Y-132994589D01*
G04 #@! TO.C,C20*
G36*
X198111872Y-80869589D02*
G01*
X198111872Y-80469789D01*
X197111672Y-80469789D01*
X197111672Y-80869589D01*
X198111872Y-80869589D01*
G37*
X198111872Y-80869589D02*
X198111872Y-80469789D01*
X197111672Y-80469789D01*
X197111672Y-80869589D01*
X198111872Y-80869589D01*
G04 #@! TO.C,C6*
G36*
X245436872Y-125103589D02*
G01*
X245436872Y-124703789D01*
X244436672Y-124703789D01*
X244436672Y-125103589D01*
X245436872Y-125103589D01*
G37*
X245436872Y-125103589D02*
X245436872Y-124703789D01*
X244436672Y-124703789D01*
X244436672Y-125103589D01*
X245436872Y-125103589D01*
G04 #@! TO.C,C5*
G36*
X254361872Y-98644789D02*
G01*
X254761672Y-98644789D01*
X254761672Y-97644589D01*
X254361872Y-97644589D01*
X254361872Y-98644789D01*
G37*
X254361872Y-98644789D02*
X254761672Y-98644789D01*
X254761672Y-97644589D01*
X254361872Y-97644589D01*
X254361872Y-98644789D01*
G04 #@! TO.C,C2*
G36*
X238236872Y-80569789D02*
G01*
X238636672Y-80569789D01*
X238636672Y-79569589D01*
X238236872Y-79569589D01*
X238236872Y-80569789D01*
G37*
X238236872Y-80569789D02*
X238636672Y-80569789D01*
X238636672Y-79569589D01*
X238236872Y-79569589D01*
X238236872Y-80569789D01*
G04 #@! TO.C,C7*
G36*
X233411872Y-116594588D02*
G01*
X233411872Y-116194788D01*
X232411672Y-116194788D01*
X232411672Y-116594588D01*
X233411872Y-116594588D01*
G37*
X233411872Y-116594588D02*
X233411872Y-116194788D01*
X232411672Y-116194788D01*
X232411672Y-116594588D01*
X233411872Y-116594588D01*
G04 #@! TO.C,D42*
G36*
X257227561Y-149816439D02*
G01*
X256416853Y-148931707D01*
X255827031Y-149472179D01*
X256637739Y-150356911D01*
X257227561Y-149816439D01*
G37*
X257227561Y-149816439D02*
X256416853Y-148931707D01*
X255827031Y-149472179D01*
X256637739Y-150356911D01*
X257227561Y-149816439D01*
G04 #@! TO.C,D9*
G36*
X164931827Y-91943433D02*
G01*
X165140205Y-90761664D01*
X164352359Y-90622745D01*
X164143981Y-91804514D01*
X164931827Y-91943433D01*
G37*
X164931827Y-91943433D02*
X165140205Y-90761664D01*
X164352359Y-90622745D01*
X164143981Y-91804514D01*
X164931827Y-91943433D01*
G04 #@! TO.C,D36*
G36*
X103580695Y-129485265D02*
G01*
X103789073Y-128303496D01*
X103001227Y-128164577D01*
X102792849Y-129346346D01*
X103580695Y-129485265D01*
G37*
X103580695Y-129485265D02*
X103789073Y-128303496D01*
X103001227Y-128164577D01*
X102792849Y-129346346D01*
X103580695Y-129485265D01*
G04 #@! TO.C,D25*
G36*
X363624977Y-129319462D02*
G01*
X363416599Y-128137693D01*
X362628753Y-128276612D01*
X362837131Y-129458381D01*
X363624977Y-129319462D01*
G37*
X363624977Y-129319462D02*
X363416599Y-128137693D01*
X362628753Y-128276612D01*
X362837131Y-129458381D01*
X363624977Y-129319462D01*
G04 #@! TO.C,D24*
G36*
X103688069Y-110160321D02*
G01*
X103896447Y-108978552D01*
X103108601Y-108839633D01*
X102900223Y-110021402D01*
X103688069Y-110160321D01*
G37*
X103688069Y-110160321D02*
X103896447Y-108978552D01*
X103108601Y-108839633D01*
X102900223Y-110021402D01*
X103688069Y-110160321D01*
G04 #@! TO.C,D13*
G36*
X363123681Y-110063977D02*
G01*
X362915303Y-108882208D01*
X362127457Y-109021127D01*
X362335835Y-110202896D01*
X363123681Y-110063977D01*
G37*
X363123681Y-110063977D02*
X362915303Y-108882208D01*
X362127457Y-109021127D01*
X362335835Y-110202896D01*
X363123681Y-110063977D01*
G04 #@! TO.C,D12*
G36*
X106996065Y-91399733D02*
G01*
X107204443Y-90217964D01*
X106416597Y-90079045D01*
X106208219Y-91260814D01*
X106996065Y-91399733D01*
G37*
X106996065Y-91399733D02*
X107204443Y-90217964D01*
X106416597Y-90079045D01*
X106208219Y-91260814D01*
X106996065Y-91399733D01*
G04 #@! TO.C,D1*
G36*
X359815685Y-91303389D02*
G01*
X359607307Y-90121620D01*
X358819461Y-90260539D01*
X359027839Y-91442308D01*
X359815685Y-91303389D01*
G37*
X359815685Y-91303389D02*
X359607307Y-90121620D01*
X358819461Y-90260539D01*
X359027839Y-91442308D01*
X359815685Y-91303389D01*
G04 #@! TO.C,D48*
G36*
X116383995Y-147862730D02*
G01*
X116592373Y-146680961D01*
X115804527Y-146542042D01*
X115596149Y-147723811D01*
X116383995Y-147862730D01*
G37*
X116383995Y-147862730D02*
X116592373Y-146680961D01*
X115804527Y-146542042D01*
X115596149Y-147723811D01*
X116383995Y-147862730D01*
G04 #@! TO.C,D18*
G36*
X268218076Y-120350437D02*
G01*
X268009698Y-119168668D01*
X267221852Y-119307587D01*
X267430230Y-120489356D01*
X268218076Y-120350437D01*
G37*
X268218076Y-120350437D02*
X268009698Y-119168668D01*
X267221852Y-119307587D01*
X267430230Y-120489356D01*
X268218076Y-120350437D01*
G04 #@! TO.C,D17*
G36*
X286978665Y-117042440D02*
G01*
X286770287Y-115860671D01*
X285982441Y-115999590D01*
X286190819Y-117181359D01*
X286978665Y-117042440D01*
G37*
X286978665Y-117042440D02*
X286770287Y-115860671D01*
X285982441Y-115999590D01*
X286190819Y-117181359D01*
X286978665Y-117042440D01*
G04 #@! TO.C,D43*
G36*
X209050285Y-151067453D02*
G01*
X209860993Y-150182721D01*
X209271171Y-149642249D01*
X208460463Y-150526981D01*
X209050285Y-151067453D01*
G37*
X209050285Y-151067453D02*
X209860993Y-150182721D01*
X209271171Y-149642249D01*
X208460463Y-150526981D01*
X209050285Y-151067453D01*
G04 #@! TO.C,D35*
G36*
X119691991Y-129102143D02*
G01*
X119900369Y-127920374D01*
X119112523Y-127781455D01*
X118904145Y-128963224D01*
X119691991Y-129102143D01*
G37*
X119691991Y-129102143D02*
X119900369Y-127920374D01*
X119112523Y-127781455D01*
X118904145Y-128963224D01*
X119691991Y-129102143D01*
G04 #@! TO.C,D23*
G36*
X122999989Y-110341553D02*
G01*
X123208367Y-109159784D01*
X122420521Y-109020865D01*
X122212143Y-110202634D01*
X122999989Y-110341553D01*
G37*
X122999989Y-110341553D02*
X123208367Y-109159784D01*
X122420521Y-109020865D01*
X122212143Y-110202634D01*
X122999989Y-110341553D01*
G04 #@! TO.C,D10*
G36*
X145619907Y-91762200D02*
G01*
X145828285Y-90580431D01*
X145040439Y-90441512D01*
X144832061Y-91623281D01*
X145619907Y-91762200D01*
G37*
X145619907Y-91762200D02*
X145828285Y-90580431D01*
X145040439Y-90441512D01*
X144832061Y-91623281D01*
X145619907Y-91762200D01*
G04 #@! TO.C,D40*
G36*
X294145993Y-157690379D02*
G01*
X293937615Y-156508610D01*
X293149769Y-156647529D01*
X293358147Y-157829298D01*
X294145993Y-157690379D01*
G37*
X294145993Y-157690379D02*
X293937615Y-156508610D01*
X293149769Y-156647529D01*
X293358147Y-157829298D01*
X294145993Y-157690379D01*
G04 #@! TO.C,D38*
G36*
X331667168Y-151074384D02*
G01*
X331458790Y-149892615D01*
X330670944Y-150031534D01*
X330879322Y-151213303D01*
X331667168Y-151074384D01*
G37*
X331667168Y-151074384D02*
X331458790Y-149892615D01*
X330670944Y-150031534D01*
X330879322Y-151213303D01*
X331667168Y-151074384D01*
G04 #@! TO.C,D37*
G36*
X350427757Y-147766386D02*
G01*
X350219379Y-146584617D01*
X349431533Y-146723536D01*
X349639911Y-147905305D01*
X350427757Y-147766386D01*
G37*
X350427757Y-147766386D02*
X350219379Y-146584617D01*
X349431533Y-146723536D01*
X349639911Y-147905305D01*
X350427757Y-147766386D01*
G04 #@! TO.C,D34*
G36*
X139003911Y-129283375D02*
G01*
X139212289Y-128101606D01*
X138424443Y-127962687D01*
X138216065Y-129144456D01*
X139003911Y-129283375D01*
G37*
X139003911Y-129283375D02*
X139212289Y-128101606D01*
X138424443Y-127962687D01*
X138216065Y-129144456D01*
X139003911Y-129283375D01*
G04 #@! TO.C,D31*
G36*
X195285675Y-139207369D02*
G01*
X195494053Y-138025600D01*
X194706207Y-137886681D01*
X194497829Y-139068450D01*
X195285675Y-139207369D01*
G37*
X195285675Y-139207369D02*
X195494053Y-138025600D01*
X194706207Y-137886681D01*
X194497829Y-139068450D01*
X195285675Y-139207369D01*
G04 #@! TO.C,D30*
G36*
X271526075Y-139111025D02*
G01*
X271317697Y-137929256D01*
X270529851Y-138068175D01*
X270738229Y-139249944D01*
X271526075Y-139111025D01*
G37*
X271526075Y-139111025D02*
X271317697Y-137929256D01*
X270529851Y-138068175D01*
X270738229Y-139249944D01*
X271526075Y-139111025D01*
G04 #@! TO.C,D29*
G36*
X290286663Y-135803026D02*
G01*
X290078285Y-134621257D01*
X289290439Y-134760176D01*
X289498817Y-135941945D01*
X290286663Y-135803026D01*
G37*
X290286663Y-135803026D02*
X290078285Y-134621257D01*
X289290439Y-134760176D01*
X289498817Y-135941945D01*
X290286663Y-135803026D01*
G04 #@! TO.C,D27*
G36*
X327807839Y-129187033D02*
G01*
X327599461Y-128005264D01*
X326811615Y-128144183D01*
X327019993Y-129325952D01*
X327807839Y-129187033D01*
G37*
X327807839Y-129187033D02*
X327599461Y-128005264D01*
X326811615Y-128144183D01*
X327019993Y-129325952D01*
X327807839Y-129187033D01*
G04 #@! TO.C,D26*
G36*
X347119760Y-129005798D02*
G01*
X346911382Y-127824029D01*
X346123536Y-127962948D01*
X346331914Y-129144717D01*
X347119760Y-129005798D01*
G37*
X347119760Y-129005798D02*
X346911382Y-127824029D01*
X346123536Y-127962948D01*
X346331914Y-129144717D01*
X347119760Y-129005798D01*
G04 #@! TO.C,D21*
G36*
X161623830Y-110704021D02*
G01*
X161832208Y-109522252D01*
X161044362Y-109383333D01*
X160835984Y-110565102D01*
X161623830Y-110704021D01*
G37*
X161623830Y-110704021D02*
X161832208Y-109522252D01*
X161044362Y-109383333D01*
X160835984Y-110565102D01*
X161623830Y-110704021D01*
G04 #@! TO.C,D16*
G36*
X305187919Y-110607676D02*
G01*
X304979541Y-109425907D01*
X304191695Y-109564826D01*
X304400073Y-110746595D01*
X305187919Y-110607676D01*
G37*
X305187919Y-110607676D02*
X304979541Y-109425907D01*
X304191695Y-109564826D01*
X304400073Y-110746595D01*
X305187919Y-110607676D01*
G04 #@! TO.C,D15*
G36*
X324499840Y-110426444D02*
G01*
X324291462Y-109244675D01*
X323503616Y-109383594D01*
X323711994Y-110565363D01*
X324499840Y-110426444D01*
G37*
X324499840Y-110426444D02*
X324291462Y-109244675D01*
X323503616Y-109383594D01*
X323711994Y-110565363D01*
X324499840Y-110426444D01*
G04 #@! TO.C,D11*
G36*
X126307986Y-91580968D02*
G01*
X126516364Y-90399199D01*
X125728518Y-90260280D01*
X125520140Y-91442049D01*
X126307986Y-91580968D01*
G37*
X126307986Y-91580968D02*
X126516364Y-90399199D01*
X125728518Y-90260280D01*
X125520140Y-91442049D01*
X126307986Y-91580968D01*
G04 #@! TO.C,D8*
G36*
X183141082Y-98378195D02*
G01*
X183349460Y-97196426D01*
X182561614Y-97057507D01*
X182353236Y-98239276D01*
X183141082Y-98378195D01*
G37*
X183141082Y-98378195D02*
X183349460Y-97196426D01*
X182561614Y-97057507D01*
X182353236Y-98239276D01*
X183141082Y-98378195D01*
G04 #@! TO.C,D5*
G36*
X283670667Y-98281852D02*
G01*
X283462289Y-97100083D01*
X282674443Y-97239002D01*
X282882821Y-98420771D01*
X283670667Y-98281852D01*
G37*
X283670667Y-98281852D02*
X283462289Y-97100083D01*
X282674443Y-97239002D01*
X282882821Y-98420771D01*
X283670667Y-98281852D01*
G04 #@! TO.C,D4*
G36*
X301879921Y-91847088D02*
G01*
X301671543Y-90665319D01*
X300883697Y-90804238D01*
X301092075Y-91986007D01*
X301879921Y-91847088D01*
G37*
X301879921Y-91847088D02*
X301671543Y-90665319D01*
X300883697Y-90804238D01*
X301092075Y-91986007D01*
X301879921Y-91847088D01*
G04 #@! TO.C,D7*
G36*
X201901671Y-101686194D02*
G01*
X202110049Y-100504425D01*
X201322203Y-100365506D01*
X201113825Y-101547275D01*
X201901671Y-101686194D01*
G37*
X201901671Y-101686194D02*
X202110049Y-100504425D01*
X201322203Y-100365506D01*
X201113825Y-101547275D01*
X201901671Y-101686194D01*
G04 #@! TO.C,D47*
G36*
X135144581Y-151170728D02*
G01*
X135352959Y-149988959D01*
X134565113Y-149850040D01*
X134356735Y-151031809D01*
X135144581Y-151170728D01*
G37*
X135144581Y-151170728D02*
X135352959Y-149988959D01*
X134565113Y-149850040D01*
X134356735Y-151031809D01*
X135144581Y-151170728D01*
G04 #@! TO.C,D46*
G36*
X153905168Y-154478725D02*
G01*
X154113546Y-153296956D01*
X153325700Y-153158037D01*
X153117322Y-154339806D01*
X153905168Y-154478725D01*
G37*
X153905168Y-154478725D02*
X154113546Y-153296956D01*
X153325700Y-153158037D01*
X153117322Y-154339806D01*
X153905168Y-154478725D01*
G04 #@! TO.C,D45*
G36*
X172665756Y-157786724D02*
G01*
X172874134Y-156604955D01*
X172086288Y-156466036D01*
X171877910Y-157647805D01*
X172665756Y-157786724D01*
G37*
X172665756Y-157786724D02*
X172874134Y-156604955D01*
X172086288Y-156466036D01*
X171877910Y-157647805D01*
X172665756Y-157786724D01*
G04 #@! TO.C,D44*
G36*
X189893272Y-147491458D02*
G01*
X188974018Y-146720113D01*
X188459788Y-147332948D01*
X189379042Y-148104293D01*
X189893272Y-147491458D01*
G37*
X189893272Y-147491458D02*
X188974018Y-146720113D01*
X188459788Y-147332948D01*
X189379042Y-148104293D01*
X189893272Y-147491458D01*
G04 #@! TO.C,D41*
G36*
X278268392Y-148091833D02*
G01*
X279187646Y-147320488D01*
X278673416Y-146707653D01*
X277754162Y-147478998D01*
X278268392Y-148091833D01*
G37*
X278268392Y-148091833D02*
X279187646Y-147320488D01*
X278673416Y-146707653D01*
X277754162Y-147478998D01*
X278268392Y-148091833D01*
G04 #@! TO.C,D39*
G36*
X312906581Y-154382381D02*
G01*
X312698203Y-153200612D01*
X311910357Y-153339531D01*
X312118735Y-154521300D01*
X312906581Y-154382381D01*
G37*
X312906581Y-154382381D02*
X312698203Y-153200612D01*
X311910357Y-153339531D01*
X312118735Y-154521300D01*
X312906581Y-154382381D01*
G04 #@! TO.C,D33*
G36*
X158315832Y-129464608D02*
G01*
X158524210Y-128282839D01*
X157736364Y-128143920D01*
X157527986Y-129325689D01*
X158315832Y-129464608D01*
G37*
X158315832Y-129464608D02*
X158524210Y-128282839D01*
X157736364Y-128143920D01*
X157527986Y-129325689D01*
X158315832Y-129464608D01*
G04 #@! TO.C,D32*
G36*
X176525088Y-135899371D02*
G01*
X176733466Y-134717602D01*
X175945620Y-134578683D01*
X175737242Y-135760452D01*
X176525088Y-135899371D01*
G37*
X176525088Y-135899371D02*
X176733466Y-134717602D01*
X175945620Y-134578683D01*
X175737242Y-135760452D01*
X176525088Y-135899371D01*
G04 #@! TO.C,D28*
G36*
X308495917Y-129368265D02*
G01*
X308287539Y-128186496D01*
X307499693Y-128325415D01*
X307708071Y-129507184D01*
X308495917Y-129368265D01*
G37*
X308495917Y-129368265D02*
X308287539Y-128186496D01*
X307499693Y-128325415D01*
X307708071Y-129507184D01*
X308495917Y-129368265D01*
G04 #@! TO.C,D22*
G36*
X142311910Y-110522788D02*
G01*
X142520288Y-109341019D01*
X141732442Y-109202100D01*
X141524064Y-110383869D01*
X142311910Y-110522788D01*
G37*
X142311910Y-110522788D02*
X142520288Y-109341019D01*
X141732442Y-109202100D01*
X141524064Y-110383869D01*
X142311910Y-110522788D01*
G04 #@! TO.C,D20*
G36*
X179833085Y-117138783D02*
G01*
X180041463Y-115957014D01*
X179253617Y-115818095D01*
X179045239Y-116999864D01*
X179833085Y-117138783D01*
G37*
X179833085Y-117138783D02*
X180041463Y-115957014D01*
X179253617Y-115818095D01*
X179045239Y-116999864D01*
X179833085Y-117138783D01*
G04 #@! TO.C,D19*
G36*
X198593673Y-120446783D02*
G01*
X198802051Y-119265014D01*
X198014205Y-119126095D01*
X197805827Y-120307864D01*
X198593673Y-120446783D01*
G37*
X198593673Y-120446783D02*
X198802051Y-119265014D01*
X198014205Y-119126095D01*
X197805827Y-120307864D01*
X198593673Y-120446783D01*
G04 #@! TO.C,D14*
G36*
X343811761Y-110245211D02*
G01*
X343603383Y-109063442D01*
X342815537Y-109202361D01*
X343023915Y-110384130D01*
X343811761Y-110245211D01*
G37*
X343811761Y-110245211D02*
X343603383Y-109063442D01*
X342815537Y-109202361D01*
X343023915Y-110384130D01*
X343811761Y-110245211D01*
G04 #@! TO.C,D6*
G36*
X264910080Y-101589851D02*
G01*
X264701702Y-100408082D01*
X263913856Y-100547001D01*
X264122234Y-101728770D01*
X264910080Y-101589851D01*
G37*
X264910080Y-101589851D02*
X264701702Y-100408082D01*
X263913856Y-100547001D01*
X264122234Y-101728770D01*
X264910080Y-101589851D01*
G04 #@! TO.C,D3*
G36*
X321191843Y-91665855D02*
G01*
X320983465Y-90484086D01*
X320195619Y-90623005D01*
X320403997Y-91804774D01*
X321191843Y-91665855D01*
G37*
X321191843Y-91665855D02*
X320983465Y-90484086D01*
X320195619Y-90623005D01*
X320403997Y-91804774D01*
X321191843Y-91665855D01*
G04 #@! TO.C,D2*
G36*
X340503762Y-91484622D02*
G01*
X340295384Y-90302853D01*
X339507538Y-90441772D01*
X339715916Y-91623541D01*
X340503762Y-91484622D01*
G37*
X340503762Y-91484622D02*
X340295384Y-90302853D01*
X339507538Y-90441772D01*
X339715916Y-91623541D01*
X340503762Y-91484622D01*
G04 #@! TO.C,Y1*
G36*
X222011772Y-127519689D02*
G01*
X222011772Y-127119689D01*
X223011772Y-127119689D01*
X223011772Y-127519689D01*
X222011772Y-127519689D01*
G37*
X222011772Y-127519689D02*
X222011772Y-127119689D01*
X223011772Y-127119689D01*
X223011772Y-127519689D01*
X222011772Y-127519689D01*
G36*
X222011772Y-128719689D02*
G01*
X222011772Y-128319689D01*
X223011772Y-128319689D01*
X223011772Y-128719689D01*
X222011772Y-128719689D01*
G37*
X222011772Y-128719689D02*
X222011772Y-128319689D01*
X223011772Y-128319689D01*
X223011772Y-128719689D01*
X222011772Y-128719689D01*
G04 #@! TD*
M02*
