G04 #@! TF.GenerationSoftware,KiCad,Pcbnew,(6.0.0-rc1-dev-1469-g932b9a334)*
G04 #@! TF.CreationDate,2019-08-07T07:36:26-07:00
G04 #@! TF.ProjectId,Laptreus-v2,4c617074-7265-4757-932d-76322e6b6963,rev?*
G04 #@! TF.SameCoordinates,Original*
G04 #@! TF.FileFunction,Other,Fab,Bot*
%FSLAX46Y46*%
G04 Gerber Fmt 4.6, Leading zero omitted, Abs format (unit mm)*
G04 Created by KiCad (PCBNEW (6.0.0-rc1-dev-1469-g932b9a334)) date Wednesday, August 07, 2019 at 07:36:26 AM*
%MOMM*%
%LPD*%
G04 APERTURE LIST*
%ADD10C,0.150000*%
G04 APERTURE END LIST*
D10*
G04 #@! TO.C,X1*
X256311772Y-74594689D02*
X256311772Y-82594689D01*
X256311772Y-82594689D02*
X263811772Y-82594689D01*
X263811772Y-74594689D02*
X256311772Y-74594689D01*
X261311772Y-81794689D02*
X261311772Y-75394689D01*
X261311772Y-75394689D02*
X263811772Y-75394689D01*
X263811772Y-75394689D02*
X263811772Y-74594689D01*
X263811772Y-82594689D02*
X263811772Y-81794689D01*
X263811772Y-81794689D02*
X261311772Y-81794689D01*
G04 #@! TO.C,SW_RESET1*
X248461773Y-95694689D02*
G75*
G03X248461773Y-95694689I-750000J0D01*
G01*
X246211773Y-94444689D02*
X246211773Y-96944689D01*
X249211773Y-94444689D02*
X246211773Y-94444689D01*
X249211773Y-96944689D02*
X249211773Y-94444689D01*
X246211773Y-96944689D02*
X249211773Y-96944689D01*
G04 #@! TO.C,J2*
X238318293Y-114457333D02*
X237048293Y-115727333D01*
X244668293Y-114457333D02*
X238318293Y-114457333D01*
X244668293Y-119537333D02*
X244668293Y-114457333D01*
X237048293Y-119537333D02*
X244668293Y-119537333D01*
X237048293Y-115727333D02*
X237048293Y-119537333D01*
G04 #@! TO.C,L1*
G36*
X230233293Y-73222333D02*
G01*
X229908293Y-73222333D01*
X229908293Y-73147333D01*
X230233293Y-73147333D01*
X230233293Y-73222333D01*
G37*
X230233293Y-73222333D02*
X229908293Y-73222333D01*
X229908293Y-73147333D01*
X230233293Y-73147333D01*
X230233293Y-73222333D01*
G36*
X230208293Y-73647333D02*
G01*
X229908293Y-73647333D01*
X229908293Y-73385333D01*
X230208293Y-73385333D01*
X230208293Y-73647333D01*
G37*
X230208293Y-73647333D02*
X229908293Y-73647333D01*
X229908293Y-73385333D01*
X230208293Y-73385333D01*
X230208293Y-73647333D01*
G36*
X229808293Y-74822333D02*
G01*
X229408293Y-74822333D01*
X229408293Y-74647333D01*
X229808293Y-74647333D01*
X229808293Y-74822333D01*
G37*
X229808293Y-74822333D02*
X229408293Y-74822333D01*
X229408293Y-74647333D01*
X229808293Y-74647333D01*
X229808293Y-74822333D01*
G36*
X229933293Y-74897333D02*
G01*
X229783293Y-74897333D01*
X229783293Y-74647333D01*
X229933293Y-74647333D01*
X229933293Y-74897333D01*
G37*
X229933293Y-74897333D02*
X229783293Y-74897333D01*
X229783293Y-74647333D01*
X229933293Y-74647333D01*
X229933293Y-74897333D01*
G36*
X229433293Y-74897333D02*
G01*
X229283293Y-74897333D01*
X229283293Y-74647333D01*
X229433293Y-74647333D01*
X229433293Y-74897333D01*
G37*
X229433293Y-74897333D02*
X229283293Y-74897333D01*
X229283293Y-74647333D01*
X229433293Y-74647333D01*
X229433293Y-74897333D01*
G36*
X230233293Y-75147333D02*
G01*
X229908293Y-75147333D01*
X229908293Y-74647333D01*
X230233293Y-74647333D01*
X230233293Y-75147333D01*
G37*
X230233293Y-75147333D02*
X229908293Y-75147333D01*
X229908293Y-74647333D01*
X230233293Y-74647333D01*
X230233293Y-75147333D01*
G36*
X229308293Y-75147333D02*
G01*
X228983293Y-75147333D01*
X228983293Y-74647333D01*
X229308293Y-74647333D01*
X229308293Y-75147333D01*
G37*
X229308293Y-75147333D02*
X228983293Y-75147333D01*
X228983293Y-74647333D01*
X229308293Y-74647333D01*
X229308293Y-75147333D01*
G36*
X229808293Y-73647333D02*
G01*
X229408293Y-73647333D01*
X229408293Y-73472333D01*
X229808293Y-73472333D01*
X229808293Y-73647333D01*
G37*
X229808293Y-73647333D02*
X229408293Y-73647333D01*
X229408293Y-73472333D01*
X229808293Y-73472333D01*
X229808293Y-73647333D01*
G36*
X229433293Y-73647333D02*
G01*
X229283293Y-73647333D01*
X229283293Y-73397333D01*
X229433293Y-73397333D01*
X229433293Y-73647333D01*
G37*
X229433293Y-73647333D02*
X229283293Y-73647333D01*
X229283293Y-73397333D01*
X229433293Y-73397333D01*
X229433293Y-73647333D01*
G36*
X229933293Y-73647333D02*
G01*
X229783293Y-73647333D01*
X229783293Y-73397333D01*
X229933293Y-73397333D01*
X229933293Y-73647333D01*
G37*
X229933293Y-73647333D02*
X229783293Y-73647333D01*
X229783293Y-73397333D01*
X229933293Y-73397333D01*
X229933293Y-73647333D01*
G36*
X229308293Y-73647333D02*
G01*
X228983293Y-73647333D01*
X228983293Y-73147333D01*
X229308293Y-73147333D01*
X229308293Y-73647333D01*
G37*
X229308293Y-73647333D02*
X228983293Y-73647333D01*
X228983293Y-73147333D01*
X229308293Y-73147333D01*
X229308293Y-73647333D01*
X230161293Y-73297333D02*
G75*
G03X230161293Y-73297333I-103000J0D01*
G01*
X230183293Y-74647333D02*
X230183293Y-73222333D01*
X229033293Y-73622333D02*
X229033293Y-74672333D01*
X229258293Y-75072331D02*
G75*
G02X229958293Y-75072333I350000J-54201D01*
G01*
X229258293Y-73222335D02*
G75*
G03X229958293Y-73222333I350000J54201D01*
G01*
G04 #@! TO.C,L3*
G36*
X238586772Y-73244689D02*
G01*
X238261772Y-73244689D01*
X238261772Y-73169689D01*
X238586772Y-73169689D01*
X238586772Y-73244689D01*
G37*
X238586772Y-73244689D02*
X238261772Y-73244689D01*
X238261772Y-73169689D01*
X238586772Y-73169689D01*
X238586772Y-73244689D01*
G36*
X238561772Y-73669689D02*
G01*
X238261772Y-73669689D01*
X238261772Y-73407689D01*
X238561772Y-73407689D01*
X238561772Y-73669689D01*
G37*
X238561772Y-73669689D02*
X238261772Y-73669689D01*
X238261772Y-73407689D01*
X238561772Y-73407689D01*
X238561772Y-73669689D01*
G36*
X238161772Y-74844689D02*
G01*
X237761772Y-74844689D01*
X237761772Y-74669689D01*
X238161772Y-74669689D01*
X238161772Y-74844689D01*
G37*
X238161772Y-74844689D02*
X237761772Y-74844689D01*
X237761772Y-74669689D01*
X238161772Y-74669689D01*
X238161772Y-74844689D01*
G36*
X238286772Y-74919689D02*
G01*
X238136772Y-74919689D01*
X238136772Y-74669689D01*
X238286772Y-74669689D01*
X238286772Y-74919689D01*
G37*
X238286772Y-74919689D02*
X238136772Y-74919689D01*
X238136772Y-74669689D01*
X238286772Y-74669689D01*
X238286772Y-74919689D01*
G36*
X237786772Y-74919689D02*
G01*
X237636772Y-74919689D01*
X237636772Y-74669689D01*
X237786772Y-74669689D01*
X237786772Y-74919689D01*
G37*
X237786772Y-74919689D02*
X237636772Y-74919689D01*
X237636772Y-74669689D01*
X237786772Y-74669689D01*
X237786772Y-74919689D01*
G36*
X238586772Y-75169689D02*
G01*
X238261772Y-75169689D01*
X238261772Y-74669689D01*
X238586772Y-74669689D01*
X238586772Y-75169689D01*
G37*
X238586772Y-75169689D02*
X238261772Y-75169689D01*
X238261772Y-74669689D01*
X238586772Y-74669689D01*
X238586772Y-75169689D01*
G36*
X237661772Y-75169689D02*
G01*
X237336772Y-75169689D01*
X237336772Y-74669689D01*
X237661772Y-74669689D01*
X237661772Y-75169689D01*
G37*
X237661772Y-75169689D02*
X237336772Y-75169689D01*
X237336772Y-74669689D01*
X237661772Y-74669689D01*
X237661772Y-75169689D01*
G36*
X238161772Y-73669689D02*
G01*
X237761772Y-73669689D01*
X237761772Y-73494689D01*
X238161772Y-73494689D01*
X238161772Y-73669689D01*
G37*
X238161772Y-73669689D02*
X237761772Y-73669689D01*
X237761772Y-73494689D01*
X238161772Y-73494689D01*
X238161772Y-73669689D01*
G36*
X237786772Y-73669689D02*
G01*
X237636772Y-73669689D01*
X237636772Y-73419689D01*
X237786772Y-73419689D01*
X237786772Y-73669689D01*
G37*
X237786772Y-73669689D02*
X237636772Y-73669689D01*
X237636772Y-73419689D01*
X237786772Y-73419689D01*
X237786772Y-73669689D01*
G36*
X238286772Y-73669689D02*
G01*
X238136772Y-73669689D01*
X238136772Y-73419689D01*
X238286772Y-73419689D01*
X238286772Y-73669689D01*
G37*
X238286772Y-73669689D02*
X238136772Y-73669689D01*
X238136772Y-73419689D01*
X238286772Y-73419689D01*
X238286772Y-73669689D01*
G36*
X237661772Y-73669689D02*
G01*
X237336772Y-73669689D01*
X237336772Y-73169689D01*
X237661772Y-73169689D01*
X237661772Y-73669689D01*
G37*
X237661772Y-73669689D02*
X237336772Y-73669689D01*
X237336772Y-73169689D01*
X237661772Y-73169689D01*
X237661772Y-73669689D01*
X238514772Y-73319689D02*
G75*
G03X238514772Y-73319689I-103000J0D01*
G01*
X238536772Y-74669689D02*
X238536772Y-73244689D01*
X237386772Y-73644689D02*
X237386772Y-74694689D01*
X237611772Y-75094687D02*
G75*
G02X238311772Y-75094689I350000J-54201D01*
G01*
X237611772Y-73244691D02*
G75*
G03X238311772Y-73244689I350000J54201D01*
G01*
G04 #@! TO.C,L2*
G36*
X234533293Y-73222334D02*
G01*
X234208293Y-73222334D01*
X234208293Y-73147334D01*
X234533293Y-73147334D01*
X234533293Y-73222334D01*
G37*
X234533293Y-73222334D02*
X234208293Y-73222334D01*
X234208293Y-73147334D01*
X234533293Y-73147334D01*
X234533293Y-73222334D01*
G36*
X234508293Y-73647334D02*
G01*
X234208293Y-73647334D01*
X234208293Y-73385334D01*
X234508293Y-73385334D01*
X234508293Y-73647334D01*
G37*
X234508293Y-73647334D02*
X234208293Y-73647334D01*
X234208293Y-73385334D01*
X234508293Y-73385334D01*
X234508293Y-73647334D01*
G36*
X234108293Y-74822334D02*
G01*
X233708293Y-74822334D01*
X233708293Y-74647334D01*
X234108293Y-74647334D01*
X234108293Y-74822334D01*
G37*
X234108293Y-74822334D02*
X233708293Y-74822334D01*
X233708293Y-74647334D01*
X234108293Y-74647334D01*
X234108293Y-74822334D01*
G36*
X234233293Y-74897334D02*
G01*
X234083293Y-74897334D01*
X234083293Y-74647334D01*
X234233293Y-74647334D01*
X234233293Y-74897334D01*
G37*
X234233293Y-74897334D02*
X234083293Y-74897334D01*
X234083293Y-74647334D01*
X234233293Y-74647334D01*
X234233293Y-74897334D01*
G36*
X233733293Y-74897334D02*
G01*
X233583293Y-74897334D01*
X233583293Y-74647334D01*
X233733293Y-74647334D01*
X233733293Y-74897334D01*
G37*
X233733293Y-74897334D02*
X233583293Y-74897334D01*
X233583293Y-74647334D01*
X233733293Y-74647334D01*
X233733293Y-74897334D01*
G36*
X234533293Y-75147334D02*
G01*
X234208293Y-75147334D01*
X234208293Y-74647334D01*
X234533293Y-74647334D01*
X234533293Y-75147334D01*
G37*
X234533293Y-75147334D02*
X234208293Y-75147334D01*
X234208293Y-74647334D01*
X234533293Y-74647334D01*
X234533293Y-75147334D01*
G36*
X233608293Y-75147334D02*
G01*
X233283293Y-75147334D01*
X233283293Y-74647334D01*
X233608293Y-74647334D01*
X233608293Y-75147334D01*
G37*
X233608293Y-75147334D02*
X233283293Y-75147334D01*
X233283293Y-74647334D01*
X233608293Y-74647334D01*
X233608293Y-75147334D01*
G36*
X234108293Y-73647334D02*
G01*
X233708293Y-73647334D01*
X233708293Y-73472334D01*
X234108293Y-73472334D01*
X234108293Y-73647334D01*
G37*
X234108293Y-73647334D02*
X233708293Y-73647334D01*
X233708293Y-73472334D01*
X234108293Y-73472334D01*
X234108293Y-73647334D01*
G36*
X233733293Y-73647334D02*
G01*
X233583293Y-73647334D01*
X233583293Y-73397334D01*
X233733293Y-73397334D01*
X233733293Y-73647334D01*
G37*
X233733293Y-73647334D02*
X233583293Y-73647334D01*
X233583293Y-73397334D01*
X233733293Y-73397334D01*
X233733293Y-73647334D01*
G36*
X234233293Y-73647334D02*
G01*
X234083293Y-73647334D01*
X234083293Y-73397334D01*
X234233293Y-73397334D01*
X234233293Y-73647334D01*
G37*
X234233293Y-73647334D02*
X234083293Y-73647334D01*
X234083293Y-73397334D01*
X234233293Y-73397334D01*
X234233293Y-73647334D01*
G36*
X233608293Y-73647334D02*
G01*
X233283293Y-73647334D01*
X233283293Y-73147334D01*
X233608293Y-73147334D01*
X233608293Y-73647334D01*
G37*
X233608293Y-73647334D02*
X233283293Y-73647334D01*
X233283293Y-73147334D01*
X233608293Y-73147334D01*
X233608293Y-73647334D01*
X234461293Y-73297334D02*
G75*
G03X234461293Y-73297334I-103000J0D01*
G01*
X234483293Y-74647334D02*
X234483293Y-73222334D01*
X233333293Y-73622334D02*
X233333293Y-74672334D01*
X233558293Y-75072332D02*
G75*
G02X234258293Y-75072334I350000J-54201D01*
G01*
X233558293Y-73222336D02*
G75*
G03X234258293Y-73222334I350000J54201D01*
G01*
G04 #@! TO.C,L4*
G36*
X225461772Y-73169689D02*
G01*
X225136772Y-73169689D01*
X225136772Y-73094689D01*
X225461772Y-73094689D01*
X225461772Y-73169689D01*
G37*
X225461772Y-73169689D02*
X225136772Y-73169689D01*
X225136772Y-73094689D01*
X225461772Y-73094689D01*
X225461772Y-73169689D01*
G36*
X225436772Y-73594689D02*
G01*
X225136772Y-73594689D01*
X225136772Y-73332689D01*
X225436772Y-73332689D01*
X225436772Y-73594689D01*
G37*
X225436772Y-73594689D02*
X225136772Y-73594689D01*
X225136772Y-73332689D01*
X225436772Y-73332689D01*
X225436772Y-73594689D01*
G36*
X225036772Y-74769689D02*
G01*
X224636772Y-74769689D01*
X224636772Y-74594689D01*
X225036772Y-74594689D01*
X225036772Y-74769689D01*
G37*
X225036772Y-74769689D02*
X224636772Y-74769689D01*
X224636772Y-74594689D01*
X225036772Y-74594689D01*
X225036772Y-74769689D01*
G36*
X225161772Y-74844689D02*
G01*
X225011772Y-74844689D01*
X225011772Y-74594689D01*
X225161772Y-74594689D01*
X225161772Y-74844689D01*
G37*
X225161772Y-74844689D02*
X225011772Y-74844689D01*
X225011772Y-74594689D01*
X225161772Y-74594689D01*
X225161772Y-74844689D01*
G36*
X224661772Y-74844689D02*
G01*
X224511772Y-74844689D01*
X224511772Y-74594689D01*
X224661772Y-74594689D01*
X224661772Y-74844689D01*
G37*
X224661772Y-74844689D02*
X224511772Y-74844689D01*
X224511772Y-74594689D01*
X224661772Y-74594689D01*
X224661772Y-74844689D01*
G36*
X225461772Y-75094689D02*
G01*
X225136772Y-75094689D01*
X225136772Y-74594689D01*
X225461772Y-74594689D01*
X225461772Y-75094689D01*
G37*
X225461772Y-75094689D02*
X225136772Y-75094689D01*
X225136772Y-74594689D01*
X225461772Y-74594689D01*
X225461772Y-75094689D01*
G36*
X224536772Y-75094689D02*
G01*
X224211772Y-75094689D01*
X224211772Y-74594689D01*
X224536772Y-74594689D01*
X224536772Y-75094689D01*
G37*
X224536772Y-75094689D02*
X224211772Y-75094689D01*
X224211772Y-74594689D01*
X224536772Y-74594689D01*
X224536772Y-75094689D01*
G36*
X225036772Y-73594689D02*
G01*
X224636772Y-73594689D01*
X224636772Y-73419689D01*
X225036772Y-73419689D01*
X225036772Y-73594689D01*
G37*
X225036772Y-73594689D02*
X224636772Y-73594689D01*
X224636772Y-73419689D01*
X225036772Y-73419689D01*
X225036772Y-73594689D01*
G36*
X224661772Y-73594689D02*
G01*
X224511772Y-73594689D01*
X224511772Y-73344689D01*
X224661772Y-73344689D01*
X224661772Y-73594689D01*
G37*
X224661772Y-73594689D02*
X224511772Y-73594689D01*
X224511772Y-73344689D01*
X224661772Y-73344689D01*
X224661772Y-73594689D01*
G36*
X225161772Y-73594689D02*
G01*
X225011772Y-73594689D01*
X225011772Y-73344689D01*
X225161772Y-73344689D01*
X225161772Y-73594689D01*
G37*
X225161772Y-73594689D02*
X225011772Y-73594689D01*
X225011772Y-73344689D01*
X225161772Y-73344689D01*
X225161772Y-73594689D01*
G36*
X224536772Y-73594689D02*
G01*
X224211772Y-73594689D01*
X224211772Y-73094689D01*
X224536772Y-73094689D01*
X224536772Y-73594689D01*
G37*
X224536772Y-73594689D02*
X224211772Y-73594689D01*
X224211772Y-73094689D01*
X224536772Y-73094689D01*
X224536772Y-73594689D01*
X225389772Y-73244689D02*
G75*
G03X225389772Y-73244689I-103000J0D01*
G01*
X225411772Y-74594689D02*
X225411772Y-73169689D01*
X224261772Y-73569689D02*
X224261772Y-74619689D01*
X224486772Y-75019687D02*
G75*
G02X225186772Y-75019689I350000J-54201D01*
G01*
X224486772Y-73169691D02*
G75*
G03X225186772Y-73169689I350000J54201D01*
G01*
G04 #@! TD*
G04 #@! TO.C,J2*
X241191626Y-116449713D02*
X241191626Y-117163999D01*
X241239245Y-117306856D01*
X241334483Y-117402094D01*
X241477340Y-117449713D01*
X241572578Y-117449713D01*
X240763054Y-116544952D02*
X240715435Y-116497333D01*
X240620197Y-116449713D01*
X240382102Y-116449713D01*
X240286864Y-116497333D01*
X240239245Y-116544952D01*
X240191626Y-116640190D01*
X240191626Y-116735428D01*
X240239245Y-116878285D01*
X240810673Y-117449713D01*
X240191626Y-117449713D01*
G04 #@! TO.C,TP3*
X247023796Y-87499448D02*
X246880939Y-87547067D01*
X246642844Y-87547067D01*
X246547606Y-87499448D01*
X246499987Y-87451829D01*
X246452368Y-87356591D01*
X246452368Y-87261353D01*
X246499987Y-87166115D01*
X246547606Y-87118496D01*
X246642844Y-87070877D01*
X246833320Y-87023258D01*
X246928558Y-86975639D01*
X246976177Y-86928020D01*
X247023796Y-86832782D01*
X247023796Y-86737544D01*
X246976177Y-86642306D01*
X246928558Y-86594687D01*
X246833320Y-86547067D01*
X246595225Y-86547067D01*
X246452368Y-86594687D01*
X246119034Y-86547067D02*
X245880939Y-87547067D01*
X245690463Y-86832782D01*
X245499987Y-87547067D01*
X245261892Y-86547067D01*
X244880939Y-87547067D02*
X244880939Y-86547067D01*
X244642844Y-86547067D01*
X244499987Y-86594687D01*
X244404749Y-86689925D01*
X244357130Y-86785163D01*
X244309511Y-86975639D01*
X244309511Y-87118496D01*
X244357130Y-87308972D01*
X244404749Y-87404210D01*
X244499987Y-87499448D01*
X244642844Y-87547067D01*
X244880939Y-87547067D01*
X243880939Y-87547067D02*
X243880939Y-86547067D01*
X243214273Y-86547067D02*
X243023796Y-86547067D01*
X242928558Y-86594687D01*
X242833320Y-86689925D01*
X242785701Y-86880401D01*
X242785701Y-87213734D01*
X242833320Y-87404210D01*
X242928558Y-87499448D01*
X243023796Y-87547067D01*
X243214273Y-87547067D01*
X243309511Y-87499448D01*
X243404749Y-87404210D01*
X243452368Y-87213734D01*
X243452368Y-86880401D01*
X243404749Y-86689925D01*
X243309511Y-86594687D01*
X243214273Y-86547067D01*
G04 #@! TO.C,TP2*
X247023797Y-85099450D02*
X246880940Y-85147069D01*
X246642845Y-85147069D01*
X246547607Y-85099450D01*
X246499988Y-85051831D01*
X246452369Y-84956593D01*
X246452369Y-84861355D01*
X246499988Y-84766117D01*
X246547607Y-84718498D01*
X246642845Y-84670879D01*
X246833321Y-84623260D01*
X246928559Y-84575641D01*
X246976178Y-84528022D01*
X247023797Y-84432784D01*
X247023797Y-84337546D01*
X246976178Y-84242308D01*
X246928559Y-84194689D01*
X246833321Y-84147069D01*
X246595226Y-84147069D01*
X246452369Y-84194689D01*
X246119035Y-84147069D02*
X245880940Y-85147069D01*
X245690464Y-84432784D01*
X245499988Y-85147069D01*
X245261893Y-84147069D01*
X244880940Y-85147069D02*
X244880940Y-84147069D01*
X244642845Y-84147069D01*
X244499988Y-84194689D01*
X244404750Y-84289927D01*
X244357131Y-84385165D01*
X244309512Y-84575641D01*
X244309512Y-84718498D01*
X244357131Y-84908974D01*
X244404750Y-85004212D01*
X244499988Y-85099450D01*
X244642845Y-85147069D01*
X244880940Y-85147069D01*
X243880940Y-85147069D02*
X243880940Y-84147069D01*
X243214274Y-84147069D02*
X243023797Y-84147069D01*
X242928559Y-84194689D01*
X242833321Y-84289927D01*
X242785702Y-84480403D01*
X242785702Y-84813736D01*
X242833321Y-85004212D01*
X242928559Y-85099450D01*
X243023797Y-85147069D01*
X243214274Y-85147069D01*
X243309512Y-85099450D01*
X243404750Y-85004212D01*
X243452369Y-84813736D01*
X243452369Y-84480403D01*
X243404750Y-84289927D01*
X243309512Y-84194689D01*
X243214274Y-84147069D01*
G04 #@! TO.C,TP1*
X247023795Y-82699450D02*
X246880938Y-82747069D01*
X246642843Y-82747069D01*
X246547605Y-82699450D01*
X246499986Y-82651831D01*
X246452367Y-82556593D01*
X246452367Y-82461355D01*
X246499986Y-82366117D01*
X246547605Y-82318498D01*
X246642843Y-82270879D01*
X246833319Y-82223260D01*
X246928557Y-82175641D01*
X246976176Y-82128022D01*
X247023795Y-82032784D01*
X247023795Y-81937546D01*
X246976176Y-81842308D01*
X246928557Y-81794689D01*
X246833319Y-81747069D01*
X246595224Y-81747069D01*
X246452367Y-81794689D01*
X246119033Y-81747069D02*
X245880938Y-82747069D01*
X245690462Y-82032784D01*
X245499986Y-82747069D01*
X245261891Y-81747069D01*
X244309510Y-82651831D02*
X244357129Y-82699450D01*
X244499986Y-82747069D01*
X244595224Y-82747069D01*
X244738081Y-82699450D01*
X244833319Y-82604212D01*
X244880938Y-82508974D01*
X244928557Y-82318498D01*
X244928557Y-82175641D01*
X244880938Y-81985165D01*
X244833319Y-81889927D01*
X244738081Y-81794689D01*
X244595224Y-81747069D01*
X244499986Y-81747069D01*
X244357129Y-81794689D01*
X244309510Y-81842308D01*
X243404748Y-82747069D02*
X243880938Y-82747069D01*
X243880938Y-81747069D01*
X243071414Y-82747069D02*
X243071414Y-81747069D01*
X242499986Y-82747069D02*
X242928557Y-82175641D01*
X242499986Y-81747069D02*
X243071414Y-82318498D01*
G04 #@! TO.C,L1*
X229279748Y-72826831D02*
X229327367Y-72874450D01*
X229470224Y-72922069D01*
X229565462Y-72922069D01*
X229708319Y-72874450D01*
X229803557Y-72779212D01*
X229851176Y-72683974D01*
X229898795Y-72493498D01*
X229898795Y-72350641D01*
X229851176Y-72160165D01*
X229803557Y-72064927D01*
X229708319Y-71969689D01*
X229565462Y-71922069D01*
X229470224Y-71922069D01*
X229327367Y-71969689D01*
X229279748Y-72017308D01*
X229798795Y-75911355D02*
X229322605Y-75911355D01*
X229894033Y-76197069D02*
X229560700Y-75197069D01*
X229227367Y-76197069D01*
G04 #@! TO.C,L3*
X237654748Y-72801831D02*
X237702367Y-72849450D01*
X237845224Y-72897069D01*
X237940462Y-72897069D01*
X238083319Y-72849450D01*
X238178557Y-72754212D01*
X238226176Y-72658974D01*
X238273795Y-72468498D01*
X238273795Y-72325641D01*
X238226176Y-72135165D01*
X238178557Y-72039927D01*
X238083319Y-71944689D01*
X237940462Y-71897069D01*
X237845224Y-71897069D01*
X237702367Y-71944689D01*
X237654748Y-71992308D01*
X238123795Y-75836355D02*
X237647605Y-75836355D01*
X238219033Y-76122069D02*
X237885700Y-75122069D01*
X237552367Y-76122069D01*
G04 #@! TO.C,L2*
X233579748Y-72751831D02*
X233627367Y-72799450D01*
X233770224Y-72847069D01*
X233865462Y-72847069D01*
X234008319Y-72799450D01*
X234103557Y-72704212D01*
X234151176Y-72608974D01*
X234198795Y-72418498D01*
X234198795Y-72275641D01*
X234151176Y-72085165D01*
X234103557Y-71989927D01*
X234008319Y-71894689D01*
X233865462Y-71847069D01*
X233770224Y-71847069D01*
X233627367Y-71894689D01*
X233579748Y-71942308D01*
X234123795Y-75836355D02*
X233647605Y-75836355D01*
X234219033Y-76122069D02*
X233885700Y-75122069D01*
X233552367Y-76122069D01*
G04 #@! TO.C,L4*
X224604748Y-72826831D02*
X224652367Y-72874450D01*
X224795224Y-72922069D01*
X224890462Y-72922069D01*
X225033319Y-72874450D01*
X225128557Y-72779212D01*
X225176176Y-72683974D01*
X225223795Y-72493498D01*
X225223795Y-72350641D01*
X225176176Y-72160165D01*
X225128557Y-72064927D01*
X225033319Y-71969689D01*
X224890462Y-71922069D01*
X224795224Y-71922069D01*
X224652367Y-71969689D01*
X224604748Y-72017308D01*
X225048795Y-75786355D02*
X224572605Y-75786355D01*
X225144033Y-76072069D02*
X224810700Y-75072069D01*
X224477367Y-76072069D01*
G04 #@! TD*
M02*
