M48
; DRILL file {KiCad (6.0.0-rc1-dev-1469-g932b9a334)} date Wednesday, August 07, 2019 at 07:37:08 AM
; FORMAT={-:-/ absolute / metric / decimal}
; #@! TF.CreationDate,2019-08-07T07:37:08-07:00
; #@! TF.GenerationSoftware,Kicad,Pcbnew,(6.0.0-rc1-dev-1469-g932b9a334)
; #@! TF.FileFunction,Plated,1,2,PTH
FMAT,2
METRIC
T1C0.400
T2C0.600
T3C0.762
T4C0.850
T5C0.900
T6C1.000
T7C1.016
T8C1.200
T9C1.500
T10C2.499
T11C2.500
%
G90
G05
T1
X107.812Y-75.92
X108.842Y-76.306
X115.437Y-75.345
X115.662Y-78.42
X182.393Y-152.02
X184.571Y-138.659
X184.978Y-152.476
X186.103Y-130.69
X186.885Y-139.067
X188.811Y-131.168
X189.288Y-111.908
X191.233Y-112.251
X206.494Y-136.684
X212.837Y-109.22
X215.766Y-77.759
X218.916Y-78.291
X222.112Y-84.395
X222.112Y-112.595
X222.252Y-136.837
X222.912Y-84.395
X222.912Y-112.195
X223.052Y-136.837
X223.612Y-73.895
X223.852Y-136.837
X224.652Y-136.837
X225.452Y-136.837
X225.762Y-124.995
X226.052Y-135.637
X228.462Y-76.595
X228.962Y-124.095
X229.662Y-102.22
X229.805Y-124.095
X230.605Y-124.098
X231.412Y-124.095
X232.152Y-155.062
X232.152Y-155.962
X232.152Y-157.812
X232.152Y-156.912
X232.462Y-76.32
X232.977Y-132.602
X233.812Y-132.62
X233.987Y-130.595
X234.802Y-154.262
X234.802Y-155.162
X234.802Y-152.412
X234.802Y-153.312
X235.962Y-83.42
X236.512Y-117.695
X236.712Y-76.095
X237.762Y-121.245
X238.358Y-113.997
X238.587Y-77.995
X238.612Y-78.82
X238.712Y-86.195
X239.458Y-82.197
X240.058Y-82.897
X240.46Y-136.848
X240.658Y-83.597
X240.966Y-88.423
X241.252Y-136.837
X242.052Y-136.837
X242.112Y-102.22
X242.587Y-113.897
X242.852Y-136.837
X243.387Y-113.897
X243.652Y-136.837
X243.912Y-84.295
X244.287Y-93.995
X244.452Y-136.837
X244.587Y-84.995
X244.762Y-118.745
X244.762Y-112.995
X244.887Y-106.845
X246.447Y-114.659
X249.187Y-79.095
X249.812Y-81.395
X249.812Y-84.895
X249.812Y-82.295
X250.112Y-78.695
X250.737Y-101.545
X265.762Y-142.245
X275.415Y-112.192
X277.212Y-111.875
X278.28Y-131.03
X279.957Y-139.823
X280.471Y-130.644
X282.099Y-139.445
X283.542Y-152.67
X286.226Y-152.197
T2
X105.412Y-81.295
X112.012Y-79.895
X118.512Y-74.195
X118.512Y-81.095
X120.886Y-74.33
X122.912Y-75.42
X146.012Y-161.995
X162.262Y-161.995
X178.512Y-161.995
X214.062Y-80.72
X218.312Y-76.97
X219.237Y-92.245
X219.612Y-126.195
X220.162Y-111.47
X220.462Y-78.27
X221.037Y-113.495
X221.037Y-85.32
X221.037Y-100.445
X226.012Y-117.245
X226.412Y-78.995
X227.062Y-91.745
X227.458Y-76.965
X230.558Y-131.097
X230.787Y-125.92
X231.112Y-115.395
X232.233Y-120.245
X233.058Y-124.997
X233.787Y-89.57
X234.112Y-78.995
X235.587Y-125.045
X235.812Y-77.295
X236.037Y-131.87
X236.262Y-120.245
X238.912Y-76.595
X239.737Y-77.32
X240.537Y-76.595
X240.862Y-80.395
X241.762Y-120.245
X243.112Y-80.37
X243.337Y-91.72
X243.412Y-109.445
X243.737Y-110.895
X243.812Y-76.595
X244.015Y-86.442
X244.237Y-83.07
X244.262Y-81.495
X244.662Y-77.27
X245.487Y-76.595
X245.512Y-80.37
X246.862Y-84.07
X246.862Y-87.345
X246.987Y-120.245
X247.012Y-115.62
X247.062Y-113.82
X248.537Y-77.37
X249.862Y-77.395
X250.112Y-87.345
X251.212Y-91.52
X251.587Y-105.92
X251.837Y-98.12
X252.562Y-88.945
X252.562Y-90.245
X252.562Y-91.52
X254.087Y-76.595
X255.462Y-76.595
X263.762Y-128.745
X338.262Y-140.495
T3
X229.612Y-91.295
X229.612Y-91.295
X229.612Y-91.295
X264.912Y-74.995
X264.912Y-74.995
X265.012Y-82.195
X265.012Y-82.195
X251.162Y-132.845
X251.162Y-132.845
X258.362Y-132.945
X258.362Y-132.945
X246.723Y-143.403
X246.723Y-143.403
X246.723Y-143.403
X130.547Y-85.392
X130.547Y-85.392
X130.547Y-85.392
X325.772Y-140.1
X325.772Y-140.1
X325.772Y-140.1
X353.92Y-80.329
X353.92Y-80.329
X353.92Y-80.329
X213.938Y-139.0
X213.938Y-139.0
X213.938Y-139.0
X321.913Y-118.213
X321.913Y-118.213
X321.913Y-118.213
X114.598Y-135.534
X114.598Y-135.534
X114.598Y-135.534
X98.594Y-116.592
X98.594Y-116.592
X98.594Y-116.592
X107.927Y-103.971
X107.927Y-103.971
X107.927Y-103.971
X265.631Y-128.137
X265.631Y-128.137
X265.631Y-128.137
X174.739Y-123.571
X174.739Y-123.571
X174.739Y-123.571
X364.99Y-102.798
X364.99Y-102.798
X364.99Y-102.798
X121.214Y-98.013
X121.214Y-98.013
X121.214Y-98.013
X170.879Y-145.458
X170.879Y-145.458
X170.879Y-145.458
X194.938Y-148.967
X194.938Y-148.967
X194.938Y-148.967
X200.115Y-89.357
X200.115Y-89.357
X200.115Y-89.357
X262.323Y-109.376
X262.323Y-109.376
X262.323Y-109.376
X265.724Y-153.468
X265.724Y-153.468
X265.724Y-153.468
X344.533Y-136.792
X344.533Y-136.792
X344.533Y-136.792
X307.011Y-143.408
X307.011Y-143.408
X307.011Y-143.408
X193.499Y-126.879
X193.499Y-126.879
X193.499Y-126.879
X143.834Y-79.433
X143.834Y-79.433
X143.834Y-79.433
X163.146Y-79.615
X163.146Y-79.615
X163.146Y-79.615
X334.609Y-80.51
X334.609Y-80.51
X334.609Y-80.51
X133.358Y-138.842
X133.358Y-138.842
X133.358Y-138.842
X288.251Y-146.716
X288.251Y-146.716
X288.251Y-146.716
X341.225Y-118.032
X341.225Y-118.032
X341.225Y-118.032
X360.536Y-117.85
X360.536Y-117.85
X360.536Y-117.85
X159.838Y-98.375
X159.838Y-98.375
X159.838Y-98.375
X178.047Y-104.81
X178.047Y-104.81
X178.047Y-104.81
X196.807Y-108.118
X196.807Y-108.118
X196.807Y-108.118
X281.083Y-106.068
X281.083Y-106.068
X281.083Y-106.068
X299.293Y-99.633
X299.293Y-99.633
X299.293Y-99.633
X315.297Y-80.692
X315.297Y-80.692
X315.297Y-80.692
X345.678Y-102.979
X345.678Y-102.979
X345.678Y-102.979
X284.391Y-124.829
X284.391Y-124.829
X284.391Y-124.829
X302.601Y-118.394
X302.601Y-118.394
X302.601Y-118.394
X277.775Y-87.308
X277.775Y-87.308
X277.775Y-87.308
X137.218Y-116.955
X137.218Y-116.955
X137.218Y-116.955
X318.605Y-99.452
X318.605Y-99.452
X318.605Y-99.452
X117.906Y-116.773
X117.906Y-116.773
X117.906Y-116.773
X152.119Y-142.15
X152.119Y-142.15
X152.119Y-142.15
X259.015Y-90.616
X259.015Y-90.616
X259.015Y-90.616
X295.985Y-80.873
X295.985Y-80.873
X295.985Y-80.873
X181.355Y-86.049
X181.355Y-86.049
X181.355Y-86.049
X140.526Y-98.194
X140.526Y-98.194
X140.526Y-98.194
X156.53Y-117.136
X156.53Y-117.136
X156.53Y-117.136
T4
X238.318Y-115.727
X238.318Y-118.267
X240.858Y-115.727
X240.858Y-118.267
X243.398Y-115.727
X243.398Y-118.267
T5
X155.01Y-132.29
X157.512Y-132.732
X160.013Y-133.173
X306.01Y-133.173
X308.512Y-132.732
X311.013Y-132.29
T6
X186.67Y-150.4
X191.683Y-144.425
X327.328Y-151.23
X335.01Y-149.876
X339.473Y-110.401
X347.154Y-109.047
X138.181Y-109.185
X145.863Y-110.54
X194.463Y-119.109
X202.145Y-120.464
X197.771Y-100.349
X205.453Y-101.703
X316.853Y-91.822
X324.534Y-90.467
X115.562Y-127.765
X123.243Y-129.119
X206.285Y-147.72
X212.036Y-152.99
X263.879Y-120.506
X271.561Y-119.152
X282.64Y-117.198
X290.321Y-115.844
X355.477Y-91.459
X363.158Y-90.105
X358.785Y-110.22
X366.466Y-108.865
X359.286Y-129.475
X366.968Y-128.121
X99.45Y-128.148
X107.132Y-129.502
X160.801Y-90.606
X168.483Y-91.96
X168.535Y-156.449
X176.217Y-157.804
X179.011Y-97.041
X186.692Y-98.395
X300.849Y-110.763
X308.531Y-109.409
X320.161Y-110.582
X327.842Y-109.228
X102.866Y-90.062
X110.547Y-91.417
X289.807Y-157.846
X297.489Y-156.492
X323.469Y-129.343
X331.15Y-127.988
X285.948Y-135.959
X293.629Y-134.604
X191.155Y-137.87
X198.837Y-139.224
X118.87Y-109.004
X126.551Y-110.358
X112.254Y-146.525
X119.935Y-147.88
X99.558Y-108.823
X107.239Y-110.177
X253.652Y-152.279
X259.403Y-147.01
X267.187Y-139.267
X274.869Y-137.912
X154.185Y-128.127
X161.867Y-129.481
X304.157Y-129.524
X311.839Y-128.17
X346.089Y-147.922
X353.77Y-146.568
X260.571Y-101.746
X268.253Y-100.391
X122.178Y-90.243
X129.859Y-91.598
X149.775Y-153.141
X157.456Y-154.496
X131.014Y-149.833
X138.696Y-151.188
X308.568Y-154.538
X316.249Y-153.184
X275.964Y-144.412
X280.978Y-150.387
X175.703Y-115.801
X183.384Y-117.156
X279.332Y-98.438
X287.013Y-97.083
X134.873Y-127.946
X142.555Y-129.3
X172.395Y-134.562
X180.076Y-135.916
X336.165Y-91.64
X343.846Y-90.286
X141.489Y-90.425
X149.171Y-91.779
X157.493Y-109.366
X165.175Y-110.721
X342.781Y-129.162
X350.462Y-127.807
X297.541Y-92.003
X305.223Y-90.648
T7
X213.012Y-127.495
X213.012Y-121.495
X213.012Y-124.495
T8
X233.112Y-99.795
X238.112Y-97.595
X254.868Y-147.665
X257.284Y-142.766
X123.27Y-77.712
X128.576Y-76.413
X330.695Y-147.863
X335.237Y-144.828
X358.843Y-88.092
X363.385Y-85.057
X211.155Y-147.761
X216.4Y-149.29
X326.835Y-125.976
X331.377Y-122.941
X116.569Y-144.513
X121.875Y-143.214
X100.565Y-125.571
X105.871Y-124.272
X100.65Y-96.291
X105.956Y-94.993
X270.554Y-135.9
X275.096Y-132.865
X176.71Y-132.549
X182.016Y-131.251
X355.526Y-98.07
X360.068Y-95.035
X123.185Y-106.991
X128.491Y-105.693
X172.85Y-154.437
X178.156Y-153.138
X192.155Y-157.728
X197.4Y-159.256
X202.086Y-98.336
X207.392Y-97.038
X267.246Y-117.139
X271.788Y-114.104
X273.869Y-157.73
X276.285Y-152.831
X349.455Y-144.555
X353.997Y-141.52
X311.934Y-151.171
X316.476Y-148.136
X195.47Y-135.857
X200.776Y-134.559
X145.804Y-88.412
X151.111Y-87.114
X165.116Y-88.593
X170.422Y-87.295
X339.531Y-88.273
X344.073Y-85.239
X135.329Y-147.821
X140.635Y-146.522
X293.174Y-154.479
X297.716Y-151.444
X346.147Y-125.795
X350.689Y-122.76
X365.459Y-125.613
X370.001Y-122.579
X161.808Y-107.354
X167.114Y-106.056
X180.018Y-113.789
X185.324Y-112.49
X198.778Y-117.097
X204.084Y-115.798
X286.006Y-113.831
X290.548Y-110.796
X304.216Y-107.396
X308.758Y-104.362
X320.219Y-88.455
X324.761Y-85.42
X336.214Y-98.251
X340.756Y-95.216
X289.314Y-132.592
X293.856Y-129.557
X307.524Y-126.157
X312.066Y-123.122
X282.698Y-95.071
X287.24Y-92.036
X139.188Y-125.933
X144.495Y-124.635
X323.527Y-107.215
X328.069Y-104.18
X119.877Y-125.752
X125.183Y-124.454
X154.09Y-151.129
X159.396Y-149.83
X263.938Y-98.379
X268.48Y-95.344
X300.908Y-88.636
X305.45Y-85.601
X183.326Y-95.028
X188.632Y-93.73
X142.496Y-107.173
X147.803Y-105.874
X158.5Y-126.115
X163.806Y-124.816
T9
X229.302Y-96.335
X230.612Y-97.795
X249.726Y-147.463
X251.668Y-147.74
X130.691Y-78.817
X131.728Y-80.482
X326.342Y-145.117
X327.885Y-146.328
X354.49Y-85.346
X356.034Y-86.557
X210.461Y-142.662
X210.526Y-144.622
X322.483Y-123.23
X324.026Y-124.44
X113.417Y-140.444
X114.454Y-142.109
X97.413Y-121.502
X98.45Y-123.167
X108.071Y-97.396
X109.108Y-99.062
X266.201Y-133.154
X267.744Y-134.364
X173.558Y-128.48
X174.595Y-130.146
X362.877Y-96.571
X364.42Y-97.781
X120.033Y-102.922
X121.07Y-104.588
X169.699Y-150.368
X170.736Y-152.033
X191.461Y-152.628
X191.526Y-154.589
X198.935Y-94.267
X199.971Y-95.932
X262.893Y-114.393
X264.436Y-115.604
X268.726Y-157.528
X270.668Y-157.805
X345.102Y-141.809
X346.646Y-143.02
X307.581Y-148.425
X309.125Y-149.636
X192.319Y-131.788
X193.355Y-133.454
X142.653Y-84.343
X143.69Y-86.008
X161.965Y-84.524
X163.002Y-86.19
X335.178Y-85.528
X336.722Y-86.738
X132.178Y-143.752
X133.214Y-145.417
X288.821Y-151.733
X290.364Y-152.944
X341.794Y-123.049
X343.338Y-124.259
X361.106Y-122.868
X362.65Y-124.078
X158.657Y-103.285
X159.694Y-104.95
X176.866Y-109.72
X177.903Y-111.385
X195.627Y-113.028
X196.663Y-114.693
X281.653Y-111.085
X283.197Y-112.296
X299.863Y-104.651
X301.406Y-105.861
X315.867Y-85.709
X317.41Y-86.919
X343.565Y-96.752
X345.109Y-97.962
X284.961Y-129.846
X286.505Y-131.056
X303.171Y-123.411
X304.714Y-124.622
X278.345Y-92.325
X279.889Y-93.535
X136.037Y-121.864
X137.074Y-123.53
X319.175Y-104.469
X320.718Y-105.68
X116.725Y-121.683
X117.762Y-123.348
X150.938Y-147.06
X151.975Y-148.725
X259.585Y-95.633
X261.128Y-96.843
X296.555Y-85.89
X298.098Y-87.1
X180.174Y-90.959
X181.211Y-92.624
X139.345Y-103.104
X140.382Y-104.769
X155.349Y-122.045
X156.386Y-123.711
T11
X115.712Y-99.395
T2
G00X104.342Y-73.456
M15
G01X104.342Y-72.856
M16
G05
G00X104.342Y-77.886
M15
G01X104.342Y-76.786
M16
G05
G00X112.982Y-73.456
M15
G01X112.982Y-72.856
M16
G05
G00X112.982Y-77.886
M15
G01X112.982Y-76.786
M16
G05
T9
G00X235.651Y-98.295
M15
G01X235.612Y-98.874
M16
G05
G00X255.85Y-144.884
M15
G01X256.192Y-145.353
M16
G05
G00X125.815Y-77.449
M15
G01X125.954Y-76.886
M16
G05
G00X332.936Y-145.946
M15
G01X332.997Y-146.522
M16
G05
G00X361.084Y-86.175
M15
G01X361.146Y-86.751
M16
G05
G00X214.065Y-148.245
M15
G01X213.662Y-148.663
M16
G05
G00X329.076Y-124.058
M15
G01X329.138Y-124.635
M16
G05
G00X119.33Y-143.477
M15
G01X119.191Y-144.04
M16
G05
G00X103.326Y-124.535
M15
G01X103.187Y-125.098
M16
G05
G00X103.195Y-96.028
M15
G01X103.334Y-95.465
M16
G05
G00X272.794Y-133.982
M15
G01X272.856Y-134.559
M16
G05
G00X179.471Y-131.514
M15
G01X179.332Y-132.077
M16
G05
G00X357.827Y-96.953
M15
G01X357.765Y-96.376
M16
G05
G00X125.946Y-105.956
M15
G01X125.807Y-106.519
M16
G05
G00X175.612Y-153.401
M15
G01X175.472Y-153.964
M16
G05
G00X195.065Y-158.212
M15
G01X194.662Y-158.63
M16
G05
G00X204.848Y-97.301
M15
G01X204.708Y-97.864
M16
G05
G00X269.486Y-115.222
M15
G01X269.548Y-115.798
M16
G05
G00X274.851Y-154.949
M15
G01X275.192Y-155.417
M16
G05
G00X351.696Y-142.638
M15
G01X351.758Y-143.214
M16
G05
G00X314.175Y-149.254
M15
G01X314.237Y-149.83
M16
G05
G00X198.232Y-134.822
M15
G01X198.092Y-135.385
M16
G05
G00X148.566Y-87.377
M15
G01X148.427Y-87.94
M16
G05
G00X167.878Y-87.558
M15
G01X167.739Y-88.121
M16
G05
G00X341.772Y-86.356
M15
G01X341.834Y-86.933
M16
G05
G00X138.091Y-146.785
M15
G01X137.951Y-147.348
M16
G05
G00X295.414Y-152.562
M15
G01X295.476Y-153.138
M16
G05
G00X348.388Y-123.877
M15
G01X348.45Y-124.454
M16
G05
G00X367.7Y-123.696
M15
G01X367.762Y-124.273
M16
G05
G00X164.57Y-106.318
M15
G01X164.431Y-106.881
M16
G05
G00X182.779Y-112.753
M15
G01X182.64Y-113.316
M16
G05
G00X201.54Y-116.061
M15
G01X201.4Y-116.624
M16
G05
G00X288.247Y-111.914
M15
G01X288.309Y-112.49
M16
G05
G00X306.456Y-105.479
M15
G01X306.518Y-106.056
M16
G05
G00X322.46Y-86.537
M15
G01X322.522Y-87.114
M16
G05
G00X338.515Y-97.134
M15
G01X338.453Y-96.557
M16
G05
G00X291.555Y-130.674
M15
G01X291.617Y-131.251
M16
G05
G00X309.764Y-124.24
M15
G01X309.826Y-124.816
M16
G05
G00X284.939Y-93.153
M15
G01X285.001Y-93.73
M16
G05
G00X141.95Y-124.898
M15
G01X141.811Y-125.461
M16
G05
G00X325.768Y-105.298
M15
G01X325.83Y-105.874
M16
G05
G00X122.638Y-124.717
M15
G01X122.499Y-125.28
M16
G05
G00X156.851Y-150.093
M15
G01X156.712Y-150.656
M16
G05
G00X266.178Y-96.461
M15
G01X266.24Y-97.038
M16
G05
G00X303.148Y-86.718
M15
G01X303.21Y-87.295
M16
G05
G00X186.087Y-93.993
M15
G01X185.948Y-94.556
M16
G05
G00X145.258Y-106.137
M15
G01X145.119Y-106.7
M16
G05
G00X161.262Y-125.079
M15
G01X161.123Y-125.642
M16
G05
T10
G00X217.511Y-118.745
M15
G01X220.013Y-118.745
M16
G05
G00X279.761Y-156.694
M15
G01X282.263Y-156.694
M16
G05
G00X349.273Y-156.894
M15
G01X351.775Y-156.894
M16
G05
G00X115.461Y-156.894
M15
G01X117.963Y-156.894
M16
G05
G00X231.761Y-108.995
M15
G01X234.263Y-108.995
M16
G05
G00X349.268Y-99.394
M15
G01X351.77Y-99.394
M16
G05
T0
M30
