G04 #@! TF.GenerationSoftware,KiCad,Pcbnew,(6.0.0-rc1-dev-1469-g932b9a334)*
G04 #@! TF.CreationDate,2019-08-24T21:44:17-07:00
G04 #@! TF.ProjectId,Laptreus-v2,4c617074-7265-4757-932d-76322e6b6963,rev?*
G04 #@! TF.SameCoordinates,Original*
G04 #@! TF.FileFunction,Glue,Top*
G04 #@! TF.FilePolarity,Positive*
%FSLAX46Y46*%
G04 Gerber Fmt 4.6, Leading zero omitted, Abs format (unit mm)*
G04 Created by KiCad (PCBNEW (6.0.0-rc1-dev-1469-g932b9a334)) date Saturday, August 24, 2019 at 09:44:17 PM*
%MOMM*%
%LPD*%
G04 APERTURE LIST*
%ADD10C,0.010000*%
%ADD11C,0.100000*%
%ADD12C,0.150000*%
G04 APERTURE END LIST*
D10*
G04 #@! TO.C,SW1*
G36*
X359566428Y-87658534D02*
G01*
X359323320Y-86279803D01*
X353414474Y-87321692D01*
X353657581Y-88700423D01*
X359566428Y-87658534D01*
G37*
X359566428Y-87658534D02*
X359323320Y-86279803D01*
X353414474Y-87321692D01*
X353657581Y-88700423D01*
X359566428Y-87658534D01*
G04 #@! TO.C,SW2*
G36*
X340254509Y-87839767D02*
G01*
X340011401Y-86461036D01*
X334102555Y-87502925D01*
X334345662Y-88881656D01*
X340254509Y-87839767D01*
G37*
X340254509Y-87839767D02*
X340011401Y-86461036D01*
X334102555Y-87502925D01*
X334345662Y-88881656D01*
X340254509Y-87839767D01*
D11*
G04 #@! TO.C,SW19*
G36*
X200895762Y-105592481D02*
G01*
X200739479Y-106478808D01*
X203693902Y-106999752D01*
X203850186Y-106113425D01*
X200895762Y-105592481D01*
G37*
G04 #@! TO.C,SW3*
G36*
X318273634Y-76915746D02*
G01*
X318429918Y-77802073D01*
X321384341Y-77281128D01*
X321228057Y-76394801D01*
X318273634Y-76915746D01*
G37*
G04 #@! TO.C,SW12*
G36*
X109287430Y-76499337D02*
G01*
X109131147Y-77385664D01*
X112085570Y-77906608D01*
X112241854Y-77020281D01*
X109287430Y-76499337D01*
G37*
G04 #@! TO.C,SW11*
G36*
X128610076Y-76726668D02*
G01*
X128453793Y-77612995D01*
X131408216Y-78133939D01*
X131564500Y-77247612D01*
X128610076Y-76726668D01*
G37*
G04 #@! TO.C,SW47*
G36*
X137446670Y-136316429D02*
G01*
X137290387Y-137202756D01*
X140244810Y-137723700D01*
X140401094Y-136837373D01*
X137446670Y-136316429D01*
G37*
G04 #@! TO.C,SW24*
G36*
X103813607Y-106498100D02*
G01*
X103969890Y-105611773D01*
X101015467Y-105090829D01*
X100859183Y-105977156D01*
X103813607Y-106498100D01*
G37*
G04 #@! TO.C,SW_RESET2*
G36*
X233199155Y-88095373D02*
G01*
X233199155Y-88995373D01*
X236199155Y-88995373D01*
X236199155Y-88095373D01*
X233199155Y-88095373D01*
G37*
G04 #@! TO.C,SW4*
G36*
X298961712Y-77096978D02*
G01*
X299117996Y-77983305D01*
X302072419Y-77462360D01*
X301916135Y-76576033D01*
X298961712Y-77096978D01*
G37*
G04 #@! TO.C,SW5*
G36*
X280752459Y-83531740D02*
G01*
X280908743Y-84418067D01*
X283863166Y-83897122D01*
X283706882Y-83010795D01*
X280752459Y-83531740D01*
G37*
G04 #@! TO.C,SW6*
G36*
X261991870Y-86839738D02*
G01*
X262148154Y-87726065D01*
X265102577Y-87205120D01*
X264946293Y-86318793D01*
X261991870Y-86839738D01*
G37*
G04 #@! TO.C,SW7*
G36*
X204203760Y-86831894D02*
G01*
X204047477Y-87718221D01*
X207001900Y-88239165D01*
X207158184Y-87352838D01*
X204203760Y-86831894D01*
G37*
G04 #@! TO.C,SW8*
G36*
X185443172Y-83523896D02*
G01*
X185286889Y-84410223D01*
X188241312Y-84931167D01*
X188397596Y-84044840D01*
X185443172Y-83523896D01*
G37*
G04 #@! TO.C,SW9*
G36*
X167233916Y-77089134D02*
G01*
X167077633Y-77975461D01*
X170032056Y-78496405D01*
X170188340Y-77610078D01*
X167233916Y-77089134D01*
G37*
G04 #@! TO.C,SW10*
G36*
X147921997Y-76907900D02*
G01*
X147765714Y-77794227D01*
X150720137Y-78315171D01*
X150876421Y-77428844D01*
X147921997Y-76907900D01*
G37*
G04 #@! TO.C,SW13*
G36*
X361988101Y-106575405D02*
G01*
X361831817Y-105689078D01*
X358877394Y-106210023D01*
X359033678Y-107096350D01*
X361988101Y-106575405D01*
G37*
G04 #@! TO.C,SW14*
G36*
X342676179Y-106756637D02*
G01*
X342519895Y-105870310D01*
X339565472Y-106391255D01*
X339721756Y-107277582D01*
X342676179Y-106756637D01*
G37*
G04 #@! TO.C,SW15*
G36*
X321581632Y-95676331D02*
G01*
X321737916Y-96562658D01*
X324692339Y-96041713D01*
X324536055Y-95155386D01*
X321581632Y-95676331D01*
G37*
G04 #@! TO.C,SW16*
G36*
X302269711Y-95857566D02*
G01*
X302425995Y-96743893D01*
X305380418Y-96222948D01*
X305224134Y-95336621D01*
X302269711Y-95857566D01*
G37*
G04 #@! TO.C,SW17*
G36*
X284060455Y-102292328D02*
G01*
X284216739Y-103178655D01*
X287171162Y-102657710D01*
X287014878Y-101771383D01*
X284060455Y-102292328D01*
G37*
G04 #@! TO.C,SW18*
G36*
X265299868Y-105600327D02*
G01*
X265456152Y-106486654D01*
X268410575Y-105965709D01*
X268254291Y-105079382D01*
X265299868Y-105600327D01*
G37*
G04 #@! TO.C,SW20*
G36*
X182135175Y-102284482D02*
G01*
X181978892Y-103170809D01*
X184933315Y-103691753D01*
X185089599Y-102805426D01*
X182135175Y-102284482D01*
G37*
G04 #@! TO.C,SW21*
G36*
X163925919Y-95849721D02*
G01*
X163769636Y-96736048D01*
X166724059Y-97256992D01*
X166880343Y-96370665D01*
X163925919Y-95849721D01*
G37*
G04 #@! TO.C,SW22*
G36*
X144614001Y-95668486D02*
G01*
X144457718Y-96554813D01*
X147412141Y-97075757D01*
X147568425Y-96189430D01*
X144614001Y-95668486D01*
G37*
G04 #@! TO.C,SW23*
G36*
X125302078Y-95487255D02*
G01*
X125145795Y-96373582D01*
X128100218Y-96894526D01*
X128256502Y-96008199D01*
X125302078Y-95487255D01*
G37*
G04 #@! TO.C,SW25*
G36*
X363513474Y-114074454D02*
G01*
X363669758Y-114960781D01*
X366624181Y-114439836D01*
X366467897Y-113553509D01*
X363513474Y-114074454D01*
G37*
G04 #@! TO.C,SW26*
G36*
X344201549Y-114255688D02*
G01*
X344357833Y-115142015D01*
X347312256Y-114621070D01*
X347155972Y-113734743D01*
X344201549Y-114255688D01*
G37*
G04 #@! TO.C,SW27*
G36*
X324889629Y-114436920D02*
G01*
X325045913Y-115323247D01*
X328000336Y-114802302D01*
X327844052Y-113915975D01*
X324889629Y-114436920D01*
G37*
G04 #@! TO.C,SW28*
G36*
X305577710Y-114618153D02*
G01*
X305733994Y-115504480D01*
X308688417Y-114983535D01*
X308532133Y-114097208D01*
X305577710Y-114618153D01*
G37*
G04 #@! TO.C,SW29*
G36*
X287368455Y-121052916D02*
G01*
X287524739Y-121939243D01*
X290479162Y-121418298D01*
X290322878Y-120531971D01*
X287368455Y-121052916D01*
G37*
G04 #@! TO.C,SW30*
G36*
X268607865Y-124360913D02*
G01*
X268764149Y-125247240D01*
X271718572Y-124726295D01*
X271562288Y-123839968D01*
X268607865Y-124360913D01*
G37*
G04 #@! TO.C,SW31*
G36*
X197587764Y-124353069D02*
G01*
X197431481Y-125239396D01*
X200385904Y-125760340D01*
X200542188Y-124874013D01*
X197587764Y-124353069D01*
G37*
G04 #@! TO.C,SW32*
G36*
X178827177Y-121045072D02*
G01*
X178670894Y-121931399D01*
X181625317Y-122452343D01*
X181781601Y-121566016D01*
X178827177Y-121045072D01*
G37*
G04 #@! TO.C,SW33*
G36*
X160617920Y-114610309D02*
G01*
X160461637Y-115496636D01*
X163416060Y-116017580D01*
X163572344Y-115131253D01*
X160617920Y-114610309D01*
G37*
G04 #@! TO.C,SW34*
G36*
X141306001Y-114429076D02*
G01*
X141149718Y-115315403D01*
X144104141Y-115836347D01*
X144260425Y-114950020D01*
X141306001Y-114429076D01*
G37*
G04 #@! TO.C,SW37*
G36*
X347509547Y-133016275D02*
G01*
X347665831Y-133902602D01*
X350620254Y-133381657D01*
X350463970Y-132495330D01*
X347509547Y-133016275D01*
G37*
G04 #@! TO.C,SW38*
G36*
X328748960Y-136324273D02*
G01*
X328905244Y-137210600D01*
X331859667Y-136689655D01*
X331703383Y-135803328D01*
X328748960Y-136324273D01*
G37*
G04 #@! TO.C,SW39*
G36*
X309988373Y-139632269D02*
G01*
X310144657Y-140518596D01*
X313099080Y-139997651D01*
X312942796Y-139111324D01*
X309988373Y-139632269D01*
G37*
G04 #@! TO.C,SW40*
G36*
X291227787Y-142940268D02*
G01*
X291384071Y-143826595D01*
X294338494Y-143305650D01*
X294182210Y-142419323D01*
X291227787Y-142940268D01*
G37*
G04 #@! TO.C,SW41*
G36*
X266412092Y-148703453D02*
G01*
X266990601Y-149392893D01*
X269288734Y-147464530D01*
X268710225Y-146775090D01*
X266412092Y-148703453D01*
G37*
G04 #@! TO.C,SW42*
G36*
X247411686Y-138638644D02*
G01*
X247990195Y-139328084D01*
X250288328Y-137399721D01*
X249709819Y-136710281D01*
X247411686Y-138638644D01*
G37*
G04 #@! TO.C,SW44*
G36*
X199739863Y-148829992D02*
G01*
X199161354Y-149519432D01*
X201459487Y-151447795D01*
X202037996Y-150758355D01*
X199739863Y-148829992D01*
G37*
G04 #@! TO.C,SW45*
G36*
X174967845Y-142932424D02*
G01*
X174811562Y-143818751D01*
X177765985Y-144339695D01*
X177922269Y-143453368D01*
X174967845Y-142932424D01*
G37*
G04 #@! TO.C,SW46*
G36*
X156207259Y-139624426D02*
G01*
X156050976Y-140510753D01*
X159005399Y-141031697D01*
X159161683Y-140145370D01*
X156207259Y-139624426D01*
G37*
G04 #@! TO.C,SW43*
G36*
X218739906Y-138863665D02*
G01*
X218161397Y-139553105D01*
X220459530Y-141481468D01*
X221038039Y-140792028D01*
X218739906Y-138863665D01*
G37*
G04 #@! TO.C,SW36*
G36*
X102682161Y-114066610D02*
G01*
X102525878Y-114952937D01*
X105480301Y-115473881D01*
X105636585Y-114587554D01*
X102682161Y-114066610D01*
G37*
G04 #@! TO.C,SW48*
G36*
X118686083Y-133008430D02*
G01*
X118529800Y-133894757D01*
X121484223Y-134415701D01*
X121640507Y-133529374D01*
X118686083Y-133008430D01*
G37*
G04 #@! TO.C,SW35*
G36*
X121994081Y-114247844D02*
G01*
X121837798Y-115134171D01*
X124792221Y-115655115D01*
X124948505Y-114768788D01*
X121994081Y-114247844D01*
G37*
G04 #@! TO.C,J1*
G36*
X359299155Y-72795375D02*
G01*
X355299155Y-72795375D01*
X355299155Y-71795375D01*
X359299155Y-71795375D01*
X359299155Y-72795375D01*
G37*
D10*
G04 #@! TO.C,R1*
G36*
X238149156Y-101445374D02*
G01*
X238749156Y-101445374D01*
X238749156Y-102645374D01*
X238149156Y-102645374D01*
X238149156Y-101445374D01*
G37*
X238149156Y-101445374D02*
X238749156Y-101445374D01*
X238749156Y-102645374D01*
X238149156Y-102645374D01*
X238149156Y-101445374D01*
D11*
G04 #@! TO.C,C5*
G36*
X222099070Y-121795203D02*
G01*
X222099070Y-122195003D01*
X223099270Y-122195003D01*
X223099270Y-121795203D01*
X222099070Y-121795203D01*
G37*
G04 #@! TO.C,C2*
G36*
X229599070Y-138470003D02*
G01*
X229199270Y-138470003D01*
X229199270Y-139470203D01*
X229599070Y-139470203D01*
X229599070Y-138470003D01*
G37*
D12*
G04 #@! TO.C,D2*
G36*
X340491146Y-91485307D02*
G01*
X340282768Y-90303538D01*
X339494922Y-90442457D01*
X339703300Y-91624226D01*
X340491146Y-91485307D01*
G37*
X340491146Y-91485307D02*
X340282768Y-90303538D01*
X339494922Y-90442457D01*
X339703300Y-91624226D01*
X340491146Y-91485307D01*
G04 #@! TO.C,D42*
G36*
X257214944Y-149817124D02*
G01*
X256404236Y-148932392D01*
X255814414Y-149472864D01*
X256625122Y-150357596D01*
X257214944Y-149817124D01*
G37*
X257214944Y-149817124D02*
X256404236Y-148932392D01*
X255814414Y-149472864D01*
X256625122Y-150357596D01*
X257214944Y-149817124D01*
G04 #@! TO.C,D9*
G36*
X164919210Y-91944119D02*
G01*
X165127588Y-90762350D01*
X164339742Y-90623431D01*
X164131364Y-91805200D01*
X164919210Y-91944119D01*
G37*
X164919210Y-91944119D02*
X165127588Y-90762350D01*
X164339742Y-90623431D01*
X164131364Y-91805200D01*
X164919210Y-91944119D01*
G04 #@! TO.C,D36*
G36*
X103568078Y-129485952D02*
G01*
X103776456Y-128304183D01*
X102988610Y-128165264D01*
X102780232Y-129347033D01*
X103568078Y-129485952D01*
G37*
X103568078Y-129485952D02*
X103776456Y-128304183D01*
X102988610Y-128165264D01*
X102780232Y-129347033D01*
X103568078Y-129485952D01*
G04 #@! TO.C,D25*
G36*
X362347282Y-129716528D02*
G01*
X362138904Y-128534759D01*
X361351058Y-128673678D01*
X361559436Y-129855447D01*
X362347282Y-129716528D01*
G37*
X362347282Y-129716528D02*
X362138904Y-128534759D01*
X361351058Y-128673678D01*
X361559436Y-129855447D01*
X362347282Y-129716528D01*
G04 #@! TO.C,D24*
G36*
X103675452Y-110161007D02*
G01*
X103883830Y-108979238D01*
X103095984Y-108840319D01*
X102887606Y-110022088D01*
X103675452Y-110161007D01*
G37*
X103675452Y-110161007D02*
X103883830Y-108979238D01*
X103095984Y-108840319D01*
X102887606Y-110022088D01*
X103675452Y-110161007D01*
G04 #@! TO.C,D13*
G36*
X363111064Y-110064663D02*
G01*
X362902686Y-108882894D01*
X362114840Y-109021813D01*
X362323218Y-110203582D01*
X363111064Y-110064663D01*
G37*
X363111064Y-110064663D02*
X362902686Y-108882894D01*
X362114840Y-109021813D01*
X362323218Y-110203582D01*
X363111064Y-110064663D01*
G04 #@! TO.C,D12*
G36*
X106983448Y-91400419D02*
G01*
X107191826Y-90218650D01*
X106403980Y-90079731D01*
X106195602Y-91261500D01*
X106983448Y-91400419D01*
G37*
X106983448Y-91400419D02*
X107191826Y-90218650D01*
X106403980Y-90079731D01*
X106195602Y-91261500D01*
X106983448Y-91400419D01*
G04 #@! TO.C,D1*
G36*
X359803069Y-91304075D02*
G01*
X359594691Y-90122306D01*
X358806845Y-90261225D01*
X359015223Y-91442994D01*
X359803069Y-91304075D01*
G37*
X359803069Y-91304075D02*
X359594691Y-90122306D01*
X358806845Y-90261225D01*
X359015223Y-91442994D01*
X359803069Y-91304075D01*
G04 #@! TO.C,D48*
G36*
X116371378Y-147863416D02*
G01*
X116579756Y-146681647D01*
X115791910Y-146542728D01*
X115583532Y-147724497D01*
X116371378Y-147863416D01*
G37*
X116371378Y-147863416D02*
X116579756Y-146681647D01*
X115791910Y-146542728D01*
X115583532Y-147724497D01*
X116371378Y-147863416D01*
G04 #@! TO.C,D18*
G36*
X268205459Y-120351123D02*
G01*
X267997081Y-119169354D01*
X267209235Y-119308273D01*
X267417613Y-120490042D01*
X268205459Y-120351123D01*
G37*
X268205459Y-120351123D02*
X267997081Y-119169354D01*
X267209235Y-119308273D01*
X267417613Y-120490042D01*
X268205459Y-120351123D01*
G04 #@! TO.C,D17*
G36*
X286966048Y-117043126D02*
G01*
X286757670Y-115861357D01*
X285969824Y-116000276D01*
X286178202Y-117182045D01*
X286966048Y-117043126D01*
G37*
X286966048Y-117043126D02*
X286757670Y-115861357D01*
X285969824Y-116000276D01*
X286178202Y-117182045D01*
X286966048Y-117043126D01*
G04 #@! TO.C,D43*
G36*
X209037669Y-151068138D02*
G01*
X209848377Y-150183406D01*
X209258555Y-149642934D01*
X208447847Y-150527666D01*
X209037669Y-151068138D01*
G37*
X209037669Y-151068138D02*
X209848377Y-150183406D01*
X209258555Y-149642934D01*
X208447847Y-150527666D01*
X209037669Y-151068138D01*
G04 #@! TO.C,D35*
G36*
X119679374Y-129102829D02*
G01*
X119887752Y-127921060D01*
X119099906Y-127782141D01*
X118891528Y-128963910D01*
X119679374Y-129102829D01*
G37*
X119679374Y-129102829D02*
X119887752Y-127921060D01*
X119099906Y-127782141D01*
X118891528Y-128963910D01*
X119679374Y-129102829D01*
G04 #@! TO.C,D23*
G36*
X122987372Y-110342239D02*
G01*
X123195750Y-109160470D01*
X122407904Y-109021551D01*
X122199526Y-110203320D01*
X122987372Y-110342239D01*
G37*
X122987372Y-110342239D02*
X123195750Y-109160470D01*
X122407904Y-109021551D01*
X122199526Y-110203320D01*
X122987372Y-110342239D01*
G04 #@! TO.C,D10*
G36*
X145607291Y-91762886D02*
G01*
X145815669Y-90581117D01*
X145027823Y-90442198D01*
X144819445Y-91623967D01*
X145607291Y-91762886D01*
G37*
X145607291Y-91762886D02*
X145815669Y-90581117D01*
X145027823Y-90442198D01*
X144819445Y-91623967D01*
X145607291Y-91762886D01*
G04 #@! TO.C,D40*
G36*
X294133376Y-157691065D02*
G01*
X293924998Y-156509296D01*
X293137152Y-156648215D01*
X293345530Y-157829984D01*
X294133376Y-157691065D01*
G37*
X294133376Y-157691065D02*
X293924998Y-156509296D01*
X293137152Y-156648215D01*
X293345530Y-157829984D01*
X294133376Y-157691065D01*
G04 #@! TO.C,D38*
G36*
X331654551Y-151075069D02*
G01*
X331446173Y-149893300D01*
X330658327Y-150032219D01*
X330866705Y-151213988D01*
X331654551Y-151075069D01*
G37*
X331654551Y-151075069D02*
X331446173Y-149893300D01*
X330658327Y-150032219D01*
X330866705Y-151213988D01*
X331654551Y-151075069D01*
G04 #@! TO.C,D37*
G36*
X350415140Y-147767072D02*
G01*
X350206762Y-146585303D01*
X349418916Y-146724222D01*
X349627294Y-147905991D01*
X350415140Y-147767072D01*
G37*
X350415140Y-147767072D02*
X350206762Y-146585303D01*
X349418916Y-146724222D01*
X349627294Y-147905991D01*
X350415140Y-147767072D01*
G04 #@! TO.C,D34*
G36*
X138991294Y-129284060D02*
G01*
X139199672Y-128102291D01*
X138411826Y-127963372D01*
X138203448Y-129145141D01*
X138991294Y-129284060D01*
G37*
X138991294Y-129284060D02*
X139199672Y-128102291D01*
X138411826Y-127963372D01*
X138203448Y-129145141D01*
X138991294Y-129284060D01*
G04 #@! TO.C,D31*
G36*
X195273058Y-139208054D02*
G01*
X195481436Y-138026285D01*
X194693590Y-137887366D01*
X194485212Y-139069135D01*
X195273058Y-139208054D01*
G37*
X195273058Y-139208054D02*
X195481436Y-138026285D01*
X194693590Y-137887366D01*
X194485212Y-139069135D01*
X195273058Y-139208054D01*
G04 #@! TO.C,D30*
G36*
X271513459Y-139111710D02*
G01*
X271305081Y-137929941D01*
X270517235Y-138068860D01*
X270725613Y-139250629D01*
X271513459Y-139111710D01*
G37*
X271513459Y-139111710D02*
X271305081Y-137929941D01*
X270517235Y-138068860D01*
X270725613Y-139250629D01*
X271513459Y-139111710D01*
G04 #@! TO.C,D29*
G36*
X290274047Y-135803711D02*
G01*
X290065669Y-134621942D01*
X289277823Y-134760861D01*
X289486201Y-135942630D01*
X290274047Y-135803711D01*
G37*
X290274047Y-135803711D02*
X290065669Y-134621942D01*
X289277823Y-134760861D01*
X289486201Y-135942630D01*
X290274047Y-135803711D01*
G04 #@! TO.C,D27*
G36*
X327795223Y-129187719D02*
G01*
X327586845Y-128005950D01*
X326798999Y-128144869D01*
X327007377Y-129326638D01*
X327795223Y-129187719D01*
G37*
X327795223Y-129187719D02*
X327586845Y-128005950D01*
X326798999Y-128144869D01*
X327007377Y-129326638D01*
X327795223Y-129187719D01*
G04 #@! TO.C,D26*
G36*
X347107143Y-129006483D02*
G01*
X346898765Y-127824714D01*
X346110919Y-127963633D01*
X346319297Y-129145402D01*
X347107143Y-129006483D01*
G37*
X347107143Y-129006483D02*
X346898765Y-127824714D01*
X346110919Y-127963633D01*
X346319297Y-129145402D01*
X347107143Y-129006483D01*
G04 #@! TO.C,D21*
G36*
X161611214Y-110704706D02*
G01*
X161819592Y-109522937D01*
X161031746Y-109384018D01*
X160823368Y-110565787D01*
X161611214Y-110704706D01*
G37*
X161611214Y-110704706D02*
X161819592Y-109522937D01*
X161031746Y-109384018D01*
X160823368Y-110565787D01*
X161611214Y-110704706D01*
G04 #@! TO.C,D16*
G36*
X305175302Y-110608361D02*
G01*
X304966924Y-109426592D01*
X304179078Y-109565511D01*
X304387456Y-110747280D01*
X305175302Y-110608361D01*
G37*
X305175302Y-110608361D02*
X304966924Y-109426592D01*
X304179078Y-109565511D01*
X304387456Y-110747280D01*
X305175302Y-110608361D01*
G04 #@! TO.C,D15*
G36*
X324487223Y-110427129D02*
G01*
X324278845Y-109245360D01*
X323490999Y-109384279D01*
X323699377Y-110566048D01*
X324487223Y-110427129D01*
G37*
X324487223Y-110427129D02*
X324278845Y-109245360D01*
X323490999Y-109384279D01*
X323699377Y-110566048D01*
X324487223Y-110427129D01*
G04 #@! TO.C,D11*
G36*
X126295370Y-91581653D02*
G01*
X126503748Y-90399884D01*
X125715902Y-90260965D01*
X125507524Y-91442734D01*
X126295370Y-91581653D01*
G37*
X126295370Y-91581653D02*
X126503748Y-90399884D01*
X125715902Y-90260965D01*
X125507524Y-91442734D01*
X126295370Y-91581653D01*
G04 #@! TO.C,D8*
G36*
X183128465Y-98378881D02*
G01*
X183336843Y-97197112D01*
X182548997Y-97058193D01*
X182340619Y-98239962D01*
X183128465Y-98378881D01*
G37*
X183128465Y-98378881D02*
X183336843Y-97197112D01*
X182548997Y-97058193D01*
X182340619Y-98239962D01*
X183128465Y-98378881D01*
G04 #@! TO.C,D5*
G36*
X283658050Y-98282538D02*
G01*
X283449672Y-97100769D01*
X282661826Y-97239688D01*
X282870204Y-98421457D01*
X283658050Y-98282538D01*
G37*
X283658050Y-98282538D02*
X283449672Y-97100769D01*
X282661826Y-97239688D01*
X282870204Y-98421457D01*
X283658050Y-98282538D01*
G04 #@! TO.C,D4*
G36*
X301867303Y-91847774D02*
G01*
X301658925Y-90666005D01*
X300871079Y-90804924D01*
X301079457Y-91986693D01*
X301867303Y-91847774D01*
G37*
X301867303Y-91847774D02*
X301658925Y-90666005D01*
X300871079Y-90804924D01*
X301079457Y-91986693D01*
X301867303Y-91847774D01*
G04 #@! TO.C,D7*
G36*
X201889055Y-101686880D02*
G01*
X202097433Y-100505111D01*
X201309587Y-100366192D01*
X201101209Y-101547961D01*
X201889055Y-101686880D01*
G37*
X201889055Y-101686880D02*
X202097433Y-100505111D01*
X201309587Y-100366192D01*
X201101209Y-101547961D01*
X201889055Y-101686880D01*
G04 #@! TO.C,D47*
G36*
X135131964Y-151171413D02*
G01*
X135340342Y-149989644D01*
X134552496Y-149850725D01*
X134344118Y-151032494D01*
X135131964Y-151171413D01*
G37*
X135131964Y-151171413D02*
X135340342Y-149989644D01*
X134552496Y-149850725D01*
X134344118Y-151032494D01*
X135131964Y-151171413D01*
G04 #@! TO.C,D46*
G36*
X153892551Y-154479411D02*
G01*
X154100929Y-153297642D01*
X153313083Y-153158723D01*
X153104705Y-154340492D01*
X153892551Y-154479411D01*
G37*
X153892551Y-154479411D02*
X154100929Y-153297642D01*
X153313083Y-153158723D01*
X153104705Y-154340492D01*
X153892551Y-154479411D01*
G04 #@! TO.C,D45*
G36*
X172653139Y-157787410D02*
G01*
X172861517Y-156605641D01*
X172073671Y-156466722D01*
X171865293Y-157648491D01*
X172653139Y-157787410D01*
G37*
X172653139Y-157787410D02*
X172861517Y-156605641D01*
X172073671Y-156466722D01*
X171865293Y-157648491D01*
X172653139Y-157787410D01*
G04 #@! TO.C,D44*
G36*
X189880656Y-147492143D02*
G01*
X188961402Y-146720798D01*
X188447172Y-147333633D01*
X189366426Y-148104978D01*
X189880656Y-147492143D01*
G37*
X189880656Y-147492143D02*
X188961402Y-146720798D01*
X188447172Y-147333633D01*
X189366426Y-148104978D01*
X189880656Y-147492143D01*
G04 #@! TO.C,D41*
G36*
X277646643Y-147237464D02*
G01*
X278565897Y-146466119D01*
X278051667Y-145853284D01*
X277132413Y-146624629D01*
X277646643Y-147237464D01*
G37*
X277646643Y-147237464D02*
X278565897Y-146466119D01*
X278051667Y-145853284D01*
X277132413Y-146624629D01*
X277646643Y-147237464D01*
G04 #@! TO.C,D39*
G36*
X312893964Y-154383067D02*
G01*
X312685586Y-153201298D01*
X311897740Y-153340217D01*
X312106118Y-154521986D01*
X312893964Y-154383067D01*
G37*
X312893964Y-154383067D02*
X312685586Y-153201298D01*
X311897740Y-153340217D01*
X312106118Y-154521986D01*
X312893964Y-154383067D01*
G04 #@! TO.C,D33*
G36*
X158303216Y-129465294D02*
G01*
X158511594Y-128283525D01*
X157723748Y-128144606D01*
X157515370Y-129326375D01*
X158303216Y-129465294D01*
G37*
X158303216Y-129465294D02*
X158511594Y-128283525D01*
X157723748Y-128144606D01*
X157515370Y-129326375D01*
X158303216Y-129465294D01*
G04 #@! TO.C,D32*
G36*
X176512471Y-135900057D02*
G01*
X176720849Y-134718288D01*
X175933003Y-134579369D01*
X175724625Y-135761138D01*
X176512471Y-135900057D01*
G37*
X176512471Y-135900057D02*
X176720849Y-134718288D01*
X175933003Y-134579369D01*
X175724625Y-135761138D01*
X176512471Y-135900057D01*
G04 #@! TO.C,D28*
G36*
X308483301Y-129368951D02*
G01*
X308274923Y-128187182D01*
X307487077Y-128326101D01*
X307695455Y-129507870D01*
X308483301Y-129368951D01*
G37*
X308483301Y-129368951D02*
X308274923Y-128187182D01*
X307487077Y-128326101D01*
X307695455Y-129507870D01*
X308483301Y-129368951D01*
G04 #@! TO.C,D22*
G36*
X142299294Y-110523474D02*
G01*
X142507672Y-109341705D01*
X141719826Y-109202786D01*
X141511448Y-110384555D01*
X142299294Y-110523474D01*
G37*
X142299294Y-110523474D02*
X142507672Y-109341705D01*
X141719826Y-109202786D01*
X141511448Y-110384555D01*
X142299294Y-110523474D01*
G04 #@! TO.C,D20*
G36*
X179820468Y-117139469D02*
G01*
X180028846Y-115957700D01*
X179241000Y-115818781D01*
X179032622Y-117000550D01*
X179820468Y-117139469D01*
G37*
X179820468Y-117139469D02*
X180028846Y-115957700D01*
X179241000Y-115818781D01*
X179032622Y-117000550D01*
X179820468Y-117139469D01*
G04 #@! TO.C,D19*
G36*
X198581057Y-120447469D02*
G01*
X198789435Y-119265700D01*
X198001589Y-119126781D01*
X197793211Y-120308550D01*
X198581057Y-120447469D01*
G37*
X198581057Y-120447469D02*
X198789435Y-119265700D01*
X198001589Y-119126781D01*
X197793211Y-120308550D01*
X198581057Y-120447469D01*
G04 #@! TO.C,D14*
G36*
X343799145Y-110245896D02*
G01*
X343590767Y-109064127D01*
X342802921Y-109203046D01*
X343011299Y-110384815D01*
X343799145Y-110245896D01*
G37*
X343799145Y-110245896D02*
X343590767Y-109064127D01*
X342802921Y-109203046D01*
X343011299Y-110384815D01*
X343799145Y-110245896D01*
G04 #@! TO.C,D6*
G36*
X264897462Y-101590537D02*
G01*
X264689084Y-100408768D01*
X263901238Y-100547687D01*
X264109616Y-101729456D01*
X264897462Y-101590537D01*
G37*
X264897462Y-101590537D02*
X264689084Y-100408768D01*
X263901238Y-100547687D01*
X264109616Y-101729456D01*
X264897462Y-101590537D01*
G04 #@! TO.C,D3*
G36*
X321179226Y-91666540D02*
G01*
X320970848Y-90484771D01*
X320183002Y-90623690D01*
X320391380Y-91805459D01*
X321179226Y-91666540D01*
G37*
X321179226Y-91666540D02*
X320970848Y-90484771D01*
X320183002Y-90623690D01*
X320391380Y-91805459D01*
X321179226Y-91666540D01*
G04 #@! TO.C,R12*
G36*
X368491020Y-77348733D02*
G01*
X367891020Y-77348733D01*
X367891020Y-76148733D01*
X368491020Y-76148733D01*
X368491020Y-77348733D01*
G37*
X368491020Y-77348733D02*
X367891020Y-77348733D01*
X367891020Y-76148733D01*
X368491020Y-76148733D01*
X368491020Y-77348733D01*
G04 #@! TO.C,R11*
G36*
X367891021Y-72998734D02*
G01*
X368491021Y-72998734D01*
X368491021Y-74198734D01*
X367891021Y-74198734D01*
X367891021Y-72998734D01*
G37*
X367891021Y-72998734D02*
X368491021Y-72998734D01*
X368491021Y-74198734D01*
X367891021Y-74198734D01*
X367891021Y-72998734D01*
G04 #@! TO.C,R13*
G36*
X234824155Y-139995375D02*
G01*
X234824155Y-139395375D01*
X236024155Y-139395375D01*
X236024155Y-139995375D01*
X234824155Y-139995375D01*
G37*
X234824155Y-139995375D02*
X234824155Y-139395375D01*
X236024155Y-139395375D01*
X236024155Y-139995375D01*
X234824155Y-139995375D01*
G04 #@! TO.C,R8*
G36*
X338414155Y-73274375D02*
G01*
X339014155Y-73274375D01*
X339014155Y-74474375D01*
X338414155Y-74474375D01*
X338414155Y-73274375D01*
G37*
X338414155Y-73274375D02*
X339014155Y-73274375D01*
X339014155Y-74474375D01*
X338414155Y-74474375D01*
X338414155Y-73274375D01*
G04 #@! TO.C,R10*
G36*
X237174155Y-139970375D02*
G01*
X237174155Y-139370375D01*
X238374155Y-139370375D01*
X238374155Y-139970375D01*
X237174155Y-139970375D01*
G37*
X237174155Y-139970375D02*
X237174155Y-139370375D01*
X238374155Y-139370375D01*
X238374155Y-139970375D01*
X237174155Y-139970375D01*
G04 #@! TO.C,R9*
G36*
X338964155Y-76674374D02*
G01*
X338364155Y-76674374D01*
X338364155Y-75474374D01*
X338964155Y-75474374D01*
X338964155Y-76674374D01*
G37*
X338964155Y-76674374D02*
X338364155Y-76674374D01*
X338364155Y-75474374D01*
X338964155Y-75474374D01*
X338964155Y-76674374D01*
G04 #@! TO.C,C3*
G36*
X242324070Y-124520203D02*
G01*
X242324070Y-124920003D01*
X243324270Y-124920003D01*
X243324270Y-124520203D01*
X242324070Y-124520203D01*
G37*
X242324070Y-124520203D02*
X242324070Y-124920003D01*
X243324270Y-124920003D01*
X243324270Y-124520203D01*
X242324070Y-124520203D01*
G04 #@! TO.C,C4*
G36*
X243349270Y-132095003D02*
G01*
X243349270Y-131695203D01*
X242349070Y-131695203D01*
X242349070Y-132095003D01*
X243349270Y-132095003D01*
G37*
X243349270Y-132095003D02*
X243349270Y-131695203D01*
X242349070Y-131695203D01*
X242349070Y-132095003D01*
X243349270Y-132095003D01*
G04 #@! TO.C,C7*
G36*
X233199255Y-119895474D02*
G01*
X233599055Y-119895474D01*
X233599055Y-118895274D01*
X233199255Y-118895274D01*
X233199255Y-119895474D01*
G37*
X233199255Y-119895474D02*
X233599055Y-119895474D01*
X233599055Y-118895274D01*
X233199255Y-118895274D01*
X233199255Y-119895474D01*
G04 #@! TO.C,Y1*
G36*
X221999155Y-127520374D02*
G01*
X221999155Y-127120374D01*
X222999155Y-127120374D01*
X222999155Y-127520374D01*
X221999155Y-127520374D01*
G37*
X221999155Y-127520374D02*
X221999155Y-127120374D01*
X222999155Y-127120374D01*
X222999155Y-127520374D01*
X221999155Y-127520374D01*
G36*
X221999155Y-128720374D02*
G01*
X221999155Y-128320374D01*
X222999155Y-128320374D01*
X222999155Y-128720374D01*
X221999155Y-128720374D01*
G37*
X221999155Y-128720374D02*
X221999155Y-128320374D01*
X222999155Y-128320374D01*
X222999155Y-128720374D01*
X221999155Y-128720374D01*
G04 #@! TD*
M02*
