G04 #@! TF.GenerationSoftware,KiCad,Pcbnew,(6.0.0-rc1-dev-1469-g932b9a334)*
G04 #@! TF.CreationDate,2019-08-24T21:44:19-07:00
G04 #@! TF.ProjectId,Laptreus-v2,4c617074-7265-4757-932d-76322e6b6963,rev?*
G04 #@! TF.SameCoordinates,Original*
G04 #@! TF.FileFunction,Other,Fab,Bot*
%FSLAX46Y46*%
G04 Gerber Fmt 4.6, Leading zero omitted, Abs format (unit mm)*
G04 Created by KiCad (PCBNEW (6.0.0-rc1-dev-1469-g932b9a334)) date Saturday, August 24, 2019 at 09:44:19 PM*
%MOMM*%
%LPD*%
G04 APERTURE LIST*
%ADD10C,0.150000*%
G04 APERTURE END LIST*
D10*
X236358680Y-74184659D02*
X236237252Y-74225135D01*
X236196776Y-74265612D01*
X236156299Y-74346564D01*
X236156299Y-74467993D01*
X236196776Y-74548945D01*
X236237252Y-74589421D01*
X236318204Y-74629897D01*
X236642014Y-74629897D01*
X236642014Y-73779897D01*
X236358680Y-73779897D01*
X236277728Y-73820374D01*
X236237252Y-73860850D01*
X236196776Y-73941802D01*
X236196776Y-74022754D01*
X236237252Y-74103707D01*
X236277728Y-74144183D01*
X236358680Y-74184659D01*
X236642014Y-74184659D01*
X235872966Y-73779897D02*
X235346776Y-73779897D01*
X235630109Y-74103707D01*
X235508680Y-74103707D01*
X235427728Y-74144183D01*
X235387252Y-74184659D01*
X235346776Y-74265612D01*
X235346776Y-74467993D01*
X235387252Y-74548945D01*
X235427728Y-74589421D01*
X235508680Y-74629897D01*
X235751537Y-74629897D01*
X235832490Y-74589421D01*
X235872966Y-74548945D01*
X234982490Y-73779897D02*
X234982490Y-74467993D01*
X234942014Y-74548945D01*
X234901537Y-74589421D01*
X234820585Y-74629897D01*
X234658680Y-74629897D01*
X234577728Y-74589421D01*
X234537252Y-74548945D01*
X234496776Y-74467993D01*
X234496776Y-73779897D01*
X234092014Y-74306088D02*
X233444395Y-74306088D01*
X232594395Y-74629897D02*
X233080109Y-74629897D01*
X232837252Y-74629897D02*
X232837252Y-73779897D01*
X232918204Y-73901326D01*
X232999157Y-73982278D01*
X233080109Y-74022754D01*
X232068204Y-73779897D02*
X231987252Y-73779897D01*
X231906299Y-73820374D01*
X231865823Y-73860850D01*
X231825347Y-73941802D01*
X231784871Y-74103707D01*
X231784871Y-74306088D01*
X231825347Y-74467993D01*
X231865823Y-74548945D01*
X231906299Y-74589421D01*
X231987252Y-74629897D01*
X232068204Y-74629897D01*
X232149157Y-74589421D01*
X232189633Y-74548945D01*
X232230109Y-74467993D01*
X232270585Y-74306088D01*
X232270585Y-74103707D01*
X232230109Y-73941802D01*
X232189633Y-73860850D01*
X232149157Y-73820374D01*
X232068204Y-73779897D01*
X231258680Y-73779897D02*
X231177728Y-73779897D01*
X231096776Y-73820374D01*
X231056299Y-73860850D01*
X231015823Y-73941802D01*
X230975347Y-74103707D01*
X230975347Y-74306088D01*
X231015823Y-74467993D01*
X231056299Y-74548945D01*
X231096776Y-74589421D01*
X231177728Y-74629897D01*
X231258680Y-74629897D01*
X231339633Y-74589421D01*
X231380109Y-74548945D01*
X231420585Y-74467993D01*
X231461061Y-74306088D01*
X231461061Y-74103707D01*
X231420585Y-73941802D01*
X231380109Y-73860850D01*
X231339633Y-73820374D01*
X231258680Y-73779897D01*
X230449157Y-73779897D02*
X230368204Y-73779897D01*
X230287252Y-73820374D01*
X230246776Y-73860850D01*
X230206299Y-73941802D01*
X230165823Y-74103707D01*
X230165823Y-74306088D01*
X230206299Y-74467993D01*
X230246776Y-74548945D01*
X230287252Y-74589421D01*
X230368204Y-74629897D01*
X230449157Y-74629897D01*
X230530109Y-74589421D01*
X230570585Y-74548945D01*
X230611061Y-74467993D01*
X230651537Y-74306088D01*
X230651537Y-74103707D01*
X230611061Y-73941802D01*
X230570585Y-73860850D01*
X230530109Y-73820374D01*
X230449157Y-73779897D01*
X229801537Y-74629897D02*
X229801537Y-73779897D01*
X229477728Y-73779897D01*
X229396776Y-73820374D01*
X229356299Y-73860850D01*
X229315823Y-73941802D01*
X229315823Y-74063231D01*
X229356299Y-74144183D01*
X229396776Y-74184659D01*
X229477728Y-74225135D01*
X229801537Y-74225135D01*
G04 #@! TO.C,SW_RESET1*
X233749157Y-74245374D02*
G75*
G03X233749157Y-74245374I-750000J0D01*
G01*
X234499157Y-75495374D02*
X234499157Y-72995374D01*
X231499157Y-75495374D02*
X234499157Y-75495374D01*
X231499157Y-72995374D02*
X231499157Y-75495374D01*
X234499157Y-72995374D02*
X231499157Y-72995374D01*
G04 #@! TO.C,L1*
G36*
X233924156Y-132420375D02*
G01*
X233924156Y-132095375D01*
X233999156Y-132095375D01*
X233999156Y-132420375D01*
X233924156Y-132420375D01*
G37*
X233924156Y-132420375D02*
X233924156Y-132095375D01*
X233999156Y-132095375D01*
X233999156Y-132420375D01*
X233924156Y-132420375D01*
G36*
X233499156Y-132395375D02*
G01*
X233499156Y-132095375D01*
X233761156Y-132095375D01*
X233761156Y-132395375D01*
X233499156Y-132395375D01*
G37*
X233499156Y-132395375D02*
X233499156Y-132095375D01*
X233761156Y-132095375D01*
X233761156Y-132395375D01*
X233499156Y-132395375D01*
G36*
X232324156Y-131995375D02*
G01*
X232324156Y-131595375D01*
X232499156Y-131595375D01*
X232499156Y-131995375D01*
X232324156Y-131995375D01*
G37*
X232324156Y-131995375D02*
X232324156Y-131595375D01*
X232499156Y-131595375D01*
X232499156Y-131995375D01*
X232324156Y-131995375D01*
G36*
X232249156Y-132120375D02*
G01*
X232249156Y-131970375D01*
X232499156Y-131970375D01*
X232499156Y-132120375D01*
X232249156Y-132120375D01*
G37*
X232249156Y-132120375D02*
X232249156Y-131970375D01*
X232499156Y-131970375D01*
X232499156Y-132120375D01*
X232249156Y-132120375D01*
G36*
X232249156Y-131620375D02*
G01*
X232249156Y-131470375D01*
X232499156Y-131470375D01*
X232499156Y-131620375D01*
X232249156Y-131620375D01*
G37*
X232249156Y-131620375D02*
X232249156Y-131470375D01*
X232499156Y-131470375D01*
X232499156Y-131620375D01*
X232249156Y-131620375D01*
G36*
X231999156Y-132420375D02*
G01*
X231999156Y-132095375D01*
X232499156Y-132095375D01*
X232499156Y-132420375D01*
X231999156Y-132420375D01*
G37*
X231999156Y-132420375D02*
X231999156Y-132095375D01*
X232499156Y-132095375D01*
X232499156Y-132420375D01*
X231999156Y-132420375D01*
G36*
X231999156Y-131495375D02*
G01*
X231999156Y-131170375D01*
X232499156Y-131170375D01*
X232499156Y-131495375D01*
X231999156Y-131495375D01*
G37*
X231999156Y-131495375D02*
X231999156Y-131170375D01*
X232499156Y-131170375D01*
X232499156Y-131495375D01*
X231999156Y-131495375D01*
G36*
X233499156Y-131995375D02*
G01*
X233499156Y-131595375D01*
X233674156Y-131595375D01*
X233674156Y-131995375D01*
X233499156Y-131995375D01*
G37*
X233499156Y-131995375D02*
X233499156Y-131595375D01*
X233674156Y-131595375D01*
X233674156Y-131995375D01*
X233499156Y-131995375D01*
G36*
X233499156Y-131620375D02*
G01*
X233499156Y-131470375D01*
X233749156Y-131470375D01*
X233749156Y-131620375D01*
X233499156Y-131620375D01*
G37*
X233499156Y-131620375D02*
X233499156Y-131470375D01*
X233749156Y-131470375D01*
X233749156Y-131620375D01*
X233499156Y-131620375D01*
G36*
X233499156Y-132120375D02*
G01*
X233499156Y-131970375D01*
X233749156Y-131970375D01*
X233749156Y-132120375D01*
X233499156Y-132120375D01*
G37*
X233499156Y-132120375D02*
X233499156Y-131970375D01*
X233749156Y-131970375D01*
X233749156Y-132120375D01*
X233499156Y-132120375D01*
G36*
X233499156Y-131495375D02*
G01*
X233499156Y-131170375D01*
X233999156Y-131170375D01*
X233999156Y-131495375D01*
X233499156Y-131495375D01*
G37*
X233499156Y-131495375D02*
X233499156Y-131170375D01*
X233999156Y-131170375D01*
X233999156Y-131495375D01*
X233499156Y-131495375D01*
X233952156Y-132245375D02*
G75*
G03X233952156Y-132245375I-103000J0D01*
G01*
X232499156Y-132370375D02*
X233924156Y-132370375D01*
X233524156Y-131220375D02*
X232474156Y-131220375D01*
X232074158Y-131445375D02*
G75*
G02X232074156Y-132145375I-54201J-350000D01*
G01*
X233924154Y-131445375D02*
G75*
G03X233924156Y-132145375I54201J-350000D01*
G01*
G04 #@! TD*
G04 #@! TO.C,L1*
X229411323Y-131557187D02*
X229411323Y-131152425D01*
X228561323Y-131152425D01*
X229411323Y-132285758D02*
X229411323Y-131800044D01*
X229411323Y-132042901D02*
X228561323Y-132042901D01*
X228682752Y-131961949D01*
X228763704Y-131880996D01*
X228804180Y-131800044D01*
X234033942Y-133280877D02*
X234081561Y-133233258D01*
X234129180Y-133090401D01*
X234129180Y-132995163D01*
X234081561Y-132852306D01*
X233986323Y-132757068D01*
X233891085Y-132709449D01*
X233700609Y-132661830D01*
X233557752Y-132661830D01*
X233367276Y-132709449D01*
X233272038Y-132757068D01*
X233176800Y-132852306D01*
X233129180Y-132995163D01*
X233129180Y-133090401D01*
X233176800Y-133233258D01*
X233224419Y-133280877D01*
X230568466Y-132561830D02*
X230568466Y-133038020D01*
X230854180Y-132466592D02*
X229854180Y-132799925D01*
X230854180Y-133133258D01*
G04 #@! TD*
M02*
