G04 #@! TF.GenerationSoftware,KiCad,Pcbnew,(6.0.0-rc1-dev-1469-g932b9a334)*
G04 #@! TF.CreationDate,2019-08-24T21:44:19-07:00
G04 #@! TF.ProjectId,Laptreus-v2,4c617074-7265-4757-932d-76322e6b6963,rev?*
G04 #@! TF.SameCoordinates,Original*
G04 #@! TF.FileFunction,Profile,NP*
%FSLAX46Y46*%
G04 Gerber Fmt 4.6, Leading zero omitted, Abs format (unit mm)*
G04 Created by KiCad (PCBNEW (6.0.0-rc1-dev-1469-g932b9a334)) date Saturday, August 24, 2019 at 09:44:19 PM*
%MOMM*%
%LPD*%
G04 APERTURE LIST*
G04 #@! TA.AperFunction,NonConductor*
%ADD10C,0.300000*%
G04 #@! TD*
G04 APERTURE END LIST*
D10*
G04 #@! TO.C,BOARD1*
X373499155Y-71595375D02*
X363299155Y-71595375D01*
X351799155Y-71095375D02*
G75*
G02X351299155Y-71595375I-500000J0D01*
G01*
X363299155Y-71595375D02*
G75*
G02X362799155Y-71095375I0J500000D01*
G01*
X362799155Y-71095375D02*
X351799155Y-71095375D01*
X371699155Y-129495375D02*
G75*
G02X370299155Y-128095375I0J1400000D01*
G01*
X94299155Y-126695375D02*
X90499155Y-126695375D01*
X94299155Y-129495375D02*
X90499155Y-129495375D01*
X90499155Y-126695375D02*
X90499155Y-73595375D01*
X90499155Y-129495375D02*
X90499155Y-164195375D01*
X94299155Y-129495375D02*
G75*
G03X95699155Y-128095375I0J1400000D01*
G01*
X95699155Y-128095375D02*
G75*
G03X94299155Y-126695375I-1400000J0D01*
G01*
X375499155Y-126695375D02*
X375499155Y-73595375D01*
X371699155Y-126695375D02*
X375499155Y-126695375D01*
X370299155Y-128095375D02*
G75*
G02X371699155Y-126695375I1400000J0D01*
G01*
X375499155Y-129495375D02*
X371699155Y-129495375D01*
X375499155Y-164195375D02*
X375499155Y-129495375D01*
X90499155Y-73595375D02*
G75*
G02X92499155Y-71595375I2000000J0D01*
G01*
X92499155Y-166195375D02*
G75*
G02X90499155Y-164195375I0J2000000D01*
G01*
X375499155Y-164195375D02*
G75*
G02X373499155Y-166195375I-2000000J0D01*
G01*
X373499155Y-71595375D02*
G75*
G02X375499155Y-73595375I0J-2000000D01*
G01*
X92499155Y-71595375D02*
X351299155Y-71595375D01*
X373499155Y-166195375D02*
X92499155Y-166195375D01*
G04 #@! TD*
M02*
