M48
; DRILL file {KiCad (6.0.0-rc1-dev-1469-g932b9a334)} date Saturday, August 24, 2019 at 09:44:22 PM
; FORMAT={-:-/ absolute / metric / decimal}
; #@! TF.CreationDate,2019-08-24T21:44:22-07:00
; #@! TF.GenerationSoftware,Kicad,Pcbnew,(6.0.0-rc1-dev-1469-g932b9a334)
; #@! TF.FileFunction,NonPlated,1,2,NPTH
FMAT,2
METRIC
T1C0.650
T2C1.650
T3C2.950
T4C3.980
%
G90
G05
T1
X354.409Y-76.045
X360.189Y-76.045
T2
X317.47Y-102.189
X327.476Y-100.425
X279.949Y-108.805
X289.955Y-107.041
X261.188Y-112.113
X271.194Y-110.349
X157.835Y-100.564
X167.84Y-102.328
X138.523Y-100.382
X148.529Y-102.147
X320.778Y-120.95
X330.784Y-119.186
X283.257Y-127.566
X293.263Y-125.802
X264.496Y-130.874
X274.502Y-129.11
X135.215Y-119.143
X145.221Y-120.907
X343.398Y-139.529
X353.404Y-137.765
X324.637Y-142.837
X334.643Y-141.073
X247.107Y-146.335
X254.89Y-139.804
X192.108Y-149.867
X199.891Y-156.398
X115.903Y-118.962
X125.909Y-120.726
X211.108Y-139.9
X218.891Y-146.431
X96.591Y-118.781
X106.597Y-120.545
X112.595Y-137.722
X122.601Y-139.487
X119.211Y-100.201
X129.217Y-101.965
X359.402Y-120.587
X369.408Y-118.823
X131.356Y-141.03
X141.361Y-142.795
X161.143Y-81.803
X171.148Y-83.567
X191.497Y-129.067
X201.502Y-130.831
X172.736Y-125.759
X182.742Y-127.523
X154.527Y-119.324
X164.532Y-121.088
X168.877Y-147.646
X178.882Y-149.411
X194.805Y-110.306
X204.81Y-112.071
X294.85Y-83.61
X304.856Y-81.846
X276.641Y-90.045
X286.647Y-88.28
X198.113Y-91.546
X208.118Y-93.31
X356.094Y-101.827
X366.1Y-100.063
X298.158Y-102.37
X308.164Y-100.606
X176.044Y-106.998
X186.05Y-108.763
X340.09Y-120.769
X350.096Y-119.004
X301.466Y-121.131
X311.472Y-119.367
X305.877Y-146.145
X315.883Y-144.381
X287.116Y-149.453
X297.122Y-147.689
X266.108Y-156.4
X273.891Y-149.869
X150.116Y-144.338
X160.122Y-146.103
X352.786Y-83.066
X362.792Y-81.302
X333.474Y-83.247
X343.48Y-81.483
X314.162Y-83.429
X324.168Y-81.664
X103.196Y-81.213
X113.202Y-82.978
X122.519Y-81.441
X132.525Y-83.205
X99.899Y-100.02
X109.905Y-101.784
X228.019Y-93.795
X238.179Y-93.795
X257.88Y-93.353
X267.886Y-91.588
X179.352Y-88.238
X189.358Y-90.002
X141.831Y-81.622
X151.837Y-83.386
X336.782Y-102.008
X346.788Y-100.244
T3
X319.089Y-96.745
X325.784Y-98.144
X281.568Y-103.361
X288.263Y-104.76
X262.808Y-106.669
X269.502Y-108.068
X161.218Y-96.002
X167.031Y-99.606
X141.906Y-95.821
X147.719Y-99.425
X322.397Y-115.506
X329.092Y-116.905
X284.876Y-122.122
X291.571Y-123.521
X266.116Y-125.43
X272.81Y-126.829
X138.598Y-114.581
X144.411Y-118.185
X345.017Y-134.085
X351.712Y-135.484
X326.257Y-137.393
X332.951Y-138.792
X245.788Y-140.811
X252.285Y-138.675
X197.319Y-147.608
X200.551Y-153.635
X119.287Y-114.4
X125.099Y-118.004
X216.319Y-137.642
X219.551Y-143.669
X99.975Y-114.219
X105.787Y-117.823
X115.979Y-133.161
X121.791Y-136.765
X122.595Y-95.639
X128.407Y-99.243
X361.021Y-115.143
X367.716Y-116.542
X134.739Y-136.469
X140.552Y-140.073
X164.526Y-77.241
X170.339Y-80.845
X194.88Y-124.505
X200.693Y-128.109
X176.12Y-121.197
X181.932Y-124.801
X157.91Y-114.762
X163.723Y-118.367
X172.26Y-143.085
X178.073Y-146.689
X198.188Y-105.745
X204.001Y-109.349
X296.469Y-78.166
X303.164Y-79.565
X278.26Y-84.601
X284.955Y-85.999
X201.496Y-86.984
X207.309Y-90.588
X357.786Y-104.108
X364.48Y-105.506
X299.777Y-96.927
X306.472Y-98.325
X179.428Y-102.437
X185.24Y-106.041
X341.709Y-115.325
X348.404Y-116.723
X303.085Y-115.687
X309.78Y-117.086
X307.496Y-140.701
X314.191Y-142.1
X288.736Y-144.009
X295.43Y-145.408
X264.788Y-150.875
X271.285Y-148.739
X153.5Y-139.777
X159.312Y-143.381
X354.478Y-85.347
X361.172Y-86.746
X335.166Y-85.528
X341.86Y-86.927
X315.781Y-77.985
X322.476Y-79.384
X106.58Y-76.651
X112.392Y-80.256
X125.903Y-76.879
X131.715Y-80.483
X100.709Y-102.742
X106.521Y-106.346
X230.559Y-88.715
X236.909Y-91.255
X259.5Y-87.909
X266.194Y-89.307
X182.736Y-83.676
X188.548Y-87.28
X145.214Y-77.06
X151.027Y-80.664
X338.474Y-104.289
X345.168Y-105.688
T4
X322.473Y-101.307
X284.952Y-107.923
X266.191Y-111.231
X162.838Y-101.446
X143.526Y-101.265
X325.781Y-120.068
X288.26Y-126.684
X269.499Y-129.992
X140.218Y-120.025
X348.401Y-138.647
X329.64Y-141.955
X250.999Y-143.069
X195.999Y-153.132
X120.906Y-119.844
X214.999Y-143.166
X101.594Y-119.663
X117.598Y-138.604
X124.214Y-101.083
X364.405Y-119.705
X136.358Y-141.912
X166.146Y-82.685
X196.499Y-129.949
X177.739Y-126.641
X159.53Y-120.206
X173.88Y-148.528
X199.807Y-111.189
X299.853Y-82.728
X281.644Y-89.163
X203.115Y-92.428
X361.097Y-100.945
X303.161Y-101.488
X181.047Y-107.881
X345.093Y-119.886
X306.469Y-120.249
X310.88Y-145.263
X292.119Y-148.571
X269.999Y-153.134
X155.119Y-145.22
X357.789Y-82.184
X338.477Y-82.365
X319.165Y-82.547
X108.199Y-82.095
X127.522Y-82.323
X104.902Y-100.902
X233.099Y-93.795
X262.883Y-92.471
X184.355Y-89.12
X146.834Y-82.504
X341.785Y-101.126
T0
M30
