M48
; DRILL file {KiCad (6.0.0-rc1-dev-1469-g932b9a334)} date Saturday, August 24, 2019 at 09:44:22 PM
; FORMAT={-:-/ absolute / metric / decimal}
; #@! TF.CreationDate,2019-08-24T21:44:22-07:00
; #@! TF.GenerationSoftware,Kicad,Pcbnew,(6.0.0-rc1-dev-1469-g932b9a334)
; #@! TF.FileFunction,Plated,1,2,PTH
FMAT,2
METRIC
T1C0.400
T2C0.500
T3C0.600
T4C0.762
T5C1.000
T6C1.016
T7C1.200
T8C1.500
T9C2.500
%
G90
G05
T1
X118.16Y-84.123
X118.467Y-82.379
X179.834Y-150.998
X184.965Y-152.477
X185.961Y-148.961
X187.028Y-130.872
X188.799Y-131.169
X190.257Y-112.097
X191.481Y-112.298
X222.239Y-136.838
X223.039Y-136.838
X223.839Y-136.838
X224.149Y-127.895
X224.639Y-136.838
X225.439Y-136.838
X228.648Y-124.812
X229.299Y-126.695
X229.299Y-125.845
X230.099Y-132.645
X230.599Y-135.545
X232.139Y-155.963
X232.139Y-157.813
X232.139Y-155.063
X232.139Y-156.913
X232.399Y-74.245
X232.999Y-123.945
X233.599Y-74.245
X233.799Y-124.545
X234.789Y-154.263
X234.789Y-155.163
X234.789Y-152.413
X234.789Y-153.313
X235.249Y-131.795
X235.424Y-142.095
X236.949Y-124.295
X237.199Y-125.595
X237.249Y-132.095
X240.447Y-136.848
X241.239Y-136.838
X241.849Y-102.045
X242.039Y-136.838
X242.839Y-136.838
X243.639Y-136.838
X244.439Y-136.838
X244.624Y-102.045
X275.402Y-112.192
X277.2Y-111.875
X278.267Y-131.031
X280.458Y-130.645
X283.53Y-152.671
X286.213Y-152.198
X355.974Y-76.22
X358.589Y-78.695
X363.099Y-74.495
X363.099Y-75.845
T2
X92.257Y-125.495
X92.257Y-130.695
X94.299Y-125.495
X94.299Y-130.695
X96.138Y-126.257
X96.138Y-129.934
X96.899Y-128.095
X114.249Y-97.178
X114.249Y-101.795
X114.249Y-154.495
X114.249Y-159.095
X115.449Y-97.195
X115.449Y-101.795
X115.449Y-154.495
X115.449Y-159.095
X116.649Y-97.195
X116.649Y-101.795
X116.649Y-154.495
X116.649Y-159.095
X183.799Y-154.495
X183.799Y-159.095
X184.999Y-154.495
X184.999Y-159.095
X186.199Y-154.495
X186.199Y-159.095
X231.799Y-106.595
X231.799Y-111.195
X232.999Y-106.595
X232.999Y-111.195
X234.199Y-106.595
X234.199Y-111.195
X246.099Y-116.595
X246.099Y-121.195
X247.299Y-116.595
X247.299Y-121.195
X248.499Y-116.595
X248.499Y-121.195
X347.999Y-99.495
X348.673Y-97.869
X348.673Y-101.122
X349.099Y-154.495
X349.099Y-159.095
X350.299Y-97.195
X350.299Y-101.795
X350.299Y-154.495
X350.299Y-159.095
X351.499Y-154.495
X351.499Y-159.095
X351.926Y-97.869
X351.926Y-101.122
X352.599Y-99.495
X369.099Y-128.095
X369.861Y-126.257
X369.861Y-129.934
X371.699Y-125.495
X371.699Y-130.695
X373.741Y-125.495
X373.741Y-130.695
T4
X318.592Y-99.453
X318.592Y-99.453
X318.592Y-99.453
X281.071Y-106.069
X281.071Y-106.069
X281.071Y-106.069
X262.31Y-109.377
X262.31Y-109.377
X262.31Y-109.377
X159.825Y-98.376
X159.825Y-98.376
X159.825Y-98.376
X140.513Y-98.195
X140.513Y-98.195
X140.513Y-98.195
X321.9Y-118.213
X321.9Y-118.213
X321.9Y-118.213
X284.379Y-124.829
X284.379Y-124.829
X284.379Y-124.829
X265.618Y-128.137
X265.618Y-128.137
X265.618Y-128.137
X137.205Y-116.955
X137.205Y-116.955
X137.205Y-116.955
X344.52Y-136.793
X344.52Y-136.793
X344.52Y-136.793
X325.759Y-140.101
X325.759Y-140.101
X325.759Y-140.101
X246.711Y-143.404
X246.711Y-143.404
X246.711Y-143.404
X194.925Y-148.967
X194.925Y-148.967
X194.925Y-148.967
X117.893Y-116.774
X117.893Y-116.774
X117.893Y-116.774
X213.925Y-139.001
X213.925Y-139.001
X213.925Y-139.001
X98.581Y-116.593
X98.581Y-116.593
X98.581Y-116.593
X114.585Y-135.535
X114.585Y-135.535
X114.585Y-135.535
X121.201Y-98.014
X121.201Y-98.014
X121.201Y-98.014
X360.524Y-117.851
X360.524Y-117.851
X360.524Y-117.851
X133.346Y-138.843
X133.346Y-138.843
X133.346Y-138.843
X163.133Y-79.615
X163.133Y-79.615
X163.133Y-79.615
X193.487Y-126.879
X193.487Y-126.879
X193.487Y-126.879
X174.726Y-123.571
X174.726Y-123.571
X174.726Y-123.571
X156.517Y-117.137
X156.517Y-117.137
X156.517Y-117.137
X170.867Y-145.459
X170.867Y-145.459
X170.867Y-145.459
X196.795Y-108.119
X196.795Y-108.119
X196.795Y-108.119
X295.972Y-80.873
X295.972Y-80.873
X295.972Y-80.873
X277.763Y-87.308
X277.763Y-87.308
X277.763Y-87.308
X200.103Y-89.358
X200.103Y-89.358
X200.103Y-89.358
X364.978Y-102.799
X364.978Y-102.799
X364.978Y-102.799
X299.28Y-99.634
X299.28Y-99.634
X299.28Y-99.634
X178.034Y-104.811
X178.034Y-104.811
X178.034Y-104.811
X341.212Y-118.032
X341.212Y-118.032
X341.212Y-118.032
X302.588Y-118.395
X302.588Y-118.395
X302.588Y-118.395
X306.999Y-143.409
X306.999Y-143.409
X306.999Y-143.409
X288.238Y-146.717
X288.238Y-146.717
X288.238Y-146.717
X265.711Y-153.469
X265.711Y-153.469
X265.711Y-153.469
X152.106Y-142.151
X152.106Y-142.151
X152.106Y-142.151
X315.284Y-80.692
X315.284Y-80.692
X315.284Y-80.692
X105.186Y-79.026
X105.186Y-79.026
X105.186Y-79.026
X124.509Y-79.253
X124.509Y-79.253
X124.509Y-79.253
X107.915Y-103.972
X107.915Y-103.972
X107.915Y-103.972
X229.599Y-91.295
X229.599Y-91.295
X229.599Y-91.295
X259.002Y-90.616
X259.002Y-90.616
X259.002Y-90.616
X181.342Y-86.05
X181.342Y-86.05
X181.342Y-86.05
X143.821Y-79.434
X143.821Y-79.434
X143.821Y-79.434
X345.666Y-102.98
X345.666Y-102.98
X345.666Y-102.98
T5
X336.152Y-91.641
X343.834Y-90.287
X253.639Y-152.28
X259.39Y-147.01
X99.438Y-128.148
X107.119Y-129.503
X358.008Y-129.872
X365.69Y-128.518
X99.545Y-108.823
X107.226Y-110.178
X358.772Y-110.22
X366.454Y-108.866
X102.853Y-90.063
X110.534Y-91.417
X355.464Y-91.46
X363.146Y-90.105
X342.768Y-129.162
X350.45Y-127.808
X157.481Y-109.367
X165.162Y-110.722
X300.836Y-110.764
X308.518Y-109.41
X320.148Y-110.583
X327.83Y-109.228
X122.165Y-90.244
X129.846Y-91.599
X178.998Y-97.041
X186.679Y-98.396
X279.319Y-98.438
X287.001Y-97.084
X131.001Y-149.834
X138.683Y-151.188
X149.762Y-153.142
X157.444Y-154.496
X168.523Y-156.45
X176.204Y-157.804
X186.657Y-150.4
X191.671Y-144.425
X154.173Y-128.128
X161.854Y-129.482
X172.382Y-134.562
X180.063Y-135.917
X304.144Y-129.525
X311.826Y-128.17
X138.169Y-109.186
X145.85Y-110.54
X175.69Y-115.802
X183.371Y-117.156
X206.273Y-147.721
X212.023Y-152.99
X115.549Y-127.765
X123.23Y-129.12
X118.857Y-109.005
X126.538Y-110.359
X141.477Y-90.425
X149.158Y-91.78
X134.861Y-127.946
X142.542Y-129.301
X191.143Y-137.87
X198.824Y-139.225
X267.175Y-139.268
X274.856Y-137.913
X285.935Y-135.96
X293.617Y-134.605
X323.456Y-129.344
X331.138Y-127.989
X316.84Y-91.822
X324.522Y-90.468
X327.316Y-151.231
X334.997Y-149.876
X289.795Y-157.847
X297.476Y-156.492
X346.076Y-147.923
X353.758Y-146.568
X160.789Y-90.607
X168.47Y-91.961
X112.241Y-146.526
X119.922Y-147.88
X263.867Y-120.507
X271.548Y-119.152
X282.627Y-117.199
X290.309Y-115.844
X297.528Y-92.004
X305.21Y-90.649
X197.759Y-100.349
X205.44Y-101.704
X275.342Y-143.558
X280.356Y-149.533
X308.555Y-154.539
X316.237Y-153.184
X194.451Y-119.11
X202.132Y-120.464
X339.46Y-110.402
X347.142Y-109.047
X260.559Y-101.746
X268.24Y-100.392
T6
X212.999Y-127.495
X212.999Y-130.445
X212.999Y-124.495
T7
X323.515Y-107.216
X328.057Y-104.181
X285.994Y-113.832
X290.536Y-110.797
X267.233Y-117.14
X271.775Y-114.105
X161.796Y-107.355
X167.102Y-106.056
X142.484Y-107.173
X147.79Y-105.875
X326.823Y-125.977
X331.365Y-122.942
X289.302Y-132.593
X293.844Y-129.558
X270.541Y-135.901
X275.083Y-132.866
X139.176Y-125.934
X144.482Y-124.636
X349.443Y-144.556
X353.985Y-141.521
X330.682Y-147.864
X335.224Y-144.829
X254.856Y-147.666
X257.272Y-142.766
X192.143Y-157.728
X197.387Y-159.257
X119.864Y-125.753
X125.17Y-124.454
X211.143Y-147.762
X216.387Y-149.291
X100.552Y-125.571
X105.858Y-124.273
X116.556Y-144.513
X121.862Y-143.215
X123.172Y-106.992
X128.478Y-105.694
X365.447Y-125.614
X369.989Y-122.579
X135.317Y-147.821
X140.623Y-146.523
X165.104Y-88.594
X170.41Y-87.296
X195.458Y-135.858
X200.764Y-134.56
X176.697Y-132.55
X182.003Y-131.252
X158.488Y-126.115
X163.794Y-124.817
X172.838Y-154.437
X178.144Y-153.139
X198.766Y-117.097
X204.072Y-115.799
X300.895Y-88.637
X305.437Y-85.602
X282.686Y-95.071
X287.228Y-92.037
X202.074Y-98.337
X207.38Y-97.038
X355.513Y-98.071
X360.055Y-95.036
X304.203Y-107.397
X308.745Y-104.362
X180.005Y-113.789
X185.311Y-112.491
X346.135Y-125.795
X350.677Y-122.76
X307.511Y-126.158
X312.053Y-123.123
X311.922Y-151.172
X316.464Y-148.137
X293.161Y-154.48
X297.703Y-151.445
X273.856Y-157.73
X276.272Y-152.831
X154.077Y-151.129
X159.383Y-149.831
X320.207Y-88.455
X324.749Y-85.421
X107.157Y-88.004
X112.463Y-86.706
X126.48Y-88.232
X131.786Y-86.933
X100.638Y-96.292
X105.944Y-94.993
X233.099Y-99.795
X238.099Y-97.595
X263.925Y-98.379
X268.467Y-95.345
X183.313Y-95.029
X188.619Y-93.73
X145.792Y-88.413
X151.098Y-87.114
X336.201Y-98.252
X340.743Y-95.217
T8
X319.162Y-104.47
X320.706Y-105.68
X281.641Y-111.086
X283.184Y-112.296
X262.88Y-114.394
X264.424Y-115.604
X158.644Y-103.286
X159.681Y-104.951
X139.333Y-103.104
X140.369Y-104.77
X322.47Y-123.231
X324.014Y-124.441
X284.949Y-129.847
X286.492Y-131.057
X266.188Y-133.155
X267.732Y-134.365
X136.025Y-121.865
X137.061Y-123.53
X345.09Y-141.81
X346.633Y-143.02
X326.329Y-145.118
X327.873Y-146.328
X249.713Y-147.464
X251.655Y-147.741
X191.448Y-152.629
X191.513Y-154.589
X116.713Y-121.684
X117.749Y-123.349
X210.448Y-142.663
X210.513Y-144.623
X97.401Y-121.502
X98.437Y-123.168
X113.405Y-140.444
X114.441Y-142.11
X120.021Y-102.923
X121.057Y-104.588
X361.094Y-122.868
X362.637Y-124.079
X132.165Y-143.752
X133.202Y-145.418
X161.952Y-84.525
X162.989Y-86.19
X192.306Y-131.789
X193.343Y-133.454
X173.546Y-128.481
X174.582Y-130.146
X155.336Y-122.046
X156.373Y-123.711
X169.686Y-150.368
X170.723Y-152.034
X195.614Y-113.028
X196.651Y-114.694
X296.542Y-85.891
X298.086Y-87.101
X278.333Y-92.326
X279.876Y-93.536
X198.922Y-94.268
X199.959Y-95.933
X362.864Y-96.571
X364.408Y-97.782
X299.85Y-104.651
X301.394Y-105.862
X176.854Y-109.72
X177.89Y-111.386
X341.782Y-123.049
X343.325Y-124.26
X303.158Y-123.412
X304.702Y-124.622
X307.569Y-148.426
X309.112Y-149.636
X288.808Y-151.734
X290.352Y-152.944
X268.713Y-157.529
X270.655Y-157.805
X150.926Y-147.06
X151.962Y-148.726
X315.854Y-85.71
X317.398Y-86.92
X104.006Y-83.935
X105.043Y-85.6
X123.329Y-84.163
X124.365Y-85.828
X108.058Y-97.397
X109.095Y-99.062
X229.289Y-96.335
X230.599Y-97.795
X259.572Y-95.634
X261.116Y-96.844
X180.162Y-90.96
X181.198Y-92.625
X142.641Y-84.344
X143.677Y-86.009
X343.552Y-96.753
X345.096Y-97.963
T9
X350.299Y-99.495
T3
G00X352.979Y-72.695
M15
G01X352.979Y-72.095
M16
G05
G00X352.979Y-77.125
M15
G01X352.979Y-76.025
M16
G05
G00X361.619Y-72.695
M15
G01X361.619Y-72.095
M16
G05
G00X361.619Y-77.125
M15
G01X361.619Y-76.025
M16
G05
T8
G00X325.756Y-105.298
M15
G01X325.817Y-105.875
M16
G05
G00X288.234Y-111.914
M15
G01X288.296Y-112.491
M16
G05
G00X269.474Y-115.222
M15
G01X269.535Y-115.799
M16
G05
G00X164.557Y-106.319
M15
G01X164.418Y-106.882
M16
G05
G00X145.245Y-106.138
M15
G01X145.106Y-106.701
M16
G05
G00X329.064Y-124.059
M15
G01X329.125Y-124.636
M16
G05
G00X291.542Y-130.675
M15
G01X291.604Y-131.252
M16
G05
G00X272.782Y-133.983
M15
G01X272.843Y-134.56
M16
G05
G00X141.937Y-124.898
M15
G01X141.798Y-125.461
M16
G05
G00X351.684Y-142.638
M15
G01X351.745Y-143.215
M16
G05
G00X332.923Y-145.946
M15
G01X332.985Y-146.523
M16
G05
G00X255.837Y-144.885
M15
G01X256.179Y-145.353
M16
G05
G00X195.052Y-158.212
M15
G01X194.65Y-158.63
M16
G05
G00X122.625Y-124.717
M15
G01X122.486Y-125.28
M16
G05
G00X214.052Y-148.246
M15
G01X213.65Y-148.664
M16
G05
G00X103.313Y-124.536
M15
G01X103.174Y-125.099
M16
G05
G00X119.317Y-143.478
M15
G01X119.178Y-144.041
M16
G05
G00X125.933Y-105.957
M15
G01X125.794Y-106.52
M16
G05
G00X367.687Y-123.697
M15
G01X367.749Y-124.273
M16
G05
G00X138.078Y-146.786
M15
G01X137.939Y-147.349
M16
G05
G00X167.865Y-87.558
M15
G01X167.726Y-88.122
M16
G05
G00X198.219Y-134.822
M15
G01X198.08Y-135.385
M16
G05
G00X179.459Y-131.514
M15
G01X179.319Y-132.077
M16
G05
G00X161.249Y-125.08
M15
G01X161.11Y-125.643
M16
G05
G00X175.599Y-153.402
M15
G01X175.46Y-153.965
M16
G05
G00X201.527Y-116.062
M15
G01X201.388Y-116.625
M16
G05
G00X303.136Y-86.719
M15
G01X303.197Y-87.296
M16
G05
G00X284.926Y-93.154
M15
G01X284.988Y-93.731
M16
G05
G00X204.835Y-97.301
M15
G01X204.696Y-97.864
M16
G05
G00X357.814Y-96.953
M15
G01X357.752Y-96.377
M16
G05
G00X306.444Y-105.48
M15
G01X306.505Y-106.056
M16
G05
G00X182.767Y-112.754
M15
G01X182.627Y-113.317
M16
G05
G00X348.376Y-123.878
M15
G01X348.437Y-124.454
M16
G05
G00X309.752Y-124.24
M15
G01X309.813Y-124.817
M16
G05
G00X314.162Y-149.254
M15
G01X314.224Y-149.831
M16
G05
G00X295.402Y-152.562
M15
G01X295.463Y-153.139
M16
G05
G00X274.838Y-154.949
M15
G01X275.18Y-155.418
M16
G05
G00X156.839Y-150.094
M15
G01X156.699Y-150.657
M16
G05
G00X322.448Y-86.538
M15
G01X322.509Y-87.115
M16
G05
G00X109.919Y-86.969
M15
G01X109.779Y-87.532
M16
G05
G00X129.241Y-87.196
M15
G01X129.102Y-87.759
M16
G05
G00X103.182Y-96.029
M15
G01X103.322Y-95.466
M16
G05
G00X235.639Y-98.296
M15
G01X235.599Y-98.875
M16
G05
G00X266.166Y-96.462
M15
G01X266.227Y-97.039
M16
G05
G00X186.075Y-93.993
M15
G01X185.935Y-94.556
M16
G05
G00X148.553Y-87.377
M15
G01X148.414Y-87.94
M16
G05
G00X338.502Y-97.135
M15
G01X338.441Y-96.558
M16
G05
T9
G00X116.699Y-99.495
M15
G01X114.199Y-99.495
M16
G05
G00X114.199Y-156.795
M15
G01X116.699Y-156.795
M16
G05
G00X183.749Y-156.795
M15
G01X186.249Y-156.795
M16
G05
G00X231.749Y-109.195
M15
G01X234.249Y-109.195
M16
G05
G00X246.049Y-118.895
M15
G01X248.549Y-118.895
M16
G05
G00X349.049Y-156.795
M15
G01X351.549Y-156.795
M16
G05
T0
M30
