<?xml version="1.0" encoding="utf-8"?>
<!-- Generator: Adobe Illustrator 23.0.1, SVG Export Plug-In . SVG Version: 6.00 Build 0)  -->
<svg version="1.1" id="Layer_1" xmlns:serif="http://www.serif.com/"
	 xmlns="http://www.w3.org/2000/svg" xmlns:xlink="http://www.w3.org/1999/xlink" x="0px" y="0px" viewBox="0 0 2138 2138"
	 style="enable-background:new 0 0 2138 2138;" xml:space="preserve">
<style type="text/css">
	.st0{fill:none;stroke:#0000FF;stroke-width:0.8504;stroke-linecap:round;stroke-linejoin:round;stroke-miterlimit:1.5;}
	.st1{fill:none;stroke:#0000FF;stroke-width:0.8504;stroke-linecap:square;stroke-miterlimit:2;}
	.st2{fill:none;stroke:#0000FF;stroke-width:0.8504;stroke-linejoin:round;stroke-miterlimit:2;}
</style>
<g id="Inside-shape" transform="matrix(1,0,0,1,47.2441,47.2441)" serif:id="Inside shape">
	<path class="st0" d="M381.3,320.3h-248v-48.2L25.5,253.4v-220c0,0,0,0,0,0c0-1.3,1-2.3,2.3-2.3h220.8l153.9,30.9h56.7l154-30.9
		h220.1c1.6,0,2.8,1.3,2.8,2.8c0,25.8,0,219.4,0,219.4l-107.7,18.7v48.2h-248v-33.2c17.3-14.3,28.3-35.9,28.3-60.1
		c0-43-34.9-78-78-78c-43,0-78,34.9-78,78c0,24.2,11,45.8,28.3,60.1V320.3"/>
</g>
<g id="Outside-shape" transform="matrix(1,0,0,1,47.2441,41.5748)" serif:id="Outside shape">
	<path class="st0" d="M5.1,5.7C2.3,5.7,0,8,0,10.8c0,40.1,0,304,0,344.1c0,2.8,2.3,5.1,5.1,5.1c30.8,0,191.5,0,222.2,0
		c2.8,0,5.1-2.3,5.1-5.1c0-1.3,0-2.7,0-4c0-1.4,0.5-2.7,1.5-3.6c1-1,2.3-1.5,3.6-1.5c43,0,343.7,0,386.6,0c1.4,0,2.7,0.5,3.6,1.5
		c1,1,1.5,2.3,1.5,3.6c0,1.3,0,2.7,0,4c0,2.8,2.3,5.1,5.1,5.1c30.8,0,191.5,0,222.2,0c2.8,0,5.1-2.3,5.1-5.1c0-40.1,0-304,0-344.1
		c0-2.8-2.3-5.1-5.1-5.1c-15.1,0-59.7,0-74.8,0c-2.8,0-5.1,2.3-5.1,5.1c0,0.4,0,0.8,0,1.1c0,1.4-0.5,2.7-1.5,3.6
		c-1,1-2.3,1.5-3.6,1.5c-59.6,0-621.9,0-681.4,0c-1.4,0-2.7-0.5-3.6-1.5c-1-1-1.5-2.3-1.5-3.6c0-0.4,0-0.8,0-1.1
		c0-2.8-2.3-5.1-5.1-5.1C64.8,5.7,20.2,5.7,5.1,5.7z"/>
</g>
<g transform="matrix(-0.939693,0.34202,0.34202,0.939693,848.559,28.1403)">
	<path class="st1" d="M281.9,160.4h2.3v-2.8h39v2.8h2.3v9.9h-2.3V184h2.3v9.9h-2.3v2.8h-39v-2.8h-2.3V184h2.3v-13.6h-2.3V160.4z"/>
</g>
<g transform="matrix(-0.608761,0.793353,0.793353,0.608761,614.264,-10.8301)">
	<path class="st1" d="M281.9,160.4h2.3v-2.8h39v2.8h2.3v9.9h-2.3V184h2.3v9.9h-2.3v2.8h-39v-2.8h-2.3V184h2.3v-13.6h-2.3V160.4z"/>
</g>
<g transform="matrix(0.984808,-0.173648,0.173648,0.984808,496.025,-9.6711)">
	<path class="st1" d="M281.9,160.4h2.3v-2.8h39v2.8h2.3v9.9h-2.3V184h2.3v9.9h-2.3v2.8h-39v-2.8h-2.3V184h2.3v-13.6h-2.3V160.4z"/>
</g>
<g transform="matrix(0.984808,-0.173648,0.173648,0.984808,443.115,-0.341601)">
	<path class="st1" d="M281.9,160.4h2.3v-2.8h39v2.8h2.3v9.9h-2.3V184h2.3v9.9h-2.3v2.8h-39v-2.8h-2.3V184h2.3v-13.6h-2.3V160.4z"/>
</g>
<g transform="matrix(0.984808,-0.173648,0.173648,0.984808,386.943,-8.75334)">
	<path class="st1" d="M281.9,160.4h2.3v-2.8h39v2.8h2.3v9.9h-2.3V184h2.3v9.9h-2.3v2.8h-39v-2.8h-2.3V184h2.3v-13.6h-2.3V160.4z"/>
</g>
<g transform="matrix(0.984808,-0.173648,0.173648,0.984808,330.802,-16.9879)">
	<path class="st1" d="M281.9,160.4h2.3v-2.8h39v2.8h2.3v9.9h-2.3V184h2.3v9.9h-2.3v2.8h-39v-2.8h-2.3V184h2.3v-13.6h-2.3V160.4z"/>
</g>
<g transform="matrix(0.984808,-0.173648,0.173648,0.984808,280.863,9.95144)">
	<path class="st1" d="M281.9,160.4h2.3v-2.8h39v2.8h2.3v9.9h-2.3V184h2.3v9.9h-2.3v2.8h-39v-2.8h-2.3V184h2.3v-13.6h-2.3V160.4z"/>
</g>
<g transform="matrix(0.984808,-0.173648,0.173648,0.984808,227.823,19.3038)">
	<path class="st1" d="M281.9,160.4h2.3v-2.8h39v2.8h2.3v9.9h-2.3V184h2.3v9.9h-2.3v2.8h-39v-2.8h-2.3V184h2.3v-13.6h-2.3V160.4z"/>
</g>
<g transform="matrix(0.984808,-0.173648,0.173648,0.984808,505.399,43.4902)">
	<path class="st1" d="M281.9,160.4h2.3v-2.8h39v2.8h2.3v9.9h-2.3V184h2.3v9.9h-2.3v2.8h-39v-2.8h-2.3V184h2.3v-13.6h-2.3V160.4z"/>
</g>
<g transform="matrix(0.984808,-0.173648,0.173648,0.984808,452.489,52.8197)">
	<path class="st1" d="M281.9,160.4h2.3v-2.8h39v2.8h2.3v9.9h-2.3V184h2.3v9.9h-2.3v2.8h-39v-2.8h-2.3V184h2.3v-13.6h-2.3V160.4z"/>
</g>
<g transform="matrix(0.984808,-0.173648,0.173648,0.984808,396.317,44.408)">
	<path class="st1" d="M281.9,160.4h2.3v-2.8h39v2.8h2.3v9.9h-2.3V184h2.3v9.9h-2.3v2.8h-39v-2.8h-2.3V184h2.3v-13.6h-2.3V160.4z"/>
</g>
<g transform="matrix(0.984808,-0.173648,0.173648,0.984808,340.175,36.1734)">
	<path class="st1" d="M281.9,160.4h2.3v-2.8h39v2.8h2.3v9.9h-2.3V184h2.3v9.9h-2.3v2.8h-39v-2.8h-2.3V184h2.3v-13.6h-2.3V160.4z"/>
</g>
<g transform="matrix(0.984808,-0.173648,0.173648,0.984808,290.236,63.1127)">
	<path class="st1" d="M281.9,160.4h2.3v-2.8h39v2.8h2.3v9.9h-2.3V184h2.3v9.9h-2.3v2.8h-39v-2.8h-2.3V184h2.3v-13.6h-2.3V160.4z"/>
</g>
<g transform="matrix(0.984808,-0.173648,0.173648,0.984808,237.196,72.4651)">
	<path class="st1" d="M281.9,160.4h2.3v-2.8h39v2.8h2.3v9.9h-2.3V184h2.3v9.9h-2.3v2.8h-39v-2.8h-2.3V184h2.3v-13.6h-2.3V160.4z"/>
</g>
<g transform="matrix(0.984808,-0.173648,0.173648,0.984808,514.773,96.6515)">
	<path class="st1" d="M281.9,160.4h2.3v-2.8h39v2.8h2.3v9.9h-2.3V184h2.3v9.9h-2.3v2.8h-39v-2.8h-2.3V184h2.3v-13.6h-2.3V160.4z"/>
</g>
<g transform="matrix(0.984808,-0.173648,0.173648,0.984808,461.863,105.981)">
	<path class="st1" d="M281.9,160.4h2.3v-2.8h39v2.8h2.3v9.9h-2.3V184h2.3v9.9h-2.3v2.8h-39v-2.8h-2.3V184h2.3v-13.6h-2.3V160.4z"/>
</g>
<g transform="matrix(0.984808,-0.173648,0.173648,0.984808,405.69,97.5693)">
	<path class="st1" d="M281.9,160.4h2.3v-2.8h39v2.8h2.3v9.9h-2.3V184h2.3v9.9h-2.3v2.8h-39v-2.8h-2.3V184h2.3v-13.6h-2.3V160.4z"/>
</g>
<g transform="matrix(0.984808,-0.173648,0.173648,0.984808,349.549,89.3347)">
	<path class="st1" d="M281.9,160.4h2.3v-2.8h39v2.8h2.3v9.9h-2.3V184h2.3v9.9h-2.3v2.8h-39v-2.8h-2.3V184h2.3v-13.6h-2.3V160.4z"/>
</g>
<g transform="matrix(0.984808,-0.173648,0.173648,0.984808,299.61,116.274)">
	<path class="st1" d="M281.9,160.4h2.3v-2.8h39v2.8h2.3v9.9h-2.3V184h2.3v9.9h-2.3v2.8h-39v-2.8h-2.3V184h2.3v-13.6h-2.3V160.4z"/>
</g>
<g transform="matrix(0.984808,-0.173648,0.173648,0.984808,246.57,125.626)">
	<path class="st1" d="M281.9,160.4h2.3v-2.8h39v2.8h2.3v9.9h-2.3V184h2.3v9.9h-2.3v2.8h-39v-2.8h-2.3V184h2.3v-13.6h-2.3V160.4z"/>
</g>
<g transform="matrix(0.984808,-0.173648,0.173648,0.984808,524.146,149.812)">
	<path class="st1" d="M281.9,160.4h2.3v-2.8h39v2.8h2.3v9.9h-2.3V184h2.3v9.9h-2.3v2.8h-39v-2.8h-2.3V184h2.3v-13.6h-2.3V160.4z"/>
</g>
<g transform="matrix(0.984808,-0.173648,0.173648,0.984808,418.131,168.505)">
	<path class="st1" d="M281.9,160.4h2.3v-2.8h39v2.8h2.3v9.9h-2.3V184h2.3v9.9h-2.3v2.8h-39v-2.8h-2.3V184h2.3v-13.6h-2.3V160.4z"/>
</g>
<g transform="matrix(0.984808,-0.173648,0.173648,0.984808,471.236,159.141)">
	<path class="st1" d="M281.9,160.4h2.3v-2.8h39v2.8h2.3v9.9h-2.3V184h2.3v9.9h-2.3v2.8h-39v-2.8h-2.3V184h2.3v-13.6h-2.3V160.4z"/>
</g>
<g transform="matrix(0.984808,-0.173648,0.173648,0.984808,365.221,177.835)">
	<path class="st1" d="M281.9,160.4h2.3v-2.8h39v2.8h2.3v9.9h-2.3V184h2.3v9.9h-2.3v2.8h-39v-2.8h-2.3V184h2.3v-13.6h-2.3V160.4z"/>
</g>
<g transform="matrix(0.608761,0.793353,-0.793353,0.608761,341.948,-10.8301)">
	<path class="st1" d="M281.9,160.4h2.3v-2.8h39v2.8h2.3v9.9h-2.3V184h2.3v9.9h-2.3v2.8h-39v-2.8h-2.3V184h2.3v-13.6h-2.3V160.4z"/>
</g>
<g transform="matrix(-0.984808,-0.173648,-0.173648,0.984808,460.187,-9.6711)">
	<path class="st1" d="M281.9,160.4h2.3v-2.8h39v2.8h2.3v9.9h-2.3V184h2.3v9.9h-2.3v2.8h-39v-2.8h-2.3V184h2.3v-13.6h-2.3V160.4z"/>
</g>
<g transform="matrix(-0.984808,-0.173648,-0.173648,0.984808,513.097,-0.341601)">
	<path class="st1" d="M281.9,160.4h2.3v-2.8h39v2.8h2.3v9.9h-2.3V184h2.3v9.9h-2.3v2.8h-39v-2.8h-2.3V184h2.3v-13.6h-2.3V160.4z"/>
</g>
<g transform="matrix(-0.984808,-0.173648,-0.173648,0.984808,569.27,-8.75334)">
	<path class="st1" d="M281.9,160.4h2.3v-2.8h39v2.8h2.3v9.9h-2.3V184h2.3v9.9h-2.3v2.8h-39v-2.8h-2.3V184h2.3v-13.6h-2.3V160.4z"/>
</g>
<g transform="matrix(-0.984808,-0.173648,-0.173648,0.984808,625.411,-16.9879)">
	<path class="st1" d="M281.9,160.4h2.3v-2.8h39v2.8h2.3v9.9h-2.3V184h2.3v9.9h-2.3v2.8h-39v-2.8h-2.3V184h2.3v-13.6h-2.3V160.4z"/>
</g>
<g transform="matrix(-0.984808,-0.173648,-0.173648,0.984808,675.35,9.95144)">
	<path class="st1" d="M281.9,160.4h2.3v-2.8h39v2.8h2.3v9.9h-2.3V184h2.3v9.9h-2.3v2.8h-39v-2.8h-2.3V184h2.3v-13.6h-2.3V160.4z"/>
</g>
<g transform="matrix(-0.984808,-0.173648,-0.173648,0.984808,728.39,19.3038)">
	<path class="st1" d="M281.9,160.4h2.3v-2.8h39v2.8h2.3v9.9h-2.3V184h2.3v9.9h-2.3v2.8h-39v-2.8h-2.3V184h2.3v-13.6h-2.3V160.4z"/>
</g>
<g transform="matrix(-0.984808,-0.173648,-0.173648,0.984808,450.813,43.4902)">
	<path class="st1" d="M281.9,160.4h2.3v-2.8h39v2.8h2.3v9.9h-2.3V184h2.3v9.9h-2.3v2.8h-39v-2.8h-2.3V184h2.3v-13.6h-2.3V160.4z"/>
</g>
<g transform="matrix(-0.984808,-0.173648,-0.173648,0.984808,503.724,52.8197)">
	<path class="st1" d="M281.9,160.4h2.3v-2.8h39v2.8h2.3v9.9h-2.3V184h2.3v9.9h-2.3v2.8h-39v-2.8h-2.3V184h2.3v-13.6h-2.3V160.4z"/>
</g>
<g transform="matrix(-0.984808,-0.173648,-0.173648,0.984808,559.896,44.408)">
	<path class="st1" d="M281.9,160.4h2.3v-2.8h39v2.8h2.3v9.9h-2.3V184h2.3v9.9h-2.3v2.8h-39v-2.8h-2.3V184h2.3v-13.6h-2.3V160.4z"/>
</g>
<g transform="matrix(-0.984808,-0.173648,-0.173648,0.984808,616.037,36.1734)">
	<path class="st1" d="M281.9,160.4h2.3v-2.8h39v2.8h2.3v9.9h-2.3V184h2.3v9.9h-2.3v2.8h-39v-2.8h-2.3V184h2.3v-13.6h-2.3V160.4z"/>
</g>
<g transform="matrix(-0.984808,-0.173648,-0.173648,0.984808,665.976,63.1127)">
	<path class="st1" d="M281.9,160.4h2.3v-2.8h39v2.8h2.3v9.9h-2.3V184h2.3v9.9h-2.3v2.8h-39v-2.8h-2.3V184h2.3v-13.6h-2.3V160.4z"/>
</g>
<g transform="matrix(-0.984808,-0.173648,-0.173648,0.984808,719.016,72.4651)">
	<path class="st1" d="M281.9,160.4h2.3v-2.8h39v2.8h2.3v9.9h-2.3V184h2.3v9.9h-2.3v2.8h-39v-2.8h-2.3V184h2.3v-13.6h-2.3V160.4z"/>
</g>
<g transform="matrix(-0.984808,-0.173648,-0.173648,0.984808,441.44,96.6515)">
	<path class="st1" d="M281.9,160.4h2.3v-2.8h39v2.8h2.3v9.9h-2.3V184h2.3v9.9h-2.3v2.8h-39v-2.8h-2.3V184h2.3v-13.6h-2.3V160.4z"/>
</g>
<g transform="matrix(-0.984808,-0.173648,-0.173648,0.984808,494.35,105.981)">
	<path class="st1" d="M281.9,160.4h2.3v-2.8h39v2.8h2.3v9.9h-2.3V184h2.3v9.9h-2.3v2.8h-39v-2.8h-2.3V184h2.3v-13.6h-2.3V160.4z"/>
</g>
<g transform="matrix(-0.984808,-0.173648,-0.173648,0.984808,550.522,97.5693)">
	<path class="st1" d="M281.9,160.4h2.3v-2.8h39v2.8h2.3v9.9h-2.3V184h2.3v9.9h-2.3v2.8h-39v-2.8h-2.3V184h2.3v-13.6h-2.3V160.4z"/>
</g>
<g transform="matrix(-0.984808,-0.173648,-0.173648,0.984808,606.663,89.3347)">
	<path class="st1" d="M281.9,160.4h2.3v-2.8h39v2.8h2.3v9.9h-2.3V184h2.3v9.9h-2.3v2.8h-39v-2.8h-2.3V184h2.3v-13.6h-2.3V160.4z"/>
</g>
<g transform="matrix(-0.984808,-0.173648,-0.173648,0.984808,656.602,116.274)">
	<path class="st1" d="M281.9,160.4h2.3v-2.8h39v2.8h2.3v9.9h-2.3V184h2.3v9.9h-2.3v2.8h-39v-2.8h-2.3V184h2.3v-13.6h-2.3V160.4z"/>
</g>
<g transform="matrix(-0.984808,-0.173648,-0.173648,0.984808,709.642,125.626)">
	<path class="st1" d="M281.9,160.4h2.3v-2.8h39v2.8h2.3v9.9h-2.3V184h2.3v9.9h-2.3v2.8h-39v-2.8h-2.3V184h2.3v-13.6h-2.3V160.4z"/>
</g>
<g transform="matrix(-0.984808,-0.173648,-0.173648,0.984808,432.066,149.812)">
	<path class="st1" d="M281.9,160.4h2.3v-2.8h39v2.8h2.3v9.9h-2.3V184h2.3v9.9h-2.3v2.8h-39v-2.8h-2.3V184h2.3v-13.6h-2.3V160.4z"/>
</g>
<g transform="matrix(-0.984808,-0.173648,-0.173648,0.984808,538.081,168.505)">
	<path class="st1" d="M281.9,160.4h2.3v-2.8h39v2.8h2.3v9.9h-2.3V184h2.3v9.9h-2.3v2.8h-39v-2.8h-2.3V184h2.3v-13.6h-2.3V160.4z"/>
</g>
<g transform="matrix(-0.984808,-0.173648,-0.173648,0.984808,484.976,159.141)">
	<path class="st1" d="M281.9,160.4h2.3v-2.8h39v2.8h2.3v9.9h-2.3V184h2.3v9.9h-2.3v2.8h-39v-2.8h-2.3V184h2.3v-13.6h-2.3V160.4z"/>
</g>
<g transform="matrix(-0.984808,-0.173648,-0.173648,0.984808,590.992,177.835)">
	<path class="st1" d="M281.9,160.4h2.3v-2.8h39v2.8h2.3v9.9h-2.3V184h2.3v9.9h-2.3v2.8h-39v-2.8h-2.3V184h2.3v-13.6h-2.3V160.4z"/>
</g>
<g transform="matrix(0.939693,0.34202,-0.34202,0.939693,107.653,28.1403)">
	<path class="st1" d="M281.9,160.4h2.3v-2.8h39v2.8h2.3v9.9h-2.3V184h2.3v9.9h-2.3v2.8h-39v-2.8h-2.3V184h2.3v-13.6h-2.3V160.4z"/>
</g>
<g transform="matrix(1,0,0,1,174.379,-30.9366)">
	<path class="st1" d="M281.9,160.4h2.3v-2.8h39v2.8h2.3v9.9h-2.3V184h2.3v9.9h-2.3v2.8h-39v-2.8h-2.3V184h2.3v-13.6h-2.3V160.4z"/>
</g>
<g transform="matrix(1,0,0,1,35.9055,44.3755)">
	<circle class="st0" cx="829.1" cy="344.4" r="4.3"/>
</g>
<g transform="matrix(-1,0,0,1,1518.43,44.3755)">
	<circle class="st0" cx="829.1" cy="344.4" r="4.3"/>
</g>
<g transform="matrix(-1,0,0,1,1460.31,-273.122)">
	<circle class="st0" cx="829.1" cy="344.4" r="4.3"/>
</g>
<g transform="matrix(1,0,0,1,67.0866,-249.01)">
	<circle class="st0" cx="829.1" cy="344.4" r="4.3"/>
</g>
<g transform="matrix(1,0,0,1,-769.134,-249.01)">
	<circle class="st0" cx="829.1" cy="344.4" r="4.3"/>
</g>
<g transform="matrix(1,0,0,1,-769.134,-46.3331)">
	<circle class="st0" cx="829.1" cy="344.4" r="4.3"/>
</g>
<g transform="matrix(1,0,0,1,67.0866,-46.3331)">
	<circle class="st0" cx="829.1" cy="344.4" r="4.3"/>
</g>
<g transform="matrix(1,0,0,1,-737.953,44.4094)">
	<circle class="st0" cx="829.1" cy="344.4" r="4.3"/>
</g>
<g transform="matrix(-1,0,0,1,1096.06,44.4094)">
	<circle class="st0" cx="829.1" cy="344.4" r="4.3"/>
</g>
<g transform="matrix(-1,0,0,1,1154.17,-273.088)">
	<circle class="st0" cx="829.1" cy="344.4" r="4.3"/>
</g>
<g transform="matrix(1,0,0,1,47.2441,47.2441)">
	<path class="st2" d="M639.5,42.2l53-9.4l3.1,17.8l50.1-8.8l55.8-9.8l38,215.3l-55.8,9.8l-52.9,9.3l-50.2,8.8l-55.8,9.8l-9.8-55.8
		l55.8-9.8l50.2-8.8l-2.7-15.1l-53,9.4l-3.1-17.6l-50.2,8.9l3.1,17.6l-20.7,3.7l18.5,50.8L561.3,287l-33.4,43.5l-45-34.5l34.5-45
		l40,30.7l-17.2-47.3l39.2-14.3l-20.1,3.5l-53,9.4l-9.8-55.8l-8.9-50.5l-9.8-55.8l55.8-9.8l50.2-8.9l-3.1-17.6l55.8-9.8L639.5,42.2z
		"/>
</g>
<g id="Reset" transform="matrix(1.0514,0,0,1.23413,108.017,-72.3197)">
	<rect x="325" y="154.1" class="st2" width="53.9" height="45.9"/>
</g>
<g transform="matrix(1,0,0,1,47.2441,47.2441)">
	<path class="st2" d="M41.3,138.3l9.4-53.2L60.1,32l106,18.7l3.1-17.8l53,9.4l3.1-17.6l55.8,9.8L278,52.1l106.1,18.7l-9.8,55.8
		l-8.9,50.5l-9.8,55.8l-55.8-9.8l-17.3-3l39.2,14.3l-17.2,47.3l39.9-30.7l34.5,45l-45,34.5L300.4,287l-51.5-18.7l18.5-50.8
		l-20.7-3.7l3.1-17.6l-50.2-8.9l-3.1,17.6l-53-9.4l-2.7,15.1l106,18.7l-9.8,55.8l-55.8-9.8l-52.9-9.3L75,256.6l-52.9-9.3l9.4-53.2
		L41.3,138.3z"/>
</g>
</svg>
