<?xml version="1.0" encoding="UTF-8" standalone="no"?>
<!DOCTYPE svg PUBLIC "-//W3C//DTD SVG 1.1//EN" "http://www.w3.org/Graphics/SVG/1.1/DTD/svg11.dtd">
<svg width="2138px" height="2138px" version="1.1" xmlns="http://www.w3.org/2000/svg" xmlns:xlink="http://www.w3.org/1999/xlink" xml:space="preserve" xmlns:serif="http://www.serif.com/" style="fill-rule:evenodd;clip-rule:evenodd;stroke-linecap:round;stroke-linejoin:round;stroke-miterlimit:1.5;">
    <g id="Inside-shape" serif:id="Inside shape" transform="matrix(1,0,0,1,21.7323,16.063)">
        <path d="M381.26,320.315l-248.032,0l0,-48.189l-107.716,-18.709l0,-219.954c0,0 0,-0.001 0,-0.002c0,-1.259 1.021,-2.28 2.28,-2.28l220.806,0l153.922,30.933l56.693,0l154.048,-30.933l220.125,0c1.565,0 2.834,1.269 2.834,2.835c0,25.825 0,219.401 0,219.401l-107.716,18.709l0,48.189l-248.032,0l0,-33.235c17.309,-14.303 28.347,-35.93 28.347,-60.116c-0.001,-43.023 -34.929,-77.952 -77.953,-77.953c-43.023,0 -77.953,34.93 -77.953,77.953c0,24.185 11.038,45.813 28.347,60.116l0,33.235" style="fill:none;stroke:#00f;stroke-width:0.28px;"/>
    </g>
</svg>
