<?xml version="1.0" encoding="UTF-8" standalone="no"?>
<!DOCTYPE svg PUBLIC "-//W3C//DTD SVG 1.1//EN" "http://www.w3.org/Graphics/SVG/1.1/DTD/svg11.dtd">
<svg width="1117px" height="1117px" version="1.1" xmlns="http://www.w3.org/2000/svg" xmlns:xlink="http://www.w3.org/1999/xlink" xml:space="preserve" xmlns:serif="http://www.serif.com/" style="fill-rule:evenodd;clip-rule:evenodd;stroke-linecap:round;stroke-linejoin:round;stroke-miterlimit:1.5;">
    <g id="_3mm-Second-layer-battery-holder" serif:id="3mm Second layer battery holder">
        <g id="Screw-holes" serif:id="Screw holes">
            <circle cx="831.968" cy="1064.44" r="4.252" style="fill:none;stroke:#00f;stroke-width:0.03px;"/>
            <circle cx="656.22" cy="1064.44" r="4.252" style="fill:none;stroke:#00f;stroke-width:0.03px;"/>
            <circle cx="598.11" cy="746.946" r="4.252" style="fill:none;stroke:#00f;stroke-width:0.03px;"/>
            <circle cx="863.15" cy="771.057" r="4.252" style="fill:none;stroke:#00f;stroke-width:0.03px;"/>
            <circle cx="26.929" cy="771.057" r="4.252" style="fill:none;stroke:#00f;stroke-width:0.03px;"/>
            <circle cx="26.929" cy="973.734" r="4.252" style="fill:none;stroke:#00f;stroke-width:0.03px;"/>
            <circle cx="863.15" cy="973.734" r="4.252" style="fill:none;stroke:#00f;stroke-width:0.03px;"/>
            <circle cx="58.11" cy="1064.48" r="4.252" style="fill:none;stroke:#00f;stroke-width:0.03px;"/>
            <circle cx="233.858" cy="1064.48" r="4.252" style="fill:none;stroke:#00f;stroke-width:0.03px;"/>
            <circle cx="291.968" cy="746.98" r="4.252" style="fill:none;stroke:#00f;stroke-width:0.03px;"/>
        </g>
        <path id="Outside-shape" serif:id="Outside shape" d="M19.276,722.834c-2.818,0 -5.103,2.285 -5.103,5.103c0,40.097 0,304.028 0,344.126c0,2.818 2.285,5.102 5.103,5.102c30.784,0 191.452,0 222.236,0c2.818,0 5.102,-2.284 5.102,-5.102c0,-1.291 0,-2.678 0,-3.969c0,-1.353 0.538,-2.651 1.495,-3.608c0.956,-0.957 2.254,-1.494 3.608,-1.494c42.955,0 343.69,0 386.645,0c1.353,0 2.651,0.537 3.608,1.494c0.957,0.957 1.495,2.255 1.495,3.608c0,1.291 0,2.678 0,3.969c0,2.818 2.284,5.102 5.102,5.102c30.784,0 191.452,0 222.236,0c2.818,0 5.102,-2.284 5.102,-5.102c0,-40.098 0,-304.029 0,-344.126c0,-2.818 -2.284,-5.103 -5.102,-5.103" style="fill:none;stroke:#00f;stroke-width:0.03px;"/>
        <path id="Outside-shape1" serif:id="Outside shape" d="M795.968,722.834c-2.817,0 -5.102,2.285 -5.102,5.103c0,0.376 0,0.757 0,1.134c0,1.353 -0.537,2.651 -1.494,3.607c-0.957,0.957 -2.255,1.495 -3.608,1.495c-59.575,0 -621.874,0 -681.449,0c-1.353,0 -2.651,-0.538 -3.608,-1.495c-0.957,-0.956 -1.494,-2.254 -1.494,-3.607c0,-0.377 0,-0.758 0,-1.134c0,-2.818 -2.285,-5.103 -5.103,-5.103" style="fill:none;stroke:#00f;stroke-width:0.03px;"/>
        <rect x="567.284" y="855.976" width="104.882" height="184.252" style="fill:none;stroke:#00f;stroke-width:0.03px;stroke-miterlimit:1;"/>
        <g id="Piece-number" serif:id="Piece number">
            <path d="M682.076,728.299l0,-2.62l1.86,0c0.54,0 0.935,0.111 1.185,0.335c0.25,0.223 0.375,0.548 0.375,0.975c0,0.426 -0.125,0.753 -0.375,0.98c-0.25,0.226 -0.645,0.336 -1.185,0.33l-1.86,0Zm-0.95,-3.42l0,7.14l0.95,0l0,-2.92l2.18,0c0.72,0.006 1.265,-0.177 1.635,-0.55c0.37,-0.374 0.555,-0.894 0.555,-1.56c0,-0.667 -0.185,-1.185 -0.555,-1.555c-0.37,-0.37 -0.915,-0.555 -1.635,-0.555l-3.13,0Z" style="fill:none;stroke:#f00;stroke-width:0.03px;stroke-linecap:butt;stroke-miterlimit:1.41421;"/>
            <path d="M688.366,725.919l0,-1.04l-0.85,0l0,1.04l0.85,0Zm-0.85,0.93l0,5.17l0.85,0l0,-5.17l-0.85,0Z" style="fill:none;stroke:#f00;stroke-width:0.03px;stroke-linecap:butt;stroke-miterlimit:1.41421;"/>
            <path d="M693.276,728.939l-2.97,0c0.013,-0.2 0.057,-0.389 0.13,-0.565c0.073,-0.177 0.173,-0.332 0.3,-0.465c0.127,-0.134 0.278,-0.239 0.455,-0.315c0.177,-0.077 0.375,-0.115 0.595,-0.115c0.213,0 0.408,0.038 0.585,0.115c0.177,0.076 0.33,0.18 0.46,0.31c0.13,0.13 0.233,0.285 0.31,0.465c0.077,0.18 0.122,0.37 0.135,0.57Zm0.82,1.44l-0.84,0c-0.073,0.34 -0.225,0.593 -0.455,0.76c-0.23,0.166 -0.525,0.25 -0.885,0.25c-0.28,0 -0.523,-0.047 -0.73,-0.14c-0.207,-0.094 -0.377,-0.219 -0.51,-0.375c-0.133,-0.157 -0.23,-0.337 -0.29,-0.54c-0.06,-0.204 -0.087,-0.419 -0.08,-0.645l3.87,0c0.013,-0.314 -0.015,-0.644 -0.085,-0.99c-0.07,-0.347 -0.197,-0.667 -0.38,-0.96c-0.183,-0.294 -0.427,-0.535 -0.73,-0.725c-0.303,-0.19 -0.685,-0.285 -1.145,-0.285c-0.353,0 -0.678,0.066 -0.975,0.2c-0.297,0.133 -0.553,0.32 -0.77,0.56c-0.217,0.24 -0.385,0.523 -0.505,0.85c-0.12,0.326 -0.18,0.686 -0.18,1.08c0.013,0.393 0.072,0.756 0.175,1.09c0.103,0.333 0.258,0.62 0.465,0.86c0.207,0.24 0.462,0.426 0.765,0.56c0.303,0.133 0.662,0.2 1.075,0.2c0.587,0 1.073,-0.147 1.46,-0.44c0.387,-0.294 0.637,-0.73 0.75,-1.31Z" style="fill:none;stroke:#f00;stroke-width:0.03px;stroke-linecap:butt;stroke-miterlimit:1.41421;"/>
            <path d="M698.566,728.509l0.88,0c-0.033,-0.307 -0.113,-0.572 -0.24,-0.795c-0.127,-0.224 -0.288,-0.409 -0.485,-0.555c-0.197,-0.147 -0.423,-0.255 -0.68,-0.325c-0.257,-0.07 -0.532,-0.105 -0.825,-0.105c-0.407,0 -0.763,0.071 -1.07,0.215c-0.307,0.143 -0.562,0.34 -0.765,0.59c-0.203,0.25 -0.355,0.543 -0.455,0.88c-0.1,0.336 -0.15,0.698 -0.15,1.085c0,0.386 0.052,0.741 0.155,1.065c0.103,0.323 0.257,0.601 0.46,0.835c0.203,0.233 0.457,0.413 0.76,0.54c0.303,0.126 0.652,0.19 1.045,0.19c0.66,0 1.182,-0.174 1.565,-0.52c0.383,-0.347 0.622,-0.84 0.715,-1.48l-0.87,0c-0.053,0.4 -0.198,0.71 -0.435,0.93c-0.237,0.22 -0.565,0.33 -0.985,0.33c-0.267,0 -0.497,-0.054 -0.69,-0.16c-0.193,-0.107 -0.35,-0.249 -0.47,-0.425c-0.12,-0.177 -0.208,-0.379 -0.265,-0.605c-0.057,-0.227 -0.085,-0.46 -0.085,-0.7c0,-0.26 0.027,-0.512 0.08,-0.755c0.053,-0.244 0.142,-0.459 0.265,-0.645c0.123,-0.187 0.288,-0.337 0.495,-0.45c0.207,-0.114 0.463,-0.17 0.77,-0.17c0.36,0 0.647,0.09 0.86,0.27c0.213,0.18 0.353,0.433 0.42,0.76Z" style="fill:none;stroke:#f00;stroke-width:0.03px;stroke-linecap:butt;stroke-miterlimit:1.41421;"/>
            <path d="M704.016,728.939l-2.97,0c0.013,-0.2 0.057,-0.389 0.13,-0.565c0.073,-0.177 0.173,-0.332 0.3,-0.465c0.127,-0.134 0.278,-0.239 0.455,-0.315c0.177,-0.077 0.375,-0.115 0.595,-0.115c0.213,0 0.408,0.038 0.585,0.115c0.177,0.076 0.33,0.18 0.46,0.31c0.13,0.13 0.233,0.285 0.31,0.465c0.077,0.18 0.122,0.37 0.135,0.57Zm0.82,1.44l-0.84,0c-0.073,0.34 -0.225,0.593 -0.455,0.76c-0.23,0.166 -0.525,0.25 -0.885,0.25c-0.28,0 -0.523,-0.047 -0.73,-0.14c-0.207,-0.094 -0.377,-0.219 -0.51,-0.375c-0.133,-0.157 -0.23,-0.337 -0.29,-0.54c-0.06,-0.204 -0.087,-0.419 -0.08,-0.645l3.87,0c0.013,-0.314 -0.015,-0.644 -0.085,-0.99c-0.07,-0.347 -0.197,-0.667 -0.38,-0.96c-0.183,-0.294 -0.427,-0.535 -0.73,-0.725c-0.303,-0.19 -0.685,-0.285 -1.145,-0.285c-0.353,0 -0.678,0.066 -0.975,0.2c-0.297,0.133 -0.553,0.32 -0.77,0.56c-0.217,0.24 -0.385,0.523 -0.505,0.85c-0.12,0.326 -0.18,0.686 -0.18,1.08c0.013,0.393 0.072,0.756 0.175,1.09c0.103,0.333 0.258,0.62 0.465,0.86c0.207,0.24 0.462,0.426 0.765,0.56c0.303,0.133 0.662,0.2 1.075,0.2c0.587,0 1.073,-0.147 1.46,-0.44c0.387,-0.294 0.637,-0.73 0.75,-1.31Z" style="fill:none;stroke:#f00;stroke-width:0.03px;stroke-linecap:butt;stroke-miterlimit:1.41421;"/>
            <path d="M712.636,725.799l0,-0.75l-3.5,0l-0.66,3.68l0.73,0.04c0.167,-0.2 0.358,-0.362 0.575,-0.485c0.217,-0.124 0.465,-0.185 0.745,-0.185c0.24,0 0.458,0.04 0.655,0.12c0.197,0.08 0.365,0.191 0.505,0.335c0.14,0.143 0.248,0.313 0.325,0.51c0.077,0.196 0.115,0.411 0.115,0.645c0,0.28 -0.04,0.525 -0.12,0.735c-0.08,0.21 -0.188,0.385 -0.325,0.525c-0.137,0.14 -0.297,0.245 -0.48,0.315c-0.183,0.07 -0.375,0.105 -0.575,0.105c-0.213,0 -0.408,-0.032 -0.585,-0.095c-0.177,-0.064 -0.33,-0.154 -0.46,-0.27c-0.13,-0.117 -0.233,-0.254 -0.31,-0.41c-0.077,-0.157 -0.122,-0.325 -0.135,-0.505l-0.85,0c0.007,0.32 0.07,0.606 0.19,0.86c0.12,0.253 0.283,0.465 0.49,0.635c0.207,0.17 0.445,0.3 0.715,0.39c0.27,0.09 0.558,0.135 0.865,0.135c0.413,0 0.775,-0.065 1.085,-0.195c0.31,-0.13 0.568,-0.305 0.775,-0.525c0.207,-0.22 0.362,-0.472 0.465,-0.755c0.103,-0.284 0.155,-0.575 0.155,-0.875c0,-0.407 -0.06,-0.762 -0.18,-1.065c-0.12,-0.304 -0.283,-0.557 -0.49,-0.76c-0.207,-0.204 -0.45,-0.355 -0.73,-0.455c-0.28,-0.1 -0.577,-0.15 -0.89,-0.15c-0.24,0 -0.482,0.041 -0.725,0.125c-0.243,0.083 -0.442,0.211 -0.595,0.385l-0.02,-0.02l0.38,-2.04l2.86,0Z" style="fill:none;stroke:#f00;stroke-width:0.03px;stroke-linecap:butt;stroke-miterlimit:1.41421;"/>
            <path d="M675.095,731.338l2.385,-3.812l-4.77,0l2.385,3.812Z" style="fill:none;stroke:#f00;stroke-width:0.03px;stroke-miterlimit:1;"/>
        </g>
    </g>
    <g id="_1.5mm-Switch-Holder" serif:id="1.5mm Switch Holder">
        <g id="_0.35mm-key-holes--left-" serif:id="0.35mm key holes (left)">
            <path d="M77.612,59.032l2.275,0.401l0.483,-2.735l2.682,0.473l0.402,-2.276l8.793,1.551l-0.401,2.275l15.016,2.648l0.401,-2.275l8.793,1.55l-0.401,2.275l2.736,0.483l-0.483,2.735l2.276,0.402l-1.551,8.793l-2.275,-0.401l-2.638,14.963l2.275,0.401l-1.551,8.793l-2.275,-0.401l-0.482,2.736l-2.736,-0.482l-0.401,2.275l-8.794,-1.551l0.401,-2.275l-15.015,-2.648l-0.401,2.276l-8.794,-1.551l0.401,-2.275l-2.683,-0.473l0.483,-2.736l-2.275,-0.401l1.55,-8.794l2.275,0.402l2.639,-14.963l-2.276,-0.401l1.551,-8.794Z" style="fill:none;stroke:#00f;stroke-width:0.03px;stroke-linecap:butt;"/>
            <path d="M130.792,68.409l2.275,0.401l0.483,-2.735l2.683,0.473l0.401,-2.275l8.793,1.55l-0.401,2.275l15.016,2.648l0.401,-2.275l8.793,1.55l-0.401,2.275l2.736,0.483l-0.482,2.736l2.275,0.401l-1.551,8.793l-2.275,-0.401l-2.638,14.963l2.275,0.401l-1.551,8.794l-2.275,-0.402l-0.482,2.736l-2.736,-0.482l-0.401,2.275l-8.794,-1.551l0.402,-2.275l-15.016,-2.647l-0.401,2.275l-8.794,-1.551l0.401,-2.275l-2.683,-0.473l0.483,-2.736l-2.275,-0.401l1.55,-8.793l2.275,0.401l2.639,-14.963l-2.275,-0.401l1.55,-8.794Z" style="fill:none;stroke:#00f;stroke-width:0.03px;stroke-linecap:butt;"/>
            <path d="M187.098,60.06l2.275,0.401l0.482,-2.735l2.683,0.473l0.401,-2.275l8.794,1.55l-0.401,2.275l15.015,2.648l0.402,-2.275l8.793,1.55l-0.401,2.275l2.736,0.483l-0.483,2.736l2.275,0.401l-1.55,8.793l-2.275,-0.401l-2.639,14.963l2.275,0.401l-1.55,8.794l-2.275,-0.402l-0.483,2.736l-2.735,-0.482l-0.402,2.275l-8.793,-1.551l0.401,-2.275l-15.016,-2.647l-0.401,2.275l-8.793,-1.551l0.401,-2.275l-2.683,-0.473l0.482,-2.736l-2.275,-0.401l1.551,-8.793l2.275,0.401l2.638,-14.963l-2.275,-0.401l1.551,-8.794Z" style="fill:none;stroke:#00f;stroke-width:0.03px;stroke-linecap:butt;"/>
            <path d="M243.403,51.711l2.276,0.401l0.482,-2.736l2.683,0.473l0.401,-2.275l8.794,1.551l-0.402,2.275l15.016,2.647l0.401,-2.275l8.794,1.551l-0.401,2.275l2.735,0.482l-0.482,2.736l2.275,0.401l-1.55,8.794l-2.276,-0.401l-2.638,14.962l2.275,0.402l-1.55,8.793l-2.276,-0.401l-0.482,2.736l-2.736,-0.483l-0.401,2.275l-8.793,-1.55l0.401,-2.275l-15.016,-2.648l-0.401,2.275l-8.793,-1.55l0.401,-2.275l-2.683,-0.474l0.482,-2.735l-2.275,-0.401l1.551,-8.794l2.275,0.401l2.638,-14.963l-2.275,-0.401l1.55,-8.793Z" style="fill:none;stroke:#00f;stroke-width:0.03px;stroke-linecap:butt;"/>
            <path d="M293.458,78.814l2.275,0.402l0.482,-2.736l2.683,0.473l0.401,-2.275l8.794,1.55l-0.401,2.275l15.015,2.648l0.402,-2.275l8.793,1.55l-0.401,2.276l2.736,0.482l-0.483,2.736l2.275,0.401l-1.55,8.793l-2.275,-0.401l-2.639,14.963l2.276,0.401l-1.551,8.794l-2.275,-0.401l-0.482,2.735l-2.736,-0.482l-0.401,2.275l-8.794,-1.55l0.401,-2.276l-15.015,-2.647l-0.402,2.275l-8.793,-1.551l0.401,-2.275l-2.683,-0.473l0.483,-2.736l-2.276,-0.401l1.551,-8.793l2.275,0.401l2.638,-14.963l-2.275,-0.401l1.551,-8.794Z" style="fill:none;stroke:#00f;stroke-width:0.03px;stroke-linecap:butt;"/>
            <path d="M346.638,88.191l2.275,0.402l0.482,-2.736l2.683,0.473l0.402,-2.275l8.793,1.55l-0.401,2.275l15.016,2.648l0.401,-2.275l8.793,1.551l-0.401,2.275l2.736,0.482l-0.483,2.736l2.276,0.401l-1.551,8.793l-2.275,-0.401l-2.639,14.963l2.276,0.401l-1.551,8.794l-2.275,-0.401l-0.482,2.735l-2.736,-0.482l-0.401,2.275l-8.794,-1.55l0.401,-2.276l-15.015,-2.647l-0.401,2.275l-8.794,-1.551l0.401,-2.275l-2.683,-0.473l0.483,-2.736l-2.276,-0.401l1.551,-8.793l2.275,0.401l2.639,-14.963l-2.276,-0.401l1.551,-8.794Z" style="fill:none;stroke:#00f;stroke-width:0.03px;stroke-linecap:butt;"/>
            <path d="M68.235,112.212l2.275,0.401l0.482,-2.735l2.683,0.473l0.402,-2.275l8.793,1.55l-0.401,2.275l15.016,2.648l0.401,-2.275l8.793,1.55l-0.401,2.275l2.736,0.483l-0.483,2.736l2.276,0.401l-1.551,8.793l-2.275,-0.401l-2.639,14.963l2.276,0.401l-1.551,8.794l-2.275,-0.402l-0.482,2.736l-2.736,-0.482l-0.401,2.275l-8.794,-1.551l0.401,-2.275l-15.015,-2.647l-0.401,2.275l-8.794,-1.551l0.401,-2.275l-2.683,-0.473l0.483,-2.736l-2.276,-0.401l1.551,-8.793l2.275,0.401l2.639,-14.963l-2.276,-0.401l1.551,-8.794Z" style="fill:none;stroke:#00f;stroke-width:0.03px;stroke-linecap:butt;"/>
            <path d="M121.415,121.589l2.275,0.401l0.482,-2.735l2.683,0.473l0.402,-2.275l8.793,1.55l-0.401,2.275l15.016,2.648l0.401,-2.275l8.793,1.55l-0.401,2.275l2.736,0.483l-0.483,2.736l2.276,0.401l-1.551,8.793l-2.275,-0.401l-2.638,14.963l2.275,0.401l-1.551,8.794l-2.275,-0.402l-0.482,2.736l-2.736,-0.482l-0.401,2.275l-8.794,-1.551l0.401,-2.275l-15.015,-2.647l-0.401,2.275l-8.794,-1.551l0.401,-2.275l-2.683,-0.473l0.483,-2.736l-2.275,-0.401l1.55,-8.793l2.275,0.401l2.639,-14.963l-2.276,-0.401l1.551,-8.794Z" style="fill:none;stroke:#00f;stroke-width:0.03px;stroke-linecap:butt;"/>
            <path d="M177.721,113.24l2.275,0.401l0.482,-2.735l2.683,0.473l0.401,-2.275l8.794,1.55l-0.401,2.275l15.015,2.648l0.401,-2.275l8.794,1.55l-0.401,2.275l2.735,0.483l-0.482,2.736l2.275,0.401l-1.55,8.793l-2.275,-0.401l-2.639,14.963l2.275,0.401l-1.55,8.794l-2.275,-0.402l-0.483,2.736l-2.735,-0.482l-0.402,2.275l-8.793,-1.551l0.401,-2.275l-15.016,-2.647l-0.401,2.275l-8.793,-1.551l0.401,-2.275l-2.683,-0.473l0.482,-2.736l-2.275,-0.401l1.551,-8.793l2.275,0.401l2.638,-14.963l-2.275,-0.401l1.551,-8.794Z" style="fill:none;stroke:#00f;stroke-width:0.03px;stroke-linecap:butt;"/>
            <path d="M234.026,104.891l2.275,0.401l0.483,-2.736l2.683,0.473l0.401,-2.275l8.793,1.551l-0.401,2.275l15.016,2.648l0.401,-2.276l8.794,1.551l-0.402,2.275l2.736,0.482l-0.482,2.736l2.275,0.401l-1.551,8.794l-2.275,-0.401l-2.638,14.963l2.275,0.401l-1.55,8.793l-2.276,-0.401l-0.482,2.736l-2.736,-0.483l-0.401,2.276l-8.793,-1.551l0.401,-2.275l-15.016,-2.648l-0.401,2.275l-8.794,-1.55l0.402,-2.275l-2.683,-0.473l0.482,-2.736l-2.275,-0.401l1.55,-8.794l2.276,0.401l2.638,-14.963l-2.275,-0.401l1.55,-8.793Z" style="fill:none;stroke:#00f;stroke-width:0.03px;stroke-linecap:butt;"/>
            <path d="M284.081,131.994l2.275,0.402l0.482,-2.736l2.683,0.473l0.401,-2.275l8.794,1.55l-0.401,2.275l15.015,2.648l0.402,-2.275l8.793,1.551l-0.401,2.275l2.736,0.482l-0.483,2.736l2.275,0.401l-1.55,8.793l-2.275,-0.401l-2.639,14.963l2.275,0.401l-1.55,8.794l-2.275,-0.401l-0.483,2.735l-2.735,-0.482l-0.401,2.275l-8.794,-1.55l0.401,-2.276l-15.015,-2.647l-0.402,2.275l-8.793,-1.551l0.401,-2.275l-2.683,-0.473l0.482,-2.736l-2.275,-0.401l1.551,-8.793l2.275,0.401l2.638,-14.963l-2.275,-0.401l1.551,-8.794Z" style="fill:none;stroke:#00f;stroke-width:0.03px;stroke-linecap:butt;"/>
            <path d="M337.261,141.372l2.275,0.401l0.482,-2.736l2.683,0.473l0.401,-2.275l8.794,1.55l-0.401,2.276l15.015,2.647l0.402,-2.275l8.793,1.551l-0.401,2.275l2.736,0.482l-0.483,2.736l2.275,0.401l-1.55,8.794l-2.275,-0.402l-2.639,14.963l2.276,0.401l-1.551,8.794l-2.275,-0.401l-0.483,2.735l-2.735,-0.482l-0.401,2.275l-8.794,-1.55l0.401,-2.275l-15.015,-2.648l-0.402,2.275l-8.793,-1.551l0.401,-2.275l-2.683,-0.473l0.483,-2.735l-2.276,-0.402l1.551,-8.793l2.275,0.401l2.638,-14.963l-2.275,-0.401l1.551,-8.793Z" style="fill:none;stroke:#00f;stroke-width:0.03px;stroke-linecap:butt;"/>
            <path d="M58.858,165.392l2.275,0.401l0.482,-2.736l2.683,0.473l0.402,-2.275l8.793,1.551l-0.401,2.275l15.016,2.647l0.401,-2.275l8.793,1.551l-0.401,2.275l2.736,0.482l-0.483,2.736l2.276,0.401l-1.551,8.794l-2.275,-0.401l-2.639,14.963l2.276,0.401l-1.551,8.793l-2.275,-0.401l-0.482,2.736l-2.736,-0.483l-0.401,2.275l-8.794,-1.55l0.401,-2.275l-15.015,-2.648l-0.401,2.275l-8.794,-1.55l0.401,-2.275l-2.683,-0.473l0.483,-2.736l-2.276,-0.401l1.551,-8.794l2.275,0.401l2.639,-14.963l-2.276,-0.401l1.551,-8.793Z" style="fill:none;stroke:#00f;stroke-width:0.03px;stroke-linecap:butt;"/>
            <path d="M112.038,174.769l2.275,0.401l0.482,-2.736l2.683,0.473l0.402,-2.275l8.793,1.551l-0.401,2.275l15.016,2.648l0.401,-2.276l8.793,1.551l-0.401,2.275l2.736,0.482l-0.483,2.736l2.276,0.401l-1.551,8.794l-2.275,-0.401l-2.638,14.963l2.275,0.401l-1.551,8.793l-2.275,-0.401l-0.482,2.736l-2.736,-0.483l-0.401,2.276l-8.794,-1.551l0.401,-2.275l-15.015,-2.648l-0.401,2.275l-8.794,-1.55l0.401,-2.275l-2.683,-0.473l0.483,-2.736l-2.275,-0.401l1.55,-8.794l2.275,0.401l2.639,-14.962l-2.276,-0.402l1.551,-8.793Z" style="fill:none;stroke:#00f;stroke-width:0.03px;stroke-linecap:butt;"/>
            <path d="M168.344,166.42l2.275,0.401l0.482,-2.736l2.683,0.473l0.401,-2.275l8.794,1.551l-0.401,2.275l15.015,2.648l0.401,-2.276l8.794,1.551l-0.401,2.275l2.735,0.483l-0.482,2.735l2.275,0.401l-1.55,8.794l-2.275,-0.401l-2.639,14.963l2.275,0.401l-1.55,8.793l-2.275,-0.401l-0.483,2.736l-2.735,-0.483l-0.402,2.276l-8.793,-1.551l0.401,-2.275l-15.016,-2.648l-0.401,2.275l-8.793,-1.55l0.401,-2.275l-2.683,-0.473l0.482,-2.736l-2.275,-0.401l1.551,-8.794l2.275,0.401l2.638,-14.962l-2.275,-0.402l1.551,-8.793Z" style="fill:none;stroke:#00f;stroke-width:0.03px;stroke-linecap:butt;"/>
            <path d="M224.649,158.07l2.275,0.402l0.483,-2.736l2.683,0.473l0.401,-2.275l8.793,1.55l-0.401,2.275l15.016,2.648l0.401,-2.275l8.794,1.551l-0.402,2.275l2.736,0.482l-0.482,2.736l2.275,0.401l-1.551,8.793l-2.275,-0.401l-2.638,14.963l2.275,0.401l-1.55,8.794l-2.276,-0.401l-0.482,2.735l-2.736,-0.482l-0.401,2.275l-8.793,-1.55l0.401,-2.276l-15.016,-2.647l-0.401,2.275l-8.794,-1.551l0.402,-2.275l-2.683,-0.473l0.482,-2.736l-2.275,-0.401l1.55,-8.793l2.276,0.401l2.638,-14.963l-2.275,-0.401l1.55,-8.794Z" style="fill:none;stroke:#00f;stroke-width:0.03px;stroke-linecap:butt;"/>
            <path d="M274.704,185.174l2.275,0.401l0.482,-2.736l2.683,0.474l0.401,-2.276l8.794,1.551l-0.401,2.275l15.015,2.648l0.402,-2.275l8.793,1.55l-0.401,2.275l2.736,0.483l-0.483,2.735l2.275,0.402l-1.55,8.793l-2.275,-0.401l-2.639,14.963l2.275,0.401l-1.55,8.793l-2.275,-0.401l-0.483,2.736l-2.735,-0.482l-0.401,2.275l-8.794,-1.551l0.401,-2.275l-15.015,-2.648l-0.402,2.276l-8.793,-1.551l0.401,-2.275l-2.683,-0.473l0.482,-2.736l-2.275,-0.401l1.551,-8.794l2.275,0.402l2.638,-14.963l-2.275,-0.401l1.551,-8.794Z" style="fill:none;stroke:#00f;stroke-width:0.03px;stroke-linecap:butt;"/>
            <path d="M327.884,194.551l2.275,0.401l0.482,-2.735l2.683,0.473l0.401,-2.276l8.794,1.551l-0.401,2.275l15.015,2.648l0.402,-2.275l8.793,1.55l-0.401,2.275l2.736,0.483l-0.483,2.735l2.275,0.402l-1.55,8.793l-2.275,-0.401l-2.639,14.963l2.276,0.401l-1.551,8.793l-2.275,-0.401l-0.483,2.736l-2.735,-0.482l-0.401,2.275l-8.794,-1.551l0.401,-2.275l-15.015,-2.648l-0.402,2.276l-8.793,-1.551l0.401,-2.275l-2.683,-0.473l0.483,-2.736l-2.276,-0.401l1.551,-8.794l2.275,0.402l2.638,-14.963l-2.275,-0.401l1.551,-8.794Z" style="fill:none;stroke:#00f;stroke-width:0.03px;stroke-linecap:butt;"/>
            <path d="M49.481,218.571l2.275,0.402l0.482,-2.736l2.683,0.473l0.402,-2.275l8.793,1.55l-0.401,2.275l15.016,2.648l0.401,-2.275l8.793,1.551l-0.401,2.275l2.736,0.482l-0.483,2.736l2.276,0.401l-1.551,8.793l-2.275,-0.401l-2.639,14.963l2.276,0.401l-1.551,8.794l-2.275,-0.401l-0.482,2.735l-2.736,-0.482l-0.401,2.275l-8.794,-1.55l0.401,-2.276l-15.015,-2.647l-0.401,2.275l-8.794,-1.551l0.401,-2.275l-2.683,-0.473l0.483,-2.736l-2.276,-0.401l1.551,-8.793l2.275,0.401l2.639,-14.963l-2.276,-0.401l1.551,-8.794Z" style="fill:none;stroke:#00f;stroke-width:0.03px;stroke-linecap:butt;"/>
            <path d="M102.661,227.949l2.275,0.401l0.482,-2.736l2.683,0.473l0.402,-2.275l8.793,1.55l-0.401,2.276l15.016,2.647l0.401,-2.275l8.793,1.551l-0.401,2.275l2.736,0.482l-0.483,2.736l2.276,0.401l-1.551,8.794l-2.275,-0.402l-2.638,14.963l2.275,0.401l-1.551,8.794l-2.275,-0.401l-0.482,2.735l-2.736,-0.482l-0.401,2.275l-8.794,-1.55l0.401,-2.275l-15.015,-2.648l-0.401,2.275l-8.794,-1.551l0.401,-2.275l-2.683,-0.473l0.483,-2.735l-2.275,-0.402l1.55,-8.793l2.275,0.401l2.639,-14.963l-2.276,-0.401l1.551,-8.793Z" style="fill:none;stroke:#00f;stroke-width:0.03px;stroke-linecap:butt;"/>
            <path d="M155.841,237.326l2.275,0.401l0.483,-2.736l2.683,0.473l0.401,-2.275l8.793,1.55l-0.401,2.276l15.016,2.647l0.401,-2.275l8.793,1.551l-0.401,2.275l2.736,0.482l-0.482,2.736l2.275,0.401l-1.551,8.794l-2.275,-0.402l-2.638,14.963l2.275,0.401l-1.551,8.794l-2.275,-0.401l-0.482,2.736l-2.736,-0.483l-0.401,2.275l-8.794,-1.55l0.401,-2.275l-15.015,-2.648l-0.401,2.275l-8.794,-1.55l0.401,-2.276l-2.683,-0.473l0.483,-2.735l-2.275,-0.402l1.55,-8.793l2.275,0.401l2.639,-14.963l-2.275,-0.401l1.55,-8.793Z" style="fill:none;stroke:#00f;stroke-width:0.03px;stroke-linecap:butt;"/>
            <path d="M209.021,246.703l2.275,0.401l0.483,-2.736l2.683,0.473l0.401,-2.275l8.793,1.551l-0.401,2.275l15.016,2.647l0.401,-2.275l8.793,1.551l-0.401,2.275l2.736,0.482l-0.482,2.736l2.275,0.401l-1.551,8.794l-2.275,-0.401l-2.638,14.962l2.275,0.402l-1.551,8.793l-2.275,-0.401l-0.482,2.736l-2.736,-0.483l-0.401,2.275l-8.794,-1.55l0.402,-2.275l-15.016,-2.648l-0.401,2.275l-8.794,-1.55l0.401,-2.276l-2.683,-0.473l0.483,-2.735l-2.275,-0.401l1.55,-8.794l2.275,0.401l2.639,-14.963l-2.275,-0.401l1.55,-8.793Z" style="fill:none;stroke:#00f;stroke-width:0.03px;stroke-linecap:butt;"/>
            <path d="M283.898,242.531l2.171,0.79l0.95,-2.611l2.56,0.932l0.791,-2.171l8.39,3.054l-0.79,2.171l14.328,5.215l0.79,-2.171l8.391,3.054l-0.791,2.171l2.611,0.95l-0.95,2.61l2.171,0.791l-3.054,8.39l-2.171,-0.79l-5.197,14.278l2.171,0.79l-3.054,8.39l-2.171,-0.79l-0.95,2.611l-2.61,-0.951l-0.79,2.171l-8.391,-3.054l0.79,-2.17l-14.328,-5.215l-0.79,2.171l-8.39,-3.054l0.79,-2.171l-2.56,-0.932l0.95,-2.611l-2.171,-0.79l3.054,-8.39l2.171,0.79l5.196,-14.278l-2.171,-0.79l3.054,-8.39Z" style="fill:none;stroke:#00f;stroke-width:0.03px;stroke-linecap:butt;"/>
            <path d="M354.049,278.521l1.407,1.833l2.204,-1.691l1.658,2.161l1.833,-1.406l5.436,7.084l-1.833,1.406l9.282,12.097l1.833,-1.406l5.435,7.084l-1.832,1.406l1.691,2.204l-2.204,1.691l1.406,1.833l-7.084,5.435l-1.406,-1.832l-12.054,9.249l1.406,1.833l-7.084,5.436l-1.406,-1.833l-2.204,1.691l-1.691,-2.204l-1.833,1.406l-5.436,-7.084l1.833,-1.406l-9.282,-12.097l-1.833,1.407l-5.435,-7.084l1.833,-1.407l-1.659,-2.161l2.204,-1.691l-1.406,-1.833l7.084,-5.436l1.406,1.833l12.054,-9.249l-1.407,-1.833l7.084,-5.436Z" style="fill:none;stroke:#00f;stroke-width:0.03px;stroke-linecap:butt;"/>
            <path d="M291.557,149.631c0.177,-1 0.422,-1.787 0.735,-2.36c0.313,-0.574 0.702,-0.99 1.166,-1.25c0.464,-0.259 1.004,-0.334 1.62,-0.226c0.454,0.08 0.836,0.242 1.146,0.485c0.31,0.243 0.546,0.557 0.709,0.94c0.162,0.384 0.263,0.834 0.303,1.351c0.04,0.516 -0.014,1.194 -0.162,2.033c-0.175,0.992 -0.418,1.775 -0.73,2.349c-0.311,0.574 -0.699,0.991 -1.164,1.253c-0.464,0.261 -1.006,0.337 -1.625,0.228c-0.816,-0.144 -1.405,-0.55 -1.767,-1.216c-0.434,-0.803 -0.511,-1.998 -0.231,-3.587Zm1.068,0.188c-0.245,1.389 -0.245,2.342 -0.001,2.859c0.244,0.517 0.604,0.817 1.081,0.902c0.477,0.084 0.919,-0.076 1.325,-0.481c0.407,-0.404 0.732,-1.299 0.976,-2.684c0.246,-1.392 0.247,-2.346 0.002,-2.861c-0.244,-0.515 -0.609,-0.815 -1.093,-0.901c-0.477,-0.084 -0.894,0.051 -1.25,0.405c-0.448,0.452 -0.795,1.373 -1.04,2.761Z" style="fill:none;stroke:#f00;stroke-width:0.03px;stroke-linecap:butt;stroke-miterlimit:1.41421;"/>
            <path d="M297.977,155.065l0.209,-1.183l1.183,0.208l-0.209,1.183l-1.183,-0.208Z" style="fill:none;stroke:#f00;stroke-width:0.03px;stroke-linecap:butt;stroke-miterlimit:1.41421;"/>
            <path d="M301.077,153.309l1.063,0.044c0.016,0.61 0.144,1.07 0.385,1.38c0.24,0.31 0.567,0.502 0.978,0.574c0.489,0.086 0.931,-0.01 1.328,-0.289c0.396,-0.279 0.638,-0.669 0.726,-1.169c0.084,-0.477 -0.002,-0.898 -0.259,-1.263c-0.257,-0.364 -0.626,-0.589 -1.107,-0.674c-0.196,-0.034 -0.447,-0.039 -0.753,-0.014l0.276,-0.891c0.068,0.02 0.123,0.034 0.165,0.041c0.443,0.078 0.861,0.033 1.256,-0.136c0.395,-0.168 0.634,-0.493 0.719,-0.973c0.067,-0.381 -0.006,-0.719 -0.22,-1.015c-0.213,-0.295 -0.524,-0.479 -0.932,-0.551c-0.404,-0.071 -0.763,-0.004 -1.077,0.203c-0.314,0.206 -0.554,0.557 -0.721,1.051l-1.006,-0.368c0.25,-0.674 0.634,-1.163 1.151,-1.466c0.518,-0.303 1.111,-0.396 1.781,-0.278c0.461,0.081 0.869,0.255 1.223,0.522c0.353,0.267 0.603,0.589 0.748,0.968c0.146,0.379 0.184,0.76 0.117,1.145c-0.065,0.365 -0.222,0.681 -0.471,0.946c-0.249,0.266 -0.581,0.453 -0.997,0.562c0.479,0.204 0.826,0.512 1.039,0.924c0.213,0.412 0.271,0.892 0.174,1.438c-0.13,0.739 -0.509,1.317 -1.139,1.736c-0.629,0.418 -1.355,0.555 -2.178,0.41c-0.743,-0.131 -1.32,-0.461 -1.732,-0.99c-0.413,-0.529 -0.592,-1.151 -0.537,-1.867Z" style="fill:none;stroke:#f00;stroke-width:0.03px;stroke-linecap:butt;stroke-miterlimit:1.41421;"/>
            <path d="M307.641,154.484l1.107,0.1c-0.013,0.545 0.104,0.977 0.351,1.296c0.247,0.32 0.579,0.516 0.994,0.589c0.5,0.088 0.957,-0.026 1.369,-0.341c0.413,-0.316 0.674,-0.786 0.784,-1.409c0.105,-0.593 0.021,-1.089 -0.252,-1.49c-0.272,-0.401 -0.678,-0.649 -1.216,-0.744c-0.335,-0.059 -0.65,-0.037 -0.946,0.068c-0.296,0.104 -0.543,0.264 -0.739,0.479l-0.953,-0.299l1.585,-4.2l4.207,0.742l-0.175,0.992l-3.376,-0.595l-0.856,2.193c0.57,-0.264 1.134,-0.347 1.692,-0.249c0.738,0.13 1.316,0.496 1.734,1.097c0.417,0.601 0.555,1.304 0.414,2.108c-0.135,0.765 -0.475,1.388 -1.02,1.867c-0.663,0.589 -1.464,0.801 -2.403,0.635c-0.769,-0.135 -1.359,-0.462 -1.77,-0.978c-0.41,-0.517 -0.587,-1.137 -0.531,-1.861Z" style="fill:none;stroke:#f00;stroke-width:0.03px;stroke-linecap:butt;stroke-miterlimit:1.41421;"/>
        </g>
        <g id="_0.35mm-key-holes--right-" serif:id="0.35mm key holes (right)">
            <path d="M812.174,58.749l-2.276,0.401l-0.482,-2.736l-2.683,0.473l-0.401,-2.275l-8.793,1.551l0.401,2.275l-15.016,2.647l-0.401,-2.275l-8.794,1.551l0.402,2.275l-2.736,0.482l0.482,2.736l-2.275,0.401l1.551,8.794l2.275,-0.402l2.638,14.963l-2.275,0.402l1.55,8.793l2.276,-0.401l0.482,2.736l2.736,-0.483l0.401,2.275l8.793,-1.55l-0.401,-2.275l15.016,-2.648l0.401,2.275l8.794,-1.55l-0.402,-2.276l2.683,-0.473l-0.482,-2.735l2.275,-0.402l-1.55,-8.793l-2.276,0.401l-2.638,-14.963l2.275,-0.401l-1.55,-8.793Z" style="fill:none;stroke:#00f;stroke-width:0.03px;stroke-linecap:butt;"/>
            <path d="M758.994,68.126l-2.276,0.401l-0.482,-2.736l-2.683,0.473l-0.401,-2.275l-8.794,1.551l0.402,2.275l-15.016,2.647l-0.401,-2.275l-8.794,1.551l0.401,2.275l-2.735,0.482l0.482,2.736l-2.275,0.401l1.55,8.794l2.276,-0.401l2.638,14.962l-2.275,0.402l1.55,8.793l2.276,-0.401l0.482,2.736l2.736,-0.483l0.401,2.275l8.793,-1.55l-0.401,-2.275l15.016,-2.648l0.401,2.275l8.793,-1.55l-0.401,-2.275l2.683,-0.474l-0.482,-2.735l2.275,-0.401l-1.551,-8.794l-2.275,0.401l-2.638,-14.963l2.275,-0.401l-1.55,-8.793Z" style="fill:none;stroke:#00f;stroke-width:0.03px;stroke-linecap:butt;"/>
            <path d="M702.688,59.777l-2.275,0.401l-0.483,-2.736l-2.683,0.473l-0.401,-2.275l-8.793,1.551l0.401,2.275l-15.016,2.647l-0.401,-2.275l-8.793,1.551l0.401,2.275l-2.736,0.482l0.482,2.736l-2.275,0.401l1.551,8.794l2.275,-0.401l2.638,14.962l-2.275,0.402l1.551,8.793l2.275,-0.401l0.482,2.736l2.736,-0.483l0.401,2.275l8.794,-1.55l-0.402,-2.275l15.016,-2.648l0.401,2.275l8.794,-1.55l-0.401,-2.275l2.683,-0.474l-0.483,-2.735l2.275,-0.401l-1.55,-8.794l-2.275,0.401l-2.639,-14.963l2.275,-0.401l-1.55,-8.793Z" style="fill:none;stroke:#00f;stroke-width:0.03px;stroke-linecap:butt;"/>
            <path d="M646.382,51.427l-2.275,0.401l-0.482,-2.735l-2.683,0.473l-0.401,-2.275l-8.794,1.55l0.401,2.275l-15.015,2.648l-0.402,-2.275l-8.793,1.55l0.401,2.275l-2.736,0.483l0.483,2.736l-2.275,0.401l1.55,8.793l2.275,-0.401l2.639,14.963l-2.276,0.401l1.551,8.794l2.275,-0.402l0.483,2.736l2.735,-0.482l0.401,2.275l8.794,-1.551l-0.401,-2.275l15.015,-2.647l0.402,2.275l8.793,-1.551l-0.401,-2.275l2.683,-0.473l-0.483,-2.736l2.276,-0.401l-1.551,-8.793l-2.275,0.401l-2.638,-14.963l2.275,-0.401l-1.551,-8.794Z" style="fill:none;stroke:#00f;stroke-width:0.03px;stroke-linecap:butt;"/>
            <path d="M596.328,78.531l-2.275,0.401l-0.483,-2.736l-2.683,0.473l-0.401,-2.275l-8.793,1.551l0.401,2.275l-15.016,2.648l-0.401,-2.276l-8.793,1.551l0.401,2.275l-2.736,0.482l0.482,2.736l-2.275,0.401l1.551,8.794l2.275,-0.401l2.638,14.963l-2.275,0.401l1.551,8.793l2.275,-0.401l0.482,2.736l2.736,-0.483l0.401,2.276l8.794,-1.551l-0.402,-2.275l15.016,-2.648l0.401,2.275l8.794,-1.55l-0.402,-2.275l2.683,-0.473l-0.482,-2.736l2.275,-0.401l-1.55,-8.794l-2.275,0.401l-2.639,-14.962l2.275,-0.402l-1.55,-8.793Z" style="fill:none;stroke:#00f;stroke-width:0.03px;stroke-linecap:butt;"/>
            <path d="M543.148,87.908l-2.275,0.401l-0.483,-2.736l-2.683,0.473l-0.401,-2.275l-8.793,1.551l0.401,2.275l-15.016,2.648l-0.401,-2.275l-8.794,1.55l0.402,2.275l-2.736,0.483l0.482,2.735l-2.275,0.401l1.551,8.794l2.275,-0.401l2.638,14.963l-2.275,0.401l1.551,8.793l2.275,-0.401l0.482,2.736l2.736,-0.482l0.401,2.275l8.793,-1.551l-0.401,-2.275l15.016,-2.648l0.401,2.275l8.794,-1.55l-0.402,-2.275l2.683,-0.473l-0.482,-2.736l2.275,-0.401l-1.55,-8.794l-2.276,0.401l-2.638,-14.962l2.275,-0.402l-1.55,-8.793Z" style="fill:none;stroke:#00f;stroke-width:0.03px;stroke-linecap:butt;"/>
            <path d="M821.551,111.929l-2.275,0.401l-0.483,-2.736l-2.683,0.473l-0.401,-2.275l-8.793,1.551l0.401,2.275l-15.016,2.647l-0.401,-2.275l-8.794,1.551l0.402,2.275l-2.736,0.482l0.482,2.736l-2.275,0.401l1.551,8.794l2.275,-0.401l2.638,14.962l-2.275,0.402l1.551,8.793l2.275,-0.401l0.482,2.736l2.736,-0.483l0.401,2.275l8.793,-1.55l-0.401,-2.275l15.016,-2.648l0.401,2.275l8.794,-1.55l-0.402,-2.275l2.683,-0.474l-0.482,-2.735l2.275,-0.401l-1.55,-8.794l-2.276,0.401l-2.638,-14.963l2.275,-0.401l-1.55,-8.793Z" style="fill:none;stroke:#00f;stroke-width:0.03px;stroke-linecap:butt;"/>
            <path d="M768.371,121.306l-2.275,0.401l-0.483,-2.736l-2.683,0.473l-0.401,-2.275l-8.793,1.551l0.401,2.275l-15.016,2.647l-0.401,-2.275l-8.794,1.551l0.402,2.275l-2.736,0.482l0.482,2.736l-2.275,0.401l1.551,8.794l2.275,-0.401l2.638,14.963l-2.275,0.401l1.55,8.793l2.276,-0.401l0.482,2.736l2.736,-0.483l0.401,2.275l8.793,-1.55l-0.401,-2.275l15.016,-2.648l0.401,2.275l8.794,-1.55l-0.402,-2.275l2.683,-0.473l-0.482,-2.736l2.275,-0.401l-1.55,-8.794l-2.276,0.401l-2.638,-14.963l2.275,-0.401l-1.55,-8.793Z" style="fill:none;stroke:#00f;stroke-width:0.03px;stroke-linecap:butt;"/>
            <path d="M712.065,112.957l-2.275,0.401l-0.483,-2.736l-2.682,0.473l-0.402,-2.275l-8.793,1.551l0.401,2.275l-15.016,2.648l-0.401,-2.276l-8.793,1.551l0.401,2.275l-2.736,0.482l0.483,2.736l-2.276,0.401l1.551,8.794l2.275,-0.401l2.638,14.963l-2.275,0.401l1.551,8.793l2.275,-0.401l0.482,2.736l2.736,-0.483l0.401,2.276l8.794,-1.551l-0.401,-2.275l15.015,-2.648l0.401,2.275l8.794,-1.55l-0.401,-2.275l2.683,-0.473l-0.483,-2.736l2.275,-0.401l-1.55,-8.794l-2.275,0.401l-2.639,-14.963l2.276,-0.401l-1.551,-8.793Z" style="fill:none;stroke:#00f;stroke-width:0.03px;stroke-linecap:butt;"/>
            <path d="M655.759,104.607l-2.275,0.402l-0.482,-2.736l-2.683,0.473l-0.401,-2.275l-8.794,1.55l0.401,2.275l-15.015,2.648l-0.402,-2.275l-8.793,1.55l0.401,2.276l-2.736,0.482l0.483,2.736l-2.275,0.401l1.55,8.793l2.275,-0.401l2.639,14.963l-2.275,0.401l1.55,8.794l2.275,-0.401l0.483,2.735l2.735,-0.482l0.402,2.275l8.793,-1.55l-0.401,-2.276l15.015,-2.647l0.402,2.275l8.793,-1.551l-0.401,-2.275l2.683,-0.473l-0.482,-2.736l2.275,-0.401l-1.551,-8.793l-2.275,0.401l-2.638,-14.963l2.275,-0.401l-1.551,-8.794Z" style="fill:none;stroke:#00f;stroke-width:0.03px;stroke-linecap:butt;"/>
            <path d="M605.705,131.711l-2.275,0.401l-0.483,-2.736l-2.683,0.473l-0.401,-2.275l-8.793,1.551l0.401,2.275l-15.016,2.648l-0.401,-2.275l-8.793,1.55l0.401,2.275l-2.736,0.483l0.482,2.735l-2.275,0.401l1.551,8.794l2.275,-0.401l2.638,14.963l-2.275,0.401l1.551,8.793l2.275,-0.401l0.482,2.736l2.736,-0.482l0.401,2.275l8.794,-1.551l-0.402,-2.275l15.016,-2.648l0.401,2.275l8.794,-1.55l-0.401,-2.275l2.683,-0.473l-0.483,-2.736l2.275,-0.401l-1.55,-8.794l-2.275,0.401l-2.639,-14.962l2.275,-0.402l-1.55,-8.793Z" style="fill:none;stroke:#00f;stroke-width:0.03px;stroke-linecap:butt;"/>
            <path d="M552.525,141.088l-2.275,0.401l-0.483,-2.736l-2.683,0.474l-0.401,-2.276l-8.793,1.551l0.401,2.275l-15.016,2.648l-0.401,-2.275l-8.793,1.55l0.401,2.275l-2.736,0.483l0.482,2.735l-2.275,0.402l1.551,8.793l2.275,-0.401l2.638,14.963l-2.275,0.401l1.551,8.793l2.275,-0.401l0.482,2.736l2.736,-0.482l0.401,2.275l8.794,-1.551l-0.402,-2.275l15.016,-2.648l0.401,2.276l8.794,-1.551l-0.401,-2.275l2.682,-0.473l-0.482,-2.736l2.275,-0.401l-1.55,-8.794l-2.275,0.402l-2.639,-14.963l2.275,-0.401l-1.55,-8.794Z" style="fill:none;stroke:#00f;stroke-width:0.03px;stroke-linecap:butt;"/>
            <path d="M830.928,165.108l-2.275,0.402l-0.483,-2.736l-2.683,0.473l-0.401,-2.275l-8.793,1.55l0.401,2.275l-15.016,2.648l-0.401,-2.275l-8.794,1.55l0.402,2.276l-2.736,0.482l0.482,2.736l-2.275,0.401l1.551,8.793l2.275,-0.401l2.638,14.963l-2.275,0.401l1.551,8.794l2.275,-0.401l0.482,2.735l2.736,-0.482l0.401,2.275l8.793,-1.55l-0.401,-2.276l15.016,-2.647l0.401,2.275l8.794,-1.551l-0.402,-2.275l2.683,-0.473l-0.482,-2.736l2.275,-0.401l-1.55,-8.793l-2.276,0.401l-2.638,-14.963l2.275,-0.401l-1.55,-8.794Z" style="fill:none;stroke:#00f;stroke-width:0.03px;stroke-linecap:butt;"/>
            <path d="M777.748,174.485l-2.275,0.402l-0.483,-2.736l-2.683,0.473l-0.401,-2.275l-8.793,1.55l0.401,2.275l-15.016,2.648l-0.401,-2.275l-8.794,1.551l0.402,2.275l-2.736,0.482l0.482,2.736l-2.275,0.401l1.551,8.793l2.275,-0.401l2.638,14.963l-2.275,0.401l1.55,8.794l2.276,-0.401l0.482,2.735l2.736,-0.482l0.401,2.275l8.793,-1.55l-0.401,-2.276l15.016,-2.647l0.401,2.275l8.794,-1.551l-0.402,-2.275l2.683,-0.473l-0.482,-2.736l2.275,-0.401l-1.55,-8.793l-2.276,0.401l-2.638,-14.963l2.275,-0.401l-1.55,-8.794Z" style="fill:none;stroke:#00f;stroke-width:0.03px;stroke-linecap:butt;"/>
            <path d="M721.442,166.136l-2.275,0.402l-0.483,-2.736l-2.682,0.473l-0.402,-2.275l-8.793,1.55l0.401,2.275l-15.016,2.648l-0.401,-2.275l-8.793,1.551l0.401,2.275l-2.736,0.482l0.483,2.736l-2.276,0.401l1.551,8.793l2.275,-0.401l2.638,14.963l-2.275,0.401l1.551,8.794l2.275,-0.401l0.482,2.735l2.736,-0.482l0.401,2.275l8.794,-1.55l-0.401,-2.276l15.015,-2.647l0.401,2.275l8.794,-1.551l-0.401,-2.275l2.683,-0.473l-0.483,-2.736l2.275,-0.401l-1.55,-8.793l-2.275,0.401l-2.639,-14.963l2.276,-0.401l-1.551,-8.794Z" style="fill:none;stroke:#00f;stroke-width:0.03px;stroke-linecap:butt;"/>
            <path d="M665.136,157.787l-2.275,0.401l-0.482,-2.736l-2.683,0.473l-0.401,-2.275l-8.794,1.551l0.401,2.275l-15.015,2.648l-0.402,-2.275l-8.793,1.55l0.401,2.275l-2.736,0.483l0.483,2.735l-2.275,0.401l1.55,8.794l2.275,-0.401l2.639,14.963l-2.275,0.401l1.55,8.793l2.275,-0.401l0.483,2.736l2.735,-0.482l0.402,2.275l8.793,-1.551l-0.401,-2.275l15.015,-2.648l0.402,2.275l8.793,-1.55l-0.401,-2.275l2.683,-0.473l-0.482,-2.736l2.275,-0.401l-1.551,-8.794l-2.275,0.401l-2.638,-14.962l2.275,-0.402l-1.551,-8.793Z" style="fill:none;stroke:#00f;stroke-width:0.03px;stroke-linecap:butt;"/>
            <path d="M615.082,184.891l-2.275,0.401l-0.483,-2.736l-2.683,0.473l-0.401,-2.275l-8.793,1.55l0.401,2.276l-15.016,2.647l-0.401,-2.275l-8.793,1.551l0.401,2.275l-2.736,0.482l0.482,2.736l-2.275,0.401l1.551,8.794l2.275,-0.402l2.638,14.963l-2.275,0.401l1.551,8.794l2.275,-0.401l0.482,2.736l2.736,-0.483l0.401,2.275l8.794,-1.55l-0.402,-2.275l15.016,-2.648l0.401,2.275l8.794,-1.55l-0.401,-2.276l2.683,-0.473l-0.483,-2.735l2.275,-0.402l-1.55,-8.793l-2.275,0.401l-2.639,-14.963l2.275,-0.401l-1.55,-8.793Z" style="fill:none;stroke:#00f;stroke-width:0.03px;stroke-linecap:butt;"/>
            <path d="M561.902,194.268l-2.275,0.401l-0.483,-2.736l-2.683,0.473l-0.401,-2.275l-8.793,1.551l0.401,2.275l-15.016,2.647l-0.401,-2.275l-8.793,1.551l0.401,2.275l-2.736,0.482l0.482,2.736l-2.275,0.401l1.551,8.794l2.275,-0.401l2.638,14.962l-2.275,0.402l1.551,8.793l2.275,-0.401l0.482,2.736l2.736,-0.483l0.401,2.275l8.794,-1.55l-0.402,-2.275l15.016,-2.648l0.401,2.275l8.794,-1.55l-0.401,-2.275l2.682,-0.474l-0.482,-2.735l2.275,-0.401l-1.55,-8.794l-2.275,0.401l-2.639,-14.963l2.275,-0.401l-1.55,-8.793Z" style="fill:none;stroke:#00f;stroke-width:0.03px;stroke-linecap:butt;"/>
            <path d="M840.305,218.288l-2.275,0.401l-0.483,-2.736l-2.683,0.473l-0.401,-2.275l-8.793,1.551l0.401,2.275l-15.016,2.648l-0.401,-2.275l-8.794,1.55l0.402,2.275l-2.736,0.483l0.482,2.735l-2.275,0.401l1.551,8.794l2.275,-0.401l2.638,14.963l-2.275,0.401l1.551,8.793l2.275,-0.401l0.482,2.736l2.736,-0.482l0.401,2.275l8.793,-1.551l-0.401,-2.275l15.016,-2.648l0.401,2.275l8.794,-1.55l-0.402,-2.275l2.683,-0.473l-0.482,-2.736l2.275,-0.401l-1.55,-8.794l-2.276,0.401l-2.638,-14.962l2.275,-0.402l-1.55,-8.793Z" style="fill:none;stroke:#00f;stroke-width:0.03px;stroke-linecap:butt;"/>
            <path d="M787.125,227.665l-2.275,0.401l-0.483,-2.736l-2.683,0.474l-0.401,-2.276l-8.793,1.551l0.401,2.275l-15.016,2.648l-0.401,-2.275l-8.794,1.55l0.402,2.275l-2.736,0.483l0.482,2.735l-2.275,0.402l1.551,8.793l2.275,-0.401l2.638,14.963l-2.275,0.401l1.55,8.793l2.276,-0.401l0.482,2.736l2.736,-0.482l0.401,2.275l8.793,-1.551l-0.401,-2.275l15.016,-2.648l0.401,2.276l8.794,-1.551l-0.402,-2.275l2.683,-0.473l-0.482,-2.736l2.275,-0.401l-1.55,-8.794l-2.276,0.402l-2.638,-14.963l2.275,-0.401l-1.55,-8.794Z" style="fill:none;stroke:#00f;stroke-width:0.03px;stroke-linecap:butt;"/>
            <path d="M733.945,237.042l-2.276,0.401l-0.482,-2.735l-2.683,0.473l-0.401,-2.276l-8.794,1.551l0.402,2.275l-15.016,2.648l-0.401,-2.275l-8.794,1.55l0.401,2.275l-2.735,0.483l0.482,2.735l-2.275,0.402l1.551,8.793l2.275,-0.401l2.638,14.963l-2.275,0.401l1.55,8.793l2.276,-0.401l0.482,2.736l2.736,-0.482l0.401,2.275l8.793,-1.551l-0.401,-2.275l15.016,-2.648l0.401,2.276l8.793,-1.551l-0.401,-2.275l2.683,-0.473l-0.482,-2.736l2.275,-0.401l-1.551,-8.794l-2.275,0.402l-2.638,-14.963l2.275,-0.401l-1.55,-8.794Z" style="fill:none;stroke:#00f;stroke-width:0.03px;stroke-linecap:butt;"/>
            <path d="M680.765,246.419l-2.276,0.401l-0.482,-2.735l-2.683,0.473l-0.401,-2.275l-8.794,1.55l0.402,2.275l-15.016,2.648l-0.401,-2.275l-8.794,1.55l0.401,2.275l-2.735,0.483l0.482,2.736l-2.275,0.401l1.55,8.793l2.276,-0.401l2.638,14.963l-2.275,0.401l1.55,8.794l2.275,-0.402l0.483,2.736l2.736,-0.482l0.401,2.275l8.793,-1.551l-0.401,-2.275l15.016,-2.647l0.401,2.275l8.793,-1.551l-0.401,-2.275l2.683,-0.473l-0.482,-2.736l2.275,-0.401l-1.551,-8.793l-2.275,0.401l-2.638,-14.963l2.275,-0.401l-1.55,-8.794Z" style="fill:none;stroke:#00f;stroke-width:0.03px;stroke-linecap:butt;"/>
            <path d="M605.887,242.247l-2.171,0.79l-0.95,-2.61l-2.56,0.932l-0.79,-2.171l-8.391,3.054l0.791,2.171l-14.328,5.215l-0.79,-2.171l-8.391,3.054l0.79,2.17l-2.61,0.951l0.95,2.61l-2.171,0.79l3.054,8.391l2.171,-0.79l5.196,14.277l-2.171,0.79l3.054,8.391l2.171,-0.79l0.95,2.61l2.611,-0.95l0.79,2.171l8.391,-3.054l-0.79,-2.171l14.327,-5.215l0.79,2.171l8.391,-3.054l-0.79,-2.171l2.56,-0.932l-0.95,-2.61l2.171,-0.79l-3.054,-8.391l-2.171,0.79l-5.197,-14.277l2.171,-0.79l-3.054,-8.391Z" style="fill:none;stroke:#00f;stroke-width:0.03px;stroke-linecap:butt;"/>
            <path d="M537.154,278.521l-1.407,1.833l-2.204,-1.691l-1.658,2.161l-1.833,-1.406l-5.436,7.084l1.833,1.406l-9.282,12.097l-1.833,-1.406l-5.435,7.084l1.832,1.406l-1.691,2.204l2.204,1.691l-1.406,1.833l7.084,5.435l1.406,-1.832l12.054,9.249l-1.406,1.833l7.084,5.436l1.406,-1.833l2.204,1.691l1.691,-2.204l1.833,1.406l5.436,-7.084l-1.833,-1.406l9.282,-12.097l1.833,1.407l5.435,-7.084l-1.833,-1.407l1.659,-2.161l-2.204,-1.691l1.406,-1.833l-7.084,-5.436l-1.406,1.833l-12.054,-9.249l1.406,-1.833l-7.083,-5.436Z" style="fill:none;stroke:#00f;stroke-width:0.03px;stroke-linecap:butt;"/>
            <path d="M576.331,153.911c-0.177,-1 -0.216,-1.823 -0.117,-2.469c0.098,-0.646 0.321,-1.17 0.668,-1.573c0.348,-0.402 0.829,-0.657 1.445,-0.766c0.454,-0.08 0.868,-0.059 1.243,0.064c0.374,0.122 0.703,0.336 0.987,0.641c0.284,0.304 0.533,0.693 0.747,1.165c0.214,0.472 0.395,1.127 0.543,1.966c0.175,0.992 0.214,1.811 0.118,2.457c-0.096,0.646 -0.318,1.171 -0.665,1.575c-0.347,0.404 -0.831,0.661 -1.45,0.77c-0.816,0.144 -1.508,-0.035 -2.076,-0.538c-0.682,-0.606 -1.163,-1.703 -1.443,-3.292Zm1.067,-0.188c0.245,1.389 0.571,2.284 0.977,2.687c0.406,0.402 0.847,0.561 1.324,0.477c0.477,-0.084 0.838,-0.385 1.081,-0.904c0.244,-0.519 0.244,-1.471 0,-2.856c-0.246,-1.393 -0.572,-2.289 -0.977,-2.69c-0.406,-0.4 -0.851,-0.558 -1.336,-0.472c-0.477,0.084 -0.822,0.353 -1.036,0.807c-0.267,0.579 -0.278,1.562 -0.033,2.951Z" style="fill:none;stroke:#f00;stroke-width:0.03px;stroke-linecap:butt;stroke-miterlimit:1.41421;"/>
            <path d="M584.222,156.822l-0.209,-1.183l1.183,-0.209l0.208,1.183l-1.182,0.209Z" style="fill:none;stroke:#f00;stroke-width:0.03px;stroke-linecap:butt;stroke-miterlimit:1.41421;"/>
            <path d="M586.534,154.111l1.014,-0.321c0.223,0.567 0.501,0.956 0.833,1.165c0.333,0.209 0.705,0.277 1.116,0.205c0.489,-0.087 0.872,-0.329 1.149,-0.726c0.277,-0.398 0.371,-0.847 0.283,-1.347c-0.084,-0.477 -0.31,-0.843 -0.676,-1.098c-0.366,-0.255 -0.789,-0.34 -1.27,-0.255c-0.197,0.035 -0.434,0.116 -0.713,0.245l-0.045,-0.932c0.07,-0.005 0.127,-0.011 0.169,-0.018c0.443,-0.078 0.82,-0.264 1.134,-0.557c0.313,-0.293 0.427,-0.68 0.342,-1.161c-0.067,-0.381 -0.251,-0.674 -0.553,-0.878c-0.302,-0.205 -0.657,-0.271 -1.065,-0.2c-0.404,0.072 -0.718,0.258 -0.942,0.559c-0.225,0.302 -0.331,0.713 -0.318,1.234l-1.071,-0.001c0.004,-0.719 0.197,-1.309 0.58,-1.771c0.382,-0.462 0.908,-0.752 1.578,-0.87c0.461,-0.082 0.904,-0.058 1.327,0.072c0.424,0.129 0.769,0.347 1.035,0.653c0.266,0.306 0.433,0.652 0.501,1.037c0.064,0.365 0.025,0.715 -0.118,1.05c-0.144,0.334 -0.392,0.624 -0.746,0.869c0.521,0.027 0.952,0.198 1.293,0.513c0.341,0.314 0.56,0.745 0.656,1.291c0.13,0.739 -0.029,1.412 -0.477,2.021c-0.448,0.608 -1.083,0.985 -1.907,1.13c-0.742,0.131 -1.398,0.019 -1.966,-0.337c-0.569,-0.356 -0.95,-0.88 -1.143,-1.572Z" style="fill:none;stroke:#f00;stroke-width:0.03px;stroke-linecap:butt;stroke-miterlimit:1.41421;"/>
            <path d="M593.104,152.971l1.074,-0.285c0.175,0.517 0.432,0.883 0.774,1.098c0.341,0.216 0.72,0.287 1.135,0.214c0.5,-0.089 0.89,-0.352 1.17,-0.79c0.28,-0.438 0.365,-0.968 0.255,-1.592c-0.105,-0.592 -0.353,-1.03 -0.747,-1.314c-0.393,-0.283 -0.859,-0.378 -1.397,-0.283c-0.335,0.059 -0.623,0.188 -0.866,0.388c-0.242,0.199 -0.419,0.434 -0.53,0.703l-0.998,0.045l0.053,-4.489l4.207,-0.742l0.175,0.992l-3.376,0.596l-0.055,2.354c0.446,-0.444 0.947,-0.715 1.505,-0.813c0.739,-0.13 1.407,0.016 2.005,0.438c0.598,0.422 0.968,1.035 1.11,1.839c0.135,0.765 0.028,1.466 -0.32,2.103c-0.421,0.78 -1.102,1.253 -2.04,1.419c-0.77,0.135 -1.436,0.031 -1.998,-0.314c-0.563,-0.345 -0.941,-0.868 -1.136,-1.567Z" style="fill:none;stroke:#f00;stroke-width:0.03px;stroke-linecap:butt;stroke-miterlimit:1.41421;"/>
        </g>
        <path id="Reset-hole" serif:id="Reset hole" d="M423.425,96.463l2.31,0l0,-2.778l2.725,0l0,-2.31l8.929,0l0,2.31l15.247,0l0,-2.31l8.929,0l0,2.31l2.778,0l0,2.778l2.311,0l0,8.929l-2.311,0l0,15.194l2.311,0l0,8.929l-2.311,0l0,2.778l-2.778,0l0,2.31l-8.929,0l0,-2.31l-15.247,0l0,2.31l-8.929,0l0,-2.31l-2.725,0l0,-2.778l-2.31,0l0,-8.929l2.31,0l0,-15.194l-2.31,0l0,-8.929Z" style="fill:none;stroke:#00f;stroke-width:0.03px;stroke-linecap:butt;"/>
        <path id="Outside-shape2" serif:id="Outside shape" d="M19.276,14.173c-2.818,0 -5.103,2.284 -5.103,5.102c0,40.098 0,304.029 0,344.126c0,2.818 2.285,5.103 5.103,5.103c30.784,0 191.452,0 222.236,0c2.818,0 5.102,-2.285 5.102,-5.103c0,-1.291 0,-2.677 0,-3.968c0,-1.354 0.538,-2.651 1.495,-3.608c0.956,-0.957 2.254,-1.495 3.608,-1.495c42.955,0 343.69,0 386.645,0c1.353,0 2.651,0.538 3.608,1.495c0.957,0.957 1.495,2.254 1.495,3.608c0,1.291 0,2.677 0,3.968c0,2.818 2.284,5.103 5.102,5.103c30.784,0 191.452,0 222.236,0c2.818,0 5.102,-2.285 5.102,-5.103c0,-40.097 0,-304.028 0,-344.126c0,-2.818 -2.284,-5.102 -5.102,-5.102c-15.14,0 -59.695,0 -74.835,0c-2.817,0 -5.102,2.284 -5.102,5.102c0,0.377 0,0.757 0,1.134c0,1.353 -0.537,2.651 -1.494,3.608c-0.957,0.957 -2.255,1.494 -3.608,1.494c-59.575,0 -621.874,0 -681.449,0c-1.353,0 -2.651,-0.537 -3.608,-1.494c-0.957,-0.957 -1.494,-2.255 -1.494,-3.608c0,-0.377 0,-0.757 0,-1.134c0,-2.818 -2.285,-5.102 -5.103,-5.102c-15.14,0 -59.695,0 -74.834,0Z" style="fill:none;stroke:#00f;stroke-width:0.03px;"/>
        <g id="Screw-holes1" serif:id="Screw holes">
            <circle cx="831.968" cy="355.714" r="4.252" style="fill:none;stroke:#00f;stroke-width:0.03px;"/>
            <circle cx="656.22" cy="355.714" r="4.252" style="fill:none;stroke:#00f;stroke-width:0.03px;"/>
            <circle cx="598.11" cy="38.216" r="4.252" style="fill:none;stroke:#00f;stroke-width:0.03px;"/>
            <circle cx="863.15" cy="62.328" r="4.252" style="fill:none;stroke:#00f;stroke-width:0.03px;"/>
            <circle cx="26.929" cy="62.328" r="4.252" style="fill:none;stroke:#00f;stroke-width:0.03px;"/>
            <circle cx="26.929" cy="265.005" r="4.252" style="fill:none;stroke:#00f;stroke-width:0.03px;"/>
            <circle cx="863.15" cy="265.005" r="4.252" style="fill:none;stroke:#00f;stroke-width:0.03px;"/>
            <circle cx="58.11" cy="355.748" r="4.252" style="fill:none;stroke:#00f;stroke-width:0.03px;"/>
            <circle cx="233.858" cy="355.748" r="4.252" style="fill:none;stroke:#00f;stroke-width:0.03px;"/>
            <circle cx="291.968" cy="38.25" r="4.252" style="fill:none;stroke:#00f;stroke-width:0.03px;"/>
        </g>
        <g id="Inlay-outline" serif:id="Inlay outline">
            <rect x="439.37" y="165.594" width="11.339" height="8.504" style="fill:none;stroke:#00f;stroke-width:0.03px;"/>
            <path d="M450.709,177.607c32.59,2.916 58.11,30.266 58.11,63.53c0,35.201 -28.579,63.78 -63.78,63.78c-35.201,0 -63.779,-28.579 -63.779,-63.78c0,-33.29 25.561,-60.658 58.11,-63.53l0,-3.509l11.339,0l0,3.509Z" style="fill:none;stroke:#00f;stroke-width:0.03px;"/>
        </g>
        <path id="Power-switch" serif:id="Power switch" d="M638.14,211.707l2.067,11.725l33.499,-5.907l-2.067,-11.724l-33.499,5.906Z" style="fill:none;stroke:#00f;stroke-width:0.03px;stroke-miterlimit:1;"/>
        <path id="Small-reset-switch-hole" serif:id="Small reset switch hole" d="M480.073,113.399c0,1.33 -1.079,2.409 -2.409,2.409c-1.33,0 -2.409,-1.079 -2.409,-2.409c0,-1.33 1.079,-2.41 2.409,-2.41c1.33,0 2.409,1.08 2.409,2.41Z" style="fill:none;stroke:#00f;stroke-width:0.03px;stroke-miterlimit:1;"/>
        <g id="Piece-number1" serif:id="Piece number">
            <path d="M682.076,19.637l0,-2.62l1.86,0c0.54,0 0.935,0.112 1.185,0.335c0.25,0.223 0.375,0.548 0.375,0.975c0,0.427 -0.125,0.753 -0.375,0.98c-0.25,0.227 -0.645,0.337 -1.185,0.33l-1.86,0Zm-0.95,-3.42l0,7.14l0.95,0l0,-2.92l2.18,0c0.72,0.007 1.265,-0.177 1.635,-0.55c0.37,-0.373 0.555,-0.893 0.555,-1.56c0,-0.667 -0.185,-1.185 -0.555,-1.555c-0.37,-0.37 -0.915,-0.555 -1.635,-0.555l-3.13,0Z" style="fill:none;stroke:#f00;stroke-width:0.03px;stroke-linecap:butt;stroke-miterlimit:1.41421;"/>
            <path d="M688.366,17.257l0,-1.04l-0.85,0l0,1.04l0.85,0Zm-0.85,0.93l0,5.17l0.85,0l0,-5.17l-0.85,0Z" style="fill:none;stroke:#f00;stroke-width:0.03px;stroke-linecap:butt;stroke-miterlimit:1.41421;"/>
            <path d="M693.276,20.277l-2.97,0c0.013,-0.2 0.057,-0.388 0.13,-0.565c0.073,-0.177 0.173,-0.332 0.3,-0.465c0.127,-0.133 0.278,-0.238 0.455,-0.315c0.177,-0.077 0.375,-0.115 0.595,-0.115c0.213,0 0.408,0.038 0.585,0.115c0.177,0.077 0.33,0.18 0.46,0.31c0.13,0.13 0.233,0.285 0.31,0.465c0.077,0.18 0.122,0.37 0.135,0.57Zm0.82,1.44l-0.84,0c-0.073,0.34 -0.225,0.593 -0.455,0.76c-0.23,0.167 -0.525,0.25 -0.885,0.25c-0.28,0 -0.523,-0.047 -0.73,-0.14c-0.207,-0.093 -0.377,-0.218 -0.51,-0.375c-0.133,-0.157 -0.23,-0.337 -0.29,-0.54c-0.06,-0.203 -0.087,-0.418 -0.08,-0.645l3.87,0c0.013,-0.313 -0.015,-0.643 -0.085,-0.99c-0.07,-0.347 -0.197,-0.667 -0.38,-0.96c-0.183,-0.293 -0.427,-0.535 -0.73,-0.725c-0.303,-0.19 -0.685,-0.285 -1.145,-0.285c-0.353,0 -0.678,0.067 -0.975,0.2c-0.297,0.133 -0.553,0.32 -0.77,0.56c-0.217,0.24 -0.385,0.523 -0.505,0.85c-0.12,0.327 -0.18,0.687 -0.18,1.08c0.013,0.393 0.072,0.757 0.175,1.09c0.103,0.333 0.258,0.62 0.465,0.86c0.207,0.24 0.462,0.427 0.765,0.56c0.303,0.133 0.662,0.2 1.075,0.2c0.587,0 1.073,-0.147 1.46,-0.44c0.387,-0.293 0.637,-0.73 0.75,-1.31Z" style="fill:none;stroke:#f00;stroke-width:0.03px;stroke-linecap:butt;stroke-miterlimit:1.41421;"/>
            <path d="M698.566,19.847l0.88,0c-0.033,-0.307 -0.113,-0.572 -0.24,-0.795c-0.127,-0.223 -0.288,-0.408 -0.485,-0.555c-0.197,-0.147 -0.423,-0.255 -0.68,-0.325c-0.257,-0.07 -0.532,-0.105 -0.825,-0.105c-0.407,0 -0.763,0.072 -1.07,0.215c-0.307,0.143 -0.562,0.34 -0.765,0.59c-0.203,0.25 -0.355,0.543 -0.455,0.88c-0.1,0.337 -0.15,0.698 -0.15,1.085c0,0.387 0.052,0.742 0.155,1.065c0.103,0.323 0.257,0.602 0.46,0.835c0.203,0.233 0.457,0.413 0.76,0.54c0.303,0.127 0.652,0.19 1.045,0.19c0.66,0 1.182,-0.173 1.565,-0.52c0.383,-0.347 0.622,-0.84 0.715,-1.48l-0.87,0c-0.053,0.4 -0.198,0.71 -0.435,0.93c-0.237,0.22 -0.565,0.33 -0.985,0.33c-0.267,0 -0.497,-0.053 -0.69,-0.16c-0.193,-0.107 -0.35,-0.248 -0.47,-0.425c-0.12,-0.177 -0.208,-0.378 -0.265,-0.605c-0.057,-0.227 -0.085,-0.46 -0.085,-0.7c0,-0.26 0.027,-0.512 0.08,-0.755c0.053,-0.243 0.142,-0.458 0.265,-0.645c0.123,-0.187 0.288,-0.337 0.495,-0.45c0.207,-0.113 0.463,-0.17 0.77,-0.17c0.36,0 0.647,0.09 0.86,0.27c0.213,0.18 0.353,0.433 0.42,0.76Z" style="fill:none;stroke:#f00;stroke-width:0.03px;stroke-linecap:butt;stroke-miterlimit:1.41421;"/>
            <path d="M704.016,20.277l-2.97,0c0.013,-0.2 0.057,-0.388 0.13,-0.565c0.073,-0.177 0.173,-0.332 0.3,-0.465c0.127,-0.133 0.278,-0.238 0.455,-0.315c0.177,-0.077 0.375,-0.115 0.595,-0.115c0.213,0 0.408,0.038 0.585,0.115c0.177,0.077 0.33,0.18 0.46,0.31c0.13,0.13 0.233,0.285 0.31,0.465c0.077,0.18 0.122,0.37 0.135,0.57Zm0.82,1.44l-0.84,0c-0.073,0.34 -0.225,0.593 -0.455,0.76c-0.23,0.167 -0.525,0.25 -0.885,0.25c-0.28,0 -0.523,-0.047 -0.73,-0.14c-0.207,-0.093 -0.377,-0.218 -0.51,-0.375c-0.133,-0.157 -0.23,-0.337 -0.29,-0.54c-0.06,-0.203 -0.087,-0.418 -0.08,-0.645l3.87,0c0.013,-0.313 -0.015,-0.643 -0.085,-0.99c-0.07,-0.347 -0.197,-0.667 -0.38,-0.96c-0.183,-0.293 -0.427,-0.535 -0.73,-0.725c-0.303,-0.19 -0.685,-0.285 -1.145,-0.285c-0.353,0 -0.678,0.067 -0.975,0.2c-0.297,0.133 -0.553,0.32 -0.77,0.56c-0.217,0.24 -0.385,0.523 -0.505,0.85c-0.12,0.327 -0.18,0.687 -0.18,1.08c0.013,0.393 0.072,0.757 0.175,1.09c0.103,0.333 0.258,0.62 0.465,0.86c0.207,0.24 0.462,0.427 0.765,0.56c0.303,0.133 0.662,0.2 1.075,0.2c0.587,0 1.073,-0.147 1.46,-0.44c0.387,-0.293 0.637,-0.73 0.75,-1.31Z" style="fill:none;stroke:#f00;stroke-width:0.03px;stroke-linecap:butt;stroke-miterlimit:1.41421;"/>
            <path d="M711.496,23.357l0,-7.09l-0.65,0c-0.047,0.267 -0.133,0.487 -0.26,0.66c-0.127,0.173 -0.282,0.31 -0.465,0.41c-0.183,0.1 -0.388,0.168 -0.615,0.205c-0.227,0.037 -0.46,0.055 -0.7,0.055l0,0.68l1.84,0l0,5.08l0.85,0Z" style="fill:none;stroke:#f00;stroke-width:0.03px;stroke-linecap:butt;stroke-miterlimit:1.41421;"/>
            <path d="M675.095,22.677l2.385,-3.812l-4.77,0l2.385,3.812Z" style="fill:none;stroke:#f00;stroke-width:0.03px;stroke-miterlimit:1;"/>
        </g>
    </g>
    <g id="_3mm-PCB-Wrapper--also-covers-solder-joints-" serif:id="3mm PCB Wrapper (also covers solder joints)">
        <g id="Screw-holes2" serif:id="Screw holes">
            <circle cx="831.968" cy="710.112" r="4.252" style="fill:none;stroke:#00f;stroke-width:0.03px;"/>
            <circle cx="656.22" cy="710.112" r="4.252" style="fill:none;stroke:#00f;stroke-width:0.03px;"/>
            <circle cx="598.11" cy="392.615" r="4.252" style="fill:none;stroke:#00f;stroke-width:0.03px;"/>
            <circle cx="863.15" cy="416.726" r="4.252" style="fill:none;stroke:#00f;stroke-width:0.03px;"/>
            <circle cx="26.929" cy="416.726" r="4.252" style="fill:none;stroke:#00f;stroke-width:0.03px;"/>
            <circle cx="26.929" cy="619.404" r="4.252" style="fill:none;stroke:#00f;stroke-width:0.03px;"/>
            <circle cx="863.15" cy="619.404" r="4.252" style="fill:none;stroke:#00f;stroke-width:0.03px;"/>
            <circle cx="58.11" cy="710.146" r="4.252" style="fill:none;stroke:#00f;stroke-width:0.03px;"/>
            <circle cx="233.858" cy="710.146" r="4.252" style="fill:none;stroke:#00f;stroke-width:0.03px;"/>
            <circle cx="291.968" cy="392.649" r="4.252" style="fill:none;stroke:#00f;stroke-width:0.03px;"/>
        </g>
        <path id="Inside-shape" serif:id="Inside shape" d="M873.071,637.795l-324.421,51.023l-208.501,0l-323.141,-55.372l0.555,-231.479c0,0 0,-0.001 0,-0.002c0,-1.26 1.02,-2.28 2.279,-2.28l242.93,0l153.921,30.932l56.693,0l154.049,-30.932l242.801,0c1.566,0 2.835,1.269 2.835,2.834c0,25.825 0,235.276 0,235.276Z" style="fill:none;stroke:#00f;stroke-width:0.03px;"/>
        <path id="Outside-shape3" serif:id="Outside shape" d="M870.803,368.504c2.818,0 5.102,2.284 5.102,5.102c0,40.097 0,304.029 0,344.126c0,2.818 -2.284,5.102 -5.102,5.102c-30.784,0 -191.452,0 -222.236,0c-2.818,0 -5.102,-2.284 -5.102,-5.102c0,-1.291 0,-2.678 0,-3.969c0,-1.353 -0.538,-2.651 -1.495,-3.608c-0.957,-0.956 -2.255,-1.494 -3.608,-1.494c-42.955,0 -343.69,0 -386.645,0c-1.354,0 -2.652,0.538 -3.608,1.494c-0.957,0.957 -1.495,2.255 -1.495,3.608c0,1.291 0,2.678 0,3.969c0,2.818 -2.284,5.102 -5.102,5.102c-30.784,0 -191.452,0 -222.236,0c-2.818,0 -5.103,-2.284 -5.103,-5.102c0,-40.097 0,-304.029 0,-344.126c0,-2.818 2.285,-5.102 5.103,-5.102" style="fill:none;stroke:#00f;stroke-width:0.03px;"/>
        <path id="Outside-shape4" serif:id="Outside shape" d="M94.11,368.504c2.818,0 5.103,2.284 5.103,5.102c0,0.377 0,0.757 0,1.134c0,1.353 0.537,2.651 1.494,3.608c0.957,0.957 2.255,1.494 3.608,1.494l327.968,0l0,4.969l-16.879,0l0,30.33l59.058,0l0,-30.33l-16.667,0l0,-4.969l327.969,0c1.353,0 2.651,-0.537 3.608,-1.494c0.957,-0.957 1.494,-2.255 1.494,-3.608c0,-0.377 0,-0.757 0,-1.134c0,-2.818 2.285,-5.102 5.102,-5.102" style="fill:none;stroke:#00f;stroke-width:0.03px;"/>
        <g id="Piece-number2" serif:id="Piece number">
            <path d="M682.076,373.968l0,-2.62l1.86,0c0.54,0 0.935,0.112 1.185,0.335c0.25,0.223 0.375,0.548 0.375,0.975c0,0.427 -0.125,0.753 -0.375,0.98c-0.25,0.227 -0.645,0.337 -1.185,0.33l-1.86,0Zm-0.95,-3.42l0,7.14l0.95,0l0,-2.92l2.18,0c0.72,0.007 1.265,-0.177 1.635,-0.55c0.37,-0.373 0.555,-0.893 0.555,-1.56c0,-0.667 -0.185,-1.185 -0.555,-1.555c-0.37,-0.37 -0.915,-0.555 -1.635,-0.555l-3.13,0Z" style="fill:none;stroke:#f00;stroke-width:0.03px;stroke-linecap:butt;stroke-miterlimit:1.41421;"/>
            <path d="M688.366,371.588l0,-1.04l-0.85,0l0,1.04l0.85,0Zm-0.85,0.93l0,5.17l0.85,0l0,-5.17l-0.85,0Z" style="fill:none;stroke:#f00;stroke-width:0.03px;stroke-linecap:butt;stroke-miterlimit:1.41421;"/>
            <path d="M693.276,374.608l-2.97,0c0.013,-0.2 0.057,-0.388 0.13,-0.565c0.073,-0.177 0.173,-0.332 0.3,-0.465c0.127,-0.133 0.278,-0.238 0.455,-0.315c0.177,-0.077 0.375,-0.115 0.595,-0.115c0.213,0 0.408,0.038 0.585,0.115c0.177,0.077 0.33,0.18 0.46,0.31c0.13,0.13 0.233,0.285 0.31,0.465c0.077,0.18 0.122,0.37 0.135,0.57Zm0.82,1.44l-0.84,0c-0.073,0.34 -0.225,0.593 -0.455,0.76c-0.23,0.167 -0.525,0.25 -0.885,0.25c-0.28,0 -0.523,-0.047 -0.73,-0.14c-0.207,-0.093 -0.377,-0.218 -0.51,-0.375c-0.133,-0.157 -0.23,-0.337 -0.29,-0.54c-0.06,-0.203 -0.087,-0.418 -0.08,-0.645l3.87,0c0.013,-0.313 -0.015,-0.643 -0.085,-0.99c-0.07,-0.347 -0.197,-0.667 -0.38,-0.96c-0.183,-0.293 -0.427,-0.535 -0.73,-0.725c-0.303,-0.19 -0.685,-0.285 -1.145,-0.285c-0.353,0 -0.678,0.067 -0.975,0.2c-0.297,0.133 -0.553,0.32 -0.77,0.56c-0.217,0.24 -0.385,0.523 -0.505,0.85c-0.12,0.327 -0.18,0.687 -0.18,1.08c0.013,0.393 0.072,0.757 0.175,1.09c0.103,0.333 0.258,0.62 0.465,0.86c0.207,0.24 0.462,0.427 0.765,0.56c0.303,0.133 0.662,0.2 1.075,0.2c0.587,0 1.073,-0.147 1.46,-0.44c0.387,-0.293 0.637,-0.73 0.75,-1.31Z" style="fill:none;stroke:#f00;stroke-width:0.03px;stroke-linecap:butt;stroke-miterlimit:1.41421;"/>
            <path d="M698.566,374.178l0.88,0c-0.033,-0.307 -0.113,-0.572 -0.24,-0.795c-0.127,-0.223 -0.288,-0.408 -0.485,-0.555c-0.197,-0.147 -0.423,-0.255 -0.68,-0.325c-0.257,-0.07 -0.532,-0.105 -0.825,-0.105c-0.407,0 -0.763,0.072 -1.07,0.215c-0.307,0.143 -0.562,0.34 -0.765,0.59c-0.203,0.25 -0.355,0.543 -0.455,0.88c-0.1,0.337 -0.15,0.698 -0.15,1.085c0,0.387 0.052,0.742 0.155,1.065c0.103,0.323 0.257,0.602 0.46,0.835c0.203,0.233 0.457,0.413 0.76,0.54c0.303,0.127 0.652,0.19 1.045,0.19c0.66,0 1.182,-0.173 1.565,-0.52c0.383,-0.347 0.622,-0.84 0.715,-1.48l-0.87,0c-0.053,0.4 -0.198,0.71 -0.435,0.93c-0.237,0.22 -0.565,0.33 -0.985,0.33c-0.267,0 -0.497,-0.053 -0.69,-0.16c-0.193,-0.107 -0.35,-0.248 -0.47,-0.425c-0.12,-0.177 -0.208,-0.378 -0.265,-0.605c-0.057,-0.227 -0.085,-0.46 -0.085,-0.7c0,-0.26 0.027,-0.512 0.08,-0.755c0.053,-0.243 0.142,-0.458 0.265,-0.645c0.123,-0.187 0.288,-0.337 0.495,-0.45c0.207,-0.113 0.463,-0.17 0.77,-0.17c0.36,0 0.647,0.09 0.86,0.27c0.213,0.18 0.353,0.433 0.42,0.76Z" style="fill:none;stroke:#f00;stroke-width:0.03px;stroke-linecap:butt;stroke-miterlimit:1.41421;"/>
            <path d="M704.016,374.608l-2.97,0c0.013,-0.2 0.057,-0.388 0.13,-0.565c0.073,-0.177 0.173,-0.332 0.3,-0.465c0.127,-0.133 0.278,-0.238 0.455,-0.315c0.177,-0.077 0.375,-0.115 0.595,-0.115c0.213,0 0.408,0.038 0.585,0.115c0.177,0.077 0.33,0.18 0.46,0.31c0.13,0.13 0.233,0.285 0.31,0.465c0.077,0.18 0.122,0.37 0.135,0.57Zm0.82,1.44l-0.84,0c-0.073,0.34 -0.225,0.593 -0.455,0.76c-0.23,0.167 -0.525,0.25 -0.885,0.25c-0.28,0 -0.523,-0.047 -0.73,-0.14c-0.207,-0.093 -0.377,-0.218 -0.51,-0.375c-0.133,-0.157 -0.23,-0.337 -0.29,-0.54c-0.06,-0.203 -0.087,-0.418 -0.08,-0.645l3.87,0c0.013,-0.313 -0.015,-0.643 -0.085,-0.99c-0.07,-0.347 -0.197,-0.667 -0.38,-0.96c-0.183,-0.293 -0.427,-0.535 -0.73,-0.725c-0.303,-0.19 -0.685,-0.285 -1.145,-0.285c-0.353,0 -0.678,0.067 -0.975,0.2c-0.297,0.133 -0.553,0.32 -0.77,0.56c-0.217,0.24 -0.385,0.523 -0.505,0.85c-0.12,0.327 -0.18,0.687 -0.18,1.08c0.013,0.393 0.072,0.757 0.175,1.09c0.103,0.333 0.258,0.62 0.465,0.86c0.207,0.24 0.462,0.427 0.765,0.56c0.303,0.133 0.662,0.2 1.075,0.2c0.587,0 1.073,-0.147 1.46,-0.44c0.387,-0.293 0.637,-0.73 0.75,-1.31Z" style="fill:none;stroke:#f00;stroke-width:0.03px;stroke-linecap:butt;stroke-miterlimit:1.41421;"/>
            <path d="M710.116,373.638l0,0.72c0.16,-0.02 0.33,-0.03 0.51,-0.03c0.213,0 0.412,0.028 0.595,0.085c0.183,0.057 0.342,0.143 0.475,0.26c0.133,0.117 0.24,0.26 0.32,0.43c0.08,0.17 0.12,0.365 0.12,0.585c0,0.213 -0.042,0.405 -0.125,0.575c-0.083,0.17 -0.195,0.313 -0.335,0.43c-0.14,0.117 -0.303,0.207 -0.49,0.27c-0.187,0.063 -0.383,0.095 -0.59,0.095c-0.487,0 -0.857,-0.145 -1.11,-0.435c-0.253,-0.29 -0.387,-0.665 -0.4,-1.125l-0.85,0c-0.007,0.367 0.045,0.693 0.155,0.98c0.11,0.287 0.268,0.528 0.475,0.725c0.207,0.197 0.457,0.345 0.75,0.445c0.293,0.1 0.62,0.15 0.98,0.15c0.333,0 0.648,-0.045 0.945,-0.135c0.297,-0.09 0.555,-0.225 0.775,-0.405c0.22,-0.18 0.395,-0.405 0.525,-0.675c0.13,-0.27 0.195,-0.582 0.195,-0.935c0,-0.427 -0.105,-0.797 -0.315,-1.11c-0.21,-0.313 -0.532,-0.517 -0.965,-0.61l0,-0.02c0.28,-0.127 0.513,-0.313 0.7,-0.56c0.187,-0.247 0.28,-0.53 0.28,-0.85c0,-0.327 -0.055,-0.61 -0.165,-0.85c-0.11,-0.24 -0.262,-0.437 -0.455,-0.59c-0.193,-0.153 -0.422,-0.268 -0.685,-0.345c-0.263,-0.077 -0.548,-0.115 -0.855,-0.115c-0.353,0 -0.665,0.057 -0.935,0.17c-0.27,0.113 -0.495,0.27 -0.675,0.47c-0.18,0.2 -0.318,0.44 -0.415,0.72c-0.097,0.28 -0.152,0.59 -0.165,0.93l0.85,0c0,-0.207 0.027,-0.403 0.08,-0.59c0.053,-0.187 0.135,-0.35 0.245,-0.49c0.11,-0.14 0.25,-0.252 0.42,-0.335c0.17,-0.083 0.368,-0.125 0.595,-0.125c0.36,0 0.66,0.095 0.9,0.285c0.24,0.19 0.36,0.475 0.36,0.855c0,0.187 -0.037,0.353 -0.11,0.5c-0.073,0.147 -0.172,0.268 -0.295,0.365c-0.123,0.097 -0.267,0.17 -0.43,0.22c-0.163,0.05 -0.335,0.075 -0.515,0.075l-0.18,0c-0.033,0 -0.067,0 -0.1,0c-0.027,0 -0.057,-0.003 -0.09,-0.01Z" style="fill:none;stroke:#f00;stroke-width:0.03px;stroke-linecap:butt;stroke-miterlimit:1.41421;"/>
            <path d="M675.095,377.008l2.385,-3.813l-4.77,0l2.385,3.813Z" style="fill:none;stroke:#f00;stroke-width:0.03px;stroke-miterlimit:1;"/>
        </g>
    </g>
    <path d="M246.049,538.583c2.916,-32.59 30.267,-58.11 63.531,-58.11c35.201,0 63.779,28.578 63.779,63.779c0,35.201 -28.578,63.78 -63.779,63.78c-33.291,0 -60.658,-25.561 -63.531,-58.111l-3.509,0l0,-11.338l3.509,0Z" style="fill:none;stroke:#00f;stroke-width:0.03px;"/>
    <g id="Impossible-triangle" serif:id="Impossible triangle">
        <path d="M345.121,588.872l0.034,0.058l-15.126,8.86c-0.807,0.279 -1.039,0.138 -1.51,-0.094l-74.87,-43.173c-0.816,-0.549 -0.951,-0.684 -0.852,-1.541l0,-17.538c0.005,-0.074 0.01,-0.148 0.015,-0.222c0.165,-0.832 0.402,-0.961 0.836,-1.251l74.87,-43.226c0.553,-0.273 1.175,-0.227 1.667,0.053l0.032,-0.055l15.41,8.888c0.381,0.333 0.615,0.536 0.667,1.356l-0.299,86.482c-0.048,0.609 -0.394,1.118 -0.874,1.403Zm-51.009,-42.671l-8.81,5.086l57.301,33.23l0.286,-82.554l-11.822,-6.805l-0.044,69.409c-0.08,1.221 -1.384,2.047 -2.551,1.471l-34.36,-19.837Zm21.273,-16.21l0,-10.173l-57.485,33.23l71.461,41.207l11.558,-6.783l-59.866,-34.717c-0.518,-0.354 -0.915,-0.585 -0.828,-1.726c0.21,-0.919 0.424,-0.941 0.831,-1.218l34.329,-19.82Zm-59.186,20.111l60.035,-34.704c1.102,-0.538 2.461,0.179 2.552,1.473l0,39.647l8.838,5.103l0.041,-66.457l-71.466,41.262l0,13.676Zm59.186,4.453l0,-20.636l-17.871,10.318l17.871,10.318Z" style="fill-rule:nonzero;stroke:#f00;stroke-width:0.03px;stroke-linecap:butt;stroke-miterlimit:1.41421;"/>
    </g>
    <g id="Impossible-triangle1" serif:id="Impossible triangle">
        <path d="M482.212,588.871l0.034,0.058l-15.126,8.86c-0.807,0.279 -1.039,0.138 -1.51,-0.094l-74.87,-43.173c-0.816,-0.549 -0.951,-0.684 -0.852,-1.541l0,-17.538c0.005,-0.074 0.01,-0.148 0.015,-0.222c0.165,-0.832 0.402,-0.961 0.836,-1.251l74.87,-43.226c0.553,-0.273 1.175,-0.227 1.667,0.053l0.032,-0.055l15.41,8.888c0.381,0.333 0.615,0.536 0.667,1.356l-0.299,86.482c-0.048,0.609 -0.394,1.118 -0.874,1.403Zm-51.009,-42.671l-8.81,5.086l57.301,33.23l0.286,-82.554l-11.822,-6.805l-0.044,69.409c-0.08,1.221 -1.384,2.047 -2.551,1.471l-34.36,-19.837Zm21.273,-16.21l0,-10.173l-57.485,33.23l71.461,41.207l11.558,-6.783l-59.866,-34.717c-0.518,-0.354 -0.915,-0.585 -0.828,-1.726c0.21,-0.919 0.424,-0.941 0.831,-1.218l34.329,-19.82Zm-59.186,20.111l60.035,-34.704c1.102,-0.538 2.461,0.179 2.552,1.473l0,39.647l8.838,5.103l0.041,-66.457l-71.466,41.262l0,13.676Zm59.186,4.453l0,-20.636l-17.871,10.318l17.871,10.318Z" style="fill:none;stroke:#00f;stroke-width:0.03px;stroke-linecap:butt;stroke-miterlimit:1.41421;"/>
        <path d="M383.139,538.582c2.916,-32.59 30.266,-58.111 63.53,-58.111c35.201,0 63.78,28.579 63.78,63.78c0,35.201 -28.579,63.78 -63.78,63.78c-33.29,0 -60.658,-25.561 -63.53,-58.111l-3.509,0l0,-11.338l3.509,0Z" style="fill:none;stroke:#00f;stroke-width:0.03px;"/>
        <path d="M520.228,538.582c2.916,-32.59 30.267,-58.111 63.531,-58.111c35.201,0 63.779,28.579 63.779,63.78c0,35.201 -28.578,63.78 -63.779,63.78c-33.291,0 -60.658,-25.561 -63.531,-58.111l-3.509,0l0,-11.338l3.509,0Z" style="fill:none;stroke:#00f;stroke-width:0.03px;"/>
    </g>
</svg>
