<?xml version="1.0" encoding="UTF-8" standalone="no"?>
<!-- Created with Inkscape (http://www.inkscape.org/) -->
<svg
   xmlns:svg="http://www.w3.org/2000/svg"
   xmlns="http://www.w3.org/2000/svg"
   version="1.0"
   width="435"
   height="482"
   id="svg2">
  <defs
     id="defs34" />
  <g
     id="layer1">
    <g
       id="g7542">
      <path
         d="M 262.5 241.5 A 47 47 0 1 1  168.5,241.5 A 47 47 0 1 1  262.5 241.5 z"
         style="fill:none;stroke:black"
         id="path1933" />
      <path
         d="M 262.5 335.5 A 47 47 0 1 1  168.5,335.5 A 47 47 0 1 1  262.5 335.5 z"
         style="fill:none;stroke:black"
         id="path1961" />
      <path
         d="M 262.5 147.5 A 47 47 0 1 1  168.5,147.5 A 47 47 0 1 1  262.5 147.5 z"
         style="fill:none;stroke:black"
         id="path1967" />
      <path
         d="M 180.5 194.5 A 47 47 0 1 1  86.5,194.5 A 47 47 0 1 1  180.5 194.5 z"
         style="fill:none;stroke:black"
         id="path1971" />
      <path
         d="M 344.5 194.5 A 47 47 0 1 1  250.5,194.5 A 47 47 0 1 1  344.5 194.5 z"
         style="fill:none;stroke:black"
         id="path1973" />
      <path
         d="M 180.5 288.5 A 47 47 0 1 1  86.5,288.5 A 47 47 0 1 1  180.5 288.5 z"
         style="fill:none;stroke:black"
         id="path1979" />
      <path
         d="M 344.5 288.5 A 47 47 0 1 1  250.5,288.5 A 47 47 0 1 1  344.5 288.5 z"
         style="fill:none;stroke:black"
         id="path1981" />
      <path
         d="M 262.5 429.5 A 47 47 0 1 1  168.5,429.5 A 47 47 0 1 1  262.5 429.5 z"
         style="fill:none;stroke:black"
         id="path1963" />
      <path
         d="M 262.5 53.5 A 47 47 0 1 1  168.5,53.5 A 47 47 0 1 1  262.5 53.5 z"
         style="fill:none;stroke:black"
         id="path1965" />
      <path
         d="M 98.5 147.5 A 47 47 0 1 1  4.5,147.5 A 47 47 0 1 1  98.5 147.5 z"
         style="fill:none;stroke:black"
         id="path1969" />
      <path
         d="M 426.5 147.5 A 47 47 0 1 1  332.5,147.5 A 47 47 0 1 1  426.5 147.5 z"
         style="fill:none;stroke:black"
         id="path1975" />
      <path
         d="M 98.5 335.5 A 47 47 0 1 1  4.5,335.5 A 47 47 0 1 1  98.5 335.5 z"
         style="fill:none;stroke:black"
         id="path1977" />
      <path
         d="M 426.5 335.5 A 47 47 0 1 1  332.5,335.5 A 47 47 0 1 1  426.5 335.5 z"
         style="fill:none;stroke:black"
         id="path1983" />
    </g>
    <g
       id="g7557">
      <path
         d="M 215.5,53.5 L 379.5,147.5 L 379.5,335.5 L 215.5,429.5 L 51.5,335.5 L 51.5,147.5 L 215.5,53.5 z "
         style="fill:none;stroke:black"
         id="path2886" />
      <path
         d="M 215.5,53.5 L 51.5,335.5 L 379.5,335.5 L 215.5,53.5 z "
         style="fill:none;stroke:black"
         id="path2888" />
      <path
         d="M 51.5,147.5 L 215.5,429.5 L 379.5,147.5 L 51.5,147.5 z "
         style="fill:none;stroke:black"
         id="path2890" />
      <path
         d="M 215.5,147.5 L 133.5,194.5 L 133.5,288.5 L 215.5,335.5 L 297.5,288.5 L 297.5,194.5 L 215.5,147.5 z "
         style="fill:none;stroke:black"
         id="path2892" />
      <path
         d="M 133.5,288.5 L 215.5,53.5 L 297.5,288.5 L 133.5,288.5 z "
         style="fill:none;stroke:black"
         id="path2894" />
      <path
         d="M 215.5,429.5 L 133.5,194.5 L 297.5,194.5 L 215.5,429.5 z "
         style="fill:none;stroke:black"
         id="path2896" />
      <path
         d="M 51.5,147.5 L 379.5,335.5"
         style="fill:none;stroke:black"
         id="path2898" />
      <path
         d="M 51.5,335.5 L 379.5,147.5"
         style="fill:none;stroke:black"
         id="path2900" />
      <path
         d="M 215.5,53.5 L 215.5,429.5"
         style="fill:none;stroke:black"
         id="path2902" />
      <path
         d="M 51.5,335.5 L 215.5,147.5 L 297.5,288.5 L 51.5,335.5 z "
         style="fill:none;stroke:black"
         id="path2904" />
      <path
         d="M 379.5,335.5 L 215.5,147.5 L 133.5,288.5 L 379.5,335.5 z "
         style="fill:none;stroke:black"
         id="path2906" />
      <path
         d="M 379.5,147.5 L 133.5,194.5 L 215.5,335.5 L 379.5,147.5 z "
         style="fill:none;stroke:black"
         id="path2908" />
      <path
         d="M 51.5,147.5 L 215.5,335.5 L 297.5,194.5 L 51.5,147.5 z "
         style="fill:none;stroke:black"
         id="path2910" />
    </g>
  </g>
</svg>
