<?xml version="1.0" encoding="UTF-8" standalone="no"?>
<!DOCTYPE svg PUBLIC "-//W3C//DTD SVG 1.1//EN" "http://www.w3.org/Graphics/SVG/1.1/DTD/svg11.dtd">
<svg width="808px" height="269px" version="1.1" xmlns="http://www.w3.org/2000/svg" xmlns:xlink="http://www.w3.org/1999/xlink" xml:space="preserve" xmlns:serif="http://www.serif.com/" style="fill-rule:evenodd;clip-rule:evenodd;stroke-linecap:round;stroke-linejoin:round;">
    <g id="Engravings">
        <g id="Designmark">
            <path d="M745.769,258.182l0.5,0l3.39,-8.85l-0.49,0l-3.4,8.85Z" style="fill-rule:nonzero;"/>
            <path d="M755.559,256.582l0,-0.22l-0.07,0c-0.52,0 -0.61,-0.18 -0.61,-1.18l0,-1.89c0,-0.45 0.02,-1.11 0.05,-1.86l-1.55,0.1l0,0.22l0.18,0c0.18,0.01 0.28,0.04 0.34,0.1c0.12,0.09 0.15,0.28 0.15,0.81l0,1.54c0,0.62 -0.03,0.84 -0.18,1.18c-0.26,0.61 -0.75,0.97 -1.3,0.97c-0.41,0 -0.69,-0.19 -0.81,-0.56c-0.12,-0.35 -0.14,-0.62 -0.14,-1.63l0,-0.87c0,-0.69 0.01,-0.93 0.06,-1.86l-1.55,0.1l0,0.22l0.18,0c0.19,0.01 0.28,0.03 0.34,0.09c0.11,0.09 0.15,0.3 0.15,0.82l0,1.65c0,0.87 0.04,1.28 0.14,1.55c0.2,0.53 0.69,0.84 1.33,0.84c0.74,0 1.39,-0.4 1.78,-1.08c0,0.49 0.02,0.79 0.05,1.03l1.46,-0.07Z" style="fill-rule:nonzero;"/>
            <path d="M755.619,258.182l0.5,0l3.39,-8.85l-0.49,0l-3.4,8.85Z" style="fill-rule:nonzero;"/>
            <path d="M762.749,255.822l-1.17,-3.2c-0.08,-0.2 -0.14,-0.44 -0.14,-0.53c0,-0.22 0.2,-0.33 0.66,-0.34l0,-0.22l-2.25,0l0,0.22c0.43,0.01 0.58,0.14 0.79,0.72l1.58,4.15l0.57,0l1.44,-3.87c0.28,-0.75 0.52,-0.98 1.05,-1l0,-0.22l-2.05,0l0,0.22c0.54,0.02 0.77,0.14 0.77,0.4c0,0.11 -0.05,0.34 -0.12,0.53l-1.13,3.14Z" style="fill-rule:nonzero;"/>
            <path d="M765.829,254.132c0,1.55 0.96,2.58 2.41,2.58c1.52,0 2.48,-1.05 2.48,-2.72c0,-1.57 -0.96,-2.6 -2.42,-2.6c-0.69,0 -1.32,0.24 -1.74,0.67c-0.46,0.47 -0.73,1.24 -0.73,2.07Zm0.93,-0.13c0,-1.53 0.53,-2.38 1.49,-2.38c0.98,0 1.54,0.9 1.54,2.46c0,1.54 -0.54,2.39 -1.52,2.39c-0.96,0 -1.51,-0.9 -1.51,-2.47Z" style="fill-rule:nonzero;"/>
            <path d="M771.719,256.602c0.2,-0.03 0.34,-0.04 0.45,-0.04c0.11,0 0.23,0.01 0.37,0.03c0.59,0.1 0.72,0.12 1,0.12c0.94,0 1.55,-0.59 1.55,-1.51c0,-0.39 -0.12,-0.72 -0.33,-0.95c-0.23,-0.25 -0.48,-0.4 -1.15,-0.68c-0.66,-0.28 -0.85,-0.38 -1.04,-0.52c-0.18,-0.13 -0.27,-0.31 -0.27,-0.54c0,-0.54 0.4,-0.89 1.02,-0.89c0.73,0 1.17,0.53 1.19,1.42l0.33,0l0.05,-1.58c-0.2,0.05 -0.36,0.07 -0.48,0.07c-0.06,0 -0.13,-0.01 -0.21,-0.02c-0.54,-0.1 -0.67,-0.12 -0.93,-0.12c-0.5,0 -0.97,0.21 -1.24,0.57c-0.17,0.23 -0.27,0.57 -0.27,0.92c0,0.68 0.33,1.04 1.41,1.51c0.91,0.4 0.94,0.41 1.12,0.56c0.15,0.13 0.24,0.35 0.24,0.58c0,0.59 -0.41,0.94 -1.09,0.94c-0.46,0 -0.83,-0.18 -1.09,-0.54c-0.17,-0.22 -0.24,-0.46 -0.28,-0.93l-0.31,0l-0.04,1.6Z" style="fill-rule:nonzero;"/>
            <path d="M780.569,253.762c-0.02,-0.59 -0.06,-0.83 -0.16,-1.1c-0.31,-0.81 -1,-1.27 -1.91,-1.27c-1.41,0 -2.37,1.11 -2.37,2.73c0,1.53 0.98,2.59 2.41,2.59c0.98,0 1.66,-0.43 2.11,-1.35l-0.23,-0.13c-0.4,0.76 -0.94,1.13 -1.65,1.13c-0.72,0 -1.21,-0.36 -1.5,-1.1c-0.16,-0.41 -0.22,-0.81 -0.23,-1.5l3.53,0Zm-3.51,-0.27c0.06,-0.52 0.12,-0.78 0.27,-1.07c0.27,-0.51 0.67,-0.78 1.15,-0.78c0.47,0 0.81,0.25 1.03,0.74c0.13,0.29 0.18,0.58 0.19,1.11l-2.64,0Z" style="fill-rule:nonzero;"/>
            <path d="M785.719,255.162c-0.34,0.8 -0.89,1.21 -1.61,1.21c-1.04,0 -1.67,-0.93 -1.67,-2.45c0,-1.44 0.54,-2.28 1.45,-2.28c0.58,0 0.99,0.37 1.05,0.92c0.02,0.26 0.02,0.28 0.08,0.34c0.07,0.06 0.2,0.1 0.34,0.1c0.31,0 0.5,-0.12 0.5,-0.31c0,-0.25 -0.17,-0.55 -0.43,-0.79c-0.36,-0.32 -0.9,-0.51 -1.48,-0.51c-1.46,0 -2.45,1.1 -2.45,2.73c0,1.53 0.98,2.59 2.39,2.59c0.96,0 1.65,-0.48 2.06,-1.41l-0.23,-0.14Z" style="fill-rule:nonzero;"/>
            <path d="M788.049,251.252c0,-0.87 0.01,-1.24 0.05,-2l-1.6,0.08l0,0.22c0.69,0.01 0.73,0.06 0.73,0.91l0,4.87c0,0.94 -0.05,1.01 -0.73,1.03l0,0.22l2.27,0l0,-0.22c-0.67,-0.02 -0.72,-0.09 -0.72,-1.03l0,-1.61c0,-0.33 0.03,-0.53 0.1,-0.75c0.1,-0.31 0.27,-0.61 0.47,-0.82c0.24,-0.25 0.59,-0.39 0.99,-0.39c0.43,0 0.72,0.16 0.88,0.48c0.11,0.2 0.16,0.57 0.16,1.08l0,2.01c0,0.94 -0.05,1.01 -0.73,1.03l0,0.22l2.27,0l0,-0.22c-0.67,-0.02 -0.72,-0.1 -0.72,-1.03l0,-2c0,-0.55 -0.06,-0.97 -0.18,-1.22c-0.24,-0.47 -0.73,-0.72 -1.46,-0.72c-0.82,0 -1.31,0.3 -1.78,1.07l0,-1.21Z" style="fill-rule:nonzero;"/>
            <path d="M798.089,256.582l0,-0.22l-0.07,0c-0.52,0 -0.61,-0.18 -0.61,-1.18l0,-1.89c0,-0.45 0.02,-1.11 0.05,-1.86l-1.55,0.1l0,0.22l0.18,0c0.18,0.01 0.28,0.04 0.34,0.1c0.12,0.09 0.15,0.28 0.15,0.81l0,1.54c0,0.62 -0.03,0.84 -0.18,1.18c-0.26,0.61 -0.75,0.97 -1.3,0.97c-0.41,0 -0.69,-0.19 -0.81,-0.56c-0.12,-0.35 -0.14,-0.62 -0.14,-1.63l0,-0.87c0,-0.69 0.01,-0.93 0.06,-1.86l-1.55,0.1l0,0.22l0.18,0c0.19,0.01 0.28,0.03 0.34,0.09c0.11,0.09 0.15,0.3 0.15,0.82l0,1.65c0,0.87 0.04,1.28 0.14,1.55c0.2,0.53 0.69,0.84 1.33,0.84c0.74,0 1.39,-0.4 1.78,-1.08c0,0.49 0.02,0.79 0.05,1.03l1.46,-0.07Z" style="fill-rule:nonzero;"/>
            <path d="M740.489,246.252l2.57,0c1.21,0 2.03,-0.17 2.64,-0.56c0.91,-0.59 1.4,-1.68 1.4,-3.11c0,-1.5 -0.53,-2.59 -1.55,-3.17c-0.49,-0.28 -1.21,-0.41 -2.24,-0.41l-2.82,0l0,0.24c0.46,0 0.64,0.08 0.71,0.29c0.03,0.09 0.03,0.1 0.05,0.74l0,4.71c-0.02,0.75 -0.02,0.76 -0.13,0.88c-0.09,0.1 -0.29,0.15 -0.63,0.15l0,0.24Zm1.67,-0.3l0,-6.65l0.95,0c1.2,0 2.02,0.36 2.44,1.06c0.35,0.6 0.54,1.43 0.54,2.39c0,1.04 -0.25,1.87 -0.71,2.4c-0.45,0.52 -1.22,0.8 -2.2,0.8l-1.02,0Z" style="fill-rule:nonzero;"/>
            <path d="M752.639,243.432c-0.02,-0.59 -0.06,-0.83 -0.16,-1.1c-0.31,-0.81 -1,-1.27 -1.91,-1.27c-1.41,0 -2.37,1.11 -2.37,2.73c0,1.53 0.98,2.59 2.41,2.59c0.98,0 1.66,-0.43 2.11,-1.35l-0.23,-0.13c-0.4,0.76 -0.94,1.13 -1.65,1.13c-0.72,0 -1.21,-0.36 -1.5,-1.1c-0.16,-0.41 -0.22,-0.81 -0.23,-1.5l3.53,0Zm-3.51,-0.27c0.06,-0.52 0.12,-0.78 0.27,-1.07c0.27,-0.51 0.67,-0.78 1.15,-0.78c0.47,0 0.81,0.25 1.03,0.74c0.13,0.29 0.18,0.58 0.19,1.11l-2.64,0Z" style="fill-rule:nonzero;"/>
            <path d="M753.589,246.272c0.2,-0.03 0.34,-0.04 0.45,-0.04c0.11,0 0.23,0.01 0.37,0.03c0.59,0.1 0.72,0.12 1,0.12c0.94,0 1.55,-0.59 1.55,-1.51c0,-0.39 -0.12,-0.72 -0.33,-0.95c-0.23,-0.25 -0.48,-0.4 -1.15,-0.68c-0.66,-0.28 -0.85,-0.38 -1.04,-0.52c-0.18,-0.13 -0.27,-0.31 -0.27,-0.54c0,-0.54 0.4,-0.89 1.02,-0.89c0.73,0 1.17,0.53 1.19,1.42l0.33,0l0.05,-1.58c-0.2,0.05 -0.36,0.07 -0.48,0.07c-0.06,0 -0.13,-0.01 -0.21,-0.02c-0.54,-0.1 -0.67,-0.12 -0.93,-0.12c-0.5,0 -0.97,0.21 -1.24,0.57c-0.17,0.23 -0.27,0.57 -0.27,0.92c0,0.68 0.33,1.04 1.41,1.51c0.91,0.4 0.94,0.41 1.12,0.56c0.15,0.13 0.24,0.35 0.24,0.58c0,0.59 -0.41,0.94 -1.09,0.94c-0.46,0 -0.83,-0.18 -1.09,-0.54c-0.17,-0.22 -0.24,-0.46 -0.28,-0.93l-0.31,0l-0.04,1.6Z" style="fill-rule:nonzero;"/>
            <path d="M757.849,241.202l0,0.22c0.35,0 0.51,0.02 0.59,0.09c0.11,0.09 0.15,0.32 0.15,0.82l0,2.67c0,0.93 -0.05,1.01 -0.74,1.03l0,0.22l2.28,0l0,-0.22c-0.67,-0.02 -0.72,-0.1 -0.72,-1.03l0,-2.04c0,-0.42 0.03,-1.29 0.06,-1.87l-1.62,0.11Zm0.55,-1.67c0,0.32 0.25,0.57 0.57,0.57c0.31,0 0.56,-0.25 0.56,-0.57c0,-0.31 -0.25,-0.56 -0.56,-0.56c-0.32,0 -0.57,0.25 -0.57,0.56Z" style="fill-rule:nonzero;"/>
            <path d="M765.509,241.542l0,-0.38c-0.54,0.02 -0.84,0.03 -1.09,0.03c-0.23,0 -0.31,-0.01 -0.63,-0.06c-0.28,-0.05 -0.46,-0.07 -0.67,-0.07c-0.47,0 -0.89,0.1 -1.23,0.3c-0.49,0.29 -0.78,0.88 -0.78,1.56c0,0.4 0.11,0.77 0.32,1.03c0.11,0.14 0.22,0.24 0.5,0.43l-0.39,0.26c-0.39,0.27 -0.48,0.4 -0.48,0.68c0,0.4 0.2,0.68 0.63,0.88c-0.62,0.4 -0.7,0.5 -0.7,0.92c0,0.46 0.17,0.77 0.54,0.97c0.38,0.21 0.88,0.31 1.55,0.31c0.75,0 1.32,-0.12 1.77,-0.38c0.45,-0.25 0.75,-0.75 0.75,-1.24c0,-0.56 -0.28,-0.92 -0.83,-1.08c-0.28,-0.07 -0.6,-0.1 -1.28,-0.1l-0.7,0c-0.84,0 -1.1,-0.12 -1.1,-0.5c0,-0.23 0.15,-0.4 0.52,-0.6c0.37,0.09 0.58,0.12 0.88,0.12c1.2,0 1.98,-0.68 1.98,-1.74c0,-0.52 -0.18,-0.94 -0.57,-1.34l1.01,0Zm-3.56,1.26c0,-1 0.39,-1.51 1.14,-1.51c0.74,0 1.12,0.54 1.12,1.59c0,0.99 -0.39,1.52 -1.12,1.52c-0.4,0 -0.74,-0.18 -0.91,-0.48c-0.15,-0.27 -0.23,-0.67 -0.23,-1.12Zm0.11,3.47c0.01,-0.01 0.61,-0.02 0.96,-0.02c0.64,0 0.93,0.01 1.14,0.04c0.54,0.09 0.77,0.31 0.77,0.73c0,0.7 -0.66,1.14 -1.73,1.14c-1.02,0 -1.55,-0.39 -1.55,-1.13c0,-0.42 0.13,-0.66 0.41,-0.76Z" style="fill-rule:nonzero;"/>
            <path d="M767.649,241.092l-1.51,0.11l0,0.22c0.57,0 0.69,0.15 0.69,0.9l0,2.68c0,0.93 -0.06,1.01 -0.73,1.03l0,0.22l2.28,0l0,-0.22c-0.68,-0.02 -0.73,-0.09 -0.73,-1.03l0,-1.73c0,-0.41 0.13,-0.89 0.34,-1.22c0.28,-0.45 0.66,-0.67 1.13,-0.67c0.42,0 0.72,0.18 0.88,0.53c0.11,0.23 0.16,0.58 0.16,1.08l0,2.01c0,0.07 -0.02,0.44 -0.03,0.55c-0.01,0.17 -0.04,0.25 -0.1,0.33c-0.08,0.1 -0.26,0.14 -0.59,0.15l0,0.22l2.27,0l0,-0.22c-0.68,-0.02 -0.73,-0.09 -0.73,-1.03l0,-2.07c0,-0.61 -0.07,-0.96 -0.26,-1.25c-0.27,-0.43 -0.68,-0.62 -1.31,-0.62c-0.83,0 -1.32,0.29 -1.76,1.06l0,-1.03Z" style="fill-rule:nonzero;"/>
            <path d="M776.879,243.432c-0.02,-0.59 -0.06,-0.83 -0.16,-1.1c-0.31,-0.81 -1,-1.27 -1.91,-1.27c-1.41,0 -2.37,1.11 -2.37,2.73c0,1.53 0.98,2.59 2.41,2.59c0.98,0 1.66,-0.43 2.11,-1.35l-0.23,-0.13c-0.4,0.76 -0.94,1.13 -1.65,1.13c-0.72,0 -1.21,-0.36 -1.5,-1.1c-0.16,-0.41 -0.22,-0.81 -0.23,-1.5l3.53,0Zm-3.51,-0.27c0.06,-0.52 0.12,-0.78 0.27,-1.07c0.27,-0.51 0.67,-0.78 1.15,-0.78c0.47,0 0.81,0.25 1.03,0.74c0.13,0.29 0.18,0.58 0.19,1.11l-2.64,0Z" style="fill-rule:nonzero;"/>
            <path d="M780.819,239.002l0,0.22c0.73,0.01 0.74,0.03 0.74,1l0,1.51c-0.42,-0.47 -0.84,-0.67 -1.45,-0.67c-1.34,0 -2.26,1.13 -2.26,2.78c0,0.76 0.2,1.4 0.57,1.86c0.36,0.43 0.91,0.69 1.47,0.69c0.73,0 1.29,-0.3 1.7,-0.93l0.04,0.87l1.4,-0.08l0,-0.22l-0.11,0c-0.29,0 -0.41,-0.05 -0.47,-0.18c-0.05,-0.12 -0.05,-0.13 -0.07,-1.07l0,-3.87c0,-0.77 0.02,-1.35 0.06,-1.99l-1.62,0.08Zm0.77,4.72c0,1.5 -0.56,2.38 -1.51,2.38c-0.85,0 -1.3,-0.82 -1.3,-2.37c0,-1.57 0.49,-2.42 1.39,-2.42c0.91,0 1.42,0.86 1.42,2.41Z" style="fill-rule:nonzero;"/>
            <path d="M788.269,245.652c0.55,0.53 1.03,0.74 1.68,0.74c1.39,0 2.25,-1.06 2.25,-2.76c0,-1.57 -0.83,-2.57 -2.13,-2.57c-0.72,0 -1.23,0.31 -1.62,0.98l0,-1.12c0,-0.52 0.02,-1.33 0.06,-2l-1.61,0.08l0,0.22c0.69,0.01 0.73,0.06 0.73,0.91l0,4.35c0,1.33 0,1.4 -0.03,1.79l0.27,0l0.4,-0.62Zm0.14,-1.83c0,-1.57 0.57,-2.49 1.53,-2.49c0.88,0 1.33,0.82 1.33,2.42c0,1.59 -0.47,2.41 -1.39,2.41c-0.5,0 -0.94,-0.26 -1.16,-0.69c-0.21,-0.39 -0.31,-0.93 -0.31,-1.65Z" style="fill-rule:nonzero;"/>
            <path d="M795.619,245.332l-1.07,-2.98c-0.11,-0.32 -0.14,-0.42 -0.14,-0.57c0,-0.26 0.16,-0.35 0.6,-0.36l0,-0.22l-2.21,0l0,0.22c0.48,0.04 0.58,0.15 0.89,0.96l1.52,3.93l-0.22,0.57c-0.22,0.54 -0.39,0.7 -0.75,0.7c-0.07,0 -0.14,-0.01 -0.36,-0.03c-0.06,-0.01 -0.11,-0.01 -0.15,-0.01c-0.19,0 -0.28,0.12 -0.28,0.35c0,0.35 0.17,0.51 0.53,0.51c0.29,0 0.59,-0.13 0.76,-0.34c0.13,-0.15 0.28,-0.43 0.4,-0.72l1.91,-4.81c0.32,-0.82 0.56,-1.07 1.04,-1.11l0,-0.22l-1.93,0l0,0.22c0.52,0.02 0.72,0.15 0.72,0.47c0,0.15 -0.03,0.28 -0.13,0.53l-1.13,2.91Z" style="fill-rule:nonzero;"/>
        </g>
        <g id="Logo-text" serif:id="Logo text">
            <g>
                <path d="M354.594,96.692l0.915,-0.938l2.028,3.025c0.293,0.433 0.516,0.797 0.844,1.371l1.935,0l0,-0.258c-0.622,-0.07 -0.927,-0.293 -1.419,-0.984l-2.673,-3.846l1.794,-1.911c0.785,-0.844 1.325,-1.172 1.981,-1.219l0,-0.281l-2.778,0l0,0.281c0.515,0.023 0.715,0.141 0.715,0.399c0,0.211 -0.188,0.527 -0.551,0.902l-2.791,2.931l0,-3.025c0,-1.09 0.059,-1.16 0.915,-1.207l0,-0.281l-2.861,0l0,0.281c0.844,0.047 0.903,0.117 0.903,1.207l0,5.522c0,1.091 -0.07,1.173 -0.903,1.196l0,0.293l2.861,0l0,-0.293c-0.844,-0.023 -0.915,-0.117 -0.915,-1.196l0,-1.969Z" style="fill-rule:nonzero;"/>
                <path d="M360.785,94.23l0,0.258c0.41,0 0.597,0.023 0.691,0.105c0.129,0.106 0.176,0.375 0.176,0.962l0,3.13c0,1.09 -0.058,1.184 -0.867,1.207l0,0.258l2.673,0l0,-0.258c-0.786,-0.023 -0.845,-0.117 -0.845,-1.207l0,-2.392c0,-0.492 0.036,-1.512 0.071,-2.192l-1.899,0.129Zm0.644,-1.958c0,0.375 0.293,0.668 0.669,0.668c0.363,0 0.656,-0.293 0.656,-0.668c0,-0.364 -0.293,-0.657 -0.656,-0.657c-0.376,0 -0.669,0.293 -0.669,0.657Z" style="fill-rule:nonzero;"/>
                <path d="M366.025,94.546l1.407,0l0,-0.316l-1.407,0c0,-0.774 0.012,-1.22 0.035,-1.724l-0.539,0.153c-0.176,1.102 -0.528,1.559 -1.219,1.618l0,0.269l0.738,0l0,3.799c0,0.867 0.035,1.125 0.164,1.36c0.2,0.375 0.633,0.574 1.208,0.574c0.422,0 0.797,-0.094 1.184,-0.293l-0.105,-0.305c-0.258,0.153 -0.481,0.211 -0.739,0.211c-0.27,0 -0.457,-0.082 -0.575,-0.246c-0.117,-0.164 -0.152,-0.469 -0.152,-1.161l0,-3.939Z" style="fill-rule:nonzero;"/>
                <path d="M368.405,100.174c0.234,-0.035 0.399,-0.047 0.528,-0.047c0.129,0 0.269,0.012 0.433,0.035c0.692,0.117 0.844,0.141 1.173,0.141c1.102,0 1.817,-0.692 1.817,-1.771c0,-0.457 -0.141,-0.844 -0.387,-1.113c-0.27,-0.293 -0.563,-0.469 -1.348,-0.798c-0.774,-0.328 -0.997,-0.445 -1.219,-0.609c-0.212,-0.153 -0.317,-0.364 -0.317,-0.633c0,-0.633 0.469,-1.044 1.196,-1.044c0.856,0 1.371,0.622 1.395,1.665l0.387,0l0.058,-1.852c-0.234,0.058 -0.422,0.082 -0.562,0.082c-0.071,0 -0.153,-0.012 -0.247,-0.024c-0.633,-0.117 -0.785,-0.14 -1.09,-0.14c-0.586,0 -1.137,0.246 -1.454,0.668c-0.199,0.27 -0.316,0.668 -0.316,1.078c0,0.798 0.387,1.22 1.653,1.771c1.067,0.469 1.102,0.48 1.313,0.656c0.176,0.153 0.281,0.411 0.281,0.68c0,0.692 -0.48,1.102 -1.278,1.102c-0.539,0 -0.973,-0.211 -1.277,-0.633c-0.2,-0.258 -0.282,-0.539 -0.329,-1.09l-0.363,0l-0.047,1.876Z" style="fill-rule:nonzero;"/>
                <path d="M379.625,100.15l0,-0.258l-0.082,0c-0.61,0 -0.716,-0.211 -0.716,-1.383l0,-2.216c0,-0.527 0.024,-1.301 0.059,-2.18l-1.817,0.117l0,0.258l0.211,0c0.211,0.011 0.328,0.047 0.398,0.117c0.141,0.105 0.176,0.328 0.176,0.95l0,1.805c0,0.727 -0.035,0.985 -0.211,1.383c-0.305,0.716 -0.879,1.138 -1.524,1.138c-0.48,0 -0.809,-0.223 -0.949,-0.657c-0.141,-0.41 -0.165,-0.727 -0.165,-1.911l0,-1.02c0,-0.809 0.012,-1.09 0.071,-2.18l-1.817,0.117l0,0.258l0.211,0c0.222,0.011 0.328,0.035 0.398,0.105c0.129,0.106 0.176,0.352 0.176,0.962l0,1.934c0,1.02 0.047,1.501 0.164,1.817c0.235,0.621 0.809,0.985 1.56,0.985c0.867,0 1.629,-0.469 2.086,-1.266c0,0.574 0.024,0.926 0.059,1.207l1.712,-0.082Z" style="fill-rule:nonzero;"/>
                <path d="M382.134,94.101l-1.771,0.129l0,0.258c0.668,0 0.809,0.176 0.809,1.055l0,3.142c0,1.09 -0.07,1.184 -0.856,1.207l0,0.258l2.673,0l0,-0.258c-0.797,-0.023 -0.855,-0.105 -0.855,-1.207l0,-2.028c0,-0.481 0.152,-1.044 0.398,-1.431c0.328,-0.527 0.774,-0.785 1.325,-0.785c0.492,0 0.844,0.211 1.032,0.621c0.129,0.27 0.187,0.68 0.187,1.266l0,2.357c0,0.082 -0.023,0.516 -0.035,0.645c-0.012,0.199 -0.047,0.293 -0.117,0.386c-0.094,0.118 -0.305,0.165 -0.692,0.176l0,0.258l2.661,0l0,-0.258c-0.797,-0.023 -0.855,-0.105 -0.855,-1.207l0,-2.427c0,-0.715 -0.083,-1.126 -0.305,-1.466c-0.317,-0.504 -0.798,-0.726 -1.536,-0.726c-0.973,0 -1.548,0.34 -2.063,1.242l0,-1.207Z" style="fill-rule:nonzero;"/>
                <path d="M392.955,96.844c-0.024,-0.692 -0.071,-0.973 -0.188,-1.289c-0.363,-0.95 -1.172,-1.489 -2.239,-1.489c-1.653,0 -2.779,1.301 -2.779,3.2c0,1.794 1.149,3.037 2.826,3.037c1.149,0 1.946,-0.504 2.473,-1.583l-0.269,-0.152c-0.469,0.891 -1.102,1.324 -1.935,1.324c-0.844,0 -1.418,-0.422 -1.758,-1.289c-0.188,-0.481 -0.258,-0.95 -0.27,-1.759l4.139,0Zm-4.116,-0.316c0.071,-0.61 0.141,-0.915 0.317,-1.255c0.317,-0.598 0.786,-0.914 1.348,-0.914c0.551,0 0.95,0.293 1.208,0.867c0.152,0.34 0.211,0.68 0.223,1.302l-3.096,0Z" style="fill-rule:nonzero;"/>
                <path d="M399.778,96.692l0.914,-0.938l2.028,3.025c0.293,0.433 0.516,0.797 0.845,1.371l1.934,0l0,-0.258c-0.621,-0.07 -0.926,-0.293 -1.419,-0.984l-2.673,-3.846l1.794,-1.911c0.786,-0.844 1.325,-1.172 1.981,-1.219l0,-0.281l-2.778,0l0,0.281c0.516,0.023 0.715,0.141 0.715,0.399c0,0.211 -0.188,0.527 -0.551,0.902l-2.79,2.931l0,-3.025c0,-1.09 0.058,-1.16 0.914,-1.207l0,-0.281l-2.86,0l0,0.281c0.844,0.047 0.902,0.117 0.902,1.207l0,5.522c0,1.091 -0.07,1.173 -0.902,1.196l0,0.293l2.86,0l0,-0.293c-0.844,-0.023 -0.914,-0.117 -0.914,-1.196l0,-1.969Z" style="fill-rule:nonzero;"/>
                <path d="M411.349,96.844c-0.023,-0.692 -0.07,-0.973 -0.188,-1.289c-0.363,-0.95 -1.172,-1.489 -2.239,-1.489c-1.653,0 -2.778,1.301 -2.778,3.2c0,1.794 1.149,3.037 2.825,3.037c1.149,0 1.946,-0.504 2.474,-1.583l-0.27,-0.152c-0.469,0.891 -1.102,1.324 -1.934,1.324c-0.844,0 -1.419,-0.422 -1.759,-1.289c-0.187,-0.481 -0.258,-0.95 -0.269,-1.759l4.138,0Zm-4.115,-0.316c0.07,-0.61 0.141,-0.915 0.317,-1.255c0.316,-0.598 0.785,-0.914 1.348,-0.914c0.551,0 0.949,0.293 1.207,0.867c0.153,0.34 0.211,0.68 0.223,1.302l-3.095,0Z" style="fill-rule:nonzero;"/>
                <path d="M415.253,99.072l-1.254,-3.494c-0.129,-0.375 -0.164,-0.492 -0.164,-0.668c0,-0.305 0.187,-0.411 0.703,-0.422l0,-0.258l-2.591,0l0,0.258c0.563,0.047 0.68,0.176 1.043,1.125l1.782,4.608l-0.258,0.668c-0.257,0.633 -0.457,0.821 -0.879,0.821c-0.082,0 -0.164,-0.012 -0.422,-0.036c-0.07,-0.011 -0.129,-0.011 -0.176,-0.011c-0.222,0 -0.328,0.14 -0.328,0.41c0,0.41 0.199,0.598 0.621,0.598c0.34,0 0.692,-0.153 0.891,-0.399c0.153,-0.176 0.329,-0.504 0.469,-0.844l2.24,-5.639c0.375,-0.961 0.656,-1.254 1.219,-1.301l0,-0.258l-2.263,0l0,0.258c0.61,0.023 0.844,0.176 0.844,0.551c0,0.176 -0.035,0.328 -0.152,0.621l-1.325,3.412Z" style="fill-rule:nonzero;"/>
                <path d="M420.095,99.447c0.645,0.621 1.208,0.867 1.97,0.867c1.629,0 2.637,-1.242 2.637,-3.235c0,-1.841 -0.973,-3.013 -2.497,-3.013c-0.844,0 -1.442,0.363 -1.899,1.149l0,-1.314c0,-0.609 0.023,-1.559 0.07,-2.344l-1.887,0.094l0,0.257c0.809,0.012 0.856,0.071 0.856,1.067l0,5.1c0,1.559 0,1.641 -0.036,2.099l0.317,0l0.469,-0.727Zm0.164,-2.146c0,-1.84 0.668,-2.919 1.794,-2.919c1.032,0 1.559,0.962 1.559,2.837c0,1.864 -0.551,2.826 -1.629,2.826c-0.587,0 -1.103,-0.305 -1.36,-0.809c-0.247,-0.457 -0.364,-1.091 -0.364,-1.935Z" style="fill-rule:nonzero;"/>
                <path d="M425.851,97.278c0,1.817 1.126,3.025 2.826,3.025c1.782,0 2.907,-1.231 2.907,-3.189c0,-1.841 -1.125,-3.048 -2.837,-3.048c-0.809,0 -1.547,0.281 -2.04,0.785c-0.539,0.551 -0.856,1.454 -0.856,2.427Zm1.091,-0.152c0,-1.794 0.621,-2.791 1.746,-2.791c1.149,0 1.806,1.055 1.806,2.884c0,1.806 -0.633,2.802 -1.782,2.802c-1.126,0 -1.77,-1.055 -1.77,-2.895Z" style="fill-rule:nonzero;"/>
                <path d="M438.15,99.881c-0.446,0 -0.587,-0.036 -0.657,-0.129c-0.07,-0.094 -0.129,-0.516 -0.129,-1.009l0.012,-0.539l0.012,-1.114c0.023,-1.149 0.023,-1.149 0.023,-1.184c0,-0.645 -0.106,-1.031 -0.34,-1.325c-0.281,-0.34 -0.821,-0.515 -1.571,-0.515c-0.692,0 -1.266,0.129 -1.712,0.375c-0.492,0.281 -0.797,0.703 -0.797,1.125c0,0.246 0.176,0.352 0.575,0.352c0.175,0 0.328,-0.035 0.41,-0.094c0.094,-0.07 0.117,-0.152 0.129,-0.398c0.047,-0.727 0.445,-1.079 1.219,-1.079c0.481,0 0.809,0.152 0.961,0.457c0.118,0.246 0.165,0.528 0.165,1.067l0,0.739c-0.856,0.058 -1.478,0.14 -2.087,0.281c-1.137,0.258 -1.724,0.856 -1.724,1.782c0,0.492 0.2,0.961 0.516,1.243c0.293,0.246 0.68,0.363 1.196,0.363c0.598,0 1.008,-0.129 1.524,-0.504c0.235,-0.164 0.387,-0.293 0.575,-0.504c0.046,0.785 0.14,0.973 0.492,0.973c0.234,0 0.75,-0.047 1.208,-0.117l0,-0.246Zm-1.7,-2.451c0,0.774 -0.082,1.266 -0.27,1.595c-0.293,0.504 -0.903,0.856 -1.501,0.856c-0.586,0 -0.984,-0.505 -0.984,-1.243c0,-0.621 0.269,-1.09 0.785,-1.337c0.469,-0.234 0.926,-0.328 1.97,-0.422l0,0.551Z" style="fill-rule:nonzero;"/>
                <path d="M438.958,94.23l0,0.258c0.669,0 0.809,0.176 0.809,1.055l0,3.142c0,1.09 -0.07,1.184 -0.855,1.207l0,0.258l2.684,0l0,-0.258c-0.785,-0.023 -0.844,-0.105 -0.844,-1.207l0,-1.841c0,-0.621 0.106,-1.102 0.317,-1.489c0.246,-0.445 0.574,-0.703 0.879,-0.703c0.188,0 0.258,0.07 0.328,0.328c0.071,0.223 0.176,0.293 0.434,0.293c0.375,0 0.621,-0.187 0.621,-0.481c0,-0.41 -0.386,-0.726 -0.891,-0.726c-0.691,0 -1.324,0.504 -1.711,1.395l0,-0.375c0,-0.247 -0.012,-0.399 -0.035,-0.985l-1.736,0.129Z" style="fill-rule:nonzero;"/>
                <path d="M447.47,91.651l0,0.257c0.856,0.012 0.867,0.036 0.867,1.173l0,1.77c-0.492,-0.551 -0.984,-0.785 -1.699,-0.785c-1.571,0 -2.65,1.324 -2.65,3.259c0,0.891 0.234,1.641 0.668,2.18c0.422,0.505 1.067,0.809 1.724,0.809c0.855,0 1.512,-0.351 1.993,-1.09l0.047,1.02l1.641,-0.094l0,-0.258l-0.129,0c-0.34,0 -0.481,-0.058 -0.551,-0.211c-0.059,-0.14 -0.059,-0.152 -0.082,-1.254l0,-4.537c0,-0.903 0.023,-1.583 0.07,-2.333l-1.899,0.094Zm0.903,5.533c0,1.759 -0.657,2.79 -1.771,2.79c-0.996,0 -1.524,-0.961 -1.524,-2.778c0,-1.841 0.575,-2.837 1.63,-2.837c1.067,0 1.665,1.008 1.665,2.825Z" style="fill-rule:nonzero;"/>
                <path d="M451.081,100.174c0.234,-0.035 0.398,-0.047 0.527,-0.047c0.129,0 0.27,0.012 0.434,0.035c0.692,0.117 0.844,0.141 1.173,0.141c1.102,0 1.817,-0.692 1.817,-1.771c0,-0.457 -0.141,-0.844 -0.387,-1.113c-0.27,-0.293 -0.563,-0.469 -1.348,-0.798c-0.774,-0.328 -0.997,-0.445 -1.22,-0.609c-0.211,-0.153 -0.316,-0.364 -0.316,-0.633c0,-0.633 0.469,-1.044 1.196,-1.044c0.855,0 1.371,0.622 1.395,1.665l0.387,0l0.058,-1.852c-0.234,0.058 -0.422,0.082 -0.562,0.082c-0.071,0 -0.153,-0.012 -0.247,-0.024c-0.633,-0.117 -0.785,-0.14 -1.09,-0.14c-0.586,0 -1.137,0.246 -1.454,0.668c-0.199,0.27 -0.316,0.668 -0.316,1.078c0,0.798 0.387,1.22 1.653,1.771c1.067,0.469 1.102,0.48 1.313,0.656c0.176,0.153 0.281,0.411 0.281,0.68c0,0.692 -0.48,1.102 -1.278,1.102c-0.539,0 -0.973,-0.211 -1.278,-0.633c-0.199,-0.258 -0.281,-0.539 -0.328,-1.09l-0.363,0l-0.047,1.876Z" style="fill-rule:nonzero;"/>
            </g>
            <g>
                <path d="M354.536,161.312c0.41,-0.082 0.621,-0.117 0.809,-0.117c0.117,0 0.246,0.012 0.387,0.035c0.82,0.164 1.113,0.199 1.571,0.199c0.773,0 1.418,-0.211 1.911,-0.644c0.445,-0.376 0.668,-0.903 0.668,-1.595c0,-0.539 -0.094,-0.926 -0.328,-1.289c-0.329,-0.516 -0.88,-0.903 -2.345,-1.595c-1.395,-0.656 -1.77,-1.043 -1.77,-1.817c0,-0.387 0.128,-0.75 0.34,-1.02c0.281,-0.328 0.68,-0.492 1.242,-0.492c0.762,0 1.36,0.293 1.688,0.832c0.188,0.317 0.282,0.657 0.329,1.231l0.387,0l0.07,-2.31c-0.317,0.118 -0.528,0.176 -0.703,0.176c-0.118,0 -0.258,-0.023 -0.434,-0.058c-0.739,-0.176 -0.938,-0.2 -1.384,-0.2c-0.703,0 -1.231,0.176 -1.676,0.563c-0.481,0.422 -0.739,1.008 -0.739,1.7c0,0.563 0.176,1.02 0.516,1.383c0.328,0.352 0.692,0.575 1.688,1.056c1.747,0.844 2.181,1.289 2.181,2.215c0,0.962 -0.633,1.524 -1.7,1.524c-0.774,0 -1.383,-0.234 -1.759,-0.668c-0.316,-0.375 -0.433,-0.75 -0.48,-1.477l-0.387,0l-0.082,2.368Z" style="fill-rule:nonzero;"/>
                <path d="M362.567,155.04c0,-1.02 0.011,-1.454 0.058,-2.345l-1.876,0.094l0,0.258c0.809,0.012 0.856,0.07 0.856,1.067l0,5.709c0,1.102 -0.058,1.184 -0.856,1.208l0,0.258l2.662,0l0,-0.258c-0.786,-0.024 -0.844,-0.106 -0.844,-1.208l0,-1.887c0,-0.387 0.035,-0.622 0.117,-0.88c0.117,-0.363 0.316,-0.715 0.551,-0.961c0.281,-0.293 0.692,-0.457 1.16,-0.457c0.505,0 0.845,0.187 1.032,0.563c0.129,0.234 0.188,0.668 0.188,1.266l0,2.356c0,1.102 -0.059,1.184 -0.856,1.208l0,0.258l2.661,0l0,-0.258c-0.785,-0.024 -0.844,-0.117 -0.844,-1.208l0,-2.344c0,-0.645 -0.07,-1.138 -0.211,-1.431c-0.281,-0.551 -0.856,-0.844 -1.712,-0.844c-0.961,0 -1.535,0.352 -2.086,1.255l0,-1.419Z" style="fill-rule:nonzero;"/>
                <path d="M373.728,161.019c-0.446,0 -0.587,-0.035 -0.657,-0.129c-0.07,-0.094 -0.129,-0.516 -0.129,-1.008l0.012,-0.539l0.012,-1.114c0.023,-1.149 0.023,-1.149 0.023,-1.184c0,-0.645 -0.106,-1.032 -0.34,-1.325c-0.281,-0.34 -0.821,-0.516 -1.571,-0.516c-0.692,0 -1.266,0.129 -1.712,0.375c-0.492,0.282 -0.797,0.704 -0.797,1.126c0,0.246 0.176,0.351 0.575,0.351c0.175,0 0.328,-0.035 0.41,-0.093c0.094,-0.071 0.117,-0.153 0.129,-0.399c0.047,-0.727 0.445,-1.079 1.219,-1.079c0.481,0 0.809,0.153 0.962,0.458c0.117,0.246 0.164,0.527 0.164,1.067l0,0.738c-0.856,0.059 -1.478,0.141 -2.087,0.282c-1.137,0.257 -1.724,0.855 -1.724,1.782c0,0.492 0.2,0.961 0.516,1.242c0.293,0.246 0.68,0.364 1.196,0.364c0.598,0 1.008,-0.129 1.524,-0.504c0.235,-0.165 0.387,-0.294 0.575,-0.505c0.047,0.786 0.14,0.974 0.492,0.974c0.235,0 0.75,-0.047 1.208,-0.118l0,-0.246Zm-1.7,-2.45c0,0.774 -0.082,1.266 -0.27,1.594c-0.293,0.504 -0.903,0.856 -1.501,0.856c-0.586,0 -0.984,-0.504 -0.984,-1.243c0,-0.621 0.269,-1.09 0.785,-1.336c0.469,-0.235 0.926,-0.328 1.97,-0.422l0,0.551Z" style="fill-rule:nonzero;"/>
                <path d="M376.143,155.239l-1.759,0.129l0,0.258c0.668,0 0.809,0.176 0.809,1.055l0,5.663c0,1.09 -0.059,1.172 -0.856,1.196l0,0.269l2.708,0l0,-0.269c-0.844,-0.035 -0.902,-0.106 -0.902,-1.196l0,-1.712c0.644,0.586 1.043,0.762 1.735,0.762c0.797,0 1.512,-0.328 1.934,-0.902c0.422,-0.587 0.657,-1.419 0.657,-2.333c0,-1.841 -0.903,-2.955 -2.404,-2.955c-0.82,0 -1.477,0.352 -1.922,1.044l0,-1.009Zm-0.047,3.107c0,-0.879 0.152,-1.547 0.457,-2.052c0.281,-0.469 0.797,-0.762 1.337,-0.762c0.996,0 1.488,0.903 1.488,2.755c0,1.853 -0.527,2.791 -1.594,2.791c-1.114,0 -1.688,-0.915 -1.688,-2.732Z" style="fill-rule:nonzero;"/>
                <path d="M386.882,157.983c-0.024,-0.692 -0.071,-0.973 -0.188,-1.29c-0.363,-0.95 -1.172,-1.489 -2.239,-1.489c-1.653,0 -2.779,1.301 -2.779,3.201c0,1.793 1.149,3.036 2.826,3.036c1.149,0 1.946,-0.504 2.473,-1.583l-0.269,-0.152c-0.469,0.891 -1.102,1.325 -1.935,1.325c-0.844,0 -1.418,-0.422 -1.758,-1.29c-0.188,-0.48 -0.258,-0.949 -0.27,-1.758l4.139,0Zm-4.115,-0.317c0.07,-0.61 0.14,-0.914 0.316,-1.254c0.317,-0.598 0.786,-0.915 1.348,-0.915c0.551,0 0.95,0.293 1.208,0.868c0.152,0.34 0.211,0.68 0.223,1.301l-3.095,0Z" style="fill-rule:nonzero;"/>
                <path d="M387.995,161.312c0.235,-0.035 0.399,-0.047 0.528,-0.047c0.129,0 0.27,0.012 0.434,0.035c0.691,0.118 0.844,0.141 1.172,0.141c1.102,0 1.817,-0.692 1.817,-1.77c0,-0.457 -0.14,-0.844 -0.387,-1.114c-0.269,-0.293 -0.562,-0.469 -1.348,-0.797c-0.774,-0.328 -0.996,-0.446 -1.219,-0.61c-0.211,-0.152 -0.317,-0.363 -0.317,-0.633c0,-0.633 0.469,-1.043 1.196,-1.043c0.856,0 1.372,0.621 1.395,1.665l0.387,0l0.059,-1.853c-0.235,0.059 -0.422,0.082 -0.563,0.082c-0.07,0 -0.152,-0.011 -0.246,-0.023c-0.633,-0.117 -0.786,-0.141 -1.09,-0.141c-0.587,0 -1.138,0.246 -1.454,0.668c-0.199,0.27 -0.317,0.669 -0.317,1.079c0,0.797 0.387,1.219 1.653,1.77c1.067,0.469 1.102,0.481 1.313,0.657c0.176,0.152 0.282,0.41 0.282,0.68c0,0.691 -0.481,1.102 -1.278,1.102c-0.539,0 -0.973,-0.211 -1.278,-0.633c-0.199,-0.258 -0.281,-0.54 -0.328,-1.091l-0.364,0l-0.047,1.876Z" style="fill-rule:nonzero;"/>
                <path d="M394.701,155.04c0,-1.02 0.012,-1.454 0.059,-2.345l-1.876,0.094l0,0.258c0.809,0.012 0.856,0.07 0.856,1.067l0,5.709c0,1.102 -0.059,1.184 -0.856,1.208l0,0.258l2.661,0l0,-0.258c-0.785,-0.024 -0.844,-0.106 -0.844,-1.208l0,-1.887c0,-0.387 0.036,-0.622 0.118,-0.88c0.117,-0.363 0.316,-0.715 0.551,-0.961c0.281,-0.293 0.691,-0.457 1.16,-0.457c0.504,0 0.844,0.187 1.032,0.563c0.129,0.234 0.188,0.668 0.188,1.266l0,2.356c0,1.102 -0.059,1.184 -0.856,1.208l0,0.258l2.661,0l0,-0.258c-0.786,-0.024 -0.844,-0.117 -0.844,-1.208l0,-2.344c0,-0.645 -0.07,-1.138 -0.211,-1.431c-0.282,-0.551 -0.856,-0.844 -1.712,-0.844c-0.961,0 -1.536,0.352 -2.087,1.255l0,-1.419Z" style="fill-rule:nonzero;"/>
                <path d="M400.247,155.368l0,0.258c0.41,0 0.598,0.024 0.691,0.106c0.129,0.105 0.176,0.375 0.176,0.961l0,3.13c0,1.091 -0.058,1.184 -0.867,1.208l0,0.258l2.673,0l0,-0.258c-0.786,-0.024 -0.844,-0.117 -0.844,-1.208l0,-2.391c0,-0.493 0.035,-1.513 0.07,-2.193l-1.899,0.129Zm0.644,-1.958c0,0.376 0.294,0.669 0.669,0.669c0.363,0 0.656,-0.293 0.656,-0.669c0,-0.363 -0.293,-0.656 -0.656,-0.656c-0.375,0 -0.669,0.293 -0.669,0.656Z" style="fill-rule:nonzero;"/>
                <path d="M405.522,155.685l1.56,0l0,-0.317l-1.56,0c0,-0.187 -0.011,-0.34 -0.011,-0.457c-0.012,-0.563 -0.012,-0.68 -0.012,-0.856c0,-0.762 0.234,-1.137 0.692,-1.137c0.34,0 0.492,0.141 0.551,0.504c0.058,0.317 0.058,0.317 0.129,0.387c0.07,0.059 0.211,0.106 0.386,0.106c0.352,0 0.575,-0.141 0.575,-0.376c0,-0.492 -0.645,-0.867 -1.477,-0.867c-0.551,0 -1.067,0.176 -1.384,0.469c-0.316,0.293 -0.433,0.609 -0.433,1.137c0,0.211 0.011,0.633 0.023,1.09l-0.903,0l0,0.317l0.903,0l0,4.138c0,1.091 -0.059,1.184 -0.844,1.208l0,0.258l2.732,0l0,-0.258c-0.856,-0.024 -0.927,-0.117 -0.927,-1.208l0,-4.138Z" style="fill-rule:nonzero;"/>
                <path d="M409.333,155.685l1.406,0l0,-0.317l-1.406,0c0,-0.774 0.011,-1.219 0.035,-1.723l-0.54,0.152c-0.175,1.102 -0.527,1.56 -1.219,1.618l0,0.27l0.739,0l0,3.798c0,0.868 0.035,1.126 0.164,1.36c0.199,0.375 0.633,0.575 1.207,0.575c0.423,0 0.798,-0.094 1.185,-0.293l-0.106,-0.305c-0.258,0.152 -0.481,0.211 -0.739,0.211c-0.269,0 -0.457,-0.082 -0.574,-0.246c-0.117,-0.165 -0.152,-0.469 -0.152,-1.161l0,-3.939Z" style="fill-rule:nonzero;"/>
                <path d="M416.871,157.983c-0.023,-0.692 -0.07,-0.973 -0.188,-1.29c-0.363,-0.95 -1.172,-1.489 -2.239,-1.489c-1.653,0 -2.778,1.301 -2.778,3.201c0,1.793 1.149,3.036 2.825,3.036c1.149,0 1.946,-0.504 2.474,-1.583l-0.27,-0.152c-0.469,0.891 -1.102,1.325 -1.934,1.325c-0.844,0 -1.419,-0.422 -1.759,-1.29c-0.187,-0.48 -0.258,-0.949 -0.27,-1.758l4.139,0Zm-4.115,-0.317c0.07,-0.61 0.141,-0.914 0.316,-1.254c0.317,-0.598 0.786,-0.915 1.349,-0.915c0.551,0 0.949,0.293 1.207,0.868c0.153,0.34 0.211,0.68 0.223,1.301l-3.095,0Z" style="fill-rule:nonzero;"/>
                <path d="M417.797,155.368l0,0.258c0.668,0 0.809,0.176 0.809,1.055l0,3.142c0,1.091 -0.07,1.184 -0.856,1.208l0,0.258l2.685,0l0,-0.258c-0.786,-0.024 -0.844,-0.106 -0.844,-1.208l0,-1.84c0,-0.622 0.105,-1.102 0.316,-1.489c0.247,-0.446 0.575,-0.704 0.88,-0.704c0.187,0 0.258,0.071 0.328,0.329c0.07,0.222 0.176,0.293 0.434,0.293c0.375,0 0.621,-0.188 0.621,-0.481c0,-0.41 -0.387,-0.727 -0.891,-0.727c-0.692,0 -1.325,0.504 -1.712,1.395l0,-0.375c0,-0.246 -0.011,-0.399 -0.035,-0.985l-1.735,0.129Z" style="fill-rule:nonzero;"/>
                <path d="M431.35,159.003l1.219,0l0,-0.516l-1.219,0l0,-5.698l-0.739,0l-4.232,5.663l0,0.551l3.974,0l0,0.844c0,0.562 -0.058,0.844 -0.211,0.961c-0.129,0.094 -0.223,0.117 -0.738,0.129l0,0.352l2.813,0l0,-0.352c-0.457,-0.012 -0.551,-0.035 -0.656,-0.129c-0.153,-0.117 -0.211,-0.399 -0.211,-0.961l0,-0.844Zm-0.997,-0.516l-3.435,0l3.435,-4.631l0,4.631Z" style="fill-rule:nonzero;"/>
                <path d="M433.483,157.127c0,1.149 0.235,2.227 0.669,3.036c0.434,0.809 1.278,1.302 2.274,1.302c0.985,0 1.829,-0.481 2.263,-1.302c0.434,-0.809 0.668,-1.876 0.668,-3.036c0,-1.161 -0.234,-2.239 -0.668,-3.037c-0.434,-0.82 -1.278,-1.301 -2.263,-1.301c-0.996,0 -1.84,0.481 -2.274,1.301c-0.434,0.821 -0.669,1.876 -0.669,3.037Zm1.138,0.012c0,-2.802 0.551,-4.045 1.805,-4.045c1.255,0 1.806,1.231 1.806,4.033c0,2.802 -0.551,4.033 -1.806,4.033c-1.254,0 -1.805,-1.231 -1.805,-4.021Z" style="fill-rule:nonzero;"/>
                <path d="M441.608,156.928c0,-0.809 0.106,-1.642 0.27,-2.24c0.316,-1.055 0.891,-1.606 1.711,-1.606c0.657,0 0.997,0.352 1.079,1.114c0.035,0.328 0.152,0.434 0.516,0.434c0.434,0 0.68,-0.176 0.68,-0.481c0,-0.727 -1.067,-1.36 -2.275,-1.36c-0.855,0 -1.535,0.293 -2.051,0.891c-0.657,0.762 -1.032,2.169 -1.032,3.869c0,2.556 0.997,3.927 2.861,3.927c1.676,0 2.825,-1.172 2.825,-2.86c0,-0.739 -0.258,-1.442 -0.68,-1.888c-0.434,-0.457 -1.149,-0.727 -1.899,-0.727c-0.809,0 -1.395,0.27 -2.005,0.927Zm-0.012,1.477c0,-0.704 0.176,-1.161 0.598,-1.571c0.329,-0.329 0.797,-0.516 1.243,-0.516c1.008,0 1.641,0.891 1.641,2.321c0,0.692 -0.129,1.302 -0.375,1.77c-0.258,0.469 -0.774,0.774 -1.313,0.774c-0.574,0 -1.055,-0.316 -1.348,-0.867c-0.293,-0.551 -0.446,-1.196 -0.446,-1.911Z" style="fill-rule:nonzero;"/>
                <path d="M447.271,157.127c0,1.149 0.234,2.227 0.668,3.036c0.434,0.809 1.278,1.302 2.274,1.302c0.985,0 1.829,-0.481 2.263,-1.302c0.434,-0.809 0.668,-1.876 0.668,-3.036c0,-1.161 -0.234,-2.239 -0.668,-3.037c-0.434,-0.82 -1.278,-1.301 -2.263,-1.301c-0.996,0 -1.84,0.481 -2.274,1.301c-0.434,0.821 -0.668,1.876 -0.668,3.037Zm1.137,0.012c0,-2.802 0.551,-4.045 1.805,-4.045c1.255,0 1.806,1.231 1.806,4.033c0,2.802 -0.551,4.033 -1.806,4.033c-1.254,0 -1.805,-1.231 -1.805,-4.021Z" style="fill-rule:nonzero;"/>
            </g>
        </g>
    </g>
    <g id="Cuts">
        <g id="Plate-outline" serif:id="Plate outline">
            <path d="M5.681,268.171l796.534,0" style="fill:none;fill-rule:nonzero;stroke:#000;stroke-width:0.03px;"/>
            <path d="M5.684,0.015c-3.11,0 -5.669,2.559 -5.669,5.669" style="fill:#c2c200;fill-opacity:0;fill-rule:nonzero;stroke:#000;stroke-width:0.03px;"/>
            <path d="M0.015,262.503c0,3.11 2.559,5.669 5.669,5.669" style="fill:#c2c200;fill-opacity:0;fill-rule:nonzero;stroke:#000;stroke-width:0.03px;"/>
            <path d="M802.215,268.172c0.002,0 0.003,0 0.005,0c3.11,0 5.669,-2.559 5.669,-5.669" style="fill:#c2c200;fill-opacity:0;fill-rule:nonzero;stroke:#000;stroke-width:0.03px;"/>
            <path d="M807.889,5.684c0,0 0,0 0,0c0,-3.11 -2.559,-5.669 -5.669,-5.669c-0.002,0 -0.003,0 -0.005,0" style="fill:#c2c200;fill-opacity:0;fill-rule:nonzero;stroke:#000;stroke-width:0.03px;"/>
            <path d="M0.014,262.497l0,-256.816" style="fill:none;stroke:#000;stroke-width:0.03px;"/>
            <path d="M807.882,262.497l0,-256.816" style="fill:none;stroke:#000;stroke-width:0.03px;"/>
            <path d="M802.215,0.014l-796.534,0" style="fill:none;stroke:#000;stroke-width:0.03px;"/>
        </g>
        <g id="Artisan-hole" serif:id="Artisan hole">
            <path d="M423.523,45.895l2.31,0l0,9.921l-2.31,0l0,14.202l2.31,0l0,9.921l-2.31,0l0,2.778l-39.6,0l0,-2.778l-2.31,0l0,-9.921l2.31,0l0,-14.202l-2.31,0l0,-9.921l2.31,0l0,-2.778l39.6,0l0,2.778Zm-39.571,-2.75l0,2.778l-2.311,0l0,9.865l2.311,0l0,14.258l-2.311,0l0,9.865l2.311,0l0,2.778l39.543,0l0,-2.778l2.31,0l0,-9.865l-2.31,0l0,-14.258l2.31,0l0,-9.865l-2.31,0l0,-2.778l-39.543,0Z"/>
        </g>
        <g id="Key-holes" serif:id="Key holes">
            <g id="Switch-holes" serif:id="Switch holes">
                <path d="M73.245,13.929l-0.483,2.736l2.275,0.401l-1.722,9.771l-2.276,-0.401l-2.466,13.985l2.276,0.402l-1.723,9.77l-2.275,-0.401l-0.483,2.736l-38.998,-6.877l0.482,-2.735l-2.275,-0.402l1.723,-9.77l2.275,0.401l2.466,-13.986l-2.275,-0.401l1.723,-9.77l2.275,0.401l0.482,-2.736l38.999,6.876Zm-39.458,-4.107l-2.275,-0.402l-1.713,9.715l2.275,0.401l-2.476,14.042l-2.275,-0.401l-1.713,9.714l2.275,0.402l-0.482,2.735l38.942,6.867l0.483,-2.736l2.275,0.401l1.713,-9.714l-2.275,-0.402l2.475,-14.041l2.276,0.401l1.713,-9.715l-2.276,-0.401l0.483,-2.736l-38.943,-6.866l-0.482,2.736Z"/>
                <path d="M63.869,67.1l-0.482,2.735l2.275,0.401l-1.723,9.771l-2.275,-0.401l-2.466,13.986l2.275,0.401l-1.723,9.77l-2.275,-0.401l-0.482,2.736l-38.999,-6.877l0.483,-2.735l-2.275,-0.401l1.723,-9.771l2.275,0.401l2.466,-13.986l-2.275,-0.401l1.722,-9.77l2.276,0.401l0.482,-2.736l38.998,6.877Zm-39.457,-4.108l-2.276,-0.401l-1.713,9.714l2.276,0.401l-2.476,14.042l-2.275,-0.401l-1.713,9.715l2.275,0.401l-0.483,2.735l38.943,6.867l0.482,-2.736l2.275,0.402l1.713,-9.715l-2.275,-0.401l2.476,-14.042l2.275,0.401l1.713,-9.715l-2.275,-0.401l0.482,-2.735l-38.942,-6.867l-0.482,2.736Z"/>
                <path d="M54.494,120.27l-0.482,2.735l2.275,0.402l-1.723,9.77l-2.275,-0.401l-2.466,13.986l2.275,0.401l-1.723,9.771l-2.275,-0.402l-0.482,2.736l-38.999,-6.876l0.483,-2.736l-2.276,-0.401l1.723,-9.771l2.275,0.401l2.466,-13.985l-2.275,-0.402l1.723,-9.77l2.275,0.401l0.483,-2.736l38.998,6.877Zm-39.458,-4.108l-2.275,-0.401l-1.713,9.714l2.275,0.402l-2.476,14.041l-2.275,-0.401l-1.713,9.715l2.275,0.401l-0.482,2.736l38.943,6.866l0.482,-2.735l2.275,0.401l1.713,-9.715l-2.275,-0.401l2.476,-14.042l2.275,0.401l1.713,-9.714l-2.275,-0.402l0.482,-2.735l-38.942,-6.867l-0.483,2.736Z"/>
                <path d="M127.974,14.438l-0.482,2.736l2.275,0.401l-1.723,9.771l-2.275,-0.401l-2.466,13.986l2.275,0.401l-1.722,9.77l-2.276,-0.401l-0.482,2.736l-38.998,-6.877l0.482,-2.735l-2.275,-0.402l1.723,-9.77l2.275,0.401l2.466,-13.986l-2.275,-0.401l1.723,-9.77l2.275,0.401l0.482,-2.736l38.998,6.876Zm-39.457,-4.107l-2.275,-0.402l-1.713,9.715l2.275,0.401l-2.476,14.042l-2.275,-0.401l-1.713,9.714l2.275,0.402l-0.483,2.735l38.943,6.867l0.482,-2.736l2.276,0.401l1.712,-9.714l-2.275,-0.401l2.476,-14.042l2.275,0.401l1.713,-9.715l-2.275,-0.401l0.483,-2.736l-38.943,-6.866l-0.482,2.736Z"/>
                <path d="M118.599,67.609l-0.482,2.735l2.275,0.402l-1.723,9.77l-2.275,-0.401l-2.466,13.986l2.275,0.401l-1.723,9.77l-2.275,-0.401l-0.482,2.736l-38.999,-6.876l0.483,-2.736l-2.275,-0.401l1.722,-9.771l2.275,0.401l2.467,-13.986l-2.276,-0.401l1.723,-9.77l2.275,0.401l0.483,-2.736l38.998,6.877Zm-39.458,-4.108l-2.275,-0.401l-1.713,9.714l2.275,0.401l-2.476,14.042l-2.275,-0.401l-1.713,9.715l2.276,0.401l-0.483,2.736l38.943,6.866l0.482,-2.736l2.275,0.402l1.713,-9.715l-2.275,-0.401l2.476,-14.042l2.275,0.401l1.713,-9.714l-2.275,-0.402l0.482,-2.735l-38.942,-6.867l-0.483,2.736Z"/>
                <path d="M109.224,120.779l-0.483,2.736l2.276,0.401l-1.723,9.77l-2.275,-0.401l-2.466,13.986l2.275,0.401l-1.723,9.771l-2.275,-0.402l-0.483,2.736l-38.998,-6.876l0.482,-2.736l-2.275,-0.401l1.723,-9.771l2.275,0.401l2.466,-13.985l-2.275,-0.402l1.723,-9.77l2.275,0.401l0.482,-2.736l38.999,6.877Zm-39.458,-4.108l-2.275,-0.401l-1.713,9.714l2.275,0.402l-2.476,14.041l-2.275,-0.401l-1.713,9.715l2.275,0.401l-0.482,2.736l38.942,6.866l0.483,-2.735l2.275,0.401l1.713,-9.715l-2.275,-0.401l2.476,-14.042l2.275,0.401l1.713,-9.714l-2.275,-0.401l0.482,-2.736l-38.943,-6.867l-0.482,2.736Z"/>
                <path d="M99.848,173.949l-0.482,2.736l2.275,0.401l-1.723,9.77l-2.275,-0.401l-2.466,13.986l2.275,0.401l-1.722,9.771l-2.276,-0.401l-0.482,2.735l-38.998,-6.876l0.482,-2.736l-2.275,-0.401l1.723,-9.771l2.275,0.402l2.466,-13.986l-2.275,-0.401l1.723,-9.771l2.275,0.401l0.482,-2.735l38.998,6.876Zm-39.457,-4.108l-2.275,-0.401l-1.713,9.715l2.275,0.401l-2.476,14.041l-2.275,-0.401l-1.713,9.715l2.275,0.401l-0.483,2.736l38.943,6.867l0.482,-2.736l2.276,0.401l1.712,-9.715l-2.275,-0.401l2.476,-14.042l2.275,0.402l1.713,-9.715l-2.275,-0.401l0.483,-2.736l-38.943,-6.867l-0.482,2.736Z"/>
                <path d="M182.703,14.952l-0.482,2.736l2.275,0.401l-1.723,9.771l-2.275,-0.401l-2.466,13.985l2.275,0.402l-1.722,9.77l-2.276,-0.401l-0.482,2.736l-38.998,-6.877l0.482,-2.736l-2.275,-0.401l1.723,-9.77l2.275,0.401l2.466,-13.986l-2.275,-0.401l1.723,-9.771l2.275,0.402l0.482,-2.736l38.998,6.876Zm-39.457,-4.108l-2.275,-0.401l-1.713,9.715l2.275,0.401l-2.476,14.042l-2.275,-0.401l-1.713,9.714l2.275,0.401l-0.483,2.736l38.943,6.867l0.482,-2.736l2.276,0.401l1.712,-9.714l-2.275,-0.402l2.476,-14.041l2.275,0.401l1.713,-9.715l-2.275,-0.401l0.483,-2.736l-38.943,-6.866l-0.482,2.735Z"/>
                <path d="M173.328,68.122l-0.482,2.736l2.275,0.401l-1.723,9.771l-2.275,-0.401l-2.466,13.986l2.275,0.401l-1.723,9.77l-2.275,-0.401l-0.482,2.736l-38.999,-6.877l0.483,-2.735l-2.275,-0.402l1.722,-9.77l2.275,0.401l2.467,-13.986l-2.276,-0.401l1.723,-9.77l2.275,0.401l0.483,-2.736l38.998,6.876Zm-39.458,-4.107l-2.275,-0.402l-1.713,9.715l2.275,0.401l-2.476,14.042l-2.275,-0.401l-1.713,9.714l2.275,0.402l-0.482,2.735l38.943,6.867l0.482,-2.736l2.275,0.401l1.713,-9.714l-2.275,-0.401l2.476,-14.042l2.275,0.401l1.713,-9.715l-2.275,-0.401l0.482,-2.736l-38.942,-6.866l-0.483,2.736Z"/>
                <path d="M163.953,121.293l-0.483,2.735l2.276,0.402l-1.723,9.77l-2.275,-0.401l-2.466,13.986l2.275,0.401l-1.723,9.77l-2.275,-0.401l-0.483,2.736l-38.998,-6.876l0.482,-2.736l-2.275,-0.401l1.723,-9.771l2.275,0.401l2.466,-13.986l-2.275,-0.401l1.723,-9.77l2.275,0.401l0.482,-2.736l38.999,6.877Zm-39.458,-4.108l-2.275,-0.401l-1.713,9.714l2.275,0.401l-2.476,14.042l-2.275,-0.401l-1.713,9.715l2.275,0.401l-0.482,2.736l38.942,6.866l0.483,-2.736l2.275,0.402l1.713,-9.715l-2.275,-0.401l2.476,-14.042l2.275,0.401l1.713,-9.714l-2.275,-0.402l0.482,-2.735l-38.943,-6.867l-0.482,2.736Z"/>
                <path d="M153.015,183.324l-0.482,2.735l2.275,0.402l-1.723,9.77l-2.275,-0.401l-2.466,13.986l2.275,0.401l-1.723,9.77l-2.275,-0.401l-0.482,2.736l-38.999,-6.876l0.483,-2.736l-2.276,-0.401l1.723,-9.771l2.275,0.401l2.466,-13.985l-2.275,-0.402l1.723,-9.77l2.275,0.401l0.483,-2.736l38.998,6.877Zm-39.458,-4.108l-2.275,-0.401l-1.713,9.714l2.275,0.402l-2.476,14.041l-2.275,-0.401l-1.713,9.715l2.275,0.401l-0.482,2.736l38.943,6.866l0.482,-2.736l2.275,0.402l1.713,-9.715l-2.275,-0.401l2.476,-14.042l2.275,0.401l1.713,-9.714l-2.275,-0.402l0.482,-2.735l-38.942,-6.867l-0.483,2.736Z"/>
                <path d="M237.43,15.478l-0.482,2.735l2.275,0.402l-1.723,9.77l-2.275,-0.401l-2.466,13.986l2.275,0.401l-1.723,9.77l-2.275,-0.401l-0.482,2.736l-38.998,-6.876l0.482,-2.736l-2.275,-0.401l1.723,-9.771l2.275,0.401l2.466,-13.986l-2.275,-0.401l1.722,-9.77l2.276,0.401l0.482,-2.736l38.998,6.877Zm-39.457,-4.108l-2.276,-0.401l-1.713,9.714l2.276,0.401l-2.476,14.042l-2.275,-0.401l-1.713,9.715l2.275,0.401l-0.483,2.736l38.943,6.866l0.482,-2.736l2.275,0.402l1.713,-9.715l-2.275,-0.401l2.476,-14.042l2.275,0.401l1.713,-9.714l-2.275,-0.402l0.483,-2.735l-38.943,-6.867l-0.482,2.736Z"/>
                <path d="M228.055,68.648l-0.482,2.736l2.275,0.401l-1.723,9.77l-2.275,-0.401l-2.466,13.986l2.275,0.401l-1.723,9.771l-2.275,-0.402l-0.482,2.736l-38.999,-6.876l0.483,-2.736l-2.276,-0.401l1.723,-9.771l2.275,0.401l2.466,-13.985l-2.275,-0.402l1.723,-9.77l2.275,0.401l0.483,-2.736l38.998,6.877Zm-39.458,-4.108l-2.275,-0.401l-1.713,9.714l2.275,0.402l-2.476,14.041l-2.275,-0.401l-1.713,9.715l2.275,0.401l-0.482,2.736l38.943,6.866l0.482,-2.735l2.275,0.401l1.713,-9.715l-2.275,-0.401l2.476,-14.042l2.275,0.401l1.713,-9.714l-2.275,-0.401l0.482,-2.736l-38.942,-6.867l-0.483,2.736Z"/>
                <path d="M218.68,121.818l-0.483,2.736l2.275,0.401l-1.722,9.77l-2.275,-0.401l-2.467,13.986l2.276,0.401l-1.723,9.771l-2.275,-0.401l-0.483,2.735l-38.998,-6.876l0.482,-2.736l-2.275,-0.401l1.723,-9.771l2.275,0.402l2.466,-13.986l-2.275,-0.401l1.723,-9.771l2.275,0.401l0.482,-2.735l38.999,6.876Zm-39.458,-4.108l-2.275,-0.401l-1.713,9.715l2.275,0.401l-2.476,14.041l-2.275,-0.401l-1.713,9.715l2.275,0.401l-0.482,2.736l38.942,6.867l0.483,-2.736l2.275,0.401l1.713,-9.715l-2.275,-0.401l2.476,-14.042l2.275,0.402l1.713,-9.715l-2.276,-0.401l0.483,-2.736l-38.943,-6.867l-0.482,2.736Z"/>
                <path d="M206.182,192.698l-0.483,2.736l2.275,0.401l-1.722,9.771l-2.276,-0.401l-2.466,13.985l2.275,0.402l-1.722,9.77l-2.276,-0.401l-0.482,2.736l-38.998,-6.877l0.482,-2.735l-2.275,-0.402l1.723,-9.77l2.275,0.401l2.466,-13.986l-2.275,-0.401l1.723,-9.77l2.275,0.401l0.482,-2.736l38.999,6.876Zm-39.458,-4.107l-2.275,-0.402l-1.713,9.715l2.275,0.401l-2.476,14.042l-2.275,-0.401l-1.713,9.714l2.275,0.402l-0.482,2.735l38.942,6.867l0.482,-2.736l2.276,0.401l1.713,-9.714l-2.276,-0.402l2.476,-14.041l2.276,0.401l1.712,-9.715l-2.275,-0.401l0.483,-2.736l-38.943,-6.866l-0.482,2.736Z"/>
                <path d="M289.037,33.702l-0.483,2.735l2.275,0.402l-1.722,9.77l-2.276,-0.401l-2.466,13.986l2.275,0.401l-1.722,9.77l-2.276,-0.401l-0.482,2.736l-38.998,-6.876l0.482,-2.736l-2.275,-0.401l1.723,-9.771l2.275,0.401l2.466,-13.986l-2.275,-0.401l1.723,-9.77l2.275,0.401l0.482,-2.736l38.999,6.877Zm-39.458,-4.108l-2.275,-0.401l-1.713,9.714l2.275,0.401l-2.476,14.042l-2.275,-0.401l-1.713,9.715l2.275,0.401l-0.482,2.736l38.942,6.866l0.482,-2.736l2.276,0.402l1.713,-9.715l-2.276,-0.401l2.476,-14.042l2.276,0.401l1.712,-9.714l-2.275,-0.402l0.483,-2.735l-38.943,-6.867l-0.482,2.736Z"/>
                <path d="M342.223,43.08l-0.482,2.736l2.275,0.401l-1.723,9.77l-2.275,-0.401l-2.466,13.986l2.275,0.401l-1.723,9.771l-2.275,-0.401l-0.482,2.735l-38.998,-6.876l0.482,-2.736l-2.275,-0.401l1.723,-9.771l2.275,0.402l2.466,-13.986l-2.275,-0.401l1.723,-9.771l2.275,0.401l0.482,-2.736l38.998,6.877Zm-39.457,-4.108l-2.275,-0.401l-1.713,9.715l2.275,0.401l-2.476,14.041l-2.275,-0.401l-1.713,9.715l2.275,0.401l-0.483,2.736l38.943,6.866l0.482,-2.735l2.276,0.401l1.712,-9.715l-2.275,-0.401l2.476,-14.042l2.275,0.402l1.713,-9.715l-2.275,-0.401l0.483,-2.736l-38.943,-6.867l-0.482,2.736Z"/>
                <path d="M279.661,86.872l-0.482,2.736l2.275,0.401l-1.723,9.77l-2.275,-0.401l-2.466,13.986l2.275,0.401l-1.723,9.771l-2.275,-0.402l-0.482,2.736l-38.999,-6.876l0.483,-2.736l-2.275,-0.401l1.722,-9.771l2.276,0.401l2.466,-13.985l-2.275,-0.402l1.722,-9.77l2.275,0.401l0.483,-2.736l38.998,6.877Zm-39.458,-4.108l-2.275,-0.401l-1.713,9.714l2.275,0.402l-2.475,14.041l-2.276,-0.401l-1.713,9.715l2.276,0.401l-0.483,2.736l38.943,6.866l0.482,-2.735l2.275,0.401l1.713,-9.715l-2.275,-0.401l2.476,-14.042l2.275,0.401l1.713,-9.714l-2.275,-0.401l0.482,-2.736l-38.942,-6.867l-0.483,2.736Z"/>
                <path d="M332.848,96.25l-0.482,2.736l2.275,0.401l-1.723,9.771l-2.275,-0.402l-2.466,13.986l2.275,0.401l-1.723,9.771l-2.275,-0.401l-0.482,2.735l-38.999,-6.876l0.483,-2.736l-2.276,-0.401l1.723,-9.77l2.275,0.401l2.467,-13.986l-2.276,-0.401l1.723,-9.771l2.275,0.401l0.483,-2.735l38.998,6.876Zm-39.458,-4.108l-2.275,-0.401l-1.713,9.715l2.275,0.401l-2.476,14.042l-2.275,-0.402l-1.713,9.715l2.275,0.401l-0.482,2.736l38.943,6.867l0.482,-2.736l2.275,0.401l1.713,-9.715l-2.275,-0.401l2.476,-14.041l2.275,0.401l1.713,-9.715l-2.275,-0.401l0.482,-2.736l-38.942,-6.867l-0.483,2.736Z"/>
                <path d="M270.286,140.042l-0.482,2.736l2.275,0.401l-1.723,9.77l-2.275,-0.401l-2.466,13.986l2.275,0.401l-1.723,9.771l-2.275,-0.401l-0.483,2.735l-38.998,-6.876l0.482,-2.736l-2.275,-0.401l1.723,-9.771l2.275,0.402l2.466,-13.986l-2.275,-0.401l1.723,-9.771l2.275,0.401l0.483,-2.735l38.998,6.876Zm-39.458,-4.108l-2.275,-0.401l-1.713,9.715l2.275,0.401l-2.476,14.041l-2.275,-0.401l-1.713,9.715l2.275,0.401l-0.482,2.736l38.942,6.867l0.483,-2.736l2.275,0.401l1.713,-9.715l-2.275,-0.401l2.476,-14.042l2.275,0.402l1.713,-9.715l-2.275,-0.401l0.482,-2.736l-38.943,-6.867l-0.482,2.736Z"/>
                <path d="M323.473,149.42l-0.483,2.736l2.276,0.401l-1.723,9.771l-2.275,-0.401l-2.467,13.985l2.276,0.402l-1.723,9.77l-2.275,-0.401l-0.483,2.736l-38.998,-6.877l0.482,-2.736l-2.275,-0.401l1.723,-9.77l2.275,0.401l2.466,-13.986l-2.275,-0.401l1.723,-9.771l2.275,0.402l0.482,-2.736l38.999,6.876Zm-39.458,-4.108l-2.275,-0.401l-1.713,9.715l2.275,0.401l-2.476,14.042l-2.275,-0.401l-1.713,9.714l2.275,0.401l-0.482,2.736l38.942,6.867l0.483,-2.736l2.275,0.401l1.713,-9.714l-2.275,-0.402l2.476,-14.041l2.275,0.401l1.713,-9.715l-2.275,-0.401l0.482,-2.736l-38.943,-6.866l-0.482,2.735Z"/>
                <path d="M259.348,202.073l-0.482,2.736l2.275,0.401l-1.723,9.771l-2.275,-0.402l-2.466,13.986l2.275,0.401l-1.723,9.771l-2.275,-0.401l-0.482,2.735l-38.999,-6.876l0.483,-2.736l-2.275,-0.401l1.722,-9.77l2.275,0.401l2.467,-13.986l-2.276,-0.401l1.723,-9.771l2.275,0.401l0.483,-2.735l38.998,6.876Zm-39.458,-4.108l-2.275,-0.401l-1.713,9.715l2.275,0.401l-2.476,14.042l-2.275,-0.402l-1.713,9.715l2.276,0.401l-0.483,2.736l38.943,6.867l0.482,-2.736l2.275,0.401l1.713,-9.715l-2.275,-0.401l2.476,-14.041l2.275,0.401l1.713,-9.715l-2.275,-0.401l0.482,-2.736l-38.942,-6.867l-0.483,2.736Z"/>
                <path d="M326.969,228.837l-1.785,2.128l1.77,1.485l-6.378,7.6l-1.769,-1.485l-9.129,10.879l1.77,1.485l-6.378,7.6l-1.769,-1.485l-1.786,2.128l-30.335,-25.454l1.785,-2.128l-1.769,-1.485l6.377,-7.6l1.77,1.485l9.128,-10.879l-1.77,-1.485l6.378,-7.6l1.769,1.485l1.786,-2.128l30.335,25.454Zm-32.117,-23.286l-1.77,-1.485l-6.341,7.556l1.77,1.485l-9.165,10.923l-1.77,-1.485l-6.34,7.556l1.769,1.485l-1.785,2.128l30.292,25.418l1.785,-2.128l1.77,1.485l6.341,-7.556l-1.77,-1.485l9.165,-10.923l1.77,1.485l6.341,-7.556l-1.77,-1.485l1.786,-2.129l-30.292,-25.417l-1.786,2.128Z"/>
                <path d="M774.272,9.724l2.275,-0.401l1.723,9.77l-2.275,0.401l2.466,13.986l2.275,-0.401l1.723,9.771l-2.276,0.401l0.483,2.735l-38.999,6.877l-0.482,-2.736l-2.275,0.401l-1.723,-9.77l2.275,-0.401l-2.466,-13.986l-2.275,0.401l-1.723,-9.771l2.275,-0.401l-0.482,-2.735l38.998,-6.877l0.483,2.736Zm-39.448,4.164l0.482,2.735l-2.275,0.401l1.713,9.715l2.275,-0.401l2.476,14.042l-2.275,0.401l1.713,9.715l2.275,-0.402l0.482,2.736l38.943,-6.867l-0.482,-2.735l2.275,-0.401l-1.713,-9.715l-2.275,0.401l-2.476,-14.042l2.275,-0.401l-1.713,-9.714l-2.275,0.401l-0.483,-2.736l-38.942,6.867Z"/>
                <path d="M783.647,62.894l2.275,-0.401l1.723,9.77l-2.275,0.402l2.466,13.985l2.275,-0.401l1.723,9.771l-2.275,0.401l0.482,2.736l-38.998,6.876l-0.483,-2.736l-2.275,0.402l-1.723,-9.771l2.276,-0.401l-2.467,-13.986l-2.275,0.401l-1.722,-9.77l2.275,-0.402l-0.483,-2.735l38.999,-6.877l0.482,2.736Zm-39.448,4.164l0.482,2.735l-2.275,0.402l1.713,9.714l2.275,-0.401l2.476,14.042l-2.275,0.401l1.713,9.715l2.275,-0.401l0.483,2.735l38.942,-6.866l-0.482,-2.736l2.275,-0.401l-1.713,-9.715l-2.275,0.401l-2.476,-14.041l2.275,-0.402l-1.713,-9.714l-2.275,0.401l-0.482,-2.736l-38.943,6.867Z"/>
                <path d="M793.022,116.064l2.276,-0.401l1.722,9.771l-2.275,0.401l2.466,13.986l2.275,-0.402l1.723,9.771l-2.275,0.401l0.482,2.736l-38.998,6.876l-0.482,-2.735l-2.275,0.401l-1.723,-9.771l2.275,-0.401l-2.466,-13.986l-2.275,0.401l-1.723,-9.77l2.275,-0.401l-0.482,-2.736l38.998,-6.877l0.482,2.736Zm-39.448,4.164l0.483,2.736l-2.275,0.401l1.713,9.715l2.275,-0.402l2.476,14.042l-2.275,0.401l1.713,9.715l2.275,-0.401l0.482,2.735l38.943,-6.866l-0.483,-2.736l2.275,-0.401l-1.713,-9.715l-2.275,0.401l-2.476,-14.041l2.275,-0.401l-1.713,-9.715l-2.275,0.401l-0.482,-2.736l-38.943,6.867Z"/>
                <path d="M719.542,10.233l2.275,-0.401l1.723,9.77l-2.275,0.401l2.466,13.986l2.275,-0.401l1.723,9.771l-2.275,0.401l0.482,2.736l-38.998,6.876l-0.483,-2.736l-2.275,0.401l-1.723,-9.77l2.275,-0.401l-2.466,-13.986l-2.275,0.401l-1.723,-9.77l2.276,-0.402l-0.483,-2.735l38.999,-6.877l0.482,2.736Zm-39.448,4.164l0.482,2.735l-2.275,0.402l1.713,9.714l2.275,-0.401l2.476,14.042l-2.275,0.401l1.713,9.715l2.275,-0.402l0.483,2.736l38.942,-6.866l-0.482,-2.736l2.275,-0.401l-1.713,-9.715l-2.275,0.401l-2.476,-14.042l2.275,-0.401l-1.713,-9.714l-2.275,0.401l-0.482,-2.736l-38.943,6.867Z"/>
                <path d="M728.917,63.403l2.275,-0.401l1.723,9.77l-2.275,0.402l2.466,13.985l2.275,-0.401l1.723,9.771l-2.275,0.401l0.482,2.736l-38.998,6.876l-0.482,-2.736l-2.276,0.402l-1.722,-9.771l2.275,-0.401l-2.466,-13.986l-2.275,0.401l-1.723,-9.77l2.275,-0.401l-0.483,-2.736l38.999,-6.877l0.482,2.736Zm-39.448,4.164l0.483,2.736l-2.275,0.401l1.712,9.714l2.276,-0.401l2.476,14.042l-2.276,0.401l1.713,9.715l2.276,-0.401l0.482,2.735l38.942,-6.866l-0.482,-2.736l2.275,-0.401l-1.713,-9.715l-2.275,0.401l-2.476,-14.041l2.275,-0.402l-1.713,-9.714l-2.275,0.401l-0.482,-2.736l-38.943,6.867Z"/>
                <path d="M738.293,116.573l2.275,-0.401l1.723,9.771l-2.276,0.401l2.466,13.986l2.276,-0.402l1.722,9.771l-2.275,0.401l0.483,2.736l-38.999,6.876l-0.482,-2.735l-2.275,0.401l-1.723,-9.771l2.275,-0.401l-2.466,-13.986l-2.275,0.401l-1.723,-9.77l2.275,-0.401l-0.482,-2.736l38.998,-6.876l0.483,2.735Zm-39.448,4.164l0.482,2.736l-2.275,0.401l1.713,9.715l2.275,-0.402l2.476,14.042l-2.275,0.401l1.713,9.715l2.275,-0.401l0.482,2.736l38.943,-6.867l-0.483,-2.736l2.276,-0.401l-1.713,-9.715l-2.276,0.401l-2.475,-14.041l2.275,-0.401l-1.713,-9.715l-2.275,0.401l-0.483,-2.736l-38.942,6.867Z"/>
                <path d="M747.668,169.743l2.275,-0.401l1.723,9.771l-2.275,0.401l2.466,13.986l2.275,-0.401l1.723,9.77l-2.275,0.401l0.482,2.736l-38.998,6.877l-0.483,-2.736l-2.275,0.401l-1.723,-9.771l2.275,-0.401l-2.466,-13.986l-2.275,0.402l-1.723,-9.771l2.276,-0.401l-0.483,-2.736l38.999,-6.876l0.482,2.735Zm-39.448,4.164l0.482,2.736l-2.275,0.401l1.713,9.715l2.275,-0.401l2.476,14.041l-2.275,0.401l1.713,9.715l2.275,-0.401l0.483,2.736l38.942,-6.867l-0.482,-2.736l2.275,-0.401l-1.713,-9.715l-2.275,0.402l-2.476,-14.042l2.275,-0.401l-1.713,-9.715l-2.275,0.401l-0.482,-2.735l-38.943,6.866Z"/>
                <path d="M664.813,10.747l2.275,-0.401l1.723,9.77l-2.275,0.401l2.466,13.986l2.275,-0.401l1.723,9.77l-2.275,0.402l0.482,2.735l-38.998,6.877l-0.483,-2.736l-2.275,0.401l-1.723,-9.77l2.275,-0.401l-2.466,-13.986l-2.275,0.401l-1.723,-9.771l2.276,-0.401l-0.483,-2.736l38.999,-6.876l0.482,2.736Zm-39.448,4.163l0.482,2.736l-2.275,0.401l1.713,9.715l2.275,-0.401l2.476,14.042l-2.275,0.401l1.713,9.714l2.275,-0.401l0.483,2.736l38.942,-6.867l-0.482,-2.735l2.275,-0.402l-1.713,-9.714l-2.275,0.401l-2.476,-14.042l2.275,-0.401l-1.713,-9.715l-2.275,0.402l-0.482,-2.736l-38.943,6.866Z"/>
                <path d="M674.188,63.917l2.275,-0.401l1.723,9.77l-2.275,0.401l2.466,13.986l2.275,-0.401l1.723,9.771l-2.275,0.401l0.482,2.736l-38.998,6.876l-0.482,-2.736l-2.276,0.401l-1.722,-9.77l2.275,-0.401l-2.466,-13.986l-2.275,0.401l-1.723,-9.77l2.275,-0.402l-0.483,-2.735l38.999,-6.877l0.482,2.736Zm-39.448,4.164l0.483,2.735l-2.275,0.402l1.713,9.714l2.275,-0.401l2.476,14.042l-2.276,0.401l1.713,9.715l2.276,-0.402l0.482,2.736l38.942,-6.866l-0.482,-2.736l2.275,-0.401l-1.713,-9.715l-2.275,0.401l-2.476,-14.042l2.275,-0.401l-1.713,-9.714l-2.275,0.401l-0.482,-2.736l-38.943,6.867Z"/>
                <path d="M683.564,117.087l2.275,-0.401l1.723,9.77l-2.276,0.402l2.466,13.985l2.276,-0.401l1.722,9.771l-2.275,0.401l0.483,2.736l-38.999,6.876l-0.482,-2.736l-2.275,0.402l-1.723,-9.771l2.275,-0.401l-2.466,-13.986l-2.275,0.401l-1.723,-9.77l2.275,-0.401l-0.482,-2.736l38.998,-6.877l0.483,2.736Zm-39.448,4.164l0.482,2.736l-2.275,0.401l1.713,9.714l2.275,-0.401l2.476,14.042l-2.275,0.401l1.713,9.715l2.275,-0.401l0.482,2.735l38.943,-6.866l-0.483,-2.736l2.276,-0.401l-1.713,-9.715l-2.276,0.401l-2.475,-14.041l2.275,-0.402l-1.713,-9.714l-2.275,0.401l-0.483,-2.736l-38.942,6.867Z"/>
                <path d="M694.501,179.118l2.275,-0.401l1.723,9.771l-2.275,0.401l2.466,13.986l2.275,-0.402l1.723,9.771l-2.275,0.401l0.482,2.736l-38.998,6.876l-0.482,-2.735l-2.275,0.401l-1.723,-9.771l2.275,-0.401l-2.466,-13.986l-2.275,0.401l-1.723,-9.77l2.275,-0.401l-0.482,-2.736l38.998,-6.877l0.482,2.736Zm-39.448,4.164l0.483,2.736l-2.275,0.401l1.713,9.714l2.275,-0.401l2.476,14.042l-2.275,0.401l1.713,9.715l2.275,-0.401l0.482,2.735l38.943,-6.866l-0.483,-2.736l2.275,-0.401l-1.713,-9.715l-2.275,0.401l-2.476,-14.041l2.275,-0.401l-1.713,-9.715l-2.275,0.401l-0.482,-2.736l-38.943,6.867Z"/>
                <path d="M610.086,11.272l2.275,-0.401l1.723,9.77l-2.275,0.402l2.466,13.985l2.275,-0.401l1.723,9.771l-2.275,0.401l0.482,2.736l-38.998,6.876l-0.483,-2.736l-2.275,0.402l-1.723,-9.771l2.275,-0.401l-2.466,-13.986l-2.275,0.401l-1.723,-9.77l2.276,-0.401l-0.483,-2.736l38.999,-6.877l0.482,2.736Zm-39.448,4.164l0.482,2.736l-2.275,0.401l1.713,9.714l2.275,-0.401l2.476,14.042l-2.275,0.401l1.713,9.715l2.275,-0.401l0.483,2.735l38.942,-6.866l-0.482,-2.736l2.275,-0.401l-1.713,-9.715l-2.275,0.401l-2.476,-14.041l2.275,-0.402l-1.713,-9.714l-2.275,0.401l-0.482,-2.736l-38.943,6.867Z"/>
                <path d="M619.461,64.442l2.275,-0.401l1.723,9.771l-2.275,0.401l2.466,13.986l2.275,-0.402l1.723,9.771l-2.275,0.401l0.482,2.736l-38.998,6.876l-0.482,-2.735l-2.276,0.401l-1.722,-9.771l2.275,-0.401l-2.466,-13.986l-2.275,0.401l-1.723,-9.77l2.275,-0.401l-0.482,-2.736l38.998,-6.876l0.482,2.735Zm-39.448,4.164l0.483,2.736l-2.275,0.401l1.713,9.715l2.275,-0.402l2.476,14.042l-2.275,0.401l1.712,9.715l2.276,-0.401l0.482,2.736l38.943,-6.867l-0.483,-2.736l2.275,-0.401l-1.713,-9.715l-2.275,0.401l-2.476,-14.041l2.275,-0.401l-1.713,-9.715l-2.275,0.401l-0.482,-2.736l-38.943,6.867Z"/>
                <path d="M628.837,117.612l2.275,-0.401l1.723,9.771l-2.276,0.401l2.467,13.986l2.275,-0.401l1.722,9.77l-2.275,0.401l0.483,2.736l-38.999,6.877l-0.482,-2.736l-2.275,0.401l-1.723,-9.771l2.275,-0.401l-2.466,-13.986l-2.275,0.402l-1.723,-9.771l2.275,-0.401l-0.482,-2.736l38.998,-6.876l0.483,2.735Zm-39.448,4.164l0.482,2.736l-2.275,0.401l1.713,9.715l2.275,-0.401l2.476,14.041l-2.275,0.401l1.713,9.715l2.275,-0.401l0.482,2.736l38.943,-6.867l-0.482,-2.736l2.275,-0.401l-1.713,-9.715l-2.275,0.402l-2.476,-14.042l2.275,-0.401l-1.713,-9.715l-2.275,0.401l-0.483,-2.735l-38.942,6.866Z"/>
                <path d="M641.335,188.493l2.275,-0.401l1.723,9.77l-2.275,0.401l2.466,13.986l2.275,-0.401l1.723,9.771l-2.276,0.401l0.483,2.735l-38.999,6.877l-0.482,-2.736l-2.275,0.401l-1.723,-9.77l2.275,-0.401l-2.466,-13.986l-2.275,0.401l-1.723,-9.771l2.275,-0.401l-0.482,-2.735l38.998,-6.877l0.483,2.736Zm-39.448,4.164l0.482,2.735l-2.275,0.401l1.713,9.715l2.275,-0.401l2.476,14.042l-2.275,0.401l1.713,9.715l2.275,-0.402l0.482,2.736l38.943,-6.866l-0.482,-2.736l2.275,-0.401l-1.713,-9.715l-2.275,0.401l-2.476,-14.042l2.275,-0.401l-1.713,-9.714l-2.275,0.401l-0.483,-2.736l-38.942,6.867Z"/>
                <path d="M558.48,29.496l2.275,-0.401l1.723,9.77l-2.275,0.402l2.466,13.985l2.275,-0.401l1.723,9.771l-2.275,0.401l0.482,2.736l-38.998,6.876l-0.483,-2.736l-2.275,0.402l-1.723,-9.771l2.275,-0.401l-2.466,-13.986l-2.275,0.401l-1.723,-9.77l2.275,-0.401l-0.482,-2.736l38.998,-6.877l0.483,2.736Zm-39.448,4.164l0.482,2.736l-2.275,0.401l1.713,9.714l2.275,-0.401l2.476,14.042l-2.275,0.401l1.713,9.715l2.275,-0.401l0.482,2.735l38.943,-6.866l-0.482,-2.736l2.275,-0.401l-1.713,-9.715l-2.275,0.401l-2.476,-14.041l2.275,-0.402l-1.713,-9.714l-2.275,0.401l-0.483,-2.736l-38.942,6.867Z"/>
                <path d="M505.293,38.874l2.275,-0.401l1.723,9.771l-2.275,0.401l2.466,13.986l2.275,-0.401l1.723,9.77l-2.275,0.401l0.482,2.736l-38.998,6.876l-0.483,-2.735l-2.275,0.401l-1.723,-9.771l2.275,-0.401l-2.466,-13.986l-2.275,0.402l-1.723,-9.771l2.276,-0.401l-0.483,-2.736l38.999,-6.876l0.482,2.735Zm-39.448,4.164l0.482,2.736l-2.275,0.401l1.713,9.715l2.275,-0.401l2.476,14.041l-2.275,0.401l1.713,9.715l2.275,-0.401l0.483,2.736l38.942,-6.867l-0.482,-2.736l2.275,-0.401l-1.713,-9.715l-2.275,0.402l-2.476,-14.042l2.275,-0.401l-1.713,-9.715l-2.275,0.401l-0.482,-2.736l-38.943,6.867Z"/>
                <path d="M567.855,82.666l2.275,-0.401l1.723,9.771l-2.275,0.401l2.466,13.986l2.275,-0.402l1.723,9.771l-2.275,0.401l0.482,2.736l-38.998,6.876l-0.483,-2.735l-2.275,0.401l-1.722,-9.771l2.275,-0.401l-2.466,-13.986l-2.276,0.401l-1.722,-9.77l2.275,-0.401l-0.483,-2.736l38.999,-6.876l0.482,2.735Zm-39.448,4.164l0.483,2.736l-2.276,0.401l1.713,9.715l2.276,-0.402l2.475,14.042l-2.275,0.401l1.713,9.715l2.275,-0.401l0.483,2.736l38.942,-6.867l-0.482,-2.736l2.275,-0.401l-1.713,-9.715l-2.275,0.401l-2.476,-14.041l2.275,-0.401l-1.713,-9.715l-2.275,0.401l-0.482,-2.736l-38.943,6.867Z"/>
                <path d="M514.668,92.045l2.275,-0.402l1.723,9.771l-2.275,0.401l2.466,13.986l2.275,-0.401l1.723,9.77l-2.275,0.401l0.482,2.736l-38.998,6.877l-0.482,-2.736l-2.276,0.401l-1.722,-9.77l2.275,-0.402l-2.466,-13.985l-2.275,0.401l-1.723,-9.771l2.275,-0.401l-0.483,-2.736l38.999,-6.876l0.482,2.736Zm-39.448,4.163l0.483,2.736l-2.275,0.401l1.713,9.715l2.275,-0.401l2.476,14.041l-2.276,0.402l1.713,9.714l2.276,-0.401l0.482,2.736l38.943,-6.867l-0.483,-2.736l2.275,-0.401l-1.713,-9.714l-2.275,0.401l-2.476,-14.042l2.275,-0.401l-1.713,-9.715l-2.275,0.401l-0.482,-2.735l-38.943,6.866Z"/>
                <path d="M577.23,135.836l2.276,-0.401l1.722,9.771l-2.275,0.401l2.466,13.986l2.276,-0.401l1.722,9.77l-2.275,0.401l0.483,2.736l-38.999,6.877l-0.482,-2.736l-2.275,0.401l-1.723,-9.771l2.275,-0.401l-2.466,-13.986l-2.275,0.402l-1.723,-9.771l2.275,-0.401l-0.482,-2.736l38.998,-6.876l0.482,2.735Zm-39.447,4.164l0.482,2.736l-2.275,0.401l1.713,9.715l2.275,-0.401l2.476,14.041l-2.275,0.401l1.713,9.715l2.275,-0.401l0.482,2.736l38.943,-6.867l-0.483,-2.736l2.275,-0.401l-1.712,-9.715l-2.276,0.402l-2.476,-14.042l2.276,-0.401l-1.713,-9.715l-2.276,0.401l-0.482,-2.735l-38.942,6.866Z"/>
                <path d="M524.044,145.215l2.275,-0.401l1.723,9.77l-2.276,0.401l2.466,13.986l2.276,-0.401l1.722,9.77l-2.275,0.402l0.483,2.735l-38.999,6.877l-0.482,-2.736l-2.275,0.401l-1.723,-9.77l2.275,-0.401l-2.466,-13.986l-2.275,0.401l-1.723,-9.771l2.275,-0.401l-0.482,-2.736l38.998,-6.876l0.483,2.736Zm-39.448,4.163l0.482,2.736l-2.275,0.401l1.713,9.715l2.275,-0.401l2.476,14.042l-2.275,0.401l1.713,9.714l2.275,-0.401l0.482,2.736l38.943,-6.867l-0.483,-2.735l2.276,-0.402l-1.713,-9.714l-2.276,0.401l-2.475,-14.042l2.275,-0.401l-1.713,-9.715l-2.275,0.402l-0.483,-2.736l-38.942,6.866Z"/>
                <path d="M588.168,197.868l2.275,-0.402l1.723,9.771l-2.275,0.401l2.466,13.986l2.275,-0.401l1.723,9.77l-2.275,0.401l0.482,2.736l-38.998,6.877l-0.482,-2.736l-2.276,0.401l-1.722,-9.77l2.275,-0.402l-2.466,-13.985l-2.275,0.401l-1.723,-9.771l2.275,-0.401l-0.483,-2.736l38.999,-6.876l0.482,2.736Zm-39.448,4.163l0.483,2.736l-2.275,0.401l1.713,9.715l2.275,-0.401l2.476,14.041l-2.276,0.402l1.713,9.714l2.276,-0.401l0.482,2.736l38.942,-6.867l-0.482,-2.736l2.275,-0.401l-1.713,-9.714l-2.275,0.401l-2.476,-14.042l2.275,-0.401l-1.713,-9.715l-2.275,0.401l-0.482,-2.735l-38.943,6.866Z"/>
                <path d="M513.187,205.446l1.77,-1.485l6.377,7.6l-1.77,1.485l9.129,10.879l1.77,-1.485l6.377,7.6l-1.77,1.485l1.786,2.128l-30.335,25.455l-1.786,-2.129l-1.77,1.485l-6.377,-7.6l1.77,-1.485l-9.129,-10.879l-1.77,1.485l-6.377,-7.6l1.77,-1.485l-1.786,-2.128l30.335,-25.454l1.786,2.128Zm-32.081,23.33l1.786,2.128l-1.77,1.485l6.341,7.556l1.77,-1.485l9.165,10.923l-1.77,1.485l6.341,7.557l1.769,-1.485l1.786,2.128l30.292,-25.418l-1.786,-2.128l1.77,-1.485l-6.341,-7.557l-1.77,1.485l-9.165,-10.923l1.77,-1.485l-6.341,-7.556l-1.769,1.485l-1.786,-2.128l-30.292,25.418Z"/>
            </g>
            <g id="v2.2-thumbies" serif:id="v2.2 thumbies">
                <path d="M380.233,199.958l-1.786,2.128l1.77,1.485l-6.377,7.6l-1.77,-1.485l-9.128,10.879l1.769,1.485l-6.377,7.601l-1.77,-1.485l-1.785,2.128l-30.336,-25.455l1.786,-2.128l-1.77,-1.485l6.378,-7.6l1.769,1.485l9.129,-10.879l-1.77,-1.485l6.377,-7.6l1.77,1.485l1.786,-2.128l30.335,25.454Zm-32.117,-23.286l-1.77,-1.485l-6.341,7.556l1.77,1.485l-9.165,10.923l-1.77,-1.485l-6.341,7.557l1.77,1.485l-1.786,2.128l30.292,25.418l1.786,-2.128l1.77,1.485l6.34,-7.557l-1.769,-1.485l9.165,-10.923l1.769,1.485l6.341,-7.556l-1.769,-1.485l1.785,-2.128l-30.292,-25.418l-1.785,2.128Z"/>
            </g>
            <g id="v2.2-thumbies1" serif:id="v2.2 thumbies">
                <path d="M459.598,176.499l1.769,-1.485l6.378,7.6l-1.77,1.485l9.128,10.879l1.77,-1.485l6.377,7.6l-1.769,1.485l1.785,2.128l-30.335,25.454l-1.786,-2.128l-1.769,1.485l-6.378,-7.6l1.77,-1.485l-9.129,-10.879l-1.769,1.485l-6.378,-7.6l1.77,-1.485l-1.785,-2.128l30.335,-25.454l1.786,2.128Zm-32.082,23.33l1.786,2.128l-1.77,1.485l6.341,7.556l1.77,-1.485l9.165,10.923l-1.77,1.485l6.341,7.557l1.77,-1.485l1.785,2.128l30.292,-25.418l-1.785,-2.128l1.769,-1.485l-6.34,-7.557l-1.77,1.485l-9.165,-10.923l1.77,-1.485l-6.341,-7.556l-1.77,1.485l-1.786,-2.128l-30.292,25.418Z"/>
            </g>
        </g>
        <circle id="Reset-hole" serif:id="Reset hole" cx="403.723" cy="11.001" r="5.669" style="fill:none;stroke:#000;stroke-width:0.03px;stroke-miterlimit:1.5;"/>
        <g id="Logo">
            <g id="Logo1" serif:id="Logo">
                <g>
                    <path d="M399.119,123.298c0.352,0 0.528,-0.088 0.528,-0.264c0,-0.088 -0.088,-0.22 -0.264,-0.396c-2.246,-1.894 -2.95,-2.466 -5.329,-4.184c-1.497,1.674 -1.937,2.202 -3.391,3.92l-8.896,0c0.265,-2.775 0.353,-4.757 0.485,-11.054l18.54,0c0.353,0 0.529,-0.088 0.529,-0.265c0,-0.088 -0.088,-0.22 -0.264,-0.396c-2.378,-1.938 -3.083,-2.466 -5.549,-4.272c-1.498,1.718 -1.982,2.246 -3.391,4.008l-26.909,0c-1.497,0 -2.818,-0.132 -4.315,-0.397l0.264,1.586c1.233,-0.176 2.51,-0.264 3.963,-0.264l11.847,0c0,6.121 -0.088,8.059 -0.352,11.054l-9.865,0c-1.806,0 -2.995,-0.133 -4.404,-0.441l0.264,1.63c1.101,-0.176 2.642,-0.265 4.14,-0.265l9.733,0c-0.705,5.638 -2.511,10.174 -5.682,14.225c-2.598,3.391 -5.769,5.946 -10.437,8.5l0.22,0.484c2.687,-0.792 3.92,-1.233 5.505,-1.981c2.819,-1.278 5.461,-3.039 7.707,-5.065c4.448,-4.096 6.914,-9.072 7.839,-15.766c0.485,2.95 0.793,4.36 1.454,6.253c1.805,5.549 4.932,10.041 9.556,13.697c1.938,1.541 3.611,2.554 4.184,2.554c0.264,0 0.396,-0.132 0.484,-0.528c0.749,-2.291 2.07,-3.7 4.448,-4.625l0.088,-0.44c-4.271,-1.057 -6.429,-1.806 -9.028,-3.303c-2.554,-1.453 -4.756,-3.347 -6.518,-5.549c-1.981,-2.51 -2.818,-4.316 -4.007,-8.456l16.823,0Z" style="fill:none;fill-rule:nonzero;stroke:#000;stroke-width:0.03px;stroke-linecap:butt;stroke-miterlimit:2;"/>
                    <path d="M416.352,146.992c2.95,-2.643 4.58,-4.757 6.121,-7.839c2.29,-4.492 4.249,-9.557 4.513,-18.541c0.176,-6.121 0.176,-6.121 0.22,-7.971c1.63,-0.044 1.982,-0.044 3.48,-0.132l0,27.348c-4.581,0.353 -4.236,0.353 -4.808,0.353c-0.397,0 -0.837,-0.044 -1.674,-0.132c1.321,5.549 1.541,6.209 2.07,6.209c0.396,0 0.572,-0.352 0.837,-1.806c7.751,-2.598 7.45,-2.598 10.973,-4.183c0.088,1.057 0.088,1.805 0.132,3.347c0,1.497 0.132,1.893 0.661,1.893c1.189,0 2.085,-2.422 2.085,-4.183c0,-2.114 -0.877,-5.681 -3.783,-9.293l-0.397,0.176c0.793,2.687 0.862,4.316 1.17,6.959c-1.145,0.132 -1.585,0.22 -2.907,0.352l0,-27.349c1.894,-0.22 2.467,-0.264 3.964,-0.484c0.044,4.272 0.088,5.549 0.352,9.425c0.749,10.789 3.016,16.382 6.231,23.076c0.484,1.013 0.837,1.41 1.145,1.41c0.176,0 0.308,-0.177 0.396,-0.529c0.705,-3.039 1.189,-3.919 2.863,-4.976l0.088,-0.397c-1.718,-1.805 -2.422,-2.774 -3.391,-4.404c-1.542,-2.598 -3.897,-6.297 -4.91,-10.657c-0.968,-4.316 -1.321,-7.091 -1.717,-13.08c1.497,-0.264 1.982,-0.352 3.831,-0.793c0.617,0.132 1.454,0.264 1.63,0.264c0.308,0 0.572,-0.176 0.572,-0.44c0,-0.44 -0.66,-0.925 -5.461,-4.008c-1.321,1.013 -1.981,1.366 -4.227,2.202c-2.951,1.145 -6.078,2.114 -8.94,2.775c-2.158,-1.101 -2.474,-1.409 -4.676,-2.29c0.176,1.85 0.176,2.466 0.176,4.712c0,10.393 -1.775,16.515 -2.788,21.844c-0.881,4.536 -1.938,7.31 -4.184,10.878l0.353,0.264Zm-12.389,-5.153c3.788,1.233 4.757,2.026 4.845,4.14c0.044,0.749 0.176,0.881 0.748,0.881c0.485,0 1.277,-0.132 1.894,-0.309c1.629,-0.484 2.642,-1.365 3.435,-2.994c1.013,-2.07 1.718,-6.474 1.718,-10.526c0,-7.31 -1.189,-12.419 -4.052,-17.395c1.982,-1.806 3.303,-3.215 5.725,-6.034c1.674,-0.264 1.208,-1.1 1.169,-1.15c-0.08,-0.101 0.02,-0.391 -2.314,-1.14c-0.616,-0.22 -1.629,-0.528 -2.907,-0.969c-0.572,1.894 -1.541,3.788 -3.435,6.65c-1.365,-1.805 -2.378,-2.774 -4.8,-4.624l-0.396,0.352c1.937,2.334 2.686,3.568 3.875,6.122c-2.642,3.347 -3.039,3.787 -5.813,6.298l0.264,0.352c2.555,-1.277 4.272,-2.378 6.518,-4.14c0.573,1.674 0.837,2.731 1.189,4.624c-0.749,1.85 -1.145,2.643 -1.85,3.92c-1.937,3.391 -3.699,5.857 -6.253,8.676l0.264,0.308c2.775,-1.586 4.272,-2.643 6.078,-4.272c1.101,-1.013 1.937,-1.806 2.51,-2.422c0.044,1.409 0.088,2.158 0.088,3.303c0,3.655 -0.352,7.134 -0.969,9.028c-0.352,1.145 -0.484,1.233 -1.806,1.233c-0.924,0 -1.057,0 -5.681,-0.396l-0.044,0.484Z" style="fill:none;fill-rule:nonzero;stroke:#000;stroke-width:0.03px;stroke-linecap:butt;stroke-miterlimit:2;"/>
                </g>
                <path d="M349.247,146.992l0,-40.277l8.537,0l0,3.204l-4.666,0l0,33.869l4.666,0l0,3.204l-8.537,0Z" style="fill:none;fill-rule:nonzero;stroke:#000;stroke-width:0.03px;stroke-linecap:butt;stroke-miterlimit:2;"/>
                <path d="M458.789,146.992l-8.537,0l0,-3.204l4.666,0l0,-33.869l-4.666,0l0,-3.204l8.537,0l0,40.277Z" style="fill:none;fill-rule:nonzero;stroke:#000;stroke-width:0.03px;stroke-linecap:butt;stroke-miterlimit:2;"/>
            </g>
        </g>
    </g>
</svg>
