<?xml version="1.0" encoding="UTF-8" standalone="no"?>
<!DOCTYPE svg PUBLIC "-//W3C//DTD SVG 1.1//EN" "http://www.w3.org/Graphics/SVG/1.1/DTD/svg11.dtd">
<svg width="100%" height="100%" viewBox="0 0 2268 1117" version="1.1" xmlns="http://www.w3.org/2000/svg" xmlns:xlink="http://www.w3.org/1999/xlink" xml:space="preserve" xmlns:serif="http://www.serif.com/" style="fill-rule:evenodd;clip-rule:evenodd;stroke-linecap:round;stroke-linejoin:round;stroke-miterlimit:1.5;">
    <g id="Layer1">
        <g transform="matrix(1,0,0,1,1391.81,737.008)">
            <path d="M79.937,2.835C82.755,2.835 85.039,5.119 85.039,7.937C85.039,8.314 85.039,8.694 85.039,9.071C85.039,10.424 85.577,11.722 86.534,12.679C87.491,13.636 88.789,14.173 90.142,14.173C149.716,14.173 712.016,14.173 771.591,14.173C772.944,14.173 774.242,13.636 775.198,12.679C776.155,11.722 776.693,10.424 776.693,9.071C776.693,8.694 776.693,8.314 776.693,7.937C776.693,5.119 778.977,2.835 781.795,2.835C796.935,2.835 841.49,2.835 856.63,2.835C859.448,2.835 861.732,5.119 861.732,7.937C861.732,48.813 861.732,322.526 861.732,363.402C861.732,366.22 859.448,368.504 856.63,368.504C825.846,368.504 665.178,368.504 634.394,368.504C631.576,368.504 629.291,366.22 629.291,363.402C629.291,362.111 629.291,360.724 629.291,359.433C629.291,358.08 628.754,356.782 627.797,355.825C626.84,354.868 625.542,354.331 624.189,354.331C581.233,354.331 280.499,354.331 237.543,354.331C236.19,354.331 234.892,354.868 233.935,355.825C232.979,356.782 232.441,358.08 232.441,359.433C232.441,360.724 232.441,362.111 232.441,363.402C232.441,366.22 230.157,368.504 227.339,368.504C196.554,368.504 35.886,368.504 5.102,368.504C2.284,368.504 0,366.22 0,363.402C0,322.526 0,48.813 0,7.937C0,5.119 2.284,2.835 5.102,2.835C20.242,2.835 64.797,2.835 79.937,2.835Z" style="fill:none;stroke:#00f;stroke-width:0.03px;"/>
        </g>
        <g transform="matrix(2.16667,0,0,2.16667,389.764,328.819)">
            <circle cx="850.394" cy="348.661" r="8.504" style="fill:#999;stroke:#f00;stroke-width:0.01px;"/>
        </g>
        <g transform="matrix(2.16667,0,0,2.16667,390.189,5.66893)">
            <circle cx="850.394" cy="348.661" r="8.504" style="fill:#999;stroke:#f00;stroke-width:0.01px;"/>
        </g>
        <g transform="matrix(2.16667,0,0,2.16667,-429.449,5.66893)">
            <circle cx="850.394" cy="348.661" r="8.504" style="fill:#999;stroke:#f00;stroke-width:0.01px;"/>
        </g>
        <g transform="matrix(2.16667,0,0,2.16667,-19.8425,17.0075)">
            <circle cx="850.394" cy="348.661" r="8.504" style="fill:#999;stroke:#f00;stroke-width:0.01px;"/>
        </g>
        <g transform="matrix(2.16667,0,0,2.16667,-429.449,328.819)">
            <circle cx="850.394" cy="348.661" r="8.504" style="fill:#999;stroke:#f00;stroke-width:0.01px;"/>
        </g>
        <g transform="matrix(1,0,0,1,1411.65,715.748)">
            <circle cx="829.134" cy="344.409" r="4.252" style="fill:none;stroke:#00f;stroke-width:0.03px;"/>
        </g>
        <g transform="matrix(-1,0,0,1,2862.99,748.346)">
            <circle cx="829.134" cy="344.409" r="4.252" style="fill:none;stroke:#00f;stroke-width:0.03px;"/>
        </g>
        <g transform="matrix(-1,0,0,1,2804.88,419.51)">
            <circle cx="829.134" cy="344.409" r="4.252" style="fill:none;stroke:#00f;stroke-width:0.03px;"/>
        </g>
        <g transform="matrix(1,0,0,1,1411.65,443.622)">
            <circle cx="829.134" cy="344.409" r="4.252" style="fill:none;stroke:#00f;stroke-width:0.03px;"/>
        </g>
        <g transform="matrix(1,0,0,1,575.433,443.622)">
            <circle cx="829.134" cy="344.409" r="4.252" style="fill:none;stroke:#00f;stroke-width:0.03px;"/>
        </g>
        <g transform="matrix(1,0,0,1,575.433,579.685)">
            <circle cx="829.134" cy="344.409" r="4.252" style="fill:none;stroke:#00f;stroke-width:0.03px;"/>
        </g>
        <g transform="matrix(1,0,0,1,1411.65,579.685)">
            <circle cx="829.134" cy="344.409" r="4.252" style="fill:none;stroke:#00f;stroke-width:0.03px;"/>
        </g>
        <g transform="matrix(1,0,0,1,575.433,715.748)">
            <circle cx="829.134" cy="344.409" r="4.252" style="fill:none;stroke:#00f;stroke-width:0.03px;"/>
        </g>
        <g transform="matrix(-1,0,0,1,2440.63,748.38)">
            <circle cx="829.134" cy="344.409" r="4.252" style="fill:none;stroke:#00f;stroke-width:0.03px;"/>
        </g>
        <g transform="matrix(-1,0,0,1,2498.74,419.544)">
            <circle cx="829.134" cy="344.409" r="4.252" style="fill:none;stroke:#00f;stroke-width:0.03px;"/>
        </g>
        <g transform="matrix(1,0,0,1,1391.81,371.338)">
            <path d="M79.937,2.835C82.755,2.835 85.039,5.119 85.039,7.937C85.039,8.314 85.039,8.694 85.039,9.071C85.039,10.424 85.577,11.722 86.534,12.679C87.491,13.636 88.789,14.173 90.142,14.173C149.716,14.173 712.016,14.173 771.591,14.173C772.944,14.173 774.242,13.636 775.198,12.679C776.155,11.722 776.693,10.424 776.693,9.071C776.693,8.694 776.693,8.314 776.693,7.937C776.693,5.119 778.977,2.835 781.795,2.835C796.935,2.835 841.49,2.835 856.63,2.835C859.448,2.835 861.732,5.119 861.732,7.937C861.732,48.813 861.732,322.526 861.732,363.402C861.732,366.22 859.448,368.504 856.63,368.504C825.846,368.504 665.178,368.504 634.394,368.504C631.576,368.504 629.291,366.22 629.291,363.402C629.291,362.111 629.291,360.724 629.291,359.433C629.291,358.08 628.754,356.782 627.797,355.825C626.84,354.868 625.542,354.331 624.189,354.331C581.233,354.331 280.499,354.331 237.543,354.331C236.19,354.331 234.892,354.868 233.935,355.825C232.979,356.782 232.441,358.08 232.441,359.433C232.441,360.724 232.441,362.111 232.441,363.402C232.441,366.22 230.157,368.504 227.339,368.504C196.554,368.504 35.886,368.504 5.102,368.504C2.284,368.504 0,366.22 0,363.402C0,322.526 0,48.813 0,7.937C0,5.119 2.284,2.835 5.102,2.835C20.242,2.835 64.797,2.835 79.937,2.835Z" style="fill:none;stroke:#00f;stroke-width:0.03px;"/>
        </g>
        <g transform="matrix(0.967213,0,0,0.909621,1405.98,385.754)">
            <path d="M11.723,30.896C11.723,29.175 13.035,27.78 14.654,27.78C66.693,27.78 794.943,27.78 846.983,27.78C848.601,27.78 849.913,29.175 849.913,30.896C849.913,62.087 849.913,317.567 849.913,348.758C849.913,350.479 848.601,351.874 846.983,351.874C794.943,351.874 66.693,351.874 14.654,351.874C13.035,351.874 11.723,350.479 11.723,348.758C11.723,317.567 11.723,62.087 11.723,30.896Z" style="fill:none;stroke:#00f;stroke-width:0.03px;"/>
        </g>
        <g transform="matrix(1,0,0,1,1411.65,350.078)">
            <circle cx="829.134" cy="344.409" r="4.252" style="fill:none;stroke:#00f;stroke-width:0.03px;"/>
        </g>
        <g transform="matrix(-1,0,0,1,2862.99,382.677)">
            <circle cx="829.134" cy="344.409" r="4.252" style="fill:none;stroke:#00f;stroke-width:0.03px;"/>
        </g>
        <g transform="matrix(-1,0,0,1,2804.88,53.8409)">
            <circle cx="829.134" cy="344.409" r="4.252" style="fill:none;stroke:#00f;stroke-width:0.03px;"/>
        </g>
        <g transform="matrix(1,0,0,1,1411.65,77.9524)">
            <circle cx="829.134" cy="344.409" r="4.252" style="fill:none;stroke:#00f;stroke-width:0.03px;"/>
        </g>
        <g transform="matrix(1,0,0,1,575.433,77.9524)">
            <circle cx="829.134" cy="344.409" r="4.252" style="fill:none;stroke:#00f;stroke-width:0.03px;"/>
        </g>
        <g transform="matrix(1,0,0,1,575.433,214.015)">
            <circle cx="829.134" cy="344.409" r="4.252" style="fill:none;stroke:#00f;stroke-width:0.03px;"/>
        </g>
        <g transform="matrix(1,0,0,1,1411.65,214.015)">
            <circle cx="829.134" cy="344.409" r="4.252" style="fill:none;stroke:#00f;stroke-width:0.03px;"/>
        </g>
        <g transform="matrix(1,0,0,1,575.433,350.078)">
            <circle cx="829.134" cy="344.409" r="4.252" style="fill:none;stroke:#00f;stroke-width:0.03px;"/>
        </g>
        <g transform="matrix(-1,0,0,1,2440.63,382.711)">
            <circle cx="829.134" cy="344.409" r="4.252" style="fill:none;stroke:#00f;stroke-width:0.03px;"/>
        </g>
        <g transform="matrix(-1,0,0,1,2498.74,53.8749)">
            <circle cx="829.134" cy="344.409" r="4.252" style="fill:none;stroke:#00f;stroke-width:0.03px;"/>
        </g>
        <g transform="matrix(1,0,0,1,1391.81,5.66893)">
            <path d="M79.937,2.835C82.755,2.835 85.039,5.119 85.039,7.937C85.039,8.314 85.039,8.694 85.039,9.071C85.039,10.424 85.577,11.722 86.534,12.679C87.491,13.636 88.789,14.173 90.142,14.173C149.716,14.173 712.016,14.173 771.591,14.173C772.944,14.173 774.242,13.636 775.198,12.679C776.155,11.722 776.693,10.424 776.693,9.071C776.693,8.694 776.693,8.314 776.693,7.937C776.693,5.119 778.977,2.835 781.795,2.835C796.935,2.835 841.49,2.835 856.63,2.835C859.448,2.835 861.732,5.119 861.732,7.937C861.732,48.813 861.732,322.526 861.732,363.402C861.732,366.22 859.448,368.504 856.63,368.504C825.846,368.504 665.178,368.504 634.394,368.504C631.576,368.504 629.291,366.22 629.291,363.402C629.291,362.111 629.291,360.724 629.291,359.433C629.291,358.08 628.754,356.782 627.797,355.825C626.84,354.868 625.542,354.331 624.189,354.331C581.233,354.331 280.499,354.331 237.543,354.331C236.19,354.331 234.892,354.868 233.935,355.825C232.979,356.782 232.441,358.08 232.441,359.433C232.441,360.724 232.441,362.111 232.441,363.402C232.441,366.22 230.157,368.504 227.339,368.504C196.554,368.504 35.886,368.504 5.102,368.504C2.284,368.504 0,366.22 0,363.402C0,322.526 0,48.813 0,7.937C0,5.119 2.284,2.835 5.102,2.835C20.242,2.835 64.797,2.835 79.937,2.835Z" style="fill:none;stroke:#00f;stroke-width:0.03px;"/>
        </g>
        <g transform="matrix(1,0,0,1,1411.65,-15.5909)">
            <circle cx="829.134" cy="344.409" r="4.252" style="fill:none;stroke:#00f;stroke-width:0.03px;"/>
        </g>
        <g transform="matrix(-1,0,0,1,2862.99,17.0075)">
            <circle cx="829.134" cy="344.409" r="4.252" style="fill:none;stroke:#00f;stroke-width:0.03px;"/>
        </g>
        <g transform="matrix(-1,0,0,1,2804.88,-311.828)">
            <circle cx="829.134" cy="344.409" r="4.252" style="fill:none;stroke:#00f;stroke-width:0.03px;"/>
        </g>
        <g transform="matrix(1,0,0,1,1411.65,-287.717)">
            <circle cx="829.134" cy="344.409" r="4.252" style="fill:none;stroke:#00f;stroke-width:0.03px;"/>
        </g>
        <g transform="matrix(1,0,0,1,575.433,-287.717)">
            <circle cx="829.134" cy="344.409" r="4.252" style="fill:none;stroke:#00f;stroke-width:0.03px;"/>
        </g>
        <g transform="matrix(1,0,0,1,575.433,-151.654)">
            <circle cx="829.134" cy="344.409" r="4.252" style="fill:none;stroke:#00f;stroke-width:0.03px;"/>
        </g>
        <g transform="matrix(1,0,0,1,1411.65,-151.654)">
            <circle cx="829.134" cy="344.409" r="4.252" style="fill:none;stroke:#00f;stroke-width:0.03px;"/>
        </g>
        <g transform="matrix(1,0,0,1,575.433,-15.5909)">
            <circle cx="829.134" cy="344.409" r="4.252" style="fill:none;stroke:#00f;stroke-width:0.03px;"/>
        </g>
        <g transform="matrix(-1,0,0,1,2440.63,17.0414)">
            <circle cx="829.134" cy="344.409" r="4.252" style="fill:none;stroke:#00f;stroke-width:0.03px;"/>
        </g>
        <g transform="matrix(-1,0,0,1,2498.74,-311.794)">
            <circle cx="829.134" cy="344.409" r="4.252" style="fill:none;stroke:#00f;stroke-width:0.03px;"/>
        </g>
        <g transform="matrix(0.939693,0.34202,-0.34202,0.939693,1455.63,-4.08052)">
            <path d="M281.911,160.428L284.215,160.428L284.215,157.649L323.247,157.649L323.247,160.428L325.552,160.428L325.552,170.35L323.247,170.35L323.247,183.981L325.552,183.981L325.552,193.903L323.248,193.903L323.248,196.682L284.213,196.682L284.213,193.903L281.911,193.903L281.911,183.981L284.214,183.981L284.214,170.35L281.911,170.35L281.911,160.428Z" style="fill:none;stroke:#00f;stroke-width:0.03px;stroke-linecap:square;stroke-linejoin:miter;stroke-miterlimit:2;"/>
        </g>
        <g transform="matrix(-0.939693,0.34202,0.34202,0.939693,2189.72,-4.08052)">
            <path d="M281.911,160.428L284.215,160.428L284.215,157.649L323.247,157.649L323.247,160.428L325.552,160.428L325.552,170.35L323.247,170.35L323.247,183.981L325.552,183.981L325.552,193.903L323.248,193.903L323.248,196.682L284.213,196.682L284.213,193.903L281.911,193.903L281.911,183.981L284.214,183.981L284.214,170.35L281.911,170.35L281.911,160.428Z" style="fill:none;stroke:#00f;stroke-width:0.03px;stroke-linecap:square;stroke-linejoin:miter;stroke-miterlimit:2;"/>
        </g>
        <g transform="matrix(0.608761,0.793353,-0.793353,0.608761,1689.92,-43.0509)">
            <path d="M281.911,160.428L284.215,160.428L284.215,157.649L323.247,157.649L323.247,160.428L325.552,160.428L325.552,170.35L323.247,170.35L323.247,183.981L325.552,183.981L325.552,193.903L323.248,193.903L323.248,196.682L284.213,196.682L284.213,193.903L281.911,193.903L281.911,183.981L284.214,183.981L284.214,170.35L281.911,170.35L281.911,160.428Z" style="fill:none;stroke:#00f;stroke-width:0.03px;stroke-linecap:square;stroke-linejoin:miter;stroke-miterlimit:2;"/>
        </g>
        <g transform="matrix(-0.608761,0.793353,0.793353,0.608761,1955.43,-43.0509)">
            <path d="M281.911,160.428L284.215,160.428L284.215,157.649L323.247,157.649L323.247,160.428L325.552,160.428L325.552,170.35L323.247,170.35L323.247,183.981L325.552,183.981L325.552,193.903L323.248,193.903L323.248,196.682L284.213,196.682L284.213,193.903L281.911,193.903L281.911,183.981L284.214,183.981L284.214,170.35L281.911,170.35L281.911,160.428Z" style="fill:none;stroke:#00f;stroke-width:0.03px;stroke-linecap:square;stroke-linejoin:miter;stroke-miterlimit:2;"/>
        </g>
        <g transform="matrix(-0.984808,-0.173648,-0.173648,0.984808,1808.16,-41.8919)">
            <path d="M281.911,160.428L284.215,160.428L284.215,157.649L323.247,157.649L323.247,160.428L325.552,160.428L325.552,170.35L323.247,170.35L323.247,183.981L325.552,183.981L325.552,193.903L323.248,193.903L323.248,196.682L284.213,196.682L284.213,193.903L281.911,193.903L281.911,183.981L284.214,183.981L284.214,170.35L281.911,170.35L281.911,160.428Z" style="fill:none;stroke:#00f;stroke-width:0.03px;stroke-linecap:square;stroke-linejoin:miter;stroke-miterlimit:2;"/>
        </g>
        <g transform="matrix(0.984808,-0.173648,0.173648,0.984808,1837.19,-41.8919)">
            <path d="M281.911,160.428L284.215,160.428L284.215,157.649L323.247,157.649L323.247,160.428L325.552,160.428L325.552,170.35L323.247,170.35L323.247,183.981L325.552,183.981L325.552,193.903L323.248,193.903L323.248,196.682L284.213,196.682L284.213,193.903L281.911,193.903L281.911,183.981L284.214,183.981L284.214,170.35L281.911,170.35L281.911,160.428Z" style="fill:none;stroke:#00f;stroke-width:0.03px;stroke-linecap:square;stroke-linejoin:miter;stroke-miterlimit:2;"/>
        </g>
        <g transform="matrix(-0.984808,-0.173648,-0.173648,0.984808,1861.07,-32.5624)">
            <path d="M281.911,160.428L284.215,160.428L284.215,157.649L323.247,157.649L323.247,160.428L325.552,160.428L325.552,170.35L323.247,170.35L323.247,183.981L325.552,183.981L325.552,193.903L323.248,193.903L323.248,196.682L284.213,196.682L284.213,193.903L281.911,193.903L281.911,183.981L284.214,183.981L284.214,170.35L281.911,170.35L281.911,160.428Z" style="fill:none;stroke:#00f;stroke-width:0.03px;stroke-linecap:square;stroke-linejoin:miter;stroke-miterlimit:2;"/>
        </g>
        <g transform="matrix(0.984808,-0.173648,0.173648,0.984808,1784.28,-32.5624)">
            <path d="M281.911,160.428L284.215,160.428L284.215,157.649L323.247,157.649L323.247,160.428L325.552,160.428L325.552,170.35L323.247,170.35L323.247,183.981L325.552,183.981L325.552,193.903L323.248,193.903L323.248,196.682L284.213,196.682L284.213,193.903L281.911,193.903L281.911,183.981L284.214,183.981L284.214,170.35L281.911,170.35L281.911,160.428Z" style="fill:none;stroke:#00f;stroke-width:0.03px;stroke-linecap:square;stroke-linejoin:miter;stroke-miterlimit:2;"/>
        </g>
        <g transform="matrix(-0.984808,-0.173648,-0.173648,0.984808,1917.25,-40.9742)">
            <path d="M281.911,160.428L284.215,160.428L284.215,157.649L323.247,157.649L323.247,160.428L325.552,160.428L325.552,170.35L323.247,170.35L323.247,183.981L325.552,183.981L325.552,193.903L323.248,193.903L323.248,196.682L284.213,196.682L284.213,193.903L281.911,193.903L281.911,183.981L284.214,183.981L284.214,170.35L281.911,170.35L281.911,160.428Z" style="fill:none;stroke:#00f;stroke-width:0.03px;stroke-linecap:square;stroke-linejoin:miter;stroke-miterlimit:2;"/>
        </g>
        <g transform="matrix(0.984808,-0.173648,0.173648,0.984808,1728.11,-40.9742)">
            <path d="M281.911,160.428L284.215,160.428L284.215,157.649L323.247,157.649L323.247,160.428L325.552,160.428L325.552,170.35L323.247,170.35L323.247,183.981L325.552,183.981L325.552,193.903L323.248,193.903L323.248,196.682L284.213,196.682L284.213,193.903L281.911,193.903L281.911,183.981L284.214,183.981L284.214,170.35L281.911,170.35L281.911,160.428Z" style="fill:none;stroke:#00f;stroke-width:0.03px;stroke-linecap:square;stroke-linejoin:miter;stroke-miterlimit:2;"/>
        </g>
        <g transform="matrix(-0.984808,-0.173648,-0.173648,0.984808,1973.39,-49.2087)">
            <path d="M281.911,160.428L284.215,160.428L284.215,157.649L323.247,157.649L323.247,160.428L325.552,160.428L325.552,170.35L323.247,170.35L323.247,183.981L325.552,183.981L325.552,193.903L323.248,193.903L323.248,196.682L284.213,196.682L284.213,193.903L281.911,193.903L281.911,183.981L284.214,183.981L284.214,170.35L281.911,170.35L281.911,160.428Z" style="fill:none;stroke:#00f;stroke-width:0.03px;stroke-linecap:square;stroke-linejoin:miter;stroke-miterlimit:2;"/>
        </g>
        <g transform="matrix(0.984808,-0.173648,0.173648,0.984808,1671.97,-49.2087)">
            <path d="M281.911,160.428L284.215,160.428L284.215,157.649L323.247,157.649L323.247,160.428L325.552,160.428L325.552,170.35L323.247,170.35L323.247,183.981L325.552,183.981L325.552,193.903L323.248,193.903L323.248,196.682L284.213,196.682L284.213,193.903L281.911,193.903L281.911,183.981L284.214,183.981L284.214,170.35L281.911,170.35L281.911,160.428Z" style="fill:none;stroke:#00f;stroke-width:0.03px;stroke-linecap:square;stroke-linejoin:miter;stroke-miterlimit:2;"/>
        </g>
        <g transform="matrix(-0.984808,-0.173648,-0.173648,0.984808,2023.33,-22.2694)">
            <path d="M281.911,160.428L284.215,160.428L284.215,157.649L323.247,157.649L323.247,160.428L325.552,160.428L325.552,170.35L323.247,170.35L323.247,183.981L325.552,183.981L325.552,193.903L323.248,193.903L323.248,196.682L284.213,196.682L284.213,193.903L281.911,193.903L281.911,183.981L284.214,183.981L284.214,170.35L281.911,170.35L281.911,160.428Z" style="fill:none;stroke:#00f;stroke-width:0.03px;stroke-linecap:square;stroke-linejoin:miter;stroke-miterlimit:2;"/>
        </g>
        <g transform="matrix(0.984808,-0.173648,0.173648,0.984808,1622.03,-22.2694)">
            <path d="M281.911,160.428L284.215,160.428L284.215,157.649L323.247,157.649L323.247,160.428L325.552,160.428L325.552,170.35L323.247,170.35L323.247,183.981L325.552,183.981L325.552,193.903L323.248,193.903L323.248,196.682L284.213,196.682L284.213,193.903L281.911,193.903L281.911,183.981L284.214,183.981L284.214,170.35L281.911,170.35L281.911,160.428Z" style="fill:none;stroke:#00f;stroke-width:0.03px;stroke-linecap:square;stroke-linejoin:miter;stroke-miterlimit:2;"/>
        </g>
        <g transform="matrix(-0.984808,-0.173648,-0.173648,0.984808,2076.37,-12.917)">
            <path d="M281.911,160.428L284.215,160.428L284.215,157.649L323.247,157.649L323.247,160.428L325.552,160.428L325.552,170.35L323.247,170.35L323.247,183.981L325.552,183.981L325.552,193.903L323.248,193.903L323.248,196.682L284.213,196.682L284.213,193.903L281.911,193.903L281.911,183.981L284.214,183.981L284.214,170.35L281.911,170.35L281.911,160.428Z" style="fill:none;stroke:#00f;stroke-width:0.03px;stroke-linecap:square;stroke-linejoin:miter;stroke-miterlimit:2;"/>
        </g>
        <g transform="matrix(0.984808,-0.173648,0.173648,0.984808,1568.99,-12.917)">
            <path d="M281.911,160.428L284.215,160.428L284.215,157.649L323.247,157.649L323.247,160.428L325.552,160.428L325.552,170.35L323.247,170.35L323.247,183.981L325.552,183.981L325.552,193.903L323.248,193.903L323.248,196.682L284.213,196.682L284.213,193.903L281.911,193.903L281.911,183.981L284.214,183.981L284.214,170.35L281.911,170.35L281.911,160.428Z" style="fill:none;stroke:#00f;stroke-width:0.03px;stroke-linecap:square;stroke-linejoin:miter;stroke-miterlimit:2;"/>
        </g>
        <g transform="matrix(-0.984808,-0.173648,-0.173648,0.984808,1798.79,11.2694)">
            <path d="M281.911,160.428L284.215,160.428L284.215,157.649L323.247,157.649L323.247,160.428L325.552,160.428L325.552,170.35L323.247,170.35L323.247,183.981L325.552,183.981L325.552,193.903L323.248,193.903L323.248,196.682L284.213,196.682L284.213,193.903L281.911,193.903L281.911,183.981L284.214,183.981L284.214,170.35L281.911,170.35L281.911,160.428Z" style="fill:none;stroke:#00f;stroke-width:0.03px;stroke-linecap:square;stroke-linejoin:miter;stroke-miterlimit:2;"/>
        </g>
        <g transform="matrix(0.984808,-0.173648,0.173648,0.984808,1846.56,11.2694)">
            <path d="M281.911,160.428L284.215,160.428L284.215,157.649L323.247,157.649L323.247,160.428L325.552,160.428L325.552,170.35L323.247,170.35L323.247,183.981L325.552,183.981L325.552,193.903L323.248,193.903L323.248,196.682L284.213,196.682L284.213,193.903L281.911,193.903L281.911,183.981L284.214,183.981L284.214,170.35L281.911,170.35L281.911,160.428Z" style="fill:none;stroke:#00f;stroke-width:0.03px;stroke-linecap:square;stroke-linejoin:miter;stroke-miterlimit:2;"/>
        </g>
        <g transform="matrix(-0.984808,-0.173648,-0.173648,0.984808,1851.7,20.5989)">
            <path d="M281.911,160.428L284.215,160.428L284.215,157.649L323.247,157.649L323.247,160.428L325.552,160.428L325.552,170.35L323.247,170.35L323.247,183.981L325.552,183.981L325.552,193.903L323.248,193.903L323.248,196.682L284.213,196.682L284.213,193.903L281.911,193.903L281.911,183.981L284.214,183.981L284.214,170.35L281.911,170.35L281.911,160.428Z" style="fill:none;stroke:#00f;stroke-width:0.03px;stroke-linecap:square;stroke-linejoin:miter;stroke-miterlimit:2;"/>
        </g>
        <g transform="matrix(0.984808,-0.173648,0.173648,0.984808,1793.65,20.5989)">
            <path d="M281.911,160.428L284.215,160.428L284.215,157.649L323.247,157.649L323.247,160.428L325.552,160.428L325.552,170.35L323.247,170.35L323.247,183.981L325.552,183.981L325.552,193.903L323.248,193.903L323.248,196.682L284.213,196.682L284.213,193.903L281.911,193.903L281.911,183.981L284.214,183.981L284.214,170.35L281.911,170.35L281.911,160.428Z" style="fill:none;stroke:#00f;stroke-width:0.03px;stroke-linecap:square;stroke-linejoin:miter;stroke-miterlimit:2;"/>
        </g>
        <g transform="matrix(-0.984808,-0.173648,-0.173648,0.984808,1907.87,12.1871)">
            <path d="M281.911,160.428L284.215,160.428L284.215,157.649L323.247,157.649L323.247,160.428L325.552,160.428L325.552,170.35L323.247,170.35L323.247,183.981L325.552,183.981L325.552,193.903L323.248,193.903L323.248,196.682L284.213,196.682L284.213,193.903L281.911,193.903L281.911,183.981L284.214,183.981L284.214,170.35L281.911,170.35L281.911,160.428Z" style="fill:none;stroke:#00f;stroke-width:0.03px;stroke-linecap:square;stroke-linejoin:miter;stroke-miterlimit:2;"/>
        </g>
        <g transform="matrix(0.984808,-0.173648,0.173648,0.984808,1737.48,12.1871)">
            <path d="M281.911,160.428L284.215,160.428L284.215,157.649L323.247,157.649L323.247,160.428L325.552,160.428L325.552,170.35L323.247,170.35L323.247,183.981L325.552,183.981L325.552,193.903L323.248,193.903L323.248,196.682L284.213,196.682L284.213,193.903L281.911,193.903L281.911,183.981L284.214,183.981L284.214,170.35L281.911,170.35L281.911,160.428Z" style="fill:none;stroke:#00f;stroke-width:0.03px;stroke-linecap:square;stroke-linejoin:miter;stroke-miterlimit:2;"/>
        </g>
        <g transform="matrix(-0.984808,-0.173648,-0.173648,0.984808,1964.01,3.95256)">
            <path d="M281.911,160.428L284.215,160.428L284.215,157.649L323.247,157.649L323.247,160.428L325.552,160.428L325.552,170.35L323.247,170.35L323.247,183.981L325.552,183.981L325.552,193.903L323.248,193.903L323.248,196.682L284.213,196.682L284.213,193.903L281.911,193.903L281.911,183.981L284.214,183.981L284.214,170.35L281.911,170.35L281.911,160.428Z" style="fill:none;stroke:#00f;stroke-width:0.03px;stroke-linecap:square;stroke-linejoin:miter;stroke-miterlimit:2;"/>
        </g>
        <g transform="matrix(0.984808,-0.173648,0.173648,0.984808,1681.34,3.95256)">
            <path d="M281.911,160.428L284.215,160.428L284.215,157.649L323.247,157.649L323.247,160.428L325.552,160.428L325.552,170.35L323.247,170.35L323.247,183.981L325.552,183.981L325.552,193.903L323.248,193.903L323.248,196.682L284.213,196.682L284.213,193.903L281.911,193.903L281.911,183.981L284.214,183.981L284.214,170.35L281.911,170.35L281.911,160.428Z" style="fill:none;stroke:#00f;stroke-width:0.03px;stroke-linecap:square;stroke-linejoin:miter;stroke-miterlimit:2;"/>
        </g>
        <g transform="matrix(-0.984808,-0.173648,-0.173648,0.984808,2013.95,30.8919)">
            <path d="M281.911,160.428L284.215,160.428L284.215,157.649L323.247,157.649L323.247,160.428L325.552,160.428L325.552,170.35L323.247,170.35L323.247,183.981L325.552,183.981L325.552,193.903L323.248,193.903L323.248,196.682L284.213,196.682L284.213,193.903L281.911,193.903L281.911,183.981L284.214,183.981L284.214,170.35L281.911,170.35L281.911,160.428Z" style="fill:none;stroke:#00f;stroke-width:0.03px;stroke-linecap:square;stroke-linejoin:miter;stroke-miterlimit:2;"/>
        </g>
        <g transform="matrix(0.984808,-0.173648,0.173648,0.984808,1631.4,30.8919)">
            <path d="M281.911,160.428L284.215,160.428L284.215,157.649L323.247,157.649L323.247,160.428L325.552,160.428L325.552,170.35L323.247,170.35L323.247,183.981L325.552,183.981L325.552,193.903L323.248,193.903L323.248,196.682L284.213,196.682L284.213,193.903L281.911,193.903L281.911,183.981L284.214,183.981L284.214,170.35L281.911,170.35L281.911,160.428Z" style="fill:none;stroke:#00f;stroke-width:0.03px;stroke-linecap:square;stroke-linejoin:miter;stroke-miterlimit:2;"/>
        </g>
        <g transform="matrix(-0.984808,-0.173648,-0.173648,0.984808,2066.99,40.2443)">
            <path d="M281.911,160.428L284.215,160.428L284.215,157.649L323.247,157.649L323.247,160.428L325.552,160.428L325.552,170.35L323.247,170.35L323.247,183.981L325.552,183.981L325.552,193.903L323.248,193.903L323.248,196.682L284.213,196.682L284.213,193.903L281.911,193.903L281.911,183.981L284.214,183.981L284.214,170.35L281.911,170.35L281.911,160.428Z" style="fill:none;stroke:#00f;stroke-width:0.03px;stroke-linecap:square;stroke-linejoin:miter;stroke-miterlimit:2;"/>
        </g>
        <g transform="matrix(0.984808,-0.173648,0.173648,0.984808,1578.36,40.2443)">
            <path d="M281.911,160.428L284.215,160.428L284.215,157.649L323.247,157.649L323.247,160.428L325.552,160.428L325.552,170.35L323.247,170.35L323.247,183.981L325.552,183.981L325.552,193.903L323.248,193.903L323.248,196.682L284.213,196.682L284.213,193.903L281.911,193.903L281.911,183.981L284.214,183.981L284.214,170.35L281.911,170.35L281.911,160.428Z" style="fill:none;stroke:#00f;stroke-width:0.03px;stroke-linecap:square;stroke-linejoin:miter;stroke-miterlimit:2;"/>
        </g>
        <g transform="matrix(-0.984808,-0.173648,-0.173648,0.984808,1789.42,64.4307)">
            <path d="M281.911,160.428L284.215,160.428L284.215,157.649L323.247,157.649L323.247,160.428L325.552,160.428L325.552,170.35L323.247,170.35L323.247,183.981L325.552,183.981L325.552,193.903L323.248,193.903L323.248,196.682L284.213,196.682L284.213,193.903L281.911,193.903L281.911,183.981L284.214,183.981L284.214,170.35L281.911,170.35L281.911,160.428Z" style="fill:none;stroke:#00f;stroke-width:0.03px;stroke-linecap:square;stroke-linejoin:miter;stroke-miterlimit:2;"/>
        </g>
        <g transform="matrix(0.984808,-0.173648,0.173648,0.984808,1855.94,64.4307)">
            <path d="M281.911,160.428L284.215,160.428L284.215,157.649L323.247,157.649L323.247,160.428L325.552,160.428L325.552,170.35L323.247,170.35L323.247,183.981L325.552,183.981L325.552,193.903L323.248,193.903L323.248,196.682L284.213,196.682L284.213,193.903L281.911,193.903L281.911,183.981L284.214,183.981L284.214,170.35L281.911,170.35L281.911,160.428Z" style="fill:none;stroke:#00f;stroke-width:0.03px;stroke-linecap:square;stroke-linejoin:miter;stroke-miterlimit:2;"/>
        </g>
        <g transform="matrix(-0.984808,-0.173648,-0.173648,0.984808,1842.33,73.7602)">
            <path d="M281.911,160.428L284.215,160.428L284.215,157.649L323.247,157.649L323.247,160.428L325.552,160.428L325.552,170.35L323.247,170.35L323.247,183.981L325.552,183.981L325.552,193.903L323.248,193.903L323.248,196.682L284.213,196.682L284.213,193.903L281.911,193.903L281.911,183.981L284.214,183.981L284.214,170.35L281.911,170.35L281.911,160.428Z" style="fill:none;stroke:#00f;stroke-width:0.03px;stroke-linecap:square;stroke-linejoin:miter;stroke-miterlimit:2;"/>
        </g>
        <g transform="matrix(0.984808,-0.173648,0.173648,0.984808,1803.03,73.7602)">
            <path d="M281.911,160.428L284.215,160.428L284.215,157.649L323.247,157.649L323.247,160.428L325.552,160.428L325.552,170.35L323.247,170.35L323.247,183.981L325.552,183.981L325.552,193.903L323.248,193.903L323.248,196.682L284.213,196.682L284.213,193.903L281.911,193.903L281.911,183.981L284.214,183.981L284.214,170.35L281.911,170.35L281.911,160.428Z" style="fill:none;stroke:#00f;stroke-width:0.03px;stroke-linecap:square;stroke-linejoin:miter;stroke-miterlimit:2;"/>
        </g>
        <g transform="matrix(-0.984808,-0.173648,-0.173648,0.984808,1898.5,65.3484)">
            <path d="M281.911,160.428L284.215,160.428L284.215,157.649L323.247,157.649L323.247,160.428L325.552,160.428L325.552,170.35L323.247,170.35L323.247,183.981L325.552,183.981L325.552,193.903L323.248,193.903L323.248,196.682L284.213,196.682L284.213,193.903L281.911,193.903L281.911,183.981L284.214,183.981L284.214,170.35L281.911,170.35L281.911,160.428Z" style="fill:none;stroke:#00f;stroke-width:0.03px;stroke-linecap:square;stroke-linejoin:miter;stroke-miterlimit:2;"/>
        </g>
        <g transform="matrix(0.984808,-0.173648,0.173648,0.984808,1746.86,65.3484)">
            <path d="M281.911,160.428L284.215,160.428L284.215,157.649L323.247,157.649L323.247,160.428L325.552,160.428L325.552,170.35L323.247,170.35L323.247,183.981L325.552,183.981L325.552,193.903L323.248,193.903L323.248,196.682L284.213,196.682L284.213,193.903L281.911,193.903L281.911,183.981L284.214,183.981L284.214,170.35L281.911,170.35L281.911,160.428Z" style="fill:none;stroke:#00f;stroke-width:0.03px;stroke-linecap:square;stroke-linejoin:miter;stroke-miterlimit:2;"/>
        </g>
        <g transform="matrix(-0.984808,-0.173648,-0.173648,0.984808,1954.64,57.1139)">
            <path d="M281.911,160.428L284.215,160.428L284.215,157.649L323.247,157.649L323.247,160.428L325.552,160.428L325.552,170.35L323.247,170.35L323.247,183.981L325.552,183.981L325.552,193.903L323.248,193.903L323.248,196.682L284.213,196.682L284.213,193.903L281.911,193.903L281.911,183.981L284.214,183.981L284.214,170.35L281.911,170.35L281.911,160.428Z" style="fill:none;stroke:#00f;stroke-width:0.03px;stroke-linecap:square;stroke-linejoin:miter;stroke-miterlimit:2;"/>
        </g>
        <g transform="matrix(0.984808,-0.173648,0.173648,0.984808,1690.71,57.1139)">
            <path d="M281.911,160.428L284.215,160.428L284.215,157.649L323.247,157.649L323.247,160.428L325.552,160.428L325.552,170.35L323.247,170.35L323.247,183.981L325.552,183.981L325.552,193.903L323.248,193.903L323.248,196.682L284.213,196.682L284.213,193.903L281.911,193.903L281.911,183.981L284.214,183.981L284.214,170.35L281.911,170.35L281.911,160.428Z" style="fill:none;stroke:#00f;stroke-width:0.03px;stroke-linecap:square;stroke-linejoin:miter;stroke-miterlimit:2;"/>
        </g>
        <g transform="matrix(-0.984808,-0.173648,-0.173648,0.984808,2004.58,84.0532)">
            <path d="M281.911,160.428L284.215,160.428L284.215,157.649L323.247,157.649L323.247,160.428L325.552,160.428L325.552,170.35L323.247,170.35L323.247,183.981L325.552,183.981L325.552,193.903L323.248,193.903L323.248,196.682L284.213,196.682L284.213,193.903L281.911,193.903L281.911,183.981L284.214,183.981L284.214,170.35L281.911,170.35L281.911,160.428Z" style="fill:none;stroke:#00f;stroke-width:0.03px;stroke-linecap:square;stroke-linejoin:miter;stroke-miterlimit:2;"/>
        </g>
        <g transform="matrix(0.984808,-0.173648,0.173648,0.984808,1640.78,84.0532)">
            <path d="M281.911,160.428L284.215,160.428L284.215,157.649L323.247,157.649L323.247,160.428L325.552,160.428L325.552,170.35L323.247,170.35L323.247,183.981L325.552,183.981L325.552,193.903L323.248,193.903L323.248,196.682L284.213,196.682L284.213,193.903L281.911,193.903L281.911,183.981L284.214,183.981L284.214,170.35L281.911,170.35L281.911,160.428Z" style="fill:none;stroke:#00f;stroke-width:0.03px;stroke-linecap:square;stroke-linejoin:miter;stroke-miterlimit:2;"/>
        </g>
        <g transform="matrix(-0.984808,-0.173648,-0.173648,0.984808,2057.62,93.4056)">
            <path d="M281.911,160.428L284.215,160.428L284.215,157.649L323.247,157.649L323.247,160.428L325.552,160.428L325.552,170.35L323.247,170.35L323.247,183.981L325.552,183.981L325.552,193.903L323.248,193.903L323.248,196.682L284.213,196.682L284.213,193.903L281.911,193.903L281.911,183.981L284.214,183.981L284.214,170.35L281.911,170.35L281.911,160.428Z" style="fill:none;stroke:#00f;stroke-width:0.03px;stroke-linecap:square;stroke-linejoin:miter;stroke-miterlimit:2;"/>
        </g>
        <g transform="matrix(0.984808,-0.173648,0.173648,0.984808,1587.74,93.4056)">
            <path d="M281.911,160.428L284.215,160.428L284.215,157.649L323.247,157.649L323.247,160.428L325.552,160.428L325.552,170.35L323.247,170.35L323.247,183.981L325.552,183.981L325.552,193.903L323.248,193.903L323.248,196.682L284.213,196.682L284.213,193.903L281.911,193.903L281.911,183.981L284.214,183.981L284.214,170.35L281.911,170.35L281.911,160.428Z" style="fill:none;stroke:#00f;stroke-width:0.03px;stroke-linecap:square;stroke-linejoin:miter;stroke-miterlimit:2;"/>
        </g>
        <g transform="matrix(-0.984808,-0.173648,-0.173648,0.984808,1780.04,117.591)">
            <path d="M281.911,160.428L284.215,160.428L284.215,157.649L323.247,157.649L323.247,160.428L325.552,160.428L325.552,170.35L323.247,170.35L323.247,183.981L325.552,183.981L325.552,193.903L323.248,193.903L323.248,196.682L284.213,196.682L284.213,193.903L281.911,193.903L281.911,183.981L284.214,183.981L284.214,170.35L281.911,170.35L281.911,160.428Z" style="fill:none;stroke:#00f;stroke-width:0.03px;stroke-linecap:square;stroke-linejoin:miter;stroke-miterlimit:2;"/>
        </g>
        <g transform="matrix(0.984808,-0.173648,0.173648,0.984808,1865.31,117.591)">
            <path d="M281.911,160.428L284.215,160.428L284.215,157.649L323.247,157.649L323.247,160.428L325.552,160.428L325.552,170.35L323.247,170.35L323.247,183.981L325.552,183.981L325.552,193.903L323.248,193.903L323.248,196.682L284.213,196.682L284.213,193.903L281.911,193.903L281.911,183.981L284.214,183.981L284.214,170.35L281.911,170.35L281.911,160.428Z" style="fill:none;stroke:#00f;stroke-width:0.03px;stroke-linecap:square;stroke-linejoin:miter;stroke-miterlimit:2;"/>
        </g>
        <g transform="matrix(-0.984808,-0.173648,-0.173648,0.984808,1886.06,136.284)">
            <path d="M281.911,160.428L284.215,160.428L284.215,157.649L323.247,157.649L323.247,160.428L325.552,160.428L325.552,170.35L323.247,170.35L323.247,183.981L325.552,183.981L325.552,193.903L323.248,193.903L323.248,196.682L284.213,196.682L284.213,193.903L281.911,193.903L281.911,183.981L284.214,183.981L284.214,170.35L281.911,170.35L281.911,160.428Z" style="fill:none;stroke:#00f;stroke-width:0.03px;stroke-linecap:square;stroke-linejoin:miter;stroke-miterlimit:2;"/>
        </g>
        <g transform="matrix(0.984808,-0.173648,0.173648,0.984808,1759.3,136.284)">
            <path d="M281.911,160.428L284.215,160.428L284.215,157.649L323.247,157.649L323.247,160.428L325.552,160.428L325.552,170.35L323.247,170.35L323.247,183.981L325.552,183.981L325.552,193.903L323.248,193.903L323.248,196.682L284.213,196.682L284.213,193.903L281.911,193.903L281.911,183.981L284.214,183.981L284.214,170.35L281.911,170.35L281.911,160.428Z" style="fill:none;stroke:#00f;stroke-width:0.03px;stroke-linecap:square;stroke-linejoin:miter;stroke-miterlimit:2;"/>
        </g>
        <g transform="matrix(-0.984808,-0.173648,-0.173648,0.984808,1832.95,126.921)">
            <path d="M281.911,160.428L284.215,160.428L284.215,157.649L323.247,157.649L323.247,160.428L325.552,160.428L325.552,170.35L323.247,170.35L323.247,183.981L325.552,183.981L325.552,193.903L323.248,193.903L323.248,196.682L284.213,196.682L284.213,193.903L281.911,193.903L281.911,183.981L284.214,183.981L284.214,170.35L281.911,170.35L281.911,160.428Z" style="fill:none;stroke:#00f;stroke-width:0.03px;stroke-linecap:square;stroke-linejoin:miter;stroke-miterlimit:2;"/>
        </g>
        <g transform="matrix(0.984808,-0.173648,0.173648,0.984808,1812.4,126.921)">
            <path d="M281.911,160.428L284.215,160.428L284.215,157.649L323.247,157.649L323.247,160.428L325.552,160.428L325.552,170.35L323.247,170.35L323.247,183.981L325.552,183.981L325.552,193.903L323.248,193.903L323.248,196.682L284.213,196.682L284.213,193.903L281.911,193.903L281.911,183.981L284.214,183.981L284.214,170.35L281.911,170.35L281.911,160.428Z" style="fill:none;stroke:#00f;stroke-width:0.03px;stroke-linecap:square;stroke-linejoin:miter;stroke-miterlimit:2;"/>
        </g>
        <g transform="matrix(-0.984808,-0.173648,-0.173648,0.984808,1938.97,145.614)">
            <path d="M281.911,160.428L284.215,160.428L284.215,157.649L323.247,157.649L323.247,160.428L325.552,160.428L325.552,170.35L323.247,170.35L323.247,183.981L325.552,183.981L325.552,193.903L323.248,193.903L323.248,196.682L284.213,196.682L284.213,193.903L281.911,193.903L281.911,183.981L284.214,183.981L284.214,170.35L281.911,170.35L281.911,160.428Z" style="fill:none;stroke:#00f;stroke-width:0.03px;stroke-linecap:square;stroke-linejoin:miter;stroke-miterlimit:2;"/>
        </g>
        <g transform="matrix(0.984808,-0.173648,0.173648,0.984808,1706.39,145.614)">
            <path d="M281.911,160.428L284.215,160.428L284.215,157.649L323.247,157.649L323.247,160.428L325.552,160.428L325.552,170.35L323.247,170.35L323.247,183.981L325.552,183.981L325.552,193.903L323.248,193.903L323.248,196.682L284.213,196.682L284.213,193.903L281.911,193.903L281.911,183.981L284.214,183.981L284.214,170.35L281.911,170.35L281.911,160.428Z" style="fill:none;stroke:#00f;stroke-width:0.03px;stroke-linecap:square;stroke-linejoin:miter;stroke-miterlimit:2;"/>
        </g>
        <g transform="matrix(1,0,0,1,1518.95,-90.3772)">
            <path d="M281.911,160.428L284.215,160.428L284.215,157.649L323.247,157.649L323.247,160.428L325.552,160.428L325.552,170.35L323.247,170.35L323.247,183.981L325.552,183.981L325.552,193.903L323.248,193.903L323.248,196.682L284.213,196.682L284.213,193.903L281.911,193.903L281.911,183.981L284.214,183.981L284.214,170.35L281.911,170.35L281.911,160.428Z" style="fill:none;stroke:#00f;stroke-width:0.03px;stroke-linecap:square;stroke-linejoin:miter;stroke-miterlimit:2;"/>
        </g>
        <g transform="matrix(1,0,0,1,1518.95,-36.2911)">
            <path d="M281.911,160.428L284.215,160.428L284.215,157.649L323.247,157.649L323.247,160.428L325.552,160.428L325.552,170.35L323.247,170.35L323.247,183.981L325.552,183.981L325.552,193.903L323.248,193.903L323.248,196.682L284.213,196.682L284.213,193.903L281.911,193.903L281.911,183.981L284.214,183.981L284.214,170.35L281.911,170.35L281.911,160.428Z" style="fill:none;stroke:#00f;stroke-width:0.03px;stroke-linecap:square;stroke-linejoin:miter;stroke-miterlimit:2;"/>
        </g>
        <g transform="matrix(1,0,0,1,1836.44,131.811)">
            <path d="M281.911,160.428L284.215,160.428L284.215,157.649L323.247,157.649L323.247,160.428L325.552,160.428L325.552,170.35L323.247,170.35L323.247,183.981L325.552,183.981L325.552,193.903L323.248,193.903L323.248,196.682L284.213,196.682L284.213,193.903L281.911,193.903L281.911,183.981L284.214,183.981L284.214,170.35L281.911,170.35L281.911,160.428Z" style="fill:none;stroke:#00f;stroke-width:0.03px;stroke-linecap:square;stroke-linejoin:miter;stroke-miterlimit:2;"/>
        </g>
        <g transform="matrix(1,0,0,1,1890.28,131.811)">
            <path d="M281.911,160.428L284.215,160.428L284.215,157.649L323.247,157.649L323.247,160.428L325.552,160.428L325.552,170.35L323.247,170.35L323.247,183.981L325.552,183.981L325.552,193.903L323.248,193.903L323.248,196.682L284.213,196.682L284.213,193.903L281.911,193.903L281.911,183.981L284.214,183.981L284.214,170.35L281.911,170.35L281.911,160.428Z" style="fill:none;stroke:#00f;stroke-width:0.03px;stroke-linecap:square;stroke-linejoin:miter;stroke-miterlimit:2;"/>
        </g>
        <g transform="matrix(1,0,0,1,1147.61,131.811)">
            <path d="M281.911,160.428L284.215,160.428L284.215,157.649L323.247,157.649L323.247,160.428L325.552,160.428L325.552,170.35L323.247,170.35L323.247,183.981L325.552,183.981L325.552,193.903L323.248,193.903L323.248,196.682L284.213,196.682L284.213,193.903L281.911,193.903L281.911,183.981L284.214,183.981L284.214,170.35L281.911,170.35L281.911,160.428Z" style="fill:none;stroke:#00f;stroke-width:0.03px;stroke-linecap:square;stroke-linejoin:miter;stroke-miterlimit:2;"/>
        </g>
        <g transform="matrix(1,0,0,1,1201.45,131.811)">
            <path d="M281.911,160.428L284.215,160.428L284.215,157.649L323.247,157.649L323.247,160.428L325.552,160.428L325.552,170.35L323.247,170.35L323.247,183.981L325.552,183.981L325.552,193.903L323.248,193.903L323.248,196.682L284.213,196.682L284.213,193.903L281.911,193.903L281.911,183.981L284.214,183.981L284.214,170.35L281.911,170.35L281.911,160.428Z" style="fill:none;stroke:#00f;stroke-width:0.03px;stroke-linecap:square;stroke-linejoin:miter;stroke-miterlimit:2;"/>
        </g>
        <g transform="matrix(1,0,0,1,530.079,371.338)">
            <path d="M79.937,2.835C82.755,2.835 85.039,5.119 85.039,7.937C85.039,8.314 85.039,8.694 85.039,9.071C85.039,10.424 85.577,11.722 86.534,12.679C87.491,13.636 88.789,14.173 90.142,14.173C149.716,14.173 712.016,14.173 771.591,14.173C772.944,14.173 774.242,13.636 775.198,12.679C776.155,11.722 776.693,10.424 776.693,9.071C776.693,8.694 776.693,8.314 776.693,7.937C776.693,5.119 778.977,2.835 781.795,2.835C796.935,2.835 841.49,2.835 856.63,2.835C859.448,2.835 861.732,5.119 861.732,7.937C861.732,48.813 861.732,322.526 861.732,363.402C861.732,366.22 859.448,368.504 856.63,368.504C825.846,368.504 665.178,368.504 634.394,368.504C631.576,368.504 629.291,366.22 629.291,363.402C629.291,362.111 629.291,360.724 629.291,359.433C629.291,358.08 628.754,356.782 627.797,355.825C626.84,354.868 625.542,354.331 624.189,354.331C581.233,354.331 280.499,354.331 237.543,354.331C236.19,354.331 234.892,354.868 233.935,355.825C232.979,356.782 232.441,358.08 232.441,359.433C232.441,360.724 232.441,362.111 232.441,363.402C232.441,366.22 230.157,368.504 227.339,368.504C196.554,368.504 35.886,368.504 5.102,368.504C2.284,368.504 0,366.22 0,363.402C0,322.526 0,48.813 0,7.937C0,5.119 2.284,2.835 5.102,2.835C20.242,2.835 64.797,2.835 79.937,2.835Z" style="fill:none;stroke:#00f;stroke-width:0.03px;"/>
        </g>
        <g transform="matrix(0.967213,0,0,0.909621,544.252,385.754)">
            <path d="M11.723,30.896C11.723,29.175 13.035,27.78 14.654,27.78C66.693,27.78 794.943,27.78 846.983,27.78C848.601,27.78 849.913,29.175 849.913,30.896C849.913,62.087 849.913,317.567 849.913,348.758C849.913,350.479 848.601,351.874 846.983,351.874C794.943,351.874 66.693,351.874 14.654,351.874C13.035,351.874 11.723,350.479 11.723,348.758C11.723,317.567 11.723,62.087 11.723,30.896Z" style="fill:none;stroke:#00f;stroke-width:0.03px;"/>
        </g>
        <g transform="matrix(1,0,0,1,549.921,350.078)">
            <circle cx="829.134" cy="344.409" r="4.252" style="fill:none;stroke:#00f;stroke-width:0.03px;"/>
        </g>
        <g transform="matrix(-1,0,0,1,2001.26,382.677)">
            <circle cx="829.134" cy="344.409" r="4.252" style="fill:none;stroke:#00f;stroke-width:0.03px;"/>
        </g>
        <g transform="matrix(-1,0,0,1,1943.15,53.8409)">
            <circle cx="829.134" cy="344.409" r="4.252" style="fill:none;stroke:#00f;stroke-width:0.03px;"/>
        </g>
        <g transform="matrix(1,0,0,1,549.921,77.9524)">
            <circle cx="829.134" cy="344.409" r="4.252" style="fill:none;stroke:#00f;stroke-width:0.03px;"/>
        </g>
        <g transform="matrix(1,0,0,1,-286.299,77.9524)">
            <circle cx="829.134" cy="344.409" r="4.252" style="fill:none;stroke:#00f;stroke-width:0.03px;"/>
        </g>
        <g transform="matrix(1,0,0,1,-286.299,214.015)">
            <circle cx="829.134" cy="344.409" r="4.252" style="fill:none;stroke:#00f;stroke-width:0.03px;"/>
        </g>
        <g transform="matrix(1,0,0,1,549.921,214.015)">
            <circle cx="829.134" cy="344.409" r="4.252" style="fill:none;stroke:#00f;stroke-width:0.03px;"/>
        </g>
        <g transform="matrix(1,0,0,1,-286.299,350.078)">
            <circle cx="829.134" cy="344.409" r="4.252" style="fill:none;stroke:#00f;stroke-width:0.03px;"/>
        </g>
        <g transform="matrix(-1,0,0,1,1578.9,382.711)">
            <circle cx="829.134" cy="344.409" r="4.252" style="fill:none;stroke:#00f;stroke-width:0.03px;"/>
        </g>
        <g transform="matrix(-1,0,0,1,1637.01,53.8749)">
            <circle cx="829.134" cy="344.409" r="4.252" style="fill:none;stroke:#00f;stroke-width:0.03px;"/>
        </g>
        <g transform="matrix(1,0,0,1,530.079,5.66893)">
            <path d="M79.937,2.835C82.755,2.835 85.039,5.119 85.039,7.937C85.039,8.314 85.039,8.694 85.039,9.071C85.039,10.424 85.577,11.722 86.534,12.679C87.491,13.636 88.789,14.173 90.142,14.173C149.716,14.173 712.016,14.173 771.591,14.173C772.944,14.173 774.242,13.636 775.198,12.679C776.155,11.722 776.693,10.424 776.693,9.071C776.693,8.694 776.693,8.314 776.693,7.937C776.693,5.119 778.977,2.835 781.795,2.835C796.935,2.835 841.49,2.835 856.63,2.835C859.448,2.835 861.732,5.119 861.732,7.937C861.732,48.813 861.732,322.526 861.732,363.402C861.732,366.22 859.448,368.504 856.63,368.504C825.846,368.504 665.178,368.504 634.394,368.504C631.576,368.504 629.291,366.22 629.291,363.402C629.291,362.111 629.291,360.724 629.291,359.433C629.291,358.08 628.754,356.782 627.797,355.825C626.84,354.868 625.542,354.331 624.189,354.331C581.233,354.331 280.499,354.331 237.543,354.331C236.19,354.331 234.892,354.868 233.935,355.825C232.979,356.782 232.441,358.08 232.441,359.433C232.441,360.724 232.441,362.111 232.441,363.402C232.441,366.22 230.157,368.504 227.339,368.504C196.554,368.504 35.886,368.504 5.102,368.504C2.284,368.504 0,366.22 0,363.402C0,322.526 0,48.813 0,7.937C0,5.119 2.284,2.835 5.102,2.835C20.242,2.835 64.797,2.835 79.937,2.835Z" style="fill:none;stroke:#00f;stroke-width:0.03px;"/>
        </g>
        <g transform="matrix(1,0,0,1,549.921,-15.5909)">
            <circle cx="829.134" cy="344.409" r="4.252" style="fill:none;stroke:#00f;stroke-width:0.03px;"/>
        </g>
        <g transform="matrix(-1,0,0,1,2001.26,17.0075)">
            <circle cx="829.134" cy="344.409" r="4.252" style="fill:none;stroke:#00f;stroke-width:0.03px;"/>
        </g>
        <g transform="matrix(-1,0,0,1,1943.15,-311.828)">
            <circle cx="829.134" cy="344.409" r="4.252" style="fill:none;stroke:#00f;stroke-width:0.03px;"/>
        </g>
        <g transform="matrix(1,0,0,1,549.921,-287.717)">
            <circle cx="829.134" cy="344.409" r="4.252" style="fill:none;stroke:#00f;stroke-width:0.03px;"/>
        </g>
        <g transform="matrix(1,0,0,1,-286.299,-287.717)">
            <circle cx="829.134" cy="344.409" r="4.252" style="fill:none;stroke:#00f;stroke-width:0.03px;"/>
        </g>
        <g transform="matrix(1,0,0,1,-286.299,-151.654)">
            <circle cx="829.134" cy="344.409" r="4.252" style="fill:none;stroke:#00f;stroke-width:0.03px;"/>
        </g>
        <g transform="matrix(1,0,0,1,549.921,-151.654)">
            <circle cx="829.134" cy="344.409" r="4.252" style="fill:none;stroke:#00f;stroke-width:0.03px;"/>
        </g>
        <g transform="matrix(1,0,0,1,-286.299,-15.5909)">
            <circle cx="829.134" cy="344.409" r="4.252" style="fill:none;stroke:#00f;stroke-width:0.03px;"/>
        </g>
        <g transform="matrix(-1,0,0,1,1578.9,17.0414)">
            <circle cx="829.134" cy="344.409" r="4.252" style="fill:none;stroke:#00f;stroke-width:0.03px;"/>
        </g>
        <g transform="matrix(-1,0,0,1,1637.01,-311.794)">
            <circle cx="829.134" cy="344.409" r="4.252" style="fill:none;stroke:#00f;stroke-width:0.03px;"/>
        </g>
        <path d="M989.291,169.221L932.598,169.221L932.598,58.442L989.291,58.442L989.291,169.221ZM932.627,58.47L932.627,169.192L989.263,169.192L989.263,58.47L932.627,58.47Z" style="fill:#00f;"/>
        <path d="M1166.21,57.272L1219.25,47.919L1222.38,65.683L1275.42,56.331L1328.33,47.001L1366.3,262.316L1310.47,272.161L1262.44,280.63L1360.63,280.63L1360.63,337.322L1250.09,337.322L1250.09,282.806L1204.45,290.854L1151.54,300.184L1141.7,244.352L1197.53,234.507L1247.71,225.659L1245.05,210.566L1192.01,219.918L1188.91,202.331L1138.66,211.191L1141.76,228.778L1121.02,232.436L1139.5,283.225L1087.99,301.973L1054.59,345.512L1009.61,311L1044.12,266.022L1084.07,296.676L1066.84,249.341L1106.02,235.081L1032.89,247.975L1023.05,192.144L1014.14,141.653L1004.3,85.821L1057.34,76.469L1110.38,67.116L1107.28,49.529L1163.11,39.685L1166.21,57.272ZM1107.31,49.552L1110.41,67.139L1057.34,76.497L1004.33,85.844L1014.17,141.648L1023.08,192.139L1032.91,247.942L1106.02,235.053L1106.03,235.107L1066.88,249.358L1084.1,296.667L1084.05,296.699L1044.12,266.062L1009.65,310.994L1054.58,345.472L1087.98,301.95L1139.47,283.208L1120.98,232.414L1141.73,228.755L1138.63,211.168L1188.93,202.298L1192.03,219.885L1245.07,210.533L1247.75,225.682L1197.53,234.535L1141.73,244.375L1151.57,300.151L1204.45,290.826L1250.12,282.773L1250.12,337.294L1360.6,337.294L1360.6,280.658L1262.44,280.658L1262.43,280.602L1310.46,272.133L1366.27,262.293L1356.43,206.489L1347.05,153.329L1337.68,100.168L1328.31,47.034L1275.43,56.359L1222.36,65.716L1219.23,47.952L1166.19,57.304L1163.09,39.718L1107.31,49.552Z" style="fill:#00f;"/>
        <path d="M814.612,49.529L811.511,67.116L917.591,85.821L908.217,138.982L898.843,192.144L888.998,247.975L835.958,238.623L815.869,235.081L855.049,249.341L837.821,296.676L877.77,266.022L912.283,311L867.305,345.512L833.897,301.973L782.385,283.225L800.871,232.436L780.127,228.778L783.228,211.191L732.979,202.331L729.878,219.918L676.838,210.566L674.177,225.659L780.192,244.352L770.348,300.184L714.516,290.339L671.797,282.806L671.797,337.322L561.26,337.322L561.26,280.63L659.452,280.63L611.422,272.161L555.591,262.316L565.435,206.484L574.809,153.324L584.183,100.163L593.556,47.001L699.507,65.683L702.639,47.919L755.679,57.272L758.78,39.685L814.612,49.529ZM755.702,57.304L702.662,47.952L699.53,65.716L649.383,56.874L593.579,47.034L584.21,100.168L574.837,153.329L565.463,206.489L555.623,262.293L611.427,272.133L659.456,280.602L659.452,280.658L561.288,280.658L561.288,337.294L671.768,337.294L671.768,282.773L714.521,290.311L770.325,300.151L780.159,244.375L724.356,234.535L674.144,225.682L676.815,210.533L729.855,219.885L732.956,202.298L783.261,211.168L780.16,228.755L800.909,232.414L782.422,283.208L833.914,301.95L867.31,345.472L912.243,310.994L877.765,266.062L837.838,296.699L837.794,296.667L855.013,249.358L815.86,235.107L815.874,235.053L835.963,238.595L888.975,247.942L898.815,192.139L908.189,138.977L917.558,85.844L861.754,76.004L811.478,67.139L814.579,49.552L758.803,39.718L755.702,57.304Z" style="fill:#00f;"/>
        <g transform="matrix(0.737864,0,0,1,960.945,737.008)">
            <path d="M0,7.937C0,5.119 3.096,2.835 6.915,2.835C68.083,2.835 515.854,2.835 577.022,2.835C580.841,2.835 583.937,5.119 583.937,7.937C583.937,48.813 583.937,322.526 583.937,363.402C583.937,366.22 580.841,368.504 577.022,368.504C515.854,368.504 68.083,368.504 6.915,368.504C3.096,368.504 0,366.22 0,363.402C0,322.526 0,48.813 0,7.937Z" style="fill:none;stroke:#00f;stroke-width:0.03px;"/>
        </g>
        <g transform="matrix(0.737864,0,0,1,530.079,737.008)">
            <path d="M0,7.937C0,5.119 3.096,2.835 6.915,2.835C68.083,2.835 515.854,2.835 577.022,2.835C580.841,2.835 583.937,5.119 583.937,7.937C583.937,48.813 583.937,322.526 583.937,363.402C583.937,366.22 580.841,368.504 577.022,368.504C515.854,368.504 68.083,368.504 6.915,368.504C3.096,368.504 0,366.22 0,363.402C0,322.526 0,48.813 0,7.937Z" style="fill:none;stroke:#00f;stroke-width:0.03px;"/>
        </g>
        <g transform="matrix(0.737864,0,0,1,99.2126,737.008)">
            <path d="M0,7.937C0,5.119 3.096,2.835 6.915,2.835C68.083,2.835 515.854,2.835 577.022,2.835C580.841,2.835 583.937,5.119 583.937,7.937C583.937,48.813 583.937,322.526 583.937,363.402C583.937,366.22 580.841,368.504 577.022,368.504C515.854,368.504 68.083,368.504 6.915,368.504C3.096,368.504 0,366.22 0,363.402C0,322.526 0,48.813 0,7.937Z" style="fill:none;stroke:#00f;stroke-width:0.03px;"/>
        </g>
        <g transform="matrix(0.689862,0,0,0.909621,547.503,751.424)">
            <path d="M11.723,30.896C11.723,29.175 13.563,27.78 15.832,27.78C63.532,27.78 511.343,27.78 559.042,27.78C561.312,27.78 563.151,29.175 563.151,30.896C563.151,62.087 563.151,317.567 563.151,348.758C563.151,350.479 561.312,351.874 559.042,351.874C511.343,351.874 63.532,351.874 15.832,351.874C13.563,351.874 11.723,350.479 11.723,348.758C11.723,317.567 11.723,62.087 11.723,30.896Z" style="fill:none;stroke:#00f;stroke-width:0.04px;"/>
        </g>
        <g transform="matrix(0.689862,0,0,0.909621,116.637,751.424)">
            <path d="M11.723,30.896C11.723,29.175 13.563,27.78 15.832,27.78C63.532,27.78 511.343,27.78 559.042,27.78C561.312,27.78 563.151,29.175 563.151,30.896C563.151,62.087 563.151,317.567 563.151,348.758C563.151,350.479 561.312,351.874 559.042,351.874C511.343,351.874 63.532,351.874 15.832,351.874C13.563,351.874 11.723,350.479 11.723,348.758C11.723,317.567 11.723,62.087 11.723,30.896Z" style="fill:none;stroke:#00f;stroke-width:0.04px;"/>
        </g>
        <g transform="matrix(2.16667,0,0,2.16667,-471.969,328.819)">
            <circle cx="850.394" cy="348.661" r="8.504" style="fill:#999;stroke:#f00;stroke-width:0.01px;"/>
        </g>
        <g transform="matrix(2.16667,0,0,2.16667,-471.543,5.66893)">
            <circle cx="850.394" cy="348.661" r="8.504" style="fill:#999;stroke:#f00;stroke-width:0.01px;"/>
        </g>
        <g transform="matrix(2.16667,0,0,2.16667,-860.315,5.66893)">
            <circle cx="850.394" cy="348.661" r="8.504" style="fill:#999;stroke:#f00;stroke-width:0.01px;"/>
        </g>
        <g transform="matrix(2.16667,0,0,2.16667,-860.315,328.819)">
            <circle cx="850.394" cy="348.661" r="8.504" style="fill:#999;stroke:#f00;stroke-width:0.01px;"/>
        </g>
        <g transform="matrix(1,0,0,1,549.921,715.748)">
            <circle cx="829.134" cy="344.409" r="4.252" style="fill:none;stroke:#00f;stroke-width:0.03px;"/>
        </g>
        <g transform="matrix(1,0,0,1,119.055,715.748)">
            <circle cx="829.134" cy="344.409" r="4.252" style="fill:none;stroke:#00f;stroke-width:0.03px;"/>
        </g>
        <g transform="matrix(1,0,0,1,-311.811,715.748)">
            <circle cx="829.134" cy="344.409" r="4.252" style="fill:none;stroke:#00f;stroke-width:0.03px;"/>
        </g>
        <g transform="matrix(1,0,0,1,549.921,443.622)">
            <circle cx="829.134" cy="344.409" r="4.252" style="fill:none;stroke:#00f;stroke-width:0.03px;"/>
        </g>
        <g transform="matrix(1,0,0,1,119.055,443.622)">
            <circle cx="829.134" cy="344.409" r="4.252" style="fill:none;stroke:#00f;stroke-width:0.03px;"/>
        </g>
        <g transform="matrix(1,0,0,1,-311.811,443.622)">
            <circle cx="829.134" cy="344.409" r="4.252" style="fill:none;stroke:#00f;stroke-width:0.03px;"/>
        </g>
        <g transform="matrix(1,0,0,1,144.567,443.622)">
            <circle cx="829.134" cy="344.409" r="4.252" style="fill:none;stroke:#00f;stroke-width:0.03px;"/>
        </g>
        <g transform="matrix(1,0,0,1,-286.299,443.622)">
            <circle cx="829.134" cy="344.409" r="4.252" style="fill:none;stroke:#00f;stroke-width:0.03px;"/>
        </g>
        <g transform="matrix(1,0,0,1,-717.165,443.622)">
            <circle cx="829.134" cy="344.409" r="4.252" style="fill:none;stroke:#00f;stroke-width:0.03px;"/>
        </g>
        <g transform="matrix(1,0,0,1,144.567,579.685)">
            <circle cx="829.134" cy="344.409" r="4.252" style="fill:none;stroke:#00f;stroke-width:0.03px;"/>
        </g>
        <g transform="matrix(1,0,0,1,-286.299,579.685)">
            <circle cx="829.134" cy="344.409" r="4.252" style="fill:none;stroke:#00f;stroke-width:0.03px;"/>
        </g>
        <g transform="matrix(1,0,0,1,-717.165,579.685)">
            <circle cx="829.134" cy="344.409" r="4.252" style="fill:none;stroke:#00f;stroke-width:0.03px;"/>
        </g>
        <g transform="matrix(1,0,0,1,549.921,579.685)">
            <circle cx="829.134" cy="344.409" r="4.252" style="fill:none;stroke:#00f;stroke-width:0.03px;"/>
        </g>
        <g transform="matrix(1,0,0,1,119.055,579.685)">
            <circle cx="829.134" cy="344.409" r="4.252" style="fill:none;stroke:#00f;stroke-width:0.03px;"/>
        </g>
        <g transform="matrix(1,0,0,1,-311.811,579.685)">
            <circle cx="829.134" cy="344.409" r="4.252" style="fill:none;stroke:#00f;stroke-width:0.03px;"/>
        </g>
        <g transform="matrix(1,0,0,1,144.567,715.748)">
            <circle cx="829.134" cy="344.409" r="4.252" style="fill:none;stroke:#00f;stroke-width:0.03px;"/>
        </g>
        <g transform="matrix(1,0,0,1,-286.299,715.748)">
            <circle cx="829.134" cy="344.409" r="4.252" style="fill:none;stroke:#00f;stroke-width:0.03px;"/>
        </g>
        <g transform="matrix(1,0,0,1,-717.165,715.748)">
            <circle cx="829.134" cy="344.409" r="4.252" style="fill:none;stroke:#00f;stroke-width:0.03px;"/>
        </g>
        <g transform="matrix(0.737864,0,0,1,99.2126,371.339)">
            <path d="M0,7.937C0,5.119 3.096,2.835 6.915,2.835C68.083,2.835 515.854,2.835 577.022,2.835C580.841,2.835 583.937,5.119 583.937,7.937C583.937,48.813 583.937,322.526 583.937,363.402C583.937,366.22 580.841,368.504 577.022,368.504C515.854,368.504 68.083,368.504 6.915,368.504C3.096,368.504 0,366.22 0,363.402C0,322.526 0,48.813 0,7.937Z" style="fill:none;stroke:#00f;stroke-width:0.03px;"/>
        </g>
        <g transform="matrix(0.737864,0,0,1,99.2126,5.66929)">
            <path d="M0,7.937C0,5.119 3.096,2.835 6.915,2.835C68.083,2.835 515.854,2.835 577.022,2.835C580.841,2.835 583.937,5.119 583.937,7.937C583.937,48.813 583.937,322.526 583.937,363.402C583.937,366.22 580.841,368.504 577.022,368.504C515.854,368.504 68.083,368.504 6.915,368.504C3.096,368.504 0,366.22 0,363.402C0,322.526 0,48.813 0,7.937Z" style="fill:none;stroke:#00f;stroke-width:0.03px;"/>
        </g>
        <g transform="matrix(1,0,0,1,-311.811,350.079)">
            <circle cx="829.134" cy="344.409" r="4.252" style="fill:none;stroke:#00f;stroke-width:0.03px;"/>
        </g>
        <g transform="matrix(1,0,0,1,-311.811,-15.5906)">
            <circle cx="829.134" cy="344.409" r="4.252" style="fill:none;stroke:#00f;stroke-width:0.03px;"/>
        </g>
        <g transform="matrix(1,0,0,1,-311.811,77.9528)">
            <circle cx="829.134" cy="344.409" r="4.252" style="fill:none;stroke:#00f;stroke-width:0.03px;"/>
        </g>
        <g transform="matrix(1,0,0,1,-311.811,-287.717)">
            <circle cx="829.134" cy="344.409" r="4.252" style="fill:none;stroke:#00f;stroke-width:0.03px;"/>
        </g>
        <g transform="matrix(1,0,0,1,-717.165,77.9528)">
            <circle cx="829.134" cy="344.409" r="4.252" style="fill:none;stroke:#00f;stroke-width:0.03px;"/>
        </g>
        <g transform="matrix(1,0,0,1,-717.165,-287.717)">
            <circle cx="829.134" cy="344.409" r="4.252" style="fill:none;stroke:#00f;stroke-width:0.03px;"/>
        </g>
        <g transform="matrix(1,0,0,1,-717.165,214.016)">
            <circle cx="829.134" cy="344.409" r="4.252" style="fill:none;stroke:#00f;stroke-width:0.03px;"/>
        </g>
        <g transform="matrix(1,0,0,1,-717.165,-151.654)">
            <circle cx="829.134" cy="344.409" r="4.252" style="fill:none;stroke:#00f;stroke-width:0.03px;"/>
        </g>
        <g transform="matrix(1,0,0,1,-311.811,214.016)">
            <circle cx="829.134" cy="344.409" r="4.252" style="fill:none;stroke:#00f;stroke-width:0.03px;"/>
        </g>
        <g transform="matrix(1,0,0,1,-311.811,-151.654)">
            <circle cx="829.134" cy="344.409" r="4.252" style="fill:none;stroke:#00f;stroke-width:0.03px;"/>
        </g>
        <g transform="matrix(1,0,0,1,-717.165,350.079)">
            <circle cx="829.134" cy="344.409" r="4.252" style="fill:none;stroke:#00f;stroke-width:0.03px;"/>
        </g>
        <g transform="matrix(1,0,0,1,-717.165,-15.5906)">
            <circle cx="829.134" cy="344.409" r="4.252" style="fill:none;stroke:#00f;stroke-width:0.03px;"/>
        </g>
        <g transform="matrix(0.939693,0.34202,-0.34202,0.939693,179.532,361.746)">
            <path d="M281.911,160.428L284.215,160.428L284.215,157.649L323.247,157.649L323.247,160.428L325.552,160.428L325.552,170.35L323.247,170.35L323.247,183.981L325.552,183.981L325.552,193.903L323.248,193.903L323.248,196.682L284.213,196.682L284.213,193.903L281.911,193.903L281.911,183.981L284.214,183.981L284.214,170.35L281.911,170.35L281.911,160.428Z" style="fill:none;stroke:#00f;stroke-width:0.03px;stroke-linecap:square;stroke-linejoin:miter;stroke-miterlimit:2;"/>
        </g>
        <g transform="matrix(0.608761,0.793353,-0.793353,0.608761,413.827,322.776)">
            <path d="M281.911,160.428L284.215,160.428L284.215,157.649L323.247,157.649L323.247,160.428L325.552,160.428L325.552,170.35L323.247,170.35L323.247,183.981L325.552,183.981L325.552,193.903L323.248,193.903L323.248,196.682L284.213,196.682L284.213,193.903L281.911,193.903L281.911,183.981L284.214,183.981L284.214,170.35L281.911,170.35L281.911,160.428Z" style="fill:none;stroke:#00f;stroke-width:0.03px;stroke-linecap:square;stroke-linejoin:miter;stroke-miterlimit:2;"/>
        </g>
        <g transform="matrix(-0.984808,-0.173648,-0.173648,0.984808,584.977,333.264)">
            <path d="M281.911,160.428L284.215,160.428L284.215,157.649L323.247,157.649L323.247,160.428L325.552,160.428L325.552,170.35L323.247,170.35L323.247,183.981L325.552,183.981L325.552,193.903L323.248,193.903L323.248,196.682L284.213,196.682L284.213,193.903L281.911,193.903L281.911,183.981L284.214,183.981L284.214,170.35L281.911,170.35L281.911,160.428Z" style="fill:none;stroke:#00f;stroke-width:0.03px;stroke-linecap:square;stroke-linejoin:miter;stroke-miterlimit:2;"/>
        </g>
        <g transform="matrix(-1,0,0,1,458.787,273.793)">
            <path d="M281.911,160.428L284.215,160.428L284.215,157.649L323.247,157.649L323.247,160.428L325.552,160.428L325.552,170.35L323.247,170.35L323.247,183.981L325.552,183.981L325.552,193.903L323.248,193.903L323.248,196.682L284.213,196.682L284.213,193.903L281.911,193.903L281.911,183.981L284.214,183.981L284.214,170.35L281.911,170.35L281.911,160.428Z" style="fill:none;stroke:#00f;stroke-width:0.03px;stroke-linecap:square;stroke-linejoin:miter;stroke-miterlimit:2;"/>
        </g>
        <g transform="matrix(-0.984808,-0.173648,-0.173648,0.984808,641.149,324.853)">
            <path d="M281.911,160.428L284.215,160.428L284.215,157.649L323.247,157.649L323.247,160.428L325.552,160.428L325.552,170.35L323.247,170.35L323.247,183.981L325.552,183.981L325.552,193.903L323.248,193.903L323.248,196.682L284.213,196.682L284.213,193.903L281.911,193.903L281.911,183.981L284.214,183.981L284.214,170.35L281.911,170.35L281.911,160.428Z" style="fill:none;stroke:#00f;stroke-width:0.03px;stroke-linecap:square;stroke-linejoin:miter;stroke-miterlimit:2;"/>
        </g>
        <g transform="matrix(-0.984808,-0.173648,-0.173648,0.984808,697.29,316.618)">
            <path d="M281.911,160.428L284.215,160.428L284.215,157.649L323.247,157.649L323.247,160.428L325.552,160.428L325.552,170.35L323.247,170.35L323.247,183.981L325.552,183.981L325.552,193.903L323.248,193.903L323.248,196.682L284.213,196.682L284.213,193.903L281.911,193.903L281.911,183.981L284.214,183.981L284.214,170.35L281.911,170.35L281.911,160.428Z" style="fill:none;stroke:#00f;stroke-width:0.03px;stroke-linecap:square;stroke-linejoin:miter;stroke-miterlimit:2;"/>
        </g>
        <g transform="matrix(-0.984808,-0.173648,-0.173648,0.984808,747.229,343.557)">
            <path d="M281.911,160.428L284.215,160.428L284.215,157.649L323.247,157.649L323.247,160.428L325.552,160.428L325.552,170.35L323.247,170.35L323.247,183.981L325.552,183.981L325.552,193.903L323.248,193.903L323.248,196.682L284.213,196.682L284.213,193.903L281.911,193.903L281.911,183.981L284.214,183.981L284.214,170.35L281.911,170.35L281.911,160.428Z" style="fill:none;stroke:#00f;stroke-width:0.03px;stroke-linecap:square;stroke-linejoin:miter;stroke-miterlimit:2;"/>
        </g>
        <g transform="matrix(-0.984808,-0.173648,-0.173648,0.984808,800.269,352.91)">
            <path d="M281.911,160.428L284.215,160.428L284.215,157.649L323.247,157.649L323.247,160.428L325.552,160.428L325.552,170.35L323.247,170.35L323.247,183.981L325.552,183.981L325.552,193.903L323.248,193.903L323.248,196.682L284.213,196.682L284.213,193.903L281.911,193.903L281.911,183.981L284.214,183.981L284.214,170.35L281.911,170.35L281.911,160.428Z" style="fill:none;stroke:#00f;stroke-width:0.03px;stroke-linecap:square;stroke-linejoin:miter;stroke-miterlimit:2;"/>
        </g>
        <g transform="matrix(-0.984808,-0.173648,-0.173648,0.984808,575.603,386.426)">
            <path d="M281.911,160.428L284.215,160.428L284.215,157.649L323.247,157.649L323.247,160.428L325.552,160.428L325.552,170.35L323.247,170.35L323.247,183.981L325.552,183.981L325.552,193.903L323.248,193.903L323.248,196.682L284.213,196.682L284.213,193.903L281.911,193.903L281.911,183.981L284.214,183.981L284.214,170.35L281.911,170.35L281.911,160.428Z" style="fill:none;stroke:#00f;stroke-width:0.03px;stroke-linecap:square;stroke-linejoin:miter;stroke-miterlimit:2;"/>
        </g>
        <g transform="matrix(-1,0,0,1,458.787,327.775)">
            <path d="M281.911,160.428L284.215,160.428L284.215,157.649L323.247,157.649L323.247,160.428L325.552,160.428L325.552,170.35L323.247,170.35L323.247,183.981L325.552,183.981L325.552,193.903L323.248,193.903L323.248,196.682L284.213,196.682L284.213,193.903L281.911,193.903L281.911,183.981L284.214,183.981L284.214,170.35L281.911,170.35L281.911,160.428Z" style="fill:none;stroke:#00f;stroke-width:0.03px;stroke-linecap:square;stroke-linejoin:miter;stroke-miterlimit:2;"/>
        </g>
        <g transform="matrix(-0.984808,-0.173648,-0.173648,0.984808,631.775,378.014)">
            <path d="M281.911,160.428L284.215,160.428L284.215,157.649L323.247,157.649L323.247,160.428L325.552,160.428L325.552,170.35L323.247,170.35L323.247,183.981L325.552,183.981L325.552,193.903L323.248,193.903L323.248,196.682L284.213,196.682L284.213,193.903L281.911,193.903L281.911,183.981L284.214,183.981L284.214,170.35L281.911,170.35L281.911,160.428Z" style="fill:none;stroke:#00f;stroke-width:0.03px;stroke-linecap:square;stroke-linejoin:miter;stroke-miterlimit:2;"/>
        </g>
        <g transform="matrix(-0.984808,-0.173648,-0.173648,0.984808,687.916,369.779)">
            <path d="M281.911,160.428L284.215,160.428L284.215,157.649L323.247,157.649L323.247,160.428L325.552,160.428L325.552,170.35L323.247,170.35L323.247,183.981L325.552,183.981L325.552,193.903L323.248,193.903L323.248,196.682L284.213,196.682L284.213,193.903L281.911,193.903L281.911,183.981L284.214,183.981L284.214,170.35L281.911,170.35L281.911,160.428Z" style="fill:none;stroke:#00f;stroke-width:0.03px;stroke-linecap:square;stroke-linejoin:miter;stroke-miterlimit:2;"/>
        </g>
        <g transform="matrix(-0.984808,-0.173648,-0.173648,0.984808,737.855,396.719)">
            <path d="M281.911,160.428L284.215,160.428L284.215,157.649L323.247,157.649L323.247,160.428L325.552,160.428L325.552,170.35L323.247,170.35L323.247,183.981L325.552,183.981L325.552,193.903L323.248,193.903L323.248,196.682L284.213,196.682L284.213,193.903L281.911,193.903L281.911,183.981L284.214,183.981L284.214,170.35L281.911,170.35L281.911,160.428Z" style="fill:none;stroke:#00f;stroke-width:0.03px;stroke-linecap:square;stroke-linejoin:miter;stroke-miterlimit:2;"/>
        </g>
        <g transform="matrix(-0.984808,-0.173648,-0.173648,0.984808,790.895,406.071)">
            <path d="M281.911,160.428L284.215,160.428L284.215,157.649L323.247,157.649L323.247,160.428L325.552,160.428L325.552,170.35L323.247,170.35L323.247,183.981L325.552,183.981L325.552,193.903L323.248,193.903L323.248,196.682L284.213,196.682L284.213,193.903L281.911,193.903L281.911,183.981L284.214,183.981L284.214,170.35L281.911,170.35L281.911,160.428Z" style="fill:none;stroke:#00f;stroke-width:0.03px;stroke-linecap:square;stroke-linejoin:miter;stroke-miterlimit:2;"/>
        </g>
        <g transform="matrix(-0.984808,-0.173648,-0.173648,0.984808,566.229,439.587)">
            <path d="M281.911,160.428L284.215,160.428L284.215,157.649L323.247,157.649L323.247,160.428L325.552,160.428L325.552,170.35L323.247,170.35L323.247,183.981L325.552,183.981L325.552,193.903L323.248,193.903L323.248,196.682L284.213,196.682L284.213,193.903L281.911,193.903L281.911,183.981L284.214,183.981L284.214,170.35L281.911,170.35L281.911,160.428Z" style="fill:none;stroke:#00f;stroke-width:0.03px;stroke-linecap:square;stroke-linejoin:miter;stroke-miterlimit:2;"/>
        </g>
        <g transform="matrix(-1,0,0,1,458.787,381.756)">
            <path d="M281.911,160.428L284.215,160.428L284.215,157.649L323.247,157.649L323.247,160.428L325.552,160.428L325.552,170.35L323.247,170.35L323.247,183.981L325.552,183.981L325.552,193.903L323.248,193.903L323.248,196.682L284.213,196.682L284.213,193.903L281.911,193.903L281.911,183.981L284.214,183.981L284.214,170.35L281.911,170.35L281.911,160.428Z" style="fill:none;stroke:#00f;stroke-width:0.03px;stroke-linecap:square;stroke-linejoin:miter;stroke-miterlimit:2;"/>
        </g>
        <g transform="matrix(-0.984808,-0.173648,-0.173648,0.984808,622.401,431.175)">
            <path d="M281.911,160.428L284.215,160.428L284.215,157.649L323.247,157.649L323.247,160.428L325.552,160.428L325.552,170.35L323.247,170.35L323.247,183.981L325.552,183.981L325.552,193.903L323.248,193.903L323.248,196.682L284.213,196.682L284.213,193.903L281.911,193.903L281.911,183.981L284.214,183.981L284.214,170.35L281.911,170.35L281.911,160.428Z" style="fill:none;stroke:#00f;stroke-width:0.03px;stroke-linecap:square;stroke-linejoin:miter;stroke-miterlimit:2;"/>
        </g>
        <g transform="matrix(-0.984808,-0.173648,-0.173648,0.984808,678.542,422.941)">
            <path d="M281.911,160.428L284.215,160.428L284.215,157.649L323.247,157.649L323.247,160.428L325.552,160.428L325.552,170.35L323.247,170.35L323.247,183.981L325.552,183.981L325.552,193.903L323.248,193.903L323.248,196.682L284.213,196.682L284.213,193.903L281.911,193.903L281.911,183.981L284.214,183.981L284.214,170.35L281.911,170.35L281.911,160.428Z" style="fill:none;stroke:#00f;stroke-width:0.03px;stroke-linecap:square;stroke-linejoin:miter;stroke-miterlimit:2;"/>
        </g>
        <g transform="matrix(-0.984808,-0.173648,-0.173648,0.984808,728.481,449.88)">
            <path d="M281.911,160.428L284.215,160.428L284.215,157.649L323.247,157.649L323.247,160.428L325.552,160.428L325.552,170.35L323.247,170.35L323.247,183.981L325.552,183.981L325.552,193.903L323.248,193.903L323.248,196.682L284.213,196.682L284.213,193.903L281.911,193.903L281.911,183.981L284.214,183.981L284.214,170.35L281.911,170.35L281.911,160.428Z" style="fill:none;stroke:#00f;stroke-width:0.03px;stroke-linecap:square;stroke-linejoin:miter;stroke-miterlimit:2;"/>
        </g>
        <g transform="matrix(-0.984808,-0.173648,-0.173648,0.984808,781.521,459.232)">
            <path d="M281.911,160.428L284.215,160.428L284.215,157.649L323.247,157.649L323.247,160.428L325.552,160.428L325.552,170.35L323.247,170.35L323.247,183.981L325.552,183.981L325.552,193.903L323.248,193.903L323.248,196.682L284.213,196.682L284.213,193.903L281.911,193.903L281.911,183.981L284.214,183.981L284.214,170.35L281.911,170.35L281.911,160.428Z" style="fill:none;stroke:#00f;stroke-width:0.03px;stroke-linecap:square;stroke-linejoin:miter;stroke-miterlimit:2;"/>
        </g>
        <g transform="matrix(-0.984808,-0.173648,-0.173648,0.984808,609.96,502.111)">
            <path d="M281.911,160.428L284.215,160.428L284.215,157.649L323.247,157.649L323.247,160.428L325.552,160.428L325.552,170.35L323.247,170.35L323.247,183.981L325.552,183.981L325.552,193.903L323.248,193.903L323.248,196.682L284.213,196.682L284.213,193.903L281.911,193.903L281.911,183.981L284.214,183.981L284.214,170.35L281.911,170.35L281.911,160.428Z" style="fill:none;stroke:#00f;stroke-width:0.03px;stroke-linecap:square;stroke-linejoin:miter;stroke-miterlimit:2;"/>
        </g>
        <g transform="matrix(-0.984808,-0.173648,-0.173648,0.984808,556.855,492.747)">
            <path d="M281.911,160.428L284.215,160.428L284.215,157.649L323.247,157.649L323.247,160.428L325.552,160.428L325.552,170.35L323.247,170.35L323.247,183.981L325.552,183.981L325.552,193.903L323.248,193.903L323.248,196.682L284.213,196.682L284.213,193.903L281.911,193.903L281.911,183.981L284.214,183.981L284.214,170.35L281.911,170.35L281.911,160.428Z" style="fill:none;stroke:#00f;stroke-width:0.03px;stroke-linecap:square;stroke-linejoin:miter;stroke-miterlimit:2;"/>
        </g>
        <g transform="matrix(-1,0,0,1,458.787,435.736)">
            <path d="M281.911,160.428L284.215,160.428L284.215,157.649L323.247,157.649L323.247,160.428L325.552,160.428L325.552,170.35L323.247,170.35L323.247,183.981L325.552,183.981L325.552,193.903L323.248,193.903L323.248,196.682L284.213,196.682L284.213,193.903L281.911,193.903L281.911,183.981L284.214,183.981L284.214,170.35L281.911,170.35L281.911,160.428Z" style="fill:none;stroke:#00f;stroke-width:0.03px;stroke-linecap:square;stroke-linejoin:miter;stroke-miterlimit:2;"/>
        </g>
        <g transform="matrix(-1,0,0,1,458.787,489.718)">
            <path d="M281.911,160.428L284.215,160.428L284.215,157.649L323.247,157.649L323.247,160.428L325.552,160.428L325.552,170.35L323.247,170.35L323.247,183.981L325.552,183.981L325.552,193.903L323.248,193.903L323.248,196.682L284.213,196.682L284.213,193.903L281.911,193.903L281.911,183.981L284.214,183.981L284.214,170.35L281.911,170.35L281.911,160.428Z" style="fill:none;stroke:#00f;stroke-width:0.03px;stroke-linecap:square;stroke-linejoin:miter;stroke-miterlimit:2;"/>
        </g>
        <g transform="matrix(-0.984808,-0.173648,-0.173648,0.984808,662.871,511.441)">
            <path d="M281.911,160.428L284.215,160.428L284.215,157.649L323.247,157.649L323.247,160.428L325.552,160.428L325.552,170.35L323.247,170.35L323.247,183.981L325.552,183.981L325.552,193.903L323.248,193.903L323.248,196.682L284.213,196.682L284.213,193.903L281.911,193.903L281.911,183.981L284.214,183.981L284.214,170.35L281.911,170.35L281.911,160.428Z" style="fill:none;stroke:#00f;stroke-width:0.03px;stroke-linecap:square;stroke-linejoin:miter;stroke-miterlimit:2;"/>
        </g>
        <path d="M183.402,329.561L126.709,329.561L126.709,56.943L183.402,56.943L183.402,329.561ZM126.737,56.971L126.737,329.533L183.373,329.533L183.373,56.971L126.737,56.971Z" style="fill:#00f;"/>
        <path d="M400.247,49.687L397.145,67.274L503.226,85.979L493.381,141.81L484.478,192.301L474.633,248.133L418.802,238.288L401.504,235.238L440.684,249.499L423.456,296.834L463.405,266.18L497.917,311.157L452.94,345.67L419.532,302.131L368.02,283.382L386.506,232.594L365.762,228.936L368.863,211.349L318.614,202.489L315.513,220.076L262.473,210.723L259.812,225.816L365.827,244.509L355.982,300.341L300.151,290.496L247.241,281.167L194.136,271.803L203.509,218.643L212.883,165.481L222.257,112.32L232.101,56.489L285.141,65.841L288.274,48.077L341.314,57.429L344.415,39.842L400.247,49.687ZM341.337,57.462L288.297,48.11L285.164,65.874L232.124,56.521L222.285,112.325L212.911,165.486L203.537,218.648L194.169,271.78L247.246,281.139L300.156,290.469L355.959,300.308L365.794,244.532L312.912,235.208L259.779,225.839L262.45,210.69L315.49,220.043L318.591,202.456L368.896,211.326L365.795,228.913L386.544,232.572L368.057,283.365L419.549,302.107L452.945,345.63L497.878,311.152L463.4,266.219L423.473,296.856L423.429,296.824L440.648,249.515L401.495,235.265L401.509,235.21L418.807,238.26L474.61,248.1L484.45,192.296L493.353,141.805L503.193,86.002L447.389,76.162L397.113,67.297L400.214,49.71L344.438,39.875L341.337,57.462Z" style="fill:#00f;"/>
    </g>
</svg>
