<?xml version="1.0" encoding="UTF-8" standalone="no"?>
<!DOCTYPE svg PUBLIC "-//W3C//DTD SVG 1.1//EN" "http://www.w3.org/Graphics/SVG/1.1/DTD/svg11.dtd">
<svg width="100%" height="100%" viewBox="0 0 816 544" version="1.1" xmlns="http://www.w3.org/2000/svg" xmlns:xlink="http://www.w3.org/1999/xlink" xml:space="preserve" xmlns:serif="http://www.serif.com/" style="fill-rule:evenodd;clip-rule:evenodd;stroke-linecap:round;stroke-linejoin:round;">
    <g id="Layer1">
        <g id="Engravings">
            <g id="Designmark">
                <g transform="matrix(1,0,0,1,48.774,7.24224)">
                    <g transform="matrix(10,0,0,10,701.11,255.467)">
                        <path d="M-0.022,0.127L0.028,0.127L0.367,-0.758L0.318,-0.758L-0.022,0.127Z" style="fill-rule:nonzero;"/>
                    </g>
                    <g transform="matrix(10,0,0,10,705.03,255.467)">
                        <path d="M0.565,-0.033L0.565,-0.055L0.558,-0.055C0.506,-0.055 0.497,-0.073 0.497,-0.173L0.497,-0.362C0.497,-0.407 0.499,-0.473 0.502,-0.548L0.347,-0.538L0.347,-0.516L0.365,-0.516C0.383,-0.515 0.393,-0.512 0.399,-0.506C0.411,-0.497 0.414,-0.478 0.414,-0.425L0.414,-0.271C0.414,-0.209 0.411,-0.187 0.396,-0.153C0.37,-0.092 0.321,-0.056 0.266,-0.056C0.225,-0.056 0.197,-0.075 0.185,-0.112C0.173,-0.147 0.171,-0.174 0.171,-0.275L0.171,-0.362C0.171,-0.431 0.172,-0.455 0.177,-0.548L0.022,-0.538L0.022,-0.516L0.04,-0.516C0.059,-0.515 0.068,-0.513 0.074,-0.507C0.085,-0.498 0.089,-0.477 0.089,-0.425L0.089,-0.26C0.089,-0.173 0.093,-0.132 0.103,-0.105C0.123,-0.052 0.172,-0.021 0.236,-0.021C0.31,-0.021 0.375,-0.061 0.414,-0.129C0.414,-0.08 0.416,-0.05 0.419,-0.026L0.565,-0.033Z" style="fill-rule:nonzero;"/>
                    </g>
                    <g transform="matrix(10,0,0,10,710.96,255.467)">
                        <path d="M-0.022,0.127L0.028,0.127L0.367,-0.758L0.318,-0.758L-0.022,0.127Z" style="fill-rule:nonzero;"/>
                    </g>
                    <g transform="matrix(10,0,0,10,714.88,255.467)">
                        <path d="M0.299,-0.109L0.182,-0.429C0.174,-0.449 0.168,-0.473 0.168,-0.482C0.168,-0.504 0.188,-0.515 0.234,-0.516L0.234,-0.538L0.009,-0.538L0.009,-0.516C0.052,-0.515 0.067,-0.502 0.088,-0.444L0.246,-0.029L0.303,-0.029L0.447,-0.416C0.475,-0.491 0.499,-0.514 0.552,-0.516L0.552,-0.538L0.347,-0.538L0.347,-0.516C0.401,-0.514 0.424,-0.502 0.424,-0.476C0.424,-0.465 0.419,-0.442 0.412,-0.423L0.299,-0.109Z" style="fill-rule:nonzero;"/>
                    </g>
                    <g transform="matrix(10,0,0,10,720.48,255.467)">
                        <path d="M0.047,-0.278C0.047,-0.123 0.143,-0.02 0.288,-0.02C0.44,-0.02 0.536,-0.125 0.536,-0.292C0.536,-0.449 0.44,-0.552 0.294,-0.552C0.225,-0.552 0.162,-0.528 0.12,-0.485C0.074,-0.438 0.047,-0.361 0.047,-0.278ZM0.14,-0.291C0.14,-0.444 0.193,-0.529 0.289,-0.529C0.387,-0.529 0.443,-0.439 0.443,-0.283C0.443,-0.129 0.389,-0.044 0.291,-0.044C0.195,-0.044 0.14,-0.134 0.14,-0.291Z" style="fill-rule:nonzero;"/>
                    </g>
                    <g transform="matrix(10,0,0,10,726.31,255.467)">
                        <path d="M0.053,-0.031C0.073,-0.034 0.087,-0.035 0.098,-0.035C0.109,-0.035 0.121,-0.034 0.135,-0.032C0.194,-0.022 0.207,-0.02 0.235,-0.02C0.329,-0.02 0.39,-0.079 0.39,-0.171C0.39,-0.21 0.378,-0.243 0.357,-0.266C0.334,-0.291 0.309,-0.306 0.242,-0.334C0.176,-0.362 0.157,-0.372 0.138,-0.386C0.12,-0.399 0.111,-0.417 0.111,-0.44C0.111,-0.494 0.151,-0.529 0.213,-0.529C0.286,-0.529 0.33,-0.476 0.332,-0.387L0.365,-0.387L0.37,-0.545C0.35,-0.54 0.334,-0.538 0.322,-0.538C0.316,-0.538 0.309,-0.539 0.301,-0.54C0.247,-0.55 0.234,-0.552 0.208,-0.552C0.158,-0.552 0.111,-0.531 0.084,-0.495C0.067,-0.472 0.057,-0.438 0.057,-0.403C0.057,-0.335 0.09,-0.299 0.198,-0.252C0.289,-0.212 0.292,-0.211 0.31,-0.196C0.325,-0.183 0.334,-0.161 0.334,-0.138C0.334,-0.079 0.293,-0.044 0.225,-0.044C0.179,-0.044 0.142,-0.062 0.116,-0.098C0.099,-0.12 0.092,-0.144 0.088,-0.191L0.057,-0.191L0.053,-0.031Z" style="fill-rule:nonzero;"/>
                    </g>
                    <g transform="matrix(10,0,0,10,730.76,255.467)">
                        <path d="M0.493,-0.315C0.491,-0.374 0.487,-0.398 0.477,-0.425C0.446,-0.506 0.377,-0.552 0.286,-0.552C0.145,-0.552 0.049,-0.441 0.049,-0.279C0.049,-0.126 0.147,-0.02 0.29,-0.02C0.388,-0.02 0.456,-0.063 0.501,-0.155L0.478,-0.168C0.438,-0.092 0.384,-0.055 0.313,-0.055C0.241,-0.055 0.192,-0.091 0.163,-0.165C0.147,-0.206 0.141,-0.246 0.14,-0.315L0.493,-0.315ZM0.142,-0.342C0.148,-0.394 0.154,-0.42 0.169,-0.449C0.196,-0.5 0.236,-0.527 0.284,-0.527C0.331,-0.527 0.365,-0.502 0.387,-0.453C0.4,-0.424 0.405,-0.395 0.406,-0.342L0.142,-0.342Z" style="fill-rule:nonzero;"/>
                    </g>
                    <g transform="matrix(10,0,0,10,736.11,255.467)">
                        <path d="M0.473,-0.175C0.439,-0.095 0.384,-0.054 0.312,-0.054C0.208,-0.054 0.145,-0.147 0.145,-0.299C0.145,-0.443 0.199,-0.527 0.29,-0.527C0.348,-0.527 0.389,-0.49 0.395,-0.435C0.397,-0.409 0.397,-0.407 0.403,-0.401C0.41,-0.395 0.423,-0.391 0.437,-0.391C0.468,-0.391 0.487,-0.403 0.487,-0.422C0.487,-0.447 0.47,-0.477 0.444,-0.501C0.408,-0.533 0.354,-0.552 0.296,-0.552C0.15,-0.552 0.051,-0.442 0.051,-0.279C0.051,-0.126 0.149,-0.02 0.29,-0.02C0.386,-0.02 0.455,-0.068 0.496,-0.161L0.473,-0.175Z" style="fill-rule:nonzero;"/>
                    </g>
                    <g transform="matrix(10,0,0,10,741.37,255.467)">
                        <path d="M0.18,-0.566C0.18,-0.653 0.181,-0.69 0.185,-0.766L0.025,-0.758L0.025,-0.736C0.094,-0.735 0.098,-0.73 0.098,-0.645L0.098,-0.158C0.098,-0.064 0.093,-0.057 0.025,-0.055L0.025,-0.033L0.252,-0.033L0.252,-0.055C0.185,-0.057 0.18,-0.064 0.18,-0.158L0.18,-0.319C0.18,-0.352 0.183,-0.372 0.19,-0.394C0.2,-0.425 0.217,-0.455 0.237,-0.476C0.261,-0.501 0.296,-0.515 0.336,-0.515C0.379,-0.515 0.408,-0.499 0.424,-0.467C0.435,-0.447 0.44,-0.41 0.44,-0.359L0.44,-0.158C0.44,-0.064 0.435,-0.057 0.367,-0.055L0.367,-0.033L0.594,-0.033L0.594,-0.055C0.527,-0.057 0.522,-0.065 0.522,-0.158L0.522,-0.358C0.522,-0.413 0.516,-0.455 0.504,-0.48C0.48,-0.527 0.431,-0.552 0.358,-0.552C0.276,-0.552 0.227,-0.522 0.18,-0.445L0.18,-0.566Z" style="fill-rule:nonzero;"/>
                    </g>
                    <g transform="matrix(10,0,0,10,747.56,255.467)">
                        <path d="M0.565,-0.033L0.565,-0.055L0.558,-0.055C0.506,-0.055 0.497,-0.073 0.497,-0.173L0.497,-0.362C0.497,-0.407 0.499,-0.473 0.502,-0.548L0.347,-0.538L0.347,-0.516L0.365,-0.516C0.383,-0.515 0.393,-0.512 0.399,-0.506C0.411,-0.497 0.414,-0.478 0.414,-0.425L0.414,-0.271C0.414,-0.209 0.411,-0.187 0.396,-0.153C0.37,-0.092 0.321,-0.056 0.266,-0.056C0.225,-0.056 0.197,-0.075 0.185,-0.112C0.173,-0.147 0.171,-0.174 0.171,-0.275L0.171,-0.362C0.171,-0.431 0.172,-0.455 0.177,-0.548L0.022,-0.538L0.022,-0.516L0.04,-0.516C0.059,-0.515 0.068,-0.513 0.074,-0.507C0.085,-0.498 0.089,-0.477 0.089,-0.425L0.089,-0.26C0.089,-0.173 0.093,-0.132 0.103,-0.105C0.123,-0.052 0.172,-0.021 0.236,-0.021C0.31,-0.021 0.375,-0.061 0.414,-0.129C0.414,-0.08 0.416,-0.05 0.419,-0.026L0.565,-0.033Z" style="fill-rule:nonzero;"/>
                    </g>
                </g>
                <g transform="matrix(1,0,0,1,3.47401,-6.23643)">
                    <g transform="matrix(10,0,0,10,740.52,258.615)">
                        <path d="M0.039,-0.033L0.296,-0.033C0.417,-0.033 0.499,-0.05 0.56,-0.089C0.651,-0.148 0.7,-0.257 0.7,-0.4C0.7,-0.55 0.647,-0.659 0.545,-0.717C0.496,-0.745 0.424,-0.758 0.321,-0.758L0.039,-0.758L0.039,-0.734C0.085,-0.734 0.103,-0.726 0.11,-0.705C0.113,-0.696 0.113,-0.695 0.115,-0.631L0.115,-0.16C0.113,-0.085 0.113,-0.084 0.102,-0.072C0.093,-0.062 0.073,-0.057 0.039,-0.057L0.039,-0.033ZM0.206,-0.063L0.206,-0.728L0.301,-0.728C0.421,-0.728 0.503,-0.692 0.545,-0.622C0.58,-0.562 0.599,-0.479 0.599,-0.383C0.599,-0.279 0.574,-0.196 0.528,-0.143C0.483,-0.091 0.406,-0.063 0.308,-0.063L0.206,-0.063Z" style="fill-rule:nonzero;"/>
                    </g>
                    <g transform="matrix(10,0,0,10,748.13,258.615)">
                        <path d="M0.493,-0.315C0.491,-0.374 0.487,-0.398 0.477,-0.425C0.446,-0.506 0.377,-0.552 0.286,-0.552C0.145,-0.552 0.049,-0.441 0.049,-0.279C0.049,-0.126 0.147,-0.02 0.29,-0.02C0.388,-0.02 0.456,-0.063 0.501,-0.155L0.478,-0.168C0.438,-0.092 0.384,-0.055 0.313,-0.055C0.241,-0.055 0.192,-0.091 0.163,-0.165C0.147,-0.206 0.141,-0.246 0.14,-0.315L0.493,-0.315ZM0.142,-0.342C0.148,-0.394 0.154,-0.42 0.169,-0.449C0.196,-0.5 0.236,-0.527 0.284,-0.527C0.331,-0.527 0.365,-0.502 0.387,-0.453C0.4,-0.424 0.405,-0.395 0.406,-0.342L0.142,-0.342Z" style="fill-rule:nonzero;"/>
                    </g>
                    <g transform="matrix(10,0,0,10,753.48,258.615)">
                        <path d="M0.053,-0.031C0.073,-0.034 0.087,-0.035 0.098,-0.035C0.109,-0.035 0.121,-0.034 0.135,-0.032C0.194,-0.022 0.207,-0.02 0.235,-0.02C0.329,-0.02 0.39,-0.079 0.39,-0.171C0.39,-0.21 0.378,-0.243 0.357,-0.266C0.334,-0.291 0.309,-0.306 0.242,-0.334C0.176,-0.362 0.157,-0.372 0.138,-0.386C0.12,-0.399 0.111,-0.417 0.111,-0.44C0.111,-0.494 0.151,-0.529 0.213,-0.529C0.286,-0.529 0.33,-0.476 0.332,-0.387L0.365,-0.387L0.37,-0.545C0.35,-0.54 0.334,-0.538 0.322,-0.538C0.316,-0.538 0.309,-0.539 0.301,-0.54C0.247,-0.55 0.234,-0.552 0.208,-0.552C0.158,-0.552 0.111,-0.531 0.084,-0.495C0.067,-0.472 0.057,-0.438 0.057,-0.403C0.057,-0.335 0.09,-0.299 0.198,-0.252C0.289,-0.212 0.292,-0.211 0.31,-0.196C0.325,-0.183 0.334,-0.161 0.334,-0.138C0.334,-0.079 0.293,-0.044 0.225,-0.044C0.179,-0.044 0.142,-0.062 0.116,-0.098C0.099,-0.12 0.092,-0.144 0.088,-0.191L0.057,-0.191L0.053,-0.031Z" style="fill-rule:nonzero;"/>
                    </g>
                    <g transform="matrix(10,0,0,10,757.93,258.615)">
                        <path d="M0.034,-0.538L0.034,-0.516C0.069,-0.516 0.085,-0.514 0.093,-0.507C0.104,-0.498 0.108,-0.475 0.108,-0.425L0.108,-0.158C0.108,-0.065 0.103,-0.057 0.034,-0.055L0.034,-0.033L0.262,-0.033L0.262,-0.055C0.195,-0.057 0.19,-0.065 0.19,-0.158L0.19,-0.362C0.19,-0.404 0.193,-0.491 0.196,-0.549L0.034,-0.538ZM0.089,-0.705C0.089,-0.673 0.114,-0.648 0.146,-0.648C0.177,-0.648 0.202,-0.673 0.202,-0.705C0.202,-0.736 0.177,-0.761 0.146,-0.761C0.114,-0.761 0.089,-0.736 0.089,-0.705Z" style="fill-rule:nonzero;"/>
                    </g>
                    <g transform="matrix(10,0,0,10,760.88,258.615)">
                        <path d="M0.505,-0.504L0.505,-0.542C0.451,-0.54 0.421,-0.539 0.396,-0.539C0.373,-0.539 0.365,-0.54 0.333,-0.545C0.305,-0.55 0.287,-0.552 0.266,-0.552C0.219,-0.552 0.177,-0.542 0.143,-0.522C0.094,-0.493 0.065,-0.434 0.065,-0.366C0.065,-0.326 0.076,-0.289 0.097,-0.263C0.108,-0.249 0.119,-0.239 0.147,-0.22L0.108,-0.194C0.069,-0.167 0.06,-0.154 0.06,-0.126C0.06,-0.086 0.08,-0.058 0.123,-0.038C0.061,0.002 0.053,0.012 0.053,0.054C0.053,0.1 0.07,0.131 0.107,0.151C0.145,0.172 0.195,0.182 0.262,0.182C0.337,0.182 0.394,0.17 0.439,0.144C0.484,0.119 0.514,0.069 0.514,0.02C0.514,-0.036 0.486,-0.072 0.431,-0.088C0.403,-0.095 0.371,-0.098 0.303,-0.098L0.233,-0.098C0.149,-0.098 0.123,-0.11 0.123,-0.148C0.123,-0.171 0.138,-0.188 0.175,-0.208C0.212,-0.199 0.233,-0.196 0.263,-0.196C0.383,-0.196 0.461,-0.264 0.461,-0.37C0.461,-0.422 0.443,-0.464 0.404,-0.504L0.505,-0.504ZM0.149,-0.378C0.149,-0.478 0.188,-0.529 0.263,-0.529C0.337,-0.529 0.375,-0.475 0.375,-0.37C0.375,-0.271 0.336,-0.218 0.263,-0.218C0.223,-0.218 0.189,-0.236 0.172,-0.266C0.157,-0.293 0.149,-0.333 0.149,-0.378ZM0.16,-0.031C0.161,-0.032 0.221,-0.033 0.256,-0.033C0.32,-0.033 0.349,-0.032 0.37,-0.029C0.424,-0.02 0.447,0.002 0.447,0.044C0.447,0.114 0.381,0.158 0.274,0.158C0.172,0.158 0.119,0.119 0.119,0.045C0.119,0.003 0.132,-0.021 0.16,-0.031Z" style="fill-rule:nonzero;"/>
                    </g>
                    <g transform="matrix(10,0,0,10,766.21,258.615)">
                        <path d="M0.186,-0.549L0.035,-0.538L0.035,-0.516C0.092,-0.516 0.104,-0.501 0.104,-0.426L0.104,-0.158C0.104,-0.065 0.098,-0.057 0.031,-0.055L0.031,-0.033L0.259,-0.033L0.259,-0.055C0.191,-0.057 0.186,-0.064 0.186,-0.158L0.186,-0.331C0.186,-0.372 0.199,-0.42 0.22,-0.453C0.248,-0.498 0.286,-0.52 0.333,-0.52C0.375,-0.52 0.405,-0.502 0.421,-0.467C0.432,-0.444 0.437,-0.409 0.437,-0.359L0.437,-0.158C0.437,-0.151 0.435,-0.114 0.434,-0.103C0.433,-0.086 0.43,-0.078 0.424,-0.07C0.416,-0.06 0.398,-0.056 0.365,-0.055L0.365,-0.033L0.592,-0.033L0.592,-0.055C0.524,-0.057 0.519,-0.064 0.519,-0.158L0.519,-0.365C0.519,-0.426 0.512,-0.461 0.493,-0.49C0.466,-0.533 0.425,-0.552 0.362,-0.552C0.279,-0.552 0.23,-0.523 0.186,-0.446L0.186,-0.549Z" style="fill-rule:nonzero;"/>
                    </g>
                    <g transform="matrix(10,0,0,10,772.37,258.615)">
                        <path d="M0.493,-0.315C0.491,-0.374 0.487,-0.398 0.477,-0.425C0.446,-0.506 0.377,-0.552 0.286,-0.552C0.145,-0.552 0.049,-0.441 0.049,-0.279C0.049,-0.126 0.147,-0.02 0.29,-0.02C0.388,-0.02 0.456,-0.063 0.501,-0.155L0.478,-0.168C0.438,-0.092 0.384,-0.055 0.313,-0.055C0.241,-0.055 0.192,-0.091 0.163,-0.165C0.147,-0.206 0.141,-0.246 0.14,-0.315L0.493,-0.315ZM0.142,-0.342C0.148,-0.394 0.154,-0.42 0.169,-0.449C0.196,-0.5 0.236,-0.527 0.284,-0.527C0.331,-0.527 0.365,-0.502 0.387,-0.453C0.4,-0.424 0.405,-0.395 0.406,-0.342L0.142,-0.342Z" style="fill-rule:nonzero;"/>
                    </g>
                    <g transform="matrix(10,0,0,10,777.72,258.615)">
                        <path d="M0.352,-0.758L0.352,-0.736C0.425,-0.735 0.426,-0.733 0.426,-0.636L0.426,-0.485C0.384,-0.532 0.342,-0.552 0.281,-0.552C0.147,-0.552 0.055,-0.439 0.055,-0.274C0.055,-0.198 0.075,-0.134 0.112,-0.088C0.148,-0.045 0.203,-0.019 0.259,-0.019C0.332,-0.019 0.388,-0.049 0.429,-0.112L0.433,-0.025L0.573,-0.033L0.573,-0.055L0.562,-0.055C0.533,-0.055 0.521,-0.06 0.515,-0.073C0.51,-0.085 0.51,-0.086 0.508,-0.18L0.508,-0.567C0.508,-0.644 0.51,-0.702 0.514,-0.766L0.352,-0.758ZM0.429,-0.286C0.429,-0.136 0.373,-0.048 0.278,-0.048C0.193,-0.048 0.148,-0.13 0.148,-0.285C0.148,-0.442 0.197,-0.527 0.287,-0.527C0.378,-0.527 0.429,-0.441 0.429,-0.286Z" style="fill-rule:nonzero;"/>
                    </g>
                    <g transform="matrix(10,0,0,10,787.12,258.615)">
                        <path d="M0.157,-0.093C0.212,-0.04 0.26,-0.019 0.325,-0.019C0.464,-0.019 0.55,-0.125 0.55,-0.295C0.55,-0.452 0.467,-0.552 0.337,-0.552C0.265,-0.552 0.214,-0.521 0.175,-0.454L0.175,-0.566C0.175,-0.618 0.177,-0.699 0.181,-0.766L0.02,-0.758L0.02,-0.736C0.089,-0.735 0.093,-0.73 0.093,-0.645L0.093,-0.21C0.093,-0.077 0.093,-0.07 0.09,-0.031L0.117,-0.031L0.157,-0.093ZM0.171,-0.276C0.171,-0.433 0.228,-0.525 0.324,-0.525C0.412,-0.525 0.457,-0.443 0.457,-0.283C0.457,-0.124 0.41,-0.042 0.318,-0.042C0.268,-0.042 0.224,-0.068 0.202,-0.111C0.181,-0.15 0.171,-0.204 0.171,-0.276Z" style="fill-rule:nonzero;"/>
                    </g>
                    <g transform="matrix(10,0,0,10,793.13,258.615)">
                        <path d="M0.291,-0.125L0.184,-0.423C0.173,-0.455 0.17,-0.465 0.17,-0.48C0.17,-0.506 0.186,-0.515 0.23,-0.516L0.23,-0.538L0.009,-0.538L0.009,-0.516C0.057,-0.512 0.067,-0.501 0.098,-0.42L0.25,-0.027L0.228,0.03C0.206,0.084 0.189,0.1 0.153,0.1C0.146,0.1 0.139,0.099 0.117,0.097C0.111,0.096 0.106,0.096 0.102,0.096C0.083,0.096 0.074,0.108 0.074,0.131C0.074,0.166 0.091,0.182 0.127,0.182C0.156,0.182 0.186,0.169 0.203,0.148C0.216,0.133 0.231,0.105 0.243,0.076L0.434,-0.405C0.466,-0.487 0.49,-0.512 0.538,-0.516L0.538,-0.538L0.345,-0.538L0.345,-0.516C0.397,-0.514 0.417,-0.501 0.417,-0.469C0.417,-0.454 0.414,-0.441 0.404,-0.416L0.291,-0.125Z" style="fill-rule:nonzero;"/>
                    </g>
                </g>
            </g>
            <g id="Logo-text" serif:id="Logo text">
                <g transform="matrix(0.488489,0,0,0.488489,145.645,-198.323)">
                    <g transform="matrix(24,0,0,24,430.752,623.672)">
                        <path d="M0.207,-0.328L0.285,-0.408L0.458,-0.15C0.483,-0.113 0.502,-0.082 0.53,-0.033L0.695,-0.033L0.695,-0.055C0.642,-0.061 0.616,-0.08 0.574,-0.139L0.346,-0.467L0.499,-0.63C0.566,-0.702 0.612,-0.73 0.668,-0.734L0.668,-0.758L0.431,-0.758L0.431,-0.734C0.475,-0.732 0.492,-0.722 0.492,-0.7C0.492,-0.682 0.476,-0.655 0.445,-0.623L0.207,-0.373L0.207,-0.631C0.207,-0.724 0.212,-0.73 0.285,-0.734L0.285,-0.758L0.041,-0.758L0.041,-0.734C0.113,-0.73 0.118,-0.724 0.118,-0.631L0.118,-0.16C0.118,-0.067 0.112,-0.06 0.041,-0.058L0.041,-0.033L0.285,-0.033L0.285,-0.058C0.213,-0.06 0.207,-0.068 0.207,-0.16L0.207,-0.328Z" style="fill-rule:nonzero;"/>
                    </g>
                    <g transform="matrix(24,0,0,24,447.576,623.672)">
                        <path d="M0.034,-0.538L0.034,-0.516C0.069,-0.516 0.085,-0.514 0.093,-0.507C0.104,-0.498 0.108,-0.475 0.108,-0.425L0.108,-0.158C0.108,-0.065 0.103,-0.057 0.034,-0.055L0.034,-0.033L0.262,-0.033L0.262,-0.055C0.195,-0.057 0.19,-0.065 0.19,-0.158L0.19,-0.362C0.19,-0.404 0.193,-0.491 0.196,-0.549L0.034,-0.538ZM0.089,-0.705C0.089,-0.673 0.114,-0.648 0.146,-0.648C0.177,-0.648 0.202,-0.673 0.202,-0.705C0.202,-0.736 0.177,-0.761 0.146,-0.761C0.114,-0.761 0.089,-0.736 0.089,-0.705Z" style="fill-rule:nonzero;"/>
                    </g>
                    <g transform="matrix(24,0,0,24,454.656,623.672)">
                        <path d="M0.186,-0.511L0.306,-0.511L0.306,-0.538L0.186,-0.538C0.186,-0.604 0.187,-0.642 0.189,-0.685L0.143,-0.672C0.128,-0.578 0.098,-0.539 0.039,-0.534L0.039,-0.511L0.102,-0.511L0.102,-0.187C0.102,-0.113 0.105,-0.091 0.116,-0.071C0.133,-0.039 0.17,-0.022 0.219,-0.022C0.255,-0.022 0.287,-0.03 0.32,-0.047L0.311,-0.073C0.289,-0.06 0.27,-0.055 0.248,-0.055C0.225,-0.055 0.209,-0.062 0.199,-0.076C0.189,-0.09 0.186,-0.116 0.186,-0.175L0.186,-0.511Z" style="fill-rule:nonzero;"/>
                    </g>
                    <g transform="matrix(24,0,0,24,462.72,623.672)">
                        <path d="M0.053,-0.031C0.073,-0.034 0.087,-0.035 0.098,-0.035C0.109,-0.035 0.121,-0.034 0.135,-0.032C0.194,-0.022 0.207,-0.02 0.235,-0.02C0.329,-0.02 0.39,-0.079 0.39,-0.171C0.39,-0.21 0.378,-0.243 0.357,-0.266C0.334,-0.291 0.309,-0.306 0.242,-0.334C0.176,-0.362 0.157,-0.372 0.138,-0.386C0.12,-0.399 0.111,-0.417 0.111,-0.44C0.111,-0.494 0.151,-0.529 0.213,-0.529C0.286,-0.529 0.33,-0.476 0.332,-0.387L0.365,-0.387L0.37,-0.545C0.35,-0.54 0.334,-0.538 0.322,-0.538C0.316,-0.538 0.309,-0.539 0.301,-0.54C0.247,-0.55 0.234,-0.552 0.208,-0.552C0.158,-0.552 0.111,-0.531 0.084,-0.495C0.067,-0.472 0.057,-0.438 0.057,-0.403C0.057,-0.335 0.09,-0.299 0.198,-0.252C0.289,-0.212 0.292,-0.211 0.31,-0.196C0.325,-0.183 0.334,-0.161 0.334,-0.138C0.334,-0.079 0.293,-0.044 0.225,-0.044C0.179,-0.044 0.142,-0.062 0.116,-0.098C0.099,-0.12 0.092,-0.144 0.088,-0.191L0.057,-0.191L0.053,-0.031Z" style="fill-rule:nonzero;"/>
                    </g>
                    <g transform="matrix(24,0,0,24,473.4,623.672)">
                        <path d="M0.565,-0.033L0.565,-0.055L0.558,-0.055C0.506,-0.055 0.497,-0.073 0.497,-0.173L0.497,-0.362C0.497,-0.407 0.499,-0.473 0.502,-0.548L0.347,-0.538L0.347,-0.516L0.365,-0.516C0.383,-0.515 0.393,-0.512 0.399,-0.506C0.411,-0.497 0.414,-0.478 0.414,-0.425L0.414,-0.271C0.414,-0.209 0.411,-0.187 0.396,-0.153C0.37,-0.092 0.321,-0.056 0.266,-0.056C0.225,-0.056 0.197,-0.075 0.185,-0.112C0.173,-0.147 0.171,-0.174 0.171,-0.275L0.171,-0.362C0.171,-0.431 0.172,-0.455 0.177,-0.548L0.022,-0.538L0.022,-0.516L0.04,-0.516C0.059,-0.515 0.068,-0.513 0.074,-0.507C0.085,-0.498 0.089,-0.477 0.089,-0.425L0.089,-0.26C0.089,-0.173 0.093,-0.132 0.103,-0.105C0.123,-0.052 0.172,-0.021 0.236,-0.021C0.31,-0.021 0.375,-0.061 0.414,-0.129C0.414,-0.08 0.416,-0.05 0.419,-0.026L0.565,-0.033Z" style="fill-rule:nonzero;"/>
                    </g>
                    <g transform="matrix(24,0,0,24,487.632,623.672)">
                        <path d="M0.186,-0.549L0.035,-0.538L0.035,-0.516C0.092,-0.516 0.104,-0.501 0.104,-0.426L0.104,-0.158C0.104,-0.065 0.098,-0.057 0.031,-0.055L0.031,-0.033L0.259,-0.033L0.259,-0.055C0.191,-0.057 0.186,-0.064 0.186,-0.158L0.186,-0.331C0.186,-0.372 0.199,-0.42 0.22,-0.453C0.248,-0.498 0.286,-0.52 0.333,-0.52C0.375,-0.52 0.405,-0.502 0.421,-0.467C0.432,-0.444 0.437,-0.409 0.437,-0.359L0.437,-0.158C0.437,-0.151 0.435,-0.114 0.434,-0.103C0.433,-0.086 0.43,-0.078 0.424,-0.07C0.416,-0.06 0.398,-0.056 0.365,-0.055L0.365,-0.033L0.592,-0.033L0.592,-0.055C0.524,-0.057 0.519,-0.064 0.519,-0.158L0.519,-0.365C0.519,-0.426 0.512,-0.461 0.493,-0.49C0.466,-0.533 0.425,-0.552 0.362,-0.552C0.279,-0.552 0.23,-0.523 0.186,-0.446L0.186,-0.549Z" style="fill-rule:nonzero;"/>
                    </g>
                    <g transform="matrix(24,0,0,24,502.416,623.672)">
                        <path d="M0.493,-0.315C0.491,-0.374 0.487,-0.398 0.477,-0.425C0.446,-0.506 0.377,-0.552 0.286,-0.552C0.145,-0.552 0.049,-0.441 0.049,-0.279C0.049,-0.126 0.147,-0.02 0.29,-0.02C0.388,-0.02 0.456,-0.063 0.501,-0.155L0.478,-0.168C0.438,-0.092 0.384,-0.055 0.313,-0.055C0.241,-0.055 0.192,-0.091 0.163,-0.165C0.147,-0.206 0.141,-0.246 0.14,-0.315L0.493,-0.315ZM0.142,-0.342C0.148,-0.394 0.154,-0.42 0.169,-0.449C0.196,-0.5 0.236,-0.527 0.284,-0.527C0.331,-0.527 0.365,-0.502 0.387,-0.453C0.4,-0.424 0.405,-0.395 0.406,-0.342L0.142,-0.342Z" style="fill-rule:nonzero;"/>
                    </g>
                    <g transform="matrix(24,0,0,24,523.248,623.672)">
                        <path d="M0.207,-0.328L0.285,-0.408L0.458,-0.15C0.483,-0.113 0.502,-0.082 0.53,-0.033L0.695,-0.033L0.695,-0.055C0.642,-0.061 0.616,-0.08 0.574,-0.139L0.346,-0.467L0.499,-0.63C0.566,-0.702 0.612,-0.73 0.668,-0.734L0.668,-0.758L0.431,-0.758L0.431,-0.734C0.475,-0.732 0.492,-0.722 0.492,-0.7C0.492,-0.682 0.476,-0.655 0.445,-0.623L0.207,-0.373L0.207,-0.631C0.207,-0.724 0.212,-0.73 0.285,-0.734L0.285,-0.758L0.041,-0.758L0.041,-0.734C0.113,-0.73 0.118,-0.724 0.118,-0.631L0.118,-0.16C0.118,-0.067 0.112,-0.06 0.041,-0.058L0.041,-0.033L0.285,-0.033L0.285,-0.058C0.213,-0.06 0.207,-0.068 0.207,-0.16L0.207,-0.328Z" style="fill-rule:nonzero;"/>
                    </g>
                    <g transform="matrix(24,0,0,24,540.072,623.672)">
                        <path d="M0.493,-0.315C0.491,-0.374 0.487,-0.398 0.477,-0.425C0.446,-0.506 0.377,-0.552 0.286,-0.552C0.145,-0.552 0.049,-0.441 0.049,-0.279C0.049,-0.126 0.147,-0.02 0.29,-0.02C0.388,-0.02 0.456,-0.063 0.501,-0.155L0.478,-0.168C0.438,-0.092 0.384,-0.055 0.313,-0.055C0.241,-0.055 0.192,-0.091 0.163,-0.165C0.147,-0.206 0.141,-0.246 0.14,-0.315L0.493,-0.315ZM0.142,-0.342C0.148,-0.394 0.154,-0.42 0.169,-0.449C0.196,-0.5 0.236,-0.527 0.284,-0.527C0.331,-0.527 0.365,-0.502 0.387,-0.453C0.4,-0.424 0.405,-0.395 0.406,-0.342L0.142,-0.342Z" style="fill-rule:nonzero;"/>
                    </g>
                    <g transform="matrix(24,0,0,24,552.912,623.672)">
                        <path d="M0.291,-0.125L0.184,-0.423C0.173,-0.455 0.17,-0.465 0.17,-0.48C0.17,-0.506 0.186,-0.515 0.23,-0.516L0.23,-0.538L0.009,-0.538L0.009,-0.516C0.057,-0.512 0.067,-0.501 0.098,-0.42L0.25,-0.027L0.228,0.03C0.206,0.084 0.189,0.1 0.153,0.1C0.146,0.1 0.139,0.099 0.117,0.097C0.111,0.096 0.106,0.096 0.102,0.096C0.083,0.096 0.074,0.108 0.074,0.131C0.074,0.166 0.091,0.182 0.127,0.182C0.156,0.182 0.186,0.169 0.203,0.148C0.216,0.133 0.231,0.105 0.243,0.076L0.434,-0.405C0.466,-0.487 0.49,-0.512 0.538,-0.516L0.538,-0.538L0.345,-0.538L0.345,-0.516C0.397,-0.514 0.417,-0.501 0.417,-0.469C0.417,-0.454 0.414,-0.441 0.404,-0.416L0.291,-0.125Z" style="fill-rule:nonzero;"/>
                    </g>
                    <g transform="matrix(24,0,0,24,566.04,623.672)">
                        <path d="M0.157,-0.093C0.212,-0.04 0.26,-0.019 0.325,-0.019C0.464,-0.019 0.55,-0.125 0.55,-0.295C0.55,-0.452 0.467,-0.552 0.337,-0.552C0.265,-0.552 0.214,-0.521 0.175,-0.454L0.175,-0.566C0.175,-0.618 0.177,-0.699 0.181,-0.766L0.02,-0.758L0.02,-0.736C0.089,-0.735 0.093,-0.73 0.093,-0.645L0.093,-0.21C0.093,-0.077 0.093,-0.07 0.09,-0.031L0.117,-0.031L0.157,-0.093ZM0.171,-0.276C0.171,-0.433 0.228,-0.525 0.324,-0.525C0.412,-0.525 0.457,-0.443 0.457,-0.283C0.457,-0.124 0.41,-0.042 0.318,-0.042C0.268,-0.042 0.224,-0.068 0.202,-0.111C0.181,-0.15 0.171,-0.204 0.171,-0.276Z" style="fill-rule:nonzero;"/>
                    </g>
                    <g transform="matrix(24,0,0,24,580.464,623.672)">
                        <path d="M0.047,-0.278C0.047,-0.123 0.143,-0.02 0.288,-0.02C0.44,-0.02 0.536,-0.125 0.536,-0.292C0.536,-0.449 0.44,-0.552 0.294,-0.552C0.225,-0.552 0.162,-0.528 0.12,-0.485C0.074,-0.438 0.047,-0.361 0.047,-0.278ZM0.14,-0.291C0.14,-0.444 0.193,-0.529 0.289,-0.529C0.387,-0.529 0.443,-0.439 0.443,-0.283C0.443,-0.129 0.389,-0.044 0.291,-0.044C0.195,-0.044 0.14,-0.134 0.14,-0.291Z" style="fill-rule:nonzero;"/>
                    </g>
                    <g transform="matrix(24,0,0,24,594.456,623.672)">
                        <path d="M0.513,-0.056C0.475,-0.056 0.463,-0.059 0.457,-0.067C0.451,-0.075 0.446,-0.111 0.446,-0.153L0.447,-0.199L0.448,-0.294C0.45,-0.392 0.45,-0.392 0.45,-0.395C0.45,-0.45 0.441,-0.483 0.421,-0.508C0.397,-0.537 0.351,-0.552 0.287,-0.552C0.228,-0.552 0.179,-0.541 0.141,-0.52C0.099,-0.496 0.073,-0.46 0.073,-0.424C0.073,-0.403 0.088,-0.394 0.122,-0.394C0.137,-0.394 0.15,-0.397 0.157,-0.402C0.165,-0.408 0.167,-0.415 0.168,-0.436C0.172,-0.498 0.206,-0.528 0.272,-0.528C0.313,-0.528 0.341,-0.515 0.354,-0.489C0.364,-0.468 0.368,-0.444 0.368,-0.398L0.368,-0.335C0.295,-0.33 0.242,-0.323 0.19,-0.311C0.093,-0.289 0.043,-0.238 0.043,-0.159C0.043,-0.117 0.06,-0.077 0.087,-0.053C0.112,-0.032 0.145,-0.022 0.189,-0.022C0.24,-0.022 0.275,-0.033 0.319,-0.065C0.339,-0.079 0.352,-0.09 0.368,-0.108C0.372,-0.041 0.38,-0.025 0.41,-0.025C0.43,-0.025 0.474,-0.029 0.513,-0.035L0.513,-0.056ZM0.368,-0.265C0.368,-0.199 0.361,-0.157 0.345,-0.129C0.32,-0.086 0.268,-0.056 0.217,-0.056C0.167,-0.056 0.133,-0.099 0.133,-0.162C0.133,-0.215 0.156,-0.255 0.2,-0.276C0.24,-0.296 0.279,-0.304 0.368,-0.312L0.368,-0.265Z" style="fill-rule:nonzero;"/>
                    </g>
                    <g transform="matrix(24,0,0,24,607.536,623.672)">
                        <path d="M0.037,-0.538L0.037,-0.516C0.094,-0.516 0.106,-0.501 0.106,-0.426L0.106,-0.158C0.106,-0.065 0.1,-0.057 0.033,-0.055L0.033,-0.033L0.262,-0.033L0.262,-0.055C0.195,-0.057 0.19,-0.064 0.19,-0.158L0.19,-0.315C0.19,-0.368 0.199,-0.409 0.217,-0.442C0.238,-0.48 0.266,-0.502 0.292,-0.502C0.308,-0.502 0.314,-0.496 0.32,-0.474C0.326,-0.455 0.335,-0.449 0.357,-0.449C0.389,-0.449 0.41,-0.465 0.41,-0.49C0.41,-0.525 0.377,-0.552 0.334,-0.552C0.275,-0.552 0.221,-0.509 0.188,-0.433L0.188,-0.465C0.188,-0.486 0.187,-0.499 0.185,-0.549L0.037,-0.538Z" style="fill-rule:nonzero;"/>
                    </g>
                    <g transform="matrix(24,0,0,24,617.4,623.672)">
                        <path d="M0.352,-0.758L0.352,-0.736C0.425,-0.735 0.426,-0.733 0.426,-0.636L0.426,-0.485C0.384,-0.532 0.342,-0.552 0.281,-0.552C0.147,-0.552 0.055,-0.439 0.055,-0.274C0.055,-0.198 0.075,-0.134 0.112,-0.088C0.148,-0.045 0.203,-0.019 0.259,-0.019C0.332,-0.019 0.388,-0.049 0.429,-0.112L0.433,-0.025L0.573,-0.033L0.573,-0.055L0.562,-0.055C0.533,-0.055 0.521,-0.06 0.515,-0.073C0.51,-0.085 0.51,-0.086 0.508,-0.18L0.508,-0.567C0.508,-0.644 0.51,-0.702 0.514,-0.766L0.352,-0.758ZM0.429,-0.286C0.429,-0.136 0.373,-0.048 0.278,-0.048C0.193,-0.048 0.148,-0.13 0.148,-0.285C0.148,-0.442 0.197,-0.527 0.287,-0.527C0.378,-0.527 0.429,-0.441 0.429,-0.286Z" style="fill-rule:nonzero;"/>
                    </g>
                    <g transform="matrix(24,0,0,24,631.968,623.672)">
                        <path d="M0.053,-0.031C0.073,-0.034 0.087,-0.035 0.098,-0.035C0.109,-0.035 0.121,-0.034 0.135,-0.032C0.194,-0.022 0.207,-0.02 0.235,-0.02C0.329,-0.02 0.39,-0.079 0.39,-0.171C0.39,-0.21 0.378,-0.243 0.357,-0.266C0.334,-0.291 0.309,-0.306 0.242,-0.334C0.176,-0.362 0.157,-0.372 0.138,-0.386C0.12,-0.399 0.111,-0.417 0.111,-0.44C0.111,-0.494 0.151,-0.529 0.213,-0.529C0.286,-0.529 0.33,-0.476 0.332,-0.387L0.365,-0.387L0.37,-0.545C0.35,-0.54 0.334,-0.538 0.322,-0.538C0.316,-0.538 0.309,-0.539 0.301,-0.54C0.247,-0.55 0.234,-0.552 0.208,-0.552C0.158,-0.552 0.111,-0.531 0.084,-0.495C0.067,-0.472 0.057,-0.438 0.057,-0.403C0.057,-0.335 0.09,-0.299 0.198,-0.252C0.289,-0.212 0.292,-0.211 0.31,-0.196C0.325,-0.183 0.334,-0.161 0.334,-0.138C0.334,-0.079 0.293,-0.044 0.225,-0.044C0.179,-0.044 0.142,-0.062 0.116,-0.098C0.099,-0.12 0.092,-0.144 0.088,-0.191L0.057,-0.191L0.053,-0.031Z" style="fill-rule:nonzero;"/>
                    </g>
                </g>
                <g transform="matrix(0.488489,0,0,0.488489,147.334,-137.185)">
                    <g transform="matrix(24,0,0,24,430.752,623.672)">
                        <path d="M0.058,-0.031C0.093,-0.038 0.111,-0.041 0.127,-0.041C0.137,-0.041 0.148,-0.04 0.16,-0.038C0.23,-0.024 0.255,-0.021 0.294,-0.021C0.36,-0.021 0.415,-0.039 0.457,-0.076C0.495,-0.108 0.514,-0.153 0.514,-0.212C0.514,-0.258 0.506,-0.291 0.486,-0.322C0.458,-0.366 0.411,-0.399 0.286,-0.458C0.167,-0.514 0.135,-0.547 0.135,-0.613C0.135,-0.646 0.146,-0.677 0.164,-0.7C0.188,-0.728 0.222,-0.742 0.27,-0.742C0.335,-0.742 0.386,-0.717 0.414,-0.671C0.43,-0.644 0.438,-0.615 0.442,-0.566L0.475,-0.566L0.481,-0.763C0.454,-0.753 0.436,-0.748 0.421,-0.748C0.411,-0.748 0.399,-0.75 0.384,-0.753C0.321,-0.768 0.304,-0.77 0.266,-0.77C0.206,-0.77 0.161,-0.755 0.123,-0.722C0.082,-0.686 0.06,-0.636 0.06,-0.577C0.06,-0.529 0.075,-0.49 0.104,-0.459C0.132,-0.429 0.163,-0.41 0.248,-0.369C0.397,-0.297 0.434,-0.259 0.434,-0.18C0.434,-0.098 0.38,-0.05 0.289,-0.05C0.223,-0.05 0.171,-0.07 0.139,-0.107C0.112,-0.139 0.102,-0.171 0.098,-0.233L0.065,-0.233L0.058,-0.031Z" style="fill-rule:nonzero;"/>
                    </g>
                    <g transform="matrix(24,0,0,24,444.264,623.672)">
                        <path d="M0.18,-0.566C0.18,-0.653 0.181,-0.69 0.185,-0.766L0.025,-0.758L0.025,-0.736C0.094,-0.735 0.098,-0.73 0.098,-0.645L0.098,-0.158C0.098,-0.064 0.093,-0.057 0.025,-0.055L0.025,-0.033L0.252,-0.033L0.252,-0.055C0.185,-0.057 0.18,-0.064 0.18,-0.158L0.18,-0.319C0.18,-0.352 0.183,-0.372 0.19,-0.394C0.2,-0.425 0.217,-0.455 0.237,-0.476C0.261,-0.501 0.296,-0.515 0.336,-0.515C0.379,-0.515 0.408,-0.499 0.424,-0.467C0.435,-0.447 0.44,-0.41 0.44,-0.359L0.44,-0.158C0.44,-0.064 0.435,-0.057 0.367,-0.055L0.367,-0.033L0.594,-0.033L0.594,-0.055C0.527,-0.057 0.522,-0.065 0.522,-0.158L0.522,-0.358C0.522,-0.413 0.516,-0.455 0.504,-0.48C0.48,-0.527 0.431,-0.552 0.358,-0.552C0.276,-0.552 0.227,-0.522 0.18,-0.445L0.18,-0.566Z" style="fill-rule:nonzero;"/>
                    </g>
                    <g transform="matrix(24,0,0,24,459.12,623.672)">
                        <path d="M0.513,-0.056C0.475,-0.056 0.463,-0.059 0.457,-0.067C0.451,-0.075 0.446,-0.111 0.446,-0.153L0.447,-0.199L0.448,-0.294C0.45,-0.392 0.45,-0.392 0.45,-0.395C0.45,-0.45 0.441,-0.483 0.421,-0.508C0.397,-0.537 0.351,-0.552 0.287,-0.552C0.228,-0.552 0.179,-0.541 0.141,-0.52C0.099,-0.496 0.073,-0.46 0.073,-0.424C0.073,-0.403 0.088,-0.394 0.122,-0.394C0.137,-0.394 0.15,-0.397 0.157,-0.402C0.165,-0.408 0.167,-0.415 0.168,-0.436C0.172,-0.498 0.206,-0.528 0.272,-0.528C0.313,-0.528 0.341,-0.515 0.354,-0.489C0.364,-0.468 0.368,-0.444 0.368,-0.398L0.368,-0.335C0.295,-0.33 0.242,-0.323 0.19,-0.311C0.093,-0.289 0.043,-0.238 0.043,-0.159C0.043,-0.117 0.06,-0.077 0.087,-0.053C0.112,-0.032 0.145,-0.022 0.189,-0.022C0.24,-0.022 0.275,-0.033 0.319,-0.065C0.339,-0.079 0.352,-0.09 0.368,-0.108C0.372,-0.041 0.38,-0.025 0.41,-0.025C0.43,-0.025 0.474,-0.029 0.513,-0.035L0.513,-0.056ZM0.368,-0.265C0.368,-0.199 0.361,-0.157 0.345,-0.129C0.32,-0.086 0.268,-0.056 0.217,-0.056C0.167,-0.056 0.133,-0.099 0.133,-0.162C0.133,-0.215 0.156,-0.255 0.2,-0.276C0.24,-0.296 0.279,-0.304 0.368,-0.312L0.368,-0.265Z" style="fill-rule:nonzero;"/>
                    </g>
                    <g transform="matrix(24,0,0,24,472.2,623.672)">
                        <path d="M0.174,-0.549L0.024,-0.538L0.024,-0.516C0.081,-0.516 0.093,-0.501 0.093,-0.426L0.093,0.057C0.093,0.15 0.088,0.157 0.02,0.159L0.02,0.182L0.251,0.182L0.251,0.159C0.179,0.156 0.174,0.15 0.174,0.057L0.174,-0.089C0.229,-0.039 0.263,-0.024 0.322,-0.024C0.39,-0.024 0.451,-0.052 0.487,-0.101C0.523,-0.151 0.543,-0.222 0.543,-0.3C0.543,-0.457 0.466,-0.552 0.338,-0.552C0.268,-0.552 0.212,-0.522 0.174,-0.463L0.174,-0.549ZM0.17,-0.284C0.17,-0.359 0.183,-0.416 0.209,-0.459C0.233,-0.499 0.277,-0.524 0.323,-0.524C0.408,-0.524 0.45,-0.447 0.45,-0.289C0.45,-0.131 0.405,-0.051 0.314,-0.051C0.219,-0.051 0.17,-0.129 0.17,-0.284Z" style="fill-rule:nonzero;"/>
                    </g>
                    <g transform="matrix(24,0,0,24,486.528,623.672)">
                        <path d="M0.493,-0.315C0.491,-0.374 0.487,-0.398 0.477,-0.425C0.446,-0.506 0.377,-0.552 0.286,-0.552C0.145,-0.552 0.049,-0.441 0.049,-0.279C0.049,-0.126 0.147,-0.02 0.29,-0.02C0.388,-0.02 0.456,-0.063 0.501,-0.155L0.478,-0.168C0.438,-0.092 0.384,-0.055 0.313,-0.055C0.241,-0.055 0.192,-0.091 0.163,-0.165C0.147,-0.206 0.141,-0.246 0.14,-0.315L0.493,-0.315ZM0.142,-0.342C0.148,-0.394 0.154,-0.42 0.169,-0.449C0.196,-0.5 0.236,-0.527 0.284,-0.527C0.331,-0.527 0.365,-0.502 0.387,-0.453C0.4,-0.424 0.405,-0.395 0.406,-0.342L0.142,-0.342Z" style="fill-rule:nonzero;"/>
                    </g>
                    <g transform="matrix(24,0,0,24,499.368,623.672)">
                        <path d="M0.053,-0.031C0.073,-0.034 0.087,-0.035 0.098,-0.035C0.109,-0.035 0.121,-0.034 0.135,-0.032C0.194,-0.022 0.207,-0.02 0.235,-0.02C0.329,-0.02 0.39,-0.079 0.39,-0.171C0.39,-0.21 0.378,-0.243 0.357,-0.266C0.334,-0.291 0.309,-0.306 0.242,-0.334C0.176,-0.362 0.157,-0.372 0.138,-0.386C0.12,-0.399 0.111,-0.417 0.111,-0.44C0.111,-0.494 0.151,-0.529 0.213,-0.529C0.286,-0.529 0.33,-0.476 0.332,-0.387L0.365,-0.387L0.37,-0.545C0.35,-0.54 0.334,-0.538 0.322,-0.538C0.316,-0.538 0.309,-0.539 0.301,-0.54C0.247,-0.55 0.234,-0.552 0.208,-0.552C0.158,-0.552 0.111,-0.531 0.084,-0.495C0.067,-0.472 0.057,-0.438 0.057,-0.403C0.057,-0.335 0.09,-0.299 0.198,-0.252C0.289,-0.212 0.292,-0.211 0.31,-0.196C0.325,-0.183 0.334,-0.161 0.334,-0.138C0.334,-0.079 0.293,-0.044 0.225,-0.044C0.179,-0.044 0.142,-0.062 0.116,-0.098C0.099,-0.12 0.092,-0.144 0.088,-0.191L0.057,-0.191L0.053,-0.031Z" style="fill-rule:nonzero;"/>
                    </g>
                    <g transform="matrix(24,0,0,24,510.048,623.672)">
                        <path d="M0.18,-0.566C0.18,-0.653 0.181,-0.69 0.185,-0.766L0.025,-0.758L0.025,-0.736C0.094,-0.735 0.098,-0.73 0.098,-0.645L0.098,-0.158C0.098,-0.064 0.093,-0.057 0.025,-0.055L0.025,-0.033L0.252,-0.033L0.252,-0.055C0.185,-0.057 0.18,-0.064 0.18,-0.158L0.18,-0.319C0.18,-0.352 0.183,-0.372 0.19,-0.394C0.2,-0.425 0.217,-0.455 0.237,-0.476C0.261,-0.501 0.296,-0.515 0.336,-0.515C0.379,-0.515 0.408,-0.499 0.424,-0.467C0.435,-0.447 0.44,-0.41 0.44,-0.359L0.44,-0.158C0.44,-0.064 0.435,-0.057 0.367,-0.055L0.367,-0.033L0.594,-0.033L0.594,-0.055C0.527,-0.057 0.522,-0.065 0.522,-0.158L0.522,-0.358C0.522,-0.413 0.516,-0.455 0.504,-0.48C0.48,-0.527 0.431,-0.552 0.358,-0.552C0.276,-0.552 0.227,-0.522 0.18,-0.445L0.18,-0.566Z" style="fill-rule:nonzero;"/>
                    </g>
                    <g transform="matrix(24,0,0,24,524.904,623.672)">
                        <path d="M0.034,-0.538L0.034,-0.516C0.069,-0.516 0.085,-0.514 0.093,-0.507C0.104,-0.498 0.108,-0.475 0.108,-0.425L0.108,-0.158C0.108,-0.065 0.103,-0.057 0.034,-0.055L0.034,-0.033L0.262,-0.033L0.262,-0.055C0.195,-0.057 0.19,-0.065 0.19,-0.158L0.19,-0.362C0.19,-0.404 0.193,-0.491 0.196,-0.549L0.034,-0.538ZM0.089,-0.705C0.089,-0.673 0.114,-0.648 0.146,-0.648C0.177,-0.648 0.202,-0.673 0.202,-0.705C0.202,-0.736 0.177,-0.761 0.146,-0.761C0.114,-0.761 0.089,-0.736 0.089,-0.705Z" style="fill-rule:nonzero;"/>
                    </g>
                    <g transform="matrix(24,0,0,24,531.984,623.672)">
                        <path d="M0.189,-0.511L0.322,-0.511L0.322,-0.538L0.189,-0.538C0.189,-0.554 0.188,-0.567 0.188,-0.577C0.187,-0.625 0.187,-0.635 0.187,-0.65C0.187,-0.715 0.207,-0.747 0.246,-0.747C0.275,-0.747 0.288,-0.735 0.293,-0.704C0.298,-0.677 0.298,-0.677 0.304,-0.671C0.31,-0.666 0.322,-0.662 0.337,-0.662C0.367,-0.662 0.386,-0.674 0.386,-0.694C0.386,-0.736 0.331,-0.768 0.26,-0.768C0.213,-0.768 0.169,-0.753 0.142,-0.728C0.115,-0.703 0.105,-0.676 0.105,-0.631C0.105,-0.613 0.106,-0.577 0.107,-0.538L0.03,-0.538L0.03,-0.511L0.107,-0.511L0.107,-0.158C0.107,-0.065 0.102,-0.057 0.035,-0.055L0.035,-0.033L0.268,-0.033L0.268,-0.055C0.195,-0.057 0.189,-0.065 0.189,-0.158L0.189,-0.511Z" style="fill-rule:nonzero;"/>
                    </g>
                    <g transform="matrix(24,0,0,24,539.856,623.672)">
                        <path d="M0.186,-0.511L0.306,-0.511L0.306,-0.538L0.186,-0.538C0.186,-0.604 0.187,-0.642 0.189,-0.685L0.143,-0.672C0.128,-0.578 0.098,-0.539 0.039,-0.534L0.039,-0.511L0.102,-0.511L0.102,-0.187C0.102,-0.113 0.105,-0.091 0.116,-0.071C0.133,-0.039 0.17,-0.022 0.219,-0.022C0.255,-0.022 0.287,-0.03 0.32,-0.047L0.311,-0.073C0.289,-0.06 0.27,-0.055 0.248,-0.055C0.225,-0.055 0.209,-0.062 0.199,-0.076C0.189,-0.09 0.186,-0.116 0.186,-0.175L0.186,-0.511Z" style="fill-rule:nonzero;"/>
                    </g>
                    <g transform="matrix(24,0,0,24,547.92,623.672)">
                        <path d="M0.493,-0.315C0.491,-0.374 0.487,-0.398 0.477,-0.425C0.446,-0.506 0.377,-0.552 0.286,-0.552C0.145,-0.552 0.049,-0.441 0.049,-0.279C0.049,-0.126 0.147,-0.02 0.29,-0.02C0.388,-0.02 0.456,-0.063 0.501,-0.155L0.478,-0.168C0.438,-0.092 0.384,-0.055 0.313,-0.055C0.241,-0.055 0.192,-0.091 0.163,-0.165C0.147,-0.206 0.141,-0.246 0.14,-0.315L0.493,-0.315ZM0.142,-0.342C0.148,-0.394 0.154,-0.42 0.169,-0.449C0.196,-0.5 0.236,-0.527 0.284,-0.527C0.331,-0.527 0.365,-0.502 0.387,-0.453C0.4,-0.424 0.405,-0.395 0.406,-0.342L0.142,-0.342Z" style="fill-rule:nonzero;"/>
                    </g>
                    <g transform="matrix(24,0,0,24,560.76,623.672)">
                        <path d="M0.037,-0.538L0.037,-0.516C0.094,-0.516 0.106,-0.501 0.106,-0.426L0.106,-0.158C0.106,-0.065 0.1,-0.057 0.033,-0.055L0.033,-0.033L0.262,-0.033L0.262,-0.055C0.195,-0.057 0.19,-0.064 0.19,-0.158L0.19,-0.315C0.19,-0.368 0.199,-0.409 0.217,-0.442C0.238,-0.48 0.266,-0.502 0.292,-0.502C0.308,-0.502 0.314,-0.496 0.32,-0.474C0.326,-0.455 0.335,-0.449 0.357,-0.449C0.389,-0.449 0.41,-0.465 0.41,-0.49C0.41,-0.525 0.377,-0.552 0.334,-0.552C0.275,-0.552 0.221,-0.509 0.188,-0.433L0.188,-0.465C0.188,-0.486 0.187,-0.499 0.185,-0.549L0.037,-0.538Z" style="fill-rule:nonzero;"/>
                    </g>
                    <g transform="matrix(24,0,0,24,578.616,623.672)">
                        <path d="M0.449,-0.228L0.553,-0.228L0.553,-0.272L0.449,-0.272L0.449,-0.758L0.386,-0.758L0.025,-0.275L0.025,-0.228L0.364,-0.228L0.364,-0.156C0.364,-0.108 0.359,-0.084 0.346,-0.074C0.335,-0.066 0.327,-0.064 0.283,-0.063L0.283,-0.033L0.523,-0.033L0.523,-0.063C0.484,-0.064 0.476,-0.066 0.467,-0.074C0.454,-0.084 0.449,-0.108 0.449,-0.156L0.449,-0.228ZM0.364,-0.272L0.071,-0.272L0.364,-0.667L0.364,-0.272Z" style="fill-rule:nonzero;"/>
                    </g>
                    <g transform="matrix(24,0,0,24,592.728,623.672)">
                        <path d="M0.043,-0.388C0.043,-0.29 0.063,-0.198 0.1,-0.129C0.137,-0.06 0.209,-0.018 0.294,-0.018C0.378,-0.018 0.45,-0.059 0.487,-0.129C0.524,-0.198 0.544,-0.289 0.544,-0.388C0.544,-0.487 0.524,-0.579 0.487,-0.647C0.45,-0.717 0.378,-0.758 0.294,-0.758C0.209,-0.758 0.137,-0.717 0.1,-0.647C0.063,-0.577 0.043,-0.487 0.043,-0.388ZM0.14,-0.387C0.14,-0.626 0.187,-0.732 0.294,-0.732C0.401,-0.732 0.448,-0.627 0.448,-0.388C0.448,-0.149 0.401,-0.044 0.294,-0.044C0.187,-0.044 0.14,-0.149 0.14,-0.387Z" style="fill-rule:nonzero;"/>
                    </g>
                    <g transform="matrix(24,0,0,24,606.84,623.672)">
                        <path d="M0.148,-0.405C0.148,-0.474 0.157,-0.545 0.171,-0.596C0.198,-0.686 0.247,-0.733 0.317,-0.733C0.373,-0.733 0.402,-0.703 0.409,-0.638C0.412,-0.61 0.422,-0.601 0.453,-0.601C0.49,-0.601 0.511,-0.616 0.511,-0.642C0.511,-0.704 0.42,-0.758 0.317,-0.758C0.244,-0.758 0.186,-0.733 0.142,-0.682C0.086,-0.617 0.054,-0.497 0.054,-0.352C0.054,-0.134 0.139,-0.017 0.298,-0.017C0.441,-0.017 0.539,-0.117 0.539,-0.261C0.539,-0.324 0.517,-0.384 0.481,-0.422C0.444,-0.461 0.383,-0.484 0.319,-0.484C0.25,-0.484 0.2,-0.461 0.148,-0.405ZM0.147,-0.279C0.147,-0.339 0.162,-0.378 0.198,-0.413C0.226,-0.441 0.266,-0.457 0.304,-0.457C0.39,-0.457 0.444,-0.381 0.444,-0.259C0.444,-0.2 0.433,-0.148 0.412,-0.108C0.39,-0.068 0.346,-0.042 0.3,-0.042C0.251,-0.042 0.21,-0.069 0.185,-0.116C0.16,-0.163 0.147,-0.218 0.147,-0.279Z" style="fill-rule:nonzero;"/>
                    </g>
                    <g transform="matrix(24,0,0,24,620.952,623.672)">
                        <path d="M0.043,-0.388C0.043,-0.29 0.063,-0.198 0.1,-0.129C0.137,-0.06 0.209,-0.018 0.294,-0.018C0.378,-0.018 0.45,-0.059 0.487,-0.129C0.524,-0.198 0.544,-0.289 0.544,-0.388C0.544,-0.487 0.524,-0.579 0.487,-0.647C0.45,-0.717 0.378,-0.758 0.294,-0.758C0.209,-0.758 0.137,-0.717 0.1,-0.647C0.063,-0.577 0.043,-0.487 0.043,-0.388ZM0.14,-0.387C0.14,-0.626 0.187,-0.732 0.294,-0.732C0.401,-0.732 0.448,-0.627 0.448,-0.388C0.448,-0.149 0.401,-0.044 0.294,-0.044C0.187,-0.044 0.14,-0.149 0.14,-0.387Z" style="fill-rule:nonzero;"/>
                    </g>
                </g>
            </g>
        </g>
        <g id="Cuts">
            <g id="Plate-outline" serif:id="Plate outline">
                <path d="M9.576,273.967L806.111,273.967" style="fill:none;fill-rule:nonzero;stroke:black;stroke-width:0.03px;"/>
                <path d="M9.58,5.812C6.47,5.812 3.91,8.371 3.91,11.481" style="fill:rgb(194,194,0);fill-opacity:0;fill-rule:nonzero;stroke:black;stroke-width:0.03px;"/>
                <path d="M3.91,268.3C3.91,271.41 6.47,273.969 9.58,273.969" style="fill:rgb(194,194,0);fill-opacity:0;fill-rule:nonzero;stroke:black;stroke-width:0.03px;"/>
                <path d="M806.111,273.969C806.112,273.969 806.114,273.969 806.115,273.969C809.225,273.969 811.784,271.41 811.784,268.3" style="fill:rgb(194,194,0);fill-opacity:0;fill-rule:nonzero;stroke:black;stroke-width:0.03px;"/>
                <path d="M811.784,11.481C811.784,11.481 811.784,11.481 811.784,11.481C811.784,8.371 809.225,5.812 806.115,5.812C806.114,5.812 806.112,5.812 806.111,5.812" style="fill:rgb(194,194,0);fill-opacity:0;fill-rule:nonzero;stroke:black;stroke-width:0.03px;"/>
                <path d="M3.91,268.294L3.91,11.477" style="fill:none;stroke:black;stroke-width:0.03px;"/>
                <path d="M811.777,268.294L811.777,11.477" style="fill:none;stroke:black;stroke-width:0.03px;"/>
                <path d="M806.111,5.811L9.576,5.811" style="fill:none;stroke:black;stroke-width:0.03px;"/>
            </g>
            <g transform="matrix(-1,1.94289e-16,2.498e-16,1,448.941,10.5849)">
                <g id="Artisan-hole" serif:id="Artisan hole">
                    <path d="M21.522,41.107L19.212,41.107L19.212,51.028L21.522,51.028L21.522,65.23L19.212,65.23L19.212,75.151L21.522,75.151L21.522,77.929L61.122,77.929L61.122,75.151L63.432,75.151L63.432,65.23L61.122,65.23L61.122,51.028L63.432,51.028L63.432,41.107L61.122,41.107L61.122,38.329L21.522,38.329L21.522,41.107ZM61.094,38.357L61.094,41.135L63.404,41.135L63.404,51L61.094,51L61.094,65.258L63.404,65.258L63.404,75.123L61.094,75.123L61.094,77.901L21.551,77.901L21.551,75.123L19.24,75.123L19.24,65.258L21.551,65.258L21.551,51L19.24,51L19.24,41.135L21.551,41.135L21.551,38.357L61.094,38.357Z"/>
                </g>
            </g>
            <g id="Key-holes" serif:id="Key holes">
                <g id="Switch-holes" serif:id="Switch holes">
                    <g transform="matrix(0.984808,0.173648,-0.173648,0.984808,23.6022,-28.6342)">
                        <path d="M61.122,38.329L61.122,41.107L63.432,41.107L63.432,51.028L61.122,51.028L61.122,65.23L63.432,65.23L63.432,75.151L61.122,75.151L61.122,77.929L21.522,77.929L21.522,75.151L19.212,75.151L19.212,65.23L21.522,65.23L21.522,51.028L19.212,51.028L19.212,41.107L21.522,41.107L21.522,38.329L61.122,38.329ZM21.551,41.135L19.24,41.135L19.24,51L21.551,51L21.551,65.258L19.24,65.258L19.24,75.123L21.551,75.123L21.551,77.901L61.094,77.901L61.094,75.123L63.404,75.123L63.404,65.258L61.094,65.258L61.094,51L63.404,51L63.404,41.135L61.094,41.135L61.094,38.357L21.551,38.357L21.551,41.135Z"/>
                    </g>
                    <g transform="matrix(0.984808,0.173648,-0.173648,0.984808,14.2269,24.536)">
                        <path d="M61.122,38.329L61.122,41.107L63.432,41.107L63.432,51.028L61.122,51.028L61.122,65.23L63.432,65.23L63.432,75.151L61.122,75.151L61.122,77.929L21.522,77.929L21.522,75.151L19.212,75.151L19.212,65.23L21.522,65.23L21.522,51.028L19.212,51.028L19.212,41.107L21.522,41.107L21.522,38.329L61.122,38.329ZM21.551,41.135L19.24,41.135L19.24,51L21.551,51L21.551,65.258L19.24,65.258L19.24,75.123L21.551,75.123L21.551,77.901L61.094,77.901L61.094,75.123L63.404,75.123L63.404,65.258L61.094,65.258L61.094,51L63.404,51L63.404,41.135L61.094,41.135L61.094,38.357L21.551,38.357L21.551,41.135Z"/>
                    </g>
                    <g transform="matrix(0.984808,0.173648,-0.173648,0.984808,4.85153,77.7062)">
                        <path d="M61.122,38.329L61.122,41.107L63.432,41.107L63.432,51.028L61.122,51.028L61.122,65.23L63.432,65.23L63.432,75.151L61.122,75.151L61.122,77.929L21.522,77.929L21.522,75.151L19.212,75.151L19.212,65.23L21.522,65.23L21.522,51.028L19.212,51.028L19.212,41.107L21.522,41.107L21.522,38.329L61.122,38.329ZM21.551,41.135L19.24,41.135L19.24,51L21.551,51L21.551,65.258L19.24,65.258L19.24,75.123L21.551,75.123L21.551,77.901L61.094,77.901L61.094,75.123L63.404,75.123L63.404,65.258L61.094,65.258L61.094,51L63.404,51L63.404,41.135L61.094,41.135L61.094,38.357L21.551,38.357L21.551,41.135Z"/>
                    </g>
                    <g transform="matrix(0.984808,0.173648,-0.173648,0.984808,78.332,-28.1251)">
                        <path d="M61.122,38.329L61.122,41.107L63.432,41.107L63.432,51.028L61.122,51.028L61.122,65.23L63.432,65.23L63.432,75.151L61.122,75.151L61.122,77.929L21.522,77.929L21.522,75.151L19.212,75.151L19.212,65.23L21.522,65.23L21.522,51.028L19.212,51.028L19.212,41.107L21.522,41.107L21.522,38.329L61.122,38.329ZM21.551,41.135L19.24,41.135L19.24,51L21.551,51L21.551,65.258L19.24,65.258L19.24,75.123L21.551,75.123L21.551,77.901L61.094,77.901L61.094,75.123L63.404,75.123L63.404,65.258L61.094,65.258L61.094,51L63.404,51L63.404,41.135L61.094,41.135L61.094,38.357L21.551,38.357L21.551,41.135Z"/>
                    </g>
                    <g transform="matrix(0.984808,0.173648,-0.173648,0.984808,68.9567,25.0451)">
                        <path d="M61.122,38.329L61.122,41.107L63.432,41.107L63.432,51.028L61.122,51.028L61.122,65.23L63.432,65.23L63.432,75.151L61.122,75.151L61.122,77.929L21.522,77.929L21.522,75.151L19.212,75.151L19.212,65.23L21.522,65.23L21.522,51.028L19.212,51.028L19.212,41.107L21.522,41.107L21.522,38.329L61.122,38.329ZM21.551,41.135L19.24,41.135L19.24,51L21.551,51L21.551,65.258L19.24,65.258L19.24,75.123L21.551,75.123L21.551,77.901L61.094,77.901L61.094,75.123L63.404,75.123L63.404,65.258L61.094,65.258L61.094,51L63.404,51L63.404,41.135L61.094,41.135L61.094,38.357L21.551,38.357L21.551,41.135Z"/>
                    </g>
                    <g transform="matrix(0.984808,0.173648,-0.173648,0.984808,59.5813,78.2153)">
                        <path d="M61.122,38.329L61.122,41.107L63.432,41.107L63.432,51.028L61.122,51.028L61.122,65.23L63.432,65.23L63.432,75.151L61.122,75.151L61.122,77.929L21.522,77.929L21.522,75.151L19.212,75.151L19.212,65.23L21.522,65.23L21.522,51.028L19.212,51.028L19.212,41.107L21.522,41.107L21.522,38.329L61.122,38.329ZM21.551,41.135L19.24,41.135L19.24,51L21.551,51L21.551,65.258L19.24,65.258L19.24,75.123L21.551,75.123L21.551,77.901L61.094,77.901L61.094,75.123L63.404,75.123L63.404,65.258L61.094,65.258L61.094,51L63.404,51L63.404,41.135L61.094,41.135L61.094,38.357L21.551,38.357L21.551,41.135Z"/>
                    </g>
                    <g transform="matrix(0.984808,0.173648,-0.173648,0.984808,50.206,131.385)">
                        <path d="M61.122,38.329L61.122,41.107L63.432,41.107L63.432,51.028L61.122,51.028L61.122,65.23L63.432,65.23L63.432,75.151L61.122,75.151L61.122,77.929L21.522,77.929L21.522,75.151L19.212,75.151L19.212,65.23L21.522,65.23L21.522,51.028L19.212,51.028L19.212,41.107L21.522,41.107L21.522,38.329L61.122,38.329ZM21.551,41.135L19.24,41.135L19.24,51L21.551,51L21.551,65.258L19.24,65.258L19.24,75.123L21.551,75.123L21.551,77.901L61.094,77.901L61.094,75.123L63.404,75.123L63.404,65.258L61.094,65.258L61.094,51L63.404,51L63.404,41.135L61.094,41.135L61.094,38.357L21.551,38.357L21.551,41.135Z"/>
                    </g>
                    <g transform="matrix(0.984808,0.173648,-0.173648,0.984808,133.061,-27.6113)">
                        <path d="M61.122,38.329L61.122,41.107L63.432,41.107L63.432,51.028L61.122,51.028L61.122,65.23L63.432,65.23L63.432,75.151L61.122,75.151L61.122,77.929L21.522,77.929L21.522,75.151L19.212,75.151L19.212,65.23L21.522,65.23L21.522,51.028L19.212,51.028L19.212,41.107L21.522,41.107L21.522,38.329L61.122,38.329ZM21.551,41.135L19.24,41.135L19.24,51L21.551,51L21.551,65.258L19.24,65.258L19.24,75.123L21.551,75.123L21.551,77.901L61.094,77.901L61.094,75.123L63.404,75.123L63.404,65.258L61.094,65.258L61.094,51L63.404,51L63.404,41.135L61.094,41.135L61.094,38.357L21.551,38.357L21.551,41.135Z"/>
                    </g>
                    <g transform="matrix(0.984808,0.173648,-0.173648,0.984808,123.686,25.5589)">
                        <path d="M61.122,38.329L61.122,41.107L63.432,41.107L63.432,51.028L61.122,51.028L61.122,65.23L63.432,65.23L63.432,75.151L61.122,75.151L61.122,77.929L21.522,77.929L21.522,75.151L19.212,75.151L19.212,65.23L21.522,65.23L21.522,51.028L19.212,51.028L19.212,41.107L21.522,41.107L21.522,38.329L61.122,38.329ZM21.551,41.135L19.24,41.135L19.24,51L21.551,51L21.551,65.258L19.24,65.258L19.24,75.123L21.551,75.123L21.551,77.901L61.094,77.901L61.094,75.123L63.404,75.123L63.404,65.258L61.094,65.258L61.094,51L63.404,51L63.404,41.135L61.094,41.135L61.094,38.357L21.551,38.357L21.551,41.135Z"/>
                    </g>
                    <g transform="matrix(0.984808,0.173648,-0.173648,0.984808,114.31,78.729)">
                        <path d="M61.122,38.329L61.122,41.107L63.432,41.107L63.432,51.028L61.122,51.028L61.122,65.23L63.432,65.23L63.432,75.151L61.122,75.151L61.122,77.929L21.522,77.929L21.522,75.151L19.212,75.151L19.212,65.23L21.522,65.23L21.522,51.028L19.212,51.028L19.212,41.107L21.522,41.107L21.522,38.329L61.122,38.329ZM21.551,41.135L19.24,41.135L19.24,51L21.551,51L21.551,65.258L19.24,65.258L19.24,75.123L21.551,75.123L21.551,77.901L61.094,77.901L61.094,75.123L63.404,75.123L63.404,65.258L61.094,65.258L61.094,51L63.404,51L63.404,41.135L61.094,41.135L61.094,38.357L21.551,38.357L21.551,41.135Z"/>
                    </g>
                    <g transform="matrix(0.984808,0.173648,-0.173648,0.984808,103.373,140.76)">
                        <path d="M61.122,38.329L61.122,41.107L63.432,41.107L63.432,51.028L61.122,51.028L61.122,65.23L63.432,65.23L63.432,75.151L61.122,75.151L61.122,77.929L21.522,77.929L21.522,75.151L19.212,75.151L19.212,65.23L21.522,65.23L21.522,51.028L19.212,51.028L19.212,41.107L21.522,41.107L21.522,38.329L61.122,38.329ZM21.551,41.135L19.24,41.135L19.24,51L21.551,51L21.551,65.258L19.24,65.258L19.24,75.123L21.551,75.123L21.551,77.901L61.094,77.901L61.094,75.123L63.404,75.123L63.404,65.258L61.094,65.258L61.094,51L63.404,51L63.404,41.135L61.094,41.135L61.094,38.357L21.551,38.357L21.551,41.135Z"/>
                    </g>
                    <g transform="matrix(0.984808,0.173648,-0.173648,0.984808,187.788,-27.0859)">
                        <path d="M61.122,38.329L61.122,41.107L63.432,41.107L63.432,51.028L61.122,51.028L61.122,65.23L63.432,65.23L63.432,75.151L61.122,75.151L61.122,77.929L21.522,77.929L21.522,75.151L19.212,75.151L19.212,65.23L21.522,65.23L21.522,51.028L19.212,51.028L19.212,41.107L21.522,41.107L21.522,38.329L61.122,38.329ZM21.551,41.135L19.24,41.135L19.24,51L21.551,51L21.551,65.258L19.24,65.258L19.24,75.123L21.551,75.123L21.551,77.901L61.094,77.901L61.094,75.123L63.404,75.123L63.404,65.258L61.094,65.258L61.094,51L63.404,51L63.404,41.135L61.094,41.135L61.094,38.357L21.551,38.357L21.551,41.135Z"/>
                    </g>
                    <g transform="matrix(0.984808,0.173648,-0.173648,0.984808,178.413,26.0842)">
                        <path d="M61.122,38.329L61.122,41.107L63.432,41.107L63.432,51.028L61.122,51.028L61.122,65.23L63.432,65.23L63.432,75.151L61.122,75.151L61.122,77.929L21.522,77.929L21.522,75.151L19.212,75.151L19.212,65.23L21.522,65.23L21.522,51.028L19.212,51.028L19.212,41.107L21.522,41.107L21.522,38.329L61.122,38.329ZM21.551,41.135L19.24,41.135L19.24,51L21.551,51L21.551,65.258L19.24,65.258L19.24,75.123L21.551,75.123L21.551,77.901L61.094,77.901L61.094,75.123L63.404,75.123L63.404,65.258L61.094,65.258L61.094,51L63.404,51L63.404,41.135L61.094,41.135L61.094,38.357L21.551,38.357L21.551,41.135Z"/>
                    </g>
                    <g transform="matrix(0.984808,0.173648,-0.173648,0.984808,169.037,79.2544)">
                        <path d="M61.122,38.329L61.122,41.107L63.432,41.107L63.432,51.028L61.122,51.028L61.122,65.23L63.432,65.23L63.432,75.151L61.122,75.151L61.122,77.929L21.522,77.929L21.522,75.151L19.212,75.151L19.212,65.23L21.522,65.23L21.522,51.028L19.212,51.028L19.212,41.107L21.522,41.107L21.522,38.329L61.122,38.329ZM21.551,41.135L19.24,41.135L19.24,51L21.551,51L21.551,65.258L19.24,65.258L19.24,75.123L21.551,75.123L21.551,77.901L61.094,77.901L61.094,75.123L63.404,75.123L63.404,65.258L61.094,65.258L61.094,51L63.404,51L63.404,41.135L61.094,41.135L61.094,38.357L21.551,38.357L21.551,41.135Z"/>
                    </g>
                    <g transform="matrix(0.984808,0.173648,-0.173648,0.984808,156.539,150.135)">
                        <path d="M61.122,38.329L61.122,41.107L63.432,41.107L63.432,51.028L61.122,51.028L61.122,65.23L63.432,65.23L63.432,75.151L61.122,75.151L61.122,77.929L21.522,77.929L21.522,75.151L19.212,75.151L19.212,65.23L21.522,65.23L21.522,51.028L19.212,51.028L19.212,41.107L21.522,41.107L21.522,38.329L61.122,38.329ZM21.551,41.135L19.24,41.135L19.24,51L21.551,51L21.551,65.258L19.24,65.258L19.24,75.123L21.551,75.123L21.551,77.901L61.094,77.901L61.094,75.123L63.404,75.123L63.404,65.258L61.094,65.258L61.094,51L63.404,51L63.404,41.135L61.094,41.135L61.094,38.357L21.551,38.357L21.551,41.135Z"/>
                    </g>
                    <g transform="matrix(0.984808,0.173648,-0.173648,0.984808,239.394,-8.86192)">
                        <path d="M61.122,38.329L61.122,41.107L63.432,41.107L63.432,51.028L61.122,51.028L61.122,65.23L63.432,65.23L63.432,75.151L61.122,75.151L61.122,77.929L21.522,77.929L21.522,75.151L19.212,75.151L19.212,65.23L21.522,65.23L21.522,51.028L19.212,51.028L19.212,41.107L21.522,41.107L21.522,38.329L61.122,38.329ZM21.551,41.135L19.24,41.135L19.24,51L21.551,51L21.551,65.258L19.24,65.258L19.24,75.123L21.551,75.123L21.551,77.901L61.094,77.901L61.094,75.123L63.404,75.123L63.404,65.258L61.094,65.258L61.094,51L63.404,51L63.404,41.135L61.094,41.135L61.094,38.357L21.551,38.357L21.551,41.135Z"/>
                    </g>
                    <g transform="matrix(0.984808,0.173648,-0.173648,0.984808,292.581,0.516366)">
                        <path d="M61.122,38.329L61.122,41.107L63.432,41.107L63.432,51.028L61.122,51.028L61.122,65.23L63.432,65.23L63.432,75.151L61.122,75.151L61.122,77.929L21.522,77.929L21.522,75.151L19.212,75.151L19.212,65.23L21.522,65.23L21.522,51.028L19.212,51.028L19.212,41.107L21.522,41.107L21.522,38.329L61.122,38.329ZM21.551,41.135L19.24,41.135L19.24,51L21.551,51L21.551,65.258L19.24,65.258L19.24,75.123L21.551,75.123L21.551,77.901L61.094,77.901L61.094,75.123L63.404,75.123L63.404,65.258L61.094,65.258L61.094,51L63.404,51L63.404,41.135L61.094,41.135L61.094,38.357L21.551,38.357L21.551,41.135Z"/>
                    </g>
                    <g transform="matrix(0.984808,0.173648,-0.173648,0.984808,230.019,44.3083)">
                        <path d="M61.122,38.329L61.122,41.107L63.432,41.107L63.432,51.028L61.122,51.028L61.122,65.23L63.432,65.23L63.432,75.151L61.122,75.151L61.122,77.929L21.522,77.929L21.522,75.151L19.212,75.151L19.212,65.23L21.522,65.23L21.522,51.028L19.212,51.028L19.212,41.107L21.522,41.107L21.522,38.329L61.122,38.329ZM21.551,41.135L19.24,41.135L19.24,51L21.551,51L21.551,65.258L19.24,65.258L19.24,75.123L21.551,75.123L21.551,77.901L61.094,77.901L61.094,75.123L63.404,75.123L63.404,65.258L61.094,65.258L61.094,51L63.404,51L63.404,41.135L61.094,41.135L61.094,38.357L21.551,38.357L21.551,41.135Z"/>
                    </g>
                    <g transform="matrix(0.984808,0.173648,-0.173648,0.984808,283.206,53.6865)">
                        <path d="M61.122,38.329L61.122,41.107L63.432,41.107L63.432,51.028L61.122,51.028L61.122,65.23L63.432,65.23L63.432,75.151L61.122,75.151L61.122,77.929L21.522,77.929L21.522,75.151L19.212,75.151L19.212,65.23L21.522,65.23L21.522,51.028L19.212,51.028L19.212,41.107L21.522,41.107L21.522,38.329L61.122,38.329ZM21.551,41.135L19.24,41.135L19.24,51L21.551,51L21.551,65.258L19.24,65.258L19.24,75.123L21.551,75.123L21.551,77.901L61.094,77.901L61.094,75.123L63.404,75.123L63.404,65.258L61.094,65.258L61.094,51L63.404,51L63.404,41.135L61.094,41.135L61.094,38.357L21.551,38.357L21.551,41.135Z"/>
                    </g>
                    <g transform="matrix(0.984808,0.173648,-0.173648,0.984808,220.643,97.4784)">
                        <path d="M61.122,38.329L61.122,41.107L63.432,41.107L63.432,51.028L61.122,51.028L61.122,65.23L63.432,65.23L63.432,75.151L61.122,75.151L61.122,77.929L21.522,77.929L21.522,75.151L19.212,75.151L19.212,65.23L21.522,65.23L21.522,51.028L19.212,51.028L19.212,41.107L21.522,41.107L21.522,38.329L61.122,38.329ZM21.551,41.135L19.24,41.135L19.24,51L21.551,51L21.551,65.258L19.24,65.258L19.24,75.123L21.551,75.123L21.551,77.901L61.094,77.901L61.094,75.123L63.404,75.123L63.404,65.258L61.094,65.258L61.094,51L63.404,51L63.404,41.135L61.094,41.135L61.094,38.357L21.551,38.357L21.551,41.135Z"/>
                    </g>
                    <g transform="matrix(0.984808,0.173648,-0.173648,0.984808,273.83,106.857)">
                        <path d="M61.122,38.329L61.122,41.107L63.432,41.107L63.432,51.028L61.122,51.028L61.122,65.23L63.432,65.23L63.432,75.151L61.122,75.151L61.122,77.929L21.522,77.929L21.522,75.151L19.212,75.151L19.212,65.23L21.522,65.23L21.522,51.028L19.212,51.028L19.212,41.107L21.522,41.107L21.522,38.329L61.122,38.329ZM21.551,41.135L19.24,41.135L19.24,51L21.551,51L21.551,65.258L19.24,65.258L19.24,75.123L21.551,75.123L21.551,77.901L61.094,77.901L61.094,75.123L63.404,75.123L63.404,65.258L61.094,65.258L61.094,51L63.404,51L63.404,41.135L61.094,41.135L61.094,38.357L21.551,38.357L21.551,41.135Z"/>
                    </g>
                    <g transform="matrix(0.984808,0.173648,-0.173648,0.984808,209.706,159.51)">
                        <path d="M61.122,38.329L61.122,41.107L63.432,41.107L63.432,51.028L61.122,51.028L61.122,65.23L63.432,65.23L63.432,75.151L61.122,75.151L61.122,77.929L21.522,77.929L21.522,75.151L19.212,75.151L19.212,65.23L21.522,65.23L21.522,51.028L19.212,51.028L19.212,41.107L21.522,41.107L21.522,38.329L61.122,38.329ZM21.551,41.135L19.24,41.135L19.24,51L21.551,51L21.551,65.258L19.24,65.258L19.24,75.123L21.551,75.123L21.551,77.901L61.094,77.901L61.094,75.123L63.404,75.123L63.404,65.258L61.094,65.258L61.094,51L63.404,51L63.404,41.135L61.094,41.135L61.094,38.357L21.551,38.357L21.551,41.135Z"/>
                    </g>
                    <g transform="matrix(0.766044,0.642788,-0.642788,0.766044,308.68,165.984)">
                        <path d="M61.122,38.329L61.122,41.107L63.432,41.107L63.432,51.028L61.122,51.028L61.122,65.23L63.432,65.23L63.432,75.151L61.122,75.151L61.122,77.929L21.522,77.929L21.522,75.151L19.212,75.151L19.212,65.23L21.522,65.23L21.522,51.028L19.212,51.028L19.212,41.107L21.522,41.107L21.522,38.329L61.122,38.329ZM21.551,41.135L19.24,41.135L19.24,51L21.551,51L21.551,65.258L19.24,65.258L19.24,75.123L21.551,75.123L21.551,77.901L61.094,77.901L61.094,75.123L63.404,75.123L63.404,65.258L61.094,65.258L61.094,51L63.404,51L63.404,41.135L61.094,41.135L61.094,38.357L21.551,38.357L21.551,41.135Z"/>
                    </g>
                    <g transform="matrix(-0.984808,0.173648,0.173648,0.984808,792.224,-28.699)">
                        <path d="M21.522,41.107L19.212,41.107L19.212,51.028L21.522,51.028L21.522,65.23L19.212,65.23L19.212,75.151L21.522,75.151L21.522,77.929L61.122,77.929L61.122,75.151L63.432,75.151L63.432,65.23L61.122,65.23L61.122,51.028L63.432,51.028L63.432,41.107L61.122,41.107L61.122,38.329L21.522,38.329L21.522,41.107ZM61.094,38.357L61.094,41.135L63.404,41.135L63.404,51L61.094,51L61.094,65.258L63.404,65.258L63.404,75.123L61.094,75.123L61.094,77.901L21.551,77.901L21.551,75.123L19.24,75.123L19.24,65.258L21.551,65.258L21.551,51L19.24,51L19.24,41.135L21.551,41.135L21.551,38.357L61.094,38.357Z"/>
                    </g>
                    <g transform="matrix(-0.984808,0.173648,0.173648,0.984808,801.6,24.4712)">
                        <path d="M21.522,41.107L19.212,41.107L19.212,51.028L21.522,51.028L21.522,65.23L19.212,65.23L19.212,75.151L21.522,75.151L21.522,77.929L61.122,77.929L61.122,75.151L63.432,75.151L63.432,65.23L61.122,65.23L61.122,51.028L63.432,51.028L63.432,41.107L61.122,41.107L61.122,38.329L21.522,38.329L21.522,41.107ZM61.094,38.357L61.094,41.135L63.404,41.135L63.404,51L61.094,51L61.094,65.258L63.404,65.258L63.404,75.123L61.094,75.123L61.094,77.901L21.551,77.901L21.551,75.123L19.24,75.123L19.24,65.258L21.551,65.258L21.551,51L19.24,51L19.24,41.135L21.551,41.135L21.551,38.357L61.094,38.357Z"/>
                    </g>
                    <g transform="matrix(-0.984808,0.173648,0.173648,0.984808,810.975,77.6414)">
                        <path d="M21.522,41.107L19.212,41.107L19.212,51.028L21.522,51.028L21.522,65.23L19.212,65.23L19.212,75.151L21.522,75.151L21.522,77.929L61.122,77.929L61.122,75.151L63.432,75.151L63.432,65.23L61.122,65.23L61.122,51.028L63.432,51.028L63.432,41.107L61.122,41.107L61.122,38.329L21.522,38.329L21.522,41.107ZM61.094,38.357L61.094,41.135L63.404,41.135L63.404,51L61.094,51L61.094,65.258L63.404,65.258L63.404,75.123L61.094,75.123L61.094,77.901L21.551,77.901L21.551,75.123L19.24,75.123L19.24,65.258L21.551,65.258L21.551,51L19.24,51L19.24,41.135L21.551,41.135L21.551,38.357L61.094,38.357Z"/>
                    </g>
                    <g transform="matrix(-0.984808,0.173648,0.173648,0.984808,737.494,-28.1899)">
                        <path d="M21.522,41.107L19.212,41.107L19.212,51.028L21.522,51.028L21.522,65.23L19.212,65.23L19.212,75.151L21.522,75.151L21.522,77.929L61.122,77.929L61.122,75.151L63.432,75.151L63.432,65.23L61.122,65.23L61.122,51.028L63.432,51.028L63.432,41.107L61.122,41.107L61.122,38.329L21.522,38.329L21.522,41.107ZM61.094,38.357L61.094,41.135L63.404,41.135L63.404,51L61.094,51L61.094,65.258L63.404,65.258L63.404,75.123L61.094,75.123L61.094,77.901L21.551,77.901L21.551,75.123L19.24,75.123L19.24,65.258L21.551,65.258L21.551,51L19.24,51L19.24,41.135L21.551,41.135L21.551,38.357L61.094,38.357Z"/>
                    </g>
                    <g transform="matrix(-0.984808,0.173648,0.173648,0.984808,746.87,24.9803)">
                        <path d="M21.522,41.107L19.212,41.107L19.212,51.028L21.522,51.028L21.522,65.23L19.212,65.23L19.212,75.151L21.522,75.151L21.522,77.929L61.122,77.929L61.122,75.151L63.432,75.151L63.432,65.23L61.122,65.23L61.122,51.028L63.432,51.028L63.432,41.107L61.122,41.107L61.122,38.329L21.522,38.329L21.522,41.107ZM61.094,38.357L61.094,41.135L63.404,41.135L63.404,51L61.094,51L61.094,65.258L63.404,65.258L63.404,75.123L61.094,75.123L61.094,77.901L21.551,77.901L21.551,75.123L19.24,75.123L19.24,65.258L21.551,65.258L21.551,51L19.24,51L19.24,41.135L21.551,41.135L21.551,38.357L61.094,38.357Z"/>
                    </g>
                    <g transform="matrix(-0.984808,0.173648,0.173648,0.984808,756.245,78.1504)">
                        <path d="M21.522,41.107L19.212,41.107L19.212,51.028L21.522,51.028L21.522,65.23L19.212,65.23L19.212,75.151L21.522,75.151L21.522,77.929L61.122,77.929L61.122,75.151L63.432,75.151L63.432,65.23L61.122,65.23L61.122,51.028L63.432,51.028L63.432,41.107L61.122,41.107L61.122,38.329L21.522,38.329L21.522,41.107ZM61.094,38.357L61.094,41.135L63.404,41.135L63.404,51L61.094,51L61.094,65.258L63.404,65.258L63.404,75.123L61.094,75.123L61.094,77.901L21.551,77.901L21.551,75.123L19.24,75.123L19.24,65.258L21.551,65.258L21.551,51L19.24,51L19.24,41.135L21.551,41.135L21.551,38.357L61.094,38.357Z"/>
                    </g>
                    <g transform="matrix(-0.984808,0.173648,0.173648,0.984808,765.62,131.321)">
                        <path d="M21.522,41.107L19.212,41.107L19.212,51.028L21.522,51.028L21.522,65.23L19.212,65.23L19.212,75.151L21.522,75.151L21.522,77.929L61.122,77.929L61.122,75.151L63.432,75.151L63.432,65.23L61.122,65.23L61.122,51.028L63.432,51.028L63.432,41.107L61.122,41.107L61.122,38.329L21.522,38.329L21.522,41.107ZM61.094,38.357L61.094,41.135L63.404,41.135L63.404,51L61.094,51L61.094,65.258L63.404,65.258L63.404,75.123L61.094,75.123L61.094,77.901L21.551,77.901L21.551,75.123L19.24,75.123L19.24,65.258L21.551,65.258L21.551,51L19.24,51L19.24,41.135L21.551,41.135L21.551,38.357L61.094,38.357Z"/>
                    </g>
                    <g transform="matrix(-0.984808,0.173648,0.173648,0.984808,682.765,-27.6761)">
                        <path d="M21.522,41.107L19.212,41.107L19.212,51.028L21.522,51.028L21.522,65.23L19.212,65.23L19.212,75.151L21.522,75.151L21.522,77.929L61.122,77.929L61.122,75.151L63.432,75.151L63.432,65.23L61.122,65.23L61.122,51.028L63.432,51.028L63.432,41.107L61.122,41.107L61.122,38.329L21.522,38.329L21.522,41.107ZM61.094,38.357L61.094,41.135L63.404,41.135L63.404,51L61.094,51L61.094,65.258L63.404,65.258L63.404,75.123L61.094,75.123L61.094,77.901L21.551,77.901L21.551,75.123L19.24,75.123L19.24,65.258L21.551,65.258L21.551,51L19.24,51L19.24,41.135L21.551,41.135L21.551,38.357L61.094,38.357Z"/>
                    </g>
                    <g transform="matrix(-0.984808,0.173648,0.173648,0.984808,692.141,25.494)">
                        <path d="M21.522,41.107L19.212,41.107L19.212,51.028L21.522,51.028L21.522,65.23L19.212,65.23L19.212,75.151L21.522,75.151L21.522,77.929L61.122,77.929L61.122,75.151L63.432,75.151L63.432,65.23L61.122,65.23L61.122,51.028L63.432,51.028L63.432,41.107L61.122,41.107L61.122,38.329L21.522,38.329L21.522,41.107ZM61.094,38.357L61.094,41.135L63.404,41.135L63.404,51L61.094,51L61.094,65.258L63.404,65.258L63.404,75.123L61.094,75.123L61.094,77.901L21.551,77.901L21.551,75.123L19.24,75.123L19.24,65.258L21.551,65.258L21.551,51L19.24,51L19.24,41.135L21.551,41.135L21.551,38.357L61.094,38.357Z"/>
                    </g>
                    <g transform="matrix(-0.984808,0.173648,0.173648,0.984808,701.516,78.6642)">
                        <path d="M21.522,41.107L19.212,41.107L19.212,51.028L21.522,51.028L21.522,65.23L19.212,65.23L19.212,75.151L21.522,75.151L21.522,77.929L61.122,77.929L61.122,75.151L63.432,75.151L63.432,65.23L61.122,65.23L61.122,51.028L63.432,51.028L63.432,41.107L61.122,41.107L61.122,38.329L21.522,38.329L21.522,41.107ZM61.094,38.357L61.094,41.135L63.404,41.135L63.404,51L61.094,51L61.094,65.258L63.404,65.258L63.404,75.123L61.094,75.123L61.094,77.901L21.551,77.901L21.551,75.123L19.24,75.123L19.24,65.258L21.551,65.258L21.551,51L19.24,51L19.24,41.135L21.551,41.135L21.551,38.357L61.094,38.357Z"/>
                    </g>
                    <g transform="matrix(-0.984808,0.173648,0.173648,0.984808,712.454,140.695)">
                        <path d="M21.522,41.107L19.212,41.107L19.212,51.028L21.522,51.028L21.522,65.23L19.212,65.23L19.212,75.151L21.522,75.151L21.522,77.929L61.122,77.929L61.122,75.151L63.432,75.151L63.432,65.23L61.122,65.23L61.122,51.028L63.432,51.028L63.432,41.107L61.122,41.107L61.122,38.329L21.522,38.329L21.522,41.107ZM61.094,38.357L61.094,41.135L63.404,41.135L63.404,51L61.094,51L61.094,65.258L63.404,65.258L63.404,75.123L61.094,75.123L61.094,77.901L21.551,77.901L21.551,75.123L19.24,75.123L19.24,65.258L21.551,65.258L21.551,51L19.24,51L19.24,41.135L21.551,41.135L21.551,38.357L61.094,38.357Z"/>
                    </g>
                    <g transform="matrix(-0.984808,0.173648,0.173648,0.984808,628.039,-27.1507)">
                        <path d="M21.522,41.107L19.212,41.107L19.212,51.028L21.522,51.028L21.522,65.23L19.212,65.23L19.212,75.151L21.522,75.151L21.522,77.929L61.122,77.929L61.122,75.151L63.432,75.151L63.432,65.23L61.122,65.23L61.122,51.028L63.432,51.028L63.432,41.107L61.122,41.107L61.122,38.329L21.522,38.329L21.522,41.107ZM61.094,38.357L61.094,41.135L63.404,41.135L63.404,51L61.094,51L61.094,65.258L63.404,65.258L63.404,75.123L61.094,75.123L61.094,77.901L21.551,77.901L21.551,75.123L19.24,75.123L19.24,65.258L21.551,65.258L21.551,51L19.24,51L19.24,41.135L21.551,41.135L21.551,38.357L61.094,38.357Z"/>
                    </g>
                    <g transform="matrix(-0.984808,0.173648,0.173648,0.984808,637.414,26.0194)">
                        <path d="M21.522,41.107L19.212,41.107L19.212,51.028L21.522,51.028L21.522,65.23L19.212,65.23L19.212,75.151L21.522,75.151L21.522,77.929L61.122,77.929L61.122,75.151L63.432,75.151L63.432,65.23L61.122,65.23L61.122,51.028L63.432,51.028L63.432,41.107L61.122,41.107L61.122,38.329L21.522,38.329L21.522,41.107ZM61.094,38.357L61.094,41.135L63.404,41.135L63.404,51L61.094,51L61.094,65.258L63.404,65.258L63.404,75.123L61.094,75.123L61.094,77.901L21.551,77.901L21.551,75.123L19.24,75.123L19.24,65.258L21.551,65.258L21.551,51L19.24,51L19.24,41.135L21.551,41.135L21.551,38.357L61.094,38.357Z"/>
                    </g>
                    <g transform="matrix(-0.984808,0.173648,0.173648,0.984808,646.789,79.1896)">
                        <path d="M21.522,41.107L19.212,41.107L19.212,51.028L21.522,51.028L21.522,65.23L19.212,65.23L19.212,75.151L21.522,75.151L21.522,77.929L61.122,77.929L61.122,75.151L63.432,75.151L63.432,65.23L61.122,65.23L61.122,51.028L63.432,51.028L63.432,41.107L61.122,41.107L61.122,38.329L21.522,38.329L21.522,41.107ZM61.094,38.357L61.094,41.135L63.404,41.135L63.404,51L61.094,51L61.094,65.258L63.404,65.258L63.404,75.123L61.094,75.123L61.094,77.901L21.551,77.901L21.551,75.123L19.24,75.123L19.24,65.258L21.551,65.258L21.551,51L19.24,51L19.24,41.135L21.551,41.135L21.551,38.357L61.094,38.357Z"/>
                    </g>
                    <g transform="matrix(-0.984808,0.173648,0.173648,0.984808,659.287,150.07)">
                        <path d="M21.522,41.107L19.212,41.107L19.212,51.028L21.522,51.028L21.522,65.23L19.212,65.23L19.212,75.151L21.522,75.151L21.522,77.929L61.122,77.929L61.122,75.151L63.432,75.151L63.432,65.23L61.122,65.23L61.122,51.028L63.432,51.028L63.432,41.107L61.122,41.107L61.122,38.329L21.522,38.329L21.522,41.107ZM61.094,38.357L61.094,41.135L63.404,41.135L63.404,51L61.094,51L61.094,65.258L63.404,65.258L63.404,75.123L61.094,75.123L61.094,77.901L21.551,77.901L21.551,75.123L19.24,75.123L19.24,65.258L21.551,65.258L21.551,51L19.24,51L19.24,41.135L21.551,41.135L21.551,38.357L61.094,38.357Z"/>
                    </g>
                    <g transform="matrix(-0.984808,0.173648,0.173648,0.984808,576.432,-8.92673)">
                        <path d="M21.522,41.107L19.212,41.107L19.212,51.028L21.522,51.028L21.522,65.23L19.212,65.23L19.212,75.151L21.522,75.151L21.522,77.929L61.122,77.929L61.122,75.151L63.432,75.151L63.432,65.23L61.122,65.23L61.122,51.028L63.432,51.028L63.432,41.107L61.122,41.107L61.122,38.329L21.522,38.329L21.522,41.107ZM61.094,38.357L61.094,41.135L63.404,41.135L63.404,51L61.094,51L61.094,65.258L63.404,65.258L63.404,75.123L61.094,75.123L61.094,77.901L21.551,77.901L21.551,75.123L19.24,75.123L19.24,65.258L21.551,65.258L21.551,51L19.24,51L19.24,41.135L21.551,41.135L21.551,38.357L61.094,38.357Z"/>
                    </g>
                    <g transform="matrix(-0.984808,0.173648,0.173648,0.984808,523.245,0.451548)">
                        <path d="M21.522,41.107L19.212,41.107L19.212,51.028L21.522,51.028L21.522,65.23L19.212,65.23L19.212,75.151L21.522,75.151L21.522,77.929L61.122,77.929L61.122,75.151L63.432,75.151L63.432,65.23L61.122,65.23L61.122,51.028L63.432,51.028L63.432,41.107L61.122,41.107L61.122,38.329L21.522,38.329L21.522,41.107ZM61.094,38.357L61.094,41.135L63.404,41.135L63.404,51L61.094,51L61.094,65.258L63.404,65.258L63.404,75.123L61.094,75.123L61.094,77.901L21.551,77.901L21.551,75.123L19.24,75.123L19.24,65.258L21.551,65.258L21.551,51L19.24,51L19.24,41.135L21.551,41.135L21.551,38.357L61.094,38.357Z"/>
                    </g>
                    <g transform="matrix(-0.984808,0.173648,0.173648,0.984808,585.808,44.2434)">
                        <path d="M21.522,41.107L19.212,41.107L19.212,51.028L21.522,51.028L21.522,65.23L19.212,65.23L19.212,75.151L21.522,75.151L21.522,77.929L61.122,77.929L61.122,75.151L63.432,75.151L63.432,65.23L61.122,65.23L61.122,51.028L63.432,51.028L63.432,41.107L61.122,41.107L61.122,38.329L21.522,38.329L21.522,41.107ZM61.094,38.357L61.094,41.135L63.404,41.135L63.404,51L61.094,51L61.094,65.258L63.404,65.258L63.404,75.123L61.094,75.123L61.094,77.901L21.551,77.901L21.551,75.123L19.24,75.123L19.24,65.258L21.551,65.258L21.551,51L19.24,51L19.24,41.135L21.551,41.135L21.551,38.357L61.094,38.357Z"/>
                    </g>
                    <g transform="matrix(-0.984808,0.173648,0.173648,0.984808,532.621,53.6217)">
                        <path d="M21.522,41.107L19.212,41.107L19.212,51.028L21.522,51.028L21.522,65.23L19.212,65.23L19.212,75.151L21.522,75.151L21.522,77.929L61.122,77.929L61.122,75.151L63.432,75.151L63.432,65.23L61.122,65.23L61.122,51.028L63.432,51.028L63.432,41.107L61.122,41.107L61.122,38.329L21.522,38.329L21.522,41.107ZM61.094,38.357L61.094,41.135L63.404,41.135L63.404,51L61.094,51L61.094,65.258L63.404,65.258L63.404,75.123L61.094,75.123L61.094,77.901L21.551,77.901L21.551,75.123L19.24,75.123L19.24,65.258L21.551,65.258L21.551,51L19.24,51L19.24,41.135L21.551,41.135L21.551,38.357L61.094,38.357Z"/>
                    </g>
                    <g transform="matrix(-0.984808,0.173648,0.173648,0.984808,595.183,97.4136)">
                        <path d="M21.522,41.107L19.212,41.107L19.212,51.028L21.522,51.028L21.522,65.23L19.212,65.23L19.212,75.151L21.522,75.151L21.522,77.929L61.122,77.929L61.122,75.151L63.432,75.151L63.432,65.23L61.122,65.23L61.122,51.028L63.432,51.028L63.432,41.107L61.122,41.107L61.122,38.329L21.522,38.329L21.522,41.107ZM61.094,38.357L61.094,41.135L63.404,41.135L63.404,51L61.094,51L61.094,65.258L63.404,65.258L63.404,75.123L61.094,75.123L61.094,77.901L21.551,77.901L21.551,75.123L19.24,75.123L19.24,65.258L21.551,65.258L21.551,51L19.24,51L19.24,41.135L21.551,41.135L21.551,38.357L61.094,38.357Z"/>
                    </g>
                    <g transform="matrix(-0.984808,0.173648,0.173648,0.984808,541.996,106.792)">
                        <path d="M21.522,41.107L19.212,41.107L19.212,51.028L21.522,51.028L21.522,65.23L19.212,65.23L19.212,75.151L21.522,75.151L21.522,77.929L61.122,77.929L61.122,75.151L63.432,75.151L63.432,65.23L61.122,65.23L61.122,51.028L63.432,51.028L63.432,41.107L61.122,41.107L61.122,38.329L21.522,38.329L21.522,41.107ZM61.094,38.357L61.094,41.135L63.404,41.135L63.404,51L61.094,51L61.094,65.258L63.404,65.258L63.404,75.123L61.094,75.123L61.094,77.901L21.551,77.901L21.551,75.123L19.24,75.123L19.24,65.258L21.551,65.258L21.551,51L19.24,51L19.24,41.135L21.551,41.135L21.551,38.357L61.094,38.357Z"/>
                    </g>
                    <g transform="matrix(-0.984808,0.173648,0.173648,0.984808,606.121,159.445)">
                        <path d="M21.522,41.107L19.212,41.107L19.212,51.028L21.522,51.028L21.522,65.23L19.212,65.23L19.212,75.151L21.522,75.151L21.522,77.929L61.122,77.929L61.122,75.151L63.432,75.151L63.432,65.23L61.122,65.23L61.122,51.028L63.432,51.028L63.432,41.107L61.122,41.107L61.122,38.329L21.522,38.329L21.522,41.107ZM61.094,38.357L61.094,41.135L63.404,41.135L63.404,51L61.094,51L61.094,65.258L63.404,65.258L63.404,75.123L61.094,75.123L61.094,77.901L21.551,77.901L21.551,75.123L19.24,75.123L19.24,65.258L21.551,65.258L21.551,51L19.24,51L19.24,41.135L21.551,41.135L21.551,38.357L61.094,38.357Z"/>
                    </g>
                    <g transform="matrix(-0.766044,0.642788,0.642788,0.766044,507.146,165.919)">
                        <path d="M21.522,41.107L19.212,41.107L19.212,51.028L21.522,51.028L21.522,65.23L19.212,65.23L19.212,75.151L21.522,75.151L21.522,77.929L61.122,77.929L61.122,75.151L63.432,75.151L63.432,65.23L61.122,65.23L61.122,51.028L63.432,51.028L63.432,41.107L61.122,41.107L61.122,38.329L21.522,38.329L21.522,41.107ZM61.094,38.357L61.094,41.135L63.404,41.135L63.404,51L61.094,51L61.094,65.258L63.404,65.258L63.404,75.123L61.094,75.123L61.094,77.901L21.551,77.901L21.551,75.123L19.24,75.123L19.24,65.258L21.551,65.258L21.551,51L19.24,51L19.24,41.135L21.551,41.135L21.551,38.357L61.094,38.357Z"/>
                    </g>
                </g>
                <g transform="matrix(0.766044,0.642788,-0.642788,0.766044,361.944,137.105)">
                    <g id="v2.2-thumbies" serif:id="v2.2 thumbies">
                        <path d="M61.122,38.329L61.122,41.107L63.432,41.107L63.432,51.028L61.122,51.028L61.122,65.23L63.432,65.23L63.432,75.151L61.122,75.151L61.122,77.929L21.522,77.929L21.522,75.151L19.212,75.151L19.212,65.23L21.522,65.23L21.522,51.028L19.212,51.028L19.212,41.107L21.522,41.107L21.522,38.329L61.122,38.329ZM21.551,41.135L19.24,41.135L19.24,51L21.551,51L21.551,65.258L19.24,65.258L19.24,75.123L21.551,75.123L21.551,77.901L61.094,77.901L61.094,75.123L63.404,75.123L63.404,65.258L61.094,65.258L61.094,51L63.404,51L63.404,41.135L61.094,41.135L61.094,38.357L21.551,38.357L21.551,41.135Z"/>
                    </g>
                </g>
                <g transform="matrix(-0.766044,0.642788,0.642788,0.766044,453.557,136.972)">
                    <g id="v2.2-thumbies1" serif:id="v2.2 thumbies">
                        <path d="M21.522,41.107L19.212,41.107L19.212,51.028L21.522,51.028L21.522,65.23L19.212,65.23L19.212,75.151L21.522,75.151L21.522,77.929L61.122,77.929L61.122,75.151L63.432,75.151L63.432,65.23L61.122,65.23L61.122,51.028L63.432,51.028L63.432,41.107L61.122,41.107L61.122,38.329L21.522,38.329L21.522,41.107ZM61.094,38.357L61.094,41.135L63.404,41.135L63.404,51L61.094,51L61.094,65.258L63.404,65.258L63.404,75.123L61.094,75.123L61.094,77.901L21.551,77.901L21.551,75.123L19.24,75.123L19.24,65.258L21.551,65.258L21.551,51L19.24,51L19.24,41.135L21.551,41.135L21.551,38.357L61.094,38.357Z"/>
                    </g>
                </g>
            </g>
            <g id="Reset-hole" serif:id="Reset hole" transform="matrix(0.780895,0,0,0.780895,100.783,-223.578)">
                <circle cx="392.928" cy="307.82" r="7.26" style="fill:none;stroke:black;stroke-width:0.04px;stroke-miterlimit:1.5;"/>
            </g>
            <g transform="matrix(0.458746,0,0,0.458746,174.385,-123.386)">
                <g id="Logo">
                    <g id="Logo1" serif:id="Logo">
                        <g>
                            <path d="M498.38,550.373C499.148,550.373 499.532,550.181 499.532,549.797C499.532,549.605 499.34,549.317 498.956,548.933C494.06,544.805 492.524,543.557 487.34,539.813C484.076,543.461 483.116,544.613 479.948,548.357L460.556,548.357C461.132,542.309 461.324,537.989 461.612,524.261L502.028,524.261C502.796,524.261 503.18,524.069 503.18,523.685C503.18,523.493 502.988,523.205 502.604,522.821C497.42,518.597 495.884,517.445 490.508,513.509C487.244,517.253 486.188,518.405 483.116,522.245L424.46,522.245C421.196,522.245 418.316,521.957 415.052,521.381L415.628,524.837C418.316,524.453 421.1,524.261 424.268,524.261L450.092,524.261C450.092,537.605 449.9,541.829 449.324,548.357L427.82,548.357C423.884,548.357 421.292,548.069 418.22,547.397L418.796,550.949C421.196,550.565 424.556,550.373 427.82,550.373L449.036,550.373C447.5,562.661 443.564,572.549 436.652,581.381C430.988,588.773 424.076,594.341 413.9,599.909L414.38,600.965C420.236,599.237 422.924,598.277 426.38,596.645C432.524,593.861 438.284,590.021 443.18,585.605C452.876,576.677 458.252,565.829 460.268,551.237C461.324,557.669 461.996,560.741 463.436,564.869C467.372,576.965 474.188,586.757 484.268,594.725C488.492,598.085 492.14,600.293 493.388,600.293C493.964,600.293 494.252,600.005 494.444,599.141C496.076,594.149 498.956,591.077 504.14,589.061L504.332,588.101C495.02,585.797 490.316,584.165 484.652,580.901C479.084,577.733 474.284,573.605 470.444,568.805C466.124,563.333 464.3,559.397 461.708,550.373L498.38,550.373Z" style="fill:none;fill-rule:nonzero;stroke:black;stroke-width:0.06px;stroke-linecap:butt;stroke-miterlimit:2;"/>
                            <path d="M535.945,602.021C542.377,596.261 545.929,591.653 549.289,584.933C554.281,575.141 558.551,564.101 559.127,544.517C559.511,531.173 559.511,531.173 559.607,527.141C563.159,527.045 563.927,527.045 567.191,526.853L567.191,586.469C557.207,587.237 557.958,587.237 556.71,587.237C555.846,587.237 554.886,587.141 553.062,586.949C555.942,599.045 556.422,600.485 557.574,600.485C558.438,600.485 558.822,599.717 559.398,596.549C576.294,590.885 575.639,590.885 583.319,587.429C583.511,589.733 583.511,591.365 583.607,594.725C583.607,597.989 583.895,598.853 585.047,598.853C587.639,598.853 589.592,593.573 589.592,589.733C589.592,585.125 587.68,577.349 581.344,569.477L580.48,569.861C582.208,575.717 582.359,579.269 583.031,585.029C580.535,585.317 579.575,585.509 576.695,585.797L576.695,526.181C580.823,525.701 582.071,525.605 585.335,525.125C585.431,534.437 585.527,537.221 586.103,545.669C587.735,569.189 592.676,581.381 599.684,595.973C600.74,598.181 601.508,599.045 602.18,599.045C602.564,599.045 602.852,598.661 603.044,597.893C604.58,591.269 605.636,589.349 609.284,587.045L609.476,586.181C605.732,582.245 604.196,580.133 602.084,576.581C598.724,570.917 593.591,562.853 591.383,553.349C589.271,543.941 588.503,537.893 587.639,524.837C590.903,524.261 591.959,524.069 595.991,523.109C597.335,523.397 599.159,523.685 599.543,523.685C600.215,523.685 600.791,523.301 600.791,522.725C600.791,521.765 599.351,520.709 588.887,513.989C586.007,516.197 584.567,516.965 579.671,518.789C573.239,521.285 566.423,523.397 560.183,524.837C555.479,522.437 554.79,521.765 549.99,519.845C550.374,523.877 550.374,525.221 550.374,530.117C550.374,552.773 546.505,566.117 544.297,577.733C542.377,587.621 540.073,593.669 535.177,601.445L535.945,602.021ZM508.94,590.789C517.196,593.477 519.308,595.205 519.5,599.813C519.596,601.445 519.884,601.733 521.132,601.733C522.188,601.733 523.916,601.445 525.26,601.061C528.812,600.005 531.02,598.085 532.748,594.533C534.956,590.021 536.492,580.421 536.492,571.589C536.492,555.653 533.9,544.517 527.66,533.669C531.98,529.733 534.86,526.661 540.14,520.517C543.788,519.941 542.774,518.119 542.688,518.01C542.514,517.789 542.732,517.157 537.644,515.525C536.3,515.045 534.092,514.373 531.308,513.413C530.06,517.541 527.948,521.669 523.82,527.909C520.844,523.973 518.636,521.861 513.356,517.829L512.492,518.597C516.716,523.685 518.348,526.373 520.94,531.941C515.18,539.237 514.316,540.197 508.268,545.669L508.844,546.437C514.412,543.653 518.156,541.253 523.052,537.413C524.3,541.061 524.876,543.365 525.644,547.493C524.012,551.525 523.148,553.253 521.612,556.037C517.388,563.429 513.548,568.805 507.98,574.949L508.556,575.621C514.604,572.165 517.868,569.861 521.804,566.309C524.204,564.101 526.028,562.373 527.276,561.029C527.372,564.101 527.468,565.733 527.468,568.229C527.468,576.197 526.7,583.781 525.356,587.909C524.588,590.405 524.3,590.597 521.42,590.597C519.404,590.597 519.116,590.597 509.036,589.733L508.94,590.789Z" style="fill:none;fill-rule:nonzero;stroke:black;stroke-width:0.06px;stroke-linecap:butt;stroke-miterlimit:2;"/>
                        </g>
                        <g transform="matrix(1,0,0,1,-78.1523,-48.7694)">
                            <path d="M467.818,650.79L467.818,562.993L486.428,562.993L486.428,569.978L476.256,569.978L476.256,643.806L486.428,643.806L486.428,650.79L467.818,650.79Z" style="fill:none;fill-rule:nonzero;stroke:black;stroke-width:0.06px;stroke-linecap:butt;stroke-miterlimit:2;"/>
                        </g>
                        <g transform="matrix(1,0,0,1,100.825,-60.7191)">
                            <path d="M527.627,662.74L509.017,662.74L509.017,655.756L519.189,655.756L519.189,581.928L509.017,581.928L509.017,574.943L527.627,574.943L527.627,662.74Z" style="fill:none;fill-rule:nonzero;stroke:black;stroke-width:0.06px;stroke-linecap:butt;stroke-miterlimit:2;"/>
                        </g>
                    </g>
                </g>
            </g>
        </g>
    </g>
</svg>
