<?xml version="1.0" encoding="UTF-8" standalone="no"?>
<!DOCTYPE svg PUBLIC "-//W3C//DTD SVG 1.1//EN" "http://www.w3.org/Graphics/SVG/1.1/DTD/svg11.dtd">
<svg width="808px" height="269px" version="1.1" xmlns="http://www.w3.org/2000/svg" xmlns:xlink="http://www.w3.org/1999/xlink" xml:space="preserve" xmlns:serif="http://www.serif.com/" style="fill-rule:evenodd;clip-rule:evenodd;stroke-linecap:round;stroke-linejoin:round;">
    <g id="Cuts">
        <g id="Plate-outline" serif:id="Plate outline">
            <path d="M5.681,268.171l796.534,0" style="fill:none;fill-rule:nonzero;stroke:#000;stroke-width:0.03px;"/>
            <path d="M5.684,0.015c-3.11,0 -5.669,2.559 -5.669,5.669" style="fill:#c2c200;fill-opacity:0;fill-rule:nonzero;stroke:#000;stroke-width:0.03px;"/>
            <path d="M0.015,262.503c0,3.11 2.559,5.669 5.669,5.669" style="fill:#c2c200;fill-opacity:0;fill-rule:nonzero;stroke:#000;stroke-width:0.03px;"/>
            <path d="M802.215,268.172c0.002,0 0.003,0 0.005,0c3.11,0 5.669,-2.559 5.669,-5.669" style="fill:#c2c200;fill-opacity:0;fill-rule:nonzero;stroke:#000;stroke-width:0.03px;"/>
            <path d="M807.889,5.684c0,0 0,0 0,0c0,-3.11 -2.559,-5.669 -5.669,-5.669c-0.002,0 -0.003,0 -0.005,0" style="fill:#c2c200;fill-opacity:0;fill-rule:nonzero;stroke:#000;stroke-width:0.03px;"/>
            <path d="M0.014,262.497l0,-256.816" style="fill:none;stroke:#000;stroke-width:0.03px;"/>
            <path d="M807.882,262.497l0,-256.816" style="fill:none;stroke:#000;stroke-width:0.03px;"/>
            <path d="M802.215,0.014l-796.534,0" style="fill:none;stroke:#000;stroke-width:0.03px;"/>
        </g>
        <g id="Artisan-hole" serif:id="Artisan hole">
            <path d="M423.523,45.895l2.31,0l0,9.921l-2.31,0l0,14.202l2.31,0l0,9.921l-2.31,0l0,2.778l-39.6,0l0,-2.778l-2.31,0l0,-9.921l2.31,0l0,-14.202l-2.31,0l0,-9.921l2.31,0l0,-2.778l39.6,0l0,2.778Zm-39.571,-2.75l0,2.778l-2.311,0l0,9.865l2.311,0l0,14.258l-2.311,0l0,9.865l2.311,0l0,2.778l39.543,0l0,-2.778l2.31,0l0,-9.865l-2.31,0l0,-14.258l2.31,0l0,-9.865l-2.31,0l0,-2.778l-39.543,0Z"/>
        </g>
        <g id="Key-holes" serif:id="Key holes">
            <g id="Switch-holes" serif:id="Switch holes">
                <path d="M73.245,13.929l-0.483,2.736l2.275,0.401l-1.722,9.771l-2.276,-0.401l-2.466,13.985l2.276,0.402l-1.723,9.77l-2.275,-0.401l-0.483,2.736l-38.998,-6.877l0.482,-2.735l-2.275,-0.402l1.723,-9.77l2.275,0.401l2.466,-13.986l-2.275,-0.401l1.723,-9.77l2.275,0.401l0.482,-2.736l38.999,6.876Zm-39.458,-4.107l-2.275,-0.402l-1.713,9.715l2.275,0.401l-2.476,14.042l-2.275,-0.401l-1.713,9.714l2.275,0.402l-0.482,2.735l38.942,6.867l0.483,-2.736l2.275,0.401l1.713,-9.714l-2.275,-0.402l2.475,-14.041l2.276,0.401l1.713,-9.715l-2.276,-0.401l0.483,-2.736l-38.943,-6.866l-0.482,2.736Z"/>
                <path d="M63.869,67.1l-0.482,2.735l2.275,0.401l-1.723,9.771l-2.275,-0.401l-2.466,13.986l2.275,0.401l-1.723,9.77l-2.275,-0.401l-0.482,2.736l-38.999,-6.877l0.483,-2.735l-2.275,-0.401l1.723,-9.771l2.275,0.401l2.466,-13.986l-2.275,-0.401l1.722,-9.77l2.276,0.401l0.482,-2.736l38.998,6.877Zm-39.457,-4.108l-2.276,-0.401l-1.713,9.714l2.276,0.401l-2.476,14.042l-2.275,-0.401l-1.713,9.715l2.275,0.401l-0.483,2.735l38.943,6.867l0.482,-2.736l2.275,0.402l1.713,-9.715l-2.275,-0.401l2.476,-14.042l2.275,0.401l1.713,-9.715l-2.275,-0.401l0.482,-2.735l-38.942,-6.867l-0.482,2.736Z"/>
                <path d="M54.494,120.27l-0.482,2.735l2.275,0.402l-1.723,9.77l-2.275,-0.401l-2.466,13.986l2.275,0.401l-1.723,9.771l-2.275,-0.402l-0.482,2.736l-38.999,-6.876l0.483,-2.736l-2.276,-0.401l1.723,-9.771l2.275,0.401l2.466,-13.985l-2.275,-0.402l1.723,-9.77l2.275,0.401l0.483,-2.736l38.998,6.877Zm-39.458,-4.108l-2.275,-0.401l-1.713,9.714l2.275,0.402l-2.476,14.041l-2.275,-0.401l-1.713,9.715l2.275,0.401l-0.482,2.736l38.943,6.866l0.482,-2.735l2.275,0.401l1.713,-9.715l-2.275,-0.401l2.476,-14.042l2.275,0.401l1.713,-9.714l-2.275,-0.402l0.482,-2.735l-38.942,-6.867l-0.483,2.736Z"/>
                <path d="M127.974,14.438l-0.482,2.736l2.275,0.401l-1.723,9.771l-2.275,-0.401l-2.466,13.986l2.275,0.401l-1.722,9.77l-2.276,-0.401l-0.482,2.736l-38.998,-6.877l0.482,-2.735l-2.275,-0.402l1.723,-9.77l2.275,0.401l2.466,-13.986l-2.275,-0.401l1.723,-9.77l2.275,0.401l0.482,-2.736l38.998,6.876Zm-39.457,-4.107l-2.275,-0.402l-1.713,9.715l2.275,0.401l-2.476,14.042l-2.275,-0.401l-1.713,9.714l2.275,0.402l-0.483,2.735l38.943,6.867l0.482,-2.736l2.276,0.401l1.712,-9.714l-2.275,-0.401l2.476,-14.042l2.275,0.401l1.713,-9.715l-2.275,-0.401l0.483,-2.736l-38.943,-6.866l-0.482,2.736Z"/>
                <path d="M118.599,67.609l-0.482,2.735l2.275,0.402l-1.723,9.77l-2.275,-0.401l-2.466,13.986l2.275,0.401l-1.723,9.77l-2.275,-0.401l-0.482,2.736l-38.999,-6.876l0.483,-2.736l-2.275,-0.401l1.722,-9.771l2.275,0.401l2.467,-13.986l-2.276,-0.401l1.723,-9.77l2.275,0.401l0.483,-2.736l38.998,6.877Zm-39.458,-4.108l-2.275,-0.401l-1.713,9.714l2.275,0.401l-2.476,14.042l-2.275,-0.401l-1.713,9.715l2.276,0.401l-0.483,2.736l38.943,6.866l0.482,-2.736l2.275,0.402l1.713,-9.715l-2.275,-0.401l2.476,-14.042l2.275,0.401l1.713,-9.714l-2.275,-0.402l0.482,-2.735l-38.942,-6.867l-0.483,2.736Z"/>
                <path d="M109.224,120.779l-0.483,2.736l2.276,0.401l-1.723,9.77l-2.275,-0.401l-2.466,13.986l2.275,0.401l-1.723,9.771l-2.275,-0.402l-0.483,2.736l-38.998,-6.876l0.482,-2.736l-2.275,-0.401l1.723,-9.771l2.275,0.401l2.466,-13.985l-2.275,-0.402l1.723,-9.77l2.275,0.401l0.482,-2.736l38.999,6.877Zm-39.458,-4.108l-2.275,-0.401l-1.713,9.714l2.275,0.402l-2.476,14.041l-2.275,-0.401l-1.713,9.715l2.275,0.401l-0.482,2.736l38.942,6.866l0.483,-2.735l2.275,0.401l1.713,-9.715l-2.275,-0.401l2.476,-14.042l2.275,0.401l1.713,-9.714l-2.275,-0.401l0.482,-2.736l-38.943,-6.867l-0.482,2.736Z"/>
                <path d="M99.848,173.949l-0.482,2.736l2.275,0.401l-1.723,9.77l-2.275,-0.401l-2.466,13.986l2.275,0.401l-1.722,9.771l-2.276,-0.401l-0.482,2.735l-38.998,-6.876l0.482,-2.736l-2.275,-0.401l1.723,-9.771l2.275,0.402l2.466,-13.986l-2.275,-0.401l1.723,-9.771l2.275,0.401l0.482,-2.735l38.998,6.876Zm-39.457,-4.108l-2.275,-0.401l-1.713,9.715l2.275,0.401l-2.476,14.041l-2.275,-0.401l-1.713,9.715l2.275,0.401l-0.483,2.736l38.943,6.867l0.482,-2.736l2.276,0.401l1.712,-9.715l-2.275,-0.401l2.476,-14.042l2.275,0.402l1.713,-9.715l-2.275,-0.401l0.483,-2.736l-38.943,-6.867l-0.482,2.736Z"/>
                <path d="M182.703,14.952l-0.482,2.736l2.275,0.401l-1.723,9.771l-2.275,-0.401l-2.466,13.985l2.275,0.402l-1.722,9.77l-2.276,-0.401l-0.482,2.736l-38.998,-6.877l0.482,-2.736l-2.275,-0.401l1.723,-9.77l2.275,0.401l2.466,-13.986l-2.275,-0.401l1.723,-9.771l2.275,0.402l0.482,-2.736l38.998,6.876Zm-39.457,-4.108l-2.275,-0.401l-1.713,9.715l2.275,0.401l-2.476,14.042l-2.275,-0.401l-1.713,9.714l2.275,0.401l-0.483,2.736l38.943,6.867l0.482,-2.736l2.276,0.401l1.712,-9.714l-2.275,-0.402l2.476,-14.041l2.275,0.401l1.713,-9.715l-2.275,-0.401l0.483,-2.736l-38.943,-6.866l-0.482,2.735Z"/>
                <path d="M173.328,68.122l-0.482,2.736l2.275,0.401l-1.723,9.771l-2.275,-0.401l-2.466,13.986l2.275,0.401l-1.723,9.77l-2.275,-0.401l-0.482,2.736l-38.999,-6.877l0.483,-2.735l-2.275,-0.402l1.722,-9.77l2.275,0.401l2.467,-13.986l-2.276,-0.401l1.723,-9.77l2.275,0.401l0.483,-2.736l38.998,6.876Zm-39.458,-4.107l-2.275,-0.402l-1.713,9.715l2.275,0.401l-2.476,14.042l-2.275,-0.401l-1.713,9.714l2.275,0.402l-0.482,2.735l38.943,6.867l0.482,-2.736l2.275,0.401l1.713,-9.714l-2.275,-0.401l2.476,-14.042l2.275,0.401l1.713,-9.715l-2.275,-0.401l0.482,-2.736l-38.942,-6.866l-0.483,2.736Z"/>
                <path d="M163.953,121.293l-0.483,2.735l2.276,0.402l-1.723,9.77l-2.275,-0.401l-2.466,13.986l2.275,0.401l-1.723,9.77l-2.275,-0.401l-0.483,2.736l-38.998,-6.876l0.482,-2.736l-2.275,-0.401l1.723,-9.771l2.275,0.401l2.466,-13.986l-2.275,-0.401l1.723,-9.77l2.275,0.401l0.482,-2.736l38.999,6.877Zm-39.458,-4.108l-2.275,-0.401l-1.713,9.714l2.275,0.401l-2.476,14.042l-2.275,-0.401l-1.713,9.715l2.275,0.401l-0.482,2.736l38.942,6.866l0.483,-2.736l2.275,0.402l1.713,-9.715l-2.275,-0.401l2.476,-14.042l2.275,0.401l1.713,-9.714l-2.275,-0.402l0.482,-2.735l-38.943,-6.867l-0.482,2.736Z"/>
                <path d="M153.015,183.324l-0.482,2.735l2.275,0.402l-1.723,9.77l-2.275,-0.401l-2.466,13.986l2.275,0.401l-1.723,9.77l-2.275,-0.401l-0.482,2.736l-38.999,-6.876l0.483,-2.736l-2.276,-0.401l1.723,-9.771l2.275,0.401l2.466,-13.985l-2.275,-0.402l1.723,-9.77l2.275,0.401l0.483,-2.736l38.998,6.877Zm-39.458,-4.108l-2.275,-0.401l-1.713,9.714l2.275,0.402l-2.476,14.041l-2.275,-0.401l-1.713,9.715l2.275,0.401l-0.482,2.736l38.943,6.866l0.482,-2.736l2.275,0.402l1.713,-9.715l-2.275,-0.401l2.476,-14.042l2.275,0.401l1.713,-9.714l-2.275,-0.402l0.482,-2.735l-38.942,-6.867l-0.483,2.736Z"/>
                <path d="M237.43,15.478l-0.482,2.735l2.275,0.402l-1.723,9.77l-2.275,-0.401l-2.466,13.986l2.275,0.401l-1.723,9.77l-2.275,-0.401l-0.482,2.736l-38.998,-6.876l0.482,-2.736l-2.275,-0.401l1.723,-9.771l2.275,0.401l2.466,-13.986l-2.275,-0.401l1.722,-9.77l2.276,0.401l0.482,-2.736l38.998,6.877Zm-39.457,-4.108l-2.276,-0.401l-1.713,9.714l2.276,0.401l-2.476,14.042l-2.275,-0.401l-1.713,9.715l2.275,0.401l-0.483,2.736l38.943,6.866l0.482,-2.736l2.275,0.402l1.713,-9.715l-2.275,-0.401l2.476,-14.042l2.275,0.401l1.713,-9.714l-2.275,-0.402l0.483,-2.735l-38.943,-6.867l-0.482,2.736Z"/>
                <path d="M228.055,68.648l-0.482,2.736l2.275,0.401l-1.723,9.77l-2.275,-0.401l-2.466,13.986l2.275,0.401l-1.723,9.771l-2.275,-0.402l-0.482,2.736l-38.999,-6.876l0.483,-2.736l-2.276,-0.401l1.723,-9.771l2.275,0.401l2.466,-13.985l-2.275,-0.402l1.723,-9.77l2.275,0.401l0.483,-2.736l38.998,6.877Zm-39.458,-4.108l-2.275,-0.401l-1.713,9.714l2.275,0.402l-2.476,14.041l-2.275,-0.401l-1.713,9.715l2.275,0.401l-0.482,2.736l38.943,6.866l0.482,-2.735l2.275,0.401l1.713,-9.715l-2.275,-0.401l2.476,-14.042l2.275,0.401l1.713,-9.714l-2.275,-0.401l0.482,-2.736l-38.942,-6.867l-0.483,2.736Z"/>
                <path d="M218.68,121.818l-0.483,2.736l2.275,0.401l-1.722,9.77l-2.275,-0.401l-2.467,13.986l2.276,0.401l-1.723,9.771l-2.275,-0.401l-0.483,2.735l-38.998,-6.876l0.482,-2.736l-2.275,-0.401l1.723,-9.771l2.275,0.402l2.466,-13.986l-2.275,-0.401l1.723,-9.771l2.275,0.401l0.482,-2.735l38.999,6.876Zm-39.458,-4.108l-2.275,-0.401l-1.713,9.715l2.275,0.401l-2.476,14.041l-2.275,-0.401l-1.713,9.715l2.275,0.401l-0.482,2.736l38.942,6.867l0.483,-2.736l2.275,0.401l1.713,-9.715l-2.275,-0.401l2.476,-14.042l2.275,0.402l1.713,-9.715l-2.276,-0.401l0.483,-2.736l-38.943,-6.867l-0.482,2.736Z"/>
                <path d="M206.182,192.698l-0.483,2.736l2.275,0.401l-1.722,9.771l-2.276,-0.401l-2.466,13.985l2.275,0.402l-1.722,9.77l-2.276,-0.401l-0.482,2.736l-38.998,-6.877l0.482,-2.735l-2.275,-0.402l1.723,-9.77l2.275,0.401l2.466,-13.986l-2.275,-0.401l1.723,-9.77l2.275,0.401l0.482,-2.736l38.999,6.876Zm-39.458,-4.107l-2.275,-0.402l-1.713,9.715l2.275,0.401l-2.476,14.042l-2.275,-0.401l-1.713,9.714l2.275,0.402l-0.482,2.735l38.942,6.867l0.482,-2.736l2.276,0.401l1.713,-9.714l-2.276,-0.402l2.476,-14.041l2.276,0.401l1.712,-9.715l-2.275,-0.401l0.483,-2.736l-38.943,-6.866l-0.482,2.736Z"/>
                <path d="M289.037,33.702l-0.483,2.735l2.275,0.402l-1.722,9.77l-2.276,-0.401l-2.466,13.986l2.275,0.401l-1.722,9.77l-2.276,-0.401l-0.482,2.736l-38.998,-6.876l0.482,-2.736l-2.275,-0.401l1.723,-9.771l2.275,0.401l2.466,-13.986l-2.275,-0.401l1.723,-9.77l2.275,0.401l0.482,-2.736l38.999,6.877Zm-39.458,-4.108l-2.275,-0.401l-1.713,9.714l2.275,0.401l-2.476,14.042l-2.275,-0.401l-1.713,9.715l2.275,0.401l-0.482,2.736l38.942,6.866l0.482,-2.736l2.276,0.402l1.713,-9.715l-2.276,-0.401l2.476,-14.042l2.276,0.401l1.712,-9.714l-2.275,-0.402l0.483,-2.735l-38.943,-6.867l-0.482,2.736Z"/>
                <path d="M342.223,43.08l-0.482,2.736l2.275,0.401l-1.723,9.77l-2.275,-0.401l-2.466,13.986l2.275,0.401l-1.723,9.771l-2.275,-0.401l-0.482,2.735l-38.998,-6.876l0.482,-2.736l-2.275,-0.401l1.723,-9.771l2.275,0.402l2.466,-13.986l-2.275,-0.401l1.723,-9.771l2.275,0.401l0.482,-2.736l38.998,6.877Zm-39.457,-4.108l-2.275,-0.401l-1.713,9.715l2.275,0.401l-2.476,14.041l-2.275,-0.401l-1.713,9.715l2.275,0.401l-0.483,2.736l38.943,6.866l0.482,-2.735l2.276,0.401l1.712,-9.715l-2.275,-0.401l2.476,-14.042l2.275,0.402l1.713,-9.715l-2.275,-0.401l0.483,-2.736l-38.943,-6.867l-0.482,2.736Z"/>
                <path d="M279.661,86.872l-0.482,2.736l2.275,0.401l-1.723,9.77l-2.275,-0.401l-2.466,13.986l2.275,0.401l-1.723,9.771l-2.275,-0.402l-0.482,2.736l-38.999,-6.876l0.483,-2.736l-2.275,-0.401l1.722,-9.771l2.276,0.401l2.466,-13.985l-2.275,-0.402l1.722,-9.77l2.275,0.401l0.483,-2.736l38.998,6.877Zm-39.458,-4.108l-2.275,-0.401l-1.713,9.714l2.275,0.402l-2.475,14.041l-2.276,-0.401l-1.713,9.715l2.276,0.401l-0.483,2.736l38.943,6.866l0.482,-2.735l2.275,0.401l1.713,-9.715l-2.275,-0.401l2.476,-14.042l2.275,0.401l1.713,-9.714l-2.275,-0.401l0.482,-2.736l-38.942,-6.867l-0.483,2.736Z"/>
                <path d="M332.848,96.25l-0.482,2.736l2.275,0.401l-1.723,9.771l-2.275,-0.402l-2.466,13.986l2.275,0.401l-1.723,9.771l-2.275,-0.401l-0.482,2.735l-38.999,-6.876l0.483,-2.736l-2.276,-0.401l1.723,-9.77l2.275,0.401l2.467,-13.986l-2.276,-0.401l1.723,-9.771l2.275,0.401l0.483,-2.735l38.998,6.876Zm-39.458,-4.108l-2.275,-0.401l-1.713,9.715l2.275,0.401l-2.476,14.042l-2.275,-0.402l-1.713,9.715l2.275,0.401l-0.482,2.736l38.943,6.867l0.482,-2.736l2.275,0.401l1.713,-9.715l-2.275,-0.401l2.476,-14.041l2.275,0.401l1.713,-9.715l-2.275,-0.401l0.482,-2.736l-38.942,-6.867l-0.483,2.736Z"/>
                <path d="M270.286,140.042l-0.482,2.736l2.275,0.401l-1.723,9.77l-2.275,-0.401l-2.466,13.986l2.275,0.401l-1.723,9.771l-2.275,-0.401l-0.483,2.735l-38.998,-6.876l0.482,-2.736l-2.275,-0.401l1.723,-9.771l2.275,0.402l2.466,-13.986l-2.275,-0.401l1.723,-9.771l2.275,0.401l0.483,-2.735l38.998,6.876Zm-39.458,-4.108l-2.275,-0.401l-1.713,9.715l2.275,0.401l-2.476,14.041l-2.275,-0.401l-1.713,9.715l2.275,0.401l-0.482,2.736l38.942,6.867l0.483,-2.736l2.275,0.401l1.713,-9.715l-2.275,-0.401l2.476,-14.042l2.275,0.402l1.713,-9.715l-2.275,-0.401l0.482,-2.736l-38.943,-6.867l-0.482,2.736Z"/>
                <path d="M323.473,149.42l-0.483,2.736l2.276,0.401l-1.723,9.771l-2.275,-0.401l-2.467,13.985l2.276,0.402l-1.723,9.77l-2.275,-0.401l-0.483,2.736l-38.998,-6.877l0.482,-2.736l-2.275,-0.401l1.723,-9.77l2.275,0.401l2.466,-13.986l-2.275,-0.401l1.723,-9.771l2.275,0.402l0.482,-2.736l38.999,6.876Zm-39.458,-4.108l-2.275,-0.401l-1.713,9.715l2.275,0.401l-2.476,14.042l-2.275,-0.401l-1.713,9.714l2.275,0.401l-0.482,2.736l38.942,6.867l0.483,-2.736l2.275,0.401l1.713,-9.714l-2.275,-0.402l2.476,-14.041l2.275,0.401l1.713,-9.715l-2.275,-0.401l0.482,-2.736l-38.943,-6.866l-0.482,2.735Z"/>
                <path d="M259.348,202.073l-0.482,2.736l2.275,0.401l-1.723,9.771l-2.275,-0.402l-2.466,13.986l2.275,0.401l-1.723,9.771l-2.275,-0.401l-0.482,2.735l-38.999,-6.876l0.483,-2.736l-2.275,-0.401l1.722,-9.77l2.275,0.401l2.467,-13.986l-2.276,-0.401l1.723,-9.771l2.275,0.401l0.483,-2.735l38.998,6.876Zm-39.458,-4.108l-2.275,-0.401l-1.713,9.715l2.275,0.401l-2.476,14.042l-2.275,-0.402l-1.713,9.715l2.276,0.401l-0.483,2.736l38.943,6.867l0.482,-2.736l2.275,0.401l1.713,-9.715l-2.275,-0.401l2.476,-14.041l2.275,0.401l1.713,-9.715l-2.275,-0.401l0.482,-2.736l-38.942,-6.867l-0.483,2.736Z"/>
                <path d="M326.969,228.837l-1.785,2.128l1.77,1.485l-6.378,7.6l-1.769,-1.485l-9.129,10.879l1.77,1.485l-6.378,7.6l-1.769,-1.485l-1.786,2.128l-30.335,-25.454l1.785,-2.128l-1.769,-1.485l6.377,-7.6l1.77,1.485l9.128,-10.879l-1.77,-1.485l6.378,-7.6l1.769,1.485l1.786,-2.128l30.335,25.454Zm-32.117,-23.286l-1.77,-1.485l-6.341,7.556l1.77,1.485l-9.165,10.923l-1.77,-1.485l-6.34,7.556l1.769,1.485l-1.785,2.128l30.292,25.418l1.785,-2.128l1.77,1.485l6.341,-7.556l-1.77,-1.485l9.165,-10.923l1.77,1.485l6.341,-7.556l-1.77,-1.485l1.786,-2.129l-30.292,-25.417l-1.786,2.128Z"/>
                <path d="M774.272,9.724l2.275,-0.401l1.723,9.77l-2.275,0.401l2.466,13.986l2.275,-0.401l1.723,9.771l-2.276,0.401l0.483,2.735l-38.999,6.877l-0.482,-2.736l-2.275,0.401l-1.723,-9.77l2.275,-0.401l-2.466,-13.986l-2.275,0.401l-1.723,-9.771l2.275,-0.401l-0.482,-2.735l38.998,-6.877l0.483,2.736Zm-39.448,4.164l0.482,2.735l-2.275,0.401l1.713,9.715l2.275,-0.401l2.476,14.042l-2.275,0.401l1.713,9.715l2.275,-0.402l0.482,2.736l38.943,-6.867l-0.482,-2.735l2.275,-0.401l-1.713,-9.715l-2.275,0.401l-2.476,-14.042l2.275,-0.401l-1.713,-9.714l-2.275,0.401l-0.483,-2.736l-38.942,6.867Z"/>
                <path d="M783.647,62.894l2.275,-0.401l1.723,9.77l-2.275,0.402l2.466,13.985l2.275,-0.401l1.723,9.771l-2.275,0.401l0.482,2.736l-38.998,6.876l-0.483,-2.736l-2.275,0.402l-1.723,-9.771l2.276,-0.401l-2.467,-13.986l-2.275,0.401l-1.722,-9.77l2.275,-0.402l-0.483,-2.735l38.999,-6.877l0.482,2.736Zm-39.448,4.164l0.482,2.735l-2.275,0.402l1.713,9.714l2.275,-0.401l2.476,14.042l-2.275,0.401l1.713,9.715l2.275,-0.401l0.483,2.735l38.942,-6.866l-0.482,-2.736l2.275,-0.401l-1.713,-9.715l-2.275,0.401l-2.476,-14.041l2.275,-0.402l-1.713,-9.714l-2.275,0.401l-0.482,-2.736l-38.943,6.867Z"/>
                <path d="M793.022,116.064l2.276,-0.401l1.722,9.771l-2.275,0.401l2.466,13.986l2.275,-0.402l1.723,9.771l-2.275,0.401l0.482,2.736l-38.998,6.876l-0.482,-2.735l-2.275,0.401l-1.723,-9.771l2.275,-0.401l-2.466,-13.986l-2.275,0.401l-1.723,-9.77l2.275,-0.401l-0.482,-2.736l38.998,-6.877l0.482,2.736Zm-39.448,4.164l0.483,2.736l-2.275,0.401l1.713,9.715l2.275,-0.402l2.476,14.042l-2.275,0.401l1.713,9.715l2.275,-0.401l0.482,2.735l38.943,-6.866l-0.483,-2.736l2.275,-0.401l-1.713,-9.715l-2.275,0.401l-2.476,-14.041l2.275,-0.401l-1.713,-9.715l-2.275,0.401l-0.482,-2.736l-38.943,6.867Z"/>
                <path d="M719.542,10.233l2.275,-0.401l1.723,9.77l-2.275,0.401l2.466,13.986l2.275,-0.401l1.723,9.771l-2.275,0.401l0.482,2.736l-38.998,6.876l-0.483,-2.736l-2.275,0.401l-1.723,-9.77l2.275,-0.401l-2.466,-13.986l-2.275,0.401l-1.723,-9.77l2.276,-0.402l-0.483,-2.735l38.999,-6.877l0.482,2.736Zm-39.448,4.164l0.482,2.735l-2.275,0.402l1.713,9.714l2.275,-0.401l2.476,14.042l-2.275,0.401l1.713,9.715l2.275,-0.402l0.483,2.736l38.942,-6.866l-0.482,-2.736l2.275,-0.401l-1.713,-9.715l-2.275,0.401l-2.476,-14.042l2.275,-0.401l-1.713,-9.714l-2.275,0.401l-0.482,-2.736l-38.943,6.867Z"/>
                <path d="M728.917,63.403l2.275,-0.401l1.723,9.77l-2.275,0.402l2.466,13.985l2.275,-0.401l1.723,9.771l-2.275,0.401l0.482,2.736l-38.998,6.876l-0.482,-2.736l-2.276,0.402l-1.722,-9.771l2.275,-0.401l-2.466,-13.986l-2.275,0.401l-1.723,-9.77l2.275,-0.401l-0.483,-2.736l38.999,-6.877l0.482,2.736Zm-39.448,4.164l0.483,2.736l-2.275,0.401l1.712,9.714l2.276,-0.401l2.476,14.042l-2.276,0.401l1.713,9.715l2.276,-0.401l0.482,2.735l38.942,-6.866l-0.482,-2.736l2.275,-0.401l-1.713,-9.715l-2.275,0.401l-2.476,-14.041l2.275,-0.402l-1.713,-9.714l-2.275,0.401l-0.482,-2.736l-38.943,6.867Z"/>
                <path d="M738.293,116.573l2.275,-0.401l1.723,9.771l-2.276,0.401l2.466,13.986l2.276,-0.402l1.722,9.771l-2.275,0.401l0.483,2.736l-38.999,6.876l-0.482,-2.735l-2.275,0.401l-1.723,-9.771l2.275,-0.401l-2.466,-13.986l-2.275,0.401l-1.723,-9.77l2.275,-0.401l-0.482,-2.736l38.998,-6.876l0.483,2.735Zm-39.448,4.164l0.482,2.736l-2.275,0.401l1.713,9.715l2.275,-0.402l2.476,14.042l-2.275,0.401l1.713,9.715l2.275,-0.401l0.482,2.736l38.943,-6.867l-0.483,-2.736l2.276,-0.401l-1.713,-9.715l-2.276,0.401l-2.475,-14.041l2.275,-0.401l-1.713,-9.715l-2.275,0.401l-0.483,-2.736l-38.942,6.867Z"/>
                <path d="M747.668,169.743l2.275,-0.401l1.723,9.771l-2.275,0.401l2.466,13.986l2.275,-0.401l1.723,9.77l-2.275,0.401l0.482,2.736l-38.998,6.877l-0.483,-2.736l-2.275,0.401l-1.723,-9.771l2.275,-0.401l-2.466,-13.986l-2.275,0.402l-1.723,-9.771l2.276,-0.401l-0.483,-2.736l38.999,-6.876l0.482,2.735Zm-39.448,4.164l0.482,2.736l-2.275,0.401l1.713,9.715l2.275,-0.401l2.476,14.041l-2.275,0.401l1.713,9.715l2.275,-0.401l0.483,2.736l38.942,-6.867l-0.482,-2.736l2.275,-0.401l-1.713,-9.715l-2.275,0.402l-2.476,-14.042l2.275,-0.401l-1.713,-9.715l-2.275,0.401l-0.482,-2.735l-38.943,6.866Z"/>
                <path d="M664.813,10.747l2.275,-0.401l1.723,9.77l-2.275,0.401l2.466,13.986l2.275,-0.401l1.723,9.77l-2.275,0.402l0.482,2.735l-38.998,6.877l-0.483,-2.736l-2.275,0.401l-1.723,-9.77l2.275,-0.401l-2.466,-13.986l-2.275,0.401l-1.723,-9.771l2.276,-0.401l-0.483,-2.736l38.999,-6.876l0.482,2.736Zm-39.448,4.163l0.482,2.736l-2.275,0.401l1.713,9.715l2.275,-0.401l2.476,14.042l-2.275,0.401l1.713,9.714l2.275,-0.401l0.483,2.736l38.942,-6.867l-0.482,-2.735l2.275,-0.402l-1.713,-9.714l-2.275,0.401l-2.476,-14.042l2.275,-0.401l-1.713,-9.715l-2.275,0.402l-0.482,-2.736l-38.943,6.866Z"/>
                <path d="M674.188,63.917l2.275,-0.401l1.723,9.77l-2.275,0.401l2.466,13.986l2.275,-0.401l1.723,9.771l-2.275,0.401l0.482,2.736l-38.998,6.876l-0.482,-2.736l-2.276,0.401l-1.722,-9.77l2.275,-0.401l-2.466,-13.986l-2.275,0.401l-1.723,-9.77l2.275,-0.402l-0.483,-2.735l38.999,-6.877l0.482,2.736Zm-39.448,4.164l0.483,2.735l-2.275,0.402l1.713,9.714l2.275,-0.401l2.476,14.042l-2.276,0.401l1.713,9.715l2.276,-0.402l0.482,2.736l38.942,-6.866l-0.482,-2.736l2.275,-0.401l-1.713,-9.715l-2.275,0.401l-2.476,-14.042l2.275,-0.401l-1.713,-9.714l-2.275,0.401l-0.482,-2.736l-38.943,6.867Z"/>
                <path d="M683.564,117.087l2.275,-0.401l1.723,9.77l-2.276,0.402l2.466,13.985l2.276,-0.401l1.722,9.771l-2.275,0.401l0.483,2.736l-38.999,6.876l-0.482,-2.736l-2.275,0.402l-1.723,-9.771l2.275,-0.401l-2.466,-13.986l-2.275,0.401l-1.723,-9.77l2.275,-0.401l-0.482,-2.736l38.998,-6.877l0.483,2.736Zm-39.448,4.164l0.482,2.736l-2.275,0.401l1.713,9.714l2.275,-0.401l2.476,14.042l-2.275,0.401l1.713,9.715l2.275,-0.401l0.482,2.735l38.943,-6.866l-0.483,-2.736l2.276,-0.401l-1.713,-9.715l-2.276,0.401l-2.475,-14.041l2.275,-0.402l-1.713,-9.714l-2.275,0.401l-0.483,-2.736l-38.942,6.867Z"/>
                <path d="M694.501,179.118l2.275,-0.401l1.723,9.771l-2.275,0.401l2.466,13.986l2.275,-0.402l1.723,9.771l-2.275,0.401l0.482,2.736l-38.998,6.876l-0.482,-2.735l-2.275,0.401l-1.723,-9.771l2.275,-0.401l-2.466,-13.986l-2.275,0.401l-1.723,-9.77l2.275,-0.401l-0.482,-2.736l38.998,-6.877l0.482,2.736Zm-39.448,4.164l0.483,2.736l-2.275,0.401l1.713,9.714l2.275,-0.401l2.476,14.042l-2.275,0.401l1.713,9.715l2.275,-0.401l0.482,2.735l38.943,-6.866l-0.483,-2.736l2.275,-0.401l-1.713,-9.715l-2.275,0.401l-2.476,-14.041l2.275,-0.401l-1.713,-9.715l-2.275,0.401l-0.482,-2.736l-38.943,6.867Z"/>
                <path d="M610.086,11.272l2.275,-0.401l1.723,9.77l-2.275,0.402l2.466,13.985l2.275,-0.401l1.723,9.771l-2.275,0.401l0.482,2.736l-38.998,6.876l-0.483,-2.736l-2.275,0.402l-1.723,-9.771l2.275,-0.401l-2.466,-13.986l-2.275,0.401l-1.723,-9.77l2.276,-0.401l-0.483,-2.736l38.999,-6.877l0.482,2.736Zm-39.448,4.164l0.482,2.736l-2.275,0.401l1.713,9.714l2.275,-0.401l2.476,14.042l-2.275,0.401l1.713,9.715l2.275,-0.401l0.483,2.735l38.942,-6.866l-0.482,-2.736l2.275,-0.401l-1.713,-9.715l-2.275,0.401l-2.476,-14.041l2.275,-0.402l-1.713,-9.714l-2.275,0.401l-0.482,-2.736l-38.943,6.867Z"/>
                <path d="M619.461,64.442l2.275,-0.401l1.723,9.771l-2.275,0.401l2.466,13.986l2.275,-0.402l1.723,9.771l-2.275,0.401l0.482,2.736l-38.998,6.876l-0.482,-2.735l-2.276,0.401l-1.722,-9.771l2.275,-0.401l-2.466,-13.986l-2.275,0.401l-1.723,-9.77l2.275,-0.401l-0.482,-2.736l38.998,-6.876l0.482,2.735Zm-39.448,4.164l0.483,2.736l-2.275,0.401l1.713,9.715l2.275,-0.402l2.476,14.042l-2.275,0.401l1.712,9.715l2.276,-0.401l0.482,2.736l38.943,-6.867l-0.483,-2.736l2.275,-0.401l-1.713,-9.715l-2.275,0.401l-2.476,-14.041l2.275,-0.401l-1.713,-9.715l-2.275,0.401l-0.482,-2.736l-38.943,6.867Z"/>
                <path d="M628.837,117.612l2.275,-0.401l1.723,9.771l-2.276,0.401l2.467,13.986l2.275,-0.401l1.722,9.77l-2.275,0.401l0.483,2.736l-38.999,6.877l-0.482,-2.736l-2.275,0.401l-1.723,-9.771l2.275,-0.401l-2.466,-13.986l-2.275,0.402l-1.723,-9.771l2.275,-0.401l-0.482,-2.736l38.998,-6.876l0.483,2.735Zm-39.448,4.164l0.482,2.736l-2.275,0.401l1.713,9.715l2.275,-0.401l2.476,14.041l-2.275,0.401l1.713,9.715l2.275,-0.401l0.482,2.736l38.943,-6.867l-0.482,-2.736l2.275,-0.401l-1.713,-9.715l-2.275,0.402l-2.476,-14.042l2.275,-0.401l-1.713,-9.715l-2.275,0.401l-0.483,-2.735l-38.942,6.866Z"/>
                <path d="M641.335,188.493l2.275,-0.401l1.723,9.77l-2.275,0.401l2.466,13.986l2.275,-0.401l1.723,9.771l-2.276,0.401l0.483,2.735l-38.999,6.877l-0.482,-2.736l-2.275,0.401l-1.723,-9.77l2.275,-0.401l-2.466,-13.986l-2.275,0.401l-1.723,-9.771l2.275,-0.401l-0.482,-2.735l38.998,-6.877l0.483,2.736Zm-39.448,4.164l0.482,2.735l-2.275,0.401l1.713,9.715l2.275,-0.401l2.476,14.042l-2.275,0.401l1.713,9.715l2.275,-0.402l0.482,2.736l38.943,-6.866l-0.482,-2.736l2.275,-0.401l-1.713,-9.715l-2.275,0.401l-2.476,-14.042l2.275,-0.401l-1.713,-9.714l-2.275,0.401l-0.483,-2.736l-38.942,6.867Z"/>
                <path d="M558.48,29.496l2.275,-0.401l1.723,9.77l-2.275,0.402l2.466,13.985l2.275,-0.401l1.723,9.771l-2.275,0.401l0.482,2.736l-38.998,6.876l-0.483,-2.736l-2.275,0.402l-1.723,-9.771l2.275,-0.401l-2.466,-13.986l-2.275,0.401l-1.723,-9.77l2.275,-0.401l-0.482,-2.736l38.998,-6.877l0.483,2.736Zm-39.448,4.164l0.482,2.736l-2.275,0.401l1.713,9.714l2.275,-0.401l2.476,14.042l-2.275,0.401l1.713,9.715l2.275,-0.401l0.482,2.735l38.943,-6.866l-0.482,-2.736l2.275,-0.401l-1.713,-9.715l-2.275,0.401l-2.476,-14.041l2.275,-0.402l-1.713,-9.714l-2.275,0.401l-0.483,-2.736l-38.942,6.867Z"/>
                <path d="M505.293,38.874l2.275,-0.401l1.723,9.771l-2.275,0.401l2.466,13.986l2.275,-0.401l1.723,9.77l-2.275,0.401l0.482,2.736l-38.998,6.876l-0.483,-2.735l-2.275,0.401l-1.723,-9.771l2.275,-0.401l-2.466,-13.986l-2.275,0.402l-1.723,-9.771l2.276,-0.401l-0.483,-2.736l38.999,-6.876l0.482,2.735Zm-39.448,4.164l0.482,2.736l-2.275,0.401l1.713,9.715l2.275,-0.401l2.476,14.041l-2.275,0.401l1.713,9.715l2.275,-0.401l0.483,2.736l38.942,-6.867l-0.482,-2.736l2.275,-0.401l-1.713,-9.715l-2.275,0.402l-2.476,-14.042l2.275,-0.401l-1.713,-9.715l-2.275,0.401l-0.482,-2.736l-38.943,6.867Z"/>
                <path d="M567.855,82.666l2.275,-0.401l1.723,9.771l-2.275,0.401l2.466,13.986l2.275,-0.402l1.723,9.771l-2.275,0.401l0.482,2.736l-38.998,6.876l-0.483,-2.735l-2.275,0.401l-1.722,-9.771l2.275,-0.401l-2.466,-13.986l-2.276,0.401l-1.722,-9.77l2.275,-0.401l-0.483,-2.736l38.999,-6.876l0.482,2.735Zm-39.448,4.164l0.483,2.736l-2.276,0.401l1.713,9.715l2.276,-0.402l2.475,14.042l-2.275,0.401l1.713,9.715l2.275,-0.401l0.483,2.736l38.942,-6.867l-0.482,-2.736l2.275,-0.401l-1.713,-9.715l-2.275,0.401l-2.476,-14.041l2.275,-0.401l-1.713,-9.715l-2.275,0.401l-0.482,-2.736l-38.943,6.867Z"/>
                <path d="M514.668,92.045l2.275,-0.402l1.723,9.771l-2.275,0.401l2.466,13.986l2.275,-0.401l1.723,9.77l-2.275,0.401l0.482,2.736l-38.998,6.877l-0.482,-2.736l-2.276,0.401l-1.722,-9.77l2.275,-0.402l-2.466,-13.985l-2.275,0.401l-1.723,-9.771l2.275,-0.401l-0.483,-2.736l38.999,-6.876l0.482,2.736Zm-39.448,4.163l0.483,2.736l-2.275,0.401l1.713,9.715l2.275,-0.401l2.476,14.041l-2.276,0.402l1.713,9.714l2.276,-0.401l0.482,2.736l38.943,-6.867l-0.483,-2.736l2.275,-0.401l-1.713,-9.714l-2.275,0.401l-2.476,-14.042l2.275,-0.401l-1.713,-9.715l-2.275,0.401l-0.482,-2.735l-38.943,6.866Z"/>
                <path d="M577.23,135.836l2.276,-0.401l1.722,9.771l-2.275,0.401l2.466,13.986l2.276,-0.401l1.722,9.77l-2.275,0.401l0.483,2.736l-38.999,6.877l-0.482,-2.736l-2.275,0.401l-1.723,-9.771l2.275,-0.401l-2.466,-13.986l-2.275,0.402l-1.723,-9.771l2.275,-0.401l-0.482,-2.736l38.998,-6.876l0.482,2.735Zm-39.447,4.164l0.482,2.736l-2.275,0.401l1.713,9.715l2.275,-0.401l2.476,14.041l-2.275,0.401l1.713,9.715l2.275,-0.401l0.482,2.736l38.943,-6.867l-0.483,-2.736l2.275,-0.401l-1.712,-9.715l-2.276,0.402l-2.476,-14.042l2.276,-0.401l-1.713,-9.715l-2.276,0.401l-0.482,-2.735l-38.942,6.866Z"/>
                <path d="M524.044,145.215l2.275,-0.401l1.723,9.77l-2.276,0.401l2.466,13.986l2.276,-0.401l1.722,9.77l-2.275,0.402l0.483,2.735l-38.999,6.877l-0.482,-2.736l-2.275,0.401l-1.723,-9.77l2.275,-0.401l-2.466,-13.986l-2.275,0.401l-1.723,-9.771l2.275,-0.401l-0.482,-2.736l38.998,-6.876l0.483,2.736Zm-39.448,4.163l0.482,2.736l-2.275,0.401l1.713,9.715l2.275,-0.401l2.476,14.042l-2.275,0.401l1.713,9.714l2.275,-0.401l0.482,2.736l38.943,-6.867l-0.483,-2.735l2.276,-0.402l-1.713,-9.714l-2.276,0.401l-2.475,-14.042l2.275,-0.401l-1.713,-9.715l-2.275,0.402l-0.483,-2.736l-38.942,6.866Z"/>
                <path d="M588.168,197.868l2.275,-0.402l1.723,9.771l-2.275,0.401l2.466,13.986l2.275,-0.401l1.723,9.77l-2.275,0.401l0.482,2.736l-38.998,6.877l-0.482,-2.736l-2.276,0.401l-1.722,-9.77l2.275,-0.402l-2.466,-13.985l-2.275,0.401l-1.723,-9.771l2.275,-0.401l-0.483,-2.736l38.999,-6.876l0.482,2.736Zm-39.448,4.163l0.483,2.736l-2.275,0.401l1.713,9.715l2.275,-0.401l2.476,14.041l-2.276,0.402l1.713,9.714l2.276,-0.401l0.482,2.736l38.942,-6.867l-0.482,-2.736l2.275,-0.401l-1.713,-9.714l-2.275,0.401l-2.476,-14.042l2.275,-0.401l-1.713,-9.715l-2.275,0.401l-0.482,-2.735l-38.943,6.866Z"/>
                <path d="M513.187,205.446l1.77,-1.485l6.377,7.6l-1.77,1.485l9.129,10.879l1.77,-1.485l6.377,7.6l-1.77,1.485l1.786,2.128l-30.335,25.455l-1.786,-2.129l-1.77,1.485l-6.377,-7.6l1.77,-1.485l-9.129,-10.879l-1.77,1.485l-6.377,-7.6l1.77,-1.485l-1.786,-2.128l30.335,-25.454l1.786,2.128Zm-32.081,23.33l1.786,2.128l-1.77,1.485l6.341,7.556l1.77,-1.485l9.165,10.923l-1.77,1.485l6.341,7.557l1.769,-1.485l1.786,2.128l30.292,-25.418l-1.786,-2.128l1.77,-1.485l-6.341,-7.557l-1.77,1.485l-9.165,-10.923l1.77,-1.485l-6.341,-7.556l-1.769,1.485l-1.786,-2.128l-30.292,25.418Z"/>
            </g>
            <g id="v2.2-thumbies" serif:id="v2.2 thumbies">
                <path d="M380.233,199.958l-1.786,2.128l1.77,1.485l-6.377,7.6l-1.77,-1.485l-9.128,10.879l1.769,1.485l-6.377,7.601l-1.77,-1.485l-1.785,2.128l-30.336,-25.455l1.786,-2.128l-1.77,-1.485l6.378,-7.6l1.769,1.485l9.129,-10.879l-1.77,-1.485l6.377,-7.6l1.77,1.485l1.786,-2.128l30.335,25.454Zm-32.117,-23.286l-1.77,-1.485l-6.341,7.556l1.77,1.485l-9.165,10.923l-1.77,-1.485l-6.341,7.557l1.77,1.485l-1.786,2.128l30.292,25.418l1.786,-2.128l1.77,1.485l6.34,-7.557l-1.769,-1.485l9.165,-10.923l1.769,1.485l6.341,-7.556l-1.769,-1.485l1.785,-2.128l-30.292,-25.418l-1.785,2.128Z"/>
            </g>
            <g id="v2.2-thumbies1" serif:id="v2.2 thumbies">
                <path d="M459.598,176.499l1.769,-1.485l6.378,7.6l-1.77,1.485l9.128,10.879l1.77,-1.485l6.377,7.6l-1.769,1.485l1.785,2.128l-30.335,25.454l-1.786,-2.128l-1.769,1.485l-6.378,-7.6l1.77,-1.485l-9.129,-10.879l-1.769,1.485l-6.378,-7.6l1.77,-1.485l-1.785,-2.128l30.335,-25.454l1.786,2.128Zm-32.082,23.33l1.786,2.128l-1.77,1.485l6.341,7.556l1.77,-1.485l9.165,10.923l-1.77,1.485l6.341,7.557l1.77,-1.485l1.785,2.128l30.292,-25.418l-1.785,-2.128l1.769,-1.485l-6.34,-7.557l-1.77,1.485l-9.165,-10.923l1.77,-1.485l-6.341,-7.556l-1.77,1.485l-1.786,-2.128l-30.292,25.418Z"/>
            </g>
        </g>
        <circle id="Reset-hole" serif:id="Reset hole" cx="403.723" cy="11.001" r="5.669" style="fill:none;stroke:#000;stroke-width:0.03px;stroke-miterlimit:1.5;"/>
        <g id="Logo">
            <g id="Logo1" serif:id="Logo">
                <g>
                    <path d="M399.119,123.298c0.352,0 0.528,-0.088 0.528,-0.264c0,-0.088 -0.088,-0.22 -0.264,-0.396c-2.246,-1.894 -2.95,-2.466 -5.329,-4.184c-1.497,1.674 -1.937,2.202 -3.391,3.92l-8.896,0c0.265,-2.775 0.353,-4.757 0.485,-11.054l18.54,0c0.353,0 0.529,-0.088 0.529,-0.265c0,-0.088 -0.088,-0.22 -0.264,-0.396c-2.378,-1.938 -3.083,-2.466 -5.549,-4.272c-1.498,1.718 -1.982,2.246 -3.391,4.008l-26.909,0c-1.497,0 -2.818,-0.132 -4.315,-0.397l0.264,1.586c1.233,-0.176 2.51,-0.264 3.963,-0.264l11.847,0c0,6.121 -0.088,8.059 -0.352,11.054l-9.865,0c-1.806,0 -2.995,-0.133 -4.404,-0.441l0.264,1.63c1.101,-0.176 2.642,-0.265 4.14,-0.265l9.733,0c-0.705,5.638 -2.511,10.174 -5.682,14.225c-2.598,3.391 -5.769,5.946 -10.437,8.5l0.22,0.484c2.687,-0.792 3.92,-1.233 5.505,-1.981c2.819,-1.278 5.461,-3.039 7.707,-5.065c4.448,-4.096 6.914,-9.072 7.839,-15.766c0.485,2.95 0.793,4.36 1.454,6.253c1.805,5.549 4.932,10.041 9.556,13.697c1.938,1.541 3.611,2.554 4.184,2.554c0.264,0 0.396,-0.132 0.484,-0.528c0.749,-2.291 2.07,-3.7 4.448,-4.625l0.088,-0.44c-4.271,-1.057 -6.429,-1.806 -9.028,-3.303c-2.554,-1.453 -4.756,-3.347 -6.518,-5.549c-1.981,-2.51 -2.818,-4.316 -4.007,-8.456l16.823,0Z" style="fill:none;fill-rule:nonzero;stroke:#000;stroke-width:0.03px;stroke-linecap:butt;stroke-miterlimit:2;"/>
                    <path d="M416.352,146.992c2.95,-2.643 4.58,-4.757 6.121,-7.839c2.29,-4.492 4.249,-9.557 4.513,-18.541c0.176,-6.121 0.176,-6.121 0.22,-7.971c1.63,-0.044 1.982,-0.044 3.48,-0.132l0,27.348c-4.581,0.353 -4.236,0.353 -4.808,0.353c-0.397,0 -0.837,-0.044 -1.674,-0.132c1.321,5.549 1.541,6.209 2.07,6.209c0.396,0 0.572,-0.352 0.837,-1.806c7.751,-2.598 7.45,-2.598 10.973,-4.183c0.088,1.057 0.088,1.805 0.132,3.347c0,1.497 0.132,1.893 0.661,1.893c1.189,0 2.085,-2.422 2.085,-4.183c0,-2.114 -0.877,-5.681 -3.783,-9.293l-0.397,0.176c0.793,2.687 0.862,4.316 1.17,6.959c-1.145,0.132 -1.585,0.22 -2.907,0.352l0,-27.349c1.894,-0.22 2.467,-0.264 3.964,-0.484c0.044,4.272 0.088,5.549 0.352,9.425c0.749,10.789 3.016,16.382 6.231,23.076c0.484,1.013 0.837,1.41 1.145,1.41c0.176,0 0.308,-0.177 0.396,-0.529c0.705,-3.039 1.189,-3.919 2.863,-4.976l0.088,-0.397c-1.718,-1.805 -2.422,-2.774 -3.391,-4.404c-1.542,-2.598 -3.897,-6.297 -4.91,-10.657c-0.968,-4.316 -1.321,-7.091 -1.717,-13.08c1.497,-0.264 1.982,-0.352 3.831,-0.793c0.617,0.132 1.454,0.264 1.63,0.264c0.308,0 0.572,-0.176 0.572,-0.44c0,-0.44 -0.66,-0.925 -5.461,-4.008c-1.321,1.013 -1.981,1.366 -4.227,2.202c-2.951,1.145 -6.078,2.114 -8.94,2.775c-2.158,-1.101 -2.474,-1.409 -4.676,-2.29c0.176,1.85 0.176,2.466 0.176,4.712c0,10.393 -1.775,16.515 -2.788,21.844c-0.881,4.536 -1.938,7.31 -4.184,10.878l0.353,0.264Zm-12.389,-5.153c3.788,1.233 4.757,2.026 4.845,4.14c0.044,0.749 0.176,0.881 0.748,0.881c0.485,0 1.277,-0.132 1.894,-0.309c1.629,-0.484 2.642,-1.365 3.435,-2.994c1.013,-2.07 1.718,-6.474 1.718,-10.526c0,-7.31 -1.189,-12.419 -4.052,-17.395c1.982,-1.806 3.303,-3.215 5.725,-6.034c1.674,-0.264 1.208,-1.1 1.169,-1.15c-0.08,-0.101 0.02,-0.391 -2.314,-1.14c-0.616,-0.22 -1.629,-0.528 -2.907,-0.969c-0.572,1.894 -1.541,3.788 -3.435,6.65c-1.365,-1.805 -2.378,-2.774 -4.8,-4.624l-0.396,0.352c1.937,2.334 2.686,3.568 3.875,6.122c-2.642,3.347 -3.039,3.787 -5.813,6.298l0.264,0.352c2.555,-1.277 4.272,-2.378 6.518,-4.14c0.573,1.674 0.837,2.731 1.189,4.624c-0.749,1.85 -1.145,2.643 -1.85,3.92c-1.937,3.391 -3.699,5.857 -6.253,8.676l0.264,0.308c2.775,-1.586 4.272,-2.643 6.078,-4.272c1.101,-1.013 1.937,-1.806 2.51,-2.422c0.044,1.409 0.088,2.158 0.088,3.303c0,3.655 -0.352,7.134 -0.969,9.028c-0.352,1.145 -0.484,1.233 -1.806,1.233c-0.924,0 -1.057,0 -5.681,-0.396l-0.044,0.484Z" style="fill:none;fill-rule:nonzero;stroke:#000;stroke-width:0.03px;stroke-linecap:butt;stroke-miterlimit:2;"/>
                </g>
                <path d="M349.247,146.992l0,-40.277l8.537,0l0,3.204l-4.666,0l0,33.869l4.666,0l0,3.204l-8.537,0Z" style="fill:none;fill-rule:nonzero;stroke:#000;stroke-width:0.03px;stroke-linecap:butt;stroke-miterlimit:2;"/>
                <path d="M458.789,146.992l-8.537,0l0,-3.204l4.666,0l0,-33.869l-4.666,0l0,-3.204l8.537,0l0,40.277Z" style="fill:none;fill-rule:nonzero;stroke:#000;stroke-width:0.03px;stroke-linecap:butt;stroke-miterlimit:2;"/>
            </g>
        </g>
    </g>
</svg>
