<?xml version="1.0" encoding="utf-8"?>
<!-- Generator: Adobe Illustrator 23.0.1, SVG Export Plug-In . SVG Version: 6.00 Build 0)  -->
<svg version="1.1" id="Layer_1" xmlns:serif="http://www.serif.com/"
	 xmlns="http://www.w3.org/2000/svg" xmlns:xlink="http://www.w3.org/1999/xlink" x="0px" y="0px" viewBox="0 0 2138 2138"
	 style="enable-background:new 0 0 2138 2138;" xml:space="preserve">
<style type="text/css">
	.st0{fill:none;stroke:#000000;stroke-linecap:round;stroke-linejoin:round;stroke-miterlimit:1.5;}
</style>
<g id="Outside-shape" transform="matrix(1,0,0,1,11.3386,5.66929)" serif:id="Outside shape">
	<path class="st0" d="M5.1,5.7C2.3,5.7,0,8,0,10.8c0,40.1,0,304,0,344.1c0,2.8,2.3,5.1,5.1,5.1c30.8,0,191.5,0,222.2,0
		c2.8,0,5.1-2.3,5.1-5.1c0-1.3,0-2.7,0-4c0-1.4,0.5-2.7,1.5-3.6c1-1,2.3-1.5,3.6-1.5c43,0,343.7,0,386.6,0c1.4,0,2.7,0.5,3.6,1.5
		c1,1,1.5,2.3,1.5,3.6c0,1.3,0,2.7,0,4c0,2.8,2.3,5.1,5.1,5.1c30.8,0,191.5,0,222.2,0c2.8,0,5.1-2.3,5.1-5.1c0-40.1,0-304,0-344.1
		c0-2.8-2.3-5.1-5.1-5.1c-15.1,0-59.7,0-74.8,0c-2.8,0-5.1,2.3-5.1,5.1c0,0.4,0,0.8,0,1.1c0,1.4-0.5,2.7-1.5,3.6
		c-1,1-2.3,1.5-3.6,1.5c-59.6,0-621.9,0-681.4,0c-1.4,0-2.7-0.5-3.6-1.5c-1-1-1.5-2.3-1.5-3.6c0-0.4,0-0.8,0-1.1
		c0-2.8-2.3-5.1-5.1-5.1C64.8,5.7,20.2,5.7,5.1,5.7z"/>
</g>
</svg>
