<?xml version="1.0" encoding="UTF-8" standalone="no"?>
<!DOCTYPE svg PUBLIC "-//W3C//DTD SVG 1.1//EN" "http://www.w3.org/Graphics/SVG/1.1/DTD/svg11.dtd">
<svg width="2268px" height="1117px" version="1.1" xmlns="http://www.w3.org/2000/svg" xmlns:xlink="http://www.w3.org/1999/xlink" xml:space="preserve" xmlns:serif="http://www.serif.com/" style="fill-rule:evenodd;clip-rule:evenodd;stroke-linecap:round;stroke-linejoin:round;stroke-miterlimit:1.5;">
    <g id="_3mm-PCB-Wrapper--also-covers-solder-joints-" serif:id="3mm PCB Wrapper (also covers solder joints)">
        <ellipse cx="661.89" cy="355.784" rx="4.535" ry="4.5" style="fill:none;stroke:#00f;stroke-width:0.03px;"/>
        <ellipse cx="603.78" cy="38.287" rx="4.535" ry="4.5" style="fill:none;stroke:#00f;stroke-width:0.03px;"/>
        <ellipse cx="868.819" cy="62.398" rx="4.535" ry="4.5" style="fill:none;stroke:#00f;stroke-width:0.03px;"/>
        <ellipse cx="32.598" cy="62.398" rx="4.535" ry="4.5" style="fill:none;stroke:#00f;stroke-width:0.03px;"/>
        <ellipse cx="32.598" cy="265.075" rx="4.535" ry="4.5" style="fill:none;stroke:#00f;stroke-width:0.03px;"/>
        <ellipse cx="868.819" cy="265.075" rx="4.535" ry="4.5" style="fill:none;stroke:#00f;stroke-width:0.03px;"/>
        <ellipse cx="239.528" cy="355.818" rx="4.535" ry="4.5" style="fill:none;stroke:#00f;stroke-width:0.03px;"/>
        <ellipse cx="297.638" cy="38.321" rx="4.535" ry="4.5" style="fill:none;stroke:#00f;stroke-width:0.03px;"/>
        <path id="Outside-shape" serif:id="Outside shape" d="M467.718,76.287l0,-15.476l12.414,0l0,-30.331l-16.667,0l0,-4.968l327.968,0c1.353,0 2.651,-0.538 3.608,-1.495c0.957,-0.957 1.494,-2.254 1.494,-3.608c0,-0.376 0,-0.757 0,-1.133c0,-2.818 2.285,-5.103 5.103,-5.103c15.14,0 65.364,0 80.504,0c2.818,0 5.102,2.285 5.102,5.103c0,40.097 0,304.028 0,344.126c0,2.818 -2.284,5.102 -5.102,5.102c-30.784,0 -197.122,0 -227.906,0c-2.818,0 -5.102,-2.284 -5.102,-5.102c0,-1.291 0,-2.678 0,-3.969c0,-1.353 -0.538,-2.651 -1.495,-3.608c-0.956,-0.957 -2.254,-1.494 -3.608,-1.494c-42.955,0 -343.69,0 -386.645,0c-1.353,0 -2.651,0.537 -3.608,1.494c-0.957,0.957 -1.495,2.255 -1.495,3.608c0,1.291 0,2.678 0,3.969c0,2.818 -2.284,5.102 -5.102,5.102c-30.784,0 -197.121,0 -227.905,0c-2.818,0 -5.103,-2.284 -5.103,-5.102c0,-40.098 0,-304.029 0,-344.126c0,-2.818 2.285,-5.103 5.103,-5.103c15.139,0 65.364,0 80.504,0c2.817,0 5.102,2.285 5.102,5.103c0,0.376 0,0.757 0,1.133c0,1.354 0.537,2.651 1.494,3.608c0.957,0.957 2.255,1.495 3.608,1.495l327.969,0l0,4.968l-16.88,0l0,30.331l12.628,0l0,15.476l-11.339,0l-153.921,-30.933l-242.929,0c-1.259,0 -2.28,1.021 -2.28,2.28c0,0.002 0,0.002 0,0.002l-0.555,231.48l323.141,55.372l208.501,0l324.421,-51.023c0,0 0,-209.451 0,-235.276c0,-1.566 -1.269,-2.835 -2.834,-2.835l-242.802,0l-154.049,30.933l-11.337,0Z" style="fill:none;stroke:#00f;stroke-width:0.03px;"/>
    </g>
    <g id="_3mm-PCB-Wrapper--also-covers-solder-joints-1" serif:id="3mm PCB Wrapper (also covers solder joints)">
        <ellipse cx="661.89" cy="710.115" rx="4.535" ry="4.5" style="fill:none;stroke:#00f;stroke-width:0.03px;"/>
        <ellipse cx="603.78" cy="392.617" rx="4.535" ry="4.5" style="fill:none;stroke:#00f;stroke-width:0.03px;"/>
        <ellipse cx="868.819" cy="416.729" rx="4.535" ry="4.5" style="fill:none;stroke:#00f;stroke-width:0.03px;"/>
        <ellipse cx="32.598" cy="416.729" rx="4.535" ry="4.5" style="fill:none;stroke:#00f;stroke-width:0.03px;"/>
        <ellipse cx="32.598" cy="619.406" rx="4.535" ry="4.5" style="fill:none;stroke:#00f;stroke-width:0.03px;"/>
        <ellipse cx="868.819" cy="619.406" rx="4.535" ry="4.5" style="fill:none;stroke:#00f;stroke-width:0.03px;"/>
        <ellipse cx="239.528" cy="710.149" rx="4.535" ry="4.5" style="fill:none;stroke:#00f;stroke-width:0.03px;"/>
        <ellipse cx="297.638" cy="392.651" rx="4.535" ry="4.5" style="fill:none;stroke:#00f;stroke-width:0.03px;"/>
        <path id="Outside-shape1" serif:id="Outside shape" d="M467.718,430.618l0,-15.476l12.414,0l0,-30.331l-16.667,0l0,-4.968l327.968,0c1.353,0 2.651,-0.538 3.608,-1.495c0.957,-0.957 1.494,-2.255 1.494,-3.608c0,-0.377 0,-0.757 0,-1.134c0,-2.818 2.285,-5.102 5.103,-5.102c15.14,0 65.364,0 80.504,0c2.818,0 5.102,2.284 5.102,5.102c0,40.098 0,304.029 0,344.126c0,2.818 -2.284,5.103 -5.102,5.103c-30.784,0 -197.122,0 -227.906,0c-2.818,0 -5.102,-2.285 -5.102,-5.103c0,-1.291 0,-2.677 0,-3.968c0,-1.353 -0.538,-2.651 -1.495,-3.608c-0.956,-0.957 -2.254,-1.495 -3.608,-1.495c-42.955,0 -343.69,0 -386.645,0c-1.353,0 -2.651,0.538 -3.608,1.495c-0.957,0.957 -1.495,2.255 -1.495,3.608c0,1.291 0,2.677 0,3.968c0,2.818 -2.284,5.103 -5.102,5.103c-30.784,0 -197.121,0 -227.905,0c-2.818,0 -5.103,-2.285 -5.103,-5.103c0,-40.097 0,-304.028 0,-344.126c0,-2.818 2.285,-5.102 5.103,-5.102c15.139,0 65.364,0 80.504,0c2.817,0 5.102,2.284 5.102,5.102c0,0.377 0,0.757 0,1.134c0,1.353 0.537,2.651 1.494,3.608c0.957,0.957 2.255,1.495 3.608,1.495l327.969,0l0,4.968l-16.88,0l0,30.331l12.628,0l0,15.476l-11.339,0l-153.921,-30.933l-242.929,0c-1.259,0 -2.28,1.021 -2.28,2.28c0,0.001 0,0.002 0,0.002l-0.555,231.48l323.141,55.372l208.501,0l324.421,-51.024c0,0 0,-209.45 0,-235.275c0,-1.566 -1.269,-2.835 -2.834,-2.835l-242.802,0l-154.049,30.933l-11.337,0Z" style="fill:none;stroke:#00f;stroke-width:0.03px;"/>
    </g>
    <g id="_3mm-PCB-Wrapper--also-covers-solder-joints-2" serif:id="3mm PCB Wrapper (also covers solder joints)">
        <ellipse cx="661.89" cy="1064.44" rx="4.535" ry="4.5" style="fill:none;stroke:#00f;stroke-width:0.03px;"/>
        <ellipse cx="603.78" cy="746.948" rx="4.535" ry="4.5" style="fill:none;stroke:#00f;stroke-width:0.03px;"/>
        <ellipse cx="868.819" cy="771.06" rx="4.535" ry="4.5" style="fill:none;stroke:#00f;stroke-width:0.03px;"/>
        <ellipse cx="32.598" cy="771.06" rx="4.535" ry="4.5" style="fill:none;stroke:#00f;stroke-width:0.03px;"/>
        <ellipse cx="32.598" cy="973.737" rx="4.535" ry="4.5" style="fill:none;stroke:#00f;stroke-width:0.03px;"/>
        <ellipse cx="868.819" cy="973.737" rx="4.535" ry="4.5" style="fill:none;stroke:#00f;stroke-width:0.03px;"/>
        <ellipse cx="239.528" cy="1064.48" rx="4.535" ry="4.5" style="fill:none;stroke:#00f;stroke-width:0.03px;"/>
        <ellipse cx="297.638" cy="746.982" rx="4.535" ry="4.5" style="fill:none;stroke:#00f;stroke-width:0.03px;"/>
        <path id="Outside-shape2" serif:id="Outside shape" d="M467.718,784.948l0,-15.475l12.414,0l0,-30.331l-16.667,0l0,-4.969l327.968,0c1.353,0 2.651,-0.537 3.608,-1.494c0.957,-0.957 1.494,-2.255 1.494,-3.608c0,-0.377 0,-0.757 0,-1.134c0,-2.818 2.285,-5.102 5.103,-5.102c15.14,0 65.364,0 80.504,0c2.818,0 5.102,2.284 5.102,5.102c0,40.097 0,304.029 0,344.126c0,2.818 -2.284,5.102 -5.102,5.102c-30.784,0 -197.122,0 -227.906,0c-2.818,0 -5.102,-2.284 -5.102,-5.102c0,-1.291 0,-2.678 0,-3.969c0,-1.353 -0.538,-2.651 -1.495,-3.607c-0.956,-0.957 -2.254,-1.495 -3.608,-1.495c-42.955,0 -343.69,0 -386.645,0c-1.353,0 -2.651,0.538 -3.608,1.495c-0.957,0.956 -1.495,2.254 -1.495,3.607c0,1.291 0,2.678 0,3.969c0,2.818 -2.284,5.102 -5.102,5.102c-30.784,0 -197.121,0 -227.905,0c-2.818,0 -5.103,-2.284 -5.103,-5.102c0,-40.097 0,-304.029 0,-344.126c0,-2.818 2.285,-5.102 5.103,-5.102c15.139,0 65.364,0 80.504,0c2.817,0 5.102,2.284 5.102,5.102c0,0.377 0,0.757 0,1.134c0,1.353 0.537,2.651 1.494,3.608c0.957,0.957 2.255,1.494 3.608,1.494l327.969,0l0,4.969l-16.88,0l0,30.331l12.628,0l0,15.475l-11.339,0l-153.921,-30.932l-242.929,0c-1.259,0 -2.28,1.021 -2.28,2.28c0,0.001 0,0.002 0,0.002l-0.555,231.479l323.141,55.372l208.501,0l324.421,-51.023c0,0 0,-209.451 0,-235.276c0,-1.565 -1.269,-2.834 -2.834,-2.834l-242.802,0l-154.049,30.932l-11.337,0Z" style="fill:none;stroke:#00f;stroke-width:0.03px;"/>
    </g>
    <g id="_3mm-PCB-Wrapper--also-covers-solder-joints-3" serif:id="3mm PCB Wrapper (also covers solder joints)">
        <ellipse cx="1534.96" cy="355.784" rx="4.535" ry="4.5" style="fill:none;stroke:#00f;stroke-width:0.03px;"/>
        <ellipse cx="1476.85" cy="38.287" rx="4.535" ry="4.5" style="fill:none;stroke:#00f;stroke-width:0.03px;"/>
        <ellipse cx="1741.89" cy="62.398" rx="4.535" ry="4.5" style="fill:none;stroke:#00f;stroke-width:0.03px;"/>
        <ellipse cx="905.669" cy="62.398" rx="4.535" ry="4.5" style="fill:none;stroke:#00f;stroke-width:0.03px;"/>
        <ellipse cx="905.669" cy="265.075" rx="4.535" ry="4.5" style="fill:none;stroke:#00f;stroke-width:0.03px;"/>
        <ellipse cx="1741.89" cy="265.075" rx="4.535" ry="4.5" style="fill:none;stroke:#00f;stroke-width:0.03px;"/>
        <ellipse cx="1112.6" cy="355.818" rx="4.535" ry="4.5" style="fill:none;stroke:#00f;stroke-width:0.03px;"/>
        <ellipse cx="1170.71" cy="38.321" rx="4.535" ry="4.5" style="fill:none;stroke:#00f;stroke-width:0.03px;"/>
        <path id="Outside-shape3" serif:id="Outside shape" d="M1340.79,76.287l0,-15.476l12.414,0l0,-30.331l-16.668,0l0,-4.968l327.969,0c1.353,0 2.651,-0.538 3.608,-1.495c0.957,-0.957 1.494,-2.254 1.494,-3.608c0,-0.376 0,-0.757 0,-1.133c0,-2.818 2.285,-5.103 5.103,-5.103c15.14,0 65.364,0 80.504,0c2.818,0 5.102,2.285 5.102,5.103c0,40.097 0,304.028 0,344.126c0,2.818 -2.284,5.102 -5.102,5.102c-30.784,0 -197.122,0 -227.906,0c-2.818,0 -5.102,-2.284 -5.102,-5.102c0,-1.291 0,-2.678 0,-3.969c0,-1.353 -0.538,-2.651 -1.495,-3.608c-0.957,-0.957 -2.254,-1.494 -3.608,-1.494c-42.955,0 -343.69,0 -386.645,0c-1.354,0 -2.651,0.537 -3.608,1.494c-0.957,0.957 -1.495,2.255 -1.495,3.608c0,1.291 0,2.678 0,3.969c0,2.818 -2.284,5.102 -5.102,5.102c-30.784,0 -197.121,0 -227.906,0c-2.818,0 -5.102,-2.284 -5.102,-5.102c0,-40.098 0,-304.029 0,-344.126c0,-2.818 2.285,-5.103 5.102,-5.103c15.14,0 65.365,0 80.504,0c2.818,0 5.103,2.285 5.103,5.103c0,0.376 0,0.757 0,1.133c0,1.354 0.537,2.651 1.494,3.608c0.957,0.957 2.255,1.495 3.608,1.495l327.969,0l0,4.968l-16.88,0l0,30.331l12.628,0l0,15.476l-11.339,0l-153.921,-30.933l-242.929,0c-1.26,0 -2.28,1.021 -2.28,2.28c0,0.002 0,0.002 0,0.002l-0.555,231.48l323.141,55.372l208.501,0l324.421,-51.023c0,0 0,-209.451 0,-235.276c0,-1.566 -1.269,-2.835 -2.835,-2.835l-242.801,0l-154.049,30.933l-11.337,0Z" style="fill:none;stroke:#00f;stroke-width:0.03px;"/>
    </g>
    <g id="_3mm-PCB-Wrapper--also-covers-solder-joints-4" serif:id="3mm PCB Wrapper (also covers solder joints)">
        <ellipse cx="1534.96" cy="710.115" rx="4.535" ry="4.5" style="fill:none;stroke:#00f;stroke-width:0.03px;"/>
        <ellipse cx="1476.85" cy="392.617" rx="4.535" ry="4.5" style="fill:none;stroke:#00f;stroke-width:0.03px;"/>
        <ellipse cx="1741.89" cy="416.729" rx="4.535" ry="4.5" style="fill:none;stroke:#00f;stroke-width:0.03px;"/>
        <ellipse cx="905.669" cy="416.729" rx="4.535" ry="4.5" style="fill:none;stroke:#00f;stroke-width:0.03px;"/>
        <ellipse cx="905.669" cy="619.406" rx="4.535" ry="4.5" style="fill:none;stroke:#00f;stroke-width:0.03px;"/>
        <ellipse cx="1741.89" cy="619.406" rx="4.535" ry="4.5" style="fill:none;stroke:#00f;stroke-width:0.03px;"/>
        <ellipse cx="1112.6" cy="710.149" rx="4.535" ry="4.5" style="fill:none;stroke:#00f;stroke-width:0.03px;"/>
        <ellipse cx="1170.71" cy="392.651" rx="4.535" ry="4.5" style="fill:none;stroke:#00f;stroke-width:0.03px;"/>
        <path id="Outside-shape4" serif:id="Outside shape" d="M1340.79,430.618l0,-15.476l12.414,0l0,-30.331l-16.668,0l0,-4.968l327.969,0c1.353,0 2.651,-0.538 3.608,-1.495c0.957,-0.957 1.494,-2.255 1.494,-3.608c0,-0.377 0,-0.757 0,-1.134c0,-2.818 2.285,-5.102 5.103,-5.102c15.14,0 65.364,0 80.504,0c2.818,0 5.102,2.284 5.102,5.102c0,40.098 0,304.029 0,344.126c0,2.818 -2.284,5.103 -5.102,5.103c-30.784,0 -197.122,0 -227.906,0c-2.818,0 -5.102,-2.285 -5.102,-5.103c0,-1.291 0,-2.677 0,-3.968c0,-1.353 -0.538,-2.651 -1.495,-3.608c-0.957,-0.957 -2.254,-1.495 -3.608,-1.495c-42.955,0 -343.69,0 -386.645,0c-1.354,0 -2.651,0.538 -3.608,1.495c-0.957,0.957 -1.495,2.255 -1.495,3.608c0,1.291 0,2.677 0,3.968c0,2.818 -2.284,5.103 -5.102,5.103c-30.784,0 -197.121,0 -227.906,0c-2.818,0 -5.102,-2.285 -5.102,-5.103c0,-40.097 0,-304.028 0,-344.126c0,-2.818 2.285,-5.102 5.102,-5.102c15.14,0 65.365,0 80.504,0c2.818,0 5.103,2.284 5.103,5.102c0,0.377 0,0.757 0,1.134c0,1.353 0.537,2.651 1.494,3.608c0.957,0.957 2.255,1.495 3.608,1.495l327.969,0l0,4.968l-16.88,0l0,30.331l12.628,0l0,15.476l-11.339,0l-153.921,-30.933l-242.929,0c-1.26,0 -2.28,1.021 -2.28,2.28c0,0.001 0,0.002 0,0.002l-0.555,231.48l323.141,55.372l208.501,0l324.421,-51.024c0,0 0,-209.45 0,-235.275c0,-1.566 -1.269,-2.835 -2.835,-2.835l-242.801,0l-154.049,30.933l-11.337,0Z" style="fill:none;stroke:#00f;stroke-width:0.03px;"/>
    </g>
    <g id="_3mm-PCB-Wrapper--also-covers-solder-joints-5" serif:id="3mm PCB Wrapper (also covers solder joints)">
        <ellipse cx="1534.96" cy="1064.44" rx="4.535" ry="4.5" style="fill:none;stroke:#00f;stroke-width:0.03px;"/>
        <ellipse cx="1476.85" cy="746.948" rx="4.535" ry="4.5" style="fill:none;stroke:#00f;stroke-width:0.03px;"/>
        <ellipse cx="1741.89" cy="771.06" rx="4.535" ry="4.5" style="fill:none;stroke:#00f;stroke-width:0.03px;"/>
        <ellipse cx="905.669" cy="771.06" rx="4.535" ry="4.5" style="fill:none;stroke:#00f;stroke-width:0.03px;"/>
        <ellipse cx="905.669" cy="973.737" rx="4.535" ry="4.5" style="fill:none;stroke:#00f;stroke-width:0.03px;"/>
        <ellipse cx="1741.89" cy="973.737" rx="4.535" ry="4.5" style="fill:none;stroke:#00f;stroke-width:0.03px;"/>
        <ellipse cx="1112.6" cy="1064.48" rx="4.535" ry="4.5" style="fill:none;stroke:#00f;stroke-width:0.03px;"/>
        <ellipse cx="1170.71" cy="746.982" rx="4.535" ry="4.5" style="fill:none;stroke:#00f;stroke-width:0.03px;"/>
        <path id="Outside-shape5" serif:id="Outside shape" d="M1340.79,784.948l0,-15.475l12.414,0l0,-30.331l-16.668,0l0,-4.969l327.969,0c1.353,0 2.651,-0.537 3.608,-1.494c0.957,-0.957 1.494,-2.255 1.494,-3.608c0,-0.377 0,-0.757 0,-1.134c0,-2.818 2.285,-5.102 5.103,-5.102c15.14,0 65.364,0 80.504,0c2.818,0 5.102,2.284 5.102,5.102c0,40.097 0,304.029 0,344.126c0,2.818 -2.284,5.102 -5.102,5.102c-30.784,0 -197.122,0 -227.906,0c-2.818,0 -5.102,-2.284 -5.102,-5.102c0,-1.291 0,-2.678 0,-3.969c0,-1.353 -0.538,-2.651 -1.495,-3.607c-0.957,-0.957 -2.254,-1.495 -3.608,-1.495c-42.955,0 -343.69,0 -386.645,0c-1.354,0 -2.651,0.538 -3.608,1.495c-0.957,0.956 -1.495,2.254 -1.495,3.607c0,1.291 0,2.678 0,3.969c0,2.818 -2.284,5.102 -5.102,5.102c-30.784,0 -197.121,0 -227.906,0c-2.818,0 -5.102,-2.284 -5.102,-5.102c0,-40.097 0,-304.029 0,-344.126c0,-2.818 2.285,-5.102 5.102,-5.102c15.14,0 65.365,0 80.504,0c2.818,0 5.103,2.284 5.103,5.102c0,0.377 0,0.757 0,1.134c0,1.353 0.537,2.651 1.494,3.608c0.957,0.957 2.255,1.494 3.608,1.494l327.969,0l0,4.969l-16.88,0l0,30.331l12.628,0l0,15.475l-11.339,0l-153.921,-30.932l-242.929,0c-1.26,0 -2.28,1.021 -2.28,2.28c0,0.001 0,0.002 0,0.002l-0.555,231.479l323.141,55.372l208.501,0l324.421,-51.023c0,0 0,-209.451 0,-235.276c0,-1.565 -1.269,-2.834 -2.835,-2.834l-242.801,0l-154.049,30.932l-11.337,0Z" style="fill:none;stroke:#00f;stroke-width:0.03px;"/>
    </g>
    <g id="_3mm-PCB-Wrapper--also-covers-solder-joints-6" serif:id="3mm PCB Wrapper (also covers solder joints)">
        <path d="M2097.43,334.488c0,2.503 2.016,4.536 4.5,4.536c2.483,0 4.499,-2.033 4.499,-4.536c0,-2.503 -2.016,-4.535 -4.499,-4.535c-2.484,0 -4.5,2.032 -4.5,4.535Z" style="fill:none;stroke:#00f;stroke-width:0.03px;"/>
        <path d="M1779.93,392.598c0,2.504 2.016,4.536 4.499,4.536c2.484,0 4.5,-2.032 4.5,-4.536c0,-2.503 -2.016,-4.535 -4.5,-4.535c-2.483,0 -4.499,2.032 -4.499,4.535Z" style="fill:none;stroke:#00f;stroke-width:0.03px;"/>
        <path d="M1804.04,127.559c0,-2.503 2.016,-4.535 4.5,-4.535c2.483,0 4.499,2.032 4.499,4.535c0,2.503 -2.016,4.535 -4.499,4.535c-2.484,0 -4.5,-2.032 -4.5,-4.535Z" style="fill:none;stroke:#00f;stroke-width:0.03px;"/>
        <path d="M1804.04,963.78c0,-2.504 2.016,-4.536 4.5,-4.536c2.483,0 4.499,2.032 4.499,4.536c0,2.503 -2.016,4.535 -4.499,4.535c-2.484,0 -4.5,-2.032 -4.5,-4.535Z" style="fill:none;stroke:#00f;stroke-width:0.03px;"/>
        <path d="M2006.72,963.78c0,-2.504 2.017,-4.536 4.5,-4.536c2.483,0 4.5,2.032 4.5,4.536c0,2.503 -2.017,4.535 -4.5,4.535c-2.483,0 -4.5,-2.032 -4.5,-4.535Z" style="fill:none;stroke:#00f;stroke-width:0.03px;"/>
        <path d="M2006.72,127.559c0,-2.503 2.017,-4.535 4.5,-4.535c2.483,0 4.5,2.032 4.5,4.535c0,2.503 -2.017,4.535 -4.5,4.535c-2.483,0 -4.5,-2.032 -4.5,-4.535Z" style="fill:none;stroke:#00f;stroke-width:0.03px;"/>
        <path d="M2097.46,756.85c0,2.504 2.016,4.536 4.5,4.536c2.483,0 4.499,-2.032 4.499,-4.536c0,-2.503 -2.016,-4.535 -4.499,-4.535c-2.484,0 -4.5,2.032 -4.5,4.535Z" style="fill:none;stroke:#00f;stroke-width:0.03px;"/>
        <path d="M1779.96,698.74c0,2.503 2.016,4.536 4.499,4.536c2.484,0 4.5,-2.033 4.5,-4.536c0,-2.503 -2.016,-4.535 -4.5,-4.535c-2.483,0 -4.499,2.032 -4.499,4.535Z" style="fill:none;stroke:#00f;stroke-width:0.03px;"/>
        <path id="Outside-shape6" serif:id="Outside shape" d="M1822.43,528.66l-15.476,0l0,-12.414l-30.331,0l0,16.667l-4.968,0l0,-327.968c0,-1.353 -0.538,-2.651 -1.495,-3.608c-0.957,-0.957 -2.255,-1.494 -3.608,-1.494c-0.377,0 -0.757,0 -1.134,0c-2.818,0 -5.102,-2.285 -5.102,-5.103c0,-15.14 0,-65.364 0,-80.504c0,-2.818 2.284,-5.102 5.102,-5.102c40.098,0 304.029,0 344.126,0c2.818,0 5.103,2.284 5.103,5.102c0,30.784 0,197.122 0,227.906c0,2.818 -2.285,5.102 -5.103,5.102c-1.291,0 -2.677,0 -3.968,0c-1.353,0 -2.651,0.538 -3.608,1.495c-0.957,0.956 -1.495,2.254 -1.495,3.607c0,42.956 0,343.69 0,386.646c0,1.353 0.538,2.651 1.495,3.608c0.957,0.957 2.255,1.494 3.608,1.494c1.291,0 2.677,0 3.968,0c2.818,0 5.103,2.285 5.103,5.103c0,30.784 0,197.121 0,227.905c0,2.818 -2.285,5.103 -5.103,5.103c-40.097,0 -304.028,0 -344.126,0c-2.818,0 -5.102,-2.285 -5.102,-5.103c0,-15.14 0,-65.364 0,-80.504c0,-2.818 2.284,-5.102 5.102,-5.102c0.377,0 0.757,0 1.134,0c1.353,0 2.651,-0.538 3.608,-1.494c0.957,-0.957 1.495,-2.255 1.495,-3.608l0,-327.969l4.968,0l0,16.88l30.331,0l0,-12.628l15.476,0l0,11.339l-30.933,153.921l0,242.929c0,1.259 1.021,2.28 2.28,2.28c0.001,0 0.002,0 0.002,0l231.48,0.555l55.372,-323.141l0,-208.501l-51.024,-324.421c0,0 -209.45,0 -235.275,0c-1.566,0 -2.835,1.269 -2.835,2.834l0,242.802l30.933,154.049l0,11.337Z" style="fill:none;stroke:#00f;stroke-width:0.03px;"/>
    </g>
</svg>
