<?xml version="1.0" encoding="UTF-8" standalone="no"?>
<!DOCTYPE svg PUBLIC "-//W3C//DTD SVG 1.1//EN" "http://www.w3.org/Graphics/SVG/1.1/DTD/svg11.dtd">
<svg width="2268px" height="1117px" version="1.1" xmlns="http://www.w3.org/2000/svg" xmlns:xlink="http://www.w3.org/1999/xlink" xml:space="preserve" xmlns:serif="http://www.serif.com/" style="fill-rule:evenodd;clip-rule:evenodd;stroke-linecap:round;stroke-linejoin:round;stroke-miterlimit:1.5;">
    <g id="_3mm--optional--Top-plate" serif:id="3mm (optional) Top plate">
        <path id="Outside-shape" serif:id="Outside shape" d="M19.276,14.173c-1.354,0 -2.651,0.538 -3.608,1.495c-0.957,0.957 -1.495,2.254 -1.495,3.608c0,40.097 0,304.028 0,344.126c0,2.818 2.285,5.102 5.103,5.102c31.265,0 196.64,0 227.905,0c2.818,0 5.102,-2.284 5.102,-5.102c0,-1.291 0,-2.678 0,-3.969c0,-1.353 0.538,-2.651 1.495,-3.608c0.957,-0.957 2.255,-1.494 3.608,-1.494c42.955,0 343.69,0 386.645,0c1.354,0 2.652,0.537 3.608,1.494c0.957,0.957 1.495,2.255 1.495,3.608c0,1.291 0,2.678 0,3.969c0,2.818 2.284,5.102 5.102,5.102c31.265,0 196.641,0 227.906,0c2.818,0 5.102,-2.284 5.102,-5.102c0,-40.098 0,-304.029 0,-344.126c0,-1.354 -0.537,-2.651 -1.494,-3.608c-0.957,-0.957 -2.255,-1.495 -3.608,-1.495c-15.923,0 -64.581,0 -80.504,0c-1.353,0 -2.651,0.538 -3.608,1.495c-0.957,0.957 -1.495,2.254 -1.495,3.608c0,0.376 0,0.757 0,1.133c0,1.354 -0.537,2.651 -1.494,3.608c-0.957,0.957 -2.255,1.495 -3.608,1.495c-59.575,0 -621.874,0 -681.449,0c-1.353,0 -2.651,-0.538 -3.608,-1.495c-0.957,-0.957 -1.494,-2.254 -1.494,-3.608c0,-0.376 0,-0.757 0,-1.133c0,-1.354 -0.538,-2.651 -1.495,-3.608c-0.956,-0.957 -2.254,-1.495 -3.607,-1.495c-15.923,0 -64.582,0 -80.504,0Z" style="fill:none;stroke:#00f;stroke-width:0.03px;"/>
        <ellipse cx="661.89" cy="355.712" rx="4.535" ry="4.5" style="fill:none;stroke:#00f;stroke-width:0.03px;"/>
        <ellipse cx="603.78" cy="38.215" rx="4.535" ry="4.5" style="fill:none;stroke:#00f;stroke-width:0.03px;"/>
        <ellipse cx="868.819" cy="62.326" rx="4.535" ry="4.5" style="fill:none;stroke:#00f;stroke-width:0.03px;"/>
        <ellipse cx="32.598" cy="62.326" rx="4.535" ry="4.5" style="fill:none;stroke:#00f;stroke-width:0.03px;"/>
        <ellipse cx="32.598" cy="265.003" rx="4.535" ry="4.5" style="fill:none;stroke:#00f;stroke-width:0.03px;"/>
        <ellipse cx="868.819" cy="265.003" rx="4.535" ry="4.5" style="fill:none;stroke:#00f;stroke-width:0.03px;"/>
        <ellipse cx="239.528" cy="355.746" rx="4.535" ry="4.5" style="fill:none;stroke:#00f;stroke-width:0.03px;"/>
        <ellipse cx="297.638" cy="38.249" rx="4.535" ry="4.5" style="fill:none;stroke:#00f;stroke-width:0.03px;"/>
        <g id="Inlay-outline" serif:id="Inlay outline">
            <path d="M456.378,177.607c32.59,2.916 58.11,30.266 58.11,63.53c0,35.201 -28.578,63.78 -63.779,63.78c-35.201,0 -63.78,-28.579 -63.78,-63.78c0,-33.29 25.561,-60.658 58.11,-63.53l0,-3.509l11.339,0l0,3.509Z" style="fill:none;stroke:#00f;stroke-width:0.03px;"/>
        </g>
        <path id="Power-switch" serif:id="Power switch" d="M643.809,211.708l2.067,11.724l33.499,-5.906l-2.067,-11.725l-33.499,5.907Z" style="fill:none;stroke:#00f;stroke-width:0.03px;stroke-miterlimit:1;"/>
        <path id="Small-reset-switch-hole" serif:id="Small reset switch hole" d="M486.451,113.399c0,1.721 -1.397,3.118 -3.118,3.118c-1.721,0 -3.118,-1.397 -3.118,-3.118c0,-1.721 1.397,-3.118 3.118,-3.118c1.721,0 3.118,1.397 3.118,3.118Z" style="fill:none;stroke:#00f;stroke-width:0.03px;stroke-miterlimit:1;"/>
        <rect id="Reset-hole" serif:id="Reset hole" x="422.858" y="85.139" width="55.701" height="55.701" style="fill:none;stroke:#00f;stroke-width:0.03px;stroke-linejoin:miter;stroke-miterlimit:2;"/>
        <path id="Left-key-holes" serif:id="Left key holes" d="M320.87,301.149l-52.34,-19.051l18.452,-50.697l-20.456,-3.607l3.125,-17.727l-51.505,-9.082l-3.126,17.727l-53.18,-9.377l-2.83,16.051l106.36,18.754l-9.672,54.855l-53.18,-9.377l-54.855,-9.673l-53.18,-9.377l-53.18,-9.377l9.672,-54.854l9.082,-51.505l9.672,-54.855l9.377,-53.18l106.36,18.754l3.126,-17.726l53.18,9.377l3.126,-17.726l54.854,9.672l-3.125,17.727l106.36,18.754l-9.673,54.854l-9.081,51.506l-9.673,54.854l-54.854,-9.672l-22.801,-4.021l43.017,15.657l-18.349,50.416l0.443,0.368l42.891,-32.911l33.908,44.191l-40.854,31.349l-5.3,0l-31.029,-40.438l-0.762,-0.633Z" style="fill:none;stroke:#00f;stroke-width:0.03px;stroke-linejoin:miter;stroke-miterlimit:2;"/>
        <path id="Right-key-holes" serif:id="Right key holes" d="M579.607,299.09l-18.405,-50.566l43.017,-15.657l-22.801,4.02l-54.854,9.673l-9.672,-54.855l-9.082,-51.505l-9.673,-54.855l53.181,-9.377l53.18,-9.377l-3.126,-17.726l54.855,-9.673l3.125,17.727l53.18,-9.377l3.126,17.726l51.505,-9.082l54.855,-9.672l37.803,214.394l-53.18,9.377l-53.18,9.377l-54.854,9.672l-53.18,9.377l-9.673,-54.854l54.855,-9.673l51.505,-9.082l-2.83,-16.051l-53.18,9.377l-3.126,-17.726l-51.505,9.082l3.126,17.726l-20.457,3.607l18.452,50.698l-51.969,18.915l-0.989,0.582l-31.39,40.908l-4.713,0l-41.224,-31.633l33.909,-44.19l42.946,32.954l0.443,-0.261Z" style="fill:none;stroke:#00f;stroke-width:0.03px;stroke-linejoin:miter;stroke-miterlimit:2;"/>
    </g>
    <g id="_3mm--optional--Top-plate1" serif:id="3mm (optional) Top plate">
        <path id="Outside-shape1" serif:id="Outside shape" d="M892.346,14.173c-1.353,0 -2.651,0.538 -3.607,1.495c-0.957,0.957 -1.495,2.254 -1.495,3.608c0,40.097 0,304.028 0,344.126c0,2.818 2.284,5.102 5.102,5.102c31.265,0 196.641,0 227.906,0c2.818,0 5.102,-2.284 5.102,-5.102c0,-1.291 0,-2.678 0,-3.969c0,-1.353 0.538,-2.651 1.495,-3.608c0.957,-0.957 2.254,-1.494 3.608,-1.494c42.955,0 343.69,0 386.645,0c1.354,0 2.651,0.537 3.608,1.494c0.957,0.957 1.495,2.255 1.495,3.608c0,1.291 0,2.678 0,3.969c0,2.818 2.284,5.102 5.102,5.102c31.265,0 196.641,0 227.906,0c2.818,0 5.102,-2.284 5.102,-5.102c0,-40.098 0,-304.029 0,-344.126c0,-1.354 -0.538,-2.651 -1.494,-3.608c-0.957,-0.957 -2.255,-1.495 -3.608,-1.495c-15.923,0 -64.582,0 -80.504,0c-1.354,0 -2.651,0.538 -3.608,1.495c-0.957,0.957 -1.495,2.254 -1.495,3.608c0,0.376 0,0.757 0,1.133c0,1.354 -0.537,2.651 -1.494,3.608c-0.957,0.957 -2.255,1.495 -3.608,1.495c-59.575,0 -621.874,0 -681.449,0c-1.353,0 -2.651,-0.538 -3.608,-1.495c-0.957,-0.957 -1.494,-2.254 -1.494,-3.608c0,-0.376 0,-0.757 0,-1.133c0,-1.354 -0.538,-2.651 -1.495,-3.608c-0.957,-0.957 -2.254,-1.495 -3.608,-1.495c-15.922,0 -64.581,0 -80.504,0Z" style="fill:none;stroke:#00f;stroke-width:0.03px;"/>
        <ellipse cx="1534.96" cy="355.712" rx="4.535" ry="4.5" style="fill:none;stroke:#00f;stroke-width:0.03px;"/>
        <ellipse cx="1476.85" cy="38.215" rx="4.535" ry="4.5" style="fill:none;stroke:#00f;stroke-width:0.03px;"/>
        <ellipse cx="1741.89" cy="62.326" rx="4.535" ry="4.5" style="fill:none;stroke:#00f;stroke-width:0.03px;"/>
        <ellipse cx="905.669" cy="62.326" rx="4.535" ry="4.5" style="fill:none;stroke:#00f;stroke-width:0.03px;"/>
        <ellipse cx="905.669" cy="265.003" rx="4.535" ry="4.5" style="fill:none;stroke:#00f;stroke-width:0.03px;"/>
        <ellipse cx="1741.89" cy="265.003" rx="4.535" ry="4.5" style="fill:none;stroke:#00f;stroke-width:0.03px;"/>
        <ellipse cx="1112.6" cy="355.746" rx="4.535" ry="4.5" style="fill:none;stroke:#00f;stroke-width:0.03px;"/>
        <ellipse cx="1170.71" cy="38.249" rx="4.535" ry="4.5" style="fill:none;stroke:#00f;stroke-width:0.03px;"/>
        <g id="Inlay-outline1" serif:id="Inlay outline">
            <path d="M1329.45,177.607c32.59,2.916 58.11,30.266 58.11,63.53c0,35.201 -28.579,63.78 -63.779,63.78c-35.201,0 -63.78,-28.579 -63.78,-63.78c0,-33.29 25.561,-60.658 58.11,-63.53l0,-3.509l11.339,0l0,3.509Z" style="fill:none;stroke:#00f;stroke-width:0.03px;"/>
        </g>
        <path id="Power-switch1" serif:id="Power switch" d="M1516.88,211.708l2.067,11.724l33.499,-5.906l-2.067,-11.725l-33.499,5.907Z" style="fill:none;stroke:#00f;stroke-width:0.03px;stroke-miterlimit:1;"/>
        <path id="Small-reset-switch-hole1" serif:id="Small reset switch hole" d="M1359.52,113.399c0,1.721 -1.397,3.118 -3.118,3.118c-1.721,0 -3.118,-1.397 -3.118,-3.118c0,-1.721 1.397,-3.118 3.118,-3.118c1.721,0 3.118,1.397 3.118,3.118Z" style="fill:none;stroke:#00f;stroke-width:0.03px;stroke-miterlimit:1;"/>
        <rect id="Reset-hole1" serif:id="Reset hole" x="1295.93" y="85.139" width="55.701" height="55.701" style="fill:none;stroke:#00f;stroke-width:0.03px;stroke-linejoin:miter;stroke-miterlimit:2;"/>
        <path id="Left-key-holes1" serif:id="Left key holes" d="M1193.94,301.149l-52.34,-19.051l18.452,-50.697l-20.456,-3.607l3.125,-17.727l-51.505,-9.082l-3.126,17.727l-53.18,-9.377l-2.83,16.051l106.36,18.754l-9.673,54.855l-53.18,-9.377l-54.854,-9.673l-53.18,-9.377l-53.18,-9.377l9.672,-54.854l9.082,-51.505l9.672,-54.855l9.377,-53.18l106.36,18.754l3.126,-17.726l53.18,9.377l3.126,-17.726l54.854,9.672l-3.125,17.727l106.36,18.754l-9.673,54.854l-9.081,51.506l-9.673,54.854l-54.854,-9.672l-22.801,-4.021l43.017,15.657l-18.35,50.416l0.444,0.368l42.891,-32.911l33.908,44.191l-40.855,31.349l-5.299,0l-31.029,-40.438l-0.762,-0.633Z" style="fill:none;stroke:#00f;stroke-width:0.03px;stroke-linejoin:miter;stroke-miterlimit:2;"/>
        <path id="Right-key-holes1" serif:id="Right key holes" d="M1452.68,299.09l-18.404,-50.566l43.017,-15.657l-22.801,4.02l-54.854,9.673l-9.673,-54.855l-9.081,-51.505l-9.673,-54.855l53.18,-9.377l53.18,-9.377l-3.125,-17.726l54.854,-9.673l3.126,17.727l53.18,-9.377l3.126,17.726l51.505,-9.082l54.855,-9.672l37.803,214.394l-53.18,9.377l-53.18,9.377l-54.854,9.672l-53.181,9.377l-9.672,-54.854l54.855,-9.673l51.505,-9.082l-2.83,-16.051l-53.18,9.377l-3.126,-17.726l-51.505,9.082l3.125,17.726l-20.456,3.607l18.452,50.698l-51.969,18.915l-0.989,0.582l-31.39,40.908l-4.713,0l-41.224,-31.633l33.908,-44.19l42.947,32.954l0.442,-0.261Z" style="fill:none;stroke:#00f;stroke-width:0.03px;stroke-linejoin:miter;stroke-miterlimit:2;"/>
    </g>
    <g id="_3mm--optional--Top-plate2" serif:id="3mm (optional) Top plate">
        <path id="Outside-shape2" serif:id="Outside shape" d="M19.276,368.504c-1.354,0 -2.651,0.537 -3.608,1.494c-0.957,0.957 -1.495,2.255 -1.495,3.608c0,40.098 0,304.029 0,344.126c0,2.818 2.285,5.103 5.103,5.103c31.265,0 196.64,0 227.905,0c2.818,0 5.102,-2.285 5.102,-5.103c0,-1.291 0,-2.677 0,-3.968c0,-1.353 0.538,-2.651 1.495,-3.608c0.957,-0.957 2.255,-1.495 3.608,-1.495c42.955,0 343.69,0 386.645,0c1.354,0 2.652,0.538 3.608,1.495c0.957,0.957 1.495,2.255 1.495,3.608c0,1.291 0,2.677 0,3.968c0,2.818 2.284,5.103 5.102,5.103c31.265,0 196.641,0 227.906,0c2.818,0 5.102,-2.285 5.102,-5.103c0,-40.097 0,-304.028 0,-344.126c0,-1.353 -0.537,-2.651 -1.494,-3.608c-0.957,-0.957 -2.255,-1.494 -3.608,-1.494c-15.923,0 -64.581,0 -80.504,0c-1.353,0 -2.651,0.537 -3.608,1.494c-0.957,0.957 -1.495,2.255 -1.495,3.608c0,0.377 0,0.757 0,1.134c0,1.353 -0.537,2.651 -1.494,3.608c-0.957,0.957 -2.255,1.495 -3.608,1.495c-59.575,0 -621.874,0 -681.449,0c-1.353,0 -2.651,-0.538 -3.608,-1.495c-0.957,-0.957 -1.494,-2.255 -1.494,-3.608c0,-0.377 0,-0.757 0,-1.134c0,-1.353 -0.538,-2.651 -1.495,-3.608c-0.956,-0.957 -2.254,-1.494 -3.607,-1.494c-15.923,0 -64.582,0 -80.504,0Z" style="fill:none;stroke:#00f;stroke-width:0.03px;"/>
        <ellipse cx="661.89" cy="710.043" rx="4.535" ry="4.5" style="fill:none;stroke:#00f;stroke-width:0.03px;"/>
        <ellipse cx="603.78" cy="392.546" rx="4.535" ry="4.5" style="fill:none;stroke:#00f;stroke-width:0.03px;"/>
        <ellipse cx="868.819" cy="416.657" rx="4.535" ry="4.5" style="fill:none;stroke:#00f;stroke-width:0.03px;"/>
        <ellipse cx="32.598" cy="416.657" rx="4.535" ry="4.5" style="fill:none;stroke:#00f;stroke-width:0.03px;"/>
        <ellipse cx="32.598" cy="619.334" rx="4.535" ry="4.5" style="fill:none;stroke:#00f;stroke-width:0.03px;"/>
        <ellipse cx="868.819" cy="619.334" rx="4.535" ry="4.5" style="fill:none;stroke:#00f;stroke-width:0.03px;"/>
        <ellipse cx="239.528" cy="710.077" rx="4.535" ry="4.5" style="fill:none;stroke:#00f;stroke-width:0.03px;"/>
        <ellipse cx="297.638" cy="392.579" rx="4.535" ry="4.5" style="fill:none;stroke:#00f;stroke-width:0.03px;"/>
        <g id="Inlay-outline2" serif:id="Inlay outline">
            <path d="M456.378,531.938c32.59,2.916 58.11,30.266 58.11,63.53c0,35.201 -28.578,63.78 -63.779,63.78c-35.201,0 -63.78,-28.579 -63.78,-63.78c0,-33.29 25.561,-60.658 58.11,-63.53l0,-3.509l11.339,0l0,3.509Z" style="fill:none;stroke:#00f;stroke-width:0.03px;"/>
        </g>
        <path id="Power-switch2" serif:id="Power switch" d="M643.809,566.039l2.067,11.724l33.499,-5.907l-2.067,-11.724l-33.499,5.907Z" style="fill:none;stroke:#00f;stroke-width:0.03px;stroke-miterlimit:1;"/>
        <path id="Small-reset-switch-hole2" serif:id="Small reset switch hole" d="M486.451,467.73c0,1.721 -1.397,3.118 -3.118,3.118c-1.721,0 -3.118,-1.397 -3.118,-3.118c0,-1.721 1.397,-3.118 3.118,-3.118c1.721,0 3.118,1.397 3.118,3.118Z" style="fill:none;stroke:#00f;stroke-width:0.03px;stroke-miterlimit:1;"/>
        <rect id="Reset-hole2" serif:id="Reset hole" x="422.858" y="439.47" width="55.701" height="55.701" style="fill:none;stroke:#00f;stroke-width:0.03px;stroke-linejoin:miter;stroke-miterlimit:2;"/>
        <path id="Left-key-holes2" serif:id="Left key holes" d="M320.87,655.479l-52.34,-19.05l18.452,-50.698l-20.456,-3.607l3.125,-17.726l-51.505,-9.082l-3.126,17.727l-53.18,-9.377l-2.83,16.051l106.36,18.754l-9.672,54.854l-53.18,-9.377l-54.855,-9.672l-53.18,-9.377l-53.18,-9.377l9.672,-54.855l9.082,-51.504l9.672,-54.855l9.377,-53.18l106.36,18.754l3.126,-17.726l53.18,9.377l3.126,-17.726l54.854,9.672l-3.125,17.726l106.36,18.755l-9.673,54.854l-9.081,51.505l-9.673,54.855l-54.854,-9.672l-22.801,-4.021l43.017,15.657l-18.349,50.415l0.443,0.369l42.891,-32.911l33.908,44.19l-40.854,31.349l-5.3,0l-31.029,-40.437l-0.762,-0.634Z" style="fill:none;stroke:#00f;stroke-width:0.03px;stroke-linejoin:miter;stroke-miterlimit:2;"/>
        <path id="Right-key-holes2" serif:id="Right key holes" d="M579.607,653.421l-18.405,-50.566l43.017,-15.657l-22.801,4.02l-54.854,9.672l-9.672,-54.854l-9.082,-51.505l-9.673,-54.855l53.181,-9.377l53.18,-9.377l-3.126,-17.727l54.855,-9.672l3.125,17.727l53.18,-9.377l3.126,17.726l51.505,-9.082l54.855,-9.673l37.803,214.394l-53.18,9.377l-53.18,9.377l-54.854,9.673l-53.18,9.377l-9.673,-54.855l54.855,-9.672l51.505,-9.082l-2.83,-16.051l-53.18,9.377l-3.126,-17.726l-51.505,9.081l3.126,17.727l-20.457,3.607l18.452,50.698l-51.969,18.915l-0.989,0.582l-31.39,40.907l-4.713,0l-41.224,-31.632l33.909,-44.19l42.946,32.953l0.443,-0.26Z" style="fill:none;stroke:#00f;stroke-width:0.03px;stroke-linejoin:miter;stroke-miterlimit:2;"/>
    </g>
    <g id="_3mm--optional--Top-plate3" serif:id="3mm (optional) Top plate">
        <path id="Outside-shape3" serif:id="Outside shape" d="M892.346,368.504c-1.353,0 -2.651,0.537 -3.607,1.494c-0.957,0.957 -1.495,2.255 -1.495,3.608c0,40.098 0,304.029 0,344.126c0,2.818 2.284,5.103 5.102,5.103c31.265,0 196.641,0 227.906,0c2.818,0 5.102,-2.285 5.102,-5.103c0,-1.291 0,-2.677 0,-3.968c0,-1.353 0.538,-2.651 1.495,-3.608c0.957,-0.957 2.254,-1.495 3.608,-1.495c42.955,0 343.69,0 386.645,0c1.354,0 2.651,0.538 3.608,1.495c0.957,0.957 1.495,2.255 1.495,3.608c0,1.291 0,2.677 0,3.968c0,2.818 2.284,5.103 5.102,5.103c31.265,0 196.641,0 227.906,0c2.818,0 5.102,-2.285 5.102,-5.103c0,-40.097 0,-304.028 0,-344.126c0,-1.353 -0.538,-2.651 -1.494,-3.608c-0.957,-0.957 -2.255,-1.494 -3.608,-1.494c-15.923,0 -64.582,0 -80.504,0c-1.354,0 -2.651,0.537 -3.608,1.494c-0.957,0.957 -1.495,2.255 -1.495,3.608c0,0.377 0,0.757 0,1.134c0,1.353 -0.537,2.651 -1.494,3.608c-0.957,0.957 -2.255,1.495 -3.608,1.495c-59.575,0 -621.874,0 -681.449,0c-1.353,0 -2.651,-0.538 -3.608,-1.495c-0.957,-0.957 -1.494,-2.255 -1.494,-3.608c0,-0.377 0,-0.757 0,-1.134c0,-1.353 -0.538,-2.651 -1.495,-3.608c-0.957,-0.957 -2.254,-1.494 -3.608,-1.494c-15.922,0 -64.581,0 -80.504,0Z" style="fill:none;stroke:#00f;stroke-width:0.03px;"/>
        <ellipse cx="1534.96" cy="710.043" rx="4.535" ry="4.5" style="fill:none;stroke:#00f;stroke-width:0.03px;"/>
        <ellipse cx="1476.85" cy="392.546" rx="4.535" ry="4.5" style="fill:none;stroke:#00f;stroke-width:0.03px;"/>
        <ellipse cx="1741.89" cy="416.657" rx="4.535" ry="4.5" style="fill:none;stroke:#00f;stroke-width:0.03px;"/>
        <ellipse cx="905.669" cy="416.657" rx="4.535" ry="4.5" style="fill:none;stroke:#00f;stroke-width:0.03px;"/>
        <ellipse cx="905.669" cy="619.334" rx="4.535" ry="4.5" style="fill:none;stroke:#00f;stroke-width:0.03px;"/>
        <ellipse cx="1741.89" cy="619.334" rx="4.535" ry="4.5" style="fill:none;stroke:#00f;stroke-width:0.03px;"/>
        <ellipse cx="1112.6" cy="710.077" rx="4.535" ry="4.5" style="fill:none;stroke:#00f;stroke-width:0.03px;"/>
        <ellipse cx="1170.71" cy="392.579" rx="4.535" ry="4.5" style="fill:none;stroke:#00f;stroke-width:0.03px;"/>
        <g id="Inlay-outline3" serif:id="Inlay outline">
            <path d="M1329.45,531.938c32.59,2.916 58.11,30.266 58.11,63.53c0,35.201 -28.579,63.78 -63.779,63.78c-35.201,0 -63.78,-28.579 -63.78,-63.78c0,-33.29 25.561,-60.658 58.11,-63.53l0,-3.509l11.339,0l0,3.509Z" style="fill:none;stroke:#00f;stroke-width:0.03px;"/>
        </g>
        <path id="Power-switch3" serif:id="Power switch" d="M1516.88,566.039l2.067,11.724l33.499,-5.907l-2.067,-11.724l-33.499,5.907Z" style="fill:none;stroke:#00f;stroke-width:0.03px;stroke-miterlimit:1;"/>
        <path id="Small-reset-switch-hole3" serif:id="Small reset switch hole" d="M1359.52,467.73c0,1.721 -1.397,3.118 -3.118,3.118c-1.721,0 -3.118,-1.397 -3.118,-3.118c0,-1.721 1.397,-3.118 3.118,-3.118c1.721,0 3.118,1.397 3.118,3.118Z" style="fill:none;stroke:#00f;stroke-width:0.03px;stroke-miterlimit:1;"/>
        <rect id="Reset-hole3" serif:id="Reset hole" x="1295.93" y="439.47" width="55.701" height="55.701" style="fill:none;stroke:#00f;stroke-width:0.03px;stroke-linejoin:miter;stroke-miterlimit:2;"/>
        <path id="Left-key-holes3" serif:id="Left key holes" d="M1193.94,655.479l-52.34,-19.05l18.452,-50.698l-20.456,-3.607l3.125,-17.726l-51.505,-9.082l-3.126,17.727l-53.18,-9.377l-2.83,16.051l106.36,18.754l-9.673,54.854l-53.18,-9.377l-54.854,-9.672l-53.18,-9.377l-53.18,-9.377l9.672,-54.855l9.082,-51.504l9.672,-54.855l9.377,-53.18l106.36,18.754l3.126,-17.726l53.18,9.377l3.126,-17.726l54.854,9.672l-3.125,17.726l106.36,18.755l-9.673,54.854l-9.081,51.505l-9.673,54.855l-54.854,-9.672l-22.801,-4.021l43.017,15.657l-18.35,50.415l0.444,0.369l42.891,-32.911l33.908,44.19l-40.855,31.349l-5.299,0l-31.029,-40.437l-0.762,-0.634Z" style="fill:none;stroke:#00f;stroke-width:0.03px;stroke-linejoin:miter;stroke-miterlimit:2;"/>
        <path id="Right-key-holes3" serif:id="Right key holes" d="M1452.68,653.421l-18.404,-50.566l43.017,-15.657l-22.801,4.02l-54.854,9.672l-9.673,-54.854l-9.081,-51.505l-9.673,-54.855l53.18,-9.377l53.18,-9.377l-3.125,-17.727l54.854,-9.672l3.126,17.727l53.18,-9.377l3.126,17.726l51.505,-9.082l54.855,-9.673l37.803,214.394l-53.18,9.377l-53.18,9.377l-54.854,9.673l-53.181,9.377l-9.672,-54.855l54.855,-9.672l51.505,-9.082l-2.83,-16.051l-53.18,9.377l-3.126,-17.726l-51.505,9.081l3.125,17.727l-20.456,3.607l18.452,50.698l-51.969,18.915l-0.989,0.582l-31.39,40.907l-4.713,0l-41.224,-31.632l33.908,-44.19l42.947,32.953l0.442,-0.26Z" style="fill:none;stroke:#00f;stroke-width:0.03px;stroke-linejoin:miter;stroke-miterlimit:2;"/>
    </g>
    <g id="_3mm--optional--Top-plate4" serif:id="3mm (optional) Top plate">
        <path id="Outside-shape4" serif:id="Outside shape" d="M19.276,722.835c-1.354,0 -2.651,0.537 -3.608,1.494c-0.957,0.957 -1.495,2.255 -1.495,3.608c0,40.097 0,304.029 0,344.126c0,2.818 2.285,5.102 5.103,5.102c31.265,0 196.64,0 227.905,0c2.818,0 5.102,-2.284 5.102,-5.102c0,-1.291 0,-2.678 0,-3.969c0,-1.353 0.538,-2.651 1.495,-3.607c0.957,-0.957 2.255,-1.495 3.608,-1.495c42.955,0 343.69,0 386.645,0c1.354,0 2.652,0.538 3.608,1.495c0.957,0.956 1.495,2.254 1.495,3.607c0,1.291 0,2.678 0,3.969c0,2.818 2.284,5.102 5.102,5.102c31.265,0 196.641,0 227.906,0c2.818,0 5.102,-2.284 5.102,-5.102c0,-40.097 0,-304.029 0,-344.126c0,-1.353 -0.537,-2.651 -1.494,-3.608c-0.957,-0.957 -2.255,-1.494 -3.608,-1.494c-15.923,0 -64.581,0 -80.504,0c-1.353,0 -2.651,0.537 -3.608,1.494c-0.957,0.957 -1.495,2.255 -1.495,3.608c0,0.377 0,0.757 0,1.134c0,1.353 -0.537,2.651 -1.494,3.608c-0.957,0.957 -2.255,1.494 -3.608,1.494c-59.575,0 -621.874,0 -681.449,0c-1.353,0 -2.651,-0.537 -3.608,-1.494c-0.957,-0.957 -1.494,-2.255 -1.494,-3.608c0,-0.377 0,-0.757 0,-1.134c0,-1.353 -0.538,-2.651 -1.495,-3.608c-0.956,-0.957 -2.254,-1.494 -3.607,-1.494c-15.923,0 -64.582,0 -80.504,0Z" style="fill:none;stroke:#00f;stroke-width:0.03px;"/>
        <ellipse cx="661.89" cy="1064.37" rx="4.535" ry="4.5" style="fill:none;stroke:#00f;stroke-width:0.03px;"/>
        <ellipse cx="603.78" cy="746.876" rx="4.535" ry="4.5" style="fill:none;stroke:#00f;stroke-width:0.03px;"/>
        <ellipse cx="868.819" cy="770.988" rx="4.535" ry="4.5" style="fill:none;stroke:#00f;stroke-width:0.03px;"/>
        <ellipse cx="32.598" cy="770.988" rx="4.535" ry="4.5" style="fill:none;stroke:#00f;stroke-width:0.03px;"/>
        <ellipse cx="32.598" cy="973.665" rx="4.535" ry="4.5" style="fill:none;stroke:#00f;stroke-width:0.03px;"/>
        <ellipse cx="868.819" cy="973.665" rx="4.535" ry="4.5" style="fill:none;stroke:#00f;stroke-width:0.03px;"/>
        <ellipse cx="239.528" cy="1064.41" rx="4.535" ry="4.5" style="fill:none;stroke:#00f;stroke-width:0.03px;"/>
        <ellipse cx="297.638" cy="746.91" rx="4.535" ry="4.5" style="fill:none;stroke:#00f;stroke-width:0.03px;"/>
        <g id="Inlay-outline4" serif:id="Inlay outline">
            <path d="M456.378,886.268c32.59,2.916 58.11,30.267 58.11,63.531c0,35.201 -28.578,63.779 -63.779,63.779c-35.201,0 -63.78,-28.578 -63.78,-63.779c0,-33.291 25.561,-60.658 58.11,-63.531l0,-3.509l11.339,0l0,3.509Z" style="fill:none;stroke:#00f;stroke-width:0.03px;"/>
        </g>
        <path id="Power-switch4" serif:id="Power switch" d="M643.809,920.369l2.067,11.725l33.499,-5.907l-2.067,-11.725l-33.499,5.907Z" style="fill:none;stroke:#00f;stroke-width:0.03px;stroke-miterlimit:1;"/>
        <path id="Small-reset-switch-hole4" serif:id="Small reset switch hole" d="M486.451,822.061c0,1.721 -1.397,3.118 -3.118,3.118c-1.721,0 -3.118,-1.397 -3.118,-3.118c0,-1.721 1.397,-3.118 3.118,-3.118c1.721,0 3.118,1.397 3.118,3.118Z" style="fill:none;stroke:#00f;stroke-width:0.03px;stroke-miterlimit:1;"/>
        <rect id="Reset-hole4" serif:id="Reset hole" x="422.858" y="793.801" width="55.701" height="55.701" style="fill:none;stroke:#00f;stroke-width:0.03px;stroke-linejoin:miter;stroke-miterlimit:2;"/>
        <path id="Left-key-holes4" serif:id="Left key holes" d="M320.87,1009.81l-52.34,-19.05l18.452,-50.698l-20.456,-3.607l3.125,-17.726l-51.505,-9.082l-3.126,17.726l-53.18,-9.377l-2.83,16.051l106.36,18.755l-9.672,54.854l-53.18,-9.377l-54.855,-9.672l-53.18,-9.377l-53.18,-9.378l9.672,-54.854l9.082,-51.505l9.672,-54.854l9.377,-53.18l106.36,18.754l3.126,-17.726l53.18,9.377l3.126,-17.727l54.854,9.673l-3.125,17.726l106.36,18.754l-9.673,54.855l-9.081,51.505l-9.673,54.855l-54.854,-9.673l-22.801,-4.02l43.017,15.657l-18.349,50.415l0.443,0.369l42.891,-32.911l33.908,44.19l-40.854,31.349l-5.3,0l-31.029,-40.437l-0.762,-0.634Z" style="fill:none;stroke:#00f;stroke-width:0.03px;stroke-linejoin:miter;stroke-miterlimit:2;"/>
        <path id="Right-key-holes4" serif:id="Right key holes" d="M579.607,1007.75l-18.405,-50.567l43.017,-15.657l-22.801,4.021l-54.854,9.672l-9.672,-54.854l-9.082,-51.506l-9.673,-54.854l53.181,-9.377l53.18,-9.377l-3.126,-17.727l54.855,-9.672l3.125,17.726l53.18,-9.377l3.126,17.726l51.505,-9.082l54.855,-9.672l37.803,214.394l-53.18,9.377l-53.18,9.377l-54.854,9.673l-53.18,9.377l-9.673,-54.855l54.855,-9.672l51.505,-9.082l-2.83,-16.051l-53.18,9.377l-3.126,-17.727l-51.505,9.082l3.126,17.727l-20.457,3.607l18.452,50.697l-51.969,18.916l-0.989,0.581l-31.39,40.908l-4.713,0l-41.224,-31.632l33.909,-44.191l42.946,32.954l0.443,-0.26Z" style="fill:none;stroke:#00f;stroke-width:0.03px;stroke-linejoin:miter;stroke-miterlimit:2;"/>
    </g>
    <g id="_3mm--optional--Top-plate5" serif:id="3mm (optional) Top plate">
        <path id="Outside-shape5" serif:id="Outside shape" d="M892.346,722.835c-1.353,0 -2.651,0.537 -3.607,1.494c-0.957,0.957 -1.495,2.255 -1.495,3.608c0,40.097 0,304.029 0,344.126c0,2.818 2.284,5.102 5.102,5.102c31.265,0 196.641,0 227.906,0c2.818,0 5.102,-2.284 5.102,-5.102c0,-1.291 0,-2.678 0,-3.969c0,-1.353 0.538,-2.651 1.495,-3.607c0.957,-0.957 2.254,-1.495 3.608,-1.495c42.955,0 343.69,0 386.645,0c1.354,0 2.651,0.538 3.608,1.495c0.957,0.956 1.495,2.254 1.495,3.607c0,1.291 0,2.678 0,3.969c0,2.818 2.284,5.102 5.102,5.102c31.265,0 196.641,0 227.906,0c2.818,0 5.102,-2.284 5.102,-5.102c0,-40.097 0,-304.029 0,-344.126c0,-1.353 -0.538,-2.651 -1.494,-3.608c-0.957,-0.957 -2.255,-1.494 -3.608,-1.494c-15.923,0 -64.582,0 -80.504,0c-1.354,0 -2.651,0.537 -3.608,1.494c-0.957,0.957 -1.495,2.255 -1.495,3.608c0,0.377 0,0.757 0,1.134c0,1.353 -0.537,2.651 -1.494,3.608c-0.957,0.957 -2.255,1.494 -3.608,1.494c-59.575,0 -621.874,0 -681.449,0c-1.353,0 -2.651,-0.537 -3.608,-1.494c-0.957,-0.957 -1.494,-2.255 -1.494,-3.608c0,-0.377 0,-0.757 0,-1.134c0,-1.353 -0.538,-2.651 -1.495,-3.608c-0.957,-0.957 -2.254,-1.494 -3.608,-1.494c-15.922,0 -64.581,0 -80.504,0Z" style="fill:none;stroke:#00f;stroke-width:0.03px;"/>
        <ellipse cx="1534.96" cy="1064.37" rx="4.535" ry="4.5" style="fill:none;stroke:#00f;stroke-width:0.03px;"/>
        <ellipse cx="1476.85" cy="746.876" rx="4.535" ry="4.5" style="fill:none;stroke:#00f;stroke-width:0.03px;"/>
        <ellipse cx="1741.89" cy="770.988" rx="4.535" ry="4.5" style="fill:none;stroke:#00f;stroke-width:0.03px;"/>
        <ellipse cx="905.669" cy="770.988" rx="4.535" ry="4.5" style="fill:none;stroke:#00f;stroke-width:0.03px;"/>
        <ellipse cx="905.669" cy="973.665" rx="4.535" ry="4.5" style="fill:none;stroke:#00f;stroke-width:0.03px;"/>
        <ellipse cx="1741.89" cy="973.665" rx="4.535" ry="4.5" style="fill:none;stroke:#00f;stroke-width:0.03px;"/>
        <ellipse cx="1112.6" cy="1064.41" rx="4.535" ry="4.5" style="fill:none;stroke:#00f;stroke-width:0.03px;"/>
        <ellipse cx="1170.71" cy="746.91" rx="4.535" ry="4.5" style="fill:none;stroke:#00f;stroke-width:0.03px;"/>
        <g id="Inlay-outline5" serif:id="Inlay outline">
            <path d="M1329.45,886.268c32.59,2.916 58.11,30.267 58.11,63.531c0,35.201 -28.579,63.779 -63.779,63.779c-35.201,0 -63.78,-28.578 -63.78,-63.779c0,-33.291 25.561,-60.658 58.11,-63.531l0,-3.509l11.339,0l0,3.509Z" style="fill:none;stroke:#00f;stroke-width:0.03px;"/>
        </g>
        <path id="Power-switch5" serif:id="Power switch" d="M1516.88,920.369l2.067,11.725l33.499,-5.907l-2.067,-11.725l-33.499,5.907Z" style="fill:none;stroke:#00f;stroke-width:0.03px;stroke-miterlimit:1;"/>
        <path id="Small-reset-switch-hole5" serif:id="Small reset switch hole" d="M1359.52,822.061c0,1.721 -1.397,3.118 -3.118,3.118c-1.721,0 -3.118,-1.397 -3.118,-3.118c0,-1.721 1.397,-3.118 3.118,-3.118c1.721,0 3.118,1.397 3.118,3.118Z" style="fill:none;stroke:#00f;stroke-width:0.03px;stroke-miterlimit:1;"/>
        <rect id="Reset-hole5" serif:id="Reset hole" x="1295.93" y="793.801" width="55.701" height="55.701" style="fill:none;stroke:#00f;stroke-width:0.03px;stroke-linejoin:miter;stroke-miterlimit:2;"/>
        <path id="Left-key-holes5" serif:id="Left key holes" d="M1193.94,1009.81l-52.34,-19.05l18.452,-50.698l-20.456,-3.607l3.125,-17.726l-51.505,-9.082l-3.126,17.726l-53.18,-9.377l-2.83,16.051l106.36,18.755l-9.673,54.854l-53.18,-9.377l-54.854,-9.672l-53.18,-9.377l-53.18,-9.378l9.672,-54.854l9.082,-51.505l9.672,-54.854l9.377,-53.18l106.36,18.754l3.126,-17.726l53.18,9.377l3.126,-17.727l54.854,9.673l-3.125,17.726l106.36,18.754l-9.673,54.855l-9.081,51.505l-9.673,54.855l-54.854,-9.673l-22.801,-4.02l43.017,15.657l-18.35,50.415l0.444,0.369l42.891,-32.911l33.908,44.19l-40.855,31.349l-5.299,0l-31.029,-40.437l-0.762,-0.634Z" style="fill:none;stroke:#00f;stroke-width:0.03px;stroke-linejoin:miter;stroke-miterlimit:2;"/>
        <path id="Right-key-holes5" serif:id="Right key holes" d="M1452.68,1007.75l-18.404,-50.567l43.017,-15.657l-22.801,4.021l-54.854,9.672l-9.673,-54.854l-9.081,-51.506l-9.673,-54.854l53.18,-9.377l53.18,-9.377l-3.125,-17.727l54.854,-9.672l3.126,17.726l53.18,-9.377l3.126,17.726l51.505,-9.082l54.855,-9.672l37.803,214.394l-53.18,9.377l-53.18,9.377l-54.854,9.673l-53.181,9.377l-9.672,-54.855l54.855,-9.672l51.505,-9.082l-2.83,-16.051l-53.18,9.377l-3.126,-17.727l-51.505,9.082l3.125,17.727l-20.456,3.607l18.452,50.697l-51.969,18.916l-0.989,0.581l-31.39,40.908l-4.713,0l-41.224,-31.632l33.908,-44.191l42.947,32.954l0.442,-0.26Z" style="fill:none;stroke:#00f;stroke-width:0.03px;stroke-linejoin:miter;stroke-miterlimit:2;"/>
    </g>
    <g id="_3mm--optional--Top-plate6" serif:id="3mm (optional) Top plate">
        <path id="Outside-shape6" serif:id="Outside shape" d="M1761.97,989.858c0,1.353 0.538,2.651 1.495,3.608c0.956,0.957 2.254,1.494 3.607,1.494c40.098,0 304.029,0 344.126,0c2.818,0 5.103,-2.284 5.103,-5.102c0,-31.265 0,-196.64 0,-227.905c0,-2.818 -2.285,-5.103 -5.103,-5.103c-1.291,0 -2.677,0 -3.968,0c-1.353,0 -2.651,-0.537 -3.608,-1.494c-0.957,-0.957 -1.494,-2.255 -1.494,-3.608c0,-42.956 0,-343.69 0,-386.646c0,-1.353 0.537,-2.651 1.494,-3.608c0.957,-0.957 2.255,-1.494 3.608,-1.494c1.291,0 2.677,0 3.968,0c2.818,0 5.103,-2.285 5.103,-5.103c0,-31.265 0,-196.64 0,-227.905c0,-2.818 -2.285,-5.102 -5.103,-5.102c-40.097,0 -304.028,0 -344.126,0c-1.353,0 -2.651,0.537 -3.607,1.494c-0.957,0.957 -1.495,2.255 -1.495,3.608c0,15.923 0,64.581 0,80.504c0,1.353 0.538,2.651 1.495,3.608c0.956,0.957 2.254,1.494 3.607,1.494c0.377,0 0.758,0 1.134,0c1.354,0 2.651,0.538 3.608,1.495c0.957,0.957 1.495,2.254 1.495,3.608c0,59.574 0,621.874 0,681.448c0,1.354 -0.538,2.651 -1.495,3.608c-0.957,0.957 -2.254,1.495 -3.608,1.495c-0.376,0 -0.757,0 -1.134,0c-1.353,0 -2.651,0.537 -3.607,1.494c-0.957,0.957 -1.495,2.255 -1.495,3.608c0,15.923 0,64.581 0,80.504Z" style="fill:none;stroke:#00f;stroke-width:0.03px;"/>
        <path d="M2099.01,347.244c0,2.503 2.017,4.535 4.5,4.535c2.483,0 4.5,-2.032 4.5,-4.535c0,-2.503 -2.017,-4.536 -4.5,-4.536c-2.483,0 -4.5,2.033 -4.5,4.536Z" style="fill:none;stroke:#00f;stroke-width:0.03px;"/>
        <path d="M1781.51,405.354c0,2.503 2.016,4.536 4.5,4.536c2.483,0 4.499,-2.033 4.499,-4.536c0,-2.503 -2.016,-4.535 -4.499,-4.535c-2.484,0 -4.5,2.032 -4.5,4.535Z" style="fill:none;stroke:#00f;stroke-width:0.03px;"/>
        <path d="M1805.62,140.315c0,-2.503 2.016,-4.536 4.499,-4.536c2.484,0 4.5,2.033 4.5,4.536c0,2.503 -2.016,4.535 -4.5,4.535c-2.483,0 -4.499,-2.032 -4.499,-4.535Z" style="fill:none;stroke:#00f;stroke-width:0.03px;"/>
        <path d="M1805.62,976.535c0,-2.503 2.016,-4.535 4.499,-4.535c2.484,0 4.5,2.032 4.5,4.535c0,2.503 -2.016,4.536 -4.5,4.536c-2.483,0 -4.499,-2.033 -4.499,-4.536Z" style="fill:none;stroke:#00f;stroke-width:0.03px;"/>
        <path d="M2008.3,976.535c0,-2.503 2.016,-4.535 4.499,-4.535c2.484,0 4.5,2.032 4.5,4.535c0,2.503 -2.016,4.536 -4.5,4.536c-2.483,0 -4.499,-2.033 -4.499,-4.536Z" style="fill:none;stroke:#00f;stroke-width:0.03px;"/>
        <path d="M2008.3,140.315c0,-2.503 2.016,-4.536 4.499,-4.536c2.484,0 4.5,2.033 4.5,4.536c0,2.503 -2.016,4.535 -4.5,4.535c-2.483,0 -4.499,-2.032 -4.499,-4.535Z" style="fill:none;stroke:#00f;stroke-width:0.03px;"/>
        <path d="M2099.04,769.606c0,2.503 2.017,4.536 4.5,4.536c2.483,0 4.499,-2.033 4.499,-4.536c0,-2.503 -2.016,-4.535 -4.499,-4.535c-2.483,0 -4.5,2.032 -4.5,4.535Z" style="fill:none;stroke:#00f;stroke-width:0.03px;"/>
        <path d="M1781.55,711.496c0,2.503 2.016,4.535 4.5,4.535c2.483,0 4.499,-2.032 4.499,-4.535c0,-2.503 -2.016,-4.536 -4.499,-4.536c-2.484,0 -4.5,2.033 -4.5,4.536Z" style="fill:none;stroke:#00f;stroke-width:0.03px;"/>
        <g id="Inlay-outline6" serif:id="Inlay outline">
            <path d="M1925.4,552.756c2.916,-32.59 30.266,-58.111 63.53,-58.111c35.201,0 63.78,28.579 63.78,63.78c0,35.201 -28.579,63.78 -63.78,63.78c-33.29,0 -60.658,-25.561 -63.53,-58.111l-3.509,0l0,-11.338l3.509,0Z" style="fill:none;stroke:#00f;stroke-width:0.03px;"/>
        </g>
        <path id="Power-switch6" serif:id="Power switch" d="M1959.51,365.325l11.724,-2.068l-5.906,-33.499l-11.725,2.068l5.907,33.499Z" style="fill:none;stroke:#00f;stroke-width:0.03px;stroke-miterlimit:1;"/>
        <circle id="Small-reset-switch-hole6" serif:id="Small reset switch hole" cx="1861.2" cy="525.8" r="3.118" style="fill:none;stroke:#00f;stroke-width:0.03px;stroke-miterlimit:1;"/>
        <path id="Reset-hole6" serif:id="Reset hole" d="M1832.94,586.275l0,-55.7l55.701,0l0,55.7l-55.701,0Z" style="fill:none;stroke:#00f;stroke-width:0.03px;stroke-linejoin:miter;stroke-miterlimit:2;"/>
        <path id="Left-key-holes6" serif:id="Left key holes" d="M2048.95,688.264l-19.05,52.34l-50.697,-18.453l-3.607,20.457l-17.727,-3.126l-9.082,51.506l17.727,3.126l-9.377,53.18l16.051,2.83l18.754,-106.36l54.855,9.672l-9.378,53.18l-9.672,54.855l-9.377,53.18l-9.377,53.18l-54.855,-9.673l-51.504,-9.081l-54.855,-9.673l-53.18,-9.377l18.754,-106.36l-17.726,-3.125l9.377,-53.18l-17.726,-3.126l9.672,-54.855l17.727,3.126l18.754,-106.36l54.854,9.672l51.505,9.082l54.855,9.672l-9.672,54.855l-4.021,22.801l15.657,-43.018l50.416,18.35l0.368,-0.443l-32.911,-42.891l44.191,-33.908l31.349,40.854l0,5.3l-40.438,31.029l-0.634,0.762Z" style="fill:none;stroke:#00f;stroke-width:0.03px;stroke-linejoin:miter;stroke-miterlimit:2;"/>
        <path id="Right-key-holes6" serif:id="Right key holes" d="M2046.89,429.527l-50.566,18.405l-15.657,-43.018l4.02,22.801l9.673,54.855l-54.855,9.672l-51.505,9.082l-54.855,9.672l-9.377,-53.18l-9.377,-53.18l-17.726,3.126l-9.673,-54.855l17.727,-3.126l-9.377,-53.18l17.726,-3.125l-9.082,-51.506l-9.672,-54.854l214.394,-37.804l9.377,53.18l9.377,53.18l9.672,54.855l9.377,53.18l-54.854,9.672l-9.673,-54.854l-9.082,-51.506l-16.051,2.83l9.377,53.181l-17.726,3.125l9.082,51.506l17.726,-3.126l3.607,20.457l50.698,-18.453l18.915,51.97l0.582,0.989l40.908,31.39l0,4.713l-31.633,41.224l-44.19,-33.909l32.953,-42.946l-0.26,-0.443Z" style="fill:none;stroke:#00f;stroke-width:0.03px;stroke-linejoin:miter;stroke-miterlimit:2;"/>
    </g>
</svg>
