<?xml version="1.0" encoding="UTF-8" standalone="no"?>
<!DOCTYPE svg PUBLIC "-//W3C//DTD SVG 1.1//EN" "http://www.w3.org/Graphics/SVG/1.1/DTD/svg11.dtd">
<svg width="100%" height="100%" viewBox="0 0 1248 1056" version="1.1" xmlns="http://www.w3.org/2000/svg" xmlns:xlink="http://www.w3.org/1999/xlink" xml:space="preserve" xmlns:serif="http://www.serif.com/" style="fill-rule:evenodd;clip-rule:evenodd;stroke-miterlimit:1.5;">
    <g transform="matrix(1.33333,0,0,1.33333,0,0)">
        <g transform="matrix(1,0,0,1,-193.465,162)">
            <g id="_0.35mm-switch-master" serif:id="0.35mm switch master">
                <path d="M233.504,25.994L235.814,25.994L235.814,23.216L238.539,23.216L238.539,20.906L247.468,20.906L247.468,23.216L262.715,23.216L262.715,20.906L271.644,20.906L271.644,23.216L274.422,23.216L274.422,25.994L276.732,25.994L276.732,34.923L274.422,34.923L274.422,50.117L276.732,50.117L276.732,59.046L274.422,59.046L274.422,61.824L271.644,61.824L271.644,64.134L262.715,64.134L262.715,61.824L247.468,61.824L247.468,64.134L238.539,64.134L238.539,61.824L235.814,61.824L235.814,59.046L233.504,59.046L233.504,50.117L235.814,50.117L235.814,34.923L233.504,34.923L233.504,25.994Z" style="fill:none;stroke:rgb(255,0,0);stroke-width:0.03px;"/>
            </g>
        </g>
        <g transform="matrix(1,0,0,1,-139.465,162)">
            <g id="_0.35mm-switch-master1" serif:id="0.35mm switch master">
                <path d="M233.504,25.994L235.814,25.994L235.814,23.216L238.539,23.216L238.539,20.906L247.468,20.906L247.468,23.216L262.715,23.216L262.715,20.906L271.644,20.906L271.644,23.216L274.422,23.216L274.422,25.994L276.732,25.994L276.732,34.923L274.422,34.923L274.422,50.117L276.732,50.117L276.732,59.046L274.422,59.046L274.422,61.824L271.644,61.824L271.644,64.134L262.715,64.134L262.715,61.824L247.468,61.824L247.468,64.134L238.539,64.134L238.539,61.824L235.814,61.824L235.814,59.046L233.504,59.046L233.504,50.117L235.814,50.117L235.814,34.923L233.504,34.923L233.504,25.994Z" style="fill:none;stroke:rgb(255,0,0);stroke-width:0.03px;"/>
            </g>
        </g>
        <g transform="matrix(1,0,0,1,-85.4646,162)">
            <g id="_0.35mm-switch-master2" serif:id="0.35mm switch master">
                <path d="M233.504,25.994L235.814,25.994L235.814,23.216L238.539,23.216L238.539,20.906L247.468,20.906L247.468,23.216L262.715,23.216L262.715,20.906L271.644,20.906L271.644,23.216L274.422,23.216L274.422,25.994L276.732,25.994L276.732,34.923L274.422,34.923L274.422,50.117L276.732,50.117L276.732,59.046L274.422,59.046L274.422,61.824L271.644,61.824L271.644,64.134L262.715,64.134L262.715,61.824L247.468,61.824L247.468,64.134L238.539,64.134L238.539,61.824L235.814,61.824L235.814,59.046L233.504,59.046L233.504,50.117L235.814,50.117L235.814,34.923L233.504,34.923L233.504,25.994Z" style="fill:none;stroke:rgb(255,0,0);stroke-width:0.03px;"/>
            </g>
        </g>
        <g transform="matrix(1,0,0,1,-31.4646,162)">
            <g id="_0.35mm-switch-master3" serif:id="0.35mm switch master">
                <path d="M233.504,25.994L235.814,25.994L235.814,23.216L238.539,23.216L238.539,20.906L247.468,20.906L247.468,23.216L262.715,23.216L262.715,20.906L271.644,20.906L271.644,23.216L274.422,23.216L274.422,25.994L276.732,25.994L276.732,34.923L274.422,34.923L274.422,50.117L276.732,50.117L276.732,59.046L274.422,59.046L274.422,61.824L271.644,61.824L271.644,64.134L262.715,64.134L262.715,61.824L247.468,61.824L247.468,64.134L238.539,64.134L238.539,61.824L235.814,61.824L235.814,59.046L233.504,59.046L233.504,50.117L235.814,50.117L235.814,34.923L233.504,34.923L233.504,25.994Z" style="fill:none;stroke:rgb(255,0,0);stroke-width:0.03px;"/>
            </g>
        </g>
        <g transform="matrix(1,0,0,1,22.5354,162)">
            <g id="_0.35mm-switch-master4" serif:id="0.35mm switch master">
                <path d="M233.504,25.994L235.814,25.994L235.814,23.216L238.539,23.216L238.539,20.906L247.468,20.906L247.468,23.216L262.715,23.216L262.715,20.906L271.644,20.906L271.644,23.216L274.422,23.216L274.422,25.994L276.732,25.994L276.732,34.923L274.422,34.923L274.422,50.117L276.732,50.117L276.732,59.046L274.422,59.046L274.422,61.824L271.644,61.824L271.644,64.134L262.715,64.134L262.715,61.824L247.468,61.824L247.468,64.134L238.539,64.134L238.539,61.824L235.814,61.824L235.814,59.046L233.504,59.046L233.504,50.117L235.814,50.117L235.814,34.923L233.504,34.923L233.504,25.994Z" style="fill:none;stroke:rgb(255,0,0);stroke-width:0.03px;"/>
            </g>
        </g>
        <g transform="matrix(1,0,0,1,104.882,162)">
            <g id="_0.35mm-switch-master5" serif:id="0.35mm switch master">
                <path d="M233.504,25.994L235.814,25.994L235.814,23.216L238.539,23.216L238.539,20.906L247.468,20.906L247.468,23.216L262.715,23.216L262.715,20.906L271.644,20.906L271.644,23.216L274.422,23.216L274.422,25.994L276.732,25.994L276.732,34.923L274.422,34.923L274.422,50.117L276.732,50.117L276.732,59.046L274.422,59.046L274.422,61.824L271.644,61.824L271.644,64.134L262.715,64.134L262.715,61.824L247.468,61.824L247.468,64.134L238.539,64.134L238.539,61.824L235.814,61.824L235.814,59.046L233.504,59.046L233.504,50.117L235.814,50.117L235.814,34.923L233.504,34.923L233.504,25.994Z" style="fill:none;stroke:rgb(255,0,0);stroke-width:0.03px;"/>
            </g>
        </g>
        <g transform="matrix(1,0,0,1,158.882,162)">
            <g id="_0.35mm-switch-master6" serif:id="0.35mm switch master">
                <path d="M233.504,25.994L235.814,25.994L235.814,23.216L238.539,23.216L238.539,20.906L247.468,20.906L247.468,23.216L262.715,23.216L262.715,20.906L271.644,20.906L271.644,23.216L274.422,23.216L274.422,25.994L276.732,25.994L276.732,34.923L274.422,34.923L274.422,50.117L276.732,50.117L276.732,59.046L274.422,59.046L274.422,61.824L271.644,61.824L271.644,64.134L262.715,64.134L262.715,61.824L247.468,61.824L247.468,64.134L238.539,64.134L238.539,61.824L235.814,61.824L235.814,59.046L233.504,59.046L233.504,50.117L235.814,50.117L235.814,34.923L233.504,34.923L233.504,25.994Z" style="fill:none;stroke:rgb(255,0,0);stroke-width:0.03px;"/>
            </g>
        </g>
        <g transform="matrix(1,0,0,1,212.882,162)">
            <g id="_0.35mm-switch-master7" serif:id="0.35mm switch master">
                <path d="M233.504,25.994L235.814,25.994L235.814,23.216L238.539,23.216L238.539,20.906L247.468,20.906L247.468,23.216L262.715,23.216L262.715,20.906L271.644,20.906L271.644,23.216L274.422,23.216L274.422,25.994L276.732,25.994L276.732,34.923L274.422,34.923L274.422,50.117L276.732,50.117L276.732,59.046L274.422,59.046L274.422,61.824L271.644,61.824L271.644,64.134L262.715,64.134L262.715,61.824L247.468,61.824L247.468,64.134L238.539,64.134L238.539,61.824L235.814,61.824L235.814,59.046L233.504,59.046L233.504,50.117L235.814,50.117L235.814,34.923L233.504,34.923L233.504,25.994Z" style="fill:none;stroke:rgb(255,0,0);stroke-width:0.03px;"/>
            </g>
        </g>
        <g transform="matrix(1,0,0,1,266.882,162)">
            <g id="_0.35mm-switch-master8" serif:id="0.35mm switch master">
                <path d="M233.504,25.994L235.814,25.994L235.814,23.216L238.539,23.216L238.539,20.906L247.468,20.906L247.468,23.216L262.715,23.216L262.715,20.906L271.644,20.906L271.644,23.216L274.422,23.216L274.422,25.994L276.732,25.994L276.732,34.923L274.422,34.923L274.422,50.117L276.732,50.117L276.732,59.046L274.422,59.046L274.422,61.824L271.644,61.824L271.644,64.134L262.715,64.134L262.715,61.824L247.468,61.824L247.468,64.134L238.539,64.134L238.539,61.824L235.814,61.824L235.814,59.046L233.504,59.046L233.504,50.117L235.814,50.117L235.814,34.923L233.504,34.923L233.504,25.994Z" style="fill:none;stroke:rgb(255,0,0);stroke-width:0.03px;"/>
            </g>
        </g>
        <g transform="matrix(1,0,0,1,320.882,162)">
            <g id="_0.35mm-switch-master9" serif:id="0.35mm switch master">
                <path d="M233.504,25.994L235.814,25.994L235.814,23.216L238.539,23.216L238.539,20.906L247.468,20.906L247.468,23.216L262.715,23.216L262.715,20.906L271.644,20.906L271.644,23.216L274.422,23.216L274.422,25.994L276.732,25.994L276.732,34.923L274.422,34.923L274.422,50.117L276.732,50.117L276.732,59.046L274.422,59.046L274.422,61.824L271.644,61.824L271.644,64.134L262.715,64.134L262.715,61.824L247.468,61.824L247.468,64.134L238.539,64.134L238.539,61.824L235.814,61.824L235.814,59.046L233.504,59.046L233.504,50.117L235.814,50.117L235.814,34.923L233.504,34.923L233.504,25.994Z" style="fill:none;stroke:rgb(255,0,0);stroke-width:0.03px;"/>
            </g>
        </g>
        <g transform="matrix(1,0,0,1,403.228,162)">
            <g id="_0.35mm-switch-master10" serif:id="0.35mm switch master">
                <path d="M233.504,25.994L235.814,25.994L235.814,23.216L238.539,23.216L238.539,20.906L247.468,20.906L247.468,23.216L262.715,23.216L262.715,20.906L271.644,20.906L271.644,23.216L274.422,23.216L274.422,25.994L276.732,25.994L276.732,34.923L274.422,34.923L274.422,50.117L276.732,50.117L276.732,59.046L274.422,59.046L274.422,61.824L271.644,61.824L271.644,64.134L262.715,64.134L262.715,61.824L247.468,61.824L247.468,64.134L238.539,64.134L238.539,61.824L235.814,61.824L235.814,59.046L233.504,59.046L233.504,50.117L235.814,50.117L235.814,34.923L233.504,34.923L233.504,25.994Z" style="fill:none;stroke:rgb(255,0,0);stroke-width:0.03px;"/>
            </g>
        </g>
        <g transform="matrix(1,0,0,1,457.228,162)">
            <g id="_0.35mm-switch-master11" serif:id="0.35mm switch master">
                <path d="M233.504,25.994L235.814,25.994L235.814,23.216L238.539,23.216L238.539,20.906L247.468,20.906L247.468,23.216L262.715,23.216L262.715,20.906L271.644,20.906L271.644,23.216L274.422,23.216L274.422,25.994L276.732,25.994L276.732,34.923L274.422,34.923L274.422,50.117L276.732,50.117L276.732,59.046L274.422,59.046L274.422,61.824L271.644,61.824L271.644,64.134L262.715,64.134L262.715,61.824L247.468,61.824L247.468,64.134L238.539,64.134L238.539,61.824L235.814,61.824L235.814,59.046L233.504,59.046L233.504,50.117L235.814,50.117L235.814,34.923L233.504,34.923L233.504,25.994Z" style="fill:none;stroke:rgb(255,0,0);stroke-width:0.03px;"/>
            </g>
        </g>
        <g transform="matrix(1,0,0,1,511.228,162)">
            <g id="_0.35mm-switch-master12" serif:id="0.35mm switch master">
                <path d="M233.504,25.994L235.814,25.994L235.814,23.216L238.539,23.216L238.539,20.906L247.468,20.906L247.468,23.216L262.715,23.216L262.715,20.906L271.644,20.906L271.644,23.216L274.422,23.216L274.422,25.994L276.732,25.994L276.732,34.923L274.422,34.923L274.422,50.117L276.732,50.117L276.732,59.046L274.422,59.046L274.422,61.824L271.644,61.824L271.644,64.134L262.715,64.134L262.715,61.824L247.468,61.824L247.468,64.134L238.539,64.134L238.539,61.824L235.814,61.824L235.814,59.046L233.504,59.046L233.504,50.117L235.814,50.117L235.814,34.923L233.504,34.923L233.504,25.994Z" style="fill:none;stroke:rgb(255,0,0);stroke-width:0.03px;"/>
            </g>
        </g>
        <g transform="matrix(1,0,0,1,565.228,162)">
            <g id="_0.35mm-switch-master13" serif:id="0.35mm switch master">
                <path d="M233.504,25.994L235.814,25.994L235.814,23.216L238.539,23.216L238.539,20.906L247.468,20.906L247.468,23.216L262.715,23.216L262.715,20.906L271.644,20.906L271.644,23.216L274.422,23.216L274.422,25.994L276.732,25.994L276.732,34.923L274.422,34.923L274.422,50.117L276.732,50.117L276.732,59.046L274.422,59.046L274.422,61.824L271.644,61.824L271.644,64.134L262.715,64.134L262.715,61.824L247.468,61.824L247.468,64.134L238.539,64.134L238.539,61.824L235.814,61.824L235.814,59.046L233.504,59.046L233.504,50.117L235.814,50.117L235.814,34.923L233.504,34.923L233.504,25.994Z" style="fill:none;stroke:rgb(255,0,0);stroke-width:0.03px;"/>
            </g>
        </g>
        <g transform="matrix(1,0,0,1,619.228,162)">
            <g id="_0.35mm-switch-master14" serif:id="0.35mm switch master">
                <path d="M233.504,25.994L235.814,25.994L235.814,23.216L238.539,23.216L238.539,20.906L247.468,20.906L247.468,23.216L262.715,23.216L262.715,20.906L271.644,20.906L271.644,23.216L274.422,23.216L274.422,25.994L276.732,25.994L276.732,34.923L274.422,34.923L274.422,50.117L276.732,50.117L276.732,59.046L274.422,59.046L274.422,61.824L271.644,61.824L271.644,64.134L262.715,64.134L262.715,61.824L247.468,61.824L247.468,64.134L238.539,64.134L238.539,61.824L235.814,61.824L235.814,59.046L233.504,59.046L233.504,50.117L235.814,50.117L235.814,34.923L233.504,34.923L233.504,25.994Z" style="fill:none;stroke:rgb(255,0,0);stroke-width:0.03px;"/>
            </g>
        </g>
        <g transform="matrix(1,0,0,1,-104.823,108)">
            <g id="_0.3mm-switch-master" serif:id="0.3mm switch master">
                <path d="M144.791,25.923L147.101,25.923L147.101,23.145L149.879,23.145L149.879,20.835L158.95,20.835L158.95,23.145L174.002,23.145L174.002,20.835L183.073,20.835L183.073,23.145L185.851,23.145L185.851,25.923L188.161,25.923L188.161,34.994L185.851,34.994L185.851,50.046L188.161,50.046L188.161,59.117L185.851,59.117L185.851,61.894L183.073,61.894L183.073,64.205L174.002,64.205L174.002,61.894L158.95,61.894L158.95,64.205L149.879,64.205L149.879,61.894L147.101,61.894L147.101,59.117L144.791,59.117L144.791,50.046L147.101,50.046L147.101,34.994L144.791,34.994L144.791,25.923Z" style="fill:none;stroke:rgb(255,0,0);stroke-width:0.03px;stroke-linecap:round;"/>
            </g>
        </g>
        <g transform="matrix(1,0,0,1,-50.8227,108)">
            <g id="_0.3mm-switch-master1" serif:id="0.3mm switch master">
                <path d="M144.791,25.923L147.101,25.923L147.101,23.145L149.879,23.145L149.879,20.835L158.95,20.835L158.95,23.145L174.002,23.145L174.002,20.835L183.073,20.835L183.073,23.145L185.851,23.145L185.851,25.923L188.161,25.923L188.161,34.994L185.851,34.994L185.851,50.046L188.161,50.046L188.161,59.117L185.851,59.117L185.851,61.894L183.073,61.894L183.073,64.205L174.002,64.205L174.002,61.894L158.95,61.894L158.95,64.205L149.879,64.205L149.879,61.894L147.101,61.894L147.101,59.117L144.791,59.117L144.791,50.046L147.101,50.046L147.101,34.994L144.791,34.994L144.791,25.923Z" style="fill:none;stroke:rgb(255,0,0);stroke-width:0.03px;stroke-linecap:round;"/>
            </g>
        </g>
        <g transform="matrix(1,0,0,1,3.17725,108)">
            <g id="_0.3mm-switch-master2" serif:id="0.3mm switch master">
                <path d="M144.791,25.923L147.101,25.923L147.101,23.145L149.879,23.145L149.879,20.835L158.95,20.835L158.95,23.145L174.002,23.145L174.002,20.835L183.073,20.835L183.073,23.145L185.851,23.145L185.851,25.923L188.161,25.923L188.161,34.994L185.851,34.994L185.851,50.046L188.161,50.046L188.161,59.117L185.851,59.117L185.851,61.894L183.073,61.894L183.073,64.205L174.002,64.205L174.002,61.894L158.95,61.894L158.95,64.205L149.879,64.205L149.879,61.894L147.101,61.894L147.101,59.117L144.791,59.117L144.791,50.046L147.101,50.046L147.101,34.994L144.791,34.994L144.791,25.923Z" style="fill:none;stroke:rgb(255,0,0);stroke-width:0.03px;stroke-linecap:round;"/>
            </g>
        </g>
        <g transform="matrix(1,0,0,1,57.1773,108)">
            <g id="_0.3mm-switch-master3" serif:id="0.3mm switch master">
                <path d="M144.791,25.923L147.101,25.923L147.101,23.145L149.879,23.145L149.879,20.835L158.95,20.835L158.95,23.145L174.002,23.145L174.002,20.835L183.073,20.835L183.073,23.145L185.851,23.145L185.851,25.923L188.161,25.923L188.161,34.994L185.851,34.994L185.851,50.046L188.161,50.046L188.161,59.117L185.851,59.117L185.851,61.894L183.073,61.894L183.073,64.205L174.002,64.205L174.002,61.894L158.95,61.894L158.95,64.205L149.879,64.205L149.879,61.894L147.101,61.894L147.101,59.117L144.791,59.117L144.791,50.046L147.101,50.046L147.101,34.994L144.791,34.994L144.791,25.923Z" style="fill:none;stroke:rgb(255,0,0);stroke-width:0.03px;stroke-linecap:round;"/>
            </g>
        </g>
        <g transform="matrix(1,0,0,1,111.177,108)">
            <g id="_0.3mm-switch-master4" serif:id="0.3mm switch master">
                <path d="M144.791,25.923L147.101,25.923L147.101,23.145L149.879,23.145L149.879,20.835L158.95,20.835L158.95,23.145L174.002,23.145L174.002,20.835L183.073,20.835L183.073,23.145L185.851,23.145L185.851,25.923L188.161,25.923L188.161,34.994L185.851,34.994L185.851,50.046L188.161,50.046L188.161,59.117L185.851,59.117L185.851,61.894L183.073,61.894L183.073,64.205L174.002,64.205L174.002,61.894L158.95,61.894L158.95,64.205L149.879,64.205L149.879,61.894L147.101,61.894L147.101,59.117L144.791,59.117L144.791,50.046L147.101,50.046L147.101,34.994L144.791,34.994L144.791,25.923Z" style="fill:none;stroke:rgb(255,0,0);stroke-width:0.03px;stroke-linecap:round;"/>
            </g>
        </g>
        <g transform="matrix(1,0,0,1,193.524,108)">
            <g id="_0.3mm-switch-master5" serif:id="0.3mm switch master">
                <path d="M144.791,25.923L147.101,25.923L147.101,23.145L149.879,23.145L149.879,20.835L158.95,20.835L158.95,23.145L174.002,23.145L174.002,20.835L183.073,20.835L183.073,23.145L185.851,23.145L185.851,25.923L188.161,25.923L188.161,34.994L185.851,34.994L185.851,50.046L188.161,50.046L188.161,59.117L185.851,59.117L185.851,61.894L183.073,61.894L183.073,64.205L174.002,64.205L174.002,61.894L158.95,61.894L158.95,64.205L149.879,64.205L149.879,61.894L147.101,61.894L147.101,59.117L144.791,59.117L144.791,50.046L147.101,50.046L147.101,34.994L144.791,34.994L144.791,25.923Z" style="fill:none;stroke:rgb(255,0,0);stroke-width:0.03px;stroke-linecap:round;"/>
            </g>
        </g>
        <g transform="matrix(1,0,0,1,247.524,108)">
            <g id="_0.3mm-switch-master6" serif:id="0.3mm switch master">
                <path d="M144.791,25.923L147.101,25.923L147.101,23.145L149.879,23.145L149.879,20.835L158.95,20.835L158.95,23.145L174.002,23.145L174.002,20.835L183.073,20.835L183.073,23.145L185.851,23.145L185.851,25.923L188.161,25.923L188.161,34.994L185.851,34.994L185.851,50.046L188.161,50.046L188.161,59.117L185.851,59.117L185.851,61.894L183.073,61.894L183.073,64.205L174.002,64.205L174.002,61.894L158.95,61.894L158.95,64.205L149.879,64.205L149.879,61.894L147.101,61.894L147.101,59.117L144.791,59.117L144.791,50.046L147.101,50.046L147.101,34.994L144.791,34.994L144.791,25.923Z" style="fill:none;stroke:rgb(255,0,0);stroke-width:0.03px;stroke-linecap:round;"/>
            </g>
        </g>
        <g transform="matrix(1,0,0,1,301.524,108)">
            <g id="_0.3mm-switch-master7" serif:id="0.3mm switch master">
                <path d="M144.791,25.923L147.101,25.923L147.101,23.145L149.879,23.145L149.879,20.835L158.95,20.835L158.95,23.145L174.002,23.145L174.002,20.835L183.073,20.835L183.073,23.145L185.851,23.145L185.851,25.923L188.161,25.923L188.161,34.994L185.851,34.994L185.851,50.046L188.161,50.046L188.161,59.117L185.851,59.117L185.851,61.894L183.073,61.894L183.073,64.205L174.002,64.205L174.002,61.894L158.95,61.894L158.95,64.205L149.879,64.205L149.879,61.894L147.101,61.894L147.101,59.117L144.791,59.117L144.791,50.046L147.101,50.046L147.101,34.994L144.791,34.994L144.791,25.923Z" style="fill:none;stroke:rgb(255,0,0);stroke-width:0.03px;stroke-linecap:round;"/>
            </g>
        </g>
        <g transform="matrix(1,0,0,1,355.524,108)">
            <g id="_0.3mm-switch-master8" serif:id="0.3mm switch master">
                <path d="M144.791,25.923L147.101,25.923L147.101,23.145L149.879,23.145L149.879,20.835L158.95,20.835L158.95,23.145L174.002,23.145L174.002,20.835L183.073,20.835L183.073,23.145L185.851,23.145L185.851,25.923L188.161,25.923L188.161,34.994L185.851,34.994L185.851,50.046L188.161,50.046L188.161,59.117L185.851,59.117L185.851,61.894L183.073,61.894L183.073,64.205L174.002,64.205L174.002,61.894L158.95,61.894L158.95,64.205L149.879,64.205L149.879,61.894L147.101,61.894L147.101,59.117L144.791,59.117L144.791,50.046L147.101,50.046L147.101,34.994L144.791,34.994L144.791,25.923Z" style="fill:none;stroke:rgb(255,0,0);stroke-width:0.03px;stroke-linecap:round;"/>
            </g>
        </g>
        <g transform="matrix(1,0,0,1,409.524,108)">
            <g id="_0.3mm-switch-master9" serif:id="0.3mm switch master">
                <path d="M144.791,25.923L147.101,25.923L147.101,23.145L149.879,23.145L149.879,20.835L158.95,20.835L158.95,23.145L174.002,23.145L174.002,20.835L183.073,20.835L183.073,23.145L185.851,23.145L185.851,25.923L188.161,25.923L188.161,34.994L185.851,34.994L185.851,50.046L188.161,50.046L188.161,59.117L185.851,59.117L185.851,61.894L183.073,61.894L183.073,64.205L174.002,64.205L174.002,61.894L158.95,61.894L158.95,64.205L149.879,64.205L149.879,61.894L147.101,61.894L147.101,59.117L144.791,59.117L144.791,50.046L147.101,50.046L147.101,34.994L144.791,34.994L144.791,25.923Z" style="fill:none;stroke:rgb(255,0,0);stroke-width:0.03px;stroke-linecap:round;"/>
            </g>
        </g>
        <g transform="matrix(1,0,0,1,491.87,108)">
            <g id="_0.3mm-switch-master10" serif:id="0.3mm switch master">
                <path d="M144.791,25.923L147.101,25.923L147.101,23.145L149.879,23.145L149.879,20.835L158.95,20.835L158.95,23.145L174.002,23.145L174.002,20.835L183.073,20.835L183.073,23.145L185.851,23.145L185.851,25.923L188.161,25.923L188.161,34.994L185.851,34.994L185.851,50.046L188.161,50.046L188.161,59.117L185.851,59.117L185.851,61.894L183.073,61.894L183.073,64.205L174.002,64.205L174.002,61.894L158.95,61.894L158.95,64.205L149.879,64.205L149.879,61.894L147.101,61.894L147.101,59.117L144.791,59.117L144.791,50.046L147.101,50.046L147.101,34.994L144.791,34.994L144.791,25.923Z" style="fill:none;stroke:rgb(255,0,0);stroke-width:0.03px;stroke-linecap:round;"/>
            </g>
        </g>
        <g transform="matrix(1,0,0,1,545.87,108)">
            <g id="_0.3mm-switch-master11" serif:id="0.3mm switch master">
                <path d="M144.791,25.923L147.101,25.923L147.101,23.145L149.879,23.145L149.879,20.835L158.95,20.835L158.95,23.145L174.002,23.145L174.002,20.835L183.073,20.835L183.073,23.145L185.851,23.145L185.851,25.923L188.161,25.923L188.161,34.994L185.851,34.994L185.851,50.046L188.161,50.046L188.161,59.117L185.851,59.117L185.851,61.894L183.073,61.894L183.073,64.205L174.002,64.205L174.002,61.894L158.95,61.894L158.95,64.205L149.879,64.205L149.879,61.894L147.101,61.894L147.101,59.117L144.791,59.117L144.791,50.046L147.101,50.046L147.101,34.994L144.791,34.994L144.791,25.923Z" style="fill:none;stroke:rgb(255,0,0);stroke-width:0.03px;stroke-linecap:round;"/>
            </g>
        </g>
        <g transform="matrix(1,0,0,1,599.87,108)">
            <g id="_0.3mm-switch-master12" serif:id="0.3mm switch master">
                <path d="M144.791,25.923L147.101,25.923L147.101,23.145L149.879,23.145L149.879,20.835L158.95,20.835L158.95,23.145L174.002,23.145L174.002,20.835L183.073,20.835L183.073,23.145L185.851,23.145L185.851,25.923L188.161,25.923L188.161,34.994L185.851,34.994L185.851,50.046L188.161,50.046L188.161,59.117L185.851,59.117L185.851,61.894L183.073,61.894L183.073,64.205L174.002,64.205L174.002,61.894L158.95,61.894L158.95,64.205L149.879,64.205L149.879,61.894L147.101,61.894L147.101,59.117L144.791,59.117L144.791,50.046L147.101,50.046L147.101,34.994L144.791,34.994L144.791,25.923Z" style="fill:none;stroke:rgb(255,0,0);stroke-width:0.03px;stroke-linecap:round;"/>
            </g>
        </g>
        <g transform="matrix(1,0,0,1,653.87,108)">
            <g id="_0.3mm-switch-master13" serif:id="0.3mm switch master">
                <path d="M144.791,25.923L147.101,25.923L147.101,23.145L149.879,23.145L149.879,20.835L158.95,20.835L158.95,23.145L174.002,23.145L174.002,20.835L183.073,20.835L183.073,23.145L185.851,23.145L185.851,25.923L188.161,25.923L188.161,34.994L185.851,34.994L185.851,50.046L188.161,50.046L188.161,59.117L185.851,59.117L185.851,61.894L183.073,61.894L183.073,64.205L174.002,64.205L174.002,61.894L158.95,61.894L158.95,64.205L149.879,64.205L149.879,61.894L147.101,61.894L147.101,59.117L144.791,59.117L144.791,50.046L147.101,50.046L147.101,34.994L144.791,34.994L144.791,25.923Z" style="fill:none;stroke:rgb(255,0,0);stroke-width:0.03px;stroke-linecap:round;"/>
            </g>
        </g>
        <g transform="matrix(1,0,0,1,707.87,108)">
            <g id="_0.3mm-switch-master14" serif:id="0.3mm switch master">
                <path d="M144.791,25.923L147.101,25.923L147.101,23.145L149.879,23.145L149.879,20.835L158.95,20.835L158.95,23.145L174.002,23.145L174.002,20.835L183.073,20.835L183.073,23.145L185.851,23.145L185.851,25.923L188.161,25.923L188.161,34.994L185.851,34.994L185.851,50.046L188.161,50.046L188.161,59.117L185.851,59.117L185.851,61.894L183.073,61.894L183.073,64.205L174.002,64.205L174.002,61.894L158.95,61.894L158.95,64.205L149.879,64.205L149.879,61.894L147.101,61.894L147.101,59.117L144.791,59.117L144.791,50.046L147.101,50.046L147.101,34.994L144.791,34.994L144.791,25.923Z" style="fill:none;stroke:rgb(255,0,0);stroke-width:0.03px;stroke-linecap:round;"/>
            </g>
        </g>
        <g id="_0.25mm-switch-master" serif:id="0.25mm switch master" transform="matrix(1,0,0,1,-42.8444,54)">
            <path d="M82.742,25.852L85.052,25.852L85.052,23.074L87.83,23.074L87.83,20.764L97.043,20.764L97.043,23.074L111.953,23.074L111.953,20.764L121.166,20.764L121.166,23.074L123.944,23.074L123.944,25.852L126.254,25.852L126.254,35.065L123.944,35.065L123.944,49.975L126.254,49.975L126.254,59.187L123.944,59.187L123.944,61.965L121.166,61.965L121.166,64.276L111.953,64.276L111.953,61.965L97.043,61.965L97.043,64.276L87.83,64.276L87.83,61.965L85.052,61.965L85.052,59.187L82.742,59.187L82.742,49.975L85.052,49.975L85.052,35.065L82.742,35.065L82.742,25.852Z" style="fill:none;stroke:rgb(255,0,0);stroke-width:0.03px;stroke-linecap:round;"/>
        </g>
        <g id="_0.25mm-switch-master1" serif:id="0.25mm switch master" transform="matrix(1,0,0,1,11.1556,54)">
            <path d="M82.742,25.852L85.052,25.852L85.052,23.074L87.83,23.074L87.83,20.764L97.043,20.764L97.043,23.074L111.953,23.074L111.953,20.764L121.166,20.764L121.166,23.074L123.944,23.074L123.944,25.852L126.254,25.852L126.254,35.065L123.944,35.065L123.944,49.975L126.254,49.975L126.254,59.187L123.944,59.187L123.944,61.965L121.166,61.965L121.166,64.276L111.953,64.276L111.953,61.965L97.043,61.965L97.043,64.276L87.83,64.276L87.83,61.965L85.052,61.965L85.052,59.187L82.742,59.187L82.742,49.975L85.052,49.975L85.052,35.065L82.742,35.065L82.742,25.852Z" style="fill:none;stroke:rgb(255,0,0);stroke-width:0.03px;stroke-linecap:round;"/>
        </g>
        <g id="_0.25mm-switch-master2" serif:id="0.25mm switch master" transform="matrix(1,0,0,1,65.1556,54)">
            <path d="M82.742,25.852L85.052,25.852L85.052,23.074L87.83,23.074L87.83,20.764L97.043,20.764L97.043,23.074L111.953,23.074L111.953,20.764L121.166,20.764L121.166,23.074L123.944,23.074L123.944,25.852L126.254,25.852L126.254,35.065L123.944,35.065L123.944,49.975L126.254,49.975L126.254,59.187L123.944,59.187L123.944,61.965L121.166,61.965L121.166,64.276L111.953,64.276L111.953,61.965L97.043,61.965L97.043,64.276L87.83,64.276L87.83,61.965L85.052,61.965L85.052,59.187L82.742,59.187L82.742,49.975L85.052,49.975L85.052,35.065L82.742,35.065L82.742,25.852Z" style="fill:none;stroke:rgb(255,0,0);stroke-width:0.03px;stroke-linecap:round;"/>
        </g>
        <g id="_0.25mm-switch-master3" serif:id="0.25mm switch master" transform="matrix(1,0,0,1,119.156,54)">
            <path d="M82.742,25.852L85.052,25.852L85.052,23.074L87.83,23.074L87.83,20.764L97.043,20.764L97.043,23.074L111.953,23.074L111.953,20.764L121.166,20.764L121.166,23.074L123.944,23.074L123.944,25.852L126.254,25.852L126.254,35.065L123.944,35.065L123.944,49.975L126.254,49.975L126.254,59.187L123.944,59.187L123.944,61.965L121.166,61.965L121.166,64.276L111.953,64.276L111.953,61.965L97.043,61.965L97.043,64.276L87.83,64.276L87.83,61.965L85.052,61.965L85.052,59.187L82.742,59.187L82.742,49.975L85.052,49.975L85.052,35.065L82.742,35.065L82.742,25.852Z" style="fill:none;stroke:rgb(255,0,0);stroke-width:0.03px;stroke-linecap:round;"/>
        </g>
        <g id="_0.25mm-switch-master4" serif:id="0.25mm switch master" transform="matrix(1,0,0,1,173.156,54)">
            <path d="M82.742,25.852L85.052,25.852L85.052,23.074L87.83,23.074L87.83,20.764L97.043,20.764L97.043,23.074L111.953,23.074L111.953,20.764L121.166,20.764L121.166,23.074L123.944,23.074L123.944,25.852L126.254,25.852L126.254,35.065L123.944,35.065L123.944,49.975L126.254,49.975L126.254,59.187L123.944,59.187L123.944,61.965L121.166,61.965L121.166,64.276L111.953,64.276L111.953,61.965L97.043,61.965L97.043,64.276L87.83,64.276L87.83,61.965L85.052,61.965L85.052,59.187L82.742,59.187L82.742,49.975L85.052,49.975L85.052,35.065L82.742,35.065L82.742,25.852Z" style="fill:none;stroke:rgb(255,0,0);stroke-width:0.03px;stroke-linecap:round;"/>
        </g>
        <g id="_0.25mm-switch-master5" serif:id="0.25mm switch master" transform="matrix(1,0,0,1,255.502,54)">
            <path d="M82.742,25.852L85.052,25.852L85.052,23.074L87.83,23.074L87.83,20.764L97.043,20.764L97.043,23.074L111.953,23.074L111.953,20.764L121.166,20.764L121.166,23.074L123.944,23.074L123.944,25.852L126.254,25.852L126.254,35.065L123.944,35.065L123.944,49.975L126.254,49.975L126.254,59.187L123.944,59.187L123.944,61.965L121.166,61.965L121.166,64.276L111.953,64.276L111.953,61.965L97.043,61.965L97.043,64.276L87.83,64.276L87.83,61.965L85.052,61.965L85.052,59.187L82.742,59.187L82.742,49.975L85.052,49.975L85.052,35.065L82.742,35.065L82.742,25.852Z" style="fill:none;stroke:rgb(255,0,0);stroke-width:0.03px;stroke-linecap:round;"/>
        </g>
        <g id="_0.25mm-switch-master6" serif:id="0.25mm switch master" transform="matrix(1,0,0,1,309.502,54)">
            <path d="M82.742,25.852L85.052,25.852L85.052,23.074L87.83,23.074L87.83,20.764L97.043,20.764L97.043,23.074L111.953,23.074L111.953,20.764L121.166,20.764L121.166,23.074L123.944,23.074L123.944,25.852L126.254,25.852L126.254,35.065L123.944,35.065L123.944,49.975L126.254,49.975L126.254,59.187L123.944,59.187L123.944,61.965L121.166,61.965L121.166,64.276L111.953,64.276L111.953,61.965L97.043,61.965L97.043,64.276L87.83,64.276L87.83,61.965L85.052,61.965L85.052,59.187L82.742,59.187L82.742,49.975L85.052,49.975L85.052,35.065L82.742,35.065L82.742,25.852Z" style="fill:none;stroke:rgb(255,0,0);stroke-width:0.03px;stroke-linecap:round;"/>
        </g>
        <g id="_0.25mm-switch-master7" serif:id="0.25mm switch master" transform="matrix(1,0,0,1,363.502,54)">
            <path d="M82.742,25.852L85.052,25.852L85.052,23.074L87.83,23.074L87.83,20.764L97.043,20.764L97.043,23.074L111.953,23.074L111.953,20.764L121.166,20.764L121.166,23.074L123.944,23.074L123.944,25.852L126.254,25.852L126.254,35.065L123.944,35.065L123.944,49.975L126.254,49.975L126.254,59.187L123.944,59.187L123.944,61.965L121.166,61.965L121.166,64.276L111.953,64.276L111.953,61.965L97.043,61.965L97.043,64.276L87.83,64.276L87.83,61.965L85.052,61.965L85.052,59.187L82.742,59.187L82.742,49.975L85.052,49.975L85.052,35.065L82.742,35.065L82.742,25.852Z" style="fill:none;stroke:rgb(255,0,0);stroke-width:0.03px;stroke-linecap:round;"/>
        </g>
        <g id="_0.25mm-switch-master8" serif:id="0.25mm switch master" transform="matrix(1,0,0,1,417.502,54)">
            <path d="M82.742,25.852L85.052,25.852L85.052,23.074L87.83,23.074L87.83,20.764L97.043,20.764L97.043,23.074L111.953,23.074L111.953,20.764L121.166,20.764L121.166,23.074L123.944,23.074L123.944,25.852L126.254,25.852L126.254,35.065L123.944,35.065L123.944,49.975L126.254,49.975L126.254,59.187L123.944,59.187L123.944,61.965L121.166,61.965L121.166,64.276L111.953,64.276L111.953,61.965L97.043,61.965L97.043,64.276L87.83,64.276L87.83,61.965L85.052,61.965L85.052,59.187L82.742,59.187L82.742,49.975L85.052,49.975L85.052,35.065L82.742,35.065L82.742,25.852Z" style="fill:none;stroke:rgb(255,0,0);stroke-width:0.03px;stroke-linecap:round;"/>
        </g>
        <g id="_0.25mm-switch-master9" serif:id="0.25mm switch master" transform="matrix(1,0,0,1,471.502,54)">
            <path d="M82.742,25.852L85.052,25.852L85.052,23.074L87.83,23.074L87.83,20.764L97.043,20.764L97.043,23.074L111.953,23.074L111.953,20.764L121.166,20.764L121.166,23.074L123.944,23.074L123.944,25.852L126.254,25.852L126.254,35.065L123.944,35.065L123.944,49.975L126.254,49.975L126.254,59.187L123.944,59.187L123.944,61.965L121.166,61.965L121.166,64.276L111.953,64.276L111.953,61.965L97.043,61.965L97.043,64.276L87.83,64.276L87.83,61.965L85.052,61.965L85.052,59.187L82.742,59.187L82.742,49.975L85.052,49.975L85.052,35.065L82.742,35.065L82.742,25.852Z" style="fill:none;stroke:rgb(255,0,0);stroke-width:0.03px;stroke-linecap:round;"/>
        </g>
        <g id="_0.25mm-switch-master10" serif:id="0.25mm switch master" transform="matrix(1,0,0,1,553.848,54)">
            <path d="M82.742,25.852L85.052,25.852L85.052,23.074L87.83,23.074L87.83,20.764L97.043,20.764L97.043,23.074L111.953,23.074L111.953,20.764L121.166,20.764L121.166,23.074L123.944,23.074L123.944,25.852L126.254,25.852L126.254,35.065L123.944,35.065L123.944,49.975L126.254,49.975L126.254,59.187L123.944,59.187L123.944,61.965L121.166,61.965L121.166,64.276L111.953,64.276L111.953,61.965L97.043,61.965L97.043,64.276L87.83,64.276L87.83,61.965L85.052,61.965L85.052,59.187L82.742,59.187L82.742,49.975L85.052,49.975L85.052,35.065L82.742,35.065L82.742,25.852Z" style="fill:none;stroke:rgb(255,0,0);stroke-width:0.03px;stroke-linecap:round;"/>
        </g>
        <g id="_0.25mm-switch-master11" serif:id="0.25mm switch master" transform="matrix(1,0,0,1,607.848,54)">
            <path d="M82.742,25.852L85.052,25.852L85.052,23.074L87.83,23.074L87.83,20.764L97.043,20.764L97.043,23.074L111.953,23.074L111.953,20.764L121.166,20.764L121.166,23.074L123.944,23.074L123.944,25.852L126.254,25.852L126.254,35.065L123.944,35.065L123.944,49.975L126.254,49.975L126.254,59.187L123.944,59.187L123.944,61.965L121.166,61.965L121.166,64.276L111.953,64.276L111.953,61.965L97.043,61.965L97.043,64.276L87.83,64.276L87.83,61.965L85.052,61.965L85.052,59.187L82.742,59.187L82.742,49.975L85.052,49.975L85.052,35.065L82.742,35.065L82.742,25.852Z" style="fill:none;stroke:rgb(255,0,0);stroke-width:0.03px;stroke-linecap:round;"/>
        </g>
        <g id="_0.25mm-switch-master12" serif:id="0.25mm switch master" transform="matrix(1,0,0,1,661.848,54)">
            <path d="M82.742,25.852L85.052,25.852L85.052,23.074L87.83,23.074L87.83,20.764L97.043,20.764L97.043,23.074L111.953,23.074L111.953,20.764L121.166,20.764L121.166,23.074L123.944,23.074L123.944,25.852L126.254,25.852L126.254,35.065L123.944,35.065L123.944,49.975L126.254,49.975L126.254,59.187L123.944,59.187L123.944,61.965L121.166,61.965L121.166,64.276L111.953,64.276L111.953,61.965L97.043,61.965L97.043,64.276L87.83,64.276L87.83,61.965L85.052,61.965L85.052,59.187L82.742,59.187L82.742,49.975L85.052,49.975L85.052,35.065L82.742,35.065L82.742,25.852Z" style="fill:none;stroke:rgb(255,0,0);stroke-width:0.03px;stroke-linecap:round;"/>
        </g>
        <g id="_0.25mm-switch-master13" serif:id="0.25mm switch master" transform="matrix(1,0,0,1,715.848,54)">
            <path d="M82.742,25.852L85.052,25.852L85.052,23.074L87.83,23.074L87.83,20.764L97.043,20.764L97.043,23.074L111.953,23.074L111.953,20.764L121.166,20.764L121.166,23.074L123.944,23.074L123.944,25.852L126.254,25.852L126.254,35.065L123.944,35.065L123.944,49.975L126.254,49.975L126.254,59.187L123.944,59.187L123.944,61.965L121.166,61.965L121.166,64.276L111.953,64.276L111.953,61.965L97.043,61.965L97.043,64.276L87.83,64.276L87.83,61.965L85.052,61.965L85.052,59.187L82.742,59.187L82.742,49.975L85.052,49.975L85.052,35.065L82.742,35.065L82.742,25.852Z" style="fill:none;stroke:rgb(255,0,0);stroke-width:0.03px;stroke-linecap:round;"/>
        </g>
        <g id="_0.25mm-switch-master14" serif:id="0.25mm switch master" transform="matrix(1,0,0,1,769.848,54)">
            <path d="M82.742,25.852L85.052,25.852L85.052,23.074L87.83,23.074L87.83,20.764L97.043,20.764L97.043,23.074L111.953,23.074L111.953,20.764L121.166,20.764L121.166,23.074L123.944,23.074L123.944,25.852L126.254,25.852L126.254,35.065L123.944,35.065L123.944,49.975L126.254,49.975L126.254,59.187L123.944,59.187L123.944,61.965L121.166,61.965L121.166,64.276L111.953,64.276L111.953,61.965L97.043,61.965L97.043,64.276L87.83,64.276L87.83,61.965L85.052,61.965L85.052,59.187L82.742,59.187L82.742,49.975L85.052,49.975L85.052,35.065L82.742,35.065L82.742,25.852Z" style="fill:none;stroke:rgb(255,0,0);stroke-width:0.03px;stroke-linecap:round;"/>
        </g>
        <g id="_0.2mm-switch-master" serif:id="0.2mm switch master" transform="matrix(1,0,0,1,19.1339,-8.88178e-15)">
            <path d="M20.693,25.781L23.003,25.781L23.003,23.003L25.781,23.003L25.781,20.693L35.135,20.693L35.135,23.003L49.904,23.003L49.904,20.693L59.258,20.693L59.258,23.003L62.036,23.003L62.036,25.781L64.346,25.781L64.346,35.135L62.036,35.135L62.036,49.904L64.346,49.904L64.346,59.258L62.036,59.258L62.036,62.036L59.258,62.036L59.258,64.346L49.904,64.346L49.904,62.036L35.135,62.036L35.135,64.346L25.781,64.346L25.781,62.036L23.003,62.036L23.003,59.258L20.693,59.258L20.693,49.904L23.003,49.904L23.003,35.135L20.693,35.135L20.693,25.781Z" style="fill:none;stroke:rgb(255,0,0);stroke-width:0.03px;stroke-linecap:round;"/>
        </g>
        <g id="_0.2mm-switch-master1" serif:id="0.2mm switch master" transform="matrix(1,0,0,1,73.1339,-8.88178e-15)">
            <path d="M20.693,25.781L23.003,25.781L23.003,23.003L25.781,23.003L25.781,20.693L35.135,20.693L35.135,23.003L49.904,23.003L49.904,20.693L59.258,20.693L59.258,23.003L62.036,23.003L62.036,25.781L64.346,25.781L64.346,35.135L62.036,35.135L62.036,49.904L64.346,49.904L64.346,59.258L62.036,59.258L62.036,62.036L59.258,62.036L59.258,64.346L49.904,64.346L49.904,62.036L35.135,62.036L35.135,64.346L25.781,64.346L25.781,62.036L23.003,62.036L23.003,59.258L20.693,59.258L20.693,49.904L23.003,49.904L23.003,35.135L20.693,35.135L20.693,25.781Z" style="fill:none;stroke:rgb(255,0,0);stroke-width:0.03px;stroke-linecap:round;"/>
        </g>
        <g id="_0.2mm-switch-master2" serif:id="0.2mm switch master" transform="matrix(1,0,0,1,127.134,-8.88178e-15)">
            <path d="M20.693,25.781L23.003,25.781L23.003,23.003L25.781,23.003L25.781,20.693L35.135,20.693L35.135,23.003L49.904,23.003L49.904,20.693L59.258,20.693L59.258,23.003L62.036,23.003L62.036,25.781L64.346,25.781L64.346,35.135L62.036,35.135L62.036,49.904L64.346,49.904L64.346,59.258L62.036,59.258L62.036,62.036L59.258,62.036L59.258,64.346L49.904,64.346L49.904,62.036L35.135,62.036L35.135,64.346L25.781,64.346L25.781,62.036L23.003,62.036L23.003,59.258L20.693,59.258L20.693,49.904L23.003,49.904L23.003,35.135L20.693,35.135L20.693,25.781Z" style="fill:none;stroke:rgb(255,0,0);stroke-width:0.03px;stroke-linecap:round;"/>
        </g>
        <g id="_0.2mm-switch-master3" serif:id="0.2mm switch master" transform="matrix(1,0,0,1,181.134,-8.88178e-15)">
            <path d="M20.693,25.781L23.003,25.781L23.003,23.003L25.781,23.003L25.781,20.693L35.135,20.693L35.135,23.003L49.904,23.003L49.904,20.693L59.258,20.693L59.258,23.003L62.036,23.003L62.036,25.781L64.346,25.781L64.346,35.135L62.036,35.135L62.036,49.904L64.346,49.904L64.346,59.258L62.036,59.258L62.036,62.036L59.258,62.036L59.258,64.346L49.904,64.346L49.904,62.036L35.135,62.036L35.135,64.346L25.781,64.346L25.781,62.036L23.003,62.036L23.003,59.258L20.693,59.258L20.693,49.904L23.003,49.904L23.003,35.135L20.693,35.135L20.693,25.781Z" style="fill:none;stroke:rgb(255,0,0);stroke-width:0.03px;stroke-linecap:round;"/>
        </g>
        <g id="_0.2mm-switch-master4" serif:id="0.2mm switch master" transform="matrix(1,0,0,1,235.134,-8.88178e-15)">
            <path d="M20.693,25.781L23.003,25.781L23.003,23.003L25.781,23.003L25.781,20.693L35.135,20.693L35.135,23.003L49.904,23.003L49.904,20.693L59.258,20.693L59.258,23.003L62.036,23.003L62.036,25.781L64.346,25.781L64.346,35.135L62.036,35.135L62.036,49.904L64.346,49.904L64.346,59.258L62.036,59.258L62.036,62.036L59.258,62.036L59.258,64.346L49.904,64.346L49.904,62.036L35.135,62.036L35.135,64.346L25.781,64.346L25.781,62.036L23.003,62.036L23.003,59.258L20.693,59.258L20.693,49.904L23.003,49.904L23.003,35.135L20.693,35.135L20.693,25.781Z" style="fill:none;stroke:rgb(255,0,0);stroke-width:0.03px;stroke-linecap:round;"/>
        </g>
        <g id="_0.2mm-switch-master5" serif:id="0.2mm switch master" transform="matrix(1,0,0,1,317.48,-8.88178e-15)">
            <path d="M20.693,25.781L23.003,25.781L23.003,23.003L25.781,23.003L25.781,20.693L35.135,20.693L35.135,23.003L49.904,23.003L49.904,20.693L59.258,20.693L59.258,23.003L62.036,23.003L62.036,25.781L64.346,25.781L64.346,35.135L62.036,35.135L62.036,49.904L64.346,49.904L64.346,59.258L62.036,59.258L62.036,62.036L59.258,62.036L59.258,64.346L49.904,64.346L49.904,62.036L35.135,62.036L35.135,64.346L25.781,64.346L25.781,62.036L23.003,62.036L23.003,59.258L20.693,59.258L20.693,49.904L23.003,49.904L23.003,35.135L20.693,35.135L20.693,25.781Z" style="fill:none;stroke:rgb(255,0,0);stroke-width:0.03px;stroke-linecap:round;"/>
        </g>
        <g id="_0.2mm-switch-master6" serif:id="0.2mm switch master" transform="matrix(1,0,0,1,371.48,-8.88178e-15)">
            <path d="M20.693,25.781L23.003,25.781L23.003,23.003L25.781,23.003L25.781,20.693L35.135,20.693L35.135,23.003L49.904,23.003L49.904,20.693L59.258,20.693L59.258,23.003L62.036,23.003L62.036,25.781L64.346,25.781L64.346,35.135L62.036,35.135L62.036,49.904L64.346,49.904L64.346,59.258L62.036,59.258L62.036,62.036L59.258,62.036L59.258,64.346L49.904,64.346L49.904,62.036L35.135,62.036L35.135,64.346L25.781,64.346L25.781,62.036L23.003,62.036L23.003,59.258L20.693,59.258L20.693,49.904L23.003,49.904L23.003,35.135L20.693,35.135L20.693,25.781Z" style="fill:none;stroke:rgb(255,0,0);stroke-width:0.03px;stroke-linecap:round;"/>
        </g>
        <g id="_0.2mm-switch-master7" serif:id="0.2mm switch master" transform="matrix(1,0,0,1,425.48,-8.88178e-15)">
            <path d="M20.693,25.781L23.003,25.781L23.003,23.003L25.781,23.003L25.781,20.693L35.135,20.693L35.135,23.003L49.904,23.003L49.904,20.693L59.258,20.693L59.258,23.003L62.036,23.003L62.036,25.781L64.346,25.781L64.346,35.135L62.036,35.135L62.036,49.904L64.346,49.904L64.346,59.258L62.036,59.258L62.036,62.036L59.258,62.036L59.258,64.346L49.904,64.346L49.904,62.036L35.135,62.036L35.135,64.346L25.781,64.346L25.781,62.036L23.003,62.036L23.003,59.258L20.693,59.258L20.693,49.904L23.003,49.904L23.003,35.135L20.693,35.135L20.693,25.781Z" style="fill:none;stroke:rgb(255,0,0);stroke-width:0.03px;stroke-linecap:round;"/>
        </g>
        <g id="_0.2mm-switch-master8" serif:id="0.2mm switch master" transform="matrix(1,0,0,1,479.48,-8.88178e-15)">
            <path d="M20.693,25.781L23.003,25.781L23.003,23.003L25.781,23.003L25.781,20.693L35.135,20.693L35.135,23.003L49.904,23.003L49.904,20.693L59.258,20.693L59.258,23.003L62.036,23.003L62.036,25.781L64.346,25.781L64.346,35.135L62.036,35.135L62.036,49.904L64.346,49.904L64.346,59.258L62.036,59.258L62.036,62.036L59.258,62.036L59.258,64.346L49.904,64.346L49.904,62.036L35.135,62.036L35.135,64.346L25.781,64.346L25.781,62.036L23.003,62.036L23.003,59.258L20.693,59.258L20.693,49.904L23.003,49.904L23.003,35.135L20.693,35.135L20.693,25.781Z" style="fill:none;stroke:rgb(255,0,0);stroke-width:0.03px;stroke-linecap:round;"/>
        </g>
        <g id="_0.2mm-switch-master9" serif:id="0.2mm switch master" transform="matrix(1,0,0,1,533.48,-8.88178e-15)">
            <path d="M20.693,25.781L23.003,25.781L23.003,23.003L25.781,23.003L25.781,20.693L35.135,20.693L35.135,23.003L49.904,23.003L49.904,20.693L59.258,20.693L59.258,23.003L62.036,23.003L62.036,25.781L64.346,25.781L64.346,35.135L62.036,35.135L62.036,49.904L64.346,49.904L64.346,59.258L62.036,59.258L62.036,62.036L59.258,62.036L59.258,64.346L49.904,64.346L49.904,62.036L35.135,62.036L35.135,64.346L25.781,64.346L25.781,62.036L23.003,62.036L23.003,59.258L20.693,59.258L20.693,49.904L23.003,49.904L23.003,35.135L20.693,35.135L20.693,25.781Z" style="fill:none;stroke:rgb(255,0,0);stroke-width:0.03px;stroke-linecap:round;"/>
        </g>
        <g id="_0.2mm-switch-master10" serif:id="0.2mm switch master" transform="matrix(1,0,0,1,615.827,-8.88178e-15)">
            <path d="M20.693,25.781L23.003,25.781L23.003,23.003L25.781,23.003L25.781,20.693L35.135,20.693L35.135,23.003L49.904,23.003L49.904,20.693L59.258,20.693L59.258,23.003L62.036,23.003L62.036,25.781L64.346,25.781L64.346,35.135L62.036,35.135L62.036,49.904L64.346,49.904L64.346,59.258L62.036,59.258L62.036,62.036L59.258,62.036L59.258,64.346L49.904,64.346L49.904,62.036L35.135,62.036L35.135,64.346L25.781,64.346L25.781,62.036L23.003,62.036L23.003,59.258L20.693,59.258L20.693,49.904L23.003,49.904L23.003,35.135L20.693,35.135L20.693,25.781Z" style="fill:none;stroke:rgb(255,0,0);stroke-width:0.03px;stroke-linecap:round;"/>
        </g>
        <g id="_0.2mm-switch-master11" serif:id="0.2mm switch master" transform="matrix(1,0,0,1,669.827,-8.88178e-15)">
            <path d="M20.693,25.781L23.003,25.781L23.003,23.003L25.781,23.003L25.781,20.693L35.135,20.693L35.135,23.003L49.904,23.003L49.904,20.693L59.258,20.693L59.258,23.003L62.036,23.003L62.036,25.781L64.346,25.781L64.346,35.135L62.036,35.135L62.036,49.904L64.346,49.904L64.346,59.258L62.036,59.258L62.036,62.036L59.258,62.036L59.258,64.346L49.904,64.346L49.904,62.036L35.135,62.036L35.135,64.346L25.781,64.346L25.781,62.036L23.003,62.036L23.003,59.258L20.693,59.258L20.693,49.904L23.003,49.904L23.003,35.135L20.693,35.135L20.693,25.781Z" style="fill:none;stroke:rgb(255,0,0);stroke-width:0.03px;stroke-linecap:round;"/>
        </g>
        <g id="_0.2mm-switch-master12" serif:id="0.2mm switch master" transform="matrix(1,0,0,1,723.827,-8.88178e-15)">
            <path d="M20.693,25.781L23.003,25.781L23.003,23.003L25.781,23.003L25.781,20.693L35.135,20.693L35.135,23.003L49.904,23.003L49.904,20.693L59.258,20.693L59.258,23.003L62.036,23.003L62.036,25.781L64.346,25.781L64.346,35.135L62.036,35.135L62.036,49.904L64.346,49.904L64.346,59.258L62.036,59.258L62.036,62.036L59.258,62.036L59.258,64.346L49.904,64.346L49.904,62.036L35.135,62.036L35.135,64.346L25.781,64.346L25.781,62.036L23.003,62.036L23.003,59.258L20.693,59.258L20.693,49.904L23.003,49.904L23.003,35.135L20.693,35.135L20.693,25.781Z" style="fill:none;stroke:rgb(255,0,0);stroke-width:0.03px;stroke-linecap:round;"/>
        </g>
        <g id="_0.2mm-switch-master13" serif:id="0.2mm switch master" transform="matrix(1,0,0,1,777.827,-8.88178e-15)">
            <path d="M20.693,25.781L23.003,25.781L23.003,23.003L25.781,23.003L25.781,20.693L35.135,20.693L35.135,23.003L49.904,23.003L49.904,20.693L59.258,20.693L59.258,23.003L62.036,23.003L62.036,25.781L64.346,25.781L64.346,35.135L62.036,35.135L62.036,49.904L64.346,49.904L64.346,59.258L62.036,59.258L62.036,62.036L59.258,62.036L59.258,64.346L49.904,64.346L49.904,62.036L35.135,62.036L35.135,64.346L25.781,64.346L25.781,62.036L23.003,62.036L23.003,59.258L20.693,59.258L20.693,49.904L23.003,49.904L23.003,35.135L20.693,35.135L20.693,25.781Z" style="fill:none;stroke:rgb(255,0,0);stroke-width:0.03px;stroke-linecap:round;"/>
        </g>
        <g id="_0.2mm-switch-master14" serif:id="0.2mm switch master" transform="matrix(1,0,0,1,831.827,-8.88178e-15)">
            <path d="M20.693,25.781L23.003,25.781L23.003,23.003L25.781,23.003L25.781,20.693L35.135,20.693L35.135,23.003L49.904,23.003L49.904,20.693L59.258,20.693L59.258,23.003L62.036,23.003L62.036,25.781L64.346,25.781L64.346,35.135L62.036,35.135L62.036,49.904L64.346,49.904L64.346,59.258L62.036,59.258L62.036,62.036L59.258,62.036L59.258,64.346L49.904,64.346L49.904,62.036L35.135,62.036L35.135,64.346L25.781,64.346L25.781,62.036L23.003,62.036L23.003,59.258L20.693,59.258L20.693,49.904L23.003,49.904L23.003,35.135L20.693,35.135L20.693,25.781Z" style="fill:none;stroke:rgb(255,0,0);stroke-width:0.03px;stroke-linecap:round;"/>
        </g>
        <g transform="matrix(5.25418e-17,-0.858073,1.41826,8.68436e-17,38.5032,1537.16)">
            <rect x="884.929" y="23.618" width="16.518" height="558.43" style="fill:none;stroke:rgb(255,0,0);stroke-width:0.02px;stroke-linecap:round;stroke-linejoin:round;"/>
        </g>
        <g transform="matrix(5.25418e-17,-0.858073,1.41826,8.68436e-17,38.5032,1522.99)">
            <path d="M884.929,582.048L901.446,582.048L901.446,23.618L884.929,23.618" style="fill:none;stroke:rgb(255,0,0);stroke-width:0.02px;stroke-linecap:round;stroke-linejoin:round;"/>
        </g>
        <g transform="matrix(5.25418e-17,-0.858073,1.41826,8.68436e-17,38.5032,1508.81)">
            <path d="M884.929,582.048L901.446,582.048L901.446,23.618L884.929,23.618" style="fill:none;stroke:rgb(255,0,0);stroke-width:0.02px;stroke-linecap:round;stroke-linejoin:round;"/>
        </g>
        <g transform="matrix(5.25418e-17,-0.858073,1.41826,8.68436e-17,38.5032,1494.64)">
            <path d="M884.929,582.048L901.446,582.048L901.446,23.618L884.929,23.618" style="fill:none;stroke:rgb(255,0,0);stroke-width:0.02px;stroke-linecap:round;stroke-linejoin:round;"/>
        </g>
    </g>
</svg>
