<?xml version="1.0" encoding="UTF-8" standalone="no"?>
<!DOCTYPE svg PUBLIC "-//W3C//DTD SVG 1.1//EN" "http://www.w3.org/Graphics/SVG/1.1/DTD/svg11.dtd">
<svg width="1690px" height="825px" version="1.1" xmlns="http://www.w3.org/2000/svg" xmlns:xlink="http://www.w3.org/1999/xlink" xml:space="preserve" xmlns:serif="http://www.serif.com/" style="fill-rule:evenodd;clip-rule:evenodd;stroke-linecap:round;stroke-linejoin:round;stroke-miterlimit:1.5;">
    <g id="Inlays">
        <g id="Impossible-triangle" serif:id="Impossible triangle">
            <path d="M1047.99,35.431c0,2.504 2.032,4.536 4.535,4.536c2.504,0 4.536,-2.032 4.536,-4.536c0,-2.503 -2.032,-4.535 -4.536,-4.535c-2.503,0 -4.535,2.032 -4.535,4.535Z" style="fill:none;stroke:#00f;stroke-width:0.03px;"/>
            <path d="M1047.99,165.826c0,2.504 2.032,4.536 4.535,4.536c2.504,0 4.536,-2.032 4.536,-4.536c0,-2.503 -2.032,-4.535 -4.536,-4.535c-2.503,0 -4.535,2.032 -4.535,4.535Z" style="fill:none;stroke:#00f;stroke-width:0.03px;"/>
            <path d="M917.594,165.826c0,2.504 2.032,4.536 4.535,4.536c2.503,0 4.535,-2.032 4.535,-4.536c0,-2.503 -2.032,-4.535 -4.535,-4.535c-2.503,0 -4.535,2.032 -4.535,4.535Z" style="fill:none;stroke:#00f;stroke-width:0.03px;"/>
            <path d="M917.594,35.431c0,2.504 2.032,4.536 4.535,4.536c2.503,0 4.535,-2.032 4.535,-4.536c0,-2.503 -2.032,-4.535 -4.535,-4.535c-2.503,0 -4.535,2.032 -4.535,4.535Z" style="fill:none;stroke:#00f;stroke-width:0.03px;"/>
            <path d="M1022.87,145.248l0.034,0.058l-15.126,8.86c-0.807,0.279 -1.039,0.138 -1.51,-0.094l-74.87,-43.173c-0.816,-0.549 -0.951,-0.684 -0.852,-1.541l0,-17.538c0.005,-0.074 0.01,-0.148 0.015,-0.222c0.165,-0.832 0.402,-0.961 0.836,-1.251l74.87,-43.226c0.553,-0.273 1.175,-0.227 1.667,0.053l0.032,-0.055l15.41,8.888c0.381,0.333 0.615,0.536 0.667,1.356l-0.299,86.482c-0.048,0.609 -0.394,1.118 -0.874,1.403Zm-51.009,-42.671l-8.81,5.086l57.301,33.23l0.286,-82.554l-11.822,-6.805l-0.044,69.409c-0.08,1.221 -1.384,2.047 -2.551,1.471l-34.36,-19.837Zm21.273,-16.21l0,-10.173l-57.485,33.23l71.461,41.207l11.558,-6.783l-59.866,-34.717c-0.518,-0.354 -0.915,-0.585 -0.828,-1.726c0.21,-0.919 0.424,-0.941 0.831,-1.218l34.329,-19.82Zm-59.186,20.111l60.035,-34.704c1.102,-0.538 2.461,0.179 2.552,1.473l0,39.647l8.838,5.103l0.041,-66.457l-71.466,41.262l0,13.676Zm59.186,4.453l0,-20.636l-17.871,10.318l17.871,10.318Z" style="fill:none;stroke:#00f;stroke-width:0.03px;stroke-linecap:butt;stroke-miterlimit:1.41421;"/>
            <path d="M1017.57,449.793l0.029,0.049l-12.663,7.417c-0.676,0.234 -0.87,0.116 -1.264,-0.079l-62.679,-36.142c-0.683,-0.46 -0.796,-0.573 -0.713,-1.29l0,-14.683c0.004,-0.062 0.008,-0.123 0.013,-0.185c0.138,-0.697 0.336,-0.805 0.699,-1.048l62.679,-36.187c0.463,-0.228 0.983,-0.19 1.395,0.045l0.027,-0.047l12.901,7.441c0.319,0.279 0.515,0.449 0.558,1.135l-0.25,72.4c-0.04,0.51 -0.33,0.936 -0.732,1.174Zm-42.703,-35.722l-7.375,4.258l47.97,27.818l0.24,-69.111l-9.897,-5.696l-0.037,58.106c-0.067,1.022 -1.159,1.714 -2.136,1.232l-28.765,-16.607Zm17.809,-13.571l0,-8.516l-48.124,27.819l59.824,34.497l9.676,-5.679l-50.117,-29.063c-0.434,-0.297 -0.766,-0.49 -0.693,-1.445c0.176,-0.77 0.355,-0.788 0.695,-1.02l28.739,-16.593Zm-49.548,16.837l50.259,-29.053c0.923,-0.451 2.06,0.15 2.136,1.233l0,33.191l7.399,4.272l0.035,-55.635l-59.829,34.543l0,11.449Zm49.548,3.727l0,-17.275l-14.961,8.638l14.961,8.637Z" style="fill:none;stroke:#00f;stroke-width:0.03px;stroke-linecap:butt;stroke-miterlimit:1.41421;"/>
            <path d="M909.373,22.676l0,155.906l155.906,0l0,-155.906l-155.906,0Z" style="fill:none;stroke:#00f;stroke-width:0.03px;"/>
            <g id="Inlay-outline" serif:id="Inlay outline">
                <path d="M923.52,94.934c2.929,-32.735 30.401,-58.369 63.813,-58.369c35.357,0 64.063,28.706 64.063,64.063c0,35.358 -28.706,64.063 -64.063,64.063c-33.438,0 -60.928,-25.674 -63.813,-58.368l-3.524,0l0,-11.389l3.524,0Z" style="fill:none;stroke:#00f;stroke-width:0.03px;"/>
            </g>
        </g>
        <g id="Impossible-triangle1" serif:id="Impossible triangle">
            <path d="M1022.87,301.154l0.034,0.058l-15.126,8.86c-0.807,0.279 -1.039,0.138 -1.51,-0.094l-74.87,-43.173c-0.816,-0.549 -0.951,-0.684 -0.852,-1.541l0,-17.538c0.005,-0.074 0.01,-0.148 0.015,-0.222c0.165,-0.832 0.402,-0.961 0.836,-1.251l74.87,-43.226c0.553,-0.273 1.175,-0.227 1.667,0.053l0.032,-0.055l15.41,8.888c0.381,0.333 0.615,0.536 0.667,1.356l-0.299,86.482c-0.048,0.609 -0.394,1.118 -0.874,1.403Zm-51.009,-42.671l-8.81,5.086l57.301,33.23l0.286,-82.554l-11.822,-6.805l-0.044,69.409c-0.08,1.221 -1.384,2.047 -2.551,1.471l-34.36,-19.837Zm21.273,-16.21l0,-10.173l-57.485,33.23l71.461,41.207l11.558,-6.783l-59.866,-34.717c-0.518,-0.354 -0.915,-0.585 -0.828,-1.726c0.21,-0.919 0.424,-0.941 0.831,-1.218l34.329,-19.82Zm-59.186,20.111l60.035,-34.704c1.102,-0.538 2.461,0.179 2.552,1.473l0,39.647l8.838,5.103l0.041,-66.457l-71.466,41.262l0,13.676Zm59.186,4.453l0,-20.636l-17.871,10.318l17.871,10.318Z" style="fill:none;stroke:#f00;stroke-width:0.03px;stroke-linecap:butt;stroke-miterlimit:1.41421;"/>
            <g id="Inlay-outline1" serif:id="Inlay outline">
                <path d="M923.52,250.84c2.929,-32.735 30.401,-58.369 63.813,-58.369c35.357,0 64.063,28.706 64.063,64.063c0,35.358 -28.706,64.063 -64.063,64.063c-33.438,0 -60.928,-25.674 -63.813,-58.368l-3.524,0l0,-11.389l3.524,0Z" style="fill:none;stroke:#00f;stroke-width:0.03px;"/>
            </g>
            <path d="M1047.99,191.337c0,2.504 2.032,4.536 4.535,4.536c2.504,0 4.536,-2.032 4.536,-4.536c0,-2.503 -2.032,-4.535 -4.536,-4.535c-2.503,0 -4.535,2.032 -4.535,4.535Z" style="fill:none;stroke:#00f;stroke-width:0.03px;"/>
            <path d="M1047.99,321.732c0,2.504 2.032,4.536 4.535,4.536c2.504,0 4.536,-2.032 4.536,-4.536c0,-2.503 -2.032,-4.535 -4.536,-4.535c-2.503,0 -4.535,2.032 -4.535,4.535Z" style="fill:none;stroke:#00f;stroke-width:0.03px;"/>
            <path d="M917.594,321.732c0,2.504 2.032,4.536 4.535,4.536c2.503,0 4.535,-2.032 4.535,-4.536c0,-2.503 -2.032,-4.535 -4.535,-4.535c-2.503,0 -4.535,2.032 -4.535,4.535Z" style="fill:none;stroke:#00f;stroke-width:0.03px;"/>
            <path d="M917.594,191.337c0,2.504 2.032,4.536 4.535,4.536c2.503,0 4.535,-2.032 4.535,-4.536c0,-2.503 -2.032,-4.535 -4.535,-4.535c-2.503,0 -4.535,2.032 -4.535,4.535Z" style="fill:none;stroke:#00f;stroke-width:0.03px;"/>
            <path d="M909.373,178.582l0,155.906l155.906,0l0,-155.906l-155.906,0Z" style="fill:none;stroke:#00f;stroke-width:0.03px;"/>
        </g>
        <g id="Impossible-triangle2" serif:id="Impossible triangle">
            <g id="Inlay-outline2" serif:id="Inlay outline">
                <path d="M923.52,406.746c2.929,-32.735 30.401,-58.369 63.813,-58.369c35.357,0 64.063,28.706 64.063,64.063c0,35.358 -28.706,64.063 -64.063,64.063c-33.438,0 -60.928,-25.674 -63.813,-58.368l-3.524,0l0,-11.389l3.524,0Z" style="fill:none;stroke:#00f;stroke-width:0.03px;"/>
            </g>
            <g id="Inlay-outline3" serif:id="Inlay outline">
                <path d="M930.323,407.369c2.608,-29.154 27.074,-51.983 56.831,-51.983c31.489,0 57.054,25.565 57.054,57.054c0,31.489 -25.565,57.054 -57.054,57.054c-29.78,0 -54.262,-22.865 -56.831,-51.982l-3.139,0l0,-10.143l3.139,0Z" style="fill:none;stroke:#00f;stroke-width:0.03px;"/>
            </g>
            <path d="M1047.99,347.243c0,2.504 2.032,4.536 4.535,4.536c2.504,0 4.536,-2.032 4.536,-4.536c0,-2.503 -2.032,-4.535 -4.536,-4.535c-2.503,0 -4.535,2.032 -4.535,4.535Z" style="fill:none;stroke:#00f;stroke-width:0.03px;"/>
            <path d="M1047.99,477.638c0,2.504 2.032,4.536 4.535,4.536c2.504,0 4.536,-2.032 4.536,-4.536c0,-2.503 -2.032,-4.535 -4.536,-4.535c-2.503,0 -4.535,2.032 -4.535,4.535Z" style="fill:none;stroke:#00f;stroke-width:0.03px;"/>
            <path d="M917.594,477.638c0,2.504 2.032,4.536 4.535,4.536c2.503,0 4.535,-2.032 4.535,-4.536c0,-2.503 -2.032,-4.535 -4.535,-4.535c-2.503,0 -4.535,2.032 -4.535,4.535Z" style="fill:none;stroke:#00f;stroke-width:0.03px;"/>
            <path d="M917.594,347.243c0,2.504 2.032,4.536 4.535,4.536c2.503,0 4.535,-2.032 4.535,-4.536c0,-2.503 -2.032,-4.535 -4.535,-4.535c-2.503,0 -4.535,2.032 -4.535,4.535Z" style="fill:none;stroke:#00f;stroke-width:0.03px;"/>
            <path d="M909.373,334.488l0,155.906l155.906,0l0,-155.906l-155.906,0Z" style="fill:none;stroke:#00f;stroke-width:0.03px;"/>
        </g>
    </g>
    <g id="Inlays1" serif:id="Inlays">
        <g id="Impossible-triangle3" serif:id="Impossible triangle">
            <path d="M1203.89,35.431c0,2.504 2.032,4.536 4.535,4.536c2.504,0 4.536,-2.032 4.536,-4.536c0,-2.503 -2.032,-4.535 -4.536,-4.535c-2.503,0 -4.535,2.032 -4.535,4.535Z" style="fill:none;stroke:#00f;stroke-width:0.03px;"/>
            <path d="M1203.89,165.826c0,2.504 2.032,4.536 4.535,4.536c2.504,0 4.536,-2.032 4.536,-4.536c0,-2.503 -2.032,-4.535 -4.536,-4.535c-2.503,0 -4.535,2.032 -4.535,4.535Z" style="fill:none;stroke:#00f;stroke-width:0.03px;"/>
            <path d="M1073.5,165.826c0,2.504 2.032,4.536 4.535,4.536c2.503,0 4.535,-2.032 4.535,-4.536c0,-2.503 -2.032,-4.535 -4.535,-4.535c-2.503,0 -4.535,2.032 -4.535,4.535Z" style="fill:none;stroke:#00f;stroke-width:0.03px;"/>
            <path d="M1073.5,35.431c0,2.504 2.032,4.536 4.535,4.536c2.503,0 4.535,-2.032 4.535,-4.536c0,-2.503 -2.032,-4.535 -4.535,-4.535c-2.503,0 -4.535,2.032 -4.535,4.535Z" style="fill:none;stroke:#00f;stroke-width:0.03px;"/>
            <path d="M1178.77,145.248l0.034,0.058l-15.126,8.86c-0.807,0.279 -1.039,0.138 -1.51,-0.094l-74.87,-43.173c-0.816,-0.549 -0.951,-0.684 -0.852,-1.541l0,-17.538c0.005,-0.074 0.01,-0.148 0.015,-0.222c0.165,-0.832 0.402,-0.961 0.836,-1.251l74.87,-43.226c0.553,-0.273 1.175,-0.227 1.667,0.053l0.032,-0.055l15.41,8.888c0.381,0.333 0.615,0.536 0.667,1.356l-0.299,86.482c-0.048,0.609 -0.394,1.118 -0.874,1.403Zm-51.009,-42.671l-8.81,5.086l57.301,33.23l0.286,-82.554l-11.822,-6.805l-0.044,69.409c-0.08,1.221 -1.384,2.047 -2.551,1.471l-34.36,-19.837Zm21.273,-16.21l0,-10.173l-57.485,33.23l71.461,41.207l11.558,-6.783l-59.866,-34.717c-0.518,-0.354 -0.915,-0.585 -0.828,-1.726c0.21,-0.919 0.424,-0.941 0.831,-1.218l34.329,-19.82Zm-59.186,20.111l60.035,-34.704c1.102,-0.538 2.461,0.179 2.552,1.473l0,39.647l8.838,5.103l0.041,-66.457l-71.466,41.262l0,13.676Zm59.186,4.453l0,-20.636l-17.871,10.318l17.871,10.318Z" style="fill:none;stroke:#00f;stroke-width:0.03px;stroke-linecap:butt;stroke-miterlimit:1.41421;"/>
            <path d="M1173.47,449.793l0.029,0.049l-12.663,7.417c-0.676,0.234 -0.87,0.116 -1.264,-0.079l-62.679,-36.142c-0.683,-0.46 -0.796,-0.573 -0.713,-1.29l0,-14.683c0.004,-0.062 0.008,-0.123 0.013,-0.185c0.138,-0.697 0.336,-0.805 0.699,-1.048l62.679,-36.187c0.463,-0.228 0.983,-0.19 1.395,0.045l0.027,-0.047l12.901,7.441c0.319,0.279 0.515,0.449 0.558,1.135l-0.25,72.4c-0.04,0.51 -0.33,0.936 -0.732,1.174Zm-42.703,-35.722l-7.375,4.258l47.97,27.818l0.24,-69.111l-9.897,-5.696l-0.037,58.106c-0.067,1.022 -1.159,1.714 -2.136,1.232l-28.765,-16.607Zm17.809,-13.571l0,-8.516l-48.124,27.819l59.824,34.497l9.676,-5.679l-50.117,-29.063c-0.434,-0.297 -0.766,-0.49 -0.693,-1.445c0.176,-0.77 0.355,-0.788 0.695,-1.02l28.739,-16.593Zm-49.548,16.837l50.259,-29.053c0.923,-0.451 2.06,0.15 2.136,1.233l0,33.191l7.399,4.272l0.035,-55.635l-59.829,34.543l0,11.449Zm49.548,3.727l0,-17.275l-14.961,8.638l14.961,8.637Z" style="fill:none;stroke:#00f;stroke-width:0.03px;stroke-linecap:butt;stroke-miterlimit:1.41421;"/>
            <path d="M1065.28,22.676l0,155.906l155.906,0l0,-155.906l-155.906,0Z" style="fill:none;stroke:#00f;stroke-width:0.03px;"/>
            <g id="Inlay-outline4" serif:id="Inlay outline">
                <path d="M1079.43,94.934c2.929,-32.735 30.401,-58.369 63.813,-58.369c35.357,0 64.063,28.706 64.063,64.063c0,35.358 -28.706,64.063 -64.063,64.063c-33.438,0 -60.928,-25.674 -63.813,-58.368l-3.524,0l0,-11.389l3.524,0Z" style="fill:none;stroke:#00f;stroke-width:0.03px;"/>
            </g>
        </g>
        <g id="Impossible-triangle4" serif:id="Impossible triangle">
            <path d="M1178.77,301.154l0.034,0.058l-15.126,8.86c-0.807,0.279 -1.039,0.138 -1.51,-0.094l-74.87,-43.173c-0.816,-0.549 -0.951,-0.684 -0.852,-1.541l0,-17.538c0.005,-0.074 0.01,-0.148 0.015,-0.222c0.165,-0.832 0.402,-0.961 0.836,-1.251l74.87,-43.226c0.553,-0.273 1.175,-0.227 1.667,0.053l0.032,-0.055l15.41,8.888c0.381,0.333 0.615,0.536 0.667,1.356l-0.299,86.482c-0.048,0.609 -0.394,1.118 -0.874,1.403Zm-51.009,-42.671l-8.81,5.086l57.301,33.23l0.286,-82.554l-11.822,-6.805l-0.044,69.409c-0.08,1.221 -1.384,2.047 -2.551,1.471l-34.36,-19.837Zm21.273,-16.21l0,-10.173l-57.485,33.23l71.461,41.207l11.558,-6.783l-59.866,-34.717c-0.518,-0.354 -0.915,-0.585 -0.828,-1.726c0.21,-0.919 0.424,-0.941 0.831,-1.218l34.329,-19.82Zm-59.186,20.111l60.035,-34.704c1.102,-0.538 2.461,0.179 2.552,1.473l0,39.647l8.838,5.103l0.041,-66.457l-71.466,41.262l0,13.676Zm59.186,4.453l0,-20.636l-17.871,10.318l17.871,10.318Z" style="fill:none;stroke:#f00;stroke-width:0.03px;stroke-linecap:butt;stroke-miterlimit:1.41421;"/>
            <g id="Inlay-outline5" serif:id="Inlay outline">
                <path d="M1079.43,250.84c2.929,-32.735 30.401,-58.369 63.813,-58.369c35.357,0 64.063,28.706 64.063,64.063c0,35.358 -28.706,64.063 -64.063,64.063c-33.438,0 -60.928,-25.674 -63.813,-58.368l-3.524,0l0,-11.389l3.524,0Z" style="fill:none;stroke:#00f;stroke-width:0.03px;"/>
            </g>
            <path d="M1203.89,191.337c0,2.504 2.032,4.536 4.535,4.536c2.504,0 4.536,-2.032 4.536,-4.536c0,-2.503 -2.032,-4.535 -4.536,-4.535c-2.503,0 -4.535,2.032 -4.535,4.535Z" style="fill:none;stroke:#00f;stroke-width:0.03px;"/>
            <path d="M1203.89,321.732c0,2.504 2.032,4.536 4.535,4.536c2.504,0 4.536,-2.032 4.536,-4.536c0,-2.503 -2.032,-4.535 -4.536,-4.535c-2.503,0 -4.535,2.032 -4.535,4.535Z" style="fill:none;stroke:#00f;stroke-width:0.03px;"/>
            <path d="M1073.5,321.732c0,2.504 2.032,4.536 4.535,4.536c2.503,0 4.535,-2.032 4.535,-4.536c0,-2.503 -2.032,-4.535 -4.535,-4.535c-2.503,0 -4.535,2.032 -4.535,4.535Z" style="fill:none;stroke:#00f;stroke-width:0.03px;"/>
            <path d="M1073.5,191.337c0,2.504 2.032,4.536 4.535,4.536c2.503,0 4.535,-2.032 4.535,-4.536c0,-2.503 -2.032,-4.535 -4.535,-4.535c-2.503,0 -4.535,2.032 -4.535,4.535Z" style="fill:none;stroke:#00f;stroke-width:0.03px;"/>
            <path d="M1065.28,178.582l0,155.906l155.906,0l0,-155.906l-155.906,0Z" style="fill:none;stroke:#00f;stroke-width:0.03px;"/>
        </g>
        <g id="Impossible-triangle5" serif:id="Impossible triangle">
            <g id="Inlay-outline6" serif:id="Inlay outline">
                <path d="M1079.43,406.746c2.929,-32.735 30.401,-58.369 63.813,-58.369c35.357,0 64.063,28.706 64.063,64.063c0,35.358 -28.706,64.063 -64.063,64.063c-33.438,0 -60.928,-25.674 -63.813,-58.368l-3.524,0l0,-11.389l3.524,0Z" style="fill:none;stroke:#00f;stroke-width:0.03px;"/>
            </g>
            <g id="Inlay-outline7" serif:id="Inlay outline">
                <path d="M1086.23,407.369c2.608,-29.154 27.074,-51.983 56.831,-51.983c31.489,0 57.054,25.565 57.054,57.054c0,31.489 -25.565,57.054 -57.054,57.054c-29.78,0 -54.262,-22.865 -56.831,-51.982l-3.139,0l0,-10.143l3.139,0Z" style="fill:none;stroke:#00f;stroke-width:0.03px;"/>
            </g>
            <path d="M1203.89,347.243c0,2.504 2.032,4.536 4.535,4.536c2.504,0 4.536,-2.032 4.536,-4.536c0,-2.503 -2.032,-4.535 -4.536,-4.535c-2.503,0 -4.535,2.032 -4.535,4.535Z" style="fill:none;stroke:#00f;stroke-width:0.03px;"/>
            <path d="M1203.89,477.638c0,2.504 2.032,4.536 4.535,4.536c2.504,0 4.536,-2.032 4.536,-4.536c0,-2.503 -2.032,-4.535 -4.536,-4.535c-2.503,0 -4.535,2.032 -4.535,4.535Z" style="fill:none;stroke:#00f;stroke-width:0.03px;"/>
            <path d="M1073.5,477.638c0,2.504 2.032,4.536 4.535,4.536c2.503,0 4.535,-2.032 4.535,-4.536c0,-2.503 -2.032,-4.535 -4.535,-4.535c-2.503,0 -4.535,2.032 -4.535,4.535Z" style="fill:none;stroke:#00f;stroke-width:0.03px;"/>
            <path d="M1073.5,347.243c0,2.504 2.032,4.536 4.535,4.536c2.503,0 4.535,-2.032 4.535,-4.536c0,-2.503 -2.032,-4.535 -4.535,-4.535c-2.503,0 -4.535,2.032 -4.535,4.535Z" style="fill:none;stroke:#00f;stroke-width:0.03px;"/>
            <path d="M1065.28,334.488l0,155.906l155.906,0l0,-155.906l-155.906,0Z" style="fill:none;stroke:#00f;stroke-width:0.03px;"/>
        </g>
    </g>
    <g id="_3mm--optional--Top-plate" serif:id="3mm (optional) Top plate">
        <path id="Outside-shape" serif:id="Outside shape" d="M19.276,14.173c-1.354,0 -2.651,0.538 -3.608,1.495c-0.957,0.957 -1.495,2.254 -1.495,3.608c0,40.097 0,304.028 0,344.126c0,2.818 2.285,5.102 5.103,5.102c31.265,0 196.64,0 227.905,0c2.818,0 5.102,-2.284 5.102,-5.102c0,-1.291 0,-2.678 0,-3.969c0,-1.353 0.538,-2.651 1.495,-3.608c0.957,-0.957 2.255,-1.494 3.608,-1.494c42.955,0 343.69,0 386.645,0c1.354,0 2.652,0.537 3.608,1.494c0.957,0.957 1.495,2.255 1.495,3.608c0,1.291 0,2.678 0,3.969c0,2.818 2.284,5.102 5.102,5.102c31.265,0 196.641,0 227.906,0c2.818,0 5.102,-2.284 5.102,-5.102c0,-40.098 0,-304.029 0,-344.126c0,-1.354 -0.537,-2.651 -1.494,-3.608c-0.957,-0.957 -2.255,-1.495 -3.608,-1.495c-15.923,0 -64.581,0 -80.504,0c-1.353,0 -2.651,0.538 -3.608,1.495c-0.957,0.957 -1.495,2.254 -1.495,3.608c0,0.376 0,0.757 0,1.133c0,1.354 -0.537,2.651 -1.494,3.608c-0.957,0.957 -2.255,1.495 -3.608,1.495c-59.575,0 -621.874,0 -681.449,0c-1.353,0 -2.651,-0.538 -3.608,-1.495c-0.957,-0.957 -1.494,-2.254 -1.494,-3.608c0,-0.376 0,-0.757 0,-1.133c0,-1.354 -0.538,-2.651 -1.495,-3.608c-0.956,-0.957 -2.254,-1.495 -3.607,-1.495c-15.923,0 -64.582,0 -80.504,0Z" style="fill:none;stroke:#00f;stroke-width:0.03px;"/>
        <ellipse cx="661.89" cy="355.712" rx="4.535" ry="4.5" style="fill:none;stroke:#00f;stroke-width:0.03px;"/>
        <ellipse cx="603.78" cy="38.215" rx="4.535" ry="4.5" style="fill:none;stroke:#00f;stroke-width:0.03px;"/>
        <ellipse cx="868.819" cy="62.326" rx="4.535" ry="4.5" style="fill:none;stroke:#00f;stroke-width:0.03px;"/>
        <ellipse cx="32.598" cy="62.326" rx="4.535" ry="4.5" style="fill:none;stroke:#00f;stroke-width:0.03px;"/>
        <ellipse cx="32.598" cy="265.003" rx="4.535" ry="4.5" style="fill:none;stroke:#00f;stroke-width:0.03px;"/>
        <ellipse cx="868.819" cy="265.003" rx="4.535" ry="4.5" style="fill:none;stroke:#00f;stroke-width:0.03px;"/>
        <ellipse cx="239.528" cy="355.746" rx="4.535" ry="4.5" style="fill:none;stroke:#00f;stroke-width:0.03px;"/>
        <ellipse cx="297.638" cy="38.249" rx="4.535" ry="4.5" style="fill:none;stroke:#00f;stroke-width:0.03px;"/>
        <g id="Inlay-outline8" serif:id="Inlay outline">
            <path d="M456.378,177.607c32.59,2.916 58.11,30.266 58.11,63.53c0,35.201 -28.578,63.78 -63.779,63.78c-35.201,0 -63.78,-28.579 -63.78,-63.78c0,-33.29 25.561,-60.658 58.11,-63.53l0,-3.509l11.339,0l0,3.509Z" style="fill:none;stroke:#00f;stroke-width:0.03px;"/>
        </g>
        <path id="Power-switch" serif:id="Power switch" d="M643.809,211.708l2.067,11.724l33.499,-5.906l-2.067,-11.725l-33.499,5.907Z" style="fill:none;stroke:#00f;stroke-width:0.03px;stroke-miterlimit:1;"/>
        <path id="Small-reset-switch-hole" serif:id="Small reset switch hole" d="M486.451,113.399c0,1.721 -1.397,3.118 -3.118,3.118c-1.721,0 -3.118,-1.397 -3.118,-3.118c0,-1.721 1.397,-3.118 3.118,-3.118c1.721,0 3.118,1.397 3.118,3.118Z" style="fill:none;stroke:#00f;stroke-width:0.03px;stroke-miterlimit:1;"/>
        <rect id="Reset-hole" serif:id="Reset hole" x="422.858" y="85.139" width="55.701" height="55.701" style="fill:none;stroke:#00f;stroke-width:0.03px;stroke-linejoin:miter;stroke-miterlimit:2;"/>
        <path id="Left-key-holes" serif:id="Left key holes" d="M320.87,301.149l-52.34,-19.051l18.452,-50.697l-20.456,-3.607l3.125,-17.727l-51.505,-9.082l-3.126,17.727l-53.18,-9.377l-2.83,16.051l106.36,18.754l-9.672,54.855l-53.18,-9.377l-54.855,-9.673l-53.18,-9.377l-53.18,-9.377l9.672,-54.854l9.082,-51.505l9.672,-54.855l9.377,-53.18l106.36,18.754l3.126,-17.726l53.18,9.377l3.126,-17.726l54.854,9.672l-3.125,17.727l106.36,18.754l-9.673,54.854l-9.081,51.506l-9.673,54.854l-54.854,-9.672l-22.801,-4.021l43.017,15.657l-18.349,50.416l0.443,0.368l42.891,-32.911l33.908,44.191l-40.854,31.349l-5.3,0l-31.029,-40.438l-0.762,-0.633Z" style="fill:none;stroke:#00f;stroke-width:0.03px;stroke-linejoin:miter;stroke-miterlimit:2;"/>
        <path id="Right-key-holes" serif:id="Right key holes" d="M579.607,299.09l-18.405,-50.566l43.017,-15.657l-22.801,4.02l-54.854,9.673l-9.672,-54.855l-9.082,-51.505l-9.673,-54.855l53.181,-9.377l53.18,-9.377l-3.126,-17.726l54.855,-9.673l3.125,17.727l53.18,-9.377l3.126,17.726l51.505,-9.082l54.855,-9.672l37.803,214.394l-53.18,9.377l-53.18,9.377l-54.854,9.672l-53.18,9.377l-9.673,-54.854l54.855,-9.673l51.505,-9.082l-2.83,-16.051l-53.18,9.377l-3.126,-17.726l-51.505,9.082l3.126,17.726l-20.457,3.607l18.452,50.698l-51.969,18.915l-0.989,0.582l-31.39,40.908l-4.713,0l-41.224,-31.633l33.909,-44.19l42.946,32.954l0.443,-0.261Z" style="fill:none;stroke:#00f;stroke-width:0.03px;stroke-linejoin:miter;stroke-miterlimit:2;"/>
    </g>
    <g id="_3mm--optional--Top-plate1" serif:id="3mm (optional) Top plate">
        <path id="Outside-shape1" serif:id="Outside shape" d="M19.276,368.504c-1.354,0 -2.651,0.537 -3.608,1.494c-0.957,0.957 -1.495,2.255 -1.495,3.608c0,40.098 0,304.029 0,344.126c0,2.818 2.285,5.103 5.103,5.103c31.265,0 196.64,0 227.905,0c2.818,0 5.102,-2.285 5.102,-5.103c0,-1.291 0,-2.677 0,-3.968c0,-1.353 0.538,-2.651 1.495,-3.608c0.957,-0.957 2.255,-1.495 3.608,-1.495c42.955,0 343.69,0 386.645,0c1.354,0 2.652,0.538 3.608,1.495c0.957,0.957 1.495,2.255 1.495,3.608c0,1.291 0,2.677 0,3.968c0,2.818 2.284,5.103 5.102,5.103c31.265,0 196.641,0 227.906,0c2.818,0 5.102,-2.285 5.102,-5.103c0,-40.097 0,-304.028 0,-344.126c0,-1.353 -0.537,-2.651 -1.494,-3.608c-0.957,-0.957 -2.255,-1.494 -3.608,-1.494c-15.923,0 -64.581,0 -80.504,0c-1.353,0 -2.651,0.537 -3.608,1.494c-0.957,0.957 -1.495,2.255 -1.495,3.608c0,0.377 0,0.757 0,1.134c0,1.353 -0.537,2.651 -1.494,3.608c-0.957,0.957 -2.255,1.495 -3.608,1.495c-59.575,0 -621.874,0 -681.449,0c-1.353,0 -2.651,-0.538 -3.608,-1.495c-0.957,-0.957 -1.494,-2.255 -1.494,-3.608c0,-0.377 0,-0.757 0,-1.134c0,-1.353 -0.538,-2.651 -1.495,-3.608c-0.956,-0.957 -2.254,-1.494 -3.607,-1.494c-15.923,0 -64.582,0 -80.504,0Z" style="fill:none;stroke:#00f;stroke-width:0.03px;"/>
        <ellipse cx="661.89" cy="710.043" rx="4.535" ry="4.5" style="fill:none;stroke:#00f;stroke-width:0.03px;"/>
        <ellipse cx="603.78" cy="392.546" rx="4.535" ry="4.5" style="fill:none;stroke:#00f;stroke-width:0.03px;"/>
        <ellipse cx="868.819" cy="416.657" rx="4.535" ry="4.5" style="fill:none;stroke:#00f;stroke-width:0.03px;"/>
        <ellipse cx="32.598" cy="416.657" rx="4.535" ry="4.5" style="fill:none;stroke:#00f;stroke-width:0.03px;"/>
        <ellipse cx="32.598" cy="619.334" rx="4.535" ry="4.5" style="fill:none;stroke:#00f;stroke-width:0.03px;"/>
        <ellipse cx="868.819" cy="619.334" rx="4.535" ry="4.5" style="fill:none;stroke:#00f;stroke-width:0.03px;"/>
        <ellipse cx="239.528" cy="710.077" rx="4.535" ry="4.5" style="fill:none;stroke:#00f;stroke-width:0.03px;"/>
        <ellipse cx="297.638" cy="392.579" rx="4.535" ry="4.5" style="fill:none;stroke:#00f;stroke-width:0.03px;"/>
        <g id="Inlay-outline9" serif:id="Inlay outline">
            <path d="M456.378,531.938c32.59,2.916 58.11,30.266 58.11,63.53c0,35.201 -28.578,63.78 -63.779,63.78c-35.201,0 -63.78,-28.579 -63.78,-63.78c0,-33.29 25.561,-60.658 58.11,-63.53l0,-3.509l11.339,0l0,3.509Z" style="fill:none;stroke:#00f;stroke-width:0.03px;"/>
        </g>
        <path id="Power-switch1" serif:id="Power switch" d="M643.809,566.039l2.067,11.724l33.499,-5.907l-2.067,-11.724l-33.499,5.907Z" style="fill:none;stroke:#00f;stroke-width:0.03px;stroke-miterlimit:1;"/>
        <path id="Small-reset-switch-hole1" serif:id="Small reset switch hole" d="M486.451,467.73c0,1.721 -1.397,3.118 -3.118,3.118c-1.721,0 -3.118,-1.397 -3.118,-3.118c0,-1.721 1.397,-3.118 3.118,-3.118c1.721,0 3.118,1.397 3.118,3.118Z" style="fill:none;stroke:#00f;stroke-width:0.03px;stroke-miterlimit:1;"/>
        <rect id="Reset-hole1" serif:id="Reset hole" x="422.858" y="439.47" width="55.701" height="55.701" style="fill:none;stroke:#00f;stroke-width:0.03px;stroke-linejoin:miter;stroke-miterlimit:2;"/>
        <path id="Left-key-holes1" serif:id="Left key holes" d="M320.87,655.479l-52.34,-19.05l18.452,-50.698l-20.456,-3.607l3.125,-17.726l-51.505,-9.082l-3.126,17.727l-53.18,-9.377l-2.83,16.051l106.36,18.754l-9.672,54.854l-53.18,-9.377l-54.855,-9.672l-53.18,-9.377l-53.18,-9.377l9.672,-54.855l9.082,-51.504l9.672,-54.855l9.377,-53.18l106.36,18.754l3.126,-17.726l53.18,9.377l3.126,-17.726l54.854,9.672l-3.125,17.726l106.36,18.755l-9.673,54.854l-9.081,51.505l-9.673,54.855l-54.854,-9.672l-22.801,-4.021l43.017,15.657l-18.349,50.415l0.443,0.369l42.891,-32.911l33.908,44.19l-40.854,31.349l-5.3,0l-31.029,-40.437l-0.762,-0.634Z" style="fill:none;stroke:#00f;stroke-width:0.03px;stroke-linejoin:miter;stroke-miterlimit:2;"/>
        <path id="Right-key-holes1" serif:id="Right key holes" d="M579.607,653.421l-18.405,-50.566l43.017,-15.657l-22.801,4.02l-54.854,9.672l-9.672,-54.854l-9.082,-51.505l-9.673,-54.855l53.181,-9.377l53.18,-9.377l-3.126,-17.727l54.855,-9.672l3.125,17.727l53.18,-9.377l3.126,17.726l51.505,-9.082l54.855,-9.673l37.803,214.394l-53.18,9.377l-53.18,9.377l-54.854,9.673l-53.18,9.377l-9.673,-54.855l54.855,-9.672l51.505,-9.082l-2.83,-16.051l-53.18,9.377l-3.126,-17.726l-51.505,9.081l3.126,17.727l-20.457,3.607l18.452,50.698l-51.969,18.915l-0.989,0.582l-31.39,40.907l-4.713,0l-41.224,-31.632l33.909,-44.19l42.946,32.953l0.443,-0.26Z" style="fill:none;stroke:#00f;stroke-width:0.03px;stroke-linejoin:miter;stroke-miterlimit:2;"/>
    </g>
</svg>
