<?xml version="1.0" encoding="UTF-8" standalone="no"?>
<!DOCTYPE svg PUBLIC "-//W3C//DTD SVG 1.1//EN" "http://www.w3.org/Graphics/SVG/1.1/DTD/svg11.dtd">
<svg width="2268px" height="1117px" version="1.1" xmlns="http://www.w3.org/2000/svg" xmlns:xlink="http://www.w3.org/1999/xlink" xml:space="preserve" xmlns:serif="http://www.serif.com/" style="fill-rule:evenodd;clip-rule:evenodd;stroke-linecap:round;stroke-linejoin:round;stroke-miterlimit:1.5;">
    <g id="_3mm-First-layer-battery-holder" serif:id="3mm First layer battery holder">
        <ellipse cx="661.89" cy="355.784" rx="4.535" ry="4.5" style="fill:none;stroke:#00f;stroke-width:0.03px;"/>
        <ellipse cx="603.78" cy="38.287" rx="4.535" ry="4.5" style="fill:none;stroke:#00f;stroke-width:0.03px;"/>
        <ellipse cx="868.819" cy="62.398" rx="4.535" ry="4.5" style="fill:none;stroke:#00f;stroke-width:0.03px;"/>
        <ellipse cx="32.598" cy="62.398" rx="4.535" ry="4.5" style="fill:none;stroke:#00f;stroke-width:0.03px;"/>
        <ellipse cx="32.598" cy="265.075" rx="4.535" ry="4.5" style="fill:none;stroke:#00f;stroke-width:0.03px;"/>
        <ellipse cx="868.819" cy="265.075" rx="4.535" ry="4.5" style="fill:none;stroke:#00f;stroke-width:0.03px;"/>
        <ellipse cx="239.528" cy="355.818" rx="4.535" ry="4.5" style="fill:none;stroke:#00f;stroke-width:0.03px;"/>
        <ellipse cx="297.638" cy="38.321" rx="4.535" ry="4.5" style="fill:none;stroke:#00f;stroke-width:0.03px;"/>
        <path id="Outside-shape" serif:id="Outside shape" d="M19.276,14.173c-1.354,0 -2.651,0.538 -3.608,1.495c-0.957,0.957 -1.495,2.254 -1.495,3.608c0,40.097 0,304.028 0,344.126c0,2.818 2.285,5.102 5.103,5.102c31.265,0 196.64,0 227.905,0c2.818,0 5.102,-2.284 5.102,-5.102c0,-1.291 0,-2.678 0,-3.969c0,-1.353 0.538,-2.651 1.495,-3.608c0.957,-0.957 2.255,-1.494 3.608,-1.494c42.955,0 343.69,0 386.645,0c1.354,0 2.652,0.537 3.608,1.494c0.957,0.957 1.495,2.255 1.495,3.608c0,1.291 0,2.678 0,3.969c0,2.818 2.284,5.102 5.102,5.102c31.265,0 196.641,0 227.906,0c2.818,0 5.102,-2.284 5.102,-5.102c0,-40.098 0,-304.029 0,-344.126c0,-1.354 -0.537,-2.651 -1.494,-3.608c-0.957,-0.957 -2.255,-1.495 -3.608,-1.495c-15.923,0 -64.581,0 -80.504,0c-1.353,0 -2.651,0.538 -3.608,1.495c-0.957,0.957 -1.495,2.254 -1.495,3.608c0,0.376 0,0.757 0,1.133c0,1.354 -0.537,2.651 -1.494,3.608c-0.957,0.957 -2.255,1.495 -3.608,1.495c-59.575,0 -621.874,0 -681.449,0c-1.353,0 -2.651,-0.538 -3.608,-1.495c-0.957,-0.957 -1.494,-2.254 -1.494,-3.608c0,-0.376 0,-0.757 0,-1.133c0,-1.354 -0.538,-2.651 -1.495,-3.608c-0.956,-0.957 -2.254,-1.495 -3.607,-1.495c-15.923,0 -64.582,0 -80.504,0Z" style="fill:none;stroke:#00f;stroke-width:0.03px;"/>
        <path d="M486.142,226.667l0,100.396l-70.866,0l0,-147.402l18.425,0l0,-132.889l34.017,0l0,132.889l18.424,0l0,14.433l7.207,0l79.604,-72.125l0,-0.166l104.882,0l0,184.252l-104.882,0l0,-79.388l-86.811,0Z" style="fill:none;stroke:#00f;stroke-width:0.03px;stroke-miterlimit:1;"/>
    </g>
    <g id="_3mm-First-layer-battery-holder1" serif:id="3mm First layer battery holder">
        <ellipse cx="661.89" cy="710.115" rx="4.535" ry="4.5" style="fill:none;stroke:#00f;stroke-width:0.03px;"/>
        <ellipse cx="603.78" cy="392.617" rx="4.535" ry="4.5" style="fill:none;stroke:#00f;stroke-width:0.03px;"/>
        <ellipse cx="868.819" cy="416.729" rx="4.535" ry="4.5" style="fill:none;stroke:#00f;stroke-width:0.03px;"/>
        <ellipse cx="32.598" cy="416.729" rx="4.535" ry="4.5" style="fill:none;stroke:#00f;stroke-width:0.03px;"/>
        <ellipse cx="32.598" cy="619.406" rx="4.535" ry="4.5" style="fill:none;stroke:#00f;stroke-width:0.03px;"/>
        <ellipse cx="868.819" cy="619.406" rx="4.535" ry="4.5" style="fill:none;stroke:#00f;stroke-width:0.03px;"/>
        <ellipse cx="239.528" cy="710.149" rx="4.535" ry="4.5" style="fill:none;stroke:#00f;stroke-width:0.03px;"/>
        <ellipse cx="297.638" cy="392.651" rx="4.535" ry="4.5" style="fill:none;stroke:#00f;stroke-width:0.03px;"/>
        <path id="Outside-shape1" serif:id="Outside shape" d="M19.276,368.504c-1.354,0 -2.651,0.537 -3.608,1.494c-0.957,0.957 -1.495,2.255 -1.495,3.608c0,40.098 0,304.029 0,344.126c0,2.818 2.285,5.103 5.103,5.103c31.265,0 196.64,0 227.905,0c2.818,0 5.102,-2.285 5.102,-5.103c0,-1.291 0,-2.677 0,-3.968c0,-1.353 0.538,-2.651 1.495,-3.608c0.957,-0.957 2.255,-1.495 3.608,-1.495c42.955,0 343.69,0 386.645,0c1.354,0 2.652,0.538 3.608,1.495c0.957,0.957 1.495,2.255 1.495,3.608c0,1.291 0,2.677 0,3.968c0,2.818 2.284,5.103 5.102,5.103c31.265,0 196.641,0 227.906,0c2.818,0 5.102,-2.285 5.102,-5.103c0,-40.097 0,-304.028 0,-344.126c0,-1.353 -0.537,-2.651 -1.494,-3.608c-0.957,-0.957 -2.255,-1.494 -3.608,-1.494c-15.923,0 -64.581,0 -80.504,0c-1.353,0 -2.651,0.537 -3.608,1.494c-0.957,0.957 -1.495,2.255 -1.495,3.608c0,0.377 0,0.757 0,1.134c0,1.353 -0.537,2.651 -1.494,3.608c-0.957,0.957 -2.255,1.495 -3.608,1.495c-59.575,0 -621.874,0 -681.449,0c-1.353,0 -2.651,-0.538 -3.608,-1.495c-0.957,-0.957 -1.494,-2.255 -1.494,-3.608c0,-0.377 0,-0.757 0,-1.134c0,-1.353 -0.538,-2.651 -1.495,-3.608c-0.956,-0.957 -2.254,-1.494 -3.607,-1.494c-15.923,0 -64.582,0 -80.504,0Z" style="fill:none;stroke:#00f;stroke-width:0.03px;"/>
        <path d="M486.142,580.997l0,100.397l-70.866,0l0,-147.402l18.425,0l0,-132.89l34.017,0l0,132.89l18.424,0l0,14.432l7.207,0l79.604,-72.124l0,-0.166l104.882,0l0,184.252l-104.882,0l0,-79.389l-86.811,0Z" style="fill:none;stroke:#00f;stroke-width:0.03px;stroke-miterlimit:1;"/>
    </g>
    <g id="_3mm-First-layer-battery-holder2" serif:id="3mm First layer battery holder">
        <ellipse cx="661.89" cy="1064.44" rx="4.535" ry="4.5" style="fill:none;stroke:#00f;stroke-width:0.03px;"/>
        <ellipse cx="603.78" cy="746.948" rx="4.535" ry="4.5" style="fill:none;stroke:#00f;stroke-width:0.03px;"/>
        <ellipse cx="868.819" cy="771.06" rx="4.535" ry="4.5" style="fill:none;stroke:#00f;stroke-width:0.03px;"/>
        <ellipse cx="32.598" cy="771.06" rx="4.535" ry="4.5" style="fill:none;stroke:#00f;stroke-width:0.03px;"/>
        <ellipse cx="32.598" cy="973.737" rx="4.535" ry="4.5" style="fill:none;stroke:#00f;stroke-width:0.03px;"/>
        <ellipse cx="868.819" cy="973.737" rx="4.535" ry="4.5" style="fill:none;stroke:#00f;stroke-width:0.03px;"/>
        <ellipse cx="239.528" cy="1064.48" rx="4.535" ry="4.5" style="fill:none;stroke:#00f;stroke-width:0.03px;"/>
        <ellipse cx="297.638" cy="746.982" rx="4.535" ry="4.5" style="fill:none;stroke:#00f;stroke-width:0.03px;"/>
        <path id="Outside-shape2" serif:id="Outside shape" d="M19.276,722.835c-1.354,0 -2.651,0.537 -3.608,1.494c-0.957,0.957 -1.495,2.255 -1.495,3.608c0,40.097 0,304.029 0,344.126c0,2.818 2.285,5.102 5.103,5.102c31.265,0 196.64,0 227.905,0c2.818,0 5.102,-2.284 5.102,-5.102c0,-1.291 0,-2.678 0,-3.969c0,-1.353 0.538,-2.651 1.495,-3.607c0.957,-0.957 2.255,-1.495 3.608,-1.495c42.955,0 343.69,0 386.645,0c1.354,0 2.652,0.538 3.608,1.495c0.957,0.956 1.495,2.254 1.495,3.607c0,1.291 0,2.678 0,3.969c0,2.818 2.284,5.102 5.102,5.102c31.265,0 196.641,0 227.906,0c2.818,0 5.102,-2.284 5.102,-5.102c0,-40.097 0,-304.029 0,-344.126c0,-1.353 -0.537,-2.651 -1.494,-3.608c-0.957,-0.957 -2.255,-1.494 -3.608,-1.494c-15.923,0 -64.581,0 -80.504,0c-1.353,0 -2.651,0.537 -3.608,1.494c-0.957,0.957 -1.495,2.255 -1.495,3.608c0,0.377 0,0.757 0,1.134c0,1.353 -0.537,2.651 -1.494,3.608c-0.957,0.957 -2.255,1.494 -3.608,1.494c-59.575,0 -621.874,0 -681.449,0c-1.353,0 -2.651,-0.537 -3.608,-1.494c-0.957,-0.957 -1.494,-2.255 -1.494,-3.608c0,-0.377 0,-0.757 0,-1.134c0,-1.353 -0.538,-2.651 -1.495,-3.608c-0.956,-0.957 -2.254,-1.494 -3.607,-1.494c-15.923,0 -64.582,0 -80.504,0Z" style="fill:none;stroke:#00f;stroke-width:0.03px;"/>
        <path d="M486.142,935.328l0,100.396l-70.866,0l0,-147.401l18.425,0l0,-132.89l34.017,0l0,132.89l18.424,0l0,14.432l7.207,0l79.604,-72.124l0,-0.166l104.882,0l0,184.252l-104.882,0l0,-79.389l-86.811,0Z" style="fill:none;stroke:#00f;stroke-width:0.03px;stroke-miterlimit:1;"/>
    </g>
    <g id="_3mm-First-layer-battery-holder3" serif:id="3mm First layer battery holder">
        <ellipse cx="1534.96" cy="355.784" rx="4.535" ry="4.5" style="fill:none;stroke:#00f;stroke-width:0.03px;"/>
        <ellipse cx="1476.85" cy="38.287" rx="4.535" ry="4.5" style="fill:none;stroke:#00f;stroke-width:0.03px;"/>
        <ellipse cx="1741.89" cy="62.398" rx="4.535" ry="4.5" style="fill:none;stroke:#00f;stroke-width:0.03px;"/>
        <ellipse cx="905.669" cy="62.398" rx="4.535" ry="4.5" style="fill:none;stroke:#00f;stroke-width:0.03px;"/>
        <ellipse cx="905.669" cy="265.075" rx="4.535" ry="4.5" style="fill:none;stroke:#00f;stroke-width:0.03px;"/>
        <ellipse cx="1741.89" cy="265.075" rx="4.535" ry="4.5" style="fill:none;stroke:#00f;stroke-width:0.03px;"/>
        <ellipse cx="1112.6" cy="355.818" rx="4.535" ry="4.5" style="fill:none;stroke:#00f;stroke-width:0.03px;"/>
        <ellipse cx="1170.71" cy="38.321" rx="4.535" ry="4.5" style="fill:none;stroke:#00f;stroke-width:0.03px;"/>
        <path id="Outside-shape3" serif:id="Outside shape" d="M892.346,14.173c-1.353,0 -2.651,0.538 -3.607,1.495c-0.957,0.957 -1.495,2.254 -1.495,3.608c0,40.097 0,304.028 0,344.126c0,2.818 2.284,5.102 5.102,5.102c31.265,0 196.641,0 227.906,0c2.818,0 5.102,-2.284 5.102,-5.102c0,-1.291 0,-2.678 0,-3.969c0,-1.353 0.538,-2.651 1.495,-3.608c0.957,-0.957 2.254,-1.494 3.608,-1.494c42.955,0 343.69,0 386.645,0c1.354,0 2.651,0.537 3.608,1.494c0.957,0.957 1.495,2.255 1.495,3.608c0,1.291 0,2.678 0,3.969c0,2.818 2.284,5.102 5.102,5.102c31.265,0 196.641,0 227.906,0c2.818,0 5.102,-2.284 5.102,-5.102c0,-40.098 0,-304.029 0,-344.126c0,-1.354 -0.538,-2.651 -1.494,-3.608c-0.957,-0.957 -2.255,-1.495 -3.608,-1.495c-15.923,0 -64.582,0 -80.504,0c-1.354,0 -2.651,0.538 -3.608,1.495c-0.957,0.957 -1.495,2.254 -1.495,3.608c0,0.376 0,0.757 0,1.133c0,1.354 -0.537,2.651 -1.494,3.608c-0.957,0.957 -2.255,1.495 -3.608,1.495c-59.575,0 -621.874,0 -681.449,0c-1.353,0 -2.651,-0.538 -3.608,-1.495c-0.957,-0.957 -1.494,-2.254 -1.494,-3.608c0,-0.376 0,-0.757 0,-1.133c0,-1.354 -0.538,-2.651 -1.495,-3.608c-0.957,-0.957 -2.254,-1.495 -3.608,-1.495c-15.922,0 -64.581,0 -80.504,0Z" style="fill:none;stroke:#00f;stroke-width:0.03px;"/>
        <path d="M1359.21,226.667l0,100.396l-70.867,0l0,-147.402l18.426,0l0,-132.889l34.017,0l0,132.889l18.424,0l0,14.433l7.207,0l79.604,-72.125l0,-0.166l104.882,0l0,184.252l-104.882,0l0,-79.388l-86.811,0Z" style="fill:none;stroke:#00f;stroke-width:0.03px;stroke-miterlimit:1;"/>
    </g>
    <g id="_3mm-First-layer-battery-holder4" serif:id="3mm First layer battery holder">
        <ellipse cx="1534.96" cy="710.115" rx="4.535" ry="4.5" style="fill:none;stroke:#00f;stroke-width:0.03px;"/>
        <ellipse cx="1476.85" cy="392.617" rx="4.535" ry="4.5" style="fill:none;stroke:#00f;stroke-width:0.03px;"/>
        <ellipse cx="1741.89" cy="416.729" rx="4.535" ry="4.5" style="fill:none;stroke:#00f;stroke-width:0.03px;"/>
        <ellipse cx="905.669" cy="416.729" rx="4.535" ry="4.5" style="fill:none;stroke:#00f;stroke-width:0.03px;"/>
        <ellipse cx="905.669" cy="619.406" rx="4.535" ry="4.5" style="fill:none;stroke:#00f;stroke-width:0.03px;"/>
        <ellipse cx="1741.89" cy="619.406" rx="4.535" ry="4.5" style="fill:none;stroke:#00f;stroke-width:0.03px;"/>
        <ellipse cx="1112.6" cy="710.149" rx="4.535" ry="4.5" style="fill:none;stroke:#00f;stroke-width:0.03px;"/>
        <ellipse cx="1170.71" cy="392.651" rx="4.535" ry="4.5" style="fill:none;stroke:#00f;stroke-width:0.03px;"/>
        <path id="Outside-shape4" serif:id="Outside shape" d="M892.346,368.504c-1.353,0 -2.651,0.537 -3.607,1.494c-0.957,0.957 -1.495,2.255 -1.495,3.608c0,40.098 0,304.029 0,344.126c0,2.818 2.284,5.103 5.102,5.103c31.265,0 196.641,0 227.906,0c2.818,0 5.102,-2.285 5.102,-5.103c0,-1.291 0,-2.677 0,-3.968c0,-1.353 0.538,-2.651 1.495,-3.608c0.957,-0.957 2.254,-1.495 3.608,-1.495c42.955,0 343.69,0 386.645,0c1.354,0 2.651,0.538 3.608,1.495c0.957,0.957 1.495,2.255 1.495,3.608c0,1.291 0,2.677 0,3.968c0,2.818 2.284,5.103 5.102,5.103c31.265,0 196.641,0 227.906,0c2.818,0 5.102,-2.285 5.102,-5.103c0,-40.097 0,-304.028 0,-344.126c0,-1.353 -0.538,-2.651 -1.494,-3.608c-0.957,-0.957 -2.255,-1.494 -3.608,-1.494c-15.923,0 -64.582,0 -80.504,0c-1.354,0 -2.651,0.537 -3.608,1.494c-0.957,0.957 -1.495,2.255 -1.495,3.608c0,0.377 0,0.757 0,1.134c0,1.353 -0.537,2.651 -1.494,3.608c-0.957,0.957 -2.255,1.495 -3.608,1.495c-59.575,0 -621.874,0 -681.449,0c-1.353,0 -2.651,-0.538 -3.608,-1.495c-0.957,-0.957 -1.494,-2.255 -1.494,-3.608c0,-0.377 0,-0.757 0,-1.134c0,-1.353 -0.538,-2.651 -1.495,-3.608c-0.957,-0.957 -2.254,-1.494 -3.608,-1.494c-15.922,0 -64.581,0 -80.504,0Z" style="fill:none;stroke:#00f;stroke-width:0.03px;"/>
        <path d="M1359.21,580.997l0,100.397l-70.867,0l0,-147.402l18.426,0l0,-132.89l34.017,0l0,132.89l18.424,0l0,14.432l7.207,0l79.604,-72.124l0,-0.166l104.882,0l0,184.252l-104.882,0l0,-79.389l-86.811,0Z" style="fill:none;stroke:#00f;stroke-width:0.03px;stroke-miterlimit:1;"/>
    </g>
    <g id="_3mm-First-layer-battery-holder5" serif:id="3mm First layer battery holder">
        <ellipse cx="1534.96" cy="1064.44" rx="4.535" ry="4.5" style="fill:none;stroke:#00f;stroke-width:0.03px;"/>
        <ellipse cx="1476.85" cy="746.948" rx="4.535" ry="4.5" style="fill:none;stroke:#00f;stroke-width:0.03px;"/>
        <ellipse cx="1741.89" cy="771.06" rx="4.535" ry="4.5" style="fill:none;stroke:#00f;stroke-width:0.03px;"/>
        <ellipse cx="905.669" cy="771.06" rx="4.535" ry="4.5" style="fill:none;stroke:#00f;stroke-width:0.03px;"/>
        <ellipse cx="905.669" cy="973.737" rx="4.535" ry="4.5" style="fill:none;stroke:#00f;stroke-width:0.03px;"/>
        <ellipse cx="1741.89" cy="973.737" rx="4.535" ry="4.5" style="fill:none;stroke:#00f;stroke-width:0.03px;"/>
        <ellipse cx="1112.6" cy="1064.48" rx="4.535" ry="4.5" style="fill:none;stroke:#00f;stroke-width:0.03px;"/>
        <ellipse cx="1170.71" cy="746.982" rx="4.535" ry="4.5" style="fill:none;stroke:#00f;stroke-width:0.03px;"/>
        <path id="Outside-shape5" serif:id="Outside shape" d="M892.346,722.835c-1.353,0 -2.651,0.537 -3.607,1.494c-0.957,0.957 -1.495,2.255 -1.495,3.608c0,40.097 0,304.029 0,344.126c0,2.818 2.284,5.102 5.102,5.102c31.265,0 196.641,0 227.906,0c2.818,0 5.102,-2.284 5.102,-5.102c0,-1.291 0,-2.678 0,-3.969c0,-1.353 0.538,-2.651 1.495,-3.607c0.957,-0.957 2.254,-1.495 3.608,-1.495c42.955,0 343.69,0 386.645,0c1.354,0 2.651,0.538 3.608,1.495c0.957,0.956 1.495,2.254 1.495,3.607c0,1.291 0,2.678 0,3.969c0,2.818 2.284,5.102 5.102,5.102c31.265,0 196.641,0 227.906,0c2.818,0 5.102,-2.284 5.102,-5.102c0,-40.097 0,-304.029 0,-344.126c0,-1.353 -0.538,-2.651 -1.494,-3.608c-0.957,-0.957 -2.255,-1.494 -3.608,-1.494c-15.923,0 -64.582,0 -80.504,0c-1.354,0 -2.651,0.537 -3.608,1.494c-0.957,0.957 -1.495,2.255 -1.495,3.608c0,0.377 0,0.757 0,1.134c0,1.353 -0.537,2.651 -1.494,3.608c-0.957,0.957 -2.255,1.494 -3.608,1.494c-59.575,0 -621.874,0 -681.449,0c-1.353,0 -2.651,-0.537 -3.608,-1.494c-0.957,-0.957 -1.494,-2.255 -1.494,-3.608c0,-0.377 0,-0.757 0,-1.134c0,-1.353 -0.538,-2.651 -1.495,-3.608c-0.957,-0.957 -2.254,-1.494 -3.608,-1.494c-15.922,0 -64.581,0 -80.504,0Z" style="fill:none;stroke:#00f;stroke-width:0.03px;"/>
        <path d="M1359.21,935.328l0,100.396l-70.867,0l0,-147.401l18.426,0l0,-132.89l34.017,0l0,132.89l18.424,0l0,14.432l7.207,0l79.604,-72.124l0,-0.166l104.882,0l0,184.252l-104.882,0l0,-79.389l-86.811,0Z" style="fill:none;stroke:#00f;stroke-width:0.03px;stroke-miterlimit:1;"/>
    </g>
    <g id="_3mm-First-layer-battery-holder6" serif:id="3mm First layer battery holder">
        <path d="M2097.43,334.488c0,2.503 2.016,4.536 4.5,4.536c2.483,0 4.499,-2.033 4.499,-4.536c0,-2.503 -2.016,-4.535 -4.499,-4.535c-2.484,0 -4.5,2.032 -4.5,4.535Z" style="fill:none;stroke:#00f;stroke-width:0.03px;"/>
        <path d="M1779.93,392.598c0,2.504 2.016,4.536 4.499,4.536c2.484,0 4.5,-2.032 4.5,-4.536c0,-2.503 -2.016,-4.535 -4.5,-4.535c-2.483,0 -4.499,2.032 -4.499,4.535Z" style="fill:none;stroke:#00f;stroke-width:0.03px;"/>
        <path d="M1804.04,127.559c0,-2.503 2.016,-4.535 4.5,-4.535c2.483,0 4.499,2.032 4.499,4.535c0,2.503 -2.016,4.535 -4.499,4.535c-2.484,0 -4.5,-2.032 -4.5,-4.535Z" style="fill:none;stroke:#00f;stroke-width:0.03px;"/>
        <path d="M1804.04,963.78c0,-2.504 2.016,-4.536 4.5,-4.536c2.483,0 4.499,2.032 4.499,4.536c0,2.503 -2.016,4.535 -4.499,4.535c-2.484,0 -4.5,-2.032 -4.5,-4.535Z" style="fill:none;stroke:#00f;stroke-width:0.03px;"/>
        <path d="M2006.72,963.78c0,-2.504 2.017,-4.536 4.5,-4.536c2.483,0 4.5,2.032 4.5,4.536c0,2.503 -2.017,4.535 -4.5,4.535c-2.483,0 -4.5,-2.032 -4.5,-4.535Z" style="fill:none;stroke:#00f;stroke-width:0.03px;"/>
        <path d="M2006.72,127.559c0,-2.503 2.017,-4.535 4.5,-4.535c2.483,0 4.5,2.032 4.5,4.535c0,2.503 -2.017,4.535 -4.5,4.535c-2.483,0 -4.5,-2.032 -4.5,-4.535Z" style="fill:none;stroke:#00f;stroke-width:0.03px;"/>
        <path d="M2097.46,756.85c0,2.504 2.016,4.536 4.5,4.536c2.483,0 4.499,-2.032 4.499,-4.536c0,-2.503 -2.016,-4.535 -4.499,-4.535c-2.484,0 -4.5,2.032 -4.5,4.535Z" style="fill:none;stroke:#00f;stroke-width:0.03px;"/>
        <path d="M1779.96,698.74c0,2.503 2.016,4.536 4.499,4.536c2.484,0 4.5,-2.033 4.5,-4.536c0,-2.503 -2.016,-4.535 -4.5,-4.535c-2.483,0 -4.499,2.032 -4.499,4.535Z" style="fill:none;stroke:#00f;stroke-width:0.03px;"/>
        <path id="Outside-shape6" serif:id="Outside shape" d="M1760.32,977.102c0,1.354 0.538,2.651 1.494,3.608c0.957,0.957 2.255,1.495 3.608,1.495c40.098,0 304.029,0 344.126,0c2.818,0 5.103,-2.285 5.103,-5.103c0,-31.265 0,-196.64 0,-227.905c0,-2.818 -2.285,-5.103 -5.103,-5.103c-1.291,0 -2.677,0 -3.968,0c-1.353,0 -2.651,-0.537 -3.608,-1.494c-0.957,-0.957 -1.495,-2.255 -1.495,-3.608c0,-42.956 0,-343.69 0,-386.646c0,-1.353 0.538,-2.651 1.495,-3.607c0.957,-0.957 2.255,-1.495 3.608,-1.495c1.291,0 2.677,0 3.968,0c2.818,0 5.103,-2.284 5.103,-5.102c0,-31.265 0,-196.641 0,-227.906c0,-2.818 -2.285,-5.102 -5.103,-5.102c-40.097,0 -304.028,0 -344.126,0c-1.353,0 -2.651,0.537 -3.608,1.494c-0.956,0.957 -1.494,2.255 -1.494,3.608c0,15.923 0,64.581 0,80.504c0,1.353 0.538,2.651 1.494,3.608c0.957,0.957 2.255,1.495 3.608,1.495c0.377,0 0.757,0 1.134,0c1.353,0 2.651,0.537 3.608,1.494c0.957,0.957 1.495,2.255 1.495,3.608c0,59.575 0,621.874 0,681.449c0,1.353 -0.538,2.651 -1.495,3.608c-0.957,0.956 -2.255,1.494 -3.608,1.494c-0.377,0 -0.757,0 -1.134,0c-1.353,0 -2.651,0.538 -3.608,1.495c-0.956,0.956 -1.494,2.254 -1.494,3.607c0,15.923 0,64.582 0,80.504Z" style="fill:none;stroke:#00f;stroke-width:0.03px;"/>
        <path d="M1972.81,510.236l100.396,0l0,70.866l-147.402,0l0,-18.425l-132.89,0l0,-34.017l132.89,0l0,-18.424l14.432,0l0,-7.207l-72.124,-79.604l-0.166,0l0,-104.882l184.252,0l0,104.882l-79.388,0l0,86.811Z" style="fill:none;stroke:#00f;stroke-width:0.03px;stroke-miterlimit:1;"/>
    </g>
</svg>
