G04 #@! TF.GenerationSoftware,KiCad,Pcbnew,(6.0.0-rc1-dev-1469-g932b9a334)*
G04 #@! TF.CreationDate,2019-10-20T15:35:18-07:00
G04 #@! TF.ProjectId,Laptreus-v2,4c617074-7265-4757-932d-76322e6b6963,rev?*
G04 #@! TF.SameCoordinates,Original*
G04 #@! TF.FileFunction,Other,Comment*
%FSLAX46Y46*%
G04 Gerber Fmt 4.6, Leading zero omitted, Abs format (unit mm)*
G04 Created by KiCad (PCBNEW (6.0.0-rc1-dev-1469-g932b9a334)) date Sunday, October 20, 2019 at 03:35:18 PM*
%MOMM*%
%LPD*%
G04 APERTURE LIST*
%ADD10C,0.150000*%
%ADD11C,0.100000*%
G04 APERTURE END LIST*
D10*
X115699647Y-119695053D02*
X119649647Y-119695055D01*
D11*
G04 #@! TO.C,SW2*
X346821466Y-82238659D02*
G75*
G03X346821466Y-82238659I-141422J0D01*
G01*
D10*
X338888151Y-79713342D02*
X333505311Y-80657405D01*
X340828565Y-81072034D02*
G75*
G03X338888151Y-79713342I-1649553J-290861D01*
G01*
X343363048Y-76096334D02*
G75*
G03X341422635Y-74737641I-1649553J-290860D01*
G01*
X341422635Y-74737640D02*
X332731706Y-76270086D01*
X332731706Y-76270086D02*
X333505311Y-80657405D01*
X343363048Y-76096334D02*
X344137519Y-80488578D01*
X344137519Y-80488578D02*
X340828565Y-81072034D01*
D11*
X329260844Y-83076195D02*
X331427421Y-82694169D01*
X331427421Y-82694169D02*
X332191473Y-87027323D01*
X332191473Y-87027323D02*
X330024896Y-87409349D01*
X330024896Y-87409349D02*
X329260844Y-83076195D01*
X330867579Y-85051759D02*
G75*
G03X330867579Y-85051759I-141420J0D01*
G01*
G04 #@! TO.C,SW8*
X192248008Y-91806413D02*
G75*
G03X192248008Y-91806413I-141422J0D01*
G01*
D10*
X185648311Y-86768407D02*
X180267207Y-85814496D01*
X187007003Y-88708821D02*
G75*
G03X185648311Y-86768407I-1649553J290861D01*
G01*
X191090428Y-84900037D02*
G75*
G03X189731737Y-82959622I-1649553J290862D01*
G01*
X189731737Y-82959621D02*
X181040808Y-81427177D01*
X181040808Y-81427177D02*
X180267207Y-85814496D01*
X191090428Y-84900037D02*
X190315957Y-89292281D01*
X190315957Y-89292281D02*
X187007003Y-88708821D01*
D11*
X175451438Y-86635723D02*
X177618015Y-87017749D01*
X177618015Y-87017749D02*
X176853963Y-91350903D01*
X176853963Y-91350903D02*
X174687386Y-90968877D01*
X174687386Y-90968877D02*
X175451438Y-86635723D01*
X176294121Y-88993313D02*
G75*
G03X176294121Y-88993313I-141420J0D01*
G01*
G04 #@! TO.C,SW3*
X327509545Y-82419894D02*
G75*
G03X327509545Y-82419894I-141422J0D01*
G01*
D10*
X319576230Y-79894577D02*
X314193390Y-80838640D01*
X321516644Y-81253269D02*
G75*
G03X319576230Y-79894577I-1649553J-290861D01*
G01*
X324051127Y-76277569D02*
G75*
G03X322110714Y-74918876I-1649553J-290860D01*
G01*
X322110714Y-74918875D02*
X313419785Y-76451321D01*
X313419785Y-76451321D02*
X314193390Y-80838640D01*
X324051127Y-76277569D02*
X324825598Y-80669813D01*
X324825598Y-80669813D02*
X321516644Y-81253269D01*
D11*
X309948923Y-83257430D02*
X312115500Y-82875404D01*
X312115500Y-82875404D02*
X312879552Y-87208558D01*
X312879552Y-87208558D02*
X310712975Y-87590584D01*
X310712975Y-87590584D02*
X309948923Y-83257430D01*
X311555658Y-85232994D02*
G75*
G03X311555658Y-85232994I-141420J0D01*
G01*
G04 #@! TO.C,SW20*
X188940012Y-110566999D02*
G75*
G03X188940012Y-110566999I-141422J0D01*
G01*
D10*
X182340315Y-105528993D02*
X176959211Y-104575082D01*
X183699007Y-107469407D02*
G75*
G03X182340315Y-105528993I-1649553J290861D01*
G01*
X187782432Y-103660623D02*
G75*
G03X186423741Y-101720208I-1649553J290862D01*
G01*
X186423741Y-101720207D02*
X177732812Y-100187763D01*
X177732812Y-100187763D02*
X176959211Y-104575082D01*
X187782432Y-103660623D02*
X187007961Y-108052867D01*
X187007961Y-108052867D02*
X183699007Y-107469407D01*
D11*
X172143442Y-105396309D02*
X174310019Y-105778335D01*
X174310019Y-105778335D02*
X173545967Y-110111489D01*
X173545967Y-110111489D02*
X171379390Y-109729463D01*
X171379390Y-109729463D02*
X172143442Y-105396309D01*
X172986125Y-107753899D02*
G75*
G03X172986125Y-107753899I-141420J0D01*
G01*
G04 #@! TO.C,SW31*
X204392601Y-132635586D02*
G75*
G03X204392601Y-132635586I-141422J0D01*
G01*
D10*
X197792904Y-127597580D02*
X192411800Y-126643669D01*
X199151596Y-129537994D02*
G75*
G03X197792904Y-127597580I-1649553J290861D01*
G01*
X203235021Y-125729210D02*
G75*
G03X201876330Y-123788795I-1649553J290862D01*
G01*
X201876330Y-123788794D02*
X193185401Y-122256350D01*
X193185401Y-122256350D02*
X192411800Y-126643669D01*
X203235021Y-125729210D02*
X202460550Y-130121454D01*
X202460550Y-130121454D02*
X199151596Y-129537994D01*
D11*
X187596031Y-127464896D02*
X189762608Y-127846922D01*
X189762608Y-127846922D02*
X188998556Y-132180076D01*
X188998556Y-132180076D02*
X186831979Y-131798050D01*
X186831979Y-131798050D02*
X187596031Y-127464896D01*
X188438714Y-129822486D02*
G75*
G03X188438714Y-129822486I-141420J0D01*
G01*
G04 #@! TO.C,SW32*
X185632015Y-129327590D02*
G75*
G03X185632015Y-129327590I-141422J0D01*
G01*
D10*
X179032318Y-124289584D02*
X173651214Y-123335673D01*
X180391010Y-126229998D02*
G75*
G03X179032318Y-124289584I-1649553J290861D01*
G01*
X184474435Y-122421214D02*
G75*
G03X183115744Y-120480799I-1649553J290862D01*
G01*
X183115744Y-120480798D02*
X174424815Y-118948354D01*
X174424815Y-118948354D02*
X173651214Y-123335673D01*
X184474435Y-122421214D02*
X183699964Y-126813458D01*
X183699964Y-126813458D02*
X180391010Y-126229998D01*
D11*
X168835445Y-124156900D02*
X171002022Y-124538926D01*
X171002022Y-124538926D02*
X170237970Y-128872080D01*
X170237970Y-128872080D02*
X168071393Y-128490054D01*
X168071393Y-128490054D02*
X168835445Y-124156900D01*
X169678128Y-126514490D02*
G75*
G03X169678128Y-126514490I-141420J0D01*
G01*
G04 #@! TO.C,SW34*
X148110838Y-122711594D02*
G75*
G03X148110838Y-122711594I-141422J0D01*
G01*
D10*
X141511141Y-117673588D02*
X136130037Y-116719677D01*
X142869833Y-119614002D02*
G75*
G03X141511141Y-117673588I-1649553J290861D01*
G01*
X146953258Y-115805218D02*
G75*
G03X145594567Y-113864803I-1649553J290862D01*
G01*
X145594567Y-113864802D02*
X136903638Y-112332358D01*
X136903638Y-112332358D02*
X136130037Y-116719677D01*
X146953258Y-115805218D02*
X146178787Y-120197462D01*
X146178787Y-120197462D02*
X142869833Y-119614002D01*
D11*
X131314268Y-117540904D02*
X133480845Y-117922930D01*
X133480845Y-117922930D02*
X132716793Y-122256084D01*
X132716793Y-122256084D02*
X130550216Y-121874058D01*
X130550216Y-121874058D02*
X131314268Y-117540904D01*
X132156951Y-119898494D02*
G75*
G03X132156951Y-119898494I-141420J0D01*
G01*
G04 #@! TO.C,SW42*
X258585636Y-139747935D02*
G75*
G03X258585636Y-139747935I-141421J0D01*
G01*
D10*
X250433579Y-141456893D02*
X246243934Y-144965896D01*
X252793372Y-141663348D02*
G75*
G03X250433579Y-141456893I-1283124J-1076669D01*
G01*
X252500450Y-136087024D02*
G75*
G03X250140656Y-135880568I-1283125J-1076669D01*
G01*
X250140656Y-135880567D02*
X243380313Y-141553169D01*
X243380313Y-141553169D02*
X246243934Y-144965896D01*
X252500450Y-136087024D02*
X255367283Y-139503583D01*
X255367283Y-139503583D02*
X252793373Y-141663348D01*
D11*
X243777513Y-149182863D02*
X245462811Y-147768730D01*
X245462811Y-147768730D02*
X248291077Y-151139326D01*
X248291077Y-151139326D02*
X246605779Y-152553459D01*
X246605779Y-152553459D02*
X243777513Y-149182863D01*
X246175716Y-150161094D02*
G75*
G03X246175716Y-150161094I-141421J0D01*
G01*
G04 #@! TO.C,SW47*
X144251507Y-144598946D02*
G75*
G03X144251507Y-144598946I-141422J0D01*
G01*
D10*
X137651810Y-139560940D02*
X132270706Y-138607029D01*
X139010502Y-141501354D02*
G75*
G03X137651810Y-139560940I-1649553J290861D01*
G01*
X143093927Y-137692570D02*
G75*
G03X141735236Y-135752155I-1649553J290862D01*
G01*
X141735236Y-135752154D02*
X133044307Y-134219710D01*
X133044307Y-134219710D02*
X132270706Y-138607029D01*
X143093927Y-137692570D02*
X142319456Y-142084814D01*
X142319456Y-142084814D02*
X139010502Y-141501354D01*
D11*
X127454937Y-139428256D02*
X129621514Y-139810282D01*
X129621514Y-139810282D02*
X128857462Y-144143436D01*
X128857462Y-144143436D02*
X126690885Y-143761410D01*
X126690885Y-143761410D02*
X127454937Y-139428256D01*
X128297620Y-141785846D02*
G75*
G03X128297620Y-141785846I-141420J0D01*
G01*
G04 #@! TO.C,SW6*
X271227781Y-92343886D02*
G75*
G03X271227781Y-92343886I-141422J0D01*
G01*
D10*
X263294466Y-89818569D02*
X257911626Y-90762632D01*
X265234880Y-91177261D02*
G75*
G03X263294466Y-89818569I-1649553J-290861D01*
G01*
X267769363Y-86201561D02*
G75*
G03X265828950Y-84842868I-1649553J-290860D01*
G01*
X265828950Y-84842867D02*
X257138021Y-86375313D01*
X257138021Y-86375313D02*
X257911626Y-90762632D01*
X267769363Y-86201561D02*
X268543834Y-90593805D01*
X268543834Y-90593805D02*
X265234880Y-91177261D01*
D11*
X253667159Y-93181422D02*
X255833736Y-92799396D01*
X255833736Y-92799396D02*
X256597788Y-97132550D01*
X256597788Y-97132550D02*
X254431211Y-97514576D01*
X254431211Y-97514576D02*
X253667159Y-93181422D01*
X255273894Y-95156986D02*
G75*
G03X255273894Y-95156986I-141420J0D01*
G01*
G04 #@! TO.C,SW9*
X174038753Y-85371651D02*
G75*
G03X174038753Y-85371651I-141422J0D01*
G01*
D10*
X167439056Y-80333645D02*
X162057952Y-79379734D01*
X168797748Y-82274059D02*
G75*
G03X167439056Y-80333645I-1649553J290861D01*
G01*
X172881173Y-78465275D02*
G75*
G03X171522482Y-76524860I-1649553J290862D01*
G01*
X171522482Y-76524859D02*
X162831553Y-74992415D01*
X162831553Y-74992415D02*
X162057952Y-79379734D01*
X172881173Y-78465275D02*
X172106702Y-82857519D01*
X172106702Y-82857519D02*
X168797748Y-82274059D01*
D11*
X157242183Y-80200961D02*
X159408760Y-80582987D01*
X159408760Y-80582987D02*
X158644708Y-84916141D01*
X158644708Y-84916141D02*
X156478131Y-84534115D01*
X156478131Y-84534115D02*
X157242183Y-80200961D01*
X158084866Y-82558551D02*
G75*
G03X158084866Y-82558551I-141420J0D01*
G01*
G04 #@! TO.C,SW7*
X211008597Y-95114411D02*
G75*
G03X211008597Y-95114411I-141422J0D01*
G01*
D10*
X204408900Y-90076405D02*
X199027796Y-89122494D01*
X205767592Y-92016819D02*
G75*
G03X204408900Y-90076405I-1649553J290861D01*
G01*
X209851017Y-88208035D02*
G75*
G03X208492326Y-86267620I-1649553J290862D01*
G01*
X208492326Y-86267619D02*
X199801397Y-84735175D01*
X199801397Y-84735175D02*
X199027796Y-89122494D01*
X209851017Y-88208035D02*
X209076546Y-92600279D01*
X209076546Y-92600279D02*
X205767592Y-92016819D01*
D11*
X194212027Y-89943721D02*
X196378604Y-90325747D01*
X196378604Y-90325747D02*
X195614552Y-94658901D01*
X195614552Y-94658901D02*
X193447975Y-94276875D01*
X193447975Y-94276875D02*
X194212027Y-89943721D01*
X195054710Y-92301311D02*
G75*
G03X195054710Y-92301311I-141420J0D01*
G01*
G04 #@! TO.C,SW19*
X207700599Y-113874999D02*
G75*
G03X207700599Y-113874999I-141422J0D01*
G01*
D10*
X201100902Y-108836993D02*
X195719798Y-107883082D01*
X202459594Y-110777407D02*
G75*
G03X201100902Y-108836993I-1649553J290861D01*
G01*
X206543019Y-106968623D02*
G75*
G03X205184328Y-105028208I-1649553J290862D01*
G01*
X205184328Y-105028207D02*
X196493399Y-103495763D01*
X196493399Y-103495763D02*
X195719798Y-107883082D01*
X206543019Y-106968623D02*
X205768548Y-111360867D01*
X205768548Y-111360867D02*
X202459594Y-110777407D01*
D11*
X190904029Y-108704309D02*
X193070606Y-109086335D01*
X193070606Y-109086335D02*
X192306554Y-113419489D01*
X192306554Y-113419489D02*
X190139977Y-113037463D01*
X190139977Y-113037463D02*
X190904029Y-108704309D01*
X191746712Y-111061899D02*
G75*
G03X191746712Y-111061899I-141420J0D01*
G01*
G04 #@! TO.C,SW12*
X116092267Y-84781854D02*
G75*
G03X116092267Y-84781854I-141422J0D01*
G01*
D10*
X109492570Y-79743848D02*
X104111466Y-78789937D01*
X110851262Y-81684262D02*
G75*
G03X109492570Y-79743848I-1649553J290861D01*
G01*
X114934687Y-77875478D02*
G75*
G03X113575996Y-75935063I-1649553J290862D01*
G01*
X113575996Y-75935062D02*
X104885067Y-74402618D01*
X104885067Y-74402618D02*
X104111466Y-78789937D01*
X114934687Y-77875478D02*
X114160216Y-82267722D01*
X114160216Y-82267722D02*
X110851262Y-81684262D01*
D11*
X99295697Y-79611164D02*
X101462274Y-79993190D01*
X101462274Y-79993190D02*
X100698222Y-84326344D01*
X100698222Y-84326344D02*
X98531645Y-83944318D01*
X98531645Y-83944318D02*
X99295697Y-79611164D01*
X100138380Y-81968754D02*
G75*
G03X100138380Y-81968754I-141420J0D01*
G01*
G04 #@! TO.C,SW5*
X289988370Y-89035887D02*
G75*
G03X289988370Y-89035887I-141422J0D01*
G01*
D10*
X282055055Y-86510570D02*
X276672215Y-87454633D01*
X283995469Y-87869262D02*
G75*
G03X282055055Y-86510570I-1649553J-290861D01*
G01*
X286529952Y-82893562D02*
G75*
G03X284589539Y-81534869I-1649553J-290860D01*
G01*
X284589539Y-81534868D02*
X275898610Y-83067314D01*
X275898610Y-83067314D02*
X276672215Y-87454633D01*
X286529952Y-82893562D02*
X287304423Y-87285806D01*
X287304423Y-87285806D02*
X283995469Y-87869262D01*
D11*
X272427748Y-89873423D02*
X274594325Y-89491397D01*
X274594325Y-89491397D02*
X275358377Y-93824551D01*
X275358377Y-93824551D02*
X273191800Y-94206577D01*
X273191800Y-94206577D02*
X272427748Y-89873423D01*
X274034483Y-91848987D02*
G75*
G03X274034483Y-91848987I-141420J0D01*
G01*
G04 #@! TO.C,SW10*
X154726834Y-85190417D02*
G75*
G03X154726834Y-85190417I-141422J0D01*
G01*
D10*
X148127137Y-80152411D02*
X142746033Y-79198500D01*
X149485829Y-82092825D02*
G75*
G03X148127137Y-80152411I-1649553J290861D01*
G01*
X153569254Y-78284041D02*
G75*
G03X152210563Y-76343626I-1649553J290862D01*
G01*
X152210563Y-76343625D02*
X143519634Y-74811181D01*
X143519634Y-74811181D02*
X142746033Y-79198500D01*
X153569254Y-78284041D02*
X152794783Y-82676285D01*
X152794783Y-82676285D02*
X149485829Y-82092825D01*
D11*
X137930264Y-80019727D02*
X140096841Y-80401753D01*
X140096841Y-80401753D02*
X139332789Y-84734907D01*
X139332789Y-84734907D02*
X137166212Y-84352881D01*
X137166212Y-84352881D02*
X137930264Y-80019727D01*
X138772947Y-82377317D02*
G75*
G03X138772947Y-82377317I-141420J0D01*
G01*
G04 #@! TO.C,SW13*
X353036014Y-101070614D02*
G75*
G03X353036014Y-101070614I-141422J0D01*
G01*
D10*
X360686485Y-103595931D02*
X366069325Y-102651868D01*
X358746071Y-102237239D02*
G75*
G03X360686485Y-103595931I1649553J290861D01*
G01*
X356211588Y-107212939D02*
G75*
G03X358152001Y-108571632I1649553J290860D01*
G01*
X358152001Y-108571633D02*
X366842930Y-107039187D01*
X366842930Y-107039187D02*
X366069325Y-102651868D01*
X356211588Y-107212939D02*
X355437117Y-102820695D01*
X355437117Y-102820695D02*
X358746071Y-102237239D01*
D11*
X370313792Y-100233078D02*
X368147215Y-100615104D01*
X368147215Y-100615104D02*
X367383163Y-96281950D01*
X367383163Y-96281950D02*
X369549740Y-95899924D01*
X369549740Y-95899924D02*
X370313792Y-100233078D01*
X368989897Y-98257514D02*
G75*
G03X368989897Y-98257514I-141420J0D01*
G01*
G04 #@! TO.C,SW16*
X311505622Y-101361713D02*
G75*
G03X311505622Y-101361713I-141422J0D01*
G01*
D10*
X303572307Y-98836396D02*
X298189467Y-99780459D01*
X305512721Y-100195088D02*
G75*
G03X303572307Y-98836396I-1649553J-290861D01*
G01*
X308047204Y-95219388D02*
G75*
G03X306106791Y-93860695I-1649553J-290860D01*
G01*
X306106791Y-93860694D02*
X297415862Y-95393140D01*
X297415862Y-95393140D02*
X298189467Y-99780459D01*
X308047204Y-95219388D02*
X308821675Y-99611632D01*
X308821675Y-99611632D02*
X305512721Y-100195088D01*
D11*
X293945000Y-102199249D02*
X296111577Y-101817223D01*
X296111577Y-101817223D02*
X296875629Y-106150377D01*
X296875629Y-106150377D02*
X294709052Y-106532403D01*
X294709052Y-106532403D02*
X293945000Y-102199249D01*
X295551735Y-104174813D02*
G75*
G03X295551735Y-104174813I-141420J0D01*
G01*
G04 #@! TO.C,SW17*
X293296366Y-107796475D02*
G75*
G03X293296366Y-107796475I-141422J0D01*
G01*
D10*
X285363051Y-105271158D02*
X279980211Y-106215221D01*
X287303465Y-106629850D02*
G75*
G03X285363051Y-105271158I-1649553J-290861D01*
G01*
X289837948Y-101654150D02*
G75*
G03X287897535Y-100295457I-1649553J-290860D01*
G01*
X287897535Y-100295456D02*
X279206606Y-101827902D01*
X279206606Y-101827902D02*
X279980211Y-106215221D01*
X289837948Y-101654150D02*
X290612419Y-106046394D01*
X290612419Y-106046394D02*
X287303465Y-106629850D01*
D11*
X275735744Y-108634011D02*
X277902321Y-108251985D01*
X277902321Y-108251985D02*
X278666373Y-112585139D01*
X278666373Y-112585139D02*
X276499796Y-112967165D01*
X276499796Y-112967165D02*
X275735744Y-108634011D01*
X277342479Y-110609575D02*
G75*
G03X277342479Y-110609575I-141420J0D01*
G01*
G04 #@! TO.C,SW21*
X170730756Y-104132238D02*
G75*
G03X170730756Y-104132238I-141422J0D01*
G01*
D10*
X164131059Y-99094232D02*
X158749955Y-98140321D01*
X165489751Y-101034646D02*
G75*
G03X164131059Y-99094232I-1649553J290861D01*
G01*
X169573176Y-97225862D02*
G75*
G03X168214485Y-95285447I-1649553J290862D01*
G01*
X168214485Y-95285446D02*
X159523556Y-93753002D01*
X159523556Y-93753002D02*
X158749955Y-98140321D01*
X169573176Y-97225862D02*
X168798705Y-101618106D01*
X168798705Y-101618106D02*
X165489751Y-101034646D01*
D11*
X153934186Y-98961548D02*
X156100763Y-99343574D01*
X156100763Y-99343574D02*
X155336711Y-103676728D01*
X155336711Y-103676728D02*
X153170134Y-103294702D01*
X153170134Y-103294702D02*
X153934186Y-98961548D01*
X154776869Y-101319138D02*
G75*
G03X154776869Y-101319138I-141420J0D01*
G01*
G04 #@! TO.C,SW18*
X274535779Y-111104475D02*
G75*
G03X274535779Y-111104475I-141422J0D01*
G01*
D10*
X266602464Y-108579158D02*
X261219624Y-109523221D01*
X268542878Y-109937850D02*
G75*
G03X266602464Y-108579158I-1649553J-290861D01*
G01*
X271077361Y-104962150D02*
G75*
G03X269136948Y-103603457I-1649553J-290860D01*
G01*
X269136948Y-103603456D02*
X260446019Y-105135902D01*
X260446019Y-105135902D02*
X261219624Y-109523221D01*
X271077361Y-104962150D02*
X271851832Y-109354394D01*
X271851832Y-109354394D02*
X268542878Y-109937850D01*
D11*
X256975157Y-111942011D02*
X259141734Y-111559985D01*
X259141734Y-111559985D02*
X259905786Y-115893139D01*
X259905786Y-115893139D02*
X257739209Y-116275165D01*
X257739209Y-116275165D02*
X256975157Y-111942011D01*
X258581892Y-113917575D02*
G75*
G03X258581892Y-113917575I-141420J0D01*
G01*
G04 #@! TO.C,SW22*
X151418838Y-103951003D02*
G75*
G03X151418838Y-103951003I-141422J0D01*
G01*
D10*
X144819141Y-98912997D02*
X139438037Y-97959086D01*
X146177833Y-100853411D02*
G75*
G03X144819141Y-98912997I-1649553J290861D01*
G01*
X150261258Y-97044627D02*
G75*
G03X148902567Y-95104212I-1649553J290862D01*
G01*
X148902567Y-95104211D02*
X140211638Y-93571767D01*
X140211638Y-93571767D02*
X139438037Y-97959086D01*
X150261258Y-97044627D02*
X149486787Y-101436871D01*
X149486787Y-101436871D02*
X146177833Y-100853411D01*
D11*
X134622268Y-98780313D02*
X136788845Y-99162339D01*
X136788845Y-99162339D02*
X136024793Y-103495493D01*
X136024793Y-103495493D02*
X133858216Y-103113467D01*
X133858216Y-103113467D02*
X134622268Y-98780313D01*
X135464951Y-101137903D02*
G75*
G03X135464951Y-101137903I-141420J0D01*
G01*
G04 #@! TO.C,SW29*
X296604366Y-126557063D02*
G75*
G03X296604366Y-126557063I-141422J0D01*
G01*
D10*
X288671051Y-124031746D02*
X283288211Y-124975809D01*
X290611465Y-125390438D02*
G75*
G03X288671051Y-124031746I-1649553J-290861D01*
G01*
X293145948Y-120414738D02*
G75*
G03X291205535Y-119056045I-1649553J-290860D01*
G01*
X291205535Y-119056044D02*
X282514606Y-120588490D01*
X282514606Y-120588490D02*
X283288211Y-124975809D01*
X293145948Y-120414738D02*
X293920419Y-124806982D01*
X293920419Y-124806982D02*
X290611465Y-125390438D01*
D11*
X279043744Y-127394599D02*
X281210321Y-127012573D01*
X281210321Y-127012573D02*
X281974373Y-131345727D01*
X281974373Y-131345727D02*
X279807796Y-131727753D01*
X279807796Y-131727753D02*
X279043744Y-127394599D01*
X280650479Y-129370163D02*
G75*
G03X280650479Y-129370163I-141420J0D01*
G01*
G04 #@! TO.C,SW33*
X167422757Y-122892827D02*
G75*
G03X167422757Y-122892827I-141422J0D01*
G01*
D10*
X160823060Y-117854821D02*
X155441956Y-116900910D01*
X162181752Y-119795235D02*
G75*
G03X160823060Y-117854821I-1649553J290861D01*
G01*
X166265177Y-115986451D02*
G75*
G03X164906486Y-114046036I-1649553J290862D01*
G01*
X164906486Y-114046035D02*
X156215557Y-112513591D01*
X156215557Y-112513591D02*
X155441956Y-116900910D01*
X166265177Y-115986451D02*
X165490706Y-120378695D01*
X165490706Y-120378695D02*
X162181752Y-119795235D01*
D11*
X150626187Y-117722137D02*
X152792764Y-118104163D01*
X152792764Y-118104163D02*
X152028712Y-122437317D01*
X152028712Y-122437317D02*
X149862135Y-122055291D01*
X149862135Y-122055291D02*
X150626187Y-117722137D01*
X151468870Y-120079727D02*
G75*
G03X151468870Y-120079727I-141420J0D01*
G01*
G04 #@! TO.C,SW37*
X356745458Y-138520423D02*
G75*
G03X356745458Y-138520423I-141422J0D01*
G01*
D10*
X348812143Y-135995106D02*
X343429303Y-136939169D01*
X350752557Y-137353798D02*
G75*
G03X348812143Y-135995106I-1649553J-290861D01*
G01*
X353287040Y-132378098D02*
G75*
G03X351346627Y-131019405I-1649553J-290860D01*
G01*
X351346627Y-131019404D02*
X342655698Y-132551850D01*
X342655698Y-132551850D02*
X343429303Y-136939169D01*
X353287040Y-132378098D02*
X354061511Y-136770342D01*
X354061511Y-136770342D02*
X350752557Y-137353798D01*
D11*
X339184836Y-139357959D02*
X341351413Y-138975933D01*
X341351413Y-138975933D02*
X342115465Y-143309087D01*
X342115465Y-143309087D02*
X339948888Y-143691113D01*
X339948888Y-143691113D02*
X339184836Y-139357959D01*
X340791571Y-141333523D02*
G75*
G03X340791571Y-141333523I-141420J0D01*
G01*
G04 #@! TO.C,SW39*
X319224285Y-145136417D02*
G75*
G03X319224285Y-145136417I-141422J0D01*
G01*
D10*
X311290970Y-142611100D02*
X305908130Y-143555163D01*
X313231384Y-143969792D02*
G75*
G03X311290970Y-142611100I-1649553J-290861D01*
G01*
X315765867Y-138994092D02*
G75*
G03X313825454Y-137635399I-1649553J-290860D01*
G01*
X313825454Y-137635398D02*
X305134525Y-139167844D01*
X305134525Y-139167844D02*
X305908130Y-143555163D01*
X315765867Y-138994092D02*
X316540338Y-143386336D01*
X316540338Y-143386336D02*
X313231384Y-143969792D01*
D11*
X301663663Y-145973953D02*
X303830240Y-145591927D01*
X303830240Y-145591927D02*
X304594292Y-149925081D01*
X304594292Y-149925081D02*
X302427715Y-150307107D01*
X302427715Y-150307107D02*
X301663663Y-145973953D01*
X303270398Y-147949517D02*
G75*
G03X303270398Y-147949517I-141420J0D01*
G01*
G04 #@! TO.C,SW46*
X163012096Y-147906943D02*
G75*
G03X163012096Y-147906943I-141422J0D01*
G01*
D10*
X156412399Y-142868937D02*
X151031295Y-141915026D01*
X157771091Y-144809351D02*
G75*
G03X156412399Y-142868937I-1649553J290861D01*
G01*
X161854516Y-141000567D02*
G75*
G03X160495825Y-139060152I-1649553J290862D01*
G01*
X160495825Y-139060151D02*
X151804896Y-137527707D01*
X151804896Y-137527707D02*
X151031295Y-141915026D01*
X161854516Y-141000567D02*
X161080045Y-145392811D01*
X161080045Y-145392811D02*
X157771091Y-144809351D01*
D11*
X146215526Y-142736253D02*
X148382103Y-143118279D01*
X148382103Y-143118279D02*
X147618051Y-147451433D01*
X147618051Y-147451433D02*
X145451474Y-147069407D01*
X145451474Y-147069407D02*
X146215526Y-142736253D01*
X147058209Y-145093843D02*
G75*
G03X147058209Y-145093843I-141420J0D01*
G01*
G04 #@! TO.C,SW41*
X277181872Y-148923141D02*
G75*
G03X277181872Y-148923141I-141421J0D01*
G01*
D10*
X269029815Y-150632099D02*
X264840170Y-154141102D01*
X271389608Y-150838554D02*
G75*
G03X269029815Y-150632099I-1283124J-1076669D01*
G01*
X271096686Y-145262230D02*
G75*
G03X268736892Y-145055774I-1283125J-1076669D01*
G01*
X268736892Y-145055773D02*
X261976549Y-150728375D01*
X261976549Y-150728375D02*
X264840170Y-154141102D01*
X271096686Y-145262230D02*
X273963519Y-148678789D01*
X273963519Y-148678789D02*
X271389609Y-150838554D01*
D11*
X262373749Y-158358069D02*
X264059047Y-156943936D01*
X264059047Y-156943936D02*
X266887313Y-160314532D01*
X266887313Y-160314532D02*
X265202015Y-161728665D01*
X265202015Y-161728665D02*
X262373749Y-158358069D01*
X264771952Y-159336300D02*
G75*
G03X264771952Y-159336300I-141421J0D01*
G01*
G04 #@! TO.C,SW26*
X353437461Y-119759835D02*
G75*
G03X353437461Y-119759835I-141422J0D01*
G01*
D10*
X345504146Y-117234518D02*
X340121306Y-118178581D01*
X347444560Y-118593210D02*
G75*
G03X345504146Y-117234518I-1649553J-290861D01*
G01*
X349979043Y-113617510D02*
G75*
G03X348038630Y-112258817I-1649553J-290860D01*
G01*
X348038630Y-112258816D02*
X339347701Y-113791262D01*
X339347701Y-113791262D02*
X340121306Y-118178581D01*
X349979043Y-113617510D02*
X350753514Y-118009754D01*
X350753514Y-118009754D02*
X347444560Y-118593210D01*
D11*
X335876839Y-120597371D02*
X338043416Y-120215345D01*
X338043416Y-120215345D02*
X338807468Y-124548499D01*
X338807468Y-124548499D02*
X336640891Y-124930525D01*
X336640891Y-124930525D02*
X335876839Y-120597371D01*
X337483574Y-122572935D02*
G75*
G03X337483574Y-122572935I-141420J0D01*
G01*
G04 #@! TO.C,SW27*
X334125541Y-119941067D02*
G75*
G03X334125541Y-119941067I-141422J0D01*
G01*
D10*
X326192226Y-117415750D02*
X320809386Y-118359813D01*
X328132640Y-118774442D02*
G75*
G03X326192226Y-117415750I-1649553J-290861D01*
G01*
X330667123Y-113798742D02*
G75*
G03X328726710Y-112440049I-1649553J-290860D01*
G01*
X328726710Y-112440048D02*
X320035781Y-113972494D01*
X320035781Y-113972494D02*
X320809386Y-118359813D01*
X330667123Y-113798742D02*
X331441594Y-118190986D01*
X331441594Y-118190986D02*
X328132640Y-118774442D01*
D11*
X316564919Y-120778603D02*
X318731496Y-120396577D01*
X318731496Y-120396577D02*
X319495548Y-124729731D01*
X319495548Y-124729731D02*
X317328971Y-125111757D01*
X317328971Y-125111757D02*
X316564919Y-120778603D01*
X318171654Y-122754167D02*
G75*
G03X318171654Y-122754167I-141420J0D01*
G01*
G04 #@! TO.C,SW28*
X314813621Y-120122300D02*
G75*
G03X314813621Y-120122300I-141422J0D01*
G01*
D10*
X306880306Y-117596983D02*
X301497466Y-118541046D01*
X308820720Y-118955675D02*
G75*
G03X306880306Y-117596983I-1649553J-290861D01*
G01*
X311355203Y-113979975D02*
G75*
G03X309414790Y-112621282I-1649553J-290860D01*
G01*
X309414790Y-112621281D02*
X300723861Y-114153727D01*
X300723861Y-114153727D02*
X301497466Y-118541046D01*
X311355203Y-113979975D02*
X312129674Y-118372219D01*
X312129674Y-118372219D02*
X308820720Y-118955675D01*
D11*
X297252999Y-120959836D02*
X299419576Y-120577810D01*
X299419576Y-120577810D02*
X300183628Y-124910964D01*
X300183628Y-124910964D02*
X298017051Y-125292990D01*
X298017051Y-125292990D02*
X297252999Y-120959836D01*
X298859734Y-122935400D02*
G75*
G03X298859734Y-122935400I-141420J0D01*
G01*
G04 #@! TO.C,SW30*
X277843776Y-129865060D02*
G75*
G03X277843776Y-129865060I-141422J0D01*
G01*
D10*
X269910461Y-127339743D02*
X264527621Y-128283806D01*
X271850875Y-128698435D02*
G75*
G03X269910461Y-127339743I-1649553J-290861D01*
G01*
X274385358Y-123722735D02*
G75*
G03X272444945Y-122364042I-1649553J-290860D01*
G01*
X272444945Y-122364041D02*
X263754016Y-123896487D01*
X263754016Y-123896487D02*
X264527621Y-128283806D01*
X274385358Y-123722735D02*
X275159829Y-128114979D01*
X275159829Y-128114979D02*
X271850875Y-128698435D01*
D11*
X260283154Y-130702596D02*
X262449731Y-130320570D01*
X262449731Y-130320570D02*
X263213783Y-134653724D01*
X263213783Y-134653724D02*
X261047206Y-135035750D01*
X261047206Y-135035750D02*
X260283154Y-130702596D01*
X261889889Y-132678160D02*
G75*
G03X261889889Y-132678160I-141420J0D01*
G01*
G04 #@! TO.C,SW38*
X337984872Y-141828420D02*
G75*
G03X337984872Y-141828420I-141422J0D01*
G01*
D10*
X330051557Y-139303103D02*
X324668717Y-140247166D01*
X331991971Y-140661795D02*
G75*
G03X330051557Y-139303103I-1649553J-290861D01*
G01*
X334526454Y-135686095D02*
G75*
G03X332586041Y-134327402I-1649553J-290860D01*
G01*
X332586041Y-134327401D02*
X323895112Y-135859847D01*
X323895112Y-135859847D02*
X324668717Y-140247166D01*
X334526454Y-135686095D02*
X335300925Y-140078339D01*
X335300925Y-140078339D02*
X331991971Y-140661795D01*
D11*
X320424250Y-142665956D02*
X322590827Y-142283930D01*
X322590827Y-142283930D02*
X323354879Y-146617084D01*
X323354879Y-146617084D02*
X321188302Y-146999110D01*
X321188302Y-146999110D02*
X320424250Y-142665956D01*
X322030985Y-144641520D02*
G75*
G03X322030985Y-144641520I-141420J0D01*
G01*
G04 #@! TO.C,SW45*
X181772681Y-151214942D02*
G75*
G03X181772681Y-151214942I-141422J0D01*
G01*
D10*
X175172984Y-146176936D02*
X169791880Y-145223025D01*
X176531676Y-148117350D02*
G75*
G03X175172984Y-146176936I-1649553J290861D01*
G01*
X180615101Y-144308566D02*
G75*
G03X179256410Y-142368151I-1649553J290862D01*
G01*
X179256410Y-142368150D02*
X170565481Y-140835706D01*
X170565481Y-140835706D02*
X169791880Y-145223025D01*
X180615101Y-144308566D02*
X179840630Y-148700810D01*
X179840630Y-148700810D02*
X176531676Y-148117350D01*
D11*
X164976111Y-146044252D02*
X167142688Y-146426278D01*
X167142688Y-146426278D02*
X166378636Y-150759432D01*
X166378636Y-150759432D02*
X164212059Y-150377406D01*
X164212059Y-150377406D02*
X164976111Y-146044252D01*
X165818794Y-148401842D02*
G75*
G03X165818794Y-148401842I-141420J0D01*
G01*
G04 #@! TO.C,SW43*
X220054517Y-150160435D02*
G75*
G03X220054517Y-150160435I-141421J0D01*
G01*
D10*
X216839069Y-142568256D02*
X212655852Y-139051593D01*
X217045525Y-144928050D02*
G75*
G03X216839069Y-142568256I-1283125J1076669D01*
G01*
X222486266Y-143671259D02*
G75*
G03X222279812Y-141311465I-1283124J1076670D01*
G01*
X222279812Y-141311464D02*
X215519469Y-135638864D01*
X215519469Y-135638864D02*
X212655852Y-139051593D01*
X222486266Y-143671259D02*
X219619432Y-147087818D01*
X219619432Y-147087818D02*
X217045524Y-144928050D01*
D11*
X208074660Y-137354912D02*
X209759958Y-138769045D01*
X209759958Y-138769045D02*
X206931692Y-142139640D01*
X206931692Y-142139640D02*
X205246394Y-140725508D01*
X205246394Y-140725508D02*
X208074660Y-137354912D01*
X207644597Y-139747276D02*
G75*
G03X207644597Y-139747276I-141421J0D01*
G01*
G04 #@! TO.C,SW35*
X128798919Y-122530361D02*
G75*
G03X128798919Y-122530361I-141422J0D01*
G01*
D10*
X122199222Y-117492355D02*
X116818118Y-116538444D01*
X123557914Y-119432769D02*
G75*
G03X122199222Y-117492355I-1649553J290861D01*
G01*
X127641339Y-115623985D02*
G75*
G03X126282648Y-113683570I-1649553J290862D01*
G01*
X126282648Y-113683569D02*
X117591719Y-112151125D01*
X117591719Y-112151125D02*
X116818118Y-116538444D01*
X127641339Y-115623985D02*
X126866868Y-120016229D01*
X126866868Y-120016229D02*
X123557914Y-119432769D01*
D11*
X112002349Y-117359671D02*
X114168926Y-117741697D01*
X114168926Y-117741697D02*
X113404874Y-122074851D01*
X113404874Y-122074851D02*
X111238297Y-121692825D01*
X111238297Y-121692825D02*
X112002349Y-117359671D01*
X112845032Y-119717261D02*
G75*
G03X112845032Y-119717261I-141420J0D01*
G01*
G04 #@! TO.C,SW48*
X125490919Y-141290947D02*
G75*
G03X125490919Y-141290947I-141422J0D01*
G01*
D10*
X118891222Y-136252941D02*
X113510118Y-135299030D01*
X120249914Y-138193355D02*
G75*
G03X118891222Y-136252941I-1649553J290861D01*
G01*
X124333339Y-134384571D02*
G75*
G03X122974648Y-132444156I-1649553J290862D01*
G01*
X122974648Y-132444155D02*
X114283719Y-130911711D01*
X114283719Y-130911711D02*
X113510118Y-135299030D01*
X124333339Y-134384571D02*
X123558868Y-138776815D01*
X123558868Y-138776815D02*
X120249914Y-138193355D01*
D11*
X108694349Y-136120257D02*
X110860926Y-136502283D01*
X110860926Y-136502283D02*
X110096874Y-140835437D01*
X110096874Y-140835437D02*
X107930297Y-140453411D01*
X107930297Y-140453411D02*
X108694349Y-136120257D01*
X109537032Y-138477847D02*
G75*
G03X109537032Y-138477847I-141420J0D01*
G01*
G04 #@! TO.C,SW11*
X135414913Y-85009186D02*
G75*
G03X135414913Y-85009186I-141422J0D01*
G01*
D10*
X128815216Y-79971180D02*
X123434112Y-79017269D01*
X130173908Y-81911594D02*
G75*
G03X128815216Y-79971180I-1649553J290861D01*
G01*
X134257333Y-78102810D02*
G75*
G03X132898642Y-76162395I-1649553J290862D01*
G01*
X132898642Y-76162394D02*
X124207713Y-74629950D01*
X124207713Y-74629950D02*
X123434112Y-79017269D01*
X134257333Y-78102810D02*
X133482862Y-82495054D01*
X133482862Y-82495054D02*
X130173908Y-81911594D01*
D11*
X118618343Y-79838496D02*
X120784920Y-80220522D01*
X120784920Y-80220522D02*
X120020868Y-84553676D01*
X120020868Y-84553676D02*
X117854291Y-84171650D01*
X117854291Y-84171650D02*
X118618343Y-79838496D01*
X119461026Y-82196086D02*
G75*
G03X119461026Y-82196086I-141420J0D01*
G01*
G04 #@! TO.C,SW4*
X308197623Y-82601125D02*
G75*
G03X308197623Y-82601125I-141422J0D01*
G01*
D10*
X300264308Y-80075808D02*
X294881468Y-81019871D01*
X302204722Y-81434500D02*
G75*
G03X300264308Y-80075808I-1649553J-290861D01*
G01*
X304739205Y-76458800D02*
G75*
G03X302798792Y-75100107I-1649553J-290860D01*
G01*
X302798792Y-75100106D02*
X294107863Y-76632552D01*
X294107863Y-76632552D02*
X294881468Y-81019871D01*
X304739205Y-76458800D02*
X305513676Y-80851044D01*
X305513676Y-80851044D02*
X302204722Y-81434500D01*
D11*
X290637001Y-83438661D02*
X292803578Y-83056635D01*
X292803578Y-83056635D02*
X293567630Y-87389789D01*
X293567630Y-87389789D02*
X291401053Y-87771815D01*
X291401053Y-87771815D02*
X290637001Y-83438661D01*
X292243736Y-85414225D02*
G75*
G03X292243736Y-85414225I-141420J0D01*
G01*
G04 #@! TO.C,SW15*
X330817543Y-101180478D02*
G75*
G03X330817543Y-101180478I-141422J0D01*
G01*
D10*
X322884228Y-98655161D02*
X317501388Y-99599224D01*
X324824642Y-100013853D02*
G75*
G03X322884228Y-98655161I-1649553J-290861D01*
G01*
X327359125Y-95038153D02*
G75*
G03X325418712Y-93679460I-1649553J-290860D01*
G01*
X325418712Y-93679459D02*
X316727783Y-95211905D01*
X316727783Y-95211905D02*
X317501388Y-99599224D01*
X327359125Y-95038153D02*
X328133596Y-99430397D01*
X328133596Y-99430397D02*
X324824642Y-100013853D01*
D11*
X313256921Y-102018014D02*
X315423498Y-101635988D01*
X315423498Y-101635988D02*
X316187550Y-105969142D01*
X316187550Y-105969142D02*
X314020973Y-106351168D01*
X314020973Y-106351168D02*
X313256921Y-102018014D01*
X314863656Y-103993578D02*
G75*
G03X314863656Y-103993578I-141420J0D01*
G01*
G04 #@! TO.C,SW40*
X300463697Y-148444415D02*
G75*
G03X300463697Y-148444415I-141422J0D01*
G01*
D10*
X292530382Y-145919098D02*
X287147542Y-146863161D01*
X294470796Y-147277790D02*
G75*
G03X292530382Y-145919098I-1649553J-290861D01*
G01*
X297005279Y-142302090D02*
G75*
G03X295064866Y-140943397I-1649553J-290860D01*
G01*
X295064866Y-140943396D02*
X286373937Y-142475842D01*
X286373937Y-142475842D02*
X287147542Y-146863161D01*
X297005279Y-142302090D02*
X297779750Y-146694334D01*
X297779750Y-146694334D02*
X294470796Y-147277790D01*
D11*
X282903075Y-149281951D02*
X285069652Y-148899925D01*
X285069652Y-148899925D02*
X285833704Y-153233079D01*
X285833704Y-153233079D02*
X283667127Y-153615105D01*
X283667127Y-153615105D02*
X282903075Y-149281951D01*
X284509810Y-151257515D02*
G75*
G03X284509810Y-151257515I-141420J0D01*
G01*
G04 #@! TO.C,SW44*
X201510617Y-159334282D02*
G75*
G03X201510617Y-159334282I-141421J0D01*
G01*
D10*
X198295169Y-151742103D02*
X194111952Y-148225440D01*
X198501625Y-154101897D02*
G75*
G03X198295169Y-151742103I-1283125J1076669D01*
G01*
X203942366Y-152845106D02*
G75*
G03X203735912Y-150485312I-1283124J1076670D01*
G01*
X203735912Y-150485311D02*
X196975569Y-144812711D01*
X196975569Y-144812711D02*
X194111952Y-148225440D01*
X203942366Y-152845106D02*
X201075532Y-156261665D01*
X201075532Y-156261665D02*
X198501624Y-154101897D01*
D11*
X189530760Y-146528759D02*
X191216058Y-147942892D01*
X191216058Y-147942892D02*
X188387792Y-151313487D01*
X188387792Y-151313487D02*
X186702494Y-149899355D01*
X186702494Y-149899355D02*
X189530760Y-146528759D01*
X189100697Y-148921123D02*
G75*
G03X189100697Y-148921123I-141421J0D01*
G01*
G04 #@! TO.C,SW1*
X349828014Y-82260027D02*
G75*
G03X349828014Y-82260027I-141422J0D01*
G01*
D10*
X357478485Y-84785344D02*
X362861325Y-83841280D01*
X355538071Y-83426652D02*
G75*
G03X357478485Y-84785344I1649553J290861D01*
G01*
X353003588Y-88402352D02*
G75*
G03X354944001Y-89761045I1649553J290860D01*
G01*
X354944001Y-89761046D02*
X363634930Y-88228600D01*
X363634930Y-88228600D02*
X362861325Y-83841280D01*
X353003588Y-88402353D02*
X352229117Y-84010108D01*
X352229117Y-84010108D02*
X355538071Y-83426652D01*
D11*
X367105792Y-81422491D02*
X364939215Y-81804517D01*
X364939215Y-81804517D02*
X364175163Y-77471363D01*
X364175163Y-77471363D02*
X366341740Y-77089337D01*
X366341740Y-77089337D02*
X367105792Y-81422491D01*
X365781897Y-79446927D02*
G75*
G03X365781897Y-79446927I-141420J0D01*
G01*
G04 #@! TO.C,SW_RESET2*
X241341066Y-95095051D02*
G75*
G03X241341066Y-95095051I-141421J0D01*
G01*
D10*
X233964645Y-91255051D02*
X228499647Y-91250052D01*
X235639645Y-92930051D02*
G75*
G03X233964645Y-91255051I-1675000J0D01*
G01*
X238999645Y-88470052D02*
G75*
G03X237324646Y-86795051I-1675000J1D01*
G01*
X237324646Y-86795050D02*
X228499645Y-86795051D01*
X228499645Y-86795051D02*
X228499647Y-91250052D01*
X238999645Y-88470051D02*
X238999645Y-92930053D01*
X238999645Y-92930053D02*
X235639645Y-92930051D01*
D11*
X223899645Y-92895051D02*
X226099645Y-92895051D01*
X226099645Y-92895051D02*
X226099645Y-97295051D01*
X226099645Y-97295051D02*
X223899645Y-97295051D01*
X223899645Y-97295051D02*
X223899645Y-92895051D01*
X225141066Y-95095051D02*
G75*
G03X225141066Y-95095051I-141421J0D01*
G01*
G04 #@! TO.C,SW25*
X356795498Y-122391702D02*
G75*
G03X356795498Y-122391702I-141420J0D01*
G01*
X355952815Y-124749292D02*
X355188763Y-120416138D01*
X358119392Y-124367266D02*
X355952815Y-124749292D01*
X357355340Y-120034112D02*
X358119392Y-124367266D01*
X355188763Y-120416138D02*
X357355340Y-120034112D01*
D10*
X370065438Y-117828521D02*
X366756484Y-118411977D01*
X369290967Y-113436276D02*
X370065438Y-117828521D01*
X358659625Y-113610029D02*
X359433230Y-117997349D01*
X367350554Y-112077583D02*
X358659625Y-113610029D01*
X369290967Y-113436277D02*
G75*
G03X367350554Y-112077584I-1649553J-290860D01*
G01*
X366756484Y-118411977D02*
G75*
G03X364816070Y-117053285I-1649553J-290861D01*
G01*
X364816070Y-117053285D02*
X359433230Y-117997349D01*
D11*
X372749385Y-119578602D02*
G75*
G03X372749385Y-119578602I-141422J0D01*
G01*
G04 #@! TO.C,SW14*
X349677975Y-98438746D02*
G75*
G03X349677975Y-98438746I-141420J0D01*
G01*
X350237818Y-96081156D02*
X351001870Y-100414310D01*
X348071241Y-96463182D02*
X350237818Y-96081156D01*
X348835293Y-100796336D02*
X348071241Y-96463182D01*
X351001870Y-100414310D02*
X348835293Y-100796336D01*
D10*
X336125195Y-103001927D02*
X339434149Y-102418471D01*
X336899666Y-107394172D02*
X336125195Y-103001927D01*
X347531008Y-107220419D02*
X346757403Y-102833099D01*
X338840079Y-108752865D02*
X347531008Y-107220419D01*
X336899666Y-107394171D02*
G75*
G03X338840079Y-108752864I1649553J290860D01*
G01*
X339434149Y-102418471D02*
G75*
G03X341374563Y-103777163I1649553J290861D01*
G01*
X341374563Y-103777163D02*
X346757403Y-102833099D01*
D11*
X333724092Y-101251846D02*
G75*
G03X333724092Y-101251846I-141422J0D01*
G01*
G04 #@! TO.C,SW23*
X116153029Y-100956673D02*
G75*
G03X116153029Y-100956673I-141420J0D01*
G01*
X114546294Y-102932237D02*
X115310346Y-98599083D01*
X116712871Y-103314263D02*
X114546294Y-102932237D01*
X117476923Y-98981109D02*
X116712871Y-103314263D01*
X115310346Y-98599083D02*
X117476923Y-98981109D01*
D10*
X130174865Y-101255641D02*
X126865911Y-100672181D01*
X130949336Y-96863396D02*
X130174865Y-101255641D01*
X120899716Y-93390537D02*
X120126115Y-97777857D01*
X129590645Y-94922981D02*
X120899716Y-93390537D01*
X130949336Y-96863397D02*
G75*
G03X129590645Y-94922982I-1649553J290862D01*
G01*
X126865911Y-100672181D02*
G75*
G03X125507219Y-98731767I-1649553J290861D01*
G01*
X125507219Y-98731767D02*
X120126115Y-97777857D01*
D11*
X132106916Y-103769773D02*
G75*
G03X132106916Y-103769773I-141422J0D01*
G01*
G04 #@! TO.C,SW24*
X113246476Y-101028039D02*
G75*
G03X113246476Y-101028039I-141420J0D01*
G01*
X114570371Y-99052475D02*
X113806319Y-103385629D01*
X112403794Y-98670449D02*
X114570371Y-99052475D01*
X111639742Y-103003603D02*
X112403794Y-98670449D01*
X113806319Y-103385629D02*
X111639742Y-103003603D01*
D10*
X98941800Y-100729071D02*
X102250754Y-101312531D01*
X98167329Y-105121316D02*
X98941800Y-100729071D01*
X108216949Y-108594175D02*
X108990550Y-104206855D01*
X99526020Y-107061731D02*
X108216949Y-108594175D01*
X98167329Y-105121315D02*
G75*
G03X99526020Y-107061730I1649553J-290862D01*
G01*
X102250754Y-101312531D02*
G75*
G03X103609446Y-103252945I1649553J-290861D01*
G01*
X103609446Y-103252945D02*
X108990550Y-104206855D01*
D11*
X97292593Y-98214939D02*
G75*
G03X97292593Y-98214939I-141422J0D01*
G01*
G04 #@! TO.C,SW36*
X93533111Y-119536028D02*
G75*
G03X93533111Y-119536028I-141420J0D01*
G01*
X91926376Y-121511592D02*
X92690428Y-117178438D01*
X94092953Y-121893618D02*
X91926376Y-121511592D01*
X94857005Y-117560464D02*
X94092953Y-121893618D01*
X92690428Y-117178438D02*
X94857005Y-117560464D01*
D10*
X107554947Y-119834996D02*
X104245993Y-119251536D01*
X108329418Y-115442751D02*
X107554947Y-119834996D01*
X98279798Y-111969892D02*
X97506197Y-116357212D01*
X106970727Y-113502336D02*
X98279798Y-111969892D01*
X108329418Y-115442752D02*
G75*
G03X106970727Y-113502337I-1649553J290862D01*
G01*
X104245993Y-119251536D02*
G75*
G03X102887301Y-117311122I-1649553J290861D01*
G01*
X102887301Y-117311122D02*
X97506197Y-116357212D01*
D11*
X109486998Y-122349128D02*
G75*
G03X109486998Y-122349128I-141422J0D01*
G01*
G04 #@! TD*
M02*
