G04 #@! TF.GenerationSoftware,KiCad,Pcbnew,(6.0.0-rc1-dev-1469-g932b9a334)*
G04 #@! TF.CreationDate,2019-10-20T15:35:16-07:00
G04 #@! TF.ProjectId,Laptreus-v2,4c617074-7265-4757-932d-76322e6b6963,rev?*
G04 #@! TF.SameCoordinates,Original*
G04 #@! TF.FileFunction,Paste,Top*
G04 #@! TF.FilePolarity,Positive*
%FSLAX46Y46*%
G04 Gerber Fmt 4.6, Leading zero omitted, Abs format (unit mm)*
G04 Created by KiCad (PCBNEW (6.0.0-rc1-dev-1469-g932b9a334)) date Sunday, October 20, 2019 at 03:35:16 PM*
%MOMM*%
%LPD*%
G04 APERTURE LIST*
%ADD10R,0.397600X1.347600*%
%ADD11R,1.347600X0.397600*%
%ADD12C,0.100000*%
%ADD13C,0.972600*%
%ADD14C,0.722600*%
%ADD15C,0.297600*%
%ADD16R,1.047600X1.247600*%
%ADD17R,0.847600X1.247600*%
%ADD18C,2.347600*%
%ADD19R,2.397600X2.347600*%
%ADD20C,1.047600*%
%ADD21C,0.447600*%
%ADD22R,1.147600X1.047600*%
%ADD23R,0.447600X1.297600*%
%ADD24R,0.147600X1.297600*%
%ADD25R,1.047600X1.147600*%
%ADD26R,1.547600X0.547600*%
G04 APERTURE END LIST*
D10*
G04 #@! TO.C,IC1*
X236999646Y-122598532D03*
X236199646Y-122598532D03*
X235399646Y-122598532D03*
X234599646Y-122598532D03*
X233799646Y-122598532D03*
X232999646Y-122598532D03*
X232199646Y-122598532D03*
X231399646Y-122598532D03*
X230599646Y-122598532D03*
X229799646Y-122598532D03*
X228999646Y-122598532D03*
D11*
X227299646Y-124298532D03*
X227299646Y-125098532D03*
X227299646Y-125898532D03*
X227299646Y-126698532D03*
X227299646Y-127498532D03*
X227299646Y-128298532D03*
X227299646Y-129098532D03*
X227299646Y-129898532D03*
X227299646Y-130698532D03*
X227299646Y-131498532D03*
X227299646Y-132298532D03*
D10*
X228999646Y-133998532D03*
X229799646Y-133998532D03*
X230599646Y-133998532D03*
X231399646Y-133998532D03*
X232199646Y-133998532D03*
X232999646Y-133998532D03*
X233799646Y-133998532D03*
X234599646Y-133998532D03*
X235399646Y-133998532D03*
X236199646Y-133998532D03*
X236999646Y-133998532D03*
D11*
X238699646Y-132298532D03*
X238699646Y-131498532D03*
X238699646Y-130698532D03*
X238699646Y-129898532D03*
X238699646Y-129098532D03*
X238699646Y-128298532D03*
X238699646Y-127498532D03*
X238699646Y-126698532D03*
X238699646Y-125898532D03*
X238699646Y-125098532D03*
X238699646Y-124298532D03*
G04 #@! TD*
D12*
G04 #@! TO.C,F1*
G36*
X350553022Y-77847344D02*
G01*
X350574002Y-77850456D01*
X350594577Y-77855610D01*
X350614548Y-77862755D01*
X350633721Y-77871824D01*
X350651914Y-77882728D01*
X350668950Y-77895363D01*
X350684666Y-77909607D01*
X350698910Y-77925323D01*
X350711545Y-77942359D01*
X350722449Y-77960552D01*
X350731518Y-77979725D01*
X350738663Y-77999696D01*
X350743817Y-78020271D01*
X350746929Y-78041251D01*
X350747970Y-78062436D01*
X350747970Y-78602770D01*
X350746929Y-78623955D01*
X350743817Y-78644935D01*
X350738663Y-78665510D01*
X350731518Y-78685481D01*
X350722449Y-78704654D01*
X350711545Y-78722847D01*
X350698910Y-78739883D01*
X350684666Y-78755599D01*
X350668950Y-78769843D01*
X350651914Y-78782478D01*
X350633721Y-78793382D01*
X350614548Y-78802451D01*
X350594577Y-78809596D01*
X350574002Y-78814750D01*
X350553022Y-78817862D01*
X350531837Y-78818903D01*
X347716503Y-78818903D01*
X347695318Y-78817862D01*
X347674338Y-78814750D01*
X347653763Y-78809596D01*
X347633792Y-78802451D01*
X347614619Y-78793382D01*
X347596426Y-78782478D01*
X347579390Y-78769843D01*
X347563674Y-78755599D01*
X347549430Y-78739883D01*
X347536795Y-78722847D01*
X347525891Y-78704654D01*
X347516822Y-78685481D01*
X347509677Y-78665510D01*
X347504523Y-78644935D01*
X347501411Y-78623955D01*
X347500370Y-78602770D01*
X347500370Y-78062436D01*
X347501411Y-78041251D01*
X347504523Y-78020271D01*
X347509677Y-77999696D01*
X347516822Y-77979725D01*
X347525891Y-77960552D01*
X347536795Y-77942359D01*
X347549430Y-77925323D01*
X347563674Y-77909607D01*
X347579390Y-77895363D01*
X347596426Y-77882728D01*
X347614619Y-77871824D01*
X347633792Y-77862755D01*
X347653763Y-77855610D01*
X347674338Y-77850456D01*
X347695318Y-77847344D01*
X347716503Y-77846303D01*
X350531837Y-77846303D01*
X350553022Y-77847344D01*
X350553022Y-77847344D01*
G37*
D13*
X349124170Y-78332603D03*
D12*
G36*
X350553022Y-82122344D02*
G01*
X350574002Y-82125456D01*
X350594577Y-82130610D01*
X350614548Y-82137755D01*
X350633721Y-82146824D01*
X350651914Y-82157728D01*
X350668950Y-82170363D01*
X350684666Y-82184607D01*
X350698910Y-82200323D01*
X350711545Y-82217359D01*
X350722449Y-82235552D01*
X350731518Y-82254725D01*
X350738663Y-82274696D01*
X350743817Y-82295271D01*
X350746929Y-82316251D01*
X350747970Y-82337436D01*
X350747970Y-82877770D01*
X350746929Y-82898955D01*
X350743817Y-82919935D01*
X350738663Y-82940510D01*
X350731518Y-82960481D01*
X350722449Y-82979654D01*
X350711545Y-82997847D01*
X350698910Y-83014883D01*
X350684666Y-83030599D01*
X350668950Y-83044843D01*
X350651914Y-83057478D01*
X350633721Y-83068382D01*
X350614548Y-83077451D01*
X350594577Y-83084596D01*
X350574002Y-83089750D01*
X350553022Y-83092862D01*
X350531837Y-83093903D01*
X347716503Y-83093903D01*
X347695318Y-83092862D01*
X347674338Y-83089750D01*
X347653763Y-83084596D01*
X347633792Y-83077451D01*
X347614619Y-83068382D01*
X347596426Y-83057478D01*
X347579390Y-83044843D01*
X347563674Y-83030599D01*
X347549430Y-83014883D01*
X347536795Y-82997847D01*
X347525891Y-82979654D01*
X347516822Y-82960481D01*
X347509677Y-82940510D01*
X347504523Y-82919935D01*
X347501411Y-82898955D01*
X347500370Y-82877770D01*
X347500370Y-82337436D01*
X347501411Y-82316251D01*
X347504523Y-82295271D01*
X347509677Y-82274696D01*
X347516822Y-82254725D01*
X347525891Y-82235552D01*
X347536795Y-82217359D01*
X347549430Y-82200323D01*
X347563674Y-82184607D01*
X347579390Y-82170363D01*
X347596426Y-82157728D01*
X347614619Y-82146824D01*
X347633792Y-82137755D01*
X347653763Y-82130610D01*
X347674338Y-82125456D01*
X347695318Y-82122344D01*
X347716503Y-82121303D01*
X350531837Y-82121303D01*
X350553022Y-82122344D01*
X350553022Y-82122344D01*
G37*
D13*
X349124170Y-82607603D03*
G04 #@! TD*
D12*
G04 #@! TO.C,R13*
G36*
X230410027Y-96497173D02*
G01*
X230427563Y-96499774D01*
X230444760Y-96504082D01*
X230461452Y-96510054D01*
X230477478Y-96517634D01*
X230492684Y-96526748D01*
X230506923Y-96537309D01*
X230520059Y-96549214D01*
X230531964Y-96562350D01*
X230542525Y-96576589D01*
X230551639Y-96591795D01*
X230559219Y-96607821D01*
X230565191Y-96624513D01*
X230569499Y-96641710D01*
X230572100Y-96659246D01*
X230572970Y-96676953D01*
X230572970Y-97113253D01*
X230572100Y-97130960D01*
X230569499Y-97148496D01*
X230565191Y-97165693D01*
X230559219Y-97182385D01*
X230551639Y-97198411D01*
X230542525Y-97213617D01*
X230531964Y-97227856D01*
X230520059Y-97240992D01*
X230506923Y-97252897D01*
X230492684Y-97263458D01*
X230477478Y-97272572D01*
X230461452Y-97280152D01*
X230444760Y-97286124D01*
X230427563Y-97290432D01*
X230410027Y-97293033D01*
X230392320Y-97293903D01*
X230031020Y-97293903D01*
X230013313Y-97293033D01*
X229995777Y-97290432D01*
X229978580Y-97286124D01*
X229961888Y-97280152D01*
X229945862Y-97272572D01*
X229930656Y-97263458D01*
X229916417Y-97252897D01*
X229903281Y-97240992D01*
X229891376Y-97227856D01*
X229880815Y-97213617D01*
X229871701Y-97198411D01*
X229864121Y-97182385D01*
X229858149Y-97165693D01*
X229853841Y-97148496D01*
X229851240Y-97130960D01*
X229850370Y-97113253D01*
X229850370Y-96676953D01*
X229851240Y-96659246D01*
X229853841Y-96641710D01*
X229858149Y-96624513D01*
X229864121Y-96607821D01*
X229871701Y-96591795D01*
X229880815Y-96576589D01*
X229891376Y-96562350D01*
X229903281Y-96549214D01*
X229916417Y-96537309D01*
X229930656Y-96526748D01*
X229945862Y-96517634D01*
X229961888Y-96510054D01*
X229978580Y-96504082D01*
X229995777Y-96499774D01*
X230013313Y-96497173D01*
X230031020Y-96496303D01*
X230392320Y-96496303D01*
X230410027Y-96497173D01*
X230410027Y-96497173D01*
G37*
D14*
X230211670Y-96895103D03*
D12*
G36*
X228835027Y-96497173D02*
G01*
X228852563Y-96499774D01*
X228869760Y-96504082D01*
X228886452Y-96510054D01*
X228902478Y-96517634D01*
X228917684Y-96526748D01*
X228931923Y-96537309D01*
X228945059Y-96549214D01*
X228956964Y-96562350D01*
X228967525Y-96576589D01*
X228976639Y-96591795D01*
X228984219Y-96607821D01*
X228990191Y-96624513D01*
X228994499Y-96641710D01*
X228997100Y-96659246D01*
X228997970Y-96676953D01*
X228997970Y-97113253D01*
X228997100Y-97130960D01*
X228994499Y-97148496D01*
X228990191Y-97165693D01*
X228984219Y-97182385D01*
X228976639Y-97198411D01*
X228967525Y-97213617D01*
X228956964Y-97227856D01*
X228945059Y-97240992D01*
X228931923Y-97252897D01*
X228917684Y-97263458D01*
X228902478Y-97272572D01*
X228886452Y-97280152D01*
X228869760Y-97286124D01*
X228852563Y-97290432D01*
X228835027Y-97293033D01*
X228817320Y-97293903D01*
X228456020Y-97293903D01*
X228438313Y-97293033D01*
X228420777Y-97290432D01*
X228403580Y-97286124D01*
X228386888Y-97280152D01*
X228370862Y-97272572D01*
X228355656Y-97263458D01*
X228341417Y-97252897D01*
X228328281Y-97240992D01*
X228316376Y-97227856D01*
X228305815Y-97213617D01*
X228296701Y-97198411D01*
X228289121Y-97182385D01*
X228283149Y-97165693D01*
X228278841Y-97148496D01*
X228276240Y-97130960D01*
X228275370Y-97113253D01*
X228275370Y-96676953D01*
X228276240Y-96659246D01*
X228278841Y-96641710D01*
X228283149Y-96624513D01*
X228289121Y-96607821D01*
X228296701Y-96591795D01*
X228305815Y-96576589D01*
X228316376Y-96562350D01*
X228328281Y-96549214D01*
X228341417Y-96537309D01*
X228355656Y-96526748D01*
X228370862Y-96517634D01*
X228386888Y-96510054D01*
X228403580Y-96504082D01*
X228420777Y-96499774D01*
X228438313Y-96497173D01*
X228456020Y-96496303D01*
X228817320Y-96496303D01*
X228835027Y-96497173D01*
X228835027Y-96497173D01*
G37*
D14*
X228636670Y-96895103D03*
G04 #@! TD*
D12*
G04 #@! TO.C,R12*
G36*
X371585027Y-83822173D02*
G01*
X371602563Y-83824774D01*
X371619760Y-83829082D01*
X371636452Y-83835054D01*
X371652478Y-83842634D01*
X371667684Y-83851748D01*
X371681923Y-83862309D01*
X371695059Y-83874214D01*
X371706964Y-83887350D01*
X371717525Y-83901589D01*
X371726639Y-83916795D01*
X371734219Y-83932821D01*
X371740191Y-83949513D01*
X371744499Y-83966710D01*
X371747100Y-83984246D01*
X371747970Y-84001953D01*
X371747970Y-84438253D01*
X371747100Y-84455960D01*
X371744499Y-84473496D01*
X371740191Y-84490693D01*
X371734219Y-84507385D01*
X371726639Y-84523411D01*
X371717525Y-84538617D01*
X371706964Y-84552856D01*
X371695059Y-84565992D01*
X371681923Y-84577897D01*
X371667684Y-84588458D01*
X371652478Y-84597572D01*
X371636452Y-84605152D01*
X371619760Y-84611124D01*
X371602563Y-84615432D01*
X371585027Y-84618033D01*
X371567320Y-84618903D01*
X371206020Y-84618903D01*
X371188313Y-84618033D01*
X371170777Y-84615432D01*
X371153580Y-84611124D01*
X371136888Y-84605152D01*
X371120862Y-84597572D01*
X371105656Y-84588458D01*
X371091417Y-84577897D01*
X371078281Y-84565992D01*
X371066376Y-84552856D01*
X371055815Y-84538617D01*
X371046701Y-84523411D01*
X371039121Y-84507385D01*
X371033149Y-84490693D01*
X371028841Y-84473496D01*
X371026240Y-84455960D01*
X371025370Y-84438253D01*
X371025370Y-84001953D01*
X371026240Y-83984246D01*
X371028841Y-83966710D01*
X371033149Y-83949513D01*
X371039121Y-83932821D01*
X371046701Y-83916795D01*
X371055815Y-83901589D01*
X371066376Y-83887350D01*
X371078281Y-83874214D01*
X371091417Y-83862309D01*
X371105656Y-83851748D01*
X371120862Y-83842634D01*
X371136888Y-83835054D01*
X371153580Y-83829082D01*
X371170777Y-83824774D01*
X371188313Y-83822173D01*
X371206020Y-83821303D01*
X371567320Y-83821303D01*
X371585027Y-83822173D01*
X371585027Y-83822173D01*
G37*
D14*
X371386670Y-84220103D03*
D12*
G36*
X373160027Y-83822173D02*
G01*
X373177563Y-83824774D01*
X373194760Y-83829082D01*
X373211452Y-83835054D01*
X373227478Y-83842634D01*
X373242684Y-83851748D01*
X373256923Y-83862309D01*
X373270059Y-83874214D01*
X373281964Y-83887350D01*
X373292525Y-83901589D01*
X373301639Y-83916795D01*
X373309219Y-83932821D01*
X373315191Y-83949513D01*
X373319499Y-83966710D01*
X373322100Y-83984246D01*
X373322970Y-84001953D01*
X373322970Y-84438253D01*
X373322100Y-84455960D01*
X373319499Y-84473496D01*
X373315191Y-84490693D01*
X373309219Y-84507385D01*
X373301639Y-84523411D01*
X373292525Y-84538617D01*
X373281964Y-84552856D01*
X373270059Y-84565992D01*
X373256923Y-84577897D01*
X373242684Y-84588458D01*
X373227478Y-84597572D01*
X373211452Y-84605152D01*
X373194760Y-84611124D01*
X373177563Y-84615432D01*
X373160027Y-84618033D01*
X373142320Y-84618903D01*
X372781020Y-84618903D01*
X372763313Y-84618033D01*
X372745777Y-84615432D01*
X372728580Y-84611124D01*
X372711888Y-84605152D01*
X372695862Y-84597572D01*
X372680656Y-84588458D01*
X372666417Y-84577897D01*
X372653281Y-84565992D01*
X372641376Y-84552856D01*
X372630815Y-84538617D01*
X372621701Y-84523411D01*
X372614121Y-84507385D01*
X372608149Y-84490693D01*
X372603841Y-84473496D01*
X372601240Y-84455960D01*
X372600370Y-84438253D01*
X372600370Y-84001953D01*
X372601240Y-83984246D01*
X372603841Y-83966710D01*
X372608149Y-83949513D01*
X372614121Y-83932821D01*
X372621701Y-83916795D01*
X372630815Y-83901589D01*
X372641376Y-83887350D01*
X372653281Y-83874214D01*
X372666417Y-83862309D01*
X372680656Y-83851748D01*
X372695862Y-83842634D01*
X372711888Y-83835054D01*
X372728580Y-83829082D01*
X372745777Y-83824774D01*
X372763313Y-83822173D01*
X372781020Y-83821303D01*
X373142320Y-83821303D01*
X373160027Y-83822173D01*
X373160027Y-83822173D01*
G37*
D14*
X372961670Y-84220103D03*
G04 #@! TD*
D12*
G04 #@! TO.C,R11*
G36*
X373160027Y-81572173D02*
G01*
X373177563Y-81574774D01*
X373194760Y-81579082D01*
X373211452Y-81585054D01*
X373227478Y-81592634D01*
X373242684Y-81601748D01*
X373256923Y-81612309D01*
X373270059Y-81624214D01*
X373281964Y-81637350D01*
X373292525Y-81651589D01*
X373301639Y-81666795D01*
X373309219Y-81682821D01*
X373315191Y-81699513D01*
X373319499Y-81716710D01*
X373322100Y-81734246D01*
X373322970Y-81751953D01*
X373322970Y-82188253D01*
X373322100Y-82205960D01*
X373319499Y-82223496D01*
X373315191Y-82240693D01*
X373309219Y-82257385D01*
X373301639Y-82273411D01*
X373292525Y-82288617D01*
X373281964Y-82302856D01*
X373270059Y-82315992D01*
X373256923Y-82327897D01*
X373242684Y-82338458D01*
X373227478Y-82347572D01*
X373211452Y-82355152D01*
X373194760Y-82361124D01*
X373177563Y-82365432D01*
X373160027Y-82368033D01*
X373142320Y-82368903D01*
X372781020Y-82368903D01*
X372763313Y-82368033D01*
X372745777Y-82365432D01*
X372728580Y-82361124D01*
X372711888Y-82355152D01*
X372695862Y-82347572D01*
X372680656Y-82338458D01*
X372666417Y-82327897D01*
X372653281Y-82315992D01*
X372641376Y-82302856D01*
X372630815Y-82288617D01*
X372621701Y-82273411D01*
X372614121Y-82257385D01*
X372608149Y-82240693D01*
X372603841Y-82223496D01*
X372601240Y-82205960D01*
X372600370Y-82188253D01*
X372600370Y-81751953D01*
X372601240Y-81734246D01*
X372603841Y-81716710D01*
X372608149Y-81699513D01*
X372614121Y-81682821D01*
X372621701Y-81666795D01*
X372630815Y-81651589D01*
X372641376Y-81637350D01*
X372653281Y-81624214D01*
X372666417Y-81612309D01*
X372680656Y-81601748D01*
X372695862Y-81592634D01*
X372711888Y-81585054D01*
X372728580Y-81579082D01*
X372745777Y-81574774D01*
X372763313Y-81572173D01*
X372781020Y-81571303D01*
X373142320Y-81571303D01*
X373160027Y-81572173D01*
X373160027Y-81572173D01*
G37*
D14*
X372961670Y-81970103D03*
D12*
G36*
X371585027Y-81572173D02*
G01*
X371602563Y-81574774D01*
X371619760Y-81579082D01*
X371636452Y-81585054D01*
X371652478Y-81592634D01*
X371667684Y-81601748D01*
X371681923Y-81612309D01*
X371695059Y-81624214D01*
X371706964Y-81637350D01*
X371717525Y-81651589D01*
X371726639Y-81666795D01*
X371734219Y-81682821D01*
X371740191Y-81699513D01*
X371744499Y-81716710D01*
X371747100Y-81734246D01*
X371747970Y-81751953D01*
X371747970Y-82188253D01*
X371747100Y-82205960D01*
X371744499Y-82223496D01*
X371740191Y-82240693D01*
X371734219Y-82257385D01*
X371726639Y-82273411D01*
X371717525Y-82288617D01*
X371706964Y-82302856D01*
X371695059Y-82315992D01*
X371681923Y-82327897D01*
X371667684Y-82338458D01*
X371652478Y-82347572D01*
X371636452Y-82355152D01*
X371619760Y-82361124D01*
X371602563Y-82365432D01*
X371585027Y-82368033D01*
X371567320Y-82368903D01*
X371206020Y-82368903D01*
X371188313Y-82368033D01*
X371170777Y-82365432D01*
X371153580Y-82361124D01*
X371136888Y-82355152D01*
X371120862Y-82347572D01*
X371105656Y-82338458D01*
X371091417Y-82327897D01*
X371078281Y-82315992D01*
X371066376Y-82302856D01*
X371055815Y-82288617D01*
X371046701Y-82273411D01*
X371039121Y-82257385D01*
X371033149Y-82240693D01*
X371028841Y-82223496D01*
X371026240Y-82205960D01*
X371025370Y-82188253D01*
X371025370Y-81751953D01*
X371026240Y-81734246D01*
X371028841Y-81716710D01*
X371033149Y-81699513D01*
X371039121Y-81682821D01*
X371046701Y-81666795D01*
X371055815Y-81651589D01*
X371066376Y-81637350D01*
X371078281Y-81624214D01*
X371091417Y-81612309D01*
X371105656Y-81601748D01*
X371120862Y-81592634D01*
X371136888Y-81585054D01*
X371153580Y-81579082D01*
X371170777Y-81574774D01*
X371188313Y-81572173D01*
X371206020Y-81571303D01*
X371567320Y-81571303D01*
X371585027Y-81572173D01*
X371585027Y-81572173D01*
G37*
D14*
X371386670Y-81970103D03*
G04 #@! TD*
D12*
G04 #@! TO.C,R10*
G36*
X236485027Y-138572173D02*
G01*
X236502563Y-138574774D01*
X236519760Y-138579082D01*
X236536452Y-138585054D01*
X236552478Y-138592634D01*
X236567684Y-138601748D01*
X236581923Y-138612309D01*
X236595059Y-138624214D01*
X236606964Y-138637350D01*
X236617525Y-138651589D01*
X236626639Y-138666795D01*
X236634219Y-138682821D01*
X236640191Y-138699513D01*
X236644499Y-138716710D01*
X236647100Y-138734246D01*
X236647970Y-138751953D01*
X236647970Y-139113253D01*
X236647100Y-139130960D01*
X236644499Y-139148496D01*
X236640191Y-139165693D01*
X236634219Y-139182385D01*
X236626639Y-139198411D01*
X236617525Y-139213617D01*
X236606964Y-139227856D01*
X236595059Y-139240992D01*
X236581923Y-139252897D01*
X236567684Y-139263458D01*
X236552478Y-139272572D01*
X236536452Y-139280152D01*
X236519760Y-139286124D01*
X236502563Y-139290432D01*
X236485027Y-139293033D01*
X236467320Y-139293903D01*
X236031020Y-139293903D01*
X236013313Y-139293033D01*
X235995777Y-139290432D01*
X235978580Y-139286124D01*
X235961888Y-139280152D01*
X235945862Y-139272572D01*
X235930656Y-139263458D01*
X235916417Y-139252897D01*
X235903281Y-139240992D01*
X235891376Y-139227856D01*
X235880815Y-139213617D01*
X235871701Y-139198411D01*
X235864121Y-139182385D01*
X235858149Y-139165693D01*
X235853841Y-139148496D01*
X235851240Y-139130960D01*
X235850370Y-139113253D01*
X235850370Y-138751953D01*
X235851240Y-138734246D01*
X235853841Y-138716710D01*
X235858149Y-138699513D01*
X235864121Y-138682821D01*
X235871701Y-138666795D01*
X235880815Y-138651589D01*
X235891376Y-138637350D01*
X235903281Y-138624214D01*
X235916417Y-138612309D01*
X235930656Y-138601748D01*
X235945862Y-138592634D01*
X235961888Y-138585054D01*
X235978580Y-138579082D01*
X235995777Y-138574774D01*
X236013313Y-138572173D01*
X236031020Y-138571303D01*
X236467320Y-138571303D01*
X236485027Y-138572173D01*
X236485027Y-138572173D01*
G37*
D14*
X236249170Y-138932603D03*
D12*
G36*
X236485027Y-140147173D02*
G01*
X236502563Y-140149774D01*
X236519760Y-140154082D01*
X236536452Y-140160054D01*
X236552478Y-140167634D01*
X236567684Y-140176748D01*
X236581923Y-140187309D01*
X236595059Y-140199214D01*
X236606964Y-140212350D01*
X236617525Y-140226589D01*
X236626639Y-140241795D01*
X236634219Y-140257821D01*
X236640191Y-140274513D01*
X236644499Y-140291710D01*
X236647100Y-140309246D01*
X236647970Y-140326953D01*
X236647970Y-140688253D01*
X236647100Y-140705960D01*
X236644499Y-140723496D01*
X236640191Y-140740693D01*
X236634219Y-140757385D01*
X236626639Y-140773411D01*
X236617525Y-140788617D01*
X236606964Y-140802856D01*
X236595059Y-140815992D01*
X236581923Y-140827897D01*
X236567684Y-140838458D01*
X236552478Y-140847572D01*
X236536452Y-140855152D01*
X236519760Y-140861124D01*
X236502563Y-140865432D01*
X236485027Y-140868033D01*
X236467320Y-140868903D01*
X236031020Y-140868903D01*
X236013313Y-140868033D01*
X235995777Y-140865432D01*
X235978580Y-140861124D01*
X235961888Y-140855152D01*
X235945862Y-140847572D01*
X235930656Y-140838458D01*
X235916417Y-140827897D01*
X235903281Y-140815992D01*
X235891376Y-140802856D01*
X235880815Y-140788617D01*
X235871701Y-140773411D01*
X235864121Y-140757385D01*
X235858149Y-140740693D01*
X235853841Y-140723496D01*
X235851240Y-140705960D01*
X235850370Y-140688253D01*
X235850370Y-140326953D01*
X235851240Y-140309246D01*
X235853841Y-140291710D01*
X235858149Y-140274513D01*
X235864121Y-140257821D01*
X235871701Y-140241795D01*
X235880815Y-140226589D01*
X235891376Y-140212350D01*
X235903281Y-140199214D01*
X235916417Y-140187309D01*
X235930656Y-140176748D01*
X235945862Y-140167634D01*
X235961888Y-140160054D01*
X235978580Y-140154082D01*
X235995777Y-140149774D01*
X236013313Y-140147173D01*
X236031020Y-140146303D01*
X236467320Y-140146303D01*
X236485027Y-140147173D01*
X236485027Y-140147173D01*
G37*
D14*
X236249170Y-140507603D03*
G04 #@! TD*
D12*
G04 #@! TO.C,R9*
G36*
X345710027Y-74847173D02*
G01*
X345727563Y-74849774D01*
X345744760Y-74854082D01*
X345761452Y-74860054D01*
X345777478Y-74867634D01*
X345792684Y-74876748D01*
X345806923Y-74887309D01*
X345820059Y-74899214D01*
X345831964Y-74912350D01*
X345842525Y-74926589D01*
X345851639Y-74941795D01*
X345859219Y-74957821D01*
X345865191Y-74974513D01*
X345869499Y-74991710D01*
X345872100Y-75009246D01*
X345872970Y-75026953D01*
X345872970Y-75463253D01*
X345872100Y-75480960D01*
X345869499Y-75498496D01*
X345865191Y-75515693D01*
X345859219Y-75532385D01*
X345851639Y-75548411D01*
X345842525Y-75563617D01*
X345831964Y-75577856D01*
X345820059Y-75590992D01*
X345806923Y-75602897D01*
X345792684Y-75613458D01*
X345777478Y-75622572D01*
X345761452Y-75630152D01*
X345744760Y-75636124D01*
X345727563Y-75640432D01*
X345710027Y-75643033D01*
X345692320Y-75643903D01*
X345331020Y-75643903D01*
X345313313Y-75643033D01*
X345295777Y-75640432D01*
X345278580Y-75636124D01*
X345261888Y-75630152D01*
X345245862Y-75622572D01*
X345230656Y-75613458D01*
X345216417Y-75602897D01*
X345203281Y-75590992D01*
X345191376Y-75577856D01*
X345180815Y-75563617D01*
X345171701Y-75548411D01*
X345164121Y-75532385D01*
X345158149Y-75515693D01*
X345153841Y-75498496D01*
X345151240Y-75480960D01*
X345150370Y-75463253D01*
X345150370Y-75026953D01*
X345151240Y-75009246D01*
X345153841Y-74991710D01*
X345158149Y-74974513D01*
X345164121Y-74957821D01*
X345171701Y-74941795D01*
X345180815Y-74926589D01*
X345191376Y-74912350D01*
X345203281Y-74899214D01*
X345216417Y-74887309D01*
X345230656Y-74876748D01*
X345245862Y-74867634D01*
X345261888Y-74860054D01*
X345278580Y-74854082D01*
X345295777Y-74849774D01*
X345313313Y-74847173D01*
X345331020Y-74846303D01*
X345692320Y-74846303D01*
X345710027Y-74847173D01*
X345710027Y-74847173D01*
G37*
D14*
X345511670Y-75245103D03*
D12*
G36*
X347285027Y-74847173D02*
G01*
X347302563Y-74849774D01*
X347319760Y-74854082D01*
X347336452Y-74860054D01*
X347352478Y-74867634D01*
X347367684Y-74876748D01*
X347381923Y-74887309D01*
X347395059Y-74899214D01*
X347406964Y-74912350D01*
X347417525Y-74926589D01*
X347426639Y-74941795D01*
X347434219Y-74957821D01*
X347440191Y-74974513D01*
X347444499Y-74991710D01*
X347447100Y-75009246D01*
X347447970Y-75026953D01*
X347447970Y-75463253D01*
X347447100Y-75480960D01*
X347444499Y-75498496D01*
X347440191Y-75515693D01*
X347434219Y-75532385D01*
X347426639Y-75548411D01*
X347417525Y-75563617D01*
X347406964Y-75577856D01*
X347395059Y-75590992D01*
X347381923Y-75602897D01*
X347367684Y-75613458D01*
X347352478Y-75622572D01*
X347336452Y-75630152D01*
X347319760Y-75636124D01*
X347302563Y-75640432D01*
X347285027Y-75643033D01*
X347267320Y-75643903D01*
X346906020Y-75643903D01*
X346888313Y-75643033D01*
X346870777Y-75640432D01*
X346853580Y-75636124D01*
X346836888Y-75630152D01*
X346820862Y-75622572D01*
X346805656Y-75613458D01*
X346791417Y-75602897D01*
X346778281Y-75590992D01*
X346766376Y-75577856D01*
X346755815Y-75563617D01*
X346746701Y-75548411D01*
X346739121Y-75532385D01*
X346733149Y-75515693D01*
X346728841Y-75498496D01*
X346726240Y-75480960D01*
X346725370Y-75463253D01*
X346725370Y-75026953D01*
X346726240Y-75009246D01*
X346728841Y-74991710D01*
X346733149Y-74974513D01*
X346739121Y-74957821D01*
X346746701Y-74941795D01*
X346755815Y-74926589D01*
X346766376Y-74912350D01*
X346778281Y-74899214D01*
X346791417Y-74887309D01*
X346805656Y-74876748D01*
X346820862Y-74867634D01*
X346836888Y-74860054D01*
X346853580Y-74854082D01*
X346870777Y-74849774D01*
X346888313Y-74847173D01*
X346906020Y-74846303D01*
X347267320Y-74846303D01*
X347285027Y-74847173D01*
X347285027Y-74847173D01*
G37*
D14*
X347086670Y-75245103D03*
G04 #@! TD*
D12*
G04 #@! TO.C,R8*
G36*
X347285027Y-73247173D02*
G01*
X347302563Y-73249774D01*
X347319760Y-73254082D01*
X347336452Y-73260054D01*
X347352478Y-73267634D01*
X347367684Y-73276748D01*
X347381923Y-73287309D01*
X347395059Y-73299214D01*
X347406964Y-73312350D01*
X347417525Y-73326589D01*
X347426639Y-73341795D01*
X347434219Y-73357821D01*
X347440191Y-73374513D01*
X347444499Y-73391710D01*
X347447100Y-73409246D01*
X347447970Y-73426953D01*
X347447970Y-73863253D01*
X347447100Y-73880960D01*
X347444499Y-73898496D01*
X347440191Y-73915693D01*
X347434219Y-73932385D01*
X347426639Y-73948411D01*
X347417525Y-73963617D01*
X347406964Y-73977856D01*
X347395059Y-73990992D01*
X347381923Y-74002897D01*
X347367684Y-74013458D01*
X347352478Y-74022572D01*
X347336452Y-74030152D01*
X347319760Y-74036124D01*
X347302563Y-74040432D01*
X347285027Y-74043033D01*
X347267320Y-74043903D01*
X346906020Y-74043903D01*
X346888313Y-74043033D01*
X346870777Y-74040432D01*
X346853580Y-74036124D01*
X346836888Y-74030152D01*
X346820862Y-74022572D01*
X346805656Y-74013458D01*
X346791417Y-74002897D01*
X346778281Y-73990992D01*
X346766376Y-73977856D01*
X346755815Y-73963617D01*
X346746701Y-73948411D01*
X346739121Y-73932385D01*
X346733149Y-73915693D01*
X346728841Y-73898496D01*
X346726240Y-73880960D01*
X346725370Y-73863253D01*
X346725370Y-73426953D01*
X346726240Y-73409246D01*
X346728841Y-73391710D01*
X346733149Y-73374513D01*
X346739121Y-73357821D01*
X346746701Y-73341795D01*
X346755815Y-73326589D01*
X346766376Y-73312350D01*
X346778281Y-73299214D01*
X346791417Y-73287309D01*
X346805656Y-73276748D01*
X346820862Y-73267634D01*
X346836888Y-73260054D01*
X346853580Y-73254082D01*
X346870777Y-73249774D01*
X346888313Y-73247173D01*
X346906020Y-73246303D01*
X347267320Y-73246303D01*
X347285027Y-73247173D01*
X347285027Y-73247173D01*
G37*
D14*
X347086670Y-73645103D03*
D12*
G36*
X345710027Y-73247173D02*
G01*
X345727563Y-73249774D01*
X345744760Y-73254082D01*
X345761452Y-73260054D01*
X345777478Y-73267634D01*
X345792684Y-73276748D01*
X345806923Y-73287309D01*
X345820059Y-73299214D01*
X345831964Y-73312350D01*
X345842525Y-73326589D01*
X345851639Y-73341795D01*
X345859219Y-73357821D01*
X345865191Y-73374513D01*
X345869499Y-73391710D01*
X345872100Y-73409246D01*
X345872970Y-73426953D01*
X345872970Y-73863253D01*
X345872100Y-73880960D01*
X345869499Y-73898496D01*
X345865191Y-73915693D01*
X345859219Y-73932385D01*
X345851639Y-73948411D01*
X345842525Y-73963617D01*
X345831964Y-73977856D01*
X345820059Y-73990992D01*
X345806923Y-74002897D01*
X345792684Y-74013458D01*
X345777478Y-74022572D01*
X345761452Y-74030152D01*
X345744760Y-74036124D01*
X345727563Y-74040432D01*
X345710027Y-74043033D01*
X345692320Y-74043903D01*
X345331020Y-74043903D01*
X345313313Y-74043033D01*
X345295777Y-74040432D01*
X345278580Y-74036124D01*
X345261888Y-74030152D01*
X345245862Y-74022572D01*
X345230656Y-74013458D01*
X345216417Y-74002897D01*
X345203281Y-73990992D01*
X345191376Y-73977856D01*
X345180815Y-73963617D01*
X345171701Y-73948411D01*
X345164121Y-73932385D01*
X345158149Y-73915693D01*
X345153841Y-73898496D01*
X345151240Y-73880960D01*
X345150370Y-73863253D01*
X345150370Y-73426953D01*
X345151240Y-73409246D01*
X345153841Y-73391710D01*
X345158149Y-73374513D01*
X345164121Y-73357821D01*
X345171701Y-73341795D01*
X345180815Y-73326589D01*
X345191376Y-73312350D01*
X345203281Y-73299214D01*
X345216417Y-73287309D01*
X345230656Y-73276748D01*
X345245862Y-73267634D01*
X345261888Y-73260054D01*
X345278580Y-73254082D01*
X345295777Y-73249774D01*
X345313313Y-73247173D01*
X345331020Y-73246303D01*
X345692320Y-73246303D01*
X345710027Y-73247173D01*
X345710027Y-73247173D01*
G37*
D14*
X345511670Y-73645103D03*
G04 #@! TD*
D12*
G04 #@! TO.C,R1*
G36*
X237885517Y-96496851D02*
G01*
X237903053Y-96499452D01*
X237920250Y-96503760D01*
X237936942Y-96509732D01*
X237952968Y-96517312D01*
X237968174Y-96526426D01*
X237982413Y-96536987D01*
X237995549Y-96548892D01*
X238007454Y-96562028D01*
X238018015Y-96576267D01*
X238027129Y-96591473D01*
X238034709Y-96607499D01*
X238040681Y-96624191D01*
X238044989Y-96641388D01*
X238047590Y-96658924D01*
X238048460Y-96676631D01*
X238048460Y-97112931D01*
X238047590Y-97130638D01*
X238044989Y-97148174D01*
X238040681Y-97165371D01*
X238034709Y-97182063D01*
X238027129Y-97198089D01*
X238018015Y-97213295D01*
X238007454Y-97227534D01*
X237995549Y-97240670D01*
X237982413Y-97252575D01*
X237968174Y-97263136D01*
X237952968Y-97272250D01*
X237936942Y-97279830D01*
X237920250Y-97285802D01*
X237903053Y-97290110D01*
X237885517Y-97292711D01*
X237867810Y-97293581D01*
X237506510Y-97293581D01*
X237488803Y-97292711D01*
X237471267Y-97290110D01*
X237454070Y-97285802D01*
X237437378Y-97279830D01*
X237421352Y-97272250D01*
X237406146Y-97263136D01*
X237391907Y-97252575D01*
X237378771Y-97240670D01*
X237366866Y-97227534D01*
X237356305Y-97213295D01*
X237347191Y-97198089D01*
X237339611Y-97182063D01*
X237333639Y-97165371D01*
X237329331Y-97148174D01*
X237326730Y-97130638D01*
X237325860Y-97112931D01*
X237325860Y-96676631D01*
X237326730Y-96658924D01*
X237329331Y-96641388D01*
X237333639Y-96624191D01*
X237339611Y-96607499D01*
X237347191Y-96591473D01*
X237356305Y-96576267D01*
X237366866Y-96562028D01*
X237378771Y-96548892D01*
X237391907Y-96536987D01*
X237406146Y-96526426D01*
X237421352Y-96517312D01*
X237437378Y-96509732D01*
X237454070Y-96503760D01*
X237471267Y-96499452D01*
X237488803Y-96496851D01*
X237506510Y-96495981D01*
X237867810Y-96495981D01*
X237885517Y-96496851D01*
X237885517Y-96496851D01*
G37*
D14*
X237687160Y-96894781D03*
D12*
G36*
X236310517Y-96496851D02*
G01*
X236328053Y-96499452D01*
X236345250Y-96503760D01*
X236361942Y-96509732D01*
X236377968Y-96517312D01*
X236393174Y-96526426D01*
X236407413Y-96536987D01*
X236420549Y-96548892D01*
X236432454Y-96562028D01*
X236443015Y-96576267D01*
X236452129Y-96591473D01*
X236459709Y-96607499D01*
X236465681Y-96624191D01*
X236469989Y-96641388D01*
X236472590Y-96658924D01*
X236473460Y-96676631D01*
X236473460Y-97112931D01*
X236472590Y-97130638D01*
X236469989Y-97148174D01*
X236465681Y-97165371D01*
X236459709Y-97182063D01*
X236452129Y-97198089D01*
X236443015Y-97213295D01*
X236432454Y-97227534D01*
X236420549Y-97240670D01*
X236407413Y-97252575D01*
X236393174Y-97263136D01*
X236377968Y-97272250D01*
X236361942Y-97279830D01*
X236345250Y-97285802D01*
X236328053Y-97290110D01*
X236310517Y-97292711D01*
X236292810Y-97293581D01*
X235931510Y-97293581D01*
X235913803Y-97292711D01*
X235896267Y-97290110D01*
X235879070Y-97285802D01*
X235862378Y-97279830D01*
X235846352Y-97272250D01*
X235831146Y-97263136D01*
X235816907Y-97252575D01*
X235803771Y-97240670D01*
X235791866Y-97227534D01*
X235781305Y-97213295D01*
X235772191Y-97198089D01*
X235764611Y-97182063D01*
X235758639Y-97165371D01*
X235754331Y-97148174D01*
X235751730Y-97130638D01*
X235750860Y-97112931D01*
X235750860Y-96676631D01*
X235751730Y-96658924D01*
X235754331Y-96641388D01*
X235758639Y-96624191D01*
X235764611Y-96607499D01*
X235772191Y-96591473D01*
X235781305Y-96576267D01*
X235791866Y-96562028D01*
X235803771Y-96548892D01*
X235816907Y-96536987D01*
X235831146Y-96526426D01*
X235846352Y-96517312D01*
X235862378Y-96509732D01*
X235879070Y-96503760D01*
X235896267Y-96499452D01*
X235913803Y-96496851D01*
X235931510Y-96495981D01*
X236292810Y-96495981D01*
X236310517Y-96496851D01*
X236310517Y-96496851D01*
G37*
D14*
X236112160Y-96894781D03*
G04 #@! TD*
D15*
G04 #@! TO.C,D1*
X368489895Y-85116195D03*
D12*
G36*
X368304493Y-84921634D02*
G01*
X368597572Y-84869956D01*
X368675297Y-85310756D01*
X368382218Y-85362434D01*
X368304493Y-84921634D01*
X368304493Y-84921634D01*
G37*
D15*
X368125233Y-83048099D03*
D12*
G36*
X367939831Y-82853538D02*
G01*
X368232910Y-82801860D01*
X368310635Y-83242660D01*
X368017556Y-83294338D01*
X367939831Y-82853538D01*
X367939831Y-82853538D01*
G37*
G04 #@! TD*
D15*
G04 #@! TO.C,D48*
X109267330Y-139428829D03*
D12*
G36*
X109159653Y-139182590D02*
G01*
X109452732Y-139234268D01*
X109375007Y-139675068D01*
X109081928Y-139623390D01*
X109159653Y-139182590D01*
X109159653Y-139182590D01*
G37*
D15*
X109631992Y-137360733D03*
D12*
G36*
X109524315Y-137114494D02*
G01*
X109817394Y-137166172D01*
X109739669Y-137606972D01*
X109446590Y-137555294D01*
X109524315Y-137114494D01*
X109524315Y-137114494D01*
G37*
G04 #@! TD*
D15*
G04 #@! TO.C,D47*
X128017329Y-142753829D03*
D12*
G36*
X127909652Y-142507590D02*
G01*
X128202731Y-142559268D01*
X128125006Y-143000068D01*
X127831927Y-142948390D01*
X127909652Y-142507590D01*
X127909652Y-142507590D01*
G37*
D15*
X128381991Y-140685733D03*
D12*
G36*
X128274314Y-140439494D02*
G01*
X128567393Y-140491172D01*
X128489668Y-140931972D01*
X128196589Y-140880294D01*
X128274314Y-140439494D01*
X128274314Y-140439494D01*
G37*
G04 #@! TD*
D15*
G04 #@! TO.C,D46*
X146792330Y-146053829D03*
D12*
G36*
X146684653Y-145807590D02*
G01*
X146977732Y-145859268D01*
X146900007Y-146300068D01*
X146606928Y-146248390D01*
X146684653Y-145807590D01*
X146684653Y-145807590D01*
G37*
D15*
X147156992Y-143985733D03*
D12*
G36*
X147049315Y-143739494D02*
G01*
X147342394Y-143791172D01*
X147264669Y-144231972D01*
X146971590Y-144180294D01*
X147049315Y-143739494D01*
X147049315Y-143739494D01*
G37*
G04 #@! TD*
D15*
G04 #@! TO.C,D45*
X165542329Y-149353829D03*
D12*
G36*
X165434652Y-149107590D02*
G01*
X165727731Y-149159268D01*
X165650006Y-149600068D01*
X165356927Y-149548390D01*
X165434652Y-149107590D01*
X165434652Y-149107590D01*
G37*
D15*
X165906991Y-147285733D03*
D12*
G36*
X165799314Y-147039494D02*
G01*
X166092393Y-147091172D01*
X166014668Y-147531972D01*
X165721589Y-147480294D01*
X165799314Y-147039494D01*
X165799314Y-147039494D01*
G37*
G04 #@! TD*
D15*
G04 #@! TO.C,D44*
X188374243Y-149624450D03*
D12*
G36*
X188404111Y-149357362D02*
G01*
X188632086Y-149548656D01*
X188344375Y-149891538D01*
X188116400Y-149700244D01*
X188404111Y-149357362D01*
X188404111Y-149357362D01*
G37*
D15*
X189724097Y-148015756D03*
D12*
G36*
X189753965Y-147748668D02*
G01*
X189981940Y-147939962D01*
X189694229Y-148282844D01*
X189466254Y-148091550D01*
X189753965Y-147748668D01*
X189753965Y-147748668D01*
G37*
G04 #@! TD*
D15*
G04 #@! TO.C,D43*
X207240289Y-139743922D03*
D12*
G36*
X207281779Y-139478392D02*
G01*
X207501193Y-139679447D01*
X207198799Y-140009452D01*
X206979385Y-139808397D01*
X207281779Y-139478392D01*
X207281779Y-139478392D01*
G37*
D15*
X208659029Y-138195640D03*
D12*
G36*
X208700519Y-137930110D02*
G01*
X208919933Y-138131165D01*
X208617539Y-138461170D01*
X208398125Y-138260115D01*
X208700519Y-137930110D01*
X208700519Y-137930110D01*
G37*
G04 #@! TD*
D15*
G04 #@! TO.C,D42*
X246683540Y-150844244D03*
D12*
G36*
X246422636Y-150779769D02*
G01*
X246642050Y-150578714D01*
X246944444Y-150908719D01*
X246725030Y-151109774D01*
X246422636Y-150779769D01*
X246422636Y-150779769D01*
G37*
D15*
X245264800Y-149295962D03*
D12*
G36*
X245003896Y-149231487D02*
G01*
X245223310Y-149030432D01*
X245525704Y-149360437D01*
X245306290Y-149561492D01*
X245003896Y-149231487D01*
X245003896Y-149231487D01*
G37*
G04 #@! TD*
D15*
G04 #@! TO.C,D41*
X265224097Y-160074450D03*
D12*
G36*
X264966254Y-159998656D02*
G01*
X265194229Y-159807362D01*
X265481940Y-160150244D01*
X265253965Y-160341538D01*
X264966254Y-159998656D01*
X264966254Y-159998656D01*
G37*
D15*
X263874243Y-158465756D03*
D12*
G36*
X263616400Y-158389962D02*
G01*
X263844375Y-158198668D01*
X264132086Y-158541550D01*
X263904111Y-158732844D01*
X263616400Y-158389962D01*
X263616400Y-158389962D01*
G37*
G04 #@! TD*
D15*
G04 #@! TO.C,D40*
X284406992Y-152078829D03*
D12*
G36*
X284221590Y-151884268D02*
G01*
X284514669Y-151832590D01*
X284592394Y-152273390D01*
X284299315Y-152325068D01*
X284221590Y-151884268D01*
X284221590Y-151884268D01*
G37*
D15*
X284042330Y-150010733D03*
D12*
G36*
X283856928Y-149816172D02*
G01*
X284150007Y-149764494D01*
X284227732Y-150205294D01*
X283934653Y-150256972D01*
X283856928Y-149816172D01*
X283856928Y-149816172D01*
G37*
G04 #@! TD*
D15*
G04 #@! TO.C,D39*
X303156991Y-148778829D03*
D12*
G36*
X302971589Y-148584268D02*
G01*
X303264668Y-148532590D01*
X303342393Y-148973390D01*
X303049314Y-149025068D01*
X302971589Y-148584268D01*
X302971589Y-148584268D01*
G37*
D15*
X302792329Y-146710733D03*
D12*
G36*
X302606927Y-146516172D02*
G01*
X302900006Y-146464494D01*
X302977731Y-146905294D01*
X302684652Y-146956972D01*
X302606927Y-146516172D01*
X302606927Y-146516172D01*
G37*
G04 #@! TD*
D15*
G04 #@! TO.C,D38*
X321938884Y-145475099D03*
D12*
G36*
X321753482Y-145280538D02*
G01*
X322046561Y-145228860D01*
X322124286Y-145669660D01*
X321831207Y-145721338D01*
X321753482Y-145280538D01*
X321753482Y-145280538D01*
G37*
D15*
X321574222Y-143407003D03*
D12*
G36*
X321388820Y-143212442D02*
G01*
X321681899Y-143160764D01*
X321759624Y-143601564D01*
X321466545Y-143653242D01*
X321388820Y-143212442D01*
X321388820Y-143212442D01*
G37*
G04 #@! TD*
D15*
G04 #@! TO.C,D37*
X340681991Y-142178829D03*
D12*
G36*
X340496589Y-141984268D02*
G01*
X340789668Y-141932590D01*
X340867393Y-142373390D01*
X340574314Y-142425068D01*
X340496589Y-141984268D01*
X340496589Y-141984268D01*
G37*
D15*
X340317329Y-140110733D03*
D12*
G36*
X340131927Y-139916172D02*
G01*
X340425006Y-139864494D01*
X340502731Y-140305294D01*
X340209652Y-140356972D01*
X340131927Y-139916172D01*
X340131927Y-139916172D01*
G37*
G04 #@! TD*
D15*
G04 #@! TO.C,D36*
X93235776Y-120498267D03*
D12*
G36*
X93128099Y-120252028D02*
G01*
X93421178Y-120303706D01*
X93343453Y-120744506D01*
X93050374Y-120692828D01*
X93128099Y-120252028D01*
X93128099Y-120252028D01*
G37*
D15*
X93600438Y-118430171D03*
D12*
G36*
X93492761Y-118183932D02*
G01*
X93785840Y-118235610D01*
X93708115Y-118676410D01*
X93415036Y-118624732D01*
X93492761Y-118183932D01*
X93492761Y-118183932D01*
G37*
G04 #@! TD*
D15*
G04 #@! TO.C,D35*
X112567328Y-120678829D03*
D12*
G36*
X112459651Y-120432590D02*
G01*
X112752730Y-120484268D01*
X112675005Y-120925068D01*
X112381926Y-120873390D01*
X112459651Y-120432590D01*
X112459651Y-120432590D01*
G37*
D15*
X112931990Y-118610733D03*
D12*
G36*
X112824313Y-118364494D02*
G01*
X113117392Y-118416172D01*
X113039667Y-118856972D01*
X112746588Y-118805294D01*
X112824313Y-118364494D01*
X112824313Y-118364494D01*
G37*
G04 #@! TD*
D15*
G04 #@! TO.C,D34*
X131892329Y-120853829D03*
D12*
G36*
X131784652Y-120607590D02*
G01*
X132077731Y-120659268D01*
X132000006Y-121100068D01*
X131706927Y-121048390D01*
X131784652Y-120607590D01*
X131784652Y-120607590D01*
G37*
D15*
X132256991Y-118785733D03*
D12*
G36*
X132149314Y-118539494D02*
G01*
X132442393Y-118591172D01*
X132364668Y-119031972D01*
X132071589Y-118980294D01*
X132149314Y-118539494D01*
X132149314Y-118539494D01*
G37*
G04 #@! TD*
D15*
G04 #@! TO.C,D33*
X151192329Y-121028829D03*
D12*
G36*
X151084652Y-120782590D02*
G01*
X151377731Y-120834268D01*
X151300006Y-121275068D01*
X151006927Y-121223390D01*
X151084652Y-120782590D01*
X151084652Y-120782590D01*
G37*
D15*
X151556991Y-118960733D03*
D12*
G36*
X151449314Y-118714494D02*
G01*
X151742393Y-118766172D01*
X151664668Y-119206972D01*
X151371589Y-119155294D01*
X151449314Y-118714494D01*
X151449314Y-118714494D01*
G37*
G04 #@! TD*
D15*
G04 #@! TO.C,D32*
X169392328Y-127478830D03*
D12*
G36*
X169284651Y-127232591D02*
G01*
X169577730Y-127284269D01*
X169500005Y-127725069D01*
X169206926Y-127673391D01*
X169284651Y-127232591D01*
X169284651Y-127232591D01*
G37*
D15*
X169756990Y-125410734D03*
D12*
G36*
X169649313Y-125164495D02*
G01*
X169942392Y-125216173D01*
X169864667Y-125656973D01*
X169571588Y-125605295D01*
X169649313Y-125164495D01*
X169649313Y-125164495D01*
G37*
G04 #@! TD*
D15*
G04 #@! TO.C,D31*
X188167330Y-130778829D03*
D12*
G36*
X188059653Y-130532590D02*
G01*
X188352732Y-130584268D01*
X188275007Y-131025068D01*
X187981928Y-130973390D01*
X188059653Y-130532590D01*
X188059653Y-130532590D01*
G37*
D15*
X188531992Y-128710733D03*
D12*
G36*
X188424315Y-128464494D02*
G01*
X188717394Y-128516172D01*
X188639669Y-128956972D01*
X188346590Y-128905294D01*
X188424315Y-128464494D01*
X188424315Y-128464494D01*
G37*
G04 #@! TD*
D15*
G04 #@! TO.C,D30*
X261781991Y-133503830D03*
D12*
G36*
X261596589Y-133309269D02*
G01*
X261889668Y-133257591D01*
X261967393Y-133698391D01*
X261674314Y-133750069D01*
X261596589Y-133309269D01*
X261596589Y-133309269D01*
G37*
D15*
X261417329Y-131435734D03*
D12*
G36*
X261231927Y-131241173D02*
G01*
X261525006Y-131189495D01*
X261602731Y-131630295D01*
X261309652Y-131681973D01*
X261231927Y-131241173D01*
X261231927Y-131241173D01*
G37*
G04 #@! TD*
D15*
G04 #@! TO.C,D29*
X280531991Y-130203830D03*
D12*
G36*
X280346589Y-130009269D02*
G01*
X280639668Y-129957591D01*
X280717393Y-130398391D01*
X280424314Y-130450069D01*
X280346589Y-130009269D01*
X280346589Y-130009269D01*
G37*
D15*
X280167329Y-128135734D03*
D12*
G36*
X279981927Y-127941173D02*
G01*
X280275006Y-127889495D01*
X280352731Y-128330295D01*
X280059652Y-128381973D01*
X279981927Y-127941173D01*
X279981927Y-127941173D01*
G37*
G04 #@! TD*
D15*
G04 #@! TO.C,D28*
X298756991Y-123753829D03*
D12*
G36*
X298571589Y-123559268D02*
G01*
X298864668Y-123507590D01*
X298942393Y-123948390D01*
X298649314Y-124000068D01*
X298571589Y-123559268D01*
X298571589Y-123559268D01*
G37*
D15*
X298392329Y-121685733D03*
D12*
G36*
X298206927Y-121491172D02*
G01*
X298500006Y-121439494D01*
X298577731Y-121880294D01*
X298284652Y-121931972D01*
X298206927Y-121491172D01*
X298206927Y-121491172D01*
G37*
G04 #@! TD*
D15*
G04 #@! TO.C,D27*
X318056991Y-123578829D03*
D12*
G36*
X317871589Y-123384268D02*
G01*
X318164668Y-123332590D01*
X318242393Y-123773390D01*
X317949314Y-123825068D01*
X317871589Y-123384268D01*
X317871589Y-123384268D01*
G37*
D15*
X317692329Y-121510733D03*
D12*
G36*
X317506927Y-121316172D02*
G01*
X317800006Y-121264494D01*
X317877731Y-121705294D01*
X317584652Y-121756972D01*
X317506927Y-121316172D01*
X317506927Y-121316172D01*
G37*
G04 #@! TD*
D15*
G04 #@! TO.C,D26*
X337381991Y-123403830D03*
D12*
G36*
X337196589Y-123209269D02*
G01*
X337489668Y-123157591D01*
X337567393Y-123598391D01*
X337274314Y-123650069D01*
X337196589Y-123209269D01*
X337196589Y-123209269D01*
G37*
D15*
X337017329Y-121335734D03*
D12*
G36*
X336831927Y-121141173D02*
G01*
X337125006Y-121089495D01*
X337202731Y-121530295D01*
X336909652Y-121581973D01*
X336831927Y-121141173D01*
X336831927Y-121141173D01*
G37*
G04 #@! TD*
D15*
G04 #@! TO.C,D25*
X356681991Y-123228829D03*
D12*
G36*
X356496589Y-123034268D02*
G01*
X356789668Y-122982590D01*
X356867393Y-123423390D01*
X356574314Y-123475068D01*
X356496589Y-123034268D01*
X356496589Y-123034268D01*
G37*
D15*
X356317329Y-121160733D03*
D12*
G36*
X356131927Y-120966172D02*
G01*
X356425006Y-120914494D01*
X356502731Y-121355294D01*
X356209652Y-121406972D01*
X356131927Y-120966172D01*
X356131927Y-120966172D01*
G37*
G04 #@! TD*
D15*
G04 #@! TO.C,D24*
X97747362Y-94703227D03*
D12*
G36*
X97639685Y-94456988D02*
G01*
X97932764Y-94508666D01*
X97855039Y-94949466D01*
X97561960Y-94897788D01*
X97639685Y-94456988D01*
X97639685Y-94456988D01*
G37*
D15*
X98112024Y-92635131D03*
D12*
G36*
X98004347Y-92388892D02*
G01*
X98297426Y-92440570D01*
X98219701Y-92881370D01*
X97926622Y-92829692D01*
X98004347Y-92388892D01*
X98004347Y-92388892D01*
G37*
G04 #@! TD*
D15*
G04 #@! TO.C,D23*
X114793174Y-107736200D03*
D12*
G36*
X114685497Y-107489961D02*
G01*
X114978576Y-107541639D01*
X114900851Y-107982439D01*
X114607772Y-107930761D01*
X114685497Y-107489961D01*
X114685497Y-107489961D01*
G37*
D15*
X115157836Y-105668104D03*
D12*
G36*
X115050159Y-105421865D02*
G01*
X115343238Y-105473543D01*
X115265513Y-105914343D01*
X114972434Y-105862665D01*
X115050159Y-105421865D01*
X115050159Y-105421865D01*
G37*
G04 #@! TD*
D15*
G04 #@! TO.C,D22*
X135192329Y-102103829D03*
D12*
G36*
X135084652Y-101857590D02*
G01*
X135377731Y-101909268D01*
X135300006Y-102350068D01*
X135006927Y-102298390D01*
X135084652Y-101857590D01*
X135084652Y-101857590D01*
G37*
D15*
X135556991Y-100035733D03*
D12*
G36*
X135449314Y-99789494D02*
G01*
X135742393Y-99841172D01*
X135664668Y-100281972D01*
X135371589Y-100230294D01*
X135449314Y-99789494D01*
X135449314Y-99789494D01*
G37*
G04 #@! TD*
D15*
G04 #@! TO.C,D21*
X154492329Y-102278830D03*
D12*
G36*
X154384652Y-102032591D02*
G01*
X154677731Y-102084269D01*
X154600006Y-102525069D01*
X154306927Y-102473391D01*
X154384652Y-102032591D01*
X154384652Y-102032591D01*
G37*
D15*
X154856991Y-100210734D03*
D12*
G36*
X154749314Y-99964495D02*
G01*
X155042393Y-100016173D01*
X154964668Y-100456973D01*
X154671589Y-100405295D01*
X154749314Y-99964495D01*
X154749314Y-99964495D01*
G37*
G04 #@! TD*
D15*
G04 #@! TO.C,D20*
X172717329Y-108703829D03*
D12*
G36*
X172609652Y-108457590D02*
G01*
X172902731Y-108509268D01*
X172825006Y-108950068D01*
X172531927Y-108898390D01*
X172609652Y-108457590D01*
X172609652Y-108457590D01*
G37*
D15*
X173081991Y-106635733D03*
D12*
G36*
X172974314Y-106389494D02*
G01*
X173267393Y-106441172D01*
X173189668Y-106881972D01*
X172896589Y-106830294D01*
X172974314Y-106389494D01*
X172974314Y-106389494D01*
G37*
G04 #@! TD*
D15*
G04 #@! TO.C,D19*
X191467330Y-112003829D03*
D12*
G36*
X191359653Y-111757590D02*
G01*
X191652732Y-111809268D01*
X191575007Y-112250068D01*
X191281928Y-112198390D01*
X191359653Y-111757590D01*
X191359653Y-111757590D01*
G37*
D15*
X191831992Y-109935733D03*
D12*
G36*
X191724315Y-109689494D02*
G01*
X192017394Y-109741172D01*
X191939669Y-110181972D01*
X191646590Y-110130294D01*
X191724315Y-109689494D01*
X191724315Y-109689494D01*
G37*
G04 #@! TD*
D15*
G04 #@! TO.C,D18*
X258606501Y-114854151D03*
D12*
G36*
X258421099Y-114659590D02*
G01*
X258714178Y-114607912D01*
X258791903Y-115048712D01*
X258498824Y-115100390D01*
X258421099Y-114659590D01*
X258421099Y-114659590D01*
G37*
D15*
X258241839Y-112786055D03*
D12*
G36*
X258056437Y-112591494D02*
G01*
X258349516Y-112539816D01*
X258427241Y-112980616D01*
X258134162Y-113032294D01*
X258056437Y-112591494D01*
X258056437Y-112591494D01*
G37*
G04 #@! TD*
D15*
G04 #@! TO.C,D17*
X277231991Y-111453830D03*
D12*
G36*
X277046589Y-111259269D02*
G01*
X277339668Y-111207591D01*
X277417393Y-111648391D01*
X277124314Y-111700069D01*
X277046589Y-111259269D01*
X277046589Y-111259269D01*
G37*
D15*
X276867329Y-109385734D03*
D12*
G36*
X276681927Y-109191173D02*
G01*
X276975006Y-109139495D01*
X277052731Y-109580295D01*
X276759652Y-109631973D01*
X276681927Y-109191173D01*
X276681927Y-109191173D01*
G37*
G04 #@! TD*
D15*
G04 #@! TO.C,D16*
X295456991Y-105003830D03*
D12*
G36*
X295271589Y-104809269D02*
G01*
X295564668Y-104757591D01*
X295642393Y-105198391D01*
X295349314Y-105250069D01*
X295271589Y-104809269D01*
X295271589Y-104809269D01*
G37*
D15*
X295092329Y-102935734D03*
D12*
G36*
X294906927Y-102741173D02*
G01*
X295200006Y-102689495D01*
X295277731Y-103130295D01*
X294984652Y-103181973D01*
X294906927Y-102741173D01*
X294906927Y-102741173D01*
G37*
G04 #@! TD*
D15*
G04 #@! TO.C,D15*
X314756992Y-104825098D03*
D12*
G36*
X314571590Y-104630537D02*
G01*
X314864669Y-104578859D01*
X314942394Y-105019659D01*
X314649315Y-105071337D01*
X314571590Y-104630537D01*
X314571590Y-104630537D01*
G37*
D15*
X314392330Y-102757002D03*
D12*
G36*
X314206928Y-102562441D02*
G01*
X314500007Y-102510763D01*
X314577732Y-102951563D01*
X314284653Y-103003241D01*
X314206928Y-102562441D01*
X314206928Y-102562441D01*
G37*
G04 #@! TD*
D15*
G04 #@! TO.C,D14*
X332998390Y-96908380D03*
D12*
G36*
X332812988Y-96713819D02*
G01*
X333106067Y-96662141D01*
X333183792Y-97102941D01*
X332890713Y-97154619D01*
X332812988Y-96713819D01*
X332812988Y-96713819D01*
G37*
D15*
X332633728Y-94840284D03*
D12*
G36*
X332448326Y-94645723D02*
G01*
X332741405Y-94594045D01*
X332819130Y-95034845D01*
X332526051Y-95086523D01*
X332448326Y-94645723D01*
X332448326Y-94645723D01*
G37*
G04 #@! TD*
D15*
G04 #@! TO.C,D13*
X371600098Y-102232560D03*
D12*
G36*
X371414696Y-102037999D02*
G01*
X371707775Y-101986321D01*
X371785500Y-102427121D01*
X371492421Y-102478799D01*
X371414696Y-102037999D01*
X371414696Y-102037999D01*
G37*
D15*
X371235436Y-100164464D03*
D12*
G36*
X371050034Y-99969903D02*
G01*
X371343113Y-99918225D01*
X371420838Y-100359025D01*
X371127759Y-100410703D01*
X371050034Y-99969903D01*
X371050034Y-99969903D01*
G37*
G04 #@! TD*
D15*
G04 #@! TO.C,D12*
X99866839Y-82954151D03*
D12*
G36*
X99759162Y-82707912D02*
G01*
X100052241Y-82759590D01*
X99974516Y-83200390D01*
X99681437Y-83148712D01*
X99759162Y-82707912D01*
X99759162Y-82707912D01*
G37*
D15*
X100231501Y-80886055D03*
D12*
G36*
X100123824Y-80639816D02*
G01*
X100416903Y-80691494D01*
X100339178Y-81132294D01*
X100046099Y-81080616D01*
X100123824Y-80639816D01*
X100123824Y-80639816D01*
G37*
G04 #@! TD*
D15*
G04 #@! TO.C,D11*
X119192329Y-83153830D03*
D12*
G36*
X119084652Y-82907591D02*
G01*
X119377731Y-82959269D01*
X119300006Y-83400069D01*
X119006927Y-83348391D01*
X119084652Y-82907591D01*
X119084652Y-82907591D01*
G37*
D15*
X119556991Y-81085734D03*
D12*
G36*
X119449314Y-80839495D02*
G01*
X119742393Y-80891173D01*
X119664668Y-81331973D01*
X119371589Y-81280295D01*
X119449314Y-80839495D01*
X119449314Y-80839495D01*
G37*
G04 #@! TD*
D15*
G04 #@! TO.C,D10*
X138492329Y-83328829D03*
D12*
G36*
X138384652Y-83082590D02*
G01*
X138677731Y-83134268D01*
X138600006Y-83575068D01*
X138306927Y-83523390D01*
X138384652Y-83082590D01*
X138384652Y-83082590D01*
G37*
D15*
X138856991Y-81260733D03*
D12*
G36*
X138749314Y-81014494D02*
G01*
X139042393Y-81066172D01*
X138964668Y-81506972D01*
X138671589Y-81455294D01*
X138749314Y-81014494D01*
X138749314Y-81014494D01*
G37*
G04 #@! TD*
D15*
G04 #@! TO.C,D9*
X157817330Y-83503829D03*
D12*
G36*
X157709653Y-83257590D02*
G01*
X158002732Y-83309268D01*
X157925007Y-83750068D01*
X157631928Y-83698390D01*
X157709653Y-83257590D01*
X157709653Y-83257590D01*
G37*
D15*
X158181992Y-81435733D03*
D12*
G36*
X158074315Y-81189494D02*
G01*
X158367394Y-81241172D01*
X158289669Y-81681972D01*
X157996590Y-81630294D01*
X158074315Y-81189494D01*
X158074315Y-81189494D01*
G37*
G04 #@! TD*
D15*
G04 #@! TO.C,D8*
X176017330Y-89953829D03*
D12*
G36*
X175909653Y-89707590D02*
G01*
X176202732Y-89759268D01*
X176125007Y-90200068D01*
X175831928Y-90148390D01*
X175909653Y-89707590D01*
X175909653Y-89707590D01*
G37*
D15*
X176381992Y-87885733D03*
D12*
G36*
X176274315Y-87639494D02*
G01*
X176567394Y-87691172D01*
X176489669Y-88131972D01*
X176196590Y-88080294D01*
X176274315Y-87639494D01*
X176274315Y-87639494D01*
G37*
G04 #@! TD*
D15*
G04 #@! TO.C,D7*
X194792329Y-93253829D03*
D12*
G36*
X194684652Y-93007590D02*
G01*
X194977731Y-93059268D01*
X194900006Y-93500068D01*
X194606927Y-93448390D01*
X194684652Y-93007590D01*
X194684652Y-93007590D01*
G37*
D15*
X195156991Y-91185733D03*
D12*
G36*
X195049314Y-90939494D02*
G01*
X195342393Y-90991172D01*
X195264668Y-91431972D01*
X194971589Y-91380294D01*
X195049314Y-90939494D01*
X195049314Y-90939494D01*
G37*
G04 #@! TD*
D15*
G04 #@! TO.C,D6*
X255281501Y-96104151D03*
D12*
G36*
X255096099Y-95909590D02*
G01*
X255389178Y-95857912D01*
X255466903Y-96298712D01*
X255173824Y-96350390D01*
X255096099Y-95909590D01*
X255096099Y-95909590D01*
G37*
D15*
X254916839Y-94036055D03*
D12*
G36*
X254731437Y-93841494D02*
G01*
X255024516Y-93789816D01*
X255102241Y-94230616D01*
X254809162Y-94282294D01*
X254731437Y-93841494D01*
X254731437Y-93841494D01*
G37*
G04 #@! TD*
D15*
G04 #@! TO.C,D5*
X274081501Y-92804151D03*
D12*
G36*
X273896099Y-92609590D02*
G01*
X274189178Y-92557912D01*
X274266903Y-92998712D01*
X273973824Y-93050390D01*
X273896099Y-92609590D01*
X273896099Y-92609590D01*
G37*
D15*
X273716839Y-90736055D03*
D12*
G36*
X273531437Y-90541494D02*
G01*
X273824516Y-90489816D01*
X273902241Y-90930616D01*
X273609162Y-90982294D01*
X273531437Y-90541494D01*
X273531437Y-90541494D01*
G37*
G04 #@! TD*
D15*
G04 #@! TO.C,D4*
X292281501Y-86379151D03*
D12*
G36*
X292096099Y-86184590D02*
G01*
X292389178Y-86132912D01*
X292466903Y-86573712D01*
X292173824Y-86625390D01*
X292096099Y-86184590D01*
X292096099Y-86184590D01*
G37*
D15*
X291916839Y-84311055D03*
D12*
G36*
X291731437Y-84116494D02*
G01*
X292024516Y-84064816D01*
X292102241Y-84505616D01*
X291809162Y-84557294D01*
X291731437Y-84116494D01*
X291731437Y-84116494D01*
G37*
G04 #@! TD*
D15*
G04 #@! TO.C,D3*
X311606501Y-86204151D03*
D12*
G36*
X311421099Y-86009590D02*
G01*
X311714178Y-85957912D01*
X311791903Y-86398712D01*
X311498824Y-86450390D01*
X311421099Y-86009590D01*
X311421099Y-86009590D01*
G37*
D15*
X311241839Y-84136055D03*
D12*
G36*
X311056437Y-83941494D02*
G01*
X311349516Y-83889816D01*
X311427241Y-84330616D01*
X311134162Y-84382294D01*
X311056437Y-83941494D01*
X311056437Y-83941494D01*
G37*
G04 #@! TD*
D15*
G04 #@! TO.C,D2*
X330956501Y-86029151D03*
D12*
G36*
X330771099Y-85834590D02*
G01*
X331064178Y-85782912D01*
X331141903Y-86223712D01*
X330848824Y-86275390D01*
X330771099Y-85834590D01*
X330771099Y-85834590D01*
G37*
D15*
X330591839Y-83961055D03*
D12*
G36*
X330406437Y-83766494D02*
G01*
X330699516Y-83714816D01*
X330777241Y-84155616D01*
X330484162Y-84207294D01*
X330406437Y-83766494D01*
X330406437Y-83766494D01*
G37*
G04 #@! TD*
D16*
G04 #@! TO.C,U6*
X350469170Y-73295103D03*
D17*
X348749170Y-73295103D03*
X348749170Y-75495103D03*
X350649170Y-75495103D03*
G04 #@! TD*
D18*
G04 #@! TO.C,SW2*
X345274630Y-78587233D03*
D12*
G36*
X344297871Y-79951370D02*
G01*
X343890214Y-77639435D01*
X346251389Y-77223096D01*
X346659046Y-79535031D01*
X344297871Y-79951370D01*
X344297871Y-79951370D01*
G37*
D18*
X331597747Y-78419653D03*
D12*
G36*
X330620988Y-79783790D02*
G01*
X330213331Y-77471855D01*
X332574506Y-77055516D01*
X332982163Y-79367451D01*
X330620988Y-79783790D01*
X330620988Y-79783790D01*
G37*
G04 #@! TD*
D18*
G04 #@! TO.C,SW8*
X192034789Y-87894515D03*
D12*
G36*
X190650373Y-88842313D02*
G01*
X191058030Y-86530378D01*
X193419205Y-86946717D01*
X193011548Y-89258652D01*
X190650373Y-88842313D01*
X190650373Y-88842313D01*
G37*
D18*
X179240040Y-83059272D03*
D12*
G36*
X177855624Y-84007070D02*
G01*
X178263281Y-81695135D01*
X180624456Y-82111474D01*
X180216799Y-84423409D01*
X177855624Y-84007070D01*
X177855624Y-84007070D01*
G37*
G04 #@! TD*
D18*
G04 #@! TO.C,SW3*
X325962709Y-78768468D03*
D12*
G36*
X324985950Y-80132605D02*
G01*
X324578293Y-77820670D01*
X326939468Y-77404331D01*
X327347125Y-79716266D01*
X324985950Y-80132605D01*
X324985950Y-80132605D01*
G37*
D18*
X312285826Y-78600888D03*
D12*
G36*
X311309067Y-79965025D02*
G01*
X310901410Y-77653090D01*
X313262585Y-77236751D01*
X313670242Y-79548686D01*
X311309067Y-79965025D01*
X311309067Y-79965025D01*
G37*
G04 #@! TD*
D18*
G04 #@! TO.C,SW20*
X188726793Y-106655101D03*
D12*
G36*
X187342377Y-107602899D02*
G01*
X187750034Y-105290964D01*
X190111209Y-105707303D01*
X189703552Y-108019238D01*
X187342377Y-107602899D01*
X187342377Y-107602899D01*
G37*
D18*
X175932044Y-101819858D03*
D12*
G36*
X174547628Y-102767656D02*
G01*
X174955285Y-100455721D01*
X177316460Y-100872060D01*
X176908803Y-103183995D01*
X174547628Y-102767656D01*
X174547628Y-102767656D01*
G37*
G04 #@! TD*
D18*
G04 #@! TO.C,SW31*
X204179382Y-128723688D03*
D12*
G36*
X202794966Y-129671486D02*
G01*
X203202623Y-127359551D01*
X205563798Y-127775890D01*
X205156141Y-130087825D01*
X202794966Y-129671486D01*
X202794966Y-129671486D01*
G37*
D18*
X191384633Y-123888445D03*
D12*
G36*
X190000217Y-124836243D02*
G01*
X190407874Y-122524308D01*
X192769049Y-122940647D01*
X192361392Y-125252582D01*
X190000217Y-124836243D01*
X190000217Y-124836243D01*
G37*
G04 #@! TD*
D18*
G04 #@! TO.C,SW32*
X185418796Y-125415692D03*
D12*
G36*
X184034380Y-126363490D02*
G01*
X184442037Y-124051555D01*
X186803212Y-124467894D01*
X186395555Y-126779829D01*
X184034380Y-126363490D01*
X184034380Y-126363490D01*
G37*
D18*
X172624047Y-120580449D03*
D12*
G36*
X171239631Y-121528247D02*
G01*
X171647288Y-119216312D01*
X174008463Y-119632651D01*
X173600806Y-121944586D01*
X171239631Y-121528247D01*
X171239631Y-121528247D01*
G37*
G04 #@! TD*
D18*
G04 #@! TO.C,SW34*
X147897619Y-118799696D03*
D12*
G36*
X146513203Y-119747494D02*
G01*
X146920860Y-117435559D01*
X149282035Y-117851898D01*
X148874378Y-120163833D01*
X146513203Y-119747494D01*
X146513203Y-119747494D01*
G37*
D18*
X135102870Y-113964453D03*
D12*
G36*
X133718454Y-114912251D02*
G01*
X134126111Y-112600316D01*
X136487286Y-113016655D01*
X136079629Y-115328590D01*
X133718454Y-114912251D01*
X133718454Y-114912251D01*
G37*
G04 #@! TD*
D18*
G04 #@! TO.C,SW42*
X255401377Y-137288415D03*
D12*
G36*
X255237547Y-138958172D02*
G01*
X253728539Y-137159806D01*
X255565207Y-135618658D01*
X257074215Y-137417024D01*
X255237547Y-138958172D01*
X255237547Y-138958172D01*
G37*
D18*
X243473059Y-143981728D03*
D12*
G36*
X243309229Y-145651485D02*
G01*
X241800221Y-143853119D01*
X243636889Y-142311971D01*
X245145897Y-144110337D01*
X243309229Y-145651485D01*
X243309229Y-145651485D01*
G37*
G04 #@! TD*
D18*
G04 #@! TO.C,SW47*
X144038288Y-140687048D03*
D12*
G36*
X142653872Y-141634846D02*
G01*
X143061529Y-139322911D01*
X145422704Y-139739250D01*
X145015047Y-142051185D01*
X142653872Y-141634846D01*
X142653872Y-141634846D01*
G37*
D18*
X131243539Y-135851805D03*
D12*
G36*
X129859123Y-136799603D02*
G01*
X130266780Y-134487668D01*
X132627955Y-134904007D01*
X132220298Y-137215942D01*
X129859123Y-136799603D01*
X129859123Y-136799603D01*
G37*
G04 #@! TD*
D18*
G04 #@! TO.C,SW6*
X269680945Y-88692460D03*
D12*
G36*
X268704186Y-90056597D02*
G01*
X268296529Y-87744662D01*
X270657704Y-87328323D01*
X271065361Y-89640258D01*
X268704186Y-90056597D01*
X268704186Y-90056597D01*
G37*
D18*
X256004062Y-88524880D03*
D12*
G36*
X255027303Y-89889017D02*
G01*
X254619646Y-87577082D01*
X256980821Y-87160743D01*
X257388478Y-89472678D01*
X255027303Y-89889017D01*
X255027303Y-89889017D01*
G37*
G04 #@! TD*
D18*
G04 #@! TO.C,SW9*
X173825534Y-81459753D03*
D12*
G36*
X172441118Y-82407551D02*
G01*
X172848775Y-80095616D01*
X175209950Y-80511955D01*
X174802293Y-82823890D01*
X172441118Y-82407551D01*
X172441118Y-82407551D01*
G37*
D18*
X161030785Y-76624510D03*
D12*
G36*
X159646369Y-77572308D02*
G01*
X160054026Y-75260373D01*
X162415201Y-75676712D01*
X162007544Y-77988647D01*
X159646369Y-77572308D01*
X159646369Y-77572308D01*
G37*
G04 #@! TD*
D18*
G04 #@! TO.C,SW7*
X210795378Y-91202513D03*
D12*
G36*
X209410962Y-92150311D02*
G01*
X209818619Y-89838376D01*
X212179794Y-90254715D01*
X211772137Y-92566650D01*
X209410962Y-92150311D01*
X209410962Y-92150311D01*
G37*
D18*
X198000629Y-86367270D03*
D12*
G36*
X196616213Y-87315068D02*
G01*
X197023870Y-85003133D01*
X199385045Y-85419472D01*
X198977388Y-87731407D01*
X196616213Y-87315068D01*
X196616213Y-87315068D01*
G37*
G04 #@! TD*
D18*
G04 #@! TO.C,SW19*
X207487380Y-109963101D03*
D12*
G36*
X206102964Y-110910899D02*
G01*
X206510621Y-108598964D01*
X208871796Y-109015303D01*
X208464139Y-111327238D01*
X206102964Y-110910899D01*
X206102964Y-110910899D01*
G37*
D18*
X194692631Y-105127858D03*
D12*
G36*
X193308215Y-106075656D02*
G01*
X193715872Y-103763721D01*
X196077047Y-104180060D01*
X195669390Y-106491995D01*
X193308215Y-106075656D01*
X193308215Y-106075656D01*
G37*
G04 #@! TD*
D18*
G04 #@! TO.C,SW12*
X115879048Y-80869956D03*
D12*
G36*
X114494632Y-81817754D02*
G01*
X114902289Y-79505819D01*
X117263464Y-79922158D01*
X116855807Y-82234093D01*
X114494632Y-81817754D01*
X114494632Y-81817754D01*
G37*
D18*
X103084299Y-76034713D03*
D12*
G36*
X101699883Y-76982511D02*
G01*
X102107540Y-74670576D01*
X104468715Y-75086915D01*
X104061058Y-77398850D01*
X101699883Y-76982511D01*
X101699883Y-76982511D01*
G37*
G04 #@! TD*
D18*
G04 #@! TO.C,SW5*
X288441534Y-85384461D03*
D12*
G36*
X287464775Y-86748598D02*
G01*
X287057118Y-84436663D01*
X289418293Y-84020324D01*
X289825950Y-86332259D01*
X287464775Y-86748598D01*
X287464775Y-86748598D01*
G37*
D18*
X274764651Y-85216881D03*
D12*
G36*
X273787892Y-86581018D02*
G01*
X273380235Y-84269083D01*
X275741410Y-83852744D01*
X276149067Y-86164679D01*
X273787892Y-86581018D01*
X273787892Y-86581018D01*
G37*
G04 #@! TD*
D18*
G04 #@! TO.C,SW10*
X154513615Y-81278519D03*
D12*
G36*
X153129199Y-82226317D02*
G01*
X153536856Y-79914382D01*
X155898031Y-80330721D01*
X155490374Y-82642656D01*
X153129199Y-82226317D01*
X153129199Y-82226317D01*
G37*
D18*
X141718866Y-76443276D03*
D12*
G36*
X140334450Y-77391074D02*
G01*
X140742107Y-75079139D01*
X143103282Y-75495478D01*
X142695625Y-77807413D01*
X140334450Y-77391074D01*
X140334450Y-77391074D01*
G37*
G04 #@! TD*
D18*
G04 #@! TO.C,SW13*
X354300006Y-104722040D03*
D12*
G36*
X355276765Y-103357903D02*
G01*
X355684422Y-105669838D01*
X353323247Y-106086177D01*
X352915590Y-103774242D01*
X355276765Y-103357903D01*
X355276765Y-103357903D01*
G37*
D18*
X367976889Y-104889620D03*
D12*
G36*
X368953648Y-103525483D02*
G01*
X369361305Y-105837418D01*
X367000130Y-106253757D01*
X366592473Y-103941822D01*
X368953648Y-103525483D01*
X368953648Y-103525483D01*
G37*
G04 #@! TD*
D18*
G04 #@! TO.C,SW16*
X309958786Y-97710287D03*
D12*
G36*
X308982027Y-99074424D02*
G01*
X308574370Y-96762489D01*
X310935545Y-96346150D01*
X311343202Y-98658085D01*
X308982027Y-99074424D01*
X308982027Y-99074424D01*
G37*
D18*
X296281903Y-97542707D03*
D12*
G36*
X295305144Y-98906844D02*
G01*
X294897487Y-96594909D01*
X297258662Y-96178570D01*
X297666319Y-98490505D01*
X295305144Y-98906844D01*
X295305144Y-98906844D01*
G37*
G04 #@! TD*
D18*
G04 #@! TO.C,SW17*
X291749530Y-104145049D03*
D12*
G36*
X290772771Y-105509186D02*
G01*
X290365114Y-103197251D01*
X292726289Y-102780912D01*
X293133946Y-105092847D01*
X290772771Y-105509186D01*
X290772771Y-105509186D01*
G37*
D18*
X278072647Y-103977469D03*
D12*
G36*
X277095888Y-105341606D02*
G01*
X276688231Y-103029671D01*
X279049406Y-102613332D01*
X279457063Y-104925267D01*
X277095888Y-105341606D01*
X277095888Y-105341606D01*
G37*
G04 #@! TD*
D18*
G04 #@! TO.C,SW21*
X170517537Y-100220340D03*
D12*
G36*
X169133121Y-101168138D02*
G01*
X169540778Y-98856203D01*
X171901953Y-99272542D01*
X171494296Y-101584477D01*
X169133121Y-101168138D01*
X169133121Y-101168138D01*
G37*
D18*
X157722788Y-95385097D03*
D12*
G36*
X156338372Y-96332895D02*
G01*
X156746029Y-94020960D01*
X159107204Y-94437299D01*
X158699547Y-96749234D01*
X156338372Y-96332895D01*
X156338372Y-96332895D01*
G37*
G04 #@! TD*
D18*
G04 #@! TO.C,SW18*
X272988943Y-107453049D03*
D12*
G36*
X272012184Y-108817186D02*
G01*
X271604527Y-106505251D01*
X273965702Y-106088912D01*
X274373359Y-108400847D01*
X272012184Y-108817186D01*
X272012184Y-108817186D01*
G37*
D18*
X259312060Y-107285469D03*
D12*
G36*
X258335301Y-108649606D02*
G01*
X257927644Y-106337671D01*
X260288819Y-105921332D01*
X260696476Y-108233267D01*
X258335301Y-108649606D01*
X258335301Y-108649606D01*
G37*
G04 #@! TD*
D18*
G04 #@! TO.C,SW22*
X151205619Y-100039105D03*
D12*
G36*
X149821203Y-100986903D02*
G01*
X150228860Y-98674968D01*
X152590035Y-99091307D01*
X152182378Y-101403242D01*
X149821203Y-100986903D01*
X149821203Y-100986903D01*
G37*
D18*
X138410870Y-95203862D03*
D12*
G36*
X137026454Y-96151660D02*
G01*
X137434111Y-93839725D01*
X139795286Y-94256064D01*
X139387629Y-96567999D01*
X137026454Y-96151660D01*
X137026454Y-96151660D01*
G37*
G04 #@! TD*
D18*
G04 #@! TO.C,SW29*
X295057530Y-122905637D03*
D12*
G36*
X294080771Y-124269774D02*
G01*
X293673114Y-121957839D01*
X296034289Y-121541500D01*
X296441946Y-123853435D01*
X294080771Y-124269774D01*
X294080771Y-124269774D01*
G37*
D18*
X281380647Y-122738057D03*
D12*
G36*
X280403888Y-124102194D02*
G01*
X279996231Y-121790259D01*
X282357406Y-121373920D01*
X282765063Y-123685855D01*
X280403888Y-124102194D01*
X280403888Y-124102194D01*
G37*
G04 #@! TD*
D18*
G04 #@! TO.C,SW33*
X167209538Y-118980929D03*
D12*
G36*
X165825122Y-119928727D02*
G01*
X166232779Y-117616792D01*
X168593954Y-118033131D01*
X168186297Y-120345066D01*
X165825122Y-119928727D01*
X165825122Y-119928727D01*
G37*
D18*
X154414789Y-114145686D03*
D12*
G36*
X153030373Y-115093484D02*
G01*
X153438030Y-112781549D01*
X155799205Y-113197888D01*
X155391548Y-115509823D01*
X153030373Y-115093484D01*
X153030373Y-115093484D01*
G37*
G04 #@! TD*
D18*
G04 #@! TO.C,SW37*
X355198622Y-134868997D03*
D12*
G36*
X354221863Y-136233134D02*
G01*
X353814206Y-133921199D01*
X356175381Y-133504860D01*
X356583038Y-135816795D01*
X354221863Y-136233134D01*
X354221863Y-136233134D01*
G37*
D18*
X341521739Y-134701417D03*
D12*
G36*
X340544980Y-136065554D02*
G01*
X340137323Y-133753619D01*
X342498498Y-133337280D01*
X342906155Y-135649215D01*
X340544980Y-136065554D01*
X340544980Y-136065554D01*
G37*
G04 #@! TD*
D18*
G04 #@! TO.C,SW39*
X317677449Y-141484991D03*
D12*
G36*
X316700690Y-142849128D02*
G01*
X316293033Y-140537193D01*
X318654208Y-140120854D01*
X319061865Y-142432789D01*
X316700690Y-142849128D01*
X316700690Y-142849128D01*
G37*
D18*
X304000566Y-141317411D03*
D12*
G36*
X303023807Y-142681548D02*
G01*
X302616150Y-140369613D01*
X304977325Y-139953274D01*
X305384982Y-142265209D01*
X303023807Y-142681548D01*
X303023807Y-142681548D01*
G37*
G04 #@! TD*
D18*
G04 #@! TO.C,SW46*
X162798877Y-143995045D03*
D12*
G36*
X161414461Y-144942843D02*
G01*
X161822118Y-142630908D01*
X164183293Y-143047247D01*
X163775636Y-145359182D01*
X161414461Y-144942843D01*
X161414461Y-144942843D01*
G37*
D18*
X150004128Y-139159802D03*
D12*
G36*
X148619712Y-140107600D02*
G01*
X149027369Y-137795665D01*
X151388544Y-138212004D01*
X150980887Y-140523939D01*
X148619712Y-140107600D01*
X148619712Y-140107600D01*
G37*
G04 #@! TD*
D18*
G04 #@! TO.C,SW41*
X273997613Y-146463621D03*
D12*
G36*
X273833783Y-148133378D02*
G01*
X272324775Y-146335012D01*
X274161443Y-144793864D01*
X275670451Y-146592230D01*
X273833783Y-148133378D01*
X273833783Y-148133378D01*
G37*
D18*
X262069295Y-153156934D03*
D12*
G36*
X261905465Y-154826691D02*
G01*
X260396457Y-153028325D01*
X262233125Y-151487177D01*
X263742133Y-153285543D01*
X261905465Y-154826691D01*
X261905465Y-154826691D01*
G37*
G04 #@! TD*
D18*
G04 #@! TO.C,SW26*
X351890625Y-116108409D03*
D12*
G36*
X350913866Y-117472546D02*
G01*
X350506209Y-115160611D01*
X352867384Y-114744272D01*
X353275041Y-117056207D01*
X350913866Y-117472546D01*
X350913866Y-117472546D01*
G37*
D18*
X338213742Y-115940829D03*
D12*
G36*
X337236983Y-117304966D02*
G01*
X336829326Y-114993031D01*
X339190501Y-114576692D01*
X339598158Y-116888627D01*
X337236983Y-117304966D01*
X337236983Y-117304966D01*
G37*
G04 #@! TD*
D18*
G04 #@! TO.C,SW27*
X332578705Y-116289641D03*
D12*
G36*
X331601946Y-117653778D02*
G01*
X331194289Y-115341843D01*
X333555464Y-114925504D01*
X333963121Y-117237439D01*
X331601946Y-117653778D01*
X331601946Y-117653778D01*
G37*
D18*
X318901822Y-116122061D03*
D12*
G36*
X317925063Y-117486198D02*
G01*
X317517406Y-115174263D01*
X319878581Y-114757924D01*
X320286238Y-117069859D01*
X317925063Y-117486198D01*
X317925063Y-117486198D01*
G37*
G04 #@! TD*
D18*
G04 #@! TO.C,SW28*
X313266785Y-116470874D03*
D12*
G36*
X312290026Y-117835011D02*
G01*
X311882369Y-115523076D01*
X314243544Y-115106737D01*
X314651201Y-117418672D01*
X312290026Y-117835011D01*
X312290026Y-117835011D01*
G37*
D18*
X299589902Y-116303294D03*
D12*
G36*
X298613143Y-117667431D02*
G01*
X298205486Y-115355496D01*
X300566661Y-114939157D01*
X300974318Y-117251092D01*
X298613143Y-117667431D01*
X298613143Y-117667431D01*
G37*
G04 #@! TD*
D18*
G04 #@! TO.C,SW30*
X276296940Y-126213634D03*
D12*
G36*
X275320181Y-127577771D02*
G01*
X274912524Y-125265836D01*
X277273699Y-124849497D01*
X277681356Y-127161432D01*
X275320181Y-127577771D01*
X275320181Y-127577771D01*
G37*
D18*
X262620057Y-126046054D03*
D12*
G36*
X261643298Y-127410191D02*
G01*
X261235641Y-125098256D01*
X263596816Y-124681917D01*
X264004473Y-126993852D01*
X261643298Y-127410191D01*
X261643298Y-127410191D01*
G37*
G04 #@! TD*
D18*
G04 #@! TO.C,SW38*
X336438036Y-138176994D03*
D12*
G36*
X335461277Y-139541131D02*
G01*
X335053620Y-137229196D01*
X337414795Y-136812857D01*
X337822452Y-139124792D01*
X335461277Y-139541131D01*
X335461277Y-139541131D01*
G37*
D18*
X322761153Y-138009414D03*
D12*
G36*
X321784394Y-139373551D02*
G01*
X321376737Y-137061616D01*
X323737912Y-136645277D01*
X324145569Y-138957212D01*
X321784394Y-139373551D01*
X321784394Y-139373551D01*
G37*
G04 #@! TD*
D18*
G04 #@! TO.C,SW45*
X181559462Y-147303044D03*
D12*
G36*
X180175046Y-148250842D02*
G01*
X180582703Y-145938907D01*
X182943878Y-146355246D01*
X182536221Y-148667181D01*
X180175046Y-148250842D01*
X180175046Y-148250842D01*
G37*
D18*
X168764713Y-142467801D03*
D12*
G36*
X167380297Y-143415599D02*
G01*
X167787954Y-141103664D01*
X170149129Y-141520003D01*
X169741472Y-143831938D01*
X167380297Y-143415599D01*
X167380297Y-143415599D01*
G37*
G04 #@! TD*
D18*
G04 #@! TO.C,SW43*
X221806867Y-146736734D03*
D12*
G36*
X220134029Y-146865343D02*
G01*
X221643037Y-145066977D01*
X223479705Y-146608125D01*
X221970697Y-148406491D01*
X220134029Y-146865343D01*
X220134029Y-146865343D01*
G37*
D18*
X213143910Y-136151916D03*
D12*
G36*
X211471072Y-136280525D02*
G01*
X212980080Y-134482159D01*
X214816748Y-136023307D01*
X213307740Y-137821673D01*
X211471072Y-136280525D01*
X211471072Y-136280525D01*
G37*
G04 #@! TD*
D18*
G04 #@! TO.C,SW35*
X128585700Y-118618463D03*
D12*
G36*
X127201284Y-119566261D02*
G01*
X127608941Y-117254326D01*
X129970116Y-117670665D01*
X129562459Y-119982600D01*
X127201284Y-119566261D01*
X127201284Y-119566261D01*
G37*
D18*
X115790951Y-113783220D03*
D12*
G36*
X114406535Y-114731018D02*
G01*
X114814192Y-112419083D01*
X117175367Y-112835422D01*
X116767710Y-115147357D01*
X114406535Y-114731018D01*
X114406535Y-114731018D01*
G37*
G04 #@! TD*
D18*
G04 #@! TO.C,SW48*
X125277700Y-137379049D03*
D12*
G36*
X123893284Y-138326847D02*
G01*
X124300941Y-136014912D01*
X126662116Y-136431251D01*
X126254459Y-138743186D01*
X123893284Y-138326847D01*
X123893284Y-138326847D01*
G37*
D18*
X112482951Y-132543806D03*
D12*
G36*
X111098535Y-133491604D02*
G01*
X111506192Y-131179669D01*
X113867367Y-131596008D01*
X113459710Y-133907943D01*
X111098535Y-133491604D01*
X111098535Y-133491604D01*
G37*
G04 #@! TD*
D18*
G04 #@! TO.C,SW11*
X135201694Y-81097288D03*
D12*
G36*
X133817278Y-82045086D02*
G01*
X134224935Y-79733151D01*
X136586110Y-80149490D01*
X136178453Y-82461425D01*
X133817278Y-82045086D01*
X133817278Y-82045086D01*
G37*
D18*
X122406945Y-76262045D03*
D12*
G36*
X121022529Y-77209843D02*
G01*
X121430186Y-74897908D01*
X123791361Y-75314247D01*
X123383704Y-77626182D01*
X121022529Y-77209843D01*
X121022529Y-77209843D01*
G37*
G04 #@! TD*
D18*
G04 #@! TO.C,SW4*
X306650787Y-78949699D03*
D12*
G36*
X305674028Y-80313836D02*
G01*
X305266371Y-78001901D01*
X307627546Y-77585562D01*
X308035203Y-79897497D01*
X305674028Y-80313836D01*
X305674028Y-80313836D01*
G37*
D18*
X292973904Y-78782119D03*
D12*
G36*
X291997145Y-80146256D02*
G01*
X291589488Y-77834321D01*
X293950663Y-77417982D01*
X294358320Y-79729917D01*
X291997145Y-80146256D01*
X291997145Y-80146256D01*
G37*
G04 #@! TD*
D18*
G04 #@! TO.C,SW15*
X329270707Y-97529052D03*
D12*
G36*
X328293948Y-98893189D02*
G01*
X327886291Y-96581254D01*
X330247466Y-96164915D01*
X330655123Y-98476850D01*
X328293948Y-98893189D01*
X328293948Y-98893189D01*
G37*
D18*
X315593824Y-97361472D03*
D12*
G36*
X314617065Y-98725609D02*
G01*
X314209408Y-96413674D01*
X316570583Y-95997335D01*
X316978240Y-98309270D01*
X314617065Y-98725609D01*
X314617065Y-98725609D01*
G37*
G04 #@! TD*
D18*
G04 #@! TO.C,SW40*
X298916861Y-144792989D03*
D12*
G36*
X297940102Y-146157126D02*
G01*
X297532445Y-143845191D01*
X299893620Y-143428852D01*
X300301277Y-145740787D01*
X297940102Y-146157126D01*
X297940102Y-146157126D01*
G37*
D18*
X285239978Y-144625409D03*
D12*
G36*
X284263219Y-145989546D02*
G01*
X283855562Y-143677611D01*
X286216737Y-143261272D01*
X286624394Y-145573207D01*
X284263219Y-145989546D01*
X284263219Y-145989546D01*
G37*
G04 #@! TD*
D18*
G04 #@! TO.C,SW44*
X203262967Y-155910581D03*
D12*
G36*
X201590129Y-156039190D02*
G01*
X203099137Y-154240824D01*
X204935805Y-155781972D01*
X203426797Y-157580338D01*
X201590129Y-156039190D01*
X201590129Y-156039190D01*
G37*
D18*
X194600010Y-145325763D03*
D12*
G36*
X192927172Y-145454372D02*
G01*
X194436180Y-143656006D01*
X196272848Y-145197154D01*
X194763840Y-146995520D01*
X192927172Y-145454372D01*
X192927172Y-145454372D01*
G37*
G04 #@! TD*
D18*
G04 #@! TO.C,SW1*
X351092006Y-85911453D03*
D12*
G36*
X352068765Y-84547316D02*
G01*
X352476422Y-86859251D01*
X350115247Y-87275590D01*
X349707590Y-84963655D01*
X352068765Y-84547316D01*
X352068765Y-84547316D01*
G37*
D18*
X364768889Y-86079033D03*
D12*
G36*
X365745648Y-84714896D02*
G01*
X366153305Y-87026831D01*
X363792130Y-87443170D01*
X363384473Y-85131235D01*
X365745648Y-84714896D01*
X365745648Y-84714896D01*
G37*
G04 #@! TD*
D19*
G04 #@! TO.C,SW_RESET2*
X240449645Y-91255051D03*
X227009645Y-88715051D03*
G04 #@! TD*
D18*
G04 #@! TO.C,SW25*
X357525666Y-115759596D03*
D12*
G36*
X356548907Y-117123733D02*
G01*
X356141250Y-114811798D01*
X358502425Y-114395459D01*
X358910082Y-116707394D01*
X356548907Y-117123733D01*
X356548907Y-117123733D01*
G37*
D18*
X371202549Y-115927176D03*
D12*
G36*
X370225790Y-117291313D02*
G01*
X369818133Y-114979378D01*
X372179308Y-114563039D01*
X372586965Y-116874974D01*
X370225790Y-117291313D01*
X370225790Y-117291313D01*
G37*
G04 #@! TD*
D18*
G04 #@! TO.C,SW14*
X348664967Y-105070852D03*
D12*
G36*
X349641726Y-103706715D02*
G01*
X350049383Y-106018650D01*
X347688208Y-106434989D01*
X347280551Y-104123054D01*
X349641726Y-103706715D01*
X349641726Y-103706715D01*
G37*
D18*
X334988084Y-104903272D03*
D12*
G36*
X335964843Y-103539135D02*
G01*
X336372500Y-105851070D01*
X334011325Y-106267409D01*
X333603668Y-103955474D01*
X335964843Y-103539135D01*
X335964843Y-103539135D01*
G37*
G04 #@! TD*
D18*
G04 #@! TO.C,SW23*
X119098948Y-95022632D03*
D12*
G36*
X117714532Y-95970430D02*
G01*
X118122189Y-93658495D01*
X120483364Y-94074834D01*
X120075707Y-96386769D01*
X117714532Y-95970430D01*
X117714532Y-95970430D01*
G37*
D18*
X131893697Y-99857875D03*
D12*
G36*
X130509281Y-100805673D02*
G01*
X130916938Y-98493738D01*
X133278113Y-98910077D01*
X132870456Y-101222012D01*
X130509281Y-100805673D01*
X130509281Y-100805673D01*
G37*
G04 #@! TD*
D18*
G04 #@! TO.C,SW24*
X110017717Y-106962080D03*
D12*
G36*
X111402133Y-106014282D02*
G01*
X110994476Y-108326217D01*
X108633301Y-107909878D01*
X109040958Y-105597943D01*
X111402133Y-106014282D01*
X111402133Y-106014282D01*
G37*
D18*
X97222968Y-102126837D03*
D12*
G36*
X98607384Y-101179039D02*
G01*
X98199727Y-103490974D01*
X95838552Y-103074635D01*
X96246209Y-100762700D01*
X98607384Y-101179039D01*
X98607384Y-101179039D01*
G37*
G04 #@! TD*
D18*
G04 #@! TO.C,SW36*
X96479030Y-113601987D03*
D12*
G36*
X95094614Y-114549785D02*
G01*
X95502271Y-112237850D01*
X97863446Y-112654189D01*
X97455789Y-114966124D01*
X95094614Y-114549785D01*
X95094614Y-114549785D01*
G37*
D18*
X109273779Y-118437230D03*
D12*
G36*
X107889363Y-119385028D02*
G01*
X108297020Y-117073093D01*
X110658195Y-117489432D01*
X110250538Y-119801367D01*
X107889363Y-119385028D01*
X107889363Y-119385028D01*
G37*
G04 #@! TD*
G04 #@! TO.C,J2*
G36*
X365551113Y-72097354D02*
G01*
X365572299Y-72100497D01*
X365593075Y-72105701D01*
X365613241Y-72112916D01*
X365632603Y-72122074D01*
X365650974Y-72133085D01*
X365668177Y-72145843D01*
X365684046Y-72160227D01*
X365698430Y-72176096D01*
X365711188Y-72193299D01*
X365722199Y-72211670D01*
X365731357Y-72231032D01*
X365738572Y-72251198D01*
X365743776Y-72271974D01*
X365746919Y-72293160D01*
X365747970Y-72314552D01*
X365747970Y-73525654D01*
X365746919Y-73547046D01*
X365743776Y-73568232D01*
X365738572Y-73589008D01*
X365731357Y-73609174D01*
X365722199Y-73628536D01*
X365711188Y-73646907D01*
X365698430Y-73664110D01*
X365684046Y-73679979D01*
X365668177Y-73694363D01*
X365650974Y-73707121D01*
X365632603Y-73718132D01*
X365613241Y-73727290D01*
X365593075Y-73734505D01*
X365572299Y-73739709D01*
X365551113Y-73742852D01*
X365529721Y-73743903D01*
X364918619Y-73743903D01*
X364897227Y-73742852D01*
X364876041Y-73739709D01*
X364855265Y-73734505D01*
X364835099Y-73727290D01*
X364815737Y-73718132D01*
X364797366Y-73707121D01*
X364780163Y-73694363D01*
X364764294Y-73679979D01*
X364749910Y-73664110D01*
X364737152Y-73646907D01*
X364726141Y-73628536D01*
X364716983Y-73609174D01*
X364709768Y-73589008D01*
X364704564Y-73568232D01*
X364701421Y-73547046D01*
X364700370Y-73525654D01*
X364700370Y-72314552D01*
X364701421Y-72293160D01*
X364704564Y-72271974D01*
X364709768Y-72251198D01*
X364716983Y-72231032D01*
X364726141Y-72211670D01*
X364737152Y-72193299D01*
X364749910Y-72176096D01*
X364764294Y-72160227D01*
X364780163Y-72145843D01*
X364797366Y-72133085D01*
X364815737Y-72122074D01*
X364835099Y-72112916D01*
X364855265Y-72105701D01*
X364876041Y-72100497D01*
X364897227Y-72097354D01*
X364918619Y-72096303D01*
X365529721Y-72096303D01*
X365551113Y-72097354D01*
X365551113Y-72097354D01*
G37*
D20*
X365224170Y-72920103D03*
D12*
G36*
X371151113Y-72097354D02*
G01*
X371172299Y-72100497D01*
X371193075Y-72105701D01*
X371213241Y-72112916D01*
X371232603Y-72122074D01*
X371250974Y-72133085D01*
X371268177Y-72145843D01*
X371284046Y-72160227D01*
X371298430Y-72176096D01*
X371311188Y-72193299D01*
X371322199Y-72211670D01*
X371331357Y-72231032D01*
X371338572Y-72251198D01*
X371343776Y-72271974D01*
X371346919Y-72293160D01*
X371347970Y-72314552D01*
X371347970Y-73525654D01*
X371346919Y-73547046D01*
X371343776Y-73568232D01*
X371338572Y-73589008D01*
X371331357Y-73609174D01*
X371322199Y-73628536D01*
X371311188Y-73646907D01*
X371298430Y-73664110D01*
X371284046Y-73679979D01*
X371268177Y-73694363D01*
X371250974Y-73707121D01*
X371232603Y-73718132D01*
X371213241Y-73727290D01*
X371193075Y-73734505D01*
X371172299Y-73739709D01*
X371151113Y-73742852D01*
X371129721Y-73743903D01*
X370518619Y-73743903D01*
X370497227Y-73742852D01*
X370476041Y-73739709D01*
X370455265Y-73734505D01*
X370435099Y-73727290D01*
X370415737Y-73718132D01*
X370397366Y-73707121D01*
X370380163Y-73694363D01*
X370364294Y-73679979D01*
X370349910Y-73664110D01*
X370337152Y-73646907D01*
X370326141Y-73628536D01*
X370316983Y-73609174D01*
X370309768Y-73589008D01*
X370304564Y-73568232D01*
X370301421Y-73547046D01*
X370300370Y-73525654D01*
X370300370Y-72314552D01*
X370301421Y-72293160D01*
X370304564Y-72271974D01*
X370309768Y-72251198D01*
X370316983Y-72231032D01*
X370326141Y-72211670D01*
X370337152Y-72193299D01*
X370349910Y-72176096D01*
X370364294Y-72160227D01*
X370380163Y-72145843D01*
X370397366Y-72133085D01*
X370415737Y-72122074D01*
X370435099Y-72112916D01*
X370455265Y-72105701D01*
X370476041Y-72100497D01*
X370497227Y-72097354D01*
X370518619Y-72096303D01*
X371129721Y-72096303D01*
X371151113Y-72097354D01*
X371151113Y-72097354D01*
G37*
D20*
X370824170Y-72920103D03*
D12*
G36*
X366647038Y-76096842D02*
G01*
X366657901Y-76098453D01*
X366668553Y-76101121D01*
X366678892Y-76104821D01*
X366688819Y-76109516D01*
X366698238Y-76115162D01*
X366707059Y-76121703D01*
X366715195Y-76129078D01*
X366722570Y-76137214D01*
X366729111Y-76146035D01*
X366734757Y-76155454D01*
X366739452Y-76165381D01*
X366743152Y-76175720D01*
X366745820Y-76186372D01*
X366747431Y-76197235D01*
X366747970Y-76208203D01*
X366747970Y-77382003D01*
X366747431Y-77392971D01*
X366745820Y-77403834D01*
X366743152Y-77414486D01*
X366739452Y-77424825D01*
X366734757Y-77434752D01*
X366729111Y-77444171D01*
X366722570Y-77452992D01*
X366715195Y-77461128D01*
X366707059Y-77468503D01*
X366698238Y-77475044D01*
X366688819Y-77480690D01*
X366678892Y-77485385D01*
X366668553Y-77489085D01*
X366657901Y-77491753D01*
X366647038Y-77493364D01*
X366636070Y-77493903D01*
X366412270Y-77493903D01*
X366401302Y-77493364D01*
X366390439Y-77491753D01*
X366379787Y-77489085D01*
X366369448Y-77485385D01*
X366359521Y-77480690D01*
X366350102Y-77475044D01*
X366341281Y-77468503D01*
X366333145Y-77461128D01*
X366325770Y-77452992D01*
X366319229Y-77444171D01*
X366313583Y-77434752D01*
X366308888Y-77424825D01*
X366305188Y-77414486D01*
X366302520Y-77403834D01*
X366300909Y-77392971D01*
X366300370Y-77382003D01*
X366300370Y-76208203D01*
X366300909Y-76197235D01*
X366302520Y-76186372D01*
X366305188Y-76175720D01*
X366308888Y-76165381D01*
X366313583Y-76155454D01*
X366319229Y-76146035D01*
X366325770Y-76137214D01*
X366333145Y-76129078D01*
X366341281Y-76121703D01*
X366350102Y-76115162D01*
X366359521Y-76109516D01*
X366369448Y-76104821D01*
X366379787Y-76101121D01*
X366390439Y-76098453D01*
X366401302Y-76096842D01*
X366412270Y-76096303D01*
X366636070Y-76096303D01*
X366647038Y-76096842D01*
X366647038Y-76096842D01*
G37*
D21*
X366524170Y-76795103D03*
D12*
G36*
X367647038Y-76096842D02*
G01*
X367657901Y-76098453D01*
X367668553Y-76101121D01*
X367678892Y-76104821D01*
X367688819Y-76109516D01*
X367698238Y-76115162D01*
X367707059Y-76121703D01*
X367715195Y-76129078D01*
X367722570Y-76137214D01*
X367729111Y-76146035D01*
X367734757Y-76155454D01*
X367739452Y-76165381D01*
X367743152Y-76175720D01*
X367745820Y-76186372D01*
X367747431Y-76197235D01*
X367747970Y-76208203D01*
X367747970Y-77382003D01*
X367747431Y-77392971D01*
X367745820Y-77403834D01*
X367743152Y-77414486D01*
X367739452Y-77424825D01*
X367734757Y-77434752D01*
X367729111Y-77444171D01*
X367722570Y-77452992D01*
X367715195Y-77461128D01*
X367707059Y-77468503D01*
X367698238Y-77475044D01*
X367688819Y-77480690D01*
X367678892Y-77485385D01*
X367668553Y-77489085D01*
X367657901Y-77491753D01*
X367647038Y-77493364D01*
X367636070Y-77493903D01*
X367412270Y-77493903D01*
X367401302Y-77493364D01*
X367390439Y-77491753D01*
X367379787Y-77489085D01*
X367369448Y-77485385D01*
X367359521Y-77480690D01*
X367350102Y-77475044D01*
X367341281Y-77468503D01*
X367333145Y-77461128D01*
X367325770Y-77452992D01*
X367319229Y-77444171D01*
X367313583Y-77434752D01*
X367308888Y-77424825D01*
X367305188Y-77414486D01*
X367302520Y-77403834D01*
X367300909Y-77392971D01*
X367300370Y-77382003D01*
X367300370Y-76208203D01*
X367300909Y-76197235D01*
X367302520Y-76186372D01*
X367305188Y-76175720D01*
X367308888Y-76165381D01*
X367313583Y-76155454D01*
X367319229Y-76146035D01*
X367325770Y-76137214D01*
X367333145Y-76129078D01*
X367341281Y-76121703D01*
X367350102Y-76115162D01*
X367359521Y-76109516D01*
X367369448Y-76104821D01*
X367379787Y-76101121D01*
X367390439Y-76098453D01*
X367401302Y-76096842D01*
X367412270Y-76096303D01*
X367636070Y-76096303D01*
X367647038Y-76096842D01*
X367647038Y-76096842D01*
G37*
D21*
X367524170Y-76795103D03*
D12*
G36*
X368647038Y-76096842D02*
G01*
X368657901Y-76098453D01*
X368668553Y-76101121D01*
X368678892Y-76104821D01*
X368688819Y-76109516D01*
X368698238Y-76115162D01*
X368707059Y-76121703D01*
X368715195Y-76129078D01*
X368722570Y-76137214D01*
X368729111Y-76146035D01*
X368734757Y-76155454D01*
X368739452Y-76165381D01*
X368743152Y-76175720D01*
X368745820Y-76186372D01*
X368747431Y-76197235D01*
X368747970Y-76208203D01*
X368747970Y-77382003D01*
X368747431Y-77392971D01*
X368745820Y-77403834D01*
X368743152Y-77414486D01*
X368739452Y-77424825D01*
X368734757Y-77434752D01*
X368729111Y-77444171D01*
X368722570Y-77452992D01*
X368715195Y-77461128D01*
X368707059Y-77468503D01*
X368698238Y-77475044D01*
X368688819Y-77480690D01*
X368678892Y-77485385D01*
X368668553Y-77489085D01*
X368657901Y-77491753D01*
X368647038Y-77493364D01*
X368636070Y-77493903D01*
X368412270Y-77493903D01*
X368401302Y-77493364D01*
X368390439Y-77491753D01*
X368379787Y-77489085D01*
X368369448Y-77485385D01*
X368359521Y-77480690D01*
X368350102Y-77475044D01*
X368341281Y-77468503D01*
X368333145Y-77461128D01*
X368325770Y-77452992D01*
X368319229Y-77444171D01*
X368313583Y-77434752D01*
X368308888Y-77424825D01*
X368305188Y-77414486D01*
X368302520Y-77403834D01*
X368300909Y-77392971D01*
X368300370Y-77382003D01*
X368300370Y-76208203D01*
X368300909Y-76197235D01*
X368302520Y-76186372D01*
X368305188Y-76175720D01*
X368308888Y-76165381D01*
X368313583Y-76155454D01*
X368319229Y-76146035D01*
X368325770Y-76137214D01*
X368333145Y-76129078D01*
X368341281Y-76121703D01*
X368350102Y-76115162D01*
X368359521Y-76109516D01*
X368369448Y-76104821D01*
X368379787Y-76101121D01*
X368390439Y-76098453D01*
X368401302Y-76096842D01*
X368412270Y-76096303D01*
X368636070Y-76096303D01*
X368647038Y-76096842D01*
X368647038Y-76096842D01*
G37*
D21*
X368524170Y-76795103D03*
D12*
G36*
X369647038Y-76096842D02*
G01*
X369657901Y-76098453D01*
X369668553Y-76101121D01*
X369678892Y-76104821D01*
X369688819Y-76109516D01*
X369698238Y-76115162D01*
X369707059Y-76121703D01*
X369715195Y-76129078D01*
X369722570Y-76137214D01*
X369729111Y-76146035D01*
X369734757Y-76155454D01*
X369739452Y-76165381D01*
X369743152Y-76175720D01*
X369745820Y-76186372D01*
X369747431Y-76197235D01*
X369747970Y-76208203D01*
X369747970Y-77382003D01*
X369747431Y-77392971D01*
X369745820Y-77403834D01*
X369743152Y-77414486D01*
X369739452Y-77424825D01*
X369734757Y-77434752D01*
X369729111Y-77444171D01*
X369722570Y-77452992D01*
X369715195Y-77461128D01*
X369707059Y-77468503D01*
X369698238Y-77475044D01*
X369688819Y-77480690D01*
X369678892Y-77485385D01*
X369668553Y-77489085D01*
X369657901Y-77491753D01*
X369647038Y-77493364D01*
X369636070Y-77493903D01*
X369412270Y-77493903D01*
X369401302Y-77493364D01*
X369390439Y-77491753D01*
X369379787Y-77489085D01*
X369369448Y-77485385D01*
X369359521Y-77480690D01*
X369350102Y-77475044D01*
X369341281Y-77468503D01*
X369333145Y-77461128D01*
X369325770Y-77452992D01*
X369319229Y-77444171D01*
X369313583Y-77434752D01*
X369308888Y-77424825D01*
X369305188Y-77414486D01*
X369302520Y-77403834D01*
X369300909Y-77392971D01*
X369300370Y-77382003D01*
X369300370Y-76208203D01*
X369300909Y-76197235D01*
X369302520Y-76186372D01*
X369305188Y-76175720D01*
X369308888Y-76165381D01*
X369313583Y-76155454D01*
X369319229Y-76146035D01*
X369325770Y-76137214D01*
X369333145Y-76129078D01*
X369341281Y-76121703D01*
X369350102Y-76115162D01*
X369359521Y-76109516D01*
X369369448Y-76104821D01*
X369379787Y-76101121D01*
X369390439Y-76098453D01*
X369401302Y-76096842D01*
X369412270Y-76096303D01*
X369636070Y-76096303D01*
X369647038Y-76096842D01*
X369647038Y-76096842D01*
G37*
D21*
X369524170Y-76795103D03*
G04 #@! TD*
D22*
G04 #@! TO.C,C5*
X222599661Y-120978781D03*
X222599661Y-123010781D03*
G04 #@! TD*
D23*
G04 #@! TO.C,J1*
X354074645Y-77490053D03*
X360524645Y-77490053D03*
X354849645Y-77490053D03*
X359749645Y-77490053D03*
D24*
X359049645Y-77490053D03*
X355549645Y-77490053D03*
X358549645Y-77490052D03*
X356049645Y-77490053D03*
X358049645Y-77490054D03*
X356549645Y-77490053D03*
X357049645Y-77490053D03*
X357549645Y-77490053D03*
G04 #@! TD*
D22*
G04 #@! TO.C,C2*
X229774660Y-138703781D03*
X229774660Y-140735781D03*
G04 #@! TD*
G04 #@! TO.C,C3*
X242824660Y-123703781D03*
X242824660Y-125735781D03*
G04 #@! TD*
G04 #@! TO.C,C4*
X242849660Y-132910781D03*
X242849660Y-130878781D03*
G04 #@! TD*
D25*
G04 #@! TO.C,C7*
X232383645Y-119395052D03*
X234415645Y-119395052D03*
G04 #@! TD*
D26*
G04 #@! TO.C,Y1*
X222499645Y-126720052D03*
X222499645Y-127920052D03*
X222499645Y-129120052D03*
G04 #@! TD*
M02*
