G04 #@! TF.GenerationSoftware,KiCad,Pcbnew,(6.0.0-rc1-dev-1469-g932b9a334)*
G04 #@! TF.CreationDate,2019-10-20T15:35:18-07:00
G04 #@! TF.ProjectId,Laptreus-v2,4c617074-7265-4757-932d-76322e6b6963,rev?*
G04 #@! TF.SameCoordinates,Original*
G04 #@! TF.FileFunction,Profile,NP*
%FSLAX46Y46*%
G04 Gerber Fmt 4.6, Leading zero omitted, Abs format (unit mm)*
G04 Created by KiCad (PCBNEW (6.0.0-rc1-dev-1469-g932b9a334)) date Sunday, October 20, 2019 at 03:35:18 PM*
%MOMM*%
%LPD*%
G04 APERTURE LIST*
G04 #@! TA.AperFunction,NonConductor*
%ADD10C,0.300000*%
G04 #@! TD*
G04 APERTURE END LIST*
D10*
G04 #@! TO.C,BOARD1*
X373499645Y-166195053D02*
X92499645Y-166195053D01*
X92499645Y-71595053D02*
X351299645Y-71595053D01*
X373499645Y-71595053D02*
G75*
G02X375499645Y-73595053I0J-2000000D01*
G01*
X375499645Y-164195053D02*
G75*
G02X373499645Y-166195053I-2000000J0D01*
G01*
X92499645Y-166195053D02*
G75*
G02X90499645Y-164195053I0J2000000D01*
G01*
X90499645Y-73595053D02*
G75*
G02X92499645Y-71595053I2000000J0D01*
G01*
X375499645Y-164195053D02*
X375499645Y-129495053D01*
X375499645Y-129495053D02*
X371699645Y-129495053D01*
X370299645Y-128095053D02*
G75*
G02X371699645Y-126695053I1400000J0D01*
G01*
X371699645Y-126695053D02*
X375499645Y-126695053D01*
X375499645Y-126695053D02*
X375499645Y-73595053D01*
X95699645Y-128095053D02*
G75*
G03X94299645Y-126695053I-1400000J0D01*
G01*
X94299645Y-129495053D02*
G75*
G03X95699645Y-128095053I0J1400000D01*
G01*
X90499645Y-129495053D02*
X90499645Y-164195053D01*
X90499645Y-126695053D02*
X90499645Y-73595053D01*
X94299645Y-129495053D02*
X90499645Y-129495053D01*
X94299645Y-126695053D02*
X90499645Y-126695053D01*
X371699645Y-129495053D02*
G75*
G02X370299645Y-128095053I0J1400000D01*
G01*
X362799645Y-71095053D02*
X351799645Y-71095053D01*
X363299645Y-71595053D02*
G75*
G02X362799645Y-71095053I0J500000D01*
G01*
X351799645Y-71095053D02*
G75*
G02X351299645Y-71595053I-500000J0D01*
G01*
X373499645Y-71595053D02*
X363299645Y-71595053D01*
G04 #@! TD*
M02*
