M48
; DRILL file {KiCad (6.0.0-rc1-dev-1469-g932b9a334)} date Sunday, October 20, 2019 at 03:35:28 PM
; FORMAT={-:-/ absolute / metric / decimal}
; #@! TF.CreationDate,2019-10-20T15:35:28-07:00
; #@! TF.GenerationSoftware,Kicad,Pcbnew,(6.0.0-rc1-dev-1469-g932b9a334)
; #@! TF.FileFunction,NonPlated,1,2,NPTH
FMAT,2
METRIC
T1C0.650
T2C1.670
T3C3.000
T4C3.980
%
G90
G05
T1
X354.41Y-76.045
X360.19Y-76.045
T2
X333.475Y-83.247
X343.48Y-81.483
X179.353Y-88.237
X189.358Y-90.002
X131.356Y-141.03
X141.362Y-142.794
X198.113Y-91.545
X208.119Y-93.31
X154.527Y-119.324
X164.533Y-121.088
X343.399Y-139.529
X353.404Y-137.765
X324.638Y-142.837
X334.644Y-141.073
X210.652Y-140.693
X218.435Y-147.223
X119.211Y-100.201
X129.217Y-101.965
X191.497Y-129.067
X201.503Y-130.831
X103.197Y-81.213
X113.202Y-82.977
X138.523Y-100.382
X148.529Y-102.146
X150.117Y-144.338
X160.122Y-146.102
X320.779Y-120.95
X330.784Y-119.185
X301.467Y-121.131
X311.472Y-119.366
X294.851Y-83.61
X304.856Y-81.845
X287.117Y-149.453
X297.122Y-147.689
X192.108Y-149.866
X199.891Y-156.397
X228.02Y-93.795
X238.18Y-93.795
X359.402Y-120.587
X369.408Y-118.823
X336.783Y-102.008
X346.788Y-100.243
X276.641Y-90.044
X286.647Y-88.28
X141.831Y-81.621
X151.837Y-83.386
X176.045Y-106.998
X186.05Y-108.762
X314.163Y-83.428
X324.168Y-81.664
X172.737Y-125.759
X182.742Y-127.523
X135.215Y-119.143
X145.221Y-120.907
X247.512Y-147.224
X255.295Y-140.693
X257.881Y-93.352
X267.886Y-91.588
X161.143Y-81.803
X171.149Y-83.567
X194.805Y-110.306
X204.811Y-112.07
X279.949Y-108.805
X289.955Y-107.041
X157.835Y-100.563
X167.841Y-102.328
X261.189Y-112.113
X271.194Y-110.349
X283.257Y-127.565
X293.263Y-125.801
X266.108Y-156.399
X273.891Y-149.869
X264.497Y-130.873
X274.502Y-129.109
X168.877Y-147.646
X178.883Y-149.41
X115.903Y-118.961
X125.909Y-120.726
X352.886Y-83.016
X362.892Y-81.252
X356.094Y-101.826
X366.1Y-100.062
X298.159Y-102.37
X308.164Y-100.606
X305.877Y-146.145
X315.883Y-144.381
X340.091Y-120.768
X350.096Y-119.004
X112.595Y-137.722
X122.601Y-139.486
X122.519Y-81.44
X132.525Y-83.205
X317.471Y-102.189
X327.476Y-100.425
X99.9Y-100.02
X109.905Y-101.784
X96.592Y-118.78
X106.597Y-120.544
T3
X335.094Y-77.803
X341.788Y-79.202
X182.736Y-83.676
X188.549Y-87.28
X134.74Y-136.468
X140.552Y-140.072
X201.497Y-86.984
X207.309Y-90.588
X157.911Y-114.762
X163.723Y-118.366
X345.018Y-134.085
X351.712Y-135.484
X326.257Y-137.393
X332.952Y-138.792
X215.863Y-138.434
X219.095Y-144.461
X122.595Y-95.639
X128.407Y-99.243
X194.881Y-124.505
X200.693Y-128.109
X106.58Y-76.651
X112.393Y-80.255
X141.907Y-95.82
X147.719Y-99.424
X153.5Y-139.776
X159.313Y-143.38
X322.398Y-115.506
X329.092Y-116.904
X303.086Y-115.687
X309.781Y-117.086
X296.47Y-78.166
X303.165Y-79.564
X288.736Y-144.009
X295.431Y-145.408
X197.319Y-147.608
X200.551Y-153.635
X230.56Y-88.715
X236.91Y-91.255
X361.022Y-115.143
X367.716Y-116.542
X338.474Y-104.289
X345.169Y-105.687
X278.261Y-84.6
X284.955Y-85.999
X145.215Y-77.06
X151.027Y-80.664
X179.428Y-102.436
X185.241Y-106.04
X315.782Y-77.984
X322.476Y-79.383
X176.12Y-121.197
X181.933Y-124.801
X138.599Y-114.581
X144.411Y-118.185
X246.193Y-141.7
X252.69Y-139.564
X259.5Y-87.908
X266.195Y-89.307
X164.527Y-77.241
X170.339Y-80.845
X198.189Y-105.744
X204.001Y-109.348
X281.569Y-103.361
X288.263Y-104.76
X161.219Y-96.002
X167.031Y-99.606
X262.808Y-106.669
X269.503Y-108.068
X284.877Y-122.122
X291.571Y-123.52
X264.789Y-150.875
X271.286Y-148.739
X266.116Y-125.43
X272.811Y-126.828
X172.261Y-143.084
X178.073Y-146.688
X119.287Y-114.4
X125.099Y-118.004
X354.578Y-85.297
X361.273Y-86.695
X357.786Y-104.107
X364.481Y-105.506
X299.778Y-96.926
X306.473Y-98.325
X307.497Y-140.701
X314.191Y-142.1
X341.71Y-115.324
X348.404Y-116.723
X115.979Y-133.16
X121.791Y-136.764
X125.903Y-76.878
X131.715Y-80.483
X319.09Y-96.745
X325.784Y-98.144
X100.709Y-102.742
X106.522Y-106.346
X99.975Y-114.218
X105.788Y-117.823
T4
X338.477Y-82.365
X184.355Y-89.12
X136.359Y-141.912
X203.116Y-92.428
X159.53Y-120.206
X348.401Y-138.647
X329.641Y-141.955
X214.544Y-143.958
X124.214Y-101.083
X196.5Y-129.949
X108.2Y-82.095
X143.526Y-101.264
X155.119Y-145.22
X325.781Y-120.067
X306.47Y-120.249
X299.854Y-82.727
X292.12Y-148.571
X196.0Y-153.132
X233.1Y-93.795
X364.405Y-119.705
X341.785Y-101.126
X281.644Y-89.162
X146.834Y-82.504
X181.047Y-107.88
X319.165Y-82.546
X177.739Y-126.641
X140.218Y-120.025
X251.404Y-143.959
X262.884Y-92.47
X166.146Y-82.685
X199.808Y-111.188
X284.952Y-107.923
X162.838Y-101.445
X266.192Y-111.231
X288.26Y-126.683
X270.0Y-153.134
X269.5Y-129.991
X173.88Y-148.528
X120.906Y-119.844
X357.889Y-82.134
X361.097Y-100.944
X303.162Y-101.488
X310.88Y-145.263
X345.093Y-119.886
X117.598Y-138.604
X127.522Y-82.322
X322.473Y-101.307
X104.902Y-100.902
X101.594Y-119.662
T0
M30
