G04 #@! TF.GenerationSoftware,KiCad,Pcbnew,(6.0.0-rc1-dev-1469-g932b9a334)*
G04 #@! TF.CreationDate,2019-10-20T15:35:18-07:00
G04 #@! TF.ProjectId,Laptreus-v2,4c617074-7265-4757-932d-76322e6b6963,rev?*
G04 #@! TF.SameCoordinates,Original*
G04 #@! TF.FileFunction,Other,User*
%FSLAX46Y46*%
G04 Gerber Fmt 4.6, Leading zero omitted, Abs format (unit mm)*
G04 Created by KiCad (PCBNEW (6.0.0-rc1-dev-1469-g932b9a334)) date Sunday, October 20, 2019 at 03:35:18 PM*
%MOMM*%
%LPD*%
G04 APERTURE LIST*
%ADD10C,0.050000*%
G04 APERTURE END LIST*
D10*
G04 #@! TO.C,J3*
X370524170Y-81945103D02*
X370524170Y-79645103D01*
X365524170Y-81945103D02*
X370524170Y-81945103D01*
X365524170Y-79645103D02*
X365524170Y-81945103D01*
X370524170Y-79645103D02*
X365524170Y-79645103D01*
G04 #@! TO.C,J4*
X370524170Y-80070103D02*
X370524170Y-77770103D01*
X365524170Y-80070103D02*
X370524170Y-80070103D01*
X365524170Y-77770103D02*
X365524170Y-80070103D01*
X370524170Y-77770103D02*
X365524170Y-77770103D01*
G04 #@! TO.C,IC1*
X239699646Y-121598532D02*
X226299646Y-121598532D01*
X239699646Y-134998532D02*
X226299646Y-134998532D01*
X239699646Y-121598532D02*
X239699646Y-134998532D01*
X226299646Y-121598532D02*
X226299646Y-134998532D01*
G04 #@! TO.C,F1*
X347174170Y-77520103D02*
X351074170Y-77520103D01*
X351074170Y-77520103D02*
X351074170Y-83420103D01*
X351074170Y-83420103D02*
X347174170Y-83420103D01*
X347174170Y-83420103D02*
X347174170Y-77520103D01*
G04 #@! TO.C,R13*
X230904170Y-97625103D02*
X227944170Y-97625103D01*
X230904170Y-96165103D02*
X230904170Y-97625103D01*
X227944170Y-96165103D02*
X230904170Y-96165103D01*
X227944170Y-97625103D02*
X227944170Y-96165103D01*
G04 #@! TO.C,R12*
X370694170Y-83490103D02*
X373654170Y-83490103D01*
X370694170Y-84950103D02*
X370694170Y-83490103D01*
X373654170Y-84950103D02*
X370694170Y-84950103D01*
X373654170Y-83490103D02*
X373654170Y-84950103D01*
G04 #@! TO.C,R11*
X373654170Y-82700103D02*
X370694170Y-82700103D01*
X373654170Y-81240103D02*
X373654170Y-82700103D01*
X370694170Y-81240103D02*
X373654170Y-81240103D01*
X370694170Y-82700103D02*
X370694170Y-81240103D01*
G04 #@! TO.C,R10*
X236979170Y-138240103D02*
X236979170Y-141200103D01*
X235519170Y-138240103D02*
X236979170Y-138240103D01*
X235519170Y-141200103D02*
X235519170Y-138240103D01*
X236979170Y-141200103D02*
X235519170Y-141200103D01*
G04 #@! TO.C,R9*
X344819170Y-74515103D02*
X347779170Y-74515103D01*
X344819170Y-75975103D02*
X344819170Y-74515103D01*
X347779170Y-75975103D02*
X344819170Y-75975103D01*
X347779170Y-74515103D02*
X347779170Y-75975103D01*
G04 #@! TO.C,R8*
X347779170Y-74375103D02*
X344819170Y-74375103D01*
X347779170Y-72915103D02*
X347779170Y-74375103D01*
X344819170Y-72915103D02*
X347779170Y-72915103D01*
X344819170Y-74375103D02*
X344819170Y-72915103D01*
G04 #@! TO.C,R1*
X238379660Y-97624781D02*
X235419660Y-97624781D01*
X238379660Y-96164781D02*
X238379660Y-97624781D01*
X235419660Y-96164781D02*
X238379660Y-96164781D01*
X235419660Y-97624781D02*
X235419660Y-96164781D01*
G04 #@! TO.C,D1*
X368965294Y-82341489D02*
X367094161Y-82671420D01*
X367094161Y-82671420D02*
X367649834Y-85822805D01*
X369520967Y-85492874D02*
X367649834Y-85822805D01*
X368965294Y-82341489D02*
X369520967Y-85492874D01*
G04 #@! TO.C,D48*
X110663065Y-136984054D02*
X108791932Y-136654123D01*
X108791932Y-136654123D02*
X108236257Y-139805508D01*
X110107390Y-140135439D02*
X108236257Y-139805508D01*
X110663065Y-136984054D02*
X110107390Y-140135439D01*
G04 #@! TO.C,D47*
X129413064Y-140309054D02*
X127541931Y-139979123D01*
X127541931Y-139979123D02*
X126986256Y-143130508D01*
X128857389Y-143460439D02*
X126986256Y-143130508D01*
X129413064Y-140309054D02*
X128857389Y-143460439D01*
G04 #@! TO.C,D46*
X148188065Y-143609054D02*
X146316932Y-143279123D01*
X146316932Y-143279123D02*
X145761257Y-146430508D01*
X147632390Y-146760439D02*
X145761257Y-146430508D01*
X148188065Y-143609054D02*
X147632390Y-146760439D01*
G04 #@! TO.C,D45*
X166938064Y-146909054D02*
X165066931Y-146579123D01*
X165066931Y-146579123D02*
X164511256Y-149730508D01*
X166382389Y-150060439D02*
X164511256Y-149730508D01*
X166938064Y-146909054D02*
X166382389Y-150060439D01*
G04 #@! TO.C,D44*
X190805372Y-148205080D02*
X189349889Y-146983784D01*
X189349889Y-146983784D02*
X187292968Y-149435126D01*
X188748451Y-150656422D02*
X187292968Y-149435126D01*
X190805372Y-148205080D02*
X188748451Y-150656422D01*
G04 #@! TO.C,D43*
X209731017Y-138431948D02*
X208330191Y-137148327D01*
X208330191Y-137148327D02*
X206168301Y-139507614D01*
X207569127Y-140791235D02*
X206168301Y-139507614D01*
X209731017Y-138431948D02*
X207569127Y-140791235D01*
G04 #@! TO.C,D42*
X245593639Y-148248649D02*
X244192813Y-149532269D01*
X244192813Y-149532269D02*
X246354701Y-151891557D01*
X247755527Y-150607937D02*
X246354701Y-151891557D01*
X245593639Y-148248649D02*
X247755527Y-150607937D01*
G04 #@! TO.C,D41*
X264248452Y-157433784D02*
X262792968Y-158655079D01*
X262792968Y-158655079D02*
X264849888Y-161106422D01*
X266305372Y-159885127D02*
X264849888Y-161106422D01*
X264248452Y-157433784D02*
X266305372Y-159885127D01*
G04 #@! TO.C,D40*
X284882391Y-149304123D02*
X283011258Y-149634054D01*
X283011258Y-149634054D02*
X283566931Y-152785439D01*
X285438064Y-152455508D02*
X283566931Y-152785439D01*
X284882391Y-149304123D02*
X285438064Y-152455508D01*
G04 #@! TO.C,D39*
X303632390Y-146004123D02*
X301761257Y-146334054D01*
X301761257Y-146334054D02*
X302316930Y-149485439D01*
X304188063Y-149155508D02*
X302316930Y-149485439D01*
X303632390Y-146004123D02*
X304188063Y-149155508D01*
G04 #@! TO.C,D38*
X322414283Y-142700393D02*
X320543150Y-143030324D01*
X320543150Y-143030324D02*
X321098823Y-146181709D01*
X322969956Y-145851778D02*
X321098823Y-146181709D01*
X322414283Y-142700393D02*
X322969956Y-145851778D01*
G04 #@! TO.C,D37*
X341157390Y-139404123D02*
X339286257Y-139734054D01*
X339286257Y-139734054D02*
X339841930Y-142885439D01*
X341713063Y-142555508D02*
X339841930Y-142885439D01*
X341157390Y-139404123D02*
X341713063Y-142555508D01*
G04 #@! TO.C,D36*
X94631511Y-118053492D02*
X92760378Y-117723561D01*
X92760378Y-117723561D02*
X92204703Y-120874946D01*
X94075836Y-121204877D02*
X92204703Y-120874946D01*
X94631511Y-118053492D02*
X94075836Y-121204877D01*
G04 #@! TO.C,D35*
X113963063Y-118234054D02*
X112091930Y-117904123D01*
X112091930Y-117904123D02*
X111536255Y-121055508D01*
X113407388Y-121385439D02*
X111536255Y-121055508D01*
X113963063Y-118234054D02*
X113407388Y-121385439D01*
G04 #@! TO.C,D34*
X133288064Y-118409054D02*
X131416931Y-118079123D01*
X131416931Y-118079123D02*
X130861256Y-121230508D01*
X132732389Y-121560439D02*
X130861256Y-121230508D01*
X133288064Y-118409054D02*
X132732389Y-121560439D01*
G04 #@! TO.C,D33*
X152588064Y-118584054D02*
X150716931Y-118254123D01*
X150716931Y-118254123D02*
X150161256Y-121405508D01*
X152032389Y-121735439D02*
X150161256Y-121405508D01*
X152588064Y-118584054D02*
X152032389Y-121735439D01*
G04 #@! TO.C,D32*
X170788063Y-125034055D02*
X168916930Y-124704124D01*
X168916930Y-124704124D02*
X168361255Y-127855509D01*
X170232388Y-128185440D02*
X168361255Y-127855509D01*
X170788063Y-125034055D02*
X170232388Y-128185440D01*
G04 #@! TO.C,D31*
X189563065Y-128334054D02*
X187691932Y-128004123D01*
X187691932Y-128004123D02*
X187136257Y-131155508D01*
X189007390Y-131485439D02*
X187136257Y-131155508D01*
X189563065Y-128334054D02*
X189007390Y-131485439D01*
G04 #@! TO.C,D30*
X262257390Y-130729124D02*
X260386257Y-131059055D01*
X260386257Y-131059055D02*
X260941930Y-134210440D01*
X262813063Y-133880509D02*
X260941930Y-134210440D01*
X262257390Y-130729124D02*
X262813063Y-133880509D01*
G04 #@! TO.C,D29*
X281007390Y-127429124D02*
X279136257Y-127759055D01*
X279136257Y-127759055D02*
X279691930Y-130910440D01*
X281563063Y-130580509D02*
X279691930Y-130910440D01*
X281007390Y-127429124D02*
X281563063Y-130580509D01*
G04 #@! TO.C,D28*
X299232390Y-120979123D02*
X297361257Y-121309054D01*
X297361257Y-121309054D02*
X297916930Y-124460439D01*
X299788063Y-124130508D02*
X297916930Y-124460439D01*
X299232390Y-120979123D02*
X299788063Y-124130508D01*
G04 #@! TO.C,D27*
X318532390Y-120804123D02*
X316661257Y-121134054D01*
X316661257Y-121134054D02*
X317216930Y-124285439D01*
X319088063Y-123955508D02*
X317216930Y-124285439D01*
X318532390Y-120804123D02*
X319088063Y-123955508D01*
G04 #@! TO.C,D26*
X337857390Y-120629124D02*
X335986257Y-120959055D01*
X335986257Y-120959055D02*
X336541930Y-124110440D01*
X338413063Y-123780509D02*
X336541930Y-124110440D01*
X337857390Y-120629124D02*
X338413063Y-123780509D01*
G04 #@! TO.C,D25*
X357157390Y-120454123D02*
X355286257Y-120784054D01*
X355286257Y-120784054D02*
X355841930Y-123935439D01*
X357713063Y-123605508D02*
X355841930Y-123935439D01*
X357157390Y-120454123D02*
X357713063Y-123605508D01*
G04 #@! TO.C,D24*
X99143097Y-92258452D02*
X97271964Y-91928521D01*
X97271964Y-91928521D02*
X96716289Y-95079906D01*
X98587422Y-95409837D02*
X96716289Y-95079906D01*
X99143097Y-92258452D02*
X98587422Y-95409837D01*
G04 #@! TO.C,D23*
X116188909Y-105291425D02*
X114317776Y-104961494D01*
X114317776Y-104961494D02*
X113762101Y-108112879D01*
X115633234Y-108442810D02*
X113762101Y-108112879D01*
X116188909Y-105291425D02*
X115633234Y-108442810D01*
G04 #@! TO.C,D22*
X136588064Y-99659054D02*
X134716931Y-99329123D01*
X134716931Y-99329123D02*
X134161256Y-102480508D01*
X136032389Y-102810439D02*
X134161256Y-102480508D01*
X136588064Y-99659054D02*
X136032389Y-102810439D01*
G04 #@! TO.C,D21*
X155888064Y-99834055D02*
X154016931Y-99504124D01*
X154016931Y-99504124D02*
X153461256Y-102655509D01*
X155332389Y-102985440D02*
X153461256Y-102655509D01*
X155888064Y-99834055D02*
X155332389Y-102985440D01*
G04 #@! TO.C,D20*
X174113064Y-106259054D02*
X172241931Y-105929123D01*
X172241931Y-105929123D02*
X171686256Y-109080508D01*
X173557389Y-109410439D02*
X171686256Y-109080508D01*
X174113064Y-106259054D02*
X173557389Y-109410439D01*
G04 #@! TO.C,D19*
X192863065Y-109559054D02*
X190991932Y-109229123D01*
X190991932Y-109229123D02*
X190436257Y-112380508D01*
X192307390Y-112710439D02*
X190436257Y-112380508D01*
X192863065Y-109559054D02*
X192307390Y-112710439D01*
G04 #@! TO.C,D18*
X259081900Y-112079445D02*
X257210767Y-112409376D01*
X257210767Y-112409376D02*
X257766440Y-115560761D01*
X259637573Y-115230830D02*
X257766440Y-115560761D01*
X259081900Y-112079445D02*
X259637573Y-115230830D01*
G04 #@! TO.C,D17*
X277707390Y-108679124D02*
X275836257Y-109009055D01*
X275836257Y-109009055D02*
X276391930Y-112160440D01*
X278263063Y-111830509D02*
X276391930Y-112160440D01*
X277707390Y-108679124D02*
X278263063Y-111830509D01*
G04 #@! TO.C,D16*
X295932390Y-102229124D02*
X294061257Y-102559055D01*
X294061257Y-102559055D02*
X294616930Y-105710440D01*
X296488063Y-105380509D02*
X294616930Y-105710440D01*
X295932390Y-102229124D02*
X296488063Y-105380509D01*
G04 #@! TO.C,D15*
X315232391Y-102050392D02*
X313361258Y-102380323D01*
X313361258Y-102380323D02*
X313916931Y-105531708D01*
X315788064Y-105201777D02*
X313916931Y-105531708D01*
X315232391Y-102050392D02*
X315788064Y-105201777D01*
G04 #@! TO.C,D14*
X333473789Y-94133674D02*
X331602656Y-94463605D01*
X331602656Y-94463605D02*
X332158329Y-97614990D01*
X334029462Y-97285059D02*
X332158329Y-97614990D01*
X333473789Y-94133674D02*
X334029462Y-97285059D01*
G04 #@! TO.C,D13*
X372075497Y-99457854D02*
X370204364Y-99787785D01*
X370204364Y-99787785D02*
X370760037Y-102939170D01*
X372631170Y-102609239D02*
X370760037Y-102939170D01*
X372075497Y-99457854D02*
X372631170Y-102609239D01*
G04 #@! TO.C,D12*
X101262574Y-80509376D02*
X99391441Y-80179445D01*
X99391441Y-80179445D02*
X98835766Y-83330830D01*
X100706899Y-83660761D02*
X98835766Y-83330830D01*
X101262574Y-80509376D02*
X100706899Y-83660761D01*
G04 #@! TO.C,D11*
X120588064Y-80709055D02*
X118716931Y-80379124D01*
X118716931Y-80379124D02*
X118161256Y-83530509D01*
X120032389Y-83860440D02*
X118161256Y-83530509D01*
X120588064Y-80709055D02*
X120032389Y-83860440D01*
G04 #@! TO.C,D10*
X139888064Y-80884054D02*
X138016931Y-80554123D01*
X138016931Y-80554123D02*
X137461256Y-83705508D01*
X139332389Y-84035439D02*
X137461256Y-83705508D01*
X139888064Y-80884054D02*
X139332389Y-84035439D01*
G04 #@! TO.C,D9*
X159213065Y-81059054D02*
X157341932Y-80729123D01*
X157341932Y-80729123D02*
X156786257Y-83880508D01*
X158657390Y-84210439D02*
X156786257Y-83880508D01*
X159213065Y-81059054D02*
X158657390Y-84210439D01*
G04 #@! TO.C,D8*
X177413065Y-87509054D02*
X175541932Y-87179123D01*
X175541932Y-87179123D02*
X174986257Y-90330508D01*
X176857390Y-90660439D02*
X174986257Y-90330508D01*
X177413065Y-87509054D02*
X176857390Y-90660439D01*
G04 #@! TO.C,D7*
X196188064Y-90809054D02*
X194316931Y-90479123D01*
X194316931Y-90479123D02*
X193761256Y-93630508D01*
X195632389Y-93960439D02*
X193761256Y-93630508D01*
X196188064Y-90809054D02*
X195632389Y-93960439D01*
G04 #@! TO.C,D6*
X255756900Y-93329445D02*
X253885767Y-93659376D01*
X253885767Y-93659376D02*
X254441440Y-96810761D01*
X256312573Y-96480830D02*
X254441440Y-96810761D01*
X255756900Y-93329445D02*
X256312573Y-96480830D01*
G04 #@! TO.C,D5*
X274556900Y-90029445D02*
X272685767Y-90359376D01*
X272685767Y-90359376D02*
X273241440Y-93510761D01*
X275112573Y-93180830D02*
X273241440Y-93510761D01*
X274556900Y-90029445D02*
X275112573Y-93180830D01*
G04 #@! TO.C,D4*
X292756900Y-83604445D02*
X290885767Y-83934376D01*
X290885767Y-83934376D02*
X291441440Y-87085761D01*
X293312573Y-86755830D02*
X291441440Y-87085761D01*
X292756900Y-83604445D02*
X293312573Y-86755830D01*
G04 #@! TO.C,D3*
X312081900Y-83429445D02*
X310210767Y-83759376D01*
X310210767Y-83759376D02*
X310766440Y-86910761D01*
X312637573Y-86580830D02*
X310766440Y-86910761D01*
X312081900Y-83429445D02*
X312637573Y-86580830D01*
G04 #@! TO.C,D2*
X331431900Y-83254445D02*
X329560767Y-83584376D01*
X329560767Y-83584376D02*
X330116440Y-86735761D01*
X331987573Y-86405830D02*
X330116440Y-86735761D01*
X331431900Y-83254445D02*
X331987573Y-86405830D01*
G04 #@! TO.C,U6*
X351449170Y-76445103D02*
X347949170Y-76445103D01*
X351449170Y-76445103D02*
X351449170Y-72345103D01*
X347949170Y-72345103D02*
X347949170Y-76445103D01*
X347949170Y-72345103D02*
X351449170Y-72345103D01*
G04 #@! TO.C,J2*
X364124170Y-78075103D02*
X371924170Y-78075103D01*
X364124170Y-71515103D02*
X364124170Y-78075103D01*
X371924170Y-71515103D02*
X364124170Y-71515103D01*
X371924170Y-78075103D02*
X371924170Y-71515103D01*
G04 #@! TD*
M02*
