M48
;DRILL file {KiCad (5.0.1-3-g963ef8bb5)} date Saturday, December 29, 2018 at 10:02:54 AM
;FORMAT={-:-/ absolute / inch / decimal}
FMAT,2
INCH,TZ
T1C0.0669
T2C0.1161
T3C0.1567
%
G90
G05
M72
T1
X4.4277Y-4.8464
X4.8216Y-4.9159
X5.34Y-3.9919
X5.7339Y-4.0613
X3.6891Y-4.7162
X4.083Y-4.7857
X4.6882Y-3.3692
X5.0821Y-3.4387
X10.9028Y-3.5824
X11.2967Y-3.5129
X10.0339Y-2.974
X10.4279Y-2.9046
X10.2872Y-5.8407
X10.5307Y-5.5234
X13.7704Y-2.5691
X14.1643Y-2.4996
X13.9006Y-3.3077
X14.2945Y-3.2382
X13.4225Y-4.9151
X13.8164Y-4.8457
X7.686Y-3.644
X8.0799Y-3.7134
X12.6839Y-5.0454
X13.0778Y-4.9759
X6.9474Y-3.5137
X7.3413Y-3.5832
X6.122Y-3.8759
X6.5159Y-3.9454
X3.8193Y-3.9776
X4.2133Y-4.0471
X11.4677Y-2.4674
X11.8617Y-2.3979
X12.5102Y-4.0605
X12.9042Y-3.9911
X12.2498Y-2.5833
X12.6437Y-2.5139
X10.7725Y-2.8438
X11.1665Y-2.7743
X8.9248Y-3.0106
X9.3248Y-3.0106
X14.1611Y-4.7849
X14.555Y-4.7154
X5.4702Y-3.2533
X5.8641Y-3.3227
X7.8162Y-2.9054
X8.2102Y-2.9748
X7.5558Y-4.3826
X7.9497Y-4.452
X13.0318Y-2.6993
X13.4257Y-2.6298
X6.8172Y-4.2523
X7.2111Y-4.3218
X5.9049Y-5.1069
X6.2988Y-5.1764
X5.1663Y-4.9767
X5.5602Y-5.0461
X11.598Y-3.206
X11.9919Y-3.1365
X4.8184Y-2.6306
X5.2123Y-2.7001
X11.033Y-4.321
X11.4269Y-4.2516
X4.0798Y-2.5004
X4.4737Y-2.5699
X10.1642Y-3.7126
X10.5581Y-3.6432
X3.9496Y-3.239
X4.3435Y-3.3085
X6.2522Y-3.1373
X6.6461Y-3.2068
X12.38Y-3.3219
X12.7739Y-3.2525
X10.2944Y-4.4513
X10.6883Y-4.3818
X5.6004Y-2.5147
X5.9944Y-2.5841
X11.9453Y-5.1756
X12.3392Y-5.1061
X13.2922Y-4.1765
X13.6862Y-4.107
X6.9027Y-5.0574
X7.2786Y-5.1942
X7.0776Y-2.7751
X7.4716Y-2.8446
X6.3824Y-2.3987
X6.7764Y-2.4682
X7.7293Y-5.525
X7.9728Y-5.8423
X14.0305Y-4.0443
X14.4244Y-3.9748
X11.7282Y-3.9446
X12.1221Y-3.8751
X10.954Y-5.1955
X11.3298Y-5.0587
X13.162Y-3.4379
X13.5559Y-3.3684
X4.5579Y-4.1078
X4.9519Y-4.1773
T2
X10.9665Y-3.3681
X11.2301Y-3.4232
X10.0977Y-2.7597
X10.3613Y-2.8148
X10.1894Y-5.6396
X10.4209Y-5.5022
X13.8341Y-2.3547
X14.0977Y-2.4098
X13.9644Y-3.0933
X14.2279Y-3.1484
X13.4862Y-4.7008
X13.7498Y-4.7559
X7.8192Y-3.4644
X8.0481Y-3.6063
X12.7476Y-4.831
X13.0112Y-4.8861
X7.0806Y-3.3341
X7.3095Y-3.476
X6.2552Y-3.6963
X6.484Y-3.8382
X3.9525Y-3.798
X4.1814Y-3.9399
X11.5315Y-2.253
X11.7951Y-2.3081
X12.574Y-3.8462
X12.8375Y-3.9013
X12.3135Y-2.369
X12.5771Y-2.4241
X10.8363Y-2.6295
X11.0999Y-2.6845
X9.0248Y-2.8106
X9.2748Y-2.9106
X14.2248Y-4.5706
X14.4884Y-4.6256
X5.6034Y-3.0737
X5.8322Y-3.2156
X7.9495Y-2.7258
X8.1783Y-2.8677
X7.689Y-4.203
X7.9178Y-4.3449
X13.0955Y-2.485
X13.3591Y-2.54
X6.9504Y-4.0728
X7.1792Y-4.2146
X6.0381Y-4.9273
X6.267Y-5.0692
X5.2995Y-4.7971
X5.5284Y-4.939
X11.6617Y-2.9916
X11.9253Y-3.0467
X4.9516Y-2.451
X5.1805Y-2.5929
X11.0968Y-4.1067
X11.3603Y-4.1618
X4.213Y-2.3208
X4.4419Y-2.4627
X10.2279Y-3.4983
X10.4915Y-3.5534
X4.0828Y-3.0594
X4.3116Y-3.2013
X6.3854Y-2.9577
X6.6143Y-3.0996
X12.4437Y-3.1076
X12.7073Y-3.1627
X10.3582Y-4.2369
X10.6217Y-4.292
X5.7336Y-2.3351
X5.9625Y-2.477
X12.009Y-4.9613
X12.2726Y-5.0163
X13.356Y-3.9622
X13.6196Y-4.0173
X7.0651Y-4.9036
X7.2658Y-5.0831
X7.2109Y-2.5955
X7.4397Y-2.7374
X6.5157Y-2.2191
X6.7445Y-2.361
X7.9489Y-5.4826
X8.0217Y-5.7418
X14.0943Y-3.8299
X14.3578Y-3.885
X11.792Y-3.7303
X12.0555Y-3.7853
X10.9795Y-4.9733
X11.2487Y-4.9818
X13.2258Y-3.2236
X13.4893Y-3.2786
X4.6912Y-3.9282
X4.92Y-4.0701
X4.5609Y-4.6668
X4.7898Y-4.8087
X5.4732Y-3.8123
X5.702Y-3.9542
X3.8223Y-4.5366
X4.0511Y-4.6785
X4.8214Y-3.1896
X5.0502Y-3.3315
T3
X4.6247Y-4.8812
X5.5369Y-4.0266
X3.8861Y-4.7509
X4.8851Y-3.404
X11.0997Y-3.5477
X10.2309Y-2.9393
X10.409Y-5.682
X13.9673Y-2.5343
X14.0976Y-3.2729
X13.6194Y-4.8804
X7.883Y-3.6787
X12.8808Y-5.0106
X7.1444Y-3.5485
X6.3189Y-3.9106
X4.0163Y-4.0123
X11.6647Y-2.4326
X12.7072Y-4.0258
X12.4467Y-2.5486
X10.9695Y-2.8091
X9.1248Y-3.0106
X14.3581Y-4.7501
X5.6672Y-3.288
X8.0132Y-2.9401
X7.7527Y-4.4173
X13.2287Y-2.6646
X7.0141Y-4.2871
X6.1019Y-5.1416
X5.3633Y-5.0114
X11.7949Y-3.1712
X5.0154Y-2.6654
X11.23Y-4.2863
X4.2768Y-2.5351
X10.3611Y-3.6779
X4.1465Y-3.2737
X6.4492Y-3.172
X12.577Y-3.2872
X10.4914Y-4.4165
X5.7974Y-2.5494
X12.1422Y-5.1409
X13.4892Y-4.1418
X7.0907Y-5.1258
X7.2746Y-2.8099
X6.5794Y-2.4334
X7.8511Y-5.6837
X14.2275Y-4.0095
X11.9252Y-3.9098
X11.1419Y-5.1271
X13.359Y-3.4032
X4.7549Y-4.1426
T0
M30
