%TF.GenerationSoftware,KiCad,Pcbnew,(5.0.1-3-g963ef8bb5)*%
%TF.CreationDate,2018-12-29T10:02:51-08:00*%
%TF.ProjectId,Laptreus-v1,4C617074726575732D76312E6B696361,rev?*%
%TF.SameCoordinates,Original*%
%TF.FileFunction,Legend,Top*%
%TF.FilePolarity,Positive*%
%FSLAX46Y46*%
G04 Gerber Fmt 4.6, Leading zero omitted, Abs format (unit mm)*
G04 Created by KiCad (PCBNEW (5.0.1-3-g963ef8bb5)) date Saturday, December 29, 2018 at 10:02:51 AM*
%MOMM*%
%LPD*%
G01*
G04 APERTURE LIST*
%ADD10C,0.300000*%
%ADD11C,0.100000*%
%ADD12C,0.400000*%
%ADD13C,0.150000*%
%ADD14C,0.120000*%
%ADD15C,0.304800*%
G04 APERTURE END LIST*
D10*
X244322203Y-119362973D02*
X244822203Y-119362973D01*
X245036489Y-120148687D02*
X244322203Y-120148687D01*
X244322203Y-118648687D01*
X245036489Y-118648687D01*
X245679346Y-119148687D02*
X245679346Y-120148687D01*
X245679346Y-119291544D02*
X245750775Y-119220116D01*
X245893632Y-119148687D01*
X246107918Y-119148687D01*
X246250775Y-119220116D01*
X246322203Y-119362973D01*
X246322203Y-120148687D01*
D11*
X193477168Y-128970116D02*
G75*
G03X193477168Y-128970116I-707107J0D01*
G01*
X339239176Y-134637824D02*
X339760120Y-137592247D01*
X320527829Y-137937139D02*
X321135596Y-141383966D01*
X301729656Y-140744051D02*
X302511073Y-145175687D01*
X197276051Y-134277304D02*
X198057467Y-129845669D01*
X170398431Y-142738601D02*
X169703838Y-146677831D01*
X163997180Y-141609887D02*
X163389411Y-145056714D01*
X144793429Y-138223748D02*
X144272484Y-141178171D01*
X220770061Y-113470116D02*
X221270061Y-114470116D01*
X218270061Y-113470116D02*
X220770061Y-113470116D01*
X273770060Y-136970115D02*
X273770061Y-138470115D01*
X272270062Y-135470116D02*
X273770060Y-136970115D01*
X272270061Y-128970116D02*
X272270062Y-135470116D01*
X252770061Y-128470116D02*
X252770062Y-132470117D01*
X251270060Y-128470116D02*
X251270062Y-132470116D01*
D10*
X224948632Y-79148687D02*
X224234346Y-79648687D01*
X224948632Y-80005830D02*
X223448632Y-80005830D01*
X223448632Y-79434401D01*
X223520061Y-79291544D01*
X223591489Y-79220116D01*
X223734346Y-79148687D01*
X223948632Y-79148687D01*
X224091489Y-79220116D01*
X224162918Y-79291544D01*
X224234346Y-79434401D01*
X224234346Y-80005830D01*
X224162918Y-78505830D02*
X224162918Y-78005830D01*
X224948632Y-77791544D02*
X224948632Y-78505830D01*
X223448632Y-78505830D01*
X223448632Y-77791544D01*
X224877203Y-77220116D02*
X224948632Y-77005830D01*
X224948632Y-76648687D01*
X224877203Y-76505830D01*
X224805775Y-76434401D01*
X224662918Y-76362973D01*
X224520061Y-76362973D01*
X224377203Y-76434401D01*
X224305775Y-76505830D01*
X224234346Y-76648687D01*
X224162918Y-76934401D01*
X224091489Y-77077258D01*
X224020061Y-77148687D01*
X223877203Y-77220116D01*
X223734346Y-77220116D01*
X223591489Y-77148687D01*
X223520061Y-77077258D01*
X223448632Y-76934401D01*
X223448632Y-76577258D01*
X223520061Y-76362973D01*
X224162918Y-75720116D02*
X224162918Y-75220116D01*
X224948632Y-75005830D02*
X224948632Y-75720116D01*
X223448632Y-75720116D01*
X223448632Y-75005830D01*
X223448632Y-74577258D02*
X223448632Y-73720116D01*
X224948632Y-74148687D02*
X223448632Y-74148687D01*
X214591489Y-107648687D02*
X214091489Y-106934401D01*
X213734346Y-107648687D02*
X213734346Y-106148687D01*
X214305775Y-106148687D01*
X214448632Y-106220116D01*
X214520061Y-106291544D01*
X214591489Y-106434401D01*
X214591489Y-106648687D01*
X214520061Y-106791544D01*
X214448632Y-106862973D01*
X214305775Y-106934401D01*
X213734346Y-106934401D01*
X215234346Y-106862973D02*
X215734346Y-106862973D01*
X215948632Y-107648687D02*
X215234346Y-107648687D01*
X215234346Y-106148687D01*
X215948632Y-106148687D01*
X216520061Y-107577258D02*
X216734346Y-107648687D01*
X217091489Y-107648687D01*
X217234346Y-107577258D01*
X217305775Y-107505830D01*
X217377203Y-107362973D01*
X217377203Y-107220116D01*
X217305775Y-107077258D01*
X217234346Y-107005830D01*
X217091489Y-106934401D01*
X216805775Y-106862973D01*
X216662918Y-106791544D01*
X216591489Y-106720116D01*
X216520061Y-106577258D01*
X216520061Y-106434401D01*
X216591489Y-106291544D01*
X216662918Y-106220116D01*
X216805775Y-106148687D01*
X217162918Y-106148687D01*
X217377203Y-106220116D01*
X218020061Y-106862973D02*
X218520061Y-106862973D01*
X218734346Y-107648687D02*
X218020061Y-107648687D01*
X218020061Y-106148687D01*
X218734346Y-106148687D01*
X219162918Y-106148687D02*
X220020061Y-106148687D01*
X219591489Y-107648687D02*
X219591489Y-106148687D01*
D11*
X240770059Y-150470119D02*
X240770059Y-150970119D01*
X240770062Y-146970117D02*
X240770060Y-147470118D01*
X240770067Y-147470119D02*
G75*
G02X240770059Y-150470119I-4J-1500000D01*
G01*
X222770064Y-150470119D02*
X222770064Y-150970119D01*
X222770065Y-150470114D02*
G75*
G02X222770059Y-147470118I-3J1499998D01*
G01*
X237270063Y-83470115D02*
G75*
G02X238270062Y-84470118I-2J-1000001D01*
G01*
X225270061Y-84470119D02*
G75*
G02X226270062Y-83470116I1000002J1D01*
G01*
X226270062Y-83470116D02*
X237270063Y-83470117D01*
X268270063Y-153470119D02*
X382270062Y-135470116D01*
X194770063Y-153470117D02*
X239270063Y-153470116D01*
X240770060Y-150970118D02*
G75*
G02X240270061Y-151470119I-500000J-1D01*
G01*
X223270064Y-151470119D02*
G75*
G02X222770064Y-150970119I0J500000D01*
G01*
D10*
X217662917Y-136148690D02*
X217734345Y-135934404D01*
X217805774Y-135862976D01*
X217948631Y-135791547D01*
X218162917Y-135791547D01*
X218305774Y-135862976D01*
X218377202Y-135934404D01*
X218448631Y-136077261D01*
X218448631Y-136648690D01*
X216948631Y-136648690D01*
X216948631Y-136148690D01*
X217020060Y-136005833D01*
X217091488Y-135934404D01*
X217234345Y-135862976D01*
X217377202Y-135862976D01*
X217520060Y-135934404D01*
X217591488Y-136005833D01*
X217662917Y-136148690D01*
X217662917Y-136648690D01*
X218448631Y-134434404D02*
X218448631Y-135148690D01*
X216948631Y-135148690D01*
X217662917Y-133934404D02*
X217662917Y-133434404D01*
X218448631Y-133220119D02*
X218448631Y-133934404D01*
X216948631Y-133934404D01*
X216948631Y-133220119D01*
D12*
X219270061Y-138470119D02*
X219770061Y-138470117D01*
D10*
X219270062Y-131470116D02*
X219270061Y-138470119D01*
X219770062Y-131470116D02*
X219270062Y-131470116D01*
X215841490Y-109577261D02*
X216984347Y-109577261D01*
X216412919Y-110148690D02*
X216412919Y-109005833D01*
X217555776Y-108648690D02*
X218484347Y-108648690D01*
X217984347Y-109220119D01*
X218198633Y-109220119D01*
X218341490Y-109291547D01*
X218412919Y-109362976D01*
X218484347Y-109505833D01*
X218484347Y-109862976D01*
X218412919Y-110005833D01*
X218341490Y-110077261D01*
X218198633Y-110148690D01*
X217770062Y-110148690D01*
X217627204Y-110077261D01*
X217555776Y-110005833D01*
X218912919Y-108648690D02*
X219412919Y-110148690D01*
X219912919Y-108648690D01*
X216627204Y-113720118D02*
X216484347Y-113648689D01*
X216270062Y-113648689D01*
X216055776Y-113720118D01*
X215912919Y-113862975D01*
X215841490Y-114005832D01*
X215770062Y-114291546D01*
X215770062Y-114505832D01*
X215841490Y-114791546D01*
X215912919Y-114934403D01*
X216055776Y-115077260D01*
X216270062Y-115148689D01*
X216412919Y-115148689D01*
X216627204Y-115077260D01*
X216698633Y-115005832D01*
X216698633Y-114505832D01*
X216412919Y-114505832D01*
X217341490Y-115148689D02*
X217341490Y-113648689D01*
X218198633Y-115148689D01*
X218198633Y-113648689D01*
X218912919Y-115148689D02*
X218912919Y-113648689D01*
X219270062Y-113648689D01*
X219484347Y-113720118D01*
X219627204Y-113862975D01*
X219698633Y-114005832D01*
X219770062Y-114291546D01*
X219770062Y-114505832D01*
X219698633Y-114791546D01*
X219627204Y-114934403D01*
X219484347Y-115077260D01*
X219270062Y-115148689D01*
X218912919Y-115148689D01*
X218020063Y-118148690D02*
X217520063Y-117434404D01*
X217162920Y-118148690D02*
X217162920Y-116648690D01*
X217734348Y-116648690D01*
X217877205Y-116720119D01*
X217948634Y-116791547D01*
X218020063Y-116934404D01*
X218020063Y-117148690D01*
X217948634Y-117291547D01*
X217877205Y-117362976D01*
X217734348Y-117434404D01*
X217162920Y-117434404D01*
X218948634Y-116648690D02*
X219091491Y-116648690D01*
X219234348Y-116720119D01*
X219305777Y-116791547D01*
X219377205Y-116934404D01*
X219448634Y-117220119D01*
X219448634Y-117577261D01*
X219377205Y-117862976D01*
X219305777Y-118005833D01*
X219234348Y-118077261D01*
X219091491Y-118148690D01*
X218948634Y-118148690D01*
X218805777Y-118077261D01*
X218734348Y-118005833D01*
X218662920Y-117862976D01*
X218591491Y-117577261D01*
X218591491Y-117220119D01*
X218662920Y-116934404D01*
X218734348Y-116791547D01*
X218805777Y-116720119D01*
X218948634Y-116648690D01*
X218020062Y-120648688D02*
X217520062Y-119934402D01*
X217162919Y-120648688D02*
X217162919Y-119148688D01*
X217734347Y-119148688D01*
X217877204Y-119220117D01*
X217948633Y-119291545D01*
X218020062Y-119434402D01*
X218020062Y-119648688D01*
X217948633Y-119791545D01*
X217877204Y-119862974D01*
X217734347Y-119934402D01*
X217162919Y-119934402D01*
X219448633Y-120648688D02*
X218591490Y-120648688D01*
X219020062Y-120648688D02*
X219020062Y-119148688D01*
X218877204Y-119362974D01*
X218734347Y-119505831D01*
X218591490Y-119577259D01*
X218020063Y-123148689D02*
X217520063Y-122434403D01*
X217162920Y-123148689D02*
X217162920Y-121648689D01*
X217734348Y-121648689D01*
X217877205Y-121720118D01*
X217948634Y-121791546D01*
X218020063Y-121934403D01*
X218020063Y-122148689D01*
X217948634Y-122291546D01*
X217877205Y-122362975D01*
X217734348Y-122434403D01*
X217162920Y-122434403D01*
X218591491Y-121791546D02*
X218662920Y-121720118D01*
X218805777Y-121648689D01*
X219162920Y-121648689D01*
X219305777Y-121720118D01*
X219377205Y-121791546D01*
X219448634Y-121934403D01*
X219448634Y-122077260D01*
X219377205Y-122291546D01*
X218520063Y-123148689D01*
X219448634Y-123148689D01*
X218020060Y-125648689D02*
X217520060Y-124934403D01*
X217162917Y-125648689D02*
X217162917Y-124148689D01*
X217734345Y-124148689D01*
X217877202Y-124220118D01*
X217948631Y-124291546D01*
X218020060Y-124434403D01*
X218020060Y-124648689D01*
X217948631Y-124791546D01*
X217877202Y-124862975D01*
X217734345Y-124934403D01*
X217162917Y-124934403D01*
X219305774Y-124648689D02*
X219305774Y-125648689D01*
X218948631Y-124077260D02*
X218591488Y-125148689D01*
X219520060Y-125148689D01*
X218020063Y-128148686D02*
X217520063Y-127434400D01*
X217162920Y-128148686D02*
X217162920Y-126648686D01*
X217734348Y-126648686D01*
X217877205Y-126720115D01*
X217948634Y-126791543D01*
X218020063Y-126934400D01*
X218020063Y-127148686D01*
X217948634Y-127291543D01*
X217877205Y-127362972D01*
X217734348Y-127434400D01*
X217162920Y-127434400D01*
X218520063Y-126648686D02*
X219448634Y-126648686D01*
X218948634Y-127220115D01*
X219162920Y-127220115D01*
X219305777Y-127291543D01*
X219377205Y-127362972D01*
X219448634Y-127505829D01*
X219448634Y-127862972D01*
X219377205Y-128005829D01*
X219305777Y-128077257D01*
X219162920Y-128148686D01*
X218734348Y-128148686D01*
X218591491Y-128077257D01*
X218520063Y-128005829D01*
X218020061Y-130505832D02*
X217948632Y-130577260D01*
X217734346Y-130648689D01*
X217591489Y-130648689D01*
X217377203Y-130577260D01*
X217234346Y-130434403D01*
X217162918Y-130291546D01*
X217091489Y-130005832D01*
X217091489Y-129791546D01*
X217162918Y-129505832D01*
X217234346Y-129362975D01*
X217377203Y-129220118D01*
X217591489Y-129148689D01*
X217734346Y-129148689D01*
X217948632Y-129220118D01*
X218020061Y-129291546D01*
X218520061Y-129148689D02*
X219448632Y-129148689D01*
X218948632Y-129720118D01*
X219162918Y-129720118D01*
X219305775Y-129791546D01*
X219377203Y-129862975D01*
X219448632Y-130005832D01*
X219448632Y-130362975D01*
X219377203Y-130505832D01*
X219305775Y-130577260D01*
X219162918Y-130648689D01*
X218734346Y-130648689D01*
X218591489Y-130577260D01*
X218520061Y-130505832D01*
X218020063Y-140505831D02*
X217948634Y-140577259D01*
X217734348Y-140648688D01*
X217591491Y-140648688D01*
X217377205Y-140577259D01*
X217234348Y-140434402D01*
X217162920Y-140291545D01*
X217091491Y-140005831D01*
X217091491Y-139791545D01*
X217162920Y-139505831D01*
X217234348Y-139362974D01*
X217377205Y-139220117D01*
X217591491Y-139148688D01*
X217734348Y-139148688D01*
X217948634Y-139220117D01*
X218020063Y-139291545D01*
X218591491Y-139291545D02*
X218662920Y-139220117D01*
X218805777Y-139148688D01*
X219162920Y-139148688D01*
X219305777Y-139220117D01*
X219377205Y-139291545D01*
X219448634Y-139434402D01*
X219448634Y-139577259D01*
X219377205Y-139791545D01*
X218520063Y-140648688D01*
X219448634Y-140648688D01*
X218020060Y-143005833D02*
X217948631Y-143077261D01*
X217734345Y-143148690D01*
X217591488Y-143148690D01*
X217377202Y-143077261D01*
X217234345Y-142934404D01*
X217162917Y-142791547D01*
X217091488Y-142505833D01*
X217091488Y-142291547D01*
X217162917Y-142005833D01*
X217234345Y-141862976D01*
X217377202Y-141720119D01*
X217591488Y-141648690D01*
X217734345Y-141648690D01*
X217948631Y-141720119D01*
X218020060Y-141791547D01*
X219448631Y-143148690D02*
X218591488Y-143148690D01*
X219020060Y-143148690D02*
X219020060Y-141648690D01*
X218877202Y-141862976D01*
X218734345Y-142005833D01*
X218591488Y-142077261D01*
X245179346Y-128005832D02*
X245107918Y-128077260D01*
X244893632Y-128148689D01*
X244750775Y-128148689D01*
X244536489Y-128077260D01*
X244393632Y-127934403D01*
X244322203Y-127791546D01*
X244250775Y-127505832D01*
X244250775Y-127291546D01*
X244322203Y-127005832D01*
X244393632Y-126862975D01*
X244536489Y-126720118D01*
X244750775Y-126648689D01*
X244893632Y-126648689D01*
X245107918Y-126720118D01*
X245179346Y-126791546D01*
X246607918Y-128148689D02*
X245750775Y-128148689D01*
X246179346Y-128148689D02*
X246179346Y-126648689D01*
X246036489Y-126862975D01*
X245893632Y-127005832D01*
X245750775Y-127077260D01*
X247536489Y-126648689D02*
X247679346Y-126648689D01*
X247822203Y-126720118D01*
X247893632Y-126791546D01*
X247965061Y-126934403D01*
X248036489Y-127220118D01*
X248036489Y-127577260D01*
X247965061Y-127862975D01*
X247893632Y-128005832D01*
X247822203Y-128077260D01*
X247679346Y-128148689D01*
X247536489Y-128148689D01*
X247393632Y-128077260D01*
X247322203Y-128005832D01*
X247250775Y-127862975D01*
X247179346Y-127577260D01*
X247179346Y-127220118D01*
X247250775Y-126934403D01*
X247322203Y-126791546D01*
X247393632Y-126720118D01*
X247536489Y-126648689D01*
X245179348Y-130505831D02*
X245107920Y-130577259D01*
X244893634Y-130648688D01*
X244750777Y-130648688D01*
X244536491Y-130577259D01*
X244393634Y-130434402D01*
X244322205Y-130291545D01*
X244250777Y-130005831D01*
X244250777Y-129791545D01*
X244322205Y-129505831D01*
X244393634Y-129362974D01*
X244536491Y-129220117D01*
X244750777Y-129148688D01*
X244893634Y-129148688D01*
X245107920Y-129220117D01*
X245179348Y-129291545D01*
X245893634Y-130648688D02*
X246179348Y-130648688D01*
X246322205Y-130577259D01*
X246393634Y-130505831D01*
X246536491Y-130291545D01*
X246607920Y-130005831D01*
X246607920Y-129434402D01*
X246536491Y-129291545D01*
X246465063Y-129220117D01*
X246322205Y-129148688D01*
X246036491Y-129148688D01*
X245893634Y-129220117D01*
X245822205Y-129291545D01*
X245750777Y-129434402D01*
X245750777Y-129791545D01*
X245822205Y-129934402D01*
X245893634Y-130005831D01*
X246036491Y-130077259D01*
X246322205Y-130077259D01*
X246465063Y-130005831D01*
X246536491Y-129934402D01*
X246607920Y-129791545D01*
X245179346Y-133005832D02*
X245107918Y-133077260D01*
X244893632Y-133148689D01*
X244750775Y-133148689D01*
X244536489Y-133077260D01*
X244393632Y-132934403D01*
X244322203Y-132791546D01*
X244250775Y-132505832D01*
X244250775Y-132291546D01*
X244322203Y-132005832D01*
X244393632Y-131862975D01*
X244536489Y-131720118D01*
X244750775Y-131648689D01*
X244893632Y-131648689D01*
X245107918Y-131720118D01*
X245179346Y-131791546D01*
X246036489Y-132291546D02*
X245893632Y-132220118D01*
X245822203Y-132148689D01*
X245750775Y-132005832D01*
X245750775Y-131934403D01*
X245822203Y-131791546D01*
X245893632Y-131720118D01*
X246036489Y-131648689D01*
X246322203Y-131648689D01*
X246465061Y-131720118D01*
X246536489Y-131791546D01*
X246607918Y-131934403D01*
X246607918Y-132005832D01*
X246536489Y-132148689D01*
X246465061Y-132220118D01*
X246322203Y-132291546D01*
X246036489Y-132291546D01*
X245893632Y-132362975D01*
X245822203Y-132434403D01*
X245750775Y-132577260D01*
X245750775Y-132862975D01*
X245822203Y-133005832D01*
X245893632Y-133077260D01*
X246036489Y-133148689D01*
X246322203Y-133148689D01*
X246465061Y-133077260D01*
X246536489Y-133005832D01*
X246607918Y-132862975D01*
X246607918Y-132577260D01*
X246536489Y-132434403D01*
X246465061Y-132362975D01*
X246322203Y-132291546D01*
X245179343Y-138005832D02*
X245107915Y-138077260D01*
X244893629Y-138148689D01*
X244750772Y-138148689D01*
X244536486Y-138077260D01*
X244393629Y-137934403D01*
X244322200Y-137791546D01*
X244250772Y-137505832D01*
X244250772Y-137291546D01*
X244322200Y-137005832D01*
X244393629Y-136862975D01*
X244536486Y-136720118D01*
X244750772Y-136648689D01*
X244893629Y-136648689D01*
X245107915Y-136720118D01*
X245179343Y-136791546D01*
X245679343Y-136648689D02*
X246679343Y-136648689D01*
X246036486Y-138148689D01*
X245179348Y-140505833D02*
X245107920Y-140577261D01*
X244893634Y-140648690D01*
X244750777Y-140648690D01*
X244536491Y-140577261D01*
X244393634Y-140434404D01*
X244322205Y-140291547D01*
X244250777Y-140005833D01*
X244250777Y-139791547D01*
X244322205Y-139505833D01*
X244393634Y-139362976D01*
X244536491Y-139220119D01*
X244750777Y-139148690D01*
X244893634Y-139148690D01*
X245107920Y-139220119D01*
X245179348Y-139291547D01*
X246465063Y-139148690D02*
X246179348Y-139148690D01*
X246036491Y-139220119D01*
X245965063Y-139291547D01*
X245822205Y-139505833D01*
X245750777Y-139791547D01*
X245750777Y-140362976D01*
X245822205Y-140505833D01*
X245893634Y-140577261D01*
X246036491Y-140648690D01*
X246322205Y-140648690D01*
X246465063Y-140577261D01*
X246536491Y-140505833D01*
X246607920Y-140362976D01*
X246607920Y-140005833D01*
X246536491Y-139862976D01*
X246465063Y-139791547D01*
X246322205Y-139720119D01*
X246036491Y-139720119D01*
X245893634Y-139791547D01*
X245822205Y-139862976D01*
X245750777Y-140005833D01*
X245179347Y-143005830D02*
X245107919Y-143077258D01*
X244893633Y-143148687D01*
X244750776Y-143148687D01*
X244536490Y-143077258D01*
X244393633Y-142934401D01*
X244322204Y-142791544D01*
X244250776Y-142505830D01*
X244250776Y-142291544D01*
X244322204Y-142005830D01*
X244393633Y-141862973D01*
X244536490Y-141720116D01*
X244750776Y-141648687D01*
X244893633Y-141648687D01*
X245107919Y-141720116D01*
X245179347Y-141791544D01*
X246465062Y-142148687D02*
X246465062Y-143148687D01*
X246107919Y-141577258D02*
X245750776Y-142648687D01*
X246679347Y-142648687D01*
X245179347Y-145505833D02*
X245107919Y-145577261D01*
X244893633Y-145648690D01*
X244750776Y-145648690D01*
X244536490Y-145577261D01*
X244393633Y-145434404D01*
X244322204Y-145291547D01*
X244250776Y-145005833D01*
X244250776Y-144791547D01*
X244322204Y-144505833D01*
X244393633Y-144362976D01*
X244536490Y-144220119D01*
X244750776Y-144148690D01*
X244893633Y-144148690D01*
X245107919Y-144220119D01*
X245179347Y-144291547D01*
X246536490Y-144148690D02*
X245822204Y-144148690D01*
X245750776Y-144862976D01*
X245822204Y-144791547D01*
X245965062Y-144720119D01*
X246322204Y-144720119D01*
X246465062Y-144791547D01*
X246536490Y-144862976D01*
X246607919Y-145005833D01*
X246607919Y-145362976D01*
X246536490Y-145505833D01*
X246465062Y-145577261D01*
X246322204Y-145648690D01*
X245965062Y-145648690D01*
X245822204Y-145577261D01*
X245750776Y-145505833D01*
D11*
X245770062Y-114970120D02*
G75*
G02X244770061Y-115970119I-1000000J1D01*
G01*
X223270064Y-151470117D02*
X240270061Y-151470119D01*
X244770061Y-105470118D02*
G75*
G02X245770060Y-106470119I-1J-1000000D01*
G01*
X380770063Y-53470116D02*
G75*
G02X382270060Y-54970119I-3J-1500000D01*
G01*
X81270064Y-54970119D02*
G75*
G02X82770060Y-53470119I1499998J2D01*
G01*
X225270060Y-104470118D02*
G75*
G02X224270060Y-105470118I-1000000J0D01*
G01*
X223770061Y-105470118D02*
X224270060Y-105470118D01*
X222770064Y-106470119D02*
G75*
G02X223770061Y-105470118I999999J2D01*
G01*
X240770059Y-116970114D02*
G75*
G02X241770063Y-115970118I1000000J-4D01*
G01*
X225270063Y-104470118D02*
X225270059Y-84470117D01*
X239270063Y-105470116D02*
G75*
G02X238270061Y-104470118I-2J1000000D01*
G01*
X238270061Y-104470118D02*
X238270062Y-84470117D01*
X244770060Y-105470119D02*
X239270064Y-105470119D01*
X241770063Y-115970118D02*
X244770061Y-115970119D01*
X240770060Y-116970118D02*
X240770062Y-146970117D01*
X82770060Y-53470119D02*
X167270060Y-53470120D01*
X242270062Y-64470119D02*
X295770061Y-53470120D01*
X221770061Y-64470116D02*
X242270062Y-64470119D01*
X167270060Y-53470120D02*
X221770061Y-64470116D01*
X239270063Y-153470116D02*
X268270063Y-153470119D01*
X245770060Y-106470119D02*
X245770063Y-114970117D01*
X222770059Y-147470118D02*
X222770064Y-106470119D01*
X81270064Y-133970119D02*
X194770063Y-153470117D01*
X295770061Y-53470120D02*
X380770061Y-53470118D01*
X81270062Y-54970118D02*
X81270064Y-133970119D01*
X382270060Y-54970119D02*
X382270062Y-135470116D01*
D13*
%TO.C,D50*%
X358441814Y-74665894D02*
X358007693Y-72203874D01*
X358566884Y-74643840D02*
X358132764Y-72181823D01*
X358257835Y-72159768D02*
X358691955Y-74621787D01*
X359067167Y-74555627D02*
X358633046Y-72093608D01*
X358507976Y-72115661D02*
X358942096Y-74577681D01*
X358817026Y-74599734D02*
X358382905Y-72137714D01*
X359141309Y-74187155D02*
X358828742Y-72414501D01*
X354118789Y-75072760D02*
X359141309Y-74187155D01*
X353806222Y-73300106D02*
X354118789Y-75072760D01*
X358828742Y-72414501D02*
X353806222Y-73300106D01*
X359202086Y-74531837D02*
X358767967Y-72069818D01*
X358004739Y-72204395D02*
X358767967Y-72069818D01*
X358441814Y-74665894D02*
X359205040Y-74531316D01*
X357719526Y-71594659D02*
X358014969Y-71542564D01*
X358014969Y-71542564D02*
X357945509Y-71148641D01*
X357945509Y-71148641D02*
X358507372Y-71455740D01*
X358507372Y-71455740D02*
X358084428Y-71936487D01*
X358084428Y-71936487D02*
X358014969Y-71542564D01*
X358576832Y-71849663D02*
X358437913Y-71061817D01*
X358507372Y-71455740D02*
X358704334Y-71421011D01*
%TO.C,D49*%
X361749812Y-93426478D02*
X361315691Y-90964458D01*
X361874882Y-93404424D02*
X361440762Y-90942407D01*
X361565833Y-90920352D02*
X361999953Y-93382371D01*
X362375165Y-93316211D02*
X361941044Y-90854192D01*
X361815974Y-90876245D02*
X362250094Y-93338265D01*
X362125024Y-93360318D02*
X361690903Y-90898298D01*
X362449307Y-92947739D02*
X362136740Y-91175085D01*
X357426787Y-93833344D02*
X362449307Y-92947739D01*
X357114220Y-92060690D02*
X357426787Y-93833344D01*
X362136740Y-91175085D02*
X357114220Y-92060690D01*
X362510084Y-93292421D02*
X362075965Y-90830402D01*
X361312737Y-90964979D02*
X362075965Y-90830402D01*
X361749812Y-93426478D02*
X362513038Y-93291900D01*
X361027524Y-90355243D02*
X361322967Y-90303148D01*
X361322967Y-90303148D02*
X361253507Y-89909225D01*
X361253507Y-89909225D02*
X361815370Y-90216324D01*
X361815370Y-90216324D02*
X361392426Y-90697071D01*
X361392426Y-90697071D02*
X361322967Y-90303148D01*
X361884830Y-90610247D02*
X361745911Y-89822401D01*
X361815370Y-90216324D02*
X362012332Y-90181595D01*
%TO.C,D48*%
X365057808Y-112187066D02*
X364623687Y-109725046D01*
X365182878Y-112165012D02*
X364748758Y-109702995D01*
X364873829Y-109680940D02*
X365307949Y-112142959D01*
X365683161Y-112076799D02*
X365249040Y-109614780D01*
X365123970Y-109636833D02*
X365558090Y-112098853D01*
X365433020Y-112120906D02*
X364998899Y-109658886D01*
X365757303Y-111708327D02*
X365444736Y-109935673D01*
X360734783Y-112593932D02*
X365757303Y-111708327D01*
X360422216Y-110821278D02*
X360734783Y-112593932D01*
X365444736Y-109935673D02*
X360422216Y-110821278D01*
X365818080Y-112053009D02*
X365383961Y-109590990D01*
X364620733Y-109725567D02*
X365383961Y-109590990D01*
X365057808Y-112187066D02*
X365821034Y-112052488D01*
X364335520Y-109115831D02*
X364630963Y-109063736D01*
X364630963Y-109063736D02*
X364561503Y-108669813D01*
X364561503Y-108669813D02*
X365123366Y-108976912D01*
X365123366Y-108976912D02*
X364700422Y-109457659D01*
X364700422Y-109457659D02*
X364630963Y-109063736D01*
X365192826Y-109370835D02*
X365053907Y-108582989D01*
X365123366Y-108976912D02*
X365320328Y-108942183D01*
%TO.C,D47*%
X368365805Y-130947658D02*
X367931684Y-128485638D01*
X368490875Y-130925604D02*
X368056755Y-128463587D01*
X368181826Y-128441532D02*
X368615946Y-130903551D01*
X368991158Y-130837391D02*
X368557037Y-128375372D01*
X368431967Y-128397425D02*
X368866087Y-130859445D01*
X368741017Y-130881498D02*
X368306896Y-128419478D01*
X369065300Y-130468919D02*
X368752733Y-128696265D01*
X364042780Y-131354524D02*
X369065300Y-130468919D01*
X363730213Y-129581870D02*
X364042780Y-131354524D01*
X368752733Y-128696265D02*
X363730213Y-129581870D01*
X369126077Y-130813601D02*
X368691958Y-128351582D01*
X367928730Y-128486159D02*
X368691958Y-128351582D01*
X368365805Y-130947658D02*
X369129031Y-130813080D01*
X367643517Y-127876423D02*
X367938960Y-127824328D01*
X367938960Y-127824328D02*
X367869500Y-127430405D01*
X367869500Y-127430405D02*
X368431363Y-127737504D01*
X368431363Y-127737504D02*
X368008419Y-128218251D01*
X368008419Y-128218251D02*
X367938960Y-127824328D01*
X368500823Y-128131427D02*
X368361904Y-127343581D01*
X368431363Y-127737504D02*
X368628325Y-127702775D01*
%TO.C,D44*%
X349605217Y-134255650D02*
X349171096Y-131793630D01*
X349730287Y-134233596D02*
X349296167Y-131771579D01*
X349421238Y-131749524D02*
X349855358Y-134211543D01*
X350230570Y-134145383D02*
X349796449Y-131683364D01*
X349671379Y-131705417D02*
X350105499Y-134167437D01*
X349980429Y-134189490D02*
X349546308Y-131727470D01*
X350304712Y-133776911D02*
X349992145Y-132004257D01*
X345282192Y-134662516D02*
X350304712Y-133776911D01*
X344969625Y-132889862D02*
X345282192Y-134662516D01*
X349992145Y-132004257D02*
X344969625Y-132889862D01*
X350365489Y-134121593D02*
X349931370Y-131659574D01*
X349168142Y-131794151D02*
X349931370Y-131659574D01*
X349605217Y-134255650D02*
X350368443Y-134121072D01*
X348882929Y-131184415D02*
X349178372Y-131132320D01*
X349178372Y-131132320D02*
X349108912Y-130738397D01*
X349108912Y-130738397D02*
X349670775Y-131045496D01*
X349670775Y-131045496D02*
X349247831Y-131526243D01*
X349247831Y-131526243D02*
X349178372Y-131132320D01*
X349740235Y-131439419D02*
X349601316Y-130651573D01*
X349670775Y-131045496D02*
X349867737Y-131010767D01*
%TO.C,D43*%
X346297216Y-115495067D02*
X345863095Y-113033047D01*
X346422286Y-115473013D02*
X345988166Y-113010996D01*
X346113237Y-112988941D02*
X346547357Y-115450960D01*
X346922569Y-115384800D02*
X346488448Y-112922781D01*
X346363378Y-112944834D02*
X346797498Y-115406854D01*
X346672428Y-115428907D02*
X346238307Y-112966887D01*
X346996711Y-115016328D02*
X346684144Y-113243674D01*
X341974191Y-115901933D02*
X346996711Y-115016328D01*
X341661624Y-114129279D02*
X341974191Y-115901933D01*
X346684144Y-113243674D02*
X341661624Y-114129279D01*
X347057488Y-115361010D02*
X346623369Y-112898991D01*
X345860141Y-113033568D02*
X346623369Y-112898991D01*
X346297216Y-115495067D02*
X347060442Y-115360489D01*
X345574928Y-112423832D02*
X345870371Y-112371737D01*
X345870371Y-112371737D02*
X345800911Y-111977814D01*
X345800911Y-111977814D02*
X346362774Y-112284913D01*
X346362774Y-112284913D02*
X345939830Y-112765660D01*
X345939830Y-112765660D02*
X345870371Y-112371737D01*
X346432234Y-112678836D02*
X346293315Y-111890990D01*
X346362774Y-112284913D02*
X346559736Y-112250184D01*
%TO.C,D42*%
X342989216Y-96734474D02*
X342555095Y-94272454D01*
X343114286Y-96712420D02*
X342680166Y-94250403D01*
X342805237Y-94228348D02*
X343239357Y-96690367D01*
X343614569Y-96624207D02*
X343180448Y-94162188D01*
X343055378Y-94184241D02*
X343489498Y-96646261D01*
X343364428Y-96668314D02*
X342930307Y-94206294D01*
X343688711Y-96255735D02*
X343376144Y-94483081D01*
X338666191Y-97141340D02*
X343688711Y-96255735D01*
X338353624Y-95368686D02*
X338666191Y-97141340D01*
X343376144Y-94483081D02*
X338353624Y-95368686D01*
X343749488Y-96600417D02*
X343315369Y-94138398D01*
X342552141Y-94272975D02*
X343315369Y-94138398D01*
X342989216Y-96734474D02*
X343752442Y-96599896D01*
X342266928Y-93663239D02*
X342562371Y-93611144D01*
X342562371Y-93611144D02*
X342492911Y-93217221D01*
X342492911Y-93217221D02*
X343054774Y-93524320D01*
X343054774Y-93524320D02*
X342631830Y-94005067D01*
X342631830Y-94005067D02*
X342562371Y-93611144D01*
X343124234Y-93918243D02*
X342985315Y-93130397D01*
X343054774Y-93524320D02*
X343251736Y-93489591D01*
%TO.C,D41*%
X339976669Y-77921796D02*
X339542548Y-75459776D01*
X340101739Y-77899742D02*
X339667619Y-75437725D01*
X339792690Y-75415670D02*
X340226810Y-77877689D01*
X340602022Y-77811529D02*
X340167901Y-75349510D01*
X340042831Y-75371563D02*
X340476951Y-77833583D01*
X340351881Y-77855636D02*
X339917760Y-75393616D01*
X340676164Y-77443057D02*
X340363597Y-75670403D01*
X335653644Y-78328662D02*
X340676164Y-77443057D01*
X335341077Y-76556008D02*
X335653644Y-78328662D01*
X340363597Y-75670403D02*
X335341077Y-76556008D01*
X340736941Y-77787739D02*
X340302822Y-75325720D01*
X339539594Y-75460297D02*
X340302822Y-75325720D01*
X339976669Y-77921796D02*
X340739895Y-77787218D01*
X339254381Y-74850561D02*
X339549824Y-74798466D01*
X339549824Y-74798466D02*
X339480364Y-74404543D01*
X339480364Y-74404543D02*
X340042227Y-74711642D01*
X340042227Y-74711642D02*
X339619283Y-75192389D01*
X339619283Y-75192389D02*
X339549824Y-74798466D01*
X340111687Y-75105565D02*
X339972768Y-74317719D01*
X340042227Y-74711642D02*
X340239189Y-74676913D01*
%TO.C,D40*%
X330844635Y-137563651D02*
X330410514Y-135101631D01*
X330969705Y-137541597D02*
X330535585Y-135079580D01*
X330660656Y-135057525D02*
X331094776Y-137519544D01*
X331469988Y-137453384D02*
X331035867Y-134991365D01*
X330910797Y-135013418D02*
X331344917Y-137475438D01*
X331219847Y-137497491D02*
X330785726Y-135035471D01*
X331544130Y-137084912D02*
X331231563Y-135312258D01*
X326521610Y-137970517D02*
X331544130Y-137084912D01*
X326209043Y-136197863D02*
X326521610Y-137970517D01*
X331231563Y-135312258D02*
X326209043Y-136197863D01*
X331604907Y-137429594D02*
X331170788Y-134967575D01*
X330407560Y-135102152D02*
X331170788Y-134967575D01*
X330844635Y-137563651D02*
X331607861Y-137429073D01*
X330122347Y-134492416D02*
X330417790Y-134440321D01*
X330417790Y-134440321D02*
X330348330Y-134046398D01*
X330348330Y-134046398D02*
X330910193Y-134353497D01*
X330910193Y-134353497D02*
X330487249Y-134834244D01*
X330487249Y-134834244D02*
X330417790Y-134440321D01*
X330979653Y-134747420D02*
X330840734Y-133959574D01*
X330910193Y-134353497D02*
X331107155Y-134318768D01*
%TO.C,D39*%
X326433963Y-112549529D02*
X325999842Y-110087509D01*
X326559033Y-112527475D02*
X326124913Y-110065458D01*
X326249984Y-110043403D02*
X326684104Y-112505422D01*
X327059316Y-112439262D02*
X326625195Y-109977243D01*
X326500125Y-109999296D02*
X326934245Y-112461316D01*
X326809175Y-112483369D02*
X326375054Y-110021349D01*
X327133458Y-112070790D02*
X326820891Y-110298136D01*
X322110938Y-112956395D02*
X327133458Y-112070790D01*
X321798371Y-111183741D02*
X322110938Y-112956395D01*
X326820891Y-110298136D02*
X321798371Y-111183741D01*
X327194235Y-112415472D02*
X326760116Y-109953453D01*
X325996888Y-110088030D02*
X326760116Y-109953453D01*
X326433963Y-112549529D02*
X327197189Y-112414951D01*
X325711675Y-109478294D02*
X326007118Y-109426199D01*
X326007118Y-109426199D02*
X325937658Y-109032276D01*
X325937658Y-109032276D02*
X326499521Y-109339375D01*
X326499521Y-109339375D02*
X326076577Y-109820122D01*
X326076577Y-109820122D02*
X326007118Y-109426199D01*
X326568981Y-109733298D02*
X326430062Y-108945452D01*
X326499521Y-109339375D02*
X326696483Y-109304646D01*
%TO.C,D38*%
X323125966Y-93788946D02*
X322691845Y-91326926D01*
X323251036Y-93766892D02*
X322816916Y-91304875D01*
X322941987Y-91282820D02*
X323376107Y-93744839D01*
X323751319Y-93678679D02*
X323317198Y-91216660D01*
X323192128Y-91238713D02*
X323626248Y-93700733D01*
X323501178Y-93722786D02*
X323067057Y-91260766D01*
X323825461Y-93310207D02*
X323512894Y-91537553D01*
X318802941Y-94195812D02*
X323825461Y-93310207D01*
X318490374Y-92423158D02*
X318802941Y-94195812D01*
X323512894Y-91537553D02*
X318490374Y-92423158D01*
X323886238Y-93654889D02*
X323452119Y-91192870D01*
X322688891Y-91327447D02*
X323452119Y-91192870D01*
X323125966Y-93788946D02*
X323889192Y-93654368D01*
X322403678Y-90717711D02*
X322699121Y-90665616D01*
X322699121Y-90665616D02*
X322629661Y-90271693D01*
X322629661Y-90271693D02*
X323191524Y-90578792D01*
X323191524Y-90578792D02*
X322768580Y-91059539D01*
X322768580Y-91059539D02*
X322699121Y-90665616D01*
X323260984Y-90972715D02*
X323122065Y-90184869D01*
X323191524Y-90578792D02*
X323388486Y-90544063D01*
%TO.C,D37*%
X319817970Y-75028358D02*
X319383849Y-72566338D01*
X319943040Y-75006304D02*
X319508920Y-72544287D01*
X319633991Y-72522232D02*
X320068111Y-74984251D01*
X320443323Y-74918091D02*
X320009202Y-72456072D01*
X319884132Y-72478125D02*
X320318252Y-74940145D01*
X320193182Y-74962198D02*
X319759061Y-72500178D01*
X320517465Y-74549619D02*
X320204898Y-72776965D01*
X315494945Y-75435224D02*
X320517465Y-74549619D01*
X315182378Y-73662570D02*
X315494945Y-75435224D01*
X320204898Y-72776965D02*
X315182378Y-73662570D01*
X320578242Y-74894301D02*
X320144123Y-72432282D01*
X319380895Y-72566859D02*
X320144123Y-72432282D01*
X319817970Y-75028358D02*
X320581196Y-74893780D01*
X319095682Y-71957123D02*
X319391125Y-71905028D01*
X319391125Y-71905028D02*
X319321665Y-71511105D01*
X319321665Y-71511105D02*
X319883528Y-71818204D01*
X319883528Y-71818204D02*
X319460584Y-72298951D01*
X319460584Y-72298951D02*
X319391125Y-71905028D01*
X319952988Y-72212127D02*
X319814069Y-71424281D01*
X319883528Y-71818204D02*
X320080490Y-71783475D01*
%TO.C,D36*%
X312084046Y-140871646D02*
X311649925Y-138409626D01*
X312209116Y-140849592D02*
X311774996Y-138387575D01*
X311900067Y-138365520D02*
X312334187Y-140827539D01*
X312709399Y-140761379D02*
X312275278Y-138299360D01*
X312150208Y-138321413D02*
X312584328Y-140783433D01*
X312459258Y-140805486D02*
X312025137Y-138343466D01*
X312783541Y-140392907D02*
X312470974Y-138620253D01*
X307761021Y-141278512D02*
X312783541Y-140392907D01*
X307448454Y-139505858D02*
X307761021Y-141278512D01*
X312470974Y-138620253D02*
X307448454Y-139505858D01*
X312844318Y-140737589D02*
X312410199Y-138275570D01*
X311646971Y-138410147D02*
X312410199Y-138275570D01*
X312084046Y-140871646D02*
X312847272Y-140737068D01*
X311361758Y-137800411D02*
X311657201Y-137748316D01*
X311657201Y-137748316D02*
X311587741Y-137354393D01*
X311587741Y-137354393D02*
X312149604Y-137661492D01*
X312149604Y-137661492D02*
X311726660Y-138142239D01*
X311726660Y-138142239D02*
X311657201Y-137748316D01*
X312219064Y-138055415D02*
X312080145Y-137267569D01*
X312149604Y-137661492D02*
X312346566Y-137626763D01*
%TO.C,D35*%
X306570708Y-109603996D02*
X306136587Y-107141976D01*
X306695778Y-109581942D02*
X306261658Y-107119925D01*
X306386729Y-107097870D02*
X306820849Y-109559889D01*
X307196061Y-109493729D02*
X306761940Y-107031710D01*
X306636870Y-107053763D02*
X307070990Y-109515783D01*
X306945920Y-109537836D02*
X306511799Y-107075816D01*
X307270203Y-109125257D02*
X306957636Y-107352603D01*
X302247683Y-110010862D02*
X307270203Y-109125257D01*
X301935116Y-108238208D02*
X302247683Y-110010862D01*
X306957636Y-107352603D02*
X301935116Y-108238208D01*
X307330980Y-109469939D02*
X306896861Y-107007920D01*
X306133633Y-107142497D02*
X306896861Y-107007920D01*
X306570708Y-109603996D02*
X307333934Y-109469418D01*
X305848420Y-106532761D02*
X306143863Y-106480666D01*
X306143863Y-106480666D02*
X306074403Y-106086743D01*
X306074403Y-106086743D02*
X306636266Y-106393842D01*
X306636266Y-106393842D02*
X306213322Y-106874589D01*
X306213322Y-106874589D02*
X306143863Y-106480666D01*
X306705726Y-106787765D02*
X306566807Y-105999919D01*
X306636266Y-106393842D02*
X306833228Y-106359113D01*
%TO.C,D34*%
X303262719Y-90843411D02*
X302828598Y-88381391D01*
X303387789Y-90821357D02*
X302953669Y-88359340D01*
X303078740Y-88337285D02*
X303512860Y-90799304D01*
X303888072Y-90733144D02*
X303453951Y-88271125D01*
X303328881Y-88293178D02*
X303763001Y-90755198D01*
X303637931Y-90777251D02*
X303203810Y-88315231D01*
X303962214Y-90364672D02*
X303649647Y-88592018D01*
X298939694Y-91250277D02*
X303962214Y-90364672D01*
X298627127Y-89477623D02*
X298939694Y-91250277D01*
X303649647Y-88592018D02*
X298627127Y-89477623D01*
X304022991Y-90709354D02*
X303588872Y-88247335D01*
X302825644Y-88381912D02*
X303588872Y-88247335D01*
X303262719Y-90843411D02*
X304025945Y-90708833D01*
X302540431Y-87772176D02*
X302835874Y-87720081D01*
X302835874Y-87720081D02*
X302766414Y-87326158D01*
X302766414Y-87326158D02*
X303328277Y-87633257D01*
X303328277Y-87633257D02*
X302905333Y-88114004D01*
X302905333Y-88114004D02*
X302835874Y-87720081D01*
X303397737Y-88027180D02*
X303258818Y-87239334D01*
X303328277Y-87633257D02*
X303525239Y-87598528D01*
%TO.C,D33*%
X299954715Y-72082825D02*
X299520594Y-69620805D01*
X300079785Y-72060771D02*
X299645665Y-69598754D01*
X299770736Y-69576699D02*
X300204856Y-72038718D01*
X300580068Y-71972558D02*
X300145947Y-69510539D01*
X300020877Y-69532592D02*
X300454997Y-71994612D01*
X300329927Y-72016665D02*
X299895806Y-69554645D01*
X300654210Y-71604086D02*
X300341643Y-69831432D01*
X295631690Y-72489691D02*
X300654210Y-71604086D01*
X295319123Y-70717037D02*
X295631690Y-72489691D01*
X300341643Y-69831432D02*
X295319123Y-70717037D01*
X300714987Y-71948768D02*
X300280868Y-69486749D01*
X299517640Y-69621326D02*
X300280868Y-69486749D01*
X299954715Y-72082825D02*
X300717941Y-71948247D01*
X299232427Y-69011590D02*
X299527870Y-68959495D01*
X299527870Y-68959495D02*
X299458410Y-68565572D01*
X299458410Y-68565572D02*
X300020273Y-68872671D01*
X300020273Y-68872671D02*
X299597329Y-69353418D01*
X299597329Y-69353418D02*
X299527870Y-68959495D01*
X300089733Y-69266594D02*
X299950814Y-68478748D01*
X300020273Y-68872671D02*
X300217235Y-68837942D01*
%TO.C,D32*%
X288407348Y-139727845D02*
X287552298Y-137378613D01*
X288526689Y-139684407D02*
X287671640Y-137335179D01*
X287790980Y-137291740D02*
X288646030Y-139640972D01*
X289004053Y-139510662D02*
X288149003Y-137161431D01*
X288029662Y-137204867D02*
X288884712Y-139554099D01*
X288765371Y-139597535D02*
X287910321Y-137248304D01*
X289013084Y-139134913D02*
X288397448Y-137443466D01*
X284220652Y-140879216D02*
X289013084Y-139134913D01*
X283605015Y-139187769D02*
X284220652Y-140879216D01*
X288397448Y-137443466D02*
X283605015Y-139187769D01*
X289132792Y-139463805D02*
X288277743Y-137114573D01*
X287549479Y-137379639D02*
X288277743Y-137114573D01*
X288407348Y-139727845D02*
X289135610Y-139462779D01*
X287162720Y-136828693D02*
X287444627Y-136726087D01*
X287444627Y-136726087D02*
X287307819Y-136350210D01*
X287307819Y-136350210D02*
X287914474Y-136555077D01*
X287914474Y-136555077D02*
X287581435Y-137101964D01*
X287581435Y-137101964D02*
X287444627Y-136726087D01*
X288051282Y-136930954D02*
X287777666Y-136179200D01*
X287914474Y-136555077D02*
X288102412Y-136486673D01*
%TO.C,D31*%
X288912793Y-119165530D02*
X288478672Y-116703510D01*
X289037863Y-119143476D02*
X288603743Y-116681459D01*
X288728814Y-116659404D02*
X289162934Y-119121423D01*
X289538146Y-119055263D02*
X289104025Y-116593244D01*
X288978955Y-116615297D02*
X289413075Y-119077317D01*
X289288005Y-119099370D02*
X288853884Y-116637350D01*
X289612288Y-118686791D02*
X289299721Y-116914137D01*
X284589768Y-119572396D02*
X289612288Y-118686791D01*
X284277201Y-117799742D02*
X284589768Y-119572396D01*
X289299721Y-116914137D02*
X284277201Y-117799742D01*
X289673065Y-119031473D02*
X289238946Y-116569454D01*
X288475718Y-116704031D02*
X289238946Y-116569454D01*
X288912793Y-119165530D02*
X289676019Y-119030952D01*
X288190505Y-116094295D02*
X288485948Y-116042200D01*
X288485948Y-116042200D02*
X288416488Y-115648277D01*
X288416488Y-115648277D02*
X288978351Y-115955376D01*
X288978351Y-115955376D02*
X288555407Y-116436123D01*
X288555407Y-116436123D02*
X288485948Y-116042200D01*
X289047811Y-116349299D02*
X288908892Y-115561453D01*
X288978351Y-115955376D02*
X289175313Y-115920647D01*
%TO.C,D30*%
X285604791Y-100404941D02*
X285170670Y-97942921D01*
X285729861Y-100382887D02*
X285295741Y-97920870D01*
X285420812Y-97898815D02*
X285854932Y-100360834D01*
X286230144Y-100294674D02*
X285796023Y-97832655D01*
X285670953Y-97854708D02*
X286105073Y-100316728D01*
X285980003Y-100338781D02*
X285545882Y-97876761D01*
X286304286Y-99926202D02*
X285991719Y-98153548D01*
X281281766Y-100811807D02*
X286304286Y-99926202D01*
X280969199Y-99039153D02*
X281281766Y-100811807D01*
X285991719Y-98153548D02*
X280969199Y-99039153D01*
X286365063Y-100270884D02*
X285930944Y-97808865D01*
X285167716Y-97943442D02*
X285930944Y-97808865D01*
X285604791Y-100404941D02*
X286368017Y-100270363D01*
X284882503Y-97333706D02*
X285177946Y-97281611D01*
X285177946Y-97281611D02*
X285108486Y-96887688D01*
X285108486Y-96887688D02*
X285670349Y-97194787D01*
X285670349Y-97194787D02*
X285247405Y-97675534D01*
X285247405Y-97675534D02*
X285177946Y-97281611D01*
X285739809Y-97588710D02*
X285600890Y-96800864D01*
X285670349Y-97194787D02*
X285867311Y-97160058D01*
%TO.C,D29*%
X282592239Y-81592258D02*
X282158118Y-79130238D01*
X282717309Y-81570204D02*
X282283189Y-79108187D01*
X282408260Y-79086132D02*
X282842380Y-81548151D01*
X283217592Y-81481991D02*
X282783471Y-79019972D01*
X282658401Y-79042025D02*
X283092521Y-81504045D01*
X282967451Y-81526098D02*
X282533330Y-79064078D01*
X283291734Y-81113519D02*
X282979167Y-79340865D01*
X278269214Y-81999124D02*
X283291734Y-81113519D01*
X277956647Y-80226470D02*
X278269214Y-81999124D01*
X282979167Y-79340865D02*
X277956647Y-80226470D01*
X283352511Y-81458201D02*
X282918392Y-78996182D01*
X282155164Y-79130759D02*
X282918392Y-78996182D01*
X282592239Y-81592258D02*
X283355465Y-81457680D01*
X281869951Y-78521023D02*
X282165394Y-78468928D01*
X282165394Y-78468928D02*
X282095934Y-78075005D01*
X282095934Y-78075005D02*
X282657797Y-78382104D01*
X282657797Y-78382104D02*
X282234853Y-78862851D01*
X282234853Y-78862851D02*
X282165394Y-78468928D01*
X282727257Y-78776027D02*
X282588338Y-77988181D01*
X282657797Y-78382104D02*
X282854759Y-78347375D01*
%TO.C,D28*%
X271450089Y-138004716D02*
X272971993Y-136021332D01*
X271550846Y-138082027D02*
X273072747Y-136098647D01*
X273173504Y-136175958D02*
X271651601Y-138159341D01*
X271953868Y-138391279D02*
X273475772Y-136407896D01*
X273375016Y-136330583D02*
X271853113Y-138313966D01*
X271752357Y-138236654D02*
X273274260Y-136253270D01*
X272275624Y-138197006D02*
X273371395Y-136768970D01*
X268229522Y-135092322D02*
X272275624Y-138197006D01*
X269325293Y-133664286D02*
X268229522Y-135092322D01*
X273371395Y-136768970D02*
X269325293Y-133664286D01*
X272062559Y-138474680D02*
X273584463Y-136491297D01*
X272969613Y-136019506D02*
X273584463Y-136491297D01*
X271450089Y-138004716D02*
X272064938Y-138476506D01*
X273226471Y-135397293D02*
X273464477Y-135579921D01*
X273464477Y-135579921D02*
X273707981Y-135262580D01*
X273707981Y-135262580D02*
X273861153Y-135884302D01*
X273861153Y-135884302D02*
X273220972Y-135897263D01*
X273220972Y-135897263D02*
X273464477Y-135579921D01*
X273617649Y-136201643D02*
X274104658Y-135566961D01*
X273861153Y-135884302D02*
X274019824Y-136006054D01*
%TO.C,D27*%
X270152208Y-122473533D02*
X269718087Y-120011513D01*
X270277278Y-122451479D02*
X269843158Y-119989462D01*
X269968229Y-119967407D02*
X270402349Y-122429426D01*
X270777561Y-122363266D02*
X270343440Y-119901247D01*
X270218370Y-119923300D02*
X270652490Y-122385320D01*
X270527420Y-122407373D02*
X270093299Y-119945353D01*
X270851703Y-121994794D02*
X270539136Y-120222140D01*
X265829183Y-122880399D02*
X270851703Y-121994794D01*
X265516616Y-121107745D02*
X265829183Y-122880399D01*
X270539136Y-120222140D02*
X265516616Y-121107745D01*
X270912480Y-122339476D02*
X270478361Y-119877457D01*
X269715133Y-120012034D02*
X270478361Y-119877457D01*
X270152208Y-122473533D02*
X270915434Y-122338955D01*
X269429920Y-119402298D02*
X269725363Y-119350203D01*
X269725363Y-119350203D02*
X269655903Y-118956280D01*
X269655903Y-118956280D02*
X270217766Y-119263379D01*
X270217766Y-119263379D02*
X269794822Y-119744126D01*
X269794822Y-119744126D02*
X269725363Y-119350203D01*
X270287226Y-119657302D02*
X270148307Y-118869456D01*
X270217766Y-119263379D02*
X270414728Y-119228650D01*
%TO.C,D26*%
X266844202Y-103712940D02*
X266410081Y-101250920D01*
X266969272Y-103690886D02*
X266535152Y-101228869D01*
X266660223Y-101206814D02*
X267094343Y-103668833D01*
X267469555Y-103602673D02*
X267035434Y-101140654D01*
X266910364Y-101162707D02*
X267344484Y-103624727D01*
X267219414Y-103646780D02*
X266785293Y-101184760D01*
X267543697Y-103234201D02*
X267231130Y-101461547D01*
X262521177Y-104119806D02*
X267543697Y-103234201D01*
X262208610Y-102347152D02*
X262521177Y-104119806D01*
X267231130Y-101461547D02*
X262208610Y-102347152D01*
X267604474Y-103578883D02*
X267170355Y-101116864D01*
X266407127Y-101251441D02*
X267170355Y-101116864D01*
X266844202Y-103712940D02*
X267607428Y-103578362D01*
X266121914Y-100641705D02*
X266417357Y-100589610D01*
X266417357Y-100589610D02*
X266347897Y-100195687D01*
X266347897Y-100195687D02*
X266909760Y-100502786D01*
X266909760Y-100502786D02*
X266486816Y-100983533D01*
X266486816Y-100983533D02*
X266417357Y-100589610D01*
X266979220Y-100896709D02*
X266840301Y-100108863D01*
X266909760Y-100502786D02*
X267106722Y-100468057D01*
%TO.C,D25*%
X263536210Y-84952346D02*
X263102089Y-82490326D01*
X263661280Y-84930292D02*
X263227160Y-82468275D01*
X263352231Y-82446220D02*
X263786351Y-84908239D01*
X264161563Y-84842079D02*
X263727442Y-82380060D01*
X263602372Y-82402113D02*
X264036492Y-84864133D01*
X263911422Y-84886186D02*
X263477301Y-82424166D01*
X264235705Y-84473607D02*
X263923138Y-82700953D01*
X259213185Y-85359212D02*
X264235705Y-84473607D01*
X258900618Y-83586558D02*
X259213185Y-85359212D01*
X263923138Y-82700953D02*
X258900618Y-83586558D01*
X264296482Y-84818289D02*
X263862363Y-82356270D01*
X263099135Y-82490847D02*
X263862363Y-82356270D01*
X263536210Y-84952346D02*
X264299436Y-84817768D01*
X262813922Y-81881111D02*
X263109365Y-81829016D01*
X263109365Y-81829016D02*
X263039905Y-81435093D01*
X263039905Y-81435093D02*
X263601768Y-81742192D01*
X263601768Y-81742192D02*
X263178824Y-82222939D01*
X263178824Y-82222939D02*
X263109365Y-81829016D01*
X263671228Y-82136115D02*
X263532309Y-81348269D01*
X263601768Y-81742192D02*
X263798730Y-81707463D01*
%TO.C,D24*%
X196497126Y-136361851D02*
X194975222Y-134378467D01*
X196597881Y-136284537D02*
X195075979Y-134301156D01*
X195176734Y-134223842D02*
X196698637Y-136207225D01*
X197000905Y-135975287D02*
X195479001Y-133991904D01*
X195378246Y-134069217D02*
X196900149Y-136052600D01*
X196799393Y-136129913D02*
X195277490Y-134146529D01*
X196896528Y-135614213D02*
X195800757Y-134186177D01*
X192850426Y-138718897D02*
X196896528Y-135614213D01*
X191754655Y-137290861D02*
X192850426Y-138718897D01*
X195800757Y-134186177D02*
X191754655Y-137290861D01*
X197109595Y-135891886D02*
X195587692Y-133908502D01*
X194972842Y-134380294D02*
X195587692Y-133908502D01*
X196497126Y-136361851D02*
X197111975Y-135890061D01*
X194438310Y-133971147D02*
X194676316Y-133788519D01*
X194676316Y-133788519D02*
X194432812Y-133471178D01*
X194432812Y-133471178D02*
X195072993Y-133484138D01*
X195072993Y-133484138D02*
X194919821Y-134105860D01*
X194919821Y-134105860D02*
X194676316Y-133788519D01*
X195316498Y-133801479D02*
X194829488Y-133166797D01*
X195072993Y-133484138D02*
X195231664Y-133362386D01*
%TO.C,D23*%
X196553250Y-123076381D02*
X196987371Y-120614361D01*
X196678321Y-123098433D02*
X197112441Y-120636416D01*
X197237512Y-120658468D02*
X196803392Y-123120487D01*
X197178603Y-123186647D02*
X197612724Y-120724628D01*
X197487653Y-120702574D02*
X197053533Y-123164594D01*
X196928462Y-123142541D02*
X197362583Y-120680521D01*
X197374299Y-122865754D02*
X197686866Y-121093100D01*
X192351779Y-121980149D02*
X197374299Y-122865754D01*
X192664346Y-120207495D02*
X192351779Y-121980149D01*
X197686866Y-121093100D02*
X192664346Y-120207495D01*
X197313523Y-123210437D02*
X197747644Y-120748418D01*
X196984416Y-120613840D02*
X197747644Y-120748418D01*
X196553250Y-123076381D02*
X197316476Y-123210958D01*
X196924946Y-119943327D02*
X197220389Y-119995421D01*
X197220389Y-119995421D02*
X197289848Y-119601498D01*
X197289848Y-119601498D02*
X197712793Y-120082245D01*
X197712793Y-120082245D02*
X197150929Y-120389344D01*
X197150929Y-120389344D02*
X197220389Y-119995421D01*
X197643333Y-120476168D02*
X197782252Y-119688322D01*
X197712793Y-120082245D02*
X197909754Y-120116975D01*
%TO.C,D22*%
X199861244Y-104315791D02*
X200295365Y-101853771D01*
X199986315Y-104337843D02*
X200420435Y-101875826D01*
X200545506Y-101897878D02*
X200111386Y-104359897D01*
X200486597Y-104426057D02*
X200920718Y-101964038D01*
X200795647Y-101941984D02*
X200361527Y-104404004D01*
X200236456Y-104381951D02*
X200670577Y-101919931D01*
X200682293Y-104105164D02*
X200994860Y-102332510D01*
X195659773Y-103219559D02*
X200682293Y-104105164D01*
X195972340Y-101446905D02*
X195659773Y-103219559D01*
X200994860Y-102332510D02*
X195972340Y-101446905D01*
X200621517Y-104449847D02*
X201055638Y-101987828D01*
X200292410Y-101853250D02*
X201055638Y-101987828D01*
X199861244Y-104315791D02*
X200624470Y-104450368D01*
X200232940Y-101182737D02*
X200528383Y-101234831D01*
X200528383Y-101234831D02*
X200597842Y-100840908D01*
X200597842Y-100840908D02*
X201020787Y-101321655D01*
X201020787Y-101321655D02*
X200458923Y-101628754D01*
X200458923Y-101628754D02*
X200528383Y-101234831D01*
X200951327Y-101715578D02*
X201090246Y-100927732D01*
X201020787Y-101321655D02*
X201217748Y-101356385D01*
%TO.C,D21*%
X203169245Y-85555202D02*
X203603366Y-83093182D01*
X203294316Y-85577254D02*
X203728436Y-83115237D01*
X203853507Y-83137289D02*
X203419387Y-85599308D01*
X203794598Y-85665468D02*
X204228719Y-83203449D01*
X204103648Y-83181395D02*
X203669528Y-85643415D01*
X203544457Y-85621362D02*
X203978578Y-83159342D01*
X203990294Y-85344575D02*
X204302861Y-83571921D01*
X198967774Y-84458970D02*
X203990294Y-85344575D01*
X199280341Y-82686316D02*
X198967774Y-84458970D01*
X204302861Y-83571921D02*
X199280341Y-82686316D01*
X203929518Y-85689258D02*
X204363639Y-83227239D01*
X203600411Y-83092661D02*
X204363639Y-83227239D01*
X203169245Y-85555202D02*
X203932471Y-85689779D01*
X203540941Y-82422148D02*
X203836384Y-82474242D01*
X203836384Y-82474242D02*
X203905843Y-82080319D01*
X203905843Y-82080319D02*
X204328788Y-82561066D01*
X204328788Y-82561066D02*
X203766924Y-82868165D01*
X203766924Y-82868165D02*
X203836384Y-82474242D01*
X204259328Y-82954989D02*
X204398247Y-82167143D01*
X204328788Y-82561066D02*
X204525749Y-82595796D01*
%TO.C,D20*%
X178135254Y-140945162D02*
X178990304Y-138595930D01*
X178254595Y-140988597D02*
X179109645Y-138639368D01*
X179228986Y-138682803D02*
X178373936Y-141032035D01*
X178731959Y-141162344D02*
X179587009Y-138813113D01*
X179467668Y-138769676D02*
X178612618Y-141118908D01*
X178493277Y-141075471D02*
X179348327Y-138726240D01*
X178980404Y-140880309D02*
X179596040Y-139188862D01*
X174187971Y-139136006D02*
X178980404Y-140880309D01*
X174803608Y-137444559D02*
X174187971Y-139136006D01*
X179596040Y-139188862D02*
X174803608Y-137444559D01*
X178860698Y-141209201D02*
X179715749Y-138859970D01*
X178987485Y-138594904D02*
X179715749Y-138859970D01*
X178135254Y-140945162D02*
X178863516Y-141210227D01*
X179045352Y-137924250D02*
X179327260Y-138026856D01*
X179327260Y-138026856D02*
X179464068Y-137650979D01*
X179464068Y-137650979D02*
X179797106Y-138197866D01*
X179797106Y-138197866D02*
X179190452Y-138402733D01*
X179190452Y-138402733D02*
X179327260Y-138026856D01*
X179660298Y-138573743D02*
X179933914Y-137821989D01*
X179797106Y-138197866D02*
X179985045Y-138266270D01*
%TO.C,D19*%
X177792662Y-119768381D02*
X178226783Y-117306361D01*
X177917733Y-119790433D02*
X178351853Y-117328416D01*
X178476924Y-117350468D02*
X178042804Y-119812487D01*
X178418015Y-119878647D02*
X178852136Y-117416628D01*
X178727065Y-117394574D02*
X178292945Y-119856594D01*
X178167874Y-119834541D02*
X178601995Y-117372521D01*
X178613711Y-119557754D02*
X178926278Y-117785100D01*
X173591191Y-118672149D02*
X178613711Y-119557754D01*
X173903758Y-116899495D02*
X173591191Y-118672149D01*
X178926278Y-117785100D02*
X173903758Y-116899495D01*
X178552935Y-119902437D02*
X178987056Y-117440418D01*
X178223828Y-117305840D02*
X178987056Y-117440418D01*
X177792662Y-119768381D02*
X178555888Y-119902958D01*
X178164358Y-116635327D02*
X178459801Y-116687421D01*
X178459801Y-116687421D02*
X178529260Y-116293498D01*
X178529260Y-116293498D02*
X178952205Y-116774245D01*
X178952205Y-116774245D02*
X178390341Y-117081344D01*
X178390341Y-117081344D02*
X178459801Y-116687421D01*
X178882745Y-117168168D02*
X179021664Y-116380322D01*
X178952205Y-116774245D02*
X179149166Y-116808975D01*
%TO.C,D18*%
X181396099Y-101059884D02*
X181830220Y-98597864D01*
X181521170Y-101081936D02*
X181955290Y-98619919D01*
X182080361Y-98641971D02*
X181646241Y-101103990D01*
X182021452Y-101170150D02*
X182455573Y-98708131D01*
X182330502Y-98686077D02*
X181896382Y-101148097D01*
X181771311Y-101126044D02*
X182205432Y-98664024D01*
X182217148Y-100849257D02*
X182529715Y-99076603D01*
X177194628Y-99963652D02*
X182217148Y-100849257D01*
X177507195Y-98190998D02*
X177194628Y-99963652D01*
X182529715Y-99076603D02*
X177507195Y-98190998D01*
X182156372Y-101193940D02*
X182590493Y-98731921D01*
X181827265Y-98597343D02*
X182590493Y-98731921D01*
X181396099Y-101059884D02*
X182159325Y-101194461D01*
X181767795Y-97926830D02*
X182063238Y-97978924D01*
X182063238Y-97978924D02*
X182132697Y-97585001D01*
X182132697Y-97585001D02*
X182555642Y-98065748D01*
X182555642Y-98065748D02*
X181993778Y-98372847D01*
X181993778Y-98372847D02*
X182063238Y-97978924D01*
X182486182Y-98459671D02*
X182625101Y-97671825D01*
X182555642Y-98065748D02*
X182752603Y-98100478D01*
%TO.C,D17*%
X184704100Y-82299301D02*
X185138221Y-79837281D01*
X184829171Y-82321353D02*
X185263291Y-79859336D01*
X185388362Y-79881388D02*
X184954242Y-82343407D01*
X185329453Y-82409567D02*
X185763574Y-79947548D01*
X185638503Y-79925494D02*
X185204383Y-82387514D01*
X185079312Y-82365461D02*
X185513433Y-79903441D01*
X185525149Y-82088674D02*
X185837716Y-80316020D01*
X180502629Y-81203069D02*
X185525149Y-82088674D01*
X180815196Y-79430415D02*
X180502629Y-81203069D01*
X185837716Y-80316020D02*
X180815196Y-79430415D01*
X185464373Y-82433357D02*
X185898494Y-79971338D01*
X185135266Y-79836760D02*
X185898494Y-79971338D01*
X184704100Y-82299301D02*
X185467326Y-82433878D01*
X185075796Y-79166247D02*
X185371239Y-79218341D01*
X185371239Y-79218341D02*
X185440698Y-78824418D01*
X185440698Y-78824418D02*
X185863643Y-79305165D01*
X185863643Y-79305165D02*
X185301779Y-79612264D01*
X185301779Y-79612264D02*
X185371239Y-79218341D01*
X185794183Y-79699088D02*
X185933102Y-78911242D01*
X185863643Y-79305165D02*
X186060604Y-79339895D01*
%TO.C,D16*%
X154916849Y-141526594D02*
X155350970Y-139064574D01*
X155041920Y-141548646D02*
X155476040Y-139086629D01*
X155601111Y-139108681D02*
X155166991Y-141570700D01*
X155542202Y-141636860D02*
X155976323Y-139174841D01*
X155851252Y-139152787D02*
X155417132Y-141614807D01*
X155292061Y-141592754D02*
X155726182Y-139130734D01*
X155737898Y-141315967D02*
X156050465Y-139543313D01*
X150715378Y-140430362D02*
X155737898Y-141315967D01*
X151027945Y-138657708D02*
X150715378Y-140430362D01*
X156050465Y-139543313D02*
X151027945Y-138657708D01*
X155677122Y-141660650D02*
X156111243Y-139198631D01*
X155348015Y-139064053D02*
X156111243Y-139198631D01*
X154916849Y-141526594D02*
X155680075Y-141661171D01*
X155288545Y-138393540D02*
X155583988Y-138445634D01*
X155583988Y-138445634D02*
X155653447Y-138051711D01*
X155653447Y-138051711D02*
X156076392Y-138532458D01*
X156076392Y-138532458D02*
X155514528Y-138839557D01*
X155514528Y-138839557D02*
X155583988Y-138445634D01*
X156006932Y-138926381D02*
X156145851Y-138138535D01*
X156076392Y-138532458D02*
X156273353Y-138567188D01*
%TO.C,D15*%
X160430183Y-110258950D02*
X160864304Y-107796930D01*
X160555254Y-110281002D02*
X160989374Y-107818985D01*
X161114445Y-107841037D02*
X160680325Y-110303056D01*
X161055536Y-110369216D02*
X161489657Y-107907197D01*
X161364586Y-107885143D02*
X160930466Y-110347163D01*
X160805395Y-110325110D02*
X161239516Y-107863090D01*
X161251232Y-110048323D02*
X161563799Y-108275669D01*
X156228712Y-109162718D02*
X161251232Y-110048323D01*
X156541279Y-107390064D02*
X156228712Y-109162718D01*
X161563799Y-108275669D02*
X156541279Y-107390064D01*
X161190456Y-110393006D02*
X161624577Y-107930987D01*
X160861349Y-107796409D02*
X161624577Y-107930987D01*
X160430183Y-110258950D02*
X161193409Y-110393527D01*
X160801879Y-107125896D02*
X161097322Y-107177990D01*
X161097322Y-107177990D02*
X161166781Y-106784067D01*
X161166781Y-106784067D02*
X161589726Y-107264814D01*
X161589726Y-107264814D02*
X161027862Y-107571913D01*
X161027862Y-107571913D02*
X161097322Y-107177990D01*
X161520266Y-107658737D02*
X161659185Y-106870891D01*
X161589726Y-107264814D02*
X161786687Y-107299544D01*
%TO.C,D14*%
X163738180Y-91498362D02*
X164172301Y-89036342D01*
X163863251Y-91520414D02*
X164297371Y-89058397D01*
X164422442Y-89080449D02*
X163988322Y-91542468D01*
X164363533Y-91608628D02*
X164797654Y-89146609D01*
X164672583Y-89124555D02*
X164238463Y-91586575D01*
X164113392Y-91564522D02*
X164547513Y-89102502D01*
X164559229Y-91287735D02*
X164871796Y-89515081D01*
X159536709Y-90402130D02*
X164559229Y-91287735D01*
X159849276Y-88629476D02*
X159536709Y-90402130D01*
X164871796Y-89515081D02*
X159849276Y-88629476D01*
X164498453Y-91632418D02*
X164932574Y-89170399D01*
X164169346Y-89035821D02*
X164932574Y-89170399D01*
X163738180Y-91498362D02*
X164501406Y-91632939D01*
X164109876Y-88365308D02*
X164405319Y-88417402D01*
X164405319Y-88417402D02*
X164474778Y-88023479D01*
X164474778Y-88023479D02*
X164897723Y-88504226D01*
X164897723Y-88504226D02*
X164335859Y-88811325D01*
X164335859Y-88811325D02*
X164405319Y-88417402D01*
X164828263Y-88898149D02*
X164967182Y-88110303D01*
X164897723Y-88504226D02*
X165094684Y-88538956D01*
%TO.C,D13*%
X167046180Y-72737773D02*
X167480301Y-70275753D01*
X167171251Y-72759825D02*
X167605371Y-70297808D01*
X167730442Y-70319860D02*
X167296322Y-72781879D01*
X167671533Y-72848039D02*
X168105654Y-70386020D01*
X167980583Y-70363966D02*
X167546463Y-72825986D01*
X167421392Y-72803933D02*
X167855513Y-70341913D01*
X167867229Y-72527146D02*
X168179796Y-70754492D01*
X162844709Y-71641541D02*
X167867229Y-72527146D01*
X163157276Y-69868887D02*
X162844709Y-71641541D01*
X168179796Y-70754492D02*
X163157276Y-69868887D01*
X167806453Y-72871829D02*
X168240574Y-70409810D01*
X167477346Y-70275232D02*
X168240574Y-70409810D01*
X167046180Y-72737773D02*
X167809406Y-72872350D01*
X167417876Y-69604719D02*
X167713319Y-69656813D01*
X167713319Y-69656813D02*
X167782778Y-69262890D01*
X167782778Y-69262890D02*
X168205723Y-69743637D01*
X168205723Y-69743637D02*
X167643859Y-70050736D01*
X167643859Y-70050736D02*
X167713319Y-69656813D01*
X168136263Y-70137560D02*
X168275182Y-69349714D01*
X168205723Y-69743637D02*
X168402684Y-69778367D01*
%TO.C,D12*%
X136156263Y-138218597D02*
X136590384Y-135756577D01*
X136281334Y-138240649D02*
X136715454Y-135778632D01*
X136840525Y-135800684D02*
X136406405Y-138262703D01*
X136781616Y-138328863D02*
X137215737Y-135866844D01*
X137090666Y-135844790D02*
X136656546Y-138306810D01*
X136531475Y-138284757D02*
X136965596Y-135822737D01*
X136977312Y-138007970D02*
X137289879Y-136235316D01*
X131954792Y-137122365D02*
X136977312Y-138007970D01*
X132267359Y-135349711D02*
X131954792Y-137122365D01*
X137289879Y-136235316D02*
X132267359Y-135349711D01*
X136916536Y-138352653D02*
X137350657Y-135890634D01*
X136587429Y-135756056D02*
X137350657Y-135890634D01*
X136156263Y-138218597D02*
X136919489Y-138353174D01*
X136527959Y-135085543D02*
X136823402Y-135137637D01*
X136823402Y-135137637D02*
X136892861Y-134743714D01*
X136892861Y-134743714D02*
X137315806Y-135224461D01*
X137315806Y-135224461D02*
X136753942Y-135531560D01*
X136753942Y-135531560D02*
X136823402Y-135137637D01*
X137246346Y-135618384D02*
X137385265Y-134830538D01*
X137315806Y-135224461D02*
X137512767Y-135259191D01*
%TO.C,D11*%
X140566926Y-113204482D02*
X141001047Y-110742462D01*
X140691997Y-113226534D02*
X141126117Y-110764517D01*
X141251188Y-110786569D02*
X140817068Y-113248588D01*
X141192279Y-113314748D02*
X141626400Y-110852729D01*
X141501329Y-110830675D02*
X141067209Y-113292695D01*
X140942138Y-113270642D02*
X141376259Y-110808622D01*
X141387975Y-112993855D02*
X141700542Y-111221201D01*
X136365455Y-112108250D02*
X141387975Y-112993855D01*
X136678022Y-110335596D02*
X136365455Y-112108250D01*
X141700542Y-111221201D02*
X136678022Y-110335596D01*
X141327199Y-113338538D02*
X141761320Y-110876519D01*
X140998092Y-110741941D02*
X141761320Y-110876519D01*
X140566926Y-113204482D02*
X141330152Y-113339059D01*
X140938622Y-110071428D02*
X141234065Y-110123522D01*
X141234065Y-110123522D02*
X141303524Y-109729599D01*
X141303524Y-109729599D02*
X141726469Y-110210346D01*
X141726469Y-110210346D02*
X141164605Y-110517445D01*
X141164605Y-110517445D02*
X141234065Y-110123522D01*
X141657009Y-110604269D02*
X141795928Y-109816423D01*
X141726469Y-110210346D02*
X141923430Y-110245076D01*
%TO.C,D10*%
X143874931Y-94443889D02*
X144309052Y-91981869D01*
X144000002Y-94465941D02*
X144434122Y-92003924D01*
X144559193Y-92025976D02*
X144125073Y-94487995D01*
X144500284Y-94554155D02*
X144934405Y-92092136D01*
X144809334Y-92070082D02*
X144375214Y-94532102D01*
X144250143Y-94510049D02*
X144684264Y-92048029D01*
X144695980Y-94233262D02*
X145008547Y-92460608D01*
X139673460Y-93347657D02*
X144695980Y-94233262D01*
X139986027Y-91575003D02*
X139673460Y-93347657D01*
X145008547Y-92460608D02*
X139986027Y-91575003D01*
X144635204Y-94577945D02*
X145069325Y-92115926D01*
X144306097Y-91981348D02*
X145069325Y-92115926D01*
X143874931Y-94443889D02*
X144638157Y-94578466D01*
X144246627Y-91310835D02*
X144542070Y-91362929D01*
X144542070Y-91362929D02*
X144611529Y-90969006D01*
X144611529Y-90969006D02*
X145034474Y-91449753D01*
X145034474Y-91449753D02*
X144472610Y-91756852D01*
X144472610Y-91756852D02*
X144542070Y-91362929D01*
X144965014Y-91843676D02*
X145103933Y-91055830D01*
X145034474Y-91449753D02*
X145231435Y-91484483D01*
%TO.C,D9*%
X147182917Y-75683304D02*
X147617038Y-73221284D01*
X147307988Y-75705356D02*
X147742108Y-73243339D01*
X147867179Y-73265391D02*
X147433059Y-75727410D01*
X147808270Y-75793570D02*
X148242391Y-73331551D01*
X148117320Y-73309497D02*
X147683200Y-75771517D01*
X147558129Y-75749464D02*
X147992250Y-73287444D01*
X148003966Y-75472677D02*
X148316533Y-73700023D01*
X142981446Y-74587072D02*
X148003966Y-75472677D01*
X143294013Y-72814418D02*
X142981446Y-74587072D01*
X148316533Y-73700023D02*
X143294013Y-72814418D01*
X147943190Y-75817360D02*
X148377311Y-73355341D01*
X147614083Y-73220763D02*
X148377311Y-73355341D01*
X147182917Y-75683304D02*
X147946143Y-75817881D01*
X147554613Y-72550250D02*
X147850056Y-72602344D01*
X147850056Y-72602344D02*
X147919515Y-72208421D01*
X147919515Y-72208421D02*
X148342460Y-72689168D01*
X148342460Y-72689168D02*
X147780596Y-72996267D01*
X147780596Y-72996267D02*
X147850056Y-72602344D01*
X148273000Y-73083091D02*
X148411919Y-72295245D01*
X148342460Y-72689168D02*
X148539421Y-72723898D01*
%TO.C,D7*%
X120703670Y-116150004D02*
X121137791Y-113687984D01*
X120828741Y-116172056D02*
X121262861Y-113710039D01*
X121387932Y-113732091D02*
X120953812Y-116194110D01*
X121329023Y-116260270D02*
X121763144Y-113798251D01*
X121638073Y-113776197D02*
X121203953Y-116238217D01*
X121078882Y-116216164D02*
X121513003Y-113754144D01*
X121524719Y-115939377D02*
X121837286Y-114166723D01*
X116502199Y-115053772D02*
X121524719Y-115939377D01*
X116814766Y-113281118D02*
X116502199Y-115053772D01*
X121837286Y-114166723D02*
X116814766Y-113281118D01*
X121463943Y-116284060D02*
X121898064Y-113822041D01*
X121134836Y-113687463D02*
X121898064Y-113822041D01*
X120703670Y-116150004D02*
X121466896Y-116284581D01*
X121075366Y-113016950D02*
X121370809Y-113069044D01*
X121370809Y-113069044D02*
X121440268Y-112675121D01*
X121440268Y-112675121D02*
X121863213Y-113155868D01*
X121863213Y-113155868D02*
X121301349Y-113462967D01*
X121301349Y-113462967D02*
X121370809Y-113069044D01*
X121793753Y-113549791D02*
X121932672Y-112761945D01*
X121863213Y-113155868D02*
X122060174Y-113190598D01*
%TO.C,D6*%
X124011667Y-97389423D02*
X124445788Y-94927403D01*
X124136738Y-97411475D02*
X124570858Y-94949458D01*
X124695929Y-94971510D02*
X124261809Y-97433529D01*
X124637020Y-97499689D02*
X125071141Y-95037670D01*
X124946070Y-95015616D02*
X124511950Y-97477636D01*
X124386879Y-97455583D02*
X124821000Y-94993563D01*
X124832716Y-97178796D02*
X125145283Y-95406142D01*
X119810196Y-96293191D02*
X124832716Y-97178796D01*
X120122763Y-94520537D02*
X119810196Y-96293191D01*
X125145283Y-95406142D02*
X120122763Y-94520537D01*
X124771940Y-97523479D02*
X125206061Y-95061460D01*
X124442833Y-94926882D02*
X125206061Y-95061460D01*
X124011667Y-97389423D02*
X124774893Y-97524000D01*
X124383363Y-94256369D02*
X124678806Y-94308463D01*
X124678806Y-94308463D02*
X124748265Y-93914540D01*
X124748265Y-93914540D02*
X125171210Y-94395287D01*
X125171210Y-94395287D02*
X124609346Y-94702386D01*
X124609346Y-94702386D02*
X124678806Y-94308463D01*
X125101750Y-94789210D02*
X125240669Y-94001364D01*
X125171210Y-94395287D02*
X125368171Y-94430017D01*
%TO.C,D5*%
X127024230Y-78576743D02*
X127458351Y-76114723D01*
X127149301Y-78598795D02*
X127583421Y-76136778D01*
X127708492Y-76158830D02*
X127274372Y-78620849D01*
X127649583Y-78687009D02*
X128083704Y-76224990D01*
X127958633Y-76202936D02*
X127524513Y-78664956D01*
X127399442Y-78642903D02*
X127833563Y-76180883D01*
X127845279Y-78366116D02*
X128157846Y-76593462D01*
X122822759Y-77480511D02*
X127845279Y-78366116D01*
X123135326Y-75707857D02*
X122822759Y-77480511D01*
X128157846Y-76593462D02*
X123135326Y-75707857D01*
X127784503Y-78710799D02*
X128218624Y-76248780D01*
X127455396Y-76114202D02*
X128218624Y-76248780D01*
X127024230Y-78576743D02*
X127787456Y-78711320D01*
X127395926Y-75443689D02*
X127691369Y-75495783D01*
X127691369Y-75495783D02*
X127760828Y-75101860D01*
X127760828Y-75101860D02*
X128183773Y-75582607D01*
X128183773Y-75582607D02*
X127621909Y-75889706D01*
X127621909Y-75889706D02*
X127691369Y-75495783D01*
X128114313Y-75976530D02*
X128253232Y-75188684D01*
X128183773Y-75582607D02*
X128380734Y-75617337D01*
%TO.C,D4*%
X98635087Y-131602602D02*
X99069208Y-129140582D01*
X98760158Y-131624654D02*
X99194278Y-129162637D01*
X99319349Y-129184689D02*
X98885229Y-131646708D01*
X99260440Y-131712868D02*
X99694561Y-129250849D01*
X99569490Y-129228795D02*
X99135370Y-131690815D01*
X99010299Y-131668762D02*
X99444420Y-129206742D01*
X99456136Y-131391975D02*
X99768703Y-129619321D01*
X94433616Y-130506370D02*
X99456136Y-131391975D01*
X94746183Y-128733716D02*
X94433616Y-130506370D01*
X99768703Y-129619321D02*
X94746183Y-128733716D01*
X99395360Y-131736658D02*
X99829481Y-129274639D01*
X99066253Y-129140061D02*
X99829481Y-129274639D01*
X98635087Y-131602602D02*
X99398313Y-131737179D01*
X99006783Y-128469548D02*
X99302226Y-128521642D01*
X99302226Y-128521642D02*
X99371685Y-128127719D01*
X99371685Y-128127719D02*
X99794630Y-128608466D01*
X99794630Y-128608466D02*
X99232766Y-128915565D01*
X99232766Y-128915565D02*
X99302226Y-128521642D01*
X99725170Y-129002389D02*
X99864089Y-128214543D01*
X99794630Y-128608466D02*
X99991591Y-128643196D01*
%TO.C,D3*%
X102127731Y-112874573D02*
X102561852Y-110412553D01*
X102252802Y-112896625D02*
X102686922Y-110434608D01*
X102811993Y-110456660D02*
X102377873Y-112918679D01*
X102753084Y-112984839D02*
X103187205Y-110522820D01*
X103062134Y-110500766D02*
X102628014Y-112962786D01*
X102502943Y-112940733D02*
X102937064Y-110478713D01*
X102948780Y-112663946D02*
X103261347Y-110891292D01*
X97926260Y-111778341D02*
X102948780Y-112663946D01*
X98238827Y-110005687D02*
X97926260Y-111778341D01*
X103261347Y-110891292D02*
X98238827Y-110005687D01*
X102888004Y-113008629D02*
X103322125Y-110546610D01*
X102558897Y-110412032D02*
X103322125Y-110546610D01*
X102127731Y-112874573D02*
X102890957Y-113009150D01*
X102499427Y-109741519D02*
X102794870Y-109793613D01*
X102794870Y-109793613D02*
X102864329Y-109399690D01*
X102864329Y-109399690D02*
X103287274Y-109880437D01*
X103287274Y-109880437D02*
X102725410Y-110187536D01*
X102725410Y-110187536D02*
X102794870Y-109793613D01*
X103217814Y-110274360D02*
X103356733Y-109486514D01*
X103287274Y-109880437D02*
X103484235Y-109915167D01*
%TO.C,D2*%
X105251082Y-94081424D02*
X105685203Y-91619404D01*
X105376153Y-94103476D02*
X105810273Y-91641459D01*
X105935344Y-91663511D02*
X105501224Y-94125530D01*
X105876435Y-94191690D02*
X106310556Y-91729671D01*
X106185485Y-91707617D02*
X105751365Y-94169637D01*
X105626294Y-94147584D02*
X106060415Y-91685564D01*
X106072131Y-93870797D02*
X106384698Y-92098143D01*
X101049611Y-92985192D02*
X106072131Y-93870797D01*
X101362178Y-91212538D02*
X101049611Y-92985192D01*
X106384698Y-92098143D02*
X101362178Y-91212538D01*
X106011355Y-94215480D02*
X106445476Y-91753461D01*
X105682248Y-91618883D02*
X106445476Y-91753461D01*
X105251082Y-94081424D02*
X106014308Y-94216001D01*
X105622778Y-90948370D02*
X105918221Y-91000464D01*
X105918221Y-91000464D02*
X105987680Y-90606541D01*
X105987680Y-90606541D02*
X106410625Y-91087288D01*
X106410625Y-91087288D02*
X105848761Y-91394387D01*
X105848761Y-91394387D02*
X105918221Y-91000464D01*
X106341165Y-91481211D02*
X106480084Y-90693365D01*
X106410625Y-91087288D02*
X106607586Y-91122018D01*
%TO.C,D1*%
X108559080Y-75320842D02*
X108993201Y-72858822D01*
X108684151Y-75342894D02*
X109118271Y-72880877D01*
X109243342Y-72902929D02*
X108809222Y-75364948D01*
X109184433Y-75431108D02*
X109618554Y-72969089D01*
X109493483Y-72947035D02*
X109059363Y-75409055D01*
X108934292Y-75387002D02*
X109368413Y-72924982D01*
X109380129Y-75110215D02*
X109692696Y-73337561D01*
X104357609Y-74224610D02*
X109380129Y-75110215D01*
X104670176Y-72451956D02*
X104357609Y-74224610D01*
X109692696Y-73337561D02*
X104670176Y-72451956D01*
X109319353Y-75454898D02*
X109753474Y-72992879D01*
X108990246Y-72858301D02*
X109753474Y-72992879D01*
X108559080Y-75320842D02*
X109322306Y-75455419D01*
X108930776Y-72187788D02*
X109226219Y-72239882D01*
X109226219Y-72239882D02*
X109295678Y-71845959D01*
X109295678Y-71845959D02*
X109718623Y-72326706D01*
X109718623Y-72326706D02*
X109156759Y-72633805D01*
X109156759Y-72633805D02*
X109226219Y-72239882D01*
X109649163Y-72720629D02*
X109788082Y-71932783D01*
X109718623Y-72326706D02*
X109915584Y-72361436D01*
%TO.C,D8*%
X117395676Y-134910592D02*
X117829797Y-132448572D01*
X117520747Y-134932644D02*
X117954867Y-132470627D01*
X118079938Y-132492679D02*
X117645818Y-134954698D01*
X118021029Y-135020858D02*
X118455150Y-132558839D01*
X118330079Y-132536785D02*
X117895959Y-134998805D01*
X117770888Y-134976752D02*
X118205009Y-132514732D01*
X118216725Y-134699965D02*
X118529292Y-132927311D01*
X113194205Y-133814360D02*
X118216725Y-134699965D01*
X113506772Y-132041706D02*
X113194205Y-133814360D01*
X118529292Y-132927311D02*
X113506772Y-132041706D01*
X118155949Y-135044648D02*
X118590070Y-132582629D01*
X117826842Y-132448051D02*
X118590070Y-132582629D01*
X117395676Y-134910592D02*
X118158902Y-135045169D01*
X117767372Y-131777538D02*
X118062815Y-131829632D01*
X118062815Y-131829632D02*
X118132274Y-131435709D01*
X118132274Y-131435709D02*
X118555219Y-131916456D01*
X118555219Y-131916456D02*
X117993355Y-132223555D01*
X117993355Y-132223555D02*
X118062815Y-131829632D01*
X118485759Y-132310379D02*
X118624678Y-131522533D01*
X118555219Y-131916456D02*
X118752180Y-131951186D01*
%TO.C,SW26*%
X263583706Y-90767455D02*
X257940758Y-91762459D01*
X265524120Y-92126147D02*
G75*
G03X263583706Y-90767455I-1649553J-290861D01*
G01*
X268332577Y-87350917D02*
G75*
G03X266392163Y-85992225I-1649553J-290861D01*
G01*
X266392163Y-85992225D02*
X257208831Y-87611494D01*
X257209697Y-87616418D02*
X257940758Y-91762459D01*
X268332577Y-87350917D02*
X269064504Y-91501882D01*
X269064504Y-91501882D02*
X265524120Y-92126147D01*
%TO.C,SW21*%
X204828441Y-72327361D02*
X199185493Y-71332357D01*
X206187133Y-74267775D02*
G75*
G03X204828441Y-72327361I-1649553J290861D01*
G01*
X210459443Y-70741075D02*
G75*
G03X209100752Y-68800662I-1649552J290861D01*
G01*
X209100752Y-68800662D02*
X199917420Y-67181392D01*
X199916550Y-67186316D02*
X199185493Y-71332357D01*
X210459444Y-70741075D02*
X209727517Y-74892040D01*
X209727517Y-74892040D02*
X206187133Y-74267775D01*
%TO.C,SW24*%
X201959290Y-143504884D02*
X198471087Y-138958969D01*
X201650098Y-145853426D02*
G75*
G03X201959290Y-143504884I-1019675J1328867D01*
G01*
X207182581Y-146139602D02*
G75*
G03X207491772Y-143791059I-1019676J1328867D01*
G01*
X207491772Y-143791059D02*
X201815071Y-136393040D01*
X201811103Y-136396082D02*
X198471087Y-138958969D01*
X207182580Y-146139602D02*
X203838596Y-148705531D01*
X203838596Y-148705531D02*
X201650099Y-145853426D01*
%TO.C,SW14*%
X165101933Y-78218424D02*
X159458985Y-77223420D01*
X166460625Y-80158838D02*
G75*
G03X165101933Y-78218424I-1649553J290861D01*
G01*
X170732935Y-76632138D02*
G75*
G03X169374244Y-74691725I-1649552J290861D01*
G01*
X169374244Y-74691725D02*
X160190912Y-73072455D01*
X160190042Y-73077379D02*
X159458985Y-77223420D01*
X170732936Y-76632138D02*
X170001009Y-80783103D01*
X170001009Y-80783103D02*
X166460625Y-80158838D01*
%TO.C,SW1*%
X109922834Y-62040901D02*
X104279886Y-61045897D01*
X111281526Y-63981315D02*
G75*
G03X109922834Y-62040901I-1649553J290861D01*
G01*
X115553836Y-60454615D02*
G75*
G03X114195145Y-58514202I-1649552J290861D01*
G01*
X114195145Y-58514202D02*
X105011813Y-56894932D01*
X105010943Y-56899856D02*
X104279886Y-61045897D01*
X115553837Y-60454615D02*
X114821910Y-64605580D01*
X114821910Y-64605580D02*
X111281526Y-63981315D01*
%TO.C,SW2*%
X106614843Y-80801487D02*
X100971895Y-79806483D01*
X107973535Y-82741901D02*
G75*
G03X106614843Y-80801487I-1649553J290861D01*
G01*
X112245845Y-79215201D02*
G75*
G03X110887154Y-77274788I-1649552J290861D01*
G01*
X110887154Y-77274788D02*
X101703822Y-75655518D01*
X101702952Y-75660442D02*
X100971895Y-79806483D01*
X112245846Y-79215201D02*
X111513919Y-83366166D01*
X111513919Y-83366166D02*
X107973535Y-82741901D01*
%TO.C,SW3*%
X103306842Y-99562076D02*
X97663894Y-98567072D01*
X104665534Y-101502490D02*
G75*
G03X103306842Y-99562076I-1649553J290861D01*
G01*
X108937844Y-97975790D02*
G75*
G03X107579153Y-96035377I-1649552J290861D01*
G01*
X107579153Y-96035377D02*
X98395821Y-94416107D01*
X98394951Y-94421031D02*
X97663894Y-98567072D01*
X108937845Y-97975790D02*
X108205918Y-102126755D01*
X108205918Y-102126755D02*
X104665534Y-101502490D01*
%TO.C,SW4*%
X99998843Y-118322661D02*
X94355895Y-117327657D01*
X101357535Y-120263075D02*
G75*
G03X99998843Y-118322661I-1649553J290861D01*
G01*
X105629845Y-116736375D02*
G75*
G03X104271154Y-114795962I-1649552J290861D01*
G01*
X104271154Y-114795962D02*
X95087822Y-113176692D01*
X95086952Y-113181616D02*
X94355895Y-117327657D01*
X105629846Y-116736375D02*
X104897919Y-120887340D01*
X104897919Y-120887340D02*
X101357535Y-120263075D01*
%TO.C,SW5*%
X128683423Y-65348897D02*
X123040475Y-64353893D01*
X130042115Y-67289311D02*
G75*
G03X128683423Y-65348897I-1649553J290861D01*
G01*
X134314425Y-63762611D02*
G75*
G03X132955734Y-61822198I-1649552J290861D01*
G01*
X132955734Y-61822198D02*
X123772402Y-60202928D01*
X123771532Y-60207852D02*
X123040475Y-64353893D01*
X134314426Y-63762611D02*
X133582499Y-67913576D01*
X133582499Y-67913576D02*
X130042115Y-67289311D01*
%TO.C,SW6*%
X125375429Y-84109484D02*
X119732481Y-83114480D01*
X126734121Y-86049898D02*
G75*
G03X125375429Y-84109484I-1649553J290861D01*
G01*
X131006431Y-82523198D02*
G75*
G03X129647740Y-80582785I-1649552J290861D01*
G01*
X129647740Y-80582785D02*
X120464408Y-78963515D01*
X120463538Y-78968439D02*
X119732481Y-83114480D01*
X131006432Y-82523198D02*
X130274505Y-86674163D01*
X130274505Y-86674163D02*
X126734121Y-86049898D01*
%TO.C,SW7*%
X122067425Y-102870070D02*
X116424477Y-101875066D01*
X123426117Y-104810484D02*
G75*
G03X122067425Y-102870070I-1649553J290861D01*
G01*
X127698427Y-101283784D02*
G75*
G03X126339736Y-99343371I-1649552J290861D01*
G01*
X126339736Y-99343371D02*
X117156404Y-97724101D01*
X117155534Y-97729025D02*
X116424477Y-101875066D01*
X127698428Y-101283784D02*
X126966501Y-105434749D01*
X126966501Y-105434749D02*
X123426117Y-104810484D01*
%TO.C,SW8*%
X118759427Y-121630657D02*
X113116479Y-120635653D01*
X120118119Y-123571071D02*
G75*
G03X118759427Y-121630657I-1649553J290861D01*
G01*
X124390429Y-120044371D02*
G75*
G03X123031738Y-118103958I-1649552J290861D01*
G01*
X123031738Y-118103958D02*
X113848406Y-116484688D01*
X113847536Y-116489612D02*
X113116479Y-120635653D01*
X124390430Y-120044371D02*
X123658503Y-124195336D01*
X123658503Y-124195336D02*
X120118119Y-123571071D01*
%TO.C,SW9*%
X148546679Y-62403370D02*
X142903731Y-61408366D01*
X149905371Y-64343784D02*
G75*
G03X148546679Y-62403370I-1649553J290861D01*
G01*
X154177681Y-60817084D02*
G75*
G03X152818990Y-58876671I-1649552J290861D01*
G01*
X152818990Y-58876671D02*
X143635658Y-57257401D01*
X143634788Y-57262325D02*
X142903731Y-61408366D01*
X154177682Y-60817084D02*
X153445755Y-64968049D01*
X153445755Y-64968049D02*
X149905371Y-64343784D01*
%TO.C,SW10*%
X145238684Y-81163954D02*
X139595736Y-80168950D01*
X146597376Y-83104368D02*
G75*
G03X145238684Y-81163954I-1649553J290861D01*
G01*
X150869686Y-79577668D02*
G75*
G03X149510995Y-77637255I-1649552J290861D01*
G01*
X149510995Y-77637255D02*
X140327663Y-76017985D01*
X140326793Y-76022909D02*
X139595736Y-80168950D01*
X150869687Y-79577668D02*
X150137760Y-83728633D01*
X150137760Y-83728633D02*
X146597376Y-83104368D01*
%TO.C,SW11*%
X141930681Y-99924542D02*
X136287733Y-98929538D01*
X143289373Y-101864956D02*
G75*
G03X141930681Y-99924542I-1649553J290861D01*
G01*
X147561683Y-98338256D02*
G75*
G03X146202992Y-96397843I-1649552J290861D01*
G01*
X146202992Y-96397843D02*
X137019660Y-94778573D01*
X137018790Y-94783497D02*
X136287733Y-98929538D01*
X147561684Y-98338256D02*
X146829757Y-102489221D01*
X146829757Y-102489221D02*
X143289373Y-101864956D01*
%TO.C,SW12*%
X137520017Y-124938660D02*
X131877069Y-123943656D01*
X138878709Y-126879074D02*
G75*
G03X137520017Y-124938660I-1649553J290861D01*
G01*
X143151019Y-123352374D02*
G75*
G03X141792328Y-121411961I-1649552J290861D01*
G01*
X141792328Y-121411961D02*
X132608996Y-119792691D01*
X132608126Y-119797615D02*
X131877069Y-123943656D01*
X143151020Y-123352374D02*
X142419093Y-127503339D01*
X142419093Y-127503339D02*
X138878709Y-126879074D01*
%TO.C,SW13*%
X168409927Y-59457829D02*
X162766979Y-58462825D01*
X169768619Y-61398243D02*
G75*
G03X168409927Y-59457829I-1649553J290861D01*
G01*
X174040929Y-57871543D02*
G75*
G03X172682238Y-55931130I-1649552J290861D01*
G01*
X172682238Y-55931130D02*
X163498906Y-54311860D01*
X163498036Y-54316784D02*
X162766979Y-58462825D01*
X174040930Y-57871543D02*
X173309003Y-62022508D01*
X173309003Y-62022508D02*
X169768619Y-61398243D01*
%TO.C,SW15*%
X161793939Y-96979007D02*
X156150991Y-95984003D01*
X163152631Y-98919421D02*
G75*
G03X161793939Y-96979007I-1649553J290861D01*
G01*
X167424941Y-95392721D02*
G75*
G03X166066250Y-93452308I-1649552J290861D01*
G01*
X166066250Y-93452308D02*
X156882918Y-91833038D01*
X156882048Y-91837962D02*
X156150991Y-95984003D01*
X167424942Y-95392721D02*
X166693015Y-99543686D01*
X166693015Y-99543686D02*
X163152631Y-98919421D01*
%TO.C,SW16*%
X156280614Y-128246654D02*
X150637666Y-127251650D01*
X157639306Y-130187068D02*
G75*
G03X156280614Y-128246654I-1649553J290861D01*
G01*
X161911616Y-126660368D02*
G75*
G03X160552925Y-124719955I-1649552J290861D01*
G01*
X160552925Y-124719955D02*
X151369593Y-123100685D01*
X151368723Y-123105609D02*
X150637666Y-127251650D01*
X161911617Y-126660368D02*
X161179690Y-130811333D01*
X161179690Y-130811333D02*
X157639306Y-130187068D01*
%TO.C,SW17*%
X186067847Y-69019362D02*
X180424899Y-68024358D01*
X187426539Y-70959776D02*
G75*
G03X186067847Y-69019362I-1649553J290861D01*
G01*
X191698849Y-67433076D02*
G75*
G03X190340158Y-65492663I-1649552J290861D01*
G01*
X190340158Y-65492663D02*
X181156826Y-63873393D01*
X181155956Y-63878317D02*
X180424899Y-68024358D01*
X191698850Y-67433076D02*
X190966923Y-71584041D01*
X190966923Y-71584041D02*
X187426539Y-70959776D01*
%TO.C,SW18*%
X182759863Y-87779948D02*
X177116915Y-86784944D01*
X184118555Y-89720362D02*
G75*
G03X182759863Y-87779948I-1649553J290861D01*
G01*
X188390865Y-86193662D02*
G75*
G03X187032174Y-84253249I-1649552J290861D01*
G01*
X187032174Y-84253249D02*
X177848842Y-82633979D01*
X177847972Y-82638903D02*
X177116915Y-86784944D01*
X188390866Y-86193662D02*
X187658939Y-90344627D01*
X187658939Y-90344627D02*
X184118555Y-89720362D01*
%TO.C,SW19*%
X179451859Y-106540536D02*
X173808911Y-105545532D01*
X180810551Y-108480950D02*
G75*
G03X179451859Y-106540536I-1649553J290861D01*
G01*
X185082861Y-104954250D02*
G75*
G03X183724170Y-103013837I-1649552J290861D01*
G01*
X183724170Y-103013837D02*
X174540838Y-101394567D01*
X174539968Y-101399491D02*
X173808911Y-105545532D01*
X185082862Y-104954250D02*
X184350935Y-109105215D01*
X184350935Y-109105215D02*
X180810551Y-108480950D01*
%TO.C,SW20*%
X181784322Y-128103789D02*
X176399884Y-126144014D01*
X182785424Y-130250657D02*
G75*
G03X181784322Y-128103789I-1573985J572883D01*
G01*
X187605233Y-127519416D02*
G75*
G03X186604132Y-125372547I-1573985J572884D01*
G01*
X186604132Y-125372547D02*
X177841498Y-122183209D01*
X177839786Y-122187907D02*
X176399884Y-126144014D01*
X187605234Y-127519416D02*
X186163619Y-131480220D01*
X186163619Y-131480220D02*
X182785424Y-130250658D01*
%TO.C,SW22*%
X201520446Y-91087944D02*
X195877498Y-90092940D01*
X202879138Y-93028358D02*
G75*
G03X201520446Y-91087944I-1649553J290861D01*
G01*
X207151448Y-89501658D02*
G75*
G03X205792757Y-87561245I-1649552J290861D01*
G01*
X205792757Y-87561245D02*
X196609425Y-85941975D01*
X196608555Y-85946899D02*
X195877498Y-90092940D01*
X207151449Y-89501658D02*
X206419522Y-93652623D01*
X206419522Y-93652623D02*
X202879138Y-93028358D01*
%TO.C,SW23*%
X198212443Y-109848530D02*
X192569495Y-108853526D01*
X199571135Y-111788944D02*
G75*
G03X198212443Y-109848530I-1649553J290861D01*
G01*
X203843445Y-108262244D02*
G75*
G03X202484754Y-106321831I-1649552J290861D01*
G01*
X202484754Y-106321831D02*
X193301422Y-104702561D01*
X193300552Y-104707485D02*
X192569495Y-108853526D01*
X203843446Y-108262244D02*
X203111519Y-112413209D01*
X203111519Y-112413209D02*
X199571135Y-111788944D01*
%TO.C,SW27*%
X266891709Y-109528038D02*
X261248761Y-110523042D01*
X268832123Y-110886730D02*
G75*
G03X266891709Y-109528038I-1649553J-290861D01*
G01*
X271640580Y-106111500D02*
G75*
G03X269700166Y-104752808I-1649553J-290861D01*
G01*
X269700166Y-104752808D02*
X260516834Y-106372077D01*
X260517700Y-106377001D02*
X261248761Y-110523042D01*
X271640580Y-106111500D02*
X272372507Y-110262465D01*
X272372507Y-110262465D02*
X268832123Y-110886730D01*
%TO.C,SW28*%
X262899301Y-142091442D02*
X259411098Y-146637357D01*
X265247844Y-141782251D02*
G75*
G03X262899301Y-142091442I-1019676J-1328867D01*
G01*
X264092356Y-136364216D02*
G75*
G03X261743814Y-136673408I-1019675J-1328867D01*
G01*
X261743814Y-136673408D02*
X256067114Y-144071428D01*
X256071079Y-144074473D02*
X259411098Y-146637357D01*
X264092356Y-136364216D02*
X267436341Y-138930146D01*
X267436341Y-138930146D02*
X265247843Y-141782251D01*
%TO.C,SW29*%
X279036302Y-68698862D02*
X273393354Y-69693866D01*
X280976716Y-70057554D02*
G75*
G03X279036302Y-68698862I-1649553J-290861D01*
G01*
X283785173Y-65282324D02*
G75*
G03X281844759Y-63923632I-1649553J-290861D01*
G01*
X281844759Y-63923632D02*
X272661427Y-65542901D01*
X272662293Y-65547825D02*
X273393354Y-69693866D01*
X283785173Y-65282324D02*
X284517100Y-69433289D01*
X284517100Y-69433289D02*
X280976716Y-70057554D01*
%TO.C,SW30*%
X282344293Y-87459445D02*
X276701345Y-88454449D01*
X284284707Y-88818137D02*
G75*
G03X282344293Y-87459445I-1649553J-290861D01*
G01*
X287093164Y-84042907D02*
G75*
G03X285152750Y-82684215I-1649553J-290861D01*
G01*
X285152750Y-82684215D02*
X275969418Y-84303484D01*
X275970284Y-84308408D02*
X276701345Y-88454449D01*
X287093164Y-84042907D02*
X287825091Y-88193872D01*
X287825091Y-88193872D02*
X284284707Y-88818137D01*
%TO.C,SW31*%
X285652291Y-106220036D02*
X280009343Y-107215040D01*
X287592705Y-107578728D02*
G75*
G03X285652291Y-106220036I-1649553J-290861D01*
G01*
X290401162Y-102803498D02*
G75*
G03X288460748Y-101444806I-1649553J-290861D01*
G01*
X288460748Y-101444806D02*
X279277416Y-103064075D01*
X279278282Y-103068999D02*
X280009343Y-107215040D01*
X290401162Y-102803498D02*
X291133089Y-106954463D01*
X291133089Y-106954463D02*
X287592705Y-107578728D01*
%TO.C,SW32*%
X282948427Y-127545197D02*
X277563988Y-129504973D01*
X285095296Y-128546298D02*
G75*
G03X282948427Y-127545197I-1573985J-572884D01*
G01*
X287031876Y-123355932D02*
G75*
G03X284885007Y-122354831I-1573985J-572884D01*
G01*
X284885007Y-122354831D02*
X276122373Y-125544168D01*
X276124082Y-125548867D02*
X277563988Y-129504973D01*
X287031876Y-123355932D02*
X288473491Y-127316736D01*
X288473491Y-127316736D02*
X285095296Y-128546299D01*
%TO.C,SW33*%
X296694223Y-59137334D02*
X291051275Y-60132338D01*
X298634637Y-60496026D02*
G75*
G03X296694223Y-59137334I-1649553J-290861D01*
G01*
X301443094Y-55720796D02*
G75*
G03X299502680Y-54362104I-1649553J-290861D01*
G01*
X299502680Y-54362104D02*
X290319348Y-55981373D01*
X290320214Y-55986297D02*
X291051275Y-60132338D01*
X301443094Y-55720796D02*
X302175021Y-59871761D01*
X302175021Y-59871761D02*
X298634637Y-60496026D01*
%TO.C,SW34*%
X300002222Y-77897918D02*
X294359274Y-78892922D01*
X301942636Y-79256610D02*
G75*
G03X300002222Y-77897918I-1649553J-290861D01*
G01*
X304751093Y-74481380D02*
G75*
G03X302810679Y-73122688I-1649553J-290861D01*
G01*
X302810679Y-73122688D02*
X293627347Y-74741957D01*
X293628213Y-74746881D02*
X294359274Y-78892922D01*
X304751093Y-74481380D02*
X305483020Y-78632345D01*
X305483020Y-78632345D02*
X301942636Y-79256610D01*
%TO.C,SW35*%
X303310213Y-96658509D02*
X297667265Y-97653513D01*
X305250627Y-98017201D02*
G75*
G03X303310213Y-96658509I-1649553J-290861D01*
G01*
X308059084Y-93241971D02*
G75*
G03X306118670Y-91883279I-1649553J-290861D01*
G01*
X306118670Y-91883279D02*
X296935338Y-93502548D01*
X296936204Y-93507472D02*
X297667265Y-97653513D01*
X308059084Y-93241971D02*
X308791011Y-97392936D01*
X308791011Y-97392936D02*
X305250627Y-98017201D01*
%TO.C,SW36*%
X308823552Y-127926152D02*
X303180604Y-128921156D01*
X310763966Y-129284844D02*
G75*
G03X308823552Y-127926152I-1649553J-290861D01*
G01*
X313572423Y-124509614D02*
G75*
G03X311632009Y-123150922I-1649553J-290861D01*
G01*
X311632009Y-123150922D02*
X302448677Y-124770191D01*
X302449543Y-124775115D02*
X303180604Y-128921156D01*
X313572423Y-124509614D02*
X314304350Y-128660579D01*
X314304350Y-128660579D02*
X310763966Y-129284844D01*
%TO.C,SW37*%
X316557476Y-62082863D02*
X310914528Y-63077867D01*
X318497890Y-63441555D02*
G75*
G03X316557476Y-62082863I-1649553J-290861D01*
G01*
X321306347Y-58666325D02*
G75*
G03X319365933Y-57307633I-1649553J-290861D01*
G01*
X319365933Y-57307633D02*
X310182601Y-58926902D01*
X310183467Y-58931826D02*
X310914528Y-63077867D01*
X321306347Y-58666325D02*
X322038274Y-62817290D01*
X322038274Y-62817290D02*
X318497890Y-63441555D01*
%TO.C,SW38*%
X319865475Y-80843453D02*
X314222527Y-81838457D01*
X321805889Y-82202145D02*
G75*
G03X319865475Y-80843453I-1649553J-290861D01*
G01*
X324614346Y-77426915D02*
G75*
G03X322673932Y-76068223I-1649553J-290861D01*
G01*
X322673932Y-76068223D02*
X313490600Y-77687492D01*
X313491466Y-77692416D02*
X314222527Y-81838457D01*
X324614346Y-77426915D02*
X325346273Y-81577880D01*
X325346273Y-81577880D02*
X321805889Y-82202145D01*
%TO.C,SW39*%
X323173470Y-99604040D02*
X317530522Y-100599044D01*
X325113884Y-100962732D02*
G75*
G03X323173470Y-99604040I-1649553J-290861D01*
G01*
X327922341Y-96187502D02*
G75*
G03X325981927Y-94828810I-1649553J-290861D01*
G01*
X325981927Y-94828810D02*
X316798595Y-96448079D01*
X316799461Y-96453003D02*
X317530522Y-100599044D01*
X327922341Y-96187502D02*
X328654268Y-100338467D01*
X328654268Y-100338467D02*
X325113884Y-100962732D01*
%TO.C,SW40*%
X327584133Y-124618159D02*
X321941185Y-125613163D01*
X329524547Y-125976851D02*
G75*
G03X327584133Y-124618159I-1649553J-290861D01*
G01*
X332333004Y-121201621D02*
G75*
G03X330392590Y-119842929I-1649553J-290861D01*
G01*
X330392590Y-119842929D02*
X321209258Y-121462198D01*
X321210124Y-121467122D02*
X321941185Y-125613163D01*
X332333004Y-121201621D02*
X333064931Y-125352586D01*
X333064931Y-125352586D02*
X329524547Y-125976851D01*
%TO.C,SW41*%
X336420728Y-65028396D02*
X330777780Y-66023400D01*
X338361142Y-66387088D02*
G75*
G03X336420728Y-65028396I-1649553J-290861D01*
G01*
X341169599Y-61611858D02*
G75*
G03X339229185Y-60253166I-1649553J-290861D01*
G01*
X339229185Y-60253166D02*
X330045853Y-61872435D01*
X330046719Y-61877359D02*
X330777780Y-66023400D01*
X341169599Y-61611858D02*
X341901526Y-65762823D01*
X341901526Y-65762823D02*
X338361142Y-66387088D01*
%TO.C,SW42*%
X339728728Y-83788984D02*
X334085780Y-84783988D01*
X341669142Y-85147676D02*
G75*
G03X339728728Y-83788984I-1649553J-290861D01*
G01*
X344477599Y-80372446D02*
G75*
G03X342537185Y-79013754I-1649553J-290861D01*
G01*
X342537185Y-79013754D02*
X333353853Y-80633023D01*
X333354719Y-80637947D02*
X334085780Y-84783988D01*
X344477599Y-80372446D02*
X345209526Y-84523411D01*
X345209526Y-84523411D02*
X341669142Y-85147676D01*
%TO.C,SW43*%
X343036722Y-102549573D02*
X337393774Y-103544577D01*
X344977136Y-103908265D02*
G75*
G03X343036722Y-102549573I-1649553J-290861D01*
G01*
X347785593Y-99133035D02*
G75*
G03X345845179Y-97774343I-1649553J-290861D01*
G01*
X345845179Y-97774343D02*
X336661847Y-99393612D01*
X336662713Y-99398536D02*
X337393774Y-103544577D01*
X347785593Y-99133035D02*
X348517520Y-103284000D01*
X348517520Y-103284000D02*
X344977136Y-103908265D01*
%TO.C,SW44*%
X346344719Y-121310162D02*
X340701771Y-122305166D01*
X348285133Y-122668854D02*
G75*
G03X346344719Y-121310162I-1649553J-290861D01*
G01*
X351093590Y-117893624D02*
G75*
G03X349153176Y-116534932I-1649553J-290861D01*
G01*
X349153176Y-116534932D02*
X339969844Y-118154201D01*
X339970710Y-118159125D02*
X340701771Y-122305166D01*
X351093590Y-117893624D02*
X351825517Y-122044589D01*
X351825517Y-122044589D02*
X348285133Y-122668854D01*
%TO.C,SW47*%
X365105309Y-118002164D02*
X359462361Y-118997168D01*
X367045723Y-119360856D02*
G75*
G03X365105309Y-118002164I-1649553J-290861D01*
G01*
X369854180Y-114585626D02*
G75*
G03X367913766Y-113226934I-1649553J-290861D01*
G01*
X367913766Y-113226934D02*
X358730434Y-114846203D01*
X358731300Y-114851127D02*
X359462361Y-118997168D01*
X369854180Y-114585626D02*
X370586107Y-118736591D01*
X370586107Y-118736591D02*
X367045723Y-119360856D01*
%TO.C,SW48*%
X361788346Y-99190730D02*
X356145398Y-100185734D01*
X363728760Y-100549422D02*
G75*
G03X361788346Y-99190730I-1649553J-290861D01*
G01*
X366537217Y-95774192D02*
G75*
G03X364596803Y-94415500I-1649553J-290861D01*
G01*
X364596803Y-94415500D02*
X355413471Y-96034769D01*
X355414337Y-96039693D02*
X356145398Y-100185734D01*
X366537217Y-95774192D02*
X367269144Y-99925157D01*
X367269144Y-99925157D02*
X363728760Y-100549422D01*
%TO.C,SW49*%
X358489312Y-80480991D02*
X352846364Y-81475995D01*
X360429726Y-81839683D02*
G75*
G03X358489312Y-80480991I-1649553J-290861D01*
G01*
X363238183Y-77064453D02*
G75*
G03X361297769Y-75705761I-1649553J-290861D01*
G01*
X361297769Y-75705761D02*
X352114437Y-77325030D01*
X352115303Y-77329954D02*
X352846364Y-81475995D01*
X363238183Y-77064453D02*
X363970110Y-81215418D01*
X363970110Y-81215418D02*
X360429726Y-81839683D01*
%TO.C,SW50*%
X355181321Y-61720401D02*
X349538373Y-62715405D01*
X357121735Y-63079093D02*
G75*
G03X355181321Y-61720401I-1649553J-290861D01*
G01*
X359930192Y-58303863D02*
G75*
G03X357989778Y-56945171I-1649553J-290861D01*
G01*
X357989778Y-56945171D02*
X348806446Y-58564440D01*
X348807312Y-58569364D02*
X349538373Y-62715405D01*
X359930192Y-58303863D02*
X360662119Y-62454828D01*
X360662119Y-62454828D02*
X357121735Y-63079093D01*
%TO.C,SW_RESET2*%
X232635061Y-73930118D02*
X226905061Y-73930118D01*
X234310061Y-75605118D02*
G75*
G03X232635061Y-73930118I-1675000J0D01*
G01*
X237905061Y-71390118D02*
G75*
G03X236230061Y-69715118I-1675000J0D01*
G01*
X236230061Y-69715118D02*
X226905061Y-69715118D01*
X226905059Y-69720118D02*
X226905061Y-73930118D01*
X237905061Y-71390118D02*
X237905061Y-75605118D01*
X237905061Y-75605118D02*
X234310061Y-75605118D01*
%TO.C,SW25*%
X260275716Y-72006858D02*
X254632768Y-73001862D01*
X262216130Y-73365550D02*
G75*
G03X260275716Y-72006858I-1649553J-290861D01*
G01*
X265024587Y-68590320D02*
G75*
G03X263084173Y-67231628I-1649553J-290861D01*
G01*
X263084173Y-67231628D02*
X253900841Y-68850897D01*
X253901707Y-68855821D02*
X254632768Y-73001862D01*
X265024587Y-68590320D02*
X265756514Y-72741285D01*
X265756514Y-72741285D02*
X262216130Y-73365550D01*
D14*
%TO.C,J1*%
X220280061Y-146400119D02*
X222940061Y-146400119D01*
X220280061Y-108240119D02*
X220280061Y-146400119D01*
X222940060Y-108240119D02*
X222940061Y-146400119D01*
X220280061Y-108240119D02*
X222940060Y-108240119D01*
X220280061Y-106970119D02*
X220280061Y-105640119D01*
X220280061Y-105640119D02*
X221610061Y-105640119D01*
%TO.C,J2*%
X243260060Y-146300119D02*
X241930060Y-146300119D01*
X243260060Y-144970119D02*
X243260060Y-146300119D01*
X243260060Y-143700119D02*
X240600061Y-143700119D01*
X240600061Y-143700119D02*
X240600060Y-115700119D01*
X243260060Y-143700119D02*
X243260060Y-115700119D01*
X243260060Y-115700119D02*
X240600060Y-115700119D01*
%TD*%
%TO.C,D50*%
D13*
X353578688Y-72996915D02*
X353439770Y-72209069D01*
X353627352Y-72175993D01*
X353746517Y-72193664D01*
X353834780Y-72255466D01*
X353885527Y-72323884D01*
X353949504Y-72467335D01*
X353969350Y-72579885D01*
X353958294Y-72736566D01*
X353934008Y-72818214D01*
X353872205Y-72906477D01*
X353766271Y-72963839D01*
X353578688Y-72996915D01*
X354602781Y-72003998D02*
X354227616Y-72070150D01*
X354256251Y-72451930D01*
X354287152Y-72407799D01*
X354355570Y-72357052D01*
X354543153Y-72323976D01*
X354624801Y-72348262D01*
X354668932Y-72379163D01*
X354719679Y-72447581D01*
X354752755Y-72635164D01*
X354728469Y-72716812D01*
X354697568Y-72760943D01*
X354629150Y-72811690D01*
X354441567Y-72844766D01*
X354359919Y-72820480D01*
X354315788Y-72789579D01*
X355128012Y-71911386D02*
X355203045Y-71898156D01*
X355284693Y-71922442D01*
X355328824Y-71953343D01*
X355379571Y-72021761D01*
X355443548Y-72165212D01*
X355476624Y-72352794D01*
X355465568Y-72509475D01*
X355441282Y-72591124D01*
X355410381Y-72635255D01*
X355341963Y-72686002D01*
X355266930Y-72699232D01*
X355185282Y-72674946D01*
X355141150Y-72644045D01*
X355090403Y-72575627D01*
X355026426Y-72432176D01*
X354993350Y-72244594D01*
X355004406Y-72087913D01*
X355028692Y-72006265D01*
X355059594Y-71962133D01*
X355128012Y-71911386D01*
%TO.C,D49*%
X356886686Y-91757499D02*
X356747768Y-90969653D01*
X356935350Y-90936577D01*
X357054515Y-90954248D01*
X357142778Y-91016050D01*
X357193525Y-91084468D01*
X357257502Y-91227919D01*
X357277348Y-91340469D01*
X357266292Y-91497150D01*
X357242006Y-91578798D01*
X357180203Y-91667061D01*
X357074269Y-91724423D01*
X356886686Y-91757499D01*
X357919568Y-91033813D02*
X358012181Y-91559044D01*
X357679065Y-90766757D02*
X357590710Y-91362580D01*
X358078424Y-91276583D01*
X358462379Y-91479662D02*
X358612445Y-91453201D01*
X358680862Y-91402454D01*
X358711764Y-91358323D01*
X358766951Y-91232543D01*
X358778007Y-91075862D01*
X358725086Y-90775730D01*
X358674339Y-90707312D01*
X358630207Y-90676411D01*
X358548559Y-90652125D01*
X358398493Y-90678585D01*
X358330075Y-90729332D01*
X358299174Y-90773464D01*
X358274888Y-90855112D01*
X358307964Y-91042694D01*
X358358710Y-91111112D01*
X358402842Y-91142013D01*
X358484490Y-91166300D01*
X358634556Y-91139839D01*
X358702974Y-91089092D01*
X358733875Y-91044960D01*
X358758161Y-90963312D01*
%TO.C,D48*%
X360194682Y-110518087D02*
X360055764Y-109730241D01*
X360243346Y-109697165D01*
X360362511Y-109714836D01*
X360450774Y-109776638D01*
X360501521Y-109845056D01*
X360565498Y-109988507D01*
X360585344Y-110101057D01*
X360574288Y-110257738D01*
X360550002Y-110339386D01*
X360488199Y-110427649D01*
X360382265Y-110485011D01*
X360194682Y-110518087D01*
X361227564Y-109794401D02*
X361320177Y-110319632D01*
X360987061Y-109527345D02*
X360898706Y-110123168D01*
X361386420Y-110037171D01*
X361766026Y-109776822D02*
X361684377Y-109752536D01*
X361640246Y-109721634D01*
X361589499Y-109653216D01*
X361582884Y-109615700D01*
X361607170Y-109534052D01*
X361638071Y-109489920D01*
X361706489Y-109439173D01*
X361856555Y-109412713D01*
X361938203Y-109436999D01*
X361982335Y-109467900D01*
X362033082Y-109536318D01*
X362039697Y-109573834D01*
X362015411Y-109655483D01*
X361984509Y-109699614D01*
X361916092Y-109750361D01*
X361766026Y-109776822D01*
X361697608Y-109827568D01*
X361666706Y-109871700D01*
X361642420Y-109953348D01*
X361668881Y-110103414D01*
X361719628Y-110171832D01*
X361763759Y-110202733D01*
X361845408Y-110227019D01*
X361995474Y-110200559D01*
X362063891Y-110149812D01*
X362094793Y-110105680D01*
X362119079Y-110024032D01*
X362092618Y-109873966D01*
X362041871Y-109805548D01*
X361997740Y-109774647D01*
X361916092Y-109750361D01*
%TO.C,D47*%
X363502679Y-129278679D02*
X363363761Y-128490833D01*
X363551343Y-128457757D01*
X363670508Y-128475428D01*
X363758771Y-128537230D01*
X363809518Y-128605648D01*
X363873495Y-128749099D01*
X363893341Y-128861649D01*
X363882285Y-129018330D01*
X363857999Y-129099978D01*
X363796196Y-129188241D01*
X363690262Y-129245603D01*
X363502679Y-129278679D01*
X364535561Y-128554993D02*
X364628174Y-129080224D01*
X364295058Y-128287937D02*
X364206703Y-128883760D01*
X364694417Y-128797763D01*
X364826904Y-128232841D02*
X365352134Y-128140229D01*
X365153405Y-128987611D01*
%TO.C,D44*%
X344742091Y-132586671D02*
X344603173Y-131798825D01*
X344790755Y-131765749D01*
X344909920Y-131783420D01*
X344998183Y-131845222D01*
X345048930Y-131913640D01*
X345112907Y-132057091D01*
X345132753Y-132169641D01*
X345121697Y-132326322D01*
X345097411Y-132407970D01*
X345035608Y-132496233D01*
X344929674Y-132553595D01*
X344742091Y-132586671D01*
X345774973Y-131862985D02*
X345867586Y-132388216D01*
X345534470Y-131595929D02*
X345446115Y-132191752D01*
X345933829Y-132105755D01*
X346525303Y-131730682D02*
X346617916Y-132255912D01*
X346284799Y-131463626D02*
X346196444Y-132059449D01*
X346684159Y-131973452D01*
%TO.C,D43*%
X341434090Y-113826088D02*
X341295172Y-113038242D01*
X341482754Y-113005166D01*
X341601919Y-113022837D01*
X341690182Y-113084639D01*
X341740929Y-113153057D01*
X341804906Y-113296508D01*
X341824752Y-113409058D01*
X341813696Y-113565739D01*
X341789410Y-113647387D01*
X341727607Y-113735650D01*
X341621673Y-113793012D01*
X341434090Y-113826088D01*
X342466972Y-113102402D02*
X342559585Y-113627633D01*
X342226469Y-112835346D02*
X342138114Y-113431169D01*
X342625828Y-113345172D01*
X342758315Y-112780250D02*
X343246029Y-112694253D01*
X343036335Y-113040691D01*
X343148884Y-113020846D01*
X343230532Y-113045132D01*
X343274664Y-113076033D01*
X343325411Y-113144451D01*
X343358487Y-113332033D01*
X343334201Y-113413681D01*
X343303299Y-113457813D01*
X343234882Y-113508560D01*
X343009783Y-113548251D01*
X342928134Y-113523965D01*
X342884003Y-113493063D01*
%TO.C,D42*%
X338126090Y-95065495D02*
X337987172Y-94277649D01*
X338174754Y-94244573D01*
X338293919Y-94262244D01*
X338382182Y-94324046D01*
X338432929Y-94392464D01*
X338496906Y-94535915D01*
X338516752Y-94648465D01*
X338505696Y-94805146D01*
X338481410Y-94886794D01*
X338419607Y-94975057D01*
X338313673Y-95032419D01*
X338126090Y-95065495D01*
X339158972Y-94341809D02*
X339251585Y-94867040D01*
X338918469Y-94074753D02*
X338830114Y-94670576D01*
X339317828Y-94584579D01*
X339501061Y-94088075D02*
X339531963Y-94043943D01*
X339600381Y-93993196D01*
X339787963Y-93960121D01*
X339869611Y-93984407D01*
X339913743Y-94015308D01*
X339964490Y-94083726D01*
X339977720Y-94158759D01*
X339960049Y-94277923D01*
X339589233Y-94807503D01*
X340076947Y-94721506D01*
%TO.C,D41*%
X335113543Y-76252817D02*
X334974625Y-75464971D01*
X335162207Y-75431895D01*
X335281372Y-75449566D01*
X335369635Y-75511368D01*
X335420382Y-75579786D01*
X335484359Y-75723237D01*
X335504205Y-75835787D01*
X335493149Y-75992468D01*
X335468863Y-76074116D01*
X335407060Y-76162379D01*
X335301126Y-76219741D01*
X335113543Y-76252817D01*
X336146425Y-75529131D02*
X336239038Y-76054362D01*
X335905922Y-75262075D02*
X335817567Y-75857898D01*
X336305281Y-75771901D01*
X337064400Y-75908828D02*
X336614203Y-75988210D01*
X336839302Y-75948519D02*
X336700383Y-75160673D01*
X336645196Y-75286453D01*
X336583393Y-75374716D01*
X336514975Y-75425463D01*
%TO.C,D40*%
X325981509Y-135894672D02*
X325842591Y-135106826D01*
X326030173Y-135073750D01*
X326149338Y-135091421D01*
X326237601Y-135153223D01*
X326288348Y-135221641D01*
X326352325Y-135365092D01*
X326372171Y-135477642D01*
X326361115Y-135634323D01*
X326336829Y-135715971D01*
X326275026Y-135804234D01*
X326169092Y-135861596D01*
X325981509Y-135894672D01*
X327014391Y-135170986D02*
X327107004Y-135696217D01*
X326773888Y-134903930D02*
X326685533Y-135499753D01*
X327173247Y-135413756D01*
X327530833Y-134809143D02*
X327605866Y-134795913D01*
X327687514Y-134820199D01*
X327731645Y-134851100D01*
X327782392Y-134919518D01*
X327846369Y-135062969D01*
X327879445Y-135250551D01*
X327868389Y-135407232D01*
X327844103Y-135488881D01*
X327813202Y-135533012D01*
X327744784Y-135583759D01*
X327669751Y-135596989D01*
X327588103Y-135572703D01*
X327543971Y-135541802D01*
X327493224Y-135473384D01*
X327429247Y-135329933D01*
X327396171Y-135142351D01*
X327407227Y-134985670D01*
X327431513Y-134904022D01*
X327462415Y-134859890D01*
X327530833Y-134809143D01*
%TO.C,D39*%
X321570837Y-110880550D02*
X321431919Y-110092704D01*
X321619501Y-110059628D01*
X321738666Y-110077299D01*
X321826929Y-110139101D01*
X321877676Y-110207519D01*
X321941653Y-110350970D01*
X321961499Y-110463520D01*
X321950443Y-110620201D01*
X321926157Y-110701849D01*
X321864354Y-110790112D01*
X321758420Y-110847474D01*
X321570837Y-110880550D01*
X322144732Y-109967016D02*
X322632446Y-109881018D01*
X322422752Y-110227456D01*
X322535302Y-110207611D01*
X322616950Y-110231897D01*
X322661081Y-110262798D01*
X322711828Y-110331216D01*
X322744904Y-110518799D01*
X322720618Y-110600447D01*
X322689717Y-110644578D01*
X322621299Y-110695325D01*
X322396200Y-110735016D01*
X322314552Y-110710730D01*
X322270420Y-110679829D01*
X323146530Y-110602713D02*
X323296596Y-110576252D01*
X323365013Y-110525505D01*
X323395915Y-110481374D01*
X323451102Y-110355594D01*
X323462158Y-110198913D01*
X323409237Y-109898781D01*
X323358490Y-109830363D01*
X323314358Y-109799462D01*
X323232710Y-109775176D01*
X323082644Y-109801636D01*
X323014226Y-109852383D01*
X322983325Y-109896515D01*
X322959039Y-109978163D01*
X322992115Y-110165745D01*
X323042861Y-110234163D01*
X323086993Y-110265064D01*
X323168641Y-110289351D01*
X323318707Y-110262890D01*
X323387125Y-110212143D01*
X323418026Y-110168011D01*
X323442312Y-110086363D01*
%TO.C,D38*%
X318262840Y-92119967D02*
X318123922Y-91332121D01*
X318311504Y-91299045D01*
X318430669Y-91316716D01*
X318518932Y-91378518D01*
X318569679Y-91446936D01*
X318633656Y-91590387D01*
X318653502Y-91702937D01*
X318642446Y-91859618D01*
X318618160Y-91941266D01*
X318556357Y-92029529D01*
X318450423Y-92086891D01*
X318262840Y-92119967D01*
X318836735Y-91206433D02*
X319324449Y-91120435D01*
X319114755Y-91466873D01*
X319227305Y-91447028D01*
X319308953Y-91471314D01*
X319353084Y-91502215D01*
X319403831Y-91570633D01*
X319436907Y-91758216D01*
X319412621Y-91839864D01*
X319381720Y-91883995D01*
X319313302Y-91934742D01*
X319088203Y-91974433D01*
X319006555Y-91950147D01*
X318962423Y-91919246D01*
X319834184Y-91378702D02*
X319752535Y-91354416D01*
X319708404Y-91323514D01*
X319657657Y-91255096D01*
X319651042Y-91217580D01*
X319675328Y-91135932D01*
X319706229Y-91091800D01*
X319774647Y-91041053D01*
X319924713Y-91014593D01*
X320006361Y-91038879D01*
X320050493Y-91069780D01*
X320101240Y-91138198D01*
X320107855Y-91175714D01*
X320083569Y-91257363D01*
X320052667Y-91301494D01*
X319984250Y-91352241D01*
X319834184Y-91378702D01*
X319765766Y-91429448D01*
X319734864Y-91473580D01*
X319710578Y-91555228D01*
X319737039Y-91705294D01*
X319787786Y-91773712D01*
X319831917Y-91804613D01*
X319913566Y-91828899D01*
X320063632Y-91802439D01*
X320132049Y-91751692D01*
X320162951Y-91707560D01*
X320187237Y-91625912D01*
X320160776Y-91475846D01*
X320110029Y-91407428D01*
X320065898Y-91376527D01*
X319984250Y-91352241D01*
%TO.C,D37*%
X314954844Y-73359379D02*
X314815926Y-72571533D01*
X315003508Y-72538457D01*
X315122673Y-72556128D01*
X315210936Y-72617930D01*
X315261683Y-72686348D01*
X315325660Y-72829799D01*
X315345506Y-72942349D01*
X315334450Y-73099030D01*
X315310164Y-73180678D01*
X315248361Y-73268941D01*
X315142427Y-73326303D01*
X314954844Y-73359379D01*
X315528739Y-72445845D02*
X316016453Y-72359847D01*
X315806759Y-72706285D01*
X315919309Y-72686440D01*
X316000957Y-72710726D01*
X316045088Y-72741627D01*
X316095835Y-72810045D01*
X316128911Y-72997628D01*
X316104625Y-73079276D01*
X316073724Y-73123407D01*
X316005306Y-73174154D01*
X315780207Y-73213845D01*
X315698559Y-73189559D01*
X315654427Y-73158658D01*
X316279069Y-72313541D02*
X316804299Y-72220929D01*
X316605570Y-73068311D01*
%TO.C,D36*%
X307220920Y-139202667D02*
X307082002Y-138414821D01*
X307269584Y-138381745D01*
X307388749Y-138399416D01*
X307477012Y-138461218D01*
X307527759Y-138529636D01*
X307591736Y-138673087D01*
X307611582Y-138785637D01*
X307600526Y-138942318D01*
X307576240Y-139023966D01*
X307514437Y-139112229D01*
X307408503Y-139169591D01*
X307220920Y-139202667D01*
X307794815Y-138289133D02*
X308282529Y-138203135D01*
X308072835Y-138549573D01*
X308185385Y-138529728D01*
X308267033Y-138554014D01*
X308311164Y-138584915D01*
X308361911Y-138653333D01*
X308394987Y-138840916D01*
X308370701Y-138922564D01*
X308339800Y-138966695D01*
X308271382Y-139017442D01*
X308046283Y-139057133D01*
X307964635Y-139032847D01*
X307920503Y-139001946D01*
X308957826Y-138084062D02*
X308807760Y-138110523D01*
X308739342Y-138161270D01*
X308708441Y-138205401D01*
X308653253Y-138331181D01*
X308642198Y-138487862D01*
X308695119Y-138787994D01*
X308745866Y-138856412D01*
X308789997Y-138887313D01*
X308871646Y-138911599D01*
X309021712Y-138885139D01*
X309090129Y-138834392D01*
X309121031Y-138790260D01*
X309145317Y-138708612D01*
X309112241Y-138521030D01*
X309061494Y-138452612D01*
X309017362Y-138421711D01*
X308935714Y-138397425D01*
X308785648Y-138423885D01*
X308717231Y-138474632D01*
X308686329Y-138518764D01*
X308662043Y-138600412D01*
%TO.C,D35*%
X301707582Y-107935017D02*
X301568664Y-107147171D01*
X301756246Y-107114095D01*
X301875411Y-107131766D01*
X301963674Y-107193568D01*
X302014421Y-107261986D01*
X302078398Y-107405437D01*
X302098244Y-107517987D01*
X302087188Y-107674668D01*
X302062902Y-107756316D01*
X302001099Y-107844579D01*
X301895165Y-107901941D01*
X301707582Y-107935017D01*
X302281477Y-107021483D02*
X302769191Y-106935485D01*
X302559497Y-107281923D01*
X302672047Y-107262078D01*
X302753695Y-107286364D01*
X302797826Y-107317265D01*
X302848573Y-107385683D01*
X302881649Y-107573266D01*
X302857363Y-107654914D01*
X302826462Y-107699045D01*
X302758044Y-107749792D01*
X302532945Y-107789483D01*
X302451297Y-107765197D01*
X302407165Y-107734296D01*
X303482004Y-106809797D02*
X303106840Y-106875949D01*
X303135475Y-107257729D01*
X303166376Y-107213597D01*
X303234794Y-107162850D01*
X303422376Y-107129775D01*
X303504024Y-107154061D01*
X303548156Y-107184962D01*
X303598903Y-107253380D01*
X303631979Y-107440962D01*
X303607693Y-107522610D01*
X303576791Y-107566742D01*
X303508374Y-107617489D01*
X303320791Y-107650565D01*
X303239143Y-107626279D01*
X303195011Y-107595377D01*
%TO.C,D34*%
X298399593Y-89174432D02*
X298260675Y-88386586D01*
X298448257Y-88353510D01*
X298567422Y-88371181D01*
X298655685Y-88432983D01*
X298706432Y-88501401D01*
X298770409Y-88644852D01*
X298790255Y-88757402D01*
X298779199Y-88914083D01*
X298754913Y-88995731D01*
X298693110Y-89083994D01*
X298587176Y-89141356D01*
X298399593Y-89174432D01*
X298973488Y-88260898D02*
X299461202Y-88174900D01*
X299251508Y-88521338D01*
X299364058Y-88501493D01*
X299445706Y-88525779D01*
X299489837Y-88556680D01*
X299540584Y-88625098D01*
X299573660Y-88812681D01*
X299549374Y-88894329D01*
X299518473Y-88938460D01*
X299450055Y-88989207D01*
X299224956Y-89028898D01*
X299143308Y-89004612D01*
X299099176Y-88973711D01*
X300182805Y-88318443D02*
X300275418Y-88843673D01*
X299942301Y-88051387D02*
X299853946Y-88647210D01*
X300341661Y-88561213D01*
%TO.C,D33*%
X295091589Y-70413846D02*
X294952671Y-69626000D01*
X295140253Y-69592924D01*
X295259418Y-69610595D01*
X295347681Y-69672397D01*
X295398428Y-69740815D01*
X295462405Y-69884266D01*
X295482251Y-69996816D01*
X295471195Y-70153497D01*
X295446909Y-70235145D01*
X295385106Y-70323408D01*
X295279172Y-70380770D01*
X295091589Y-70413846D01*
X295665484Y-69500312D02*
X296153198Y-69414314D01*
X295943504Y-69760752D01*
X296056054Y-69740907D01*
X296137702Y-69765193D01*
X296181833Y-69796094D01*
X296232580Y-69864512D01*
X296265656Y-70052095D01*
X296241370Y-70133743D01*
X296210469Y-70177874D01*
X296142051Y-70228621D01*
X295916952Y-70268312D01*
X295835304Y-70244026D01*
X295791172Y-70213125D01*
X296415814Y-69368008D02*
X296903528Y-69282011D01*
X296693834Y-69628449D01*
X296806383Y-69608604D01*
X296888031Y-69632890D01*
X296932163Y-69663791D01*
X296982910Y-69732209D01*
X297015986Y-69919791D01*
X296991700Y-70001439D01*
X296960798Y-70045571D01*
X296892381Y-70096318D01*
X296667282Y-70136009D01*
X296585633Y-70111723D01*
X296541502Y-70080821D01*
%TO.C,D32*%
X283328289Y-138928695D02*
X283054673Y-138176941D01*
X283233662Y-138111794D01*
X283354085Y-138108504D01*
X283451739Y-138154041D01*
X283513595Y-138212607D01*
X283601511Y-138342769D01*
X283640599Y-138450162D01*
X283656918Y-138606383D01*
X283647179Y-138691008D01*
X283601642Y-138788662D01*
X283507278Y-138863548D01*
X283328289Y-138928695D01*
X283734831Y-137929383D02*
X284200203Y-137760002D01*
X284053853Y-138137590D01*
X284161246Y-138098502D01*
X284245871Y-138108241D01*
X284294698Y-138131009D01*
X284356555Y-138189576D01*
X284421702Y-138368565D01*
X284411963Y-138453190D01*
X284389194Y-138502017D01*
X284330628Y-138563873D01*
X284115841Y-138642049D01*
X284031216Y-138632310D01*
X283982389Y-138609542D01*
X284512644Y-137727363D02*
X284535413Y-137678536D01*
X284593979Y-137616679D01*
X284772968Y-137551533D01*
X284857593Y-137561272D01*
X284906420Y-137584040D01*
X284968277Y-137642606D01*
X284994335Y-137714202D01*
X284997625Y-137834625D01*
X284724404Y-138420551D01*
X285189775Y-138251169D01*
%TO.C,D31*%
X284049667Y-117496551D02*
X283910749Y-116708705D01*
X284098331Y-116675629D01*
X284217496Y-116693300D01*
X284305759Y-116755102D01*
X284356506Y-116823520D01*
X284420483Y-116966971D01*
X284440329Y-117079521D01*
X284429273Y-117236202D01*
X284404987Y-117317850D01*
X284343184Y-117406113D01*
X284237250Y-117463475D01*
X284049667Y-117496551D01*
X284623562Y-116583017D02*
X285111276Y-116497019D01*
X284901582Y-116843457D01*
X285014132Y-116823612D01*
X285095780Y-116847898D01*
X285139911Y-116878799D01*
X285190658Y-116947217D01*
X285223734Y-117134800D01*
X285199448Y-117216448D01*
X285168547Y-117260579D01*
X285100129Y-117311326D01*
X284875030Y-117351017D01*
X284793382Y-117326731D01*
X284749250Y-117295830D01*
X286000524Y-117152562D02*
X285550327Y-117231944D01*
X285775426Y-117192253D02*
X285636507Y-116404407D01*
X285581320Y-116530187D01*
X285519517Y-116618450D01*
X285451099Y-116669197D01*
%TO.C,D30*%
X280741665Y-98735962D02*
X280602747Y-97948116D01*
X280790329Y-97915040D01*
X280909494Y-97932711D01*
X280997757Y-97994513D01*
X281048504Y-98062931D01*
X281112481Y-98206382D01*
X281132327Y-98318932D01*
X281121271Y-98475613D01*
X281096985Y-98557261D01*
X281035182Y-98645524D01*
X280929248Y-98702886D01*
X280741665Y-98735962D01*
X281315560Y-97822428D02*
X281803274Y-97736430D01*
X281593580Y-98082868D01*
X281706130Y-98063023D01*
X281787778Y-98087309D01*
X281831909Y-98118210D01*
X281882656Y-98186628D01*
X281915732Y-98374211D01*
X281891446Y-98455859D01*
X281860545Y-98499990D01*
X281792127Y-98550737D01*
X281567028Y-98590428D01*
X281485380Y-98566142D01*
X281441248Y-98535241D01*
X282290989Y-97650433D02*
X282366022Y-97637203D01*
X282447670Y-97661489D01*
X282491801Y-97692390D01*
X282542548Y-97760808D01*
X282606525Y-97904259D01*
X282639601Y-98091841D01*
X282628545Y-98248522D01*
X282604259Y-98330171D01*
X282573358Y-98374302D01*
X282504940Y-98425049D01*
X282429907Y-98438279D01*
X282348259Y-98413993D01*
X282304127Y-98383092D01*
X282253380Y-98314674D01*
X282189403Y-98171223D01*
X282156327Y-97983641D01*
X282167383Y-97826960D01*
X282191669Y-97745312D01*
X282222571Y-97701180D01*
X282290989Y-97650433D01*
%TO.C,D29*%
X277729113Y-79923279D02*
X277590195Y-79135433D01*
X277777777Y-79102357D01*
X277896942Y-79120028D01*
X277985205Y-79181830D01*
X278035952Y-79250248D01*
X278099929Y-79393699D01*
X278119775Y-79506249D01*
X278108719Y-79662930D01*
X278084433Y-79744578D01*
X278022630Y-79832841D01*
X277916696Y-79890203D01*
X277729113Y-79923279D01*
X278353755Y-79078162D02*
X278384656Y-79034031D01*
X278453074Y-78983284D01*
X278640656Y-78950208D01*
X278722304Y-78974494D01*
X278766436Y-79005395D01*
X278817183Y-79073813D01*
X278830413Y-79148846D01*
X278812742Y-79268011D01*
X278441926Y-79797591D01*
X278929641Y-79711594D01*
X279304806Y-79645442D02*
X279454872Y-79618981D01*
X279523289Y-79568234D01*
X279554191Y-79524103D01*
X279609378Y-79398323D01*
X279620434Y-79241642D01*
X279567513Y-78941510D01*
X279516766Y-78873092D01*
X279472634Y-78842191D01*
X279390986Y-78817905D01*
X279240920Y-78844365D01*
X279172502Y-78895112D01*
X279141601Y-78939244D01*
X279117315Y-79020892D01*
X279150391Y-79208474D01*
X279201137Y-79276892D01*
X279245269Y-79307793D01*
X279326917Y-79332080D01*
X279476983Y-79305619D01*
X279545401Y-79254872D01*
X279576302Y-79210740D01*
X279600588Y-79129092D01*
%TO.C,D28*%
X269395109Y-133291698D02*
X269882118Y-132657015D01*
X270033233Y-132772969D01*
X270100711Y-132872765D01*
X270114775Y-132979593D01*
X270098616Y-133063230D01*
X270036075Y-133207313D01*
X269966503Y-133297982D01*
X269843516Y-133395683D01*
X269766911Y-133432938D01*
X269660084Y-133447002D01*
X269546224Y-133407652D01*
X269395109Y-133291698D01*
X270440196Y-133181279D02*
X270493610Y-133174247D01*
X270577247Y-133190406D01*
X270728361Y-133306360D01*
X270765617Y-133382965D01*
X270772649Y-133436379D01*
X270756490Y-133520016D01*
X270710108Y-133580462D01*
X270610312Y-133647940D01*
X269969345Y-133732325D01*
X270362244Y-134033807D01*
X271003211Y-133949422D02*
X270965956Y-133872817D01*
X270958924Y-133819403D01*
X270975083Y-133735766D01*
X270998274Y-133705543D01*
X271074878Y-133668288D01*
X271128292Y-133661256D01*
X271211929Y-133677415D01*
X271332821Y-133770179D01*
X271370076Y-133846783D01*
X271377108Y-133900197D01*
X271360949Y-133983834D01*
X271337759Y-134014057D01*
X271261154Y-134051312D01*
X271207740Y-134058344D01*
X271124103Y-134042186D01*
X271003211Y-133949422D01*
X270919574Y-133933263D01*
X270866160Y-133940295D01*
X270789555Y-133977550D01*
X270696792Y-134098442D01*
X270680633Y-134182079D01*
X270687665Y-134235493D01*
X270724920Y-134312098D01*
X270845812Y-134404861D01*
X270929449Y-134421020D01*
X270982863Y-134413988D01*
X271059468Y-134376733D01*
X271152231Y-134255841D01*
X271168390Y-134172204D01*
X271161358Y-134118790D01*
X271124103Y-134042186D01*
%TO.C,D27*%
X265289082Y-120804554D02*
X265150164Y-120016708D01*
X265337746Y-119983632D01*
X265456911Y-120001303D01*
X265545174Y-120063105D01*
X265595921Y-120131523D01*
X265659898Y-120274974D01*
X265679744Y-120387524D01*
X265668688Y-120544205D01*
X265644402Y-120625853D01*
X265582599Y-120714116D01*
X265476665Y-120771478D01*
X265289082Y-120804554D01*
X265913724Y-119959437D02*
X265944625Y-119915306D01*
X266013043Y-119864559D01*
X266200625Y-119831483D01*
X266282273Y-119855769D01*
X266326405Y-119886670D01*
X266377152Y-119955088D01*
X266390382Y-120030121D01*
X266372711Y-120149286D01*
X266001895Y-120678866D01*
X266489610Y-120592869D01*
X266613307Y-119758716D02*
X267138537Y-119666104D01*
X266939808Y-120513486D01*
%TO.C,D26*%
X261981076Y-102043961D02*
X261842158Y-101256115D01*
X262029740Y-101223039D01*
X262148905Y-101240710D01*
X262237168Y-101302512D01*
X262287915Y-101370930D01*
X262351892Y-101514381D01*
X262371738Y-101626931D01*
X262360682Y-101783612D01*
X262336396Y-101865260D01*
X262274593Y-101953523D01*
X262168659Y-102010885D01*
X261981076Y-102043961D01*
X262605718Y-101198844D02*
X262636619Y-101154713D01*
X262705037Y-101103966D01*
X262892619Y-101070890D01*
X262974267Y-101095176D01*
X263018399Y-101126077D01*
X263069146Y-101194495D01*
X263082376Y-101269528D01*
X263064705Y-101388693D01*
X262693889Y-101918273D01*
X263181604Y-101832276D01*
X263717982Y-100925356D02*
X263567916Y-100951817D01*
X263499498Y-101002564D01*
X263468597Y-101046695D01*
X263413409Y-101172475D01*
X263402354Y-101329156D01*
X263455275Y-101629288D01*
X263506022Y-101697706D01*
X263550153Y-101728607D01*
X263631802Y-101752893D01*
X263781868Y-101726433D01*
X263850285Y-101675686D01*
X263881187Y-101631554D01*
X263905473Y-101549906D01*
X263872397Y-101362324D01*
X263821650Y-101293906D01*
X263777518Y-101263005D01*
X263695870Y-101238719D01*
X263545804Y-101265179D01*
X263477387Y-101315926D01*
X263446485Y-101360058D01*
X263422199Y-101441706D01*
%TO.C,D25*%
X258673084Y-83283367D02*
X258534166Y-82495521D01*
X258721748Y-82462445D01*
X258840913Y-82480116D01*
X258929176Y-82541918D01*
X258979923Y-82610336D01*
X259043900Y-82753787D01*
X259063746Y-82866337D01*
X259052690Y-83023018D01*
X259028404Y-83104666D01*
X258966601Y-83192929D01*
X258860667Y-83250291D01*
X258673084Y-83283367D01*
X259297726Y-82438250D02*
X259328627Y-82394119D01*
X259397045Y-82343372D01*
X259584627Y-82310296D01*
X259666275Y-82334582D01*
X259710407Y-82365483D01*
X259761154Y-82433901D01*
X259774384Y-82508934D01*
X259756713Y-82628099D01*
X259385897Y-83157679D01*
X259873612Y-83071682D01*
X260447506Y-82158147D02*
X260072342Y-82224299D01*
X260100977Y-82606079D01*
X260131878Y-82561947D01*
X260200296Y-82511200D01*
X260387878Y-82478125D01*
X260469526Y-82502411D01*
X260513658Y-82533312D01*
X260564405Y-82601730D01*
X260597481Y-82789312D01*
X260573195Y-82870960D01*
X260542293Y-82915092D01*
X260473876Y-82965839D01*
X260286293Y-82998915D01*
X260204645Y-82974629D01*
X260160513Y-82943727D01*
%TO.C,D24*%
X191412832Y-137126990D02*
X190925823Y-136492307D01*
X191076938Y-136376353D01*
X191190798Y-136337003D01*
X191297625Y-136351067D01*
X191374230Y-136388322D01*
X191497217Y-136486023D01*
X191566790Y-136576692D01*
X191629330Y-136720775D01*
X191645489Y-136804412D01*
X191631425Y-136911240D01*
X191563947Y-137011036D01*
X191412832Y-137126990D01*
X191576664Y-136088935D02*
X191583696Y-136035521D01*
X191620952Y-135958916D01*
X191772066Y-135842962D01*
X191855703Y-135826803D01*
X191909117Y-135833835D01*
X191985722Y-135871090D01*
X192032104Y-135931536D01*
X192071454Y-136045396D01*
X191987069Y-136686363D01*
X192379968Y-136384881D01*
X192599309Y-135544323D02*
X192923981Y-135967445D01*
X192262666Y-135418493D02*
X192459415Y-135987793D01*
X192852314Y-135686311D01*
%TO.C,D23*%
X192554231Y-119844767D02*
X192693150Y-119056921D01*
X192880732Y-119089997D01*
X192986666Y-119147359D01*
X193048469Y-119235622D01*
X193072755Y-119317270D01*
X193083811Y-119473952D01*
X193063965Y-119586501D01*
X192999988Y-119729952D01*
X192949241Y-119798370D01*
X192860978Y-119860172D01*
X192741813Y-119877843D01*
X192554231Y-119844767D01*
X193430249Y-119264257D02*
X193474381Y-119233356D01*
X193556029Y-119209070D01*
X193743611Y-119242146D01*
X193812029Y-119292893D01*
X193842930Y-119337024D01*
X193867216Y-119418672D01*
X193853986Y-119493705D01*
X193796624Y-119599640D01*
X193267044Y-119970456D01*
X193754759Y-120056453D01*
X194156292Y-119314913D02*
X194644007Y-119400910D01*
X194328470Y-119654736D01*
X194441020Y-119674581D01*
X194509437Y-119725328D01*
X194540339Y-119769460D01*
X194564625Y-119851108D01*
X194531549Y-120038690D01*
X194480802Y-120107108D01*
X194436670Y-120138009D01*
X194355022Y-120162295D01*
X194129923Y-120122604D01*
X194061506Y-120071858D01*
X194030604Y-120027726D01*
%TO.C,D22*%
X195862225Y-101084177D02*
X196001144Y-100296331D01*
X196188726Y-100329407D01*
X196294660Y-100386769D01*
X196356463Y-100475032D01*
X196380749Y-100556680D01*
X196391805Y-100713362D01*
X196371959Y-100825911D01*
X196307982Y-100969362D01*
X196257235Y-101037780D01*
X196168972Y-101099582D01*
X196049807Y-101117253D01*
X195862225Y-101084177D01*
X196738243Y-100503667D02*
X196782375Y-100472766D01*
X196864023Y-100448480D01*
X197051605Y-100481556D01*
X197120023Y-100532303D01*
X197150924Y-100576434D01*
X197175210Y-100658082D01*
X197161980Y-100733115D01*
X197104618Y-100839050D01*
X196575038Y-101209866D01*
X197062753Y-101295863D01*
X197488573Y-100635971D02*
X197532704Y-100605070D01*
X197614352Y-100580783D01*
X197801935Y-100613859D01*
X197870353Y-100664606D01*
X197901254Y-100708738D01*
X197925540Y-100790386D01*
X197912310Y-100865419D01*
X197854948Y-100971353D01*
X197325368Y-101342169D01*
X197813082Y-101428166D01*
%TO.C,D21*%
X199170226Y-82323588D02*
X199309145Y-81535742D01*
X199496727Y-81568818D01*
X199602661Y-81626180D01*
X199664464Y-81714443D01*
X199688750Y-81796091D01*
X199699806Y-81952773D01*
X199679960Y-82065322D01*
X199615983Y-82208773D01*
X199565236Y-82277191D01*
X199476973Y-82338993D01*
X199357808Y-82356664D01*
X199170226Y-82323588D01*
X200046244Y-81743078D02*
X200090376Y-81712177D01*
X200172024Y-81687891D01*
X200359606Y-81720967D01*
X200428024Y-81771714D01*
X200458925Y-81815845D01*
X200483211Y-81897493D01*
X200469981Y-81972526D01*
X200412619Y-82078461D01*
X199883039Y-82449277D01*
X200370754Y-82535274D01*
X201121083Y-82667577D02*
X200670885Y-82588195D01*
X200895984Y-82627886D02*
X201034903Y-81840040D01*
X200940024Y-81939359D01*
X200851761Y-82001162D01*
X200770113Y-82025448D01*
%TO.C,D20*%
X174758153Y-137068222D02*
X175031769Y-136316467D01*
X175210758Y-136381614D01*
X175305122Y-136456500D01*
X175350659Y-136554154D01*
X175360398Y-136638779D01*
X175344078Y-136795000D01*
X175304990Y-136902393D01*
X175217075Y-137032555D01*
X175155219Y-137091122D01*
X175057564Y-137136658D01*
X174937142Y-137133368D01*
X174758153Y-137068222D01*
X175721666Y-136648650D02*
X175770493Y-136625881D01*
X175855118Y-136616142D01*
X176034107Y-136681289D01*
X176092674Y-136743145D01*
X176115442Y-136791973D01*
X176125181Y-136876598D01*
X176099123Y-136948193D01*
X176024237Y-137042557D01*
X175438311Y-137315779D01*
X175903683Y-137485160D01*
X176642670Y-136902788D02*
X176714266Y-136928846D01*
X176772832Y-136990703D01*
X176795601Y-137039530D01*
X176805340Y-137124155D01*
X176789020Y-137280376D01*
X176723874Y-137459365D01*
X176635958Y-137589527D01*
X176574102Y-137648093D01*
X176525275Y-137670861D01*
X176440650Y-137680601D01*
X176369054Y-137654542D01*
X176310488Y-137592685D01*
X176287719Y-137543858D01*
X176277980Y-137459233D01*
X176294300Y-137303013D01*
X176359446Y-137124024D01*
X176447362Y-136993862D01*
X176509218Y-136935295D01*
X176558045Y-136912527D01*
X176642670Y-136902788D01*
%TO.C,D19*%
X173793643Y-116536767D02*
X173932562Y-115748921D01*
X174120144Y-115781997D01*
X174226078Y-115839359D01*
X174287881Y-115927622D01*
X174312167Y-116009270D01*
X174323223Y-116165952D01*
X174303377Y-116278501D01*
X174239400Y-116421952D01*
X174188653Y-116490370D01*
X174100390Y-116552172D01*
X173981225Y-116569843D01*
X173793643Y-116536767D01*
X174994171Y-116748453D02*
X174543973Y-116669071D01*
X174769072Y-116708762D02*
X174907990Y-115920915D01*
X174813112Y-116020235D01*
X174724848Y-116082037D01*
X174643200Y-116106323D01*
X175369335Y-116814604D02*
X175519401Y-116841065D01*
X175601049Y-116816779D01*
X175645181Y-116785878D01*
X175740060Y-116686558D01*
X175804037Y-116543108D01*
X175856958Y-116242976D01*
X175832672Y-116161328D01*
X175801771Y-116117196D01*
X175733353Y-116066449D01*
X175583287Y-116039989D01*
X175501639Y-116064275D01*
X175457507Y-116095176D01*
X175406760Y-116163594D01*
X175373684Y-116351176D01*
X175397971Y-116432824D01*
X175428872Y-116476956D01*
X175497290Y-116527703D01*
X175647356Y-116554164D01*
X175729004Y-116529877D01*
X175773135Y-116498976D01*
X175823882Y-116430558D01*
%TO.C,D18*%
X177397080Y-97828270D02*
X177535999Y-97040424D01*
X177723581Y-97073500D01*
X177829515Y-97130862D01*
X177891318Y-97219125D01*
X177915604Y-97300773D01*
X177926660Y-97457455D01*
X177906814Y-97570004D01*
X177842837Y-97713455D01*
X177792090Y-97781873D01*
X177703827Y-97843675D01*
X177584662Y-97861346D01*
X177397080Y-97828270D01*
X178597608Y-98039956D02*
X178147410Y-97960574D01*
X178372509Y-98000265D02*
X178511427Y-97212418D01*
X178416549Y-97311738D01*
X178328285Y-97373540D01*
X178246637Y-97397826D01*
X179127187Y-97669140D02*
X179058770Y-97618393D01*
X179027868Y-97574261D01*
X179003582Y-97492613D01*
X179010197Y-97455097D01*
X179060944Y-97386679D01*
X179105076Y-97355778D01*
X179186724Y-97331492D01*
X179336790Y-97357952D01*
X179405208Y-97408699D01*
X179436109Y-97452831D01*
X179460395Y-97534479D01*
X179453780Y-97571995D01*
X179403033Y-97640413D01*
X179358901Y-97671314D01*
X179277253Y-97695601D01*
X179127187Y-97669140D01*
X179045539Y-97693426D01*
X179001408Y-97724327D01*
X178950661Y-97792745D01*
X178924200Y-97942811D01*
X178948486Y-98024459D01*
X178979388Y-98068591D01*
X179047805Y-98119338D01*
X179197871Y-98145798D01*
X179279519Y-98121512D01*
X179323651Y-98090611D01*
X179374398Y-98022193D01*
X179400859Y-97872127D01*
X179376572Y-97790479D01*
X179345671Y-97746347D01*
X179277253Y-97695601D01*
%TO.C,D17*%
X180705081Y-79067687D02*
X180844000Y-78279841D01*
X181031582Y-78312917D01*
X181137516Y-78370279D01*
X181199319Y-78458542D01*
X181223605Y-78540190D01*
X181234661Y-78696872D01*
X181214815Y-78809421D01*
X181150838Y-78952872D01*
X181100091Y-79021290D01*
X181011828Y-79083092D01*
X180892663Y-79100763D01*
X180705081Y-79067687D01*
X181905609Y-79279373D02*
X181455411Y-79199991D01*
X181680510Y-79239682D02*
X181819428Y-78451835D01*
X181724550Y-78551155D01*
X181636286Y-78612957D01*
X181554638Y-78637243D01*
X182307142Y-78537833D02*
X182832373Y-78630445D01*
X182355806Y-79358755D01*
%TO.C,D16*%
X150917830Y-138294980D02*
X151056749Y-137507134D01*
X151244331Y-137540210D01*
X151350265Y-137597572D01*
X151412068Y-137685835D01*
X151436354Y-137767483D01*
X151447410Y-137924165D01*
X151427564Y-138036714D01*
X151363587Y-138180165D01*
X151312840Y-138248583D01*
X151224577Y-138310385D01*
X151105412Y-138328056D01*
X150917830Y-138294980D01*
X152118358Y-138506666D02*
X151668160Y-138427284D01*
X151893259Y-138466975D02*
X152032177Y-137679128D01*
X151937299Y-137778448D01*
X151849035Y-137840250D01*
X151767387Y-137864536D01*
X152932573Y-137837893D02*
X152782507Y-137811432D01*
X152700859Y-137835718D01*
X152656727Y-137866619D01*
X152561849Y-137965938D01*
X152497871Y-138109389D01*
X152444950Y-138409521D01*
X152469236Y-138491169D01*
X152500138Y-138535301D01*
X152568555Y-138586048D01*
X152718621Y-138612508D01*
X152800269Y-138588222D01*
X152844401Y-138557321D01*
X152895148Y-138488903D01*
X152928224Y-138301321D01*
X152903938Y-138219673D01*
X152873036Y-138175541D01*
X152804619Y-138124794D01*
X152654553Y-138098333D01*
X152572904Y-138122620D01*
X152528773Y-138153521D01*
X152478026Y-138221939D01*
%TO.C,D15*%
X156431164Y-107027336D02*
X156570083Y-106239490D01*
X156757665Y-106272566D01*
X156863599Y-106329928D01*
X156925402Y-106418191D01*
X156949688Y-106499839D01*
X156960744Y-106656521D01*
X156940898Y-106769070D01*
X156876921Y-106912521D01*
X156826174Y-106980939D01*
X156737911Y-107042741D01*
X156618746Y-107060412D01*
X156431164Y-107027336D01*
X157631692Y-107239022D02*
X157181494Y-107159640D01*
X157406593Y-107199331D02*
X157545511Y-106411484D01*
X157450633Y-106510804D01*
X157362369Y-106572606D01*
X157280721Y-106596892D01*
X158483423Y-106576864D02*
X158108258Y-106510712D01*
X158004590Y-106879262D01*
X158048722Y-106848360D01*
X158130370Y-106824074D01*
X158317953Y-106857150D01*
X158386370Y-106907897D01*
X158417272Y-106952029D01*
X158441558Y-107033677D01*
X158408482Y-107221259D01*
X158357735Y-107289677D01*
X158313603Y-107320578D01*
X158231955Y-107344864D01*
X158044373Y-107311789D01*
X157975955Y-107261042D01*
X157945054Y-107216910D01*
%TO.C,D14*%
X159739161Y-88266748D02*
X159878080Y-87478902D01*
X160065662Y-87511978D01*
X160171596Y-87569340D01*
X160233399Y-87657603D01*
X160257685Y-87739251D01*
X160268741Y-87895933D01*
X160248895Y-88008482D01*
X160184918Y-88151933D01*
X160134171Y-88220351D01*
X160045908Y-88282153D01*
X159926743Y-88299824D01*
X159739161Y-88266748D01*
X160939689Y-88478434D02*
X160489491Y-88399052D01*
X160714590Y-88438743D02*
X160853508Y-87650896D01*
X160758630Y-87750216D01*
X160670366Y-87812018D01*
X160588718Y-87836304D01*
X161707598Y-88072276D02*
X161614985Y-88597507D01*
X161572937Y-87739068D02*
X161286127Y-88268740D01*
X161773841Y-88354737D01*
%TO.C,D13*%
X163047161Y-69506159D02*
X163186080Y-68718313D01*
X163373662Y-68751389D01*
X163479596Y-68808751D01*
X163541399Y-68897014D01*
X163565685Y-68978662D01*
X163576741Y-69135344D01*
X163556895Y-69247893D01*
X163492918Y-69391344D01*
X163442171Y-69459762D01*
X163353908Y-69521564D01*
X163234743Y-69539235D01*
X163047161Y-69506159D01*
X164247689Y-69717845D02*
X163797491Y-69638463D01*
X164022590Y-69678154D02*
X164161508Y-68890307D01*
X164066630Y-68989627D01*
X163978366Y-69051429D01*
X163896718Y-69075715D01*
X164649222Y-68976305D02*
X165136937Y-69062302D01*
X164821400Y-69316128D01*
X164933950Y-69335973D01*
X165002367Y-69386720D01*
X165033269Y-69430852D01*
X165057555Y-69512500D01*
X165024479Y-69700082D01*
X164973732Y-69768500D01*
X164929600Y-69799401D01*
X164847952Y-69823687D01*
X164622853Y-69783996D01*
X164554436Y-69733250D01*
X164523534Y-69689118D01*
%TO.C,D12*%
X132157244Y-134986983D02*
X132296163Y-134199137D01*
X132483745Y-134232213D01*
X132589679Y-134289575D01*
X132651482Y-134377838D01*
X132675768Y-134459486D01*
X132686824Y-134616168D01*
X132666978Y-134728717D01*
X132603001Y-134872168D01*
X132552254Y-134940586D01*
X132463991Y-135002388D01*
X132344826Y-135020059D01*
X132157244Y-134986983D01*
X133357772Y-135198669D02*
X132907574Y-135119287D01*
X133132673Y-135158978D02*
X133271591Y-134371131D01*
X133176713Y-134470451D01*
X133088449Y-134532253D01*
X133006801Y-134556539D01*
X133783592Y-134538777D02*
X133827723Y-134507876D01*
X133909371Y-134483589D01*
X134096954Y-134516665D01*
X134165372Y-134567412D01*
X134196273Y-134611544D01*
X134220559Y-134693192D01*
X134207329Y-134768225D01*
X134149967Y-134874159D01*
X133620387Y-135244975D01*
X134108101Y-135330972D01*
%TO.C,D11*%
X136567907Y-109972868D02*
X136706826Y-109185022D01*
X136894408Y-109218098D01*
X137000342Y-109275460D01*
X137062145Y-109363723D01*
X137086431Y-109445371D01*
X137097487Y-109602053D01*
X137077641Y-109714602D01*
X137013664Y-109858053D01*
X136962917Y-109926471D01*
X136874654Y-109988273D01*
X136755489Y-110005944D01*
X136567907Y-109972868D01*
X137768435Y-110184554D02*
X137318237Y-110105172D01*
X137543336Y-110144863D02*
X137682254Y-109357016D01*
X137587376Y-109456336D01*
X137499112Y-109518138D01*
X137417464Y-109542424D01*
X138518764Y-110316857D02*
X138068566Y-110237475D01*
X138293665Y-110277166D02*
X138432584Y-109489320D01*
X138337705Y-109588639D01*
X138249442Y-109650442D01*
X138167794Y-109674728D01*
%TO.C,D10*%
X139875912Y-91212275D02*
X140014831Y-90424429D01*
X140202413Y-90457505D01*
X140308347Y-90514867D01*
X140370150Y-90603130D01*
X140394436Y-90684778D01*
X140405492Y-90841460D01*
X140385646Y-90954009D01*
X140321669Y-91097460D01*
X140270922Y-91165878D01*
X140182659Y-91227680D01*
X140063494Y-91245351D01*
X139875912Y-91212275D01*
X141076440Y-91423961D02*
X140626242Y-91344579D01*
X140851341Y-91384270D02*
X140990259Y-90596423D01*
X140895381Y-90695743D01*
X140807117Y-90757545D01*
X140725469Y-90781831D01*
X141703072Y-90722112D02*
X141778105Y-90735342D01*
X141846523Y-90786089D01*
X141877425Y-90830221D01*
X141901711Y-90911869D01*
X141912766Y-91068550D01*
X141879691Y-91256132D01*
X141815713Y-91399583D01*
X141764967Y-91468001D01*
X141720835Y-91498902D01*
X141639187Y-91523188D01*
X141564154Y-91509958D01*
X141495736Y-91459211D01*
X141464835Y-91415079D01*
X141440549Y-91333431D01*
X141429493Y-91176750D01*
X141462569Y-90989168D01*
X141526546Y-90845717D01*
X141577293Y-90777299D01*
X141621424Y-90746398D01*
X141703072Y-90722112D01*
%TO.C,D9*%
X143559063Y-72517842D02*
X143697981Y-71729996D01*
X143885564Y-71763072D01*
X143991498Y-71820434D01*
X144053301Y-71908697D01*
X144077587Y-71990345D01*
X144088643Y-72147026D01*
X144068797Y-72259576D01*
X144004820Y-72403026D01*
X143954073Y-72471444D01*
X143865810Y-72533247D01*
X143746645Y-72550918D01*
X143559063Y-72517842D01*
X144384426Y-72663376D02*
X144534491Y-72689836D01*
X144616140Y-72665550D01*
X144660271Y-72634649D01*
X144755150Y-72535330D01*
X144819127Y-72391879D01*
X144872048Y-72091747D01*
X144847762Y-72010099D01*
X144816861Y-71965967D01*
X144748443Y-71915221D01*
X144598377Y-71888760D01*
X144516729Y-71913046D01*
X144472597Y-71943947D01*
X144421850Y-72012365D01*
X144388775Y-72199948D01*
X144413061Y-72281596D01*
X144443962Y-72325727D01*
X144512380Y-72376474D01*
X144662446Y-72402935D01*
X144744094Y-72378649D01*
X144788226Y-72347747D01*
X144838972Y-72279330D01*
%TO.C,D7*%
X117079816Y-112984542D02*
X117218734Y-112196696D01*
X117406317Y-112229772D01*
X117512251Y-112287134D01*
X117574054Y-112375397D01*
X117598340Y-112457045D01*
X117609396Y-112613726D01*
X117589550Y-112726276D01*
X117525573Y-112869726D01*
X117474826Y-112938144D01*
X117386563Y-112999947D01*
X117267398Y-113017618D01*
X117079816Y-112984542D01*
X117931548Y-112322384D02*
X118456778Y-112414996D01*
X117980212Y-113143306D01*
%TO.C,D6*%
X120387813Y-94223961D02*
X120526731Y-93436115D01*
X120714314Y-93469191D01*
X120820248Y-93526553D01*
X120882051Y-93614816D01*
X120906337Y-93696464D01*
X120917393Y-93853145D01*
X120897547Y-93965695D01*
X120833570Y-94109145D01*
X120782823Y-94177563D01*
X120694560Y-94239366D01*
X120575395Y-94257037D01*
X120387813Y-94223961D01*
X121652226Y-93634570D02*
X121502160Y-93608109D01*
X121420512Y-93632395D01*
X121376380Y-93663297D01*
X121281502Y-93762616D01*
X121217525Y-93906067D01*
X121164603Y-94206198D01*
X121188889Y-94287847D01*
X121219791Y-94331978D01*
X121288209Y-94382725D01*
X121438274Y-94409186D01*
X121519923Y-94384900D01*
X121564054Y-94353998D01*
X121614801Y-94285580D01*
X121647877Y-94097998D01*
X121623591Y-94016350D01*
X121592689Y-93972218D01*
X121524272Y-93921471D01*
X121374206Y-93895011D01*
X121292558Y-93919297D01*
X121248426Y-93950198D01*
X121197679Y-94018616D01*
%TO.C,D5*%
X123400376Y-75411281D02*
X123539294Y-74623435D01*
X123726877Y-74656511D01*
X123832811Y-74713873D01*
X123894614Y-74802136D01*
X123918900Y-74883784D01*
X123929956Y-75040465D01*
X123910110Y-75153015D01*
X123846133Y-75296465D01*
X123795386Y-75364883D01*
X123707123Y-75426686D01*
X123587958Y-75444357D01*
X123400376Y-75411281D01*
X124702305Y-74828505D02*
X124327141Y-74762353D01*
X124223472Y-75130903D01*
X124267604Y-75100002D01*
X124349252Y-75075716D01*
X124536835Y-75108791D01*
X124605252Y-75159538D01*
X124636154Y-75203670D01*
X124660440Y-75285318D01*
X124627364Y-75472900D01*
X124576617Y-75541318D01*
X124532486Y-75572220D01*
X124450837Y-75596506D01*
X124263255Y-75563430D01*
X124194837Y-75512683D01*
X124163936Y-75468551D01*
%TO.C,D4*%
X95011233Y-128437140D02*
X95150151Y-127649294D01*
X95337734Y-127682370D01*
X95443668Y-127739732D01*
X95505471Y-127827995D01*
X95529757Y-127909643D01*
X95540813Y-128066324D01*
X95520967Y-128178874D01*
X95456990Y-128322324D01*
X95406243Y-128390742D01*
X95317980Y-128452545D01*
X95198815Y-128470216D01*
X95011233Y-128437140D01*
X96229340Y-128110364D02*
X96136727Y-128635595D01*
X96094679Y-127777157D02*
X95807869Y-128306828D01*
X96295583Y-128392825D01*
%TO.C,D3*%
X98503877Y-109709111D02*
X98642795Y-108921265D01*
X98830378Y-108954341D01*
X98936312Y-109011703D01*
X98998115Y-109099966D01*
X99022401Y-109181614D01*
X99033457Y-109338295D01*
X99013611Y-109450845D01*
X98949634Y-109594295D01*
X98898887Y-109662713D01*
X98810624Y-109724516D01*
X98691459Y-109742187D01*
X98503877Y-109709111D01*
X99355609Y-109046953D02*
X99843323Y-109132950D01*
X99527786Y-109386776D01*
X99640336Y-109406621D01*
X99708753Y-109457368D01*
X99739655Y-109501500D01*
X99763941Y-109583148D01*
X99730865Y-109770730D01*
X99680118Y-109839148D01*
X99635987Y-109870050D01*
X99554338Y-109894336D01*
X99329240Y-109854645D01*
X99260822Y-109803898D01*
X99229920Y-109759766D01*
%TO.C,D2*%
X101627228Y-90915962D02*
X101766146Y-90128116D01*
X101953729Y-90161192D01*
X102059663Y-90218554D01*
X102121466Y-90306817D01*
X102145752Y-90388465D01*
X102156808Y-90545146D01*
X102136962Y-90657696D01*
X102072985Y-90801146D01*
X102022238Y-90869564D01*
X101933975Y-90931367D01*
X101814810Y-90949038D01*
X101627228Y-90915962D01*
X102503246Y-90335452D02*
X102547377Y-90304551D01*
X102629026Y-90280265D01*
X102816608Y-90313341D01*
X102885026Y-90364087D01*
X102915927Y-90408219D01*
X102940213Y-90489867D01*
X102926983Y-90564900D01*
X102869621Y-90670834D01*
X102340041Y-91041650D01*
X102827755Y-91127647D01*
%TO.C,D1*%
X104935226Y-72155380D02*
X105074144Y-71367534D01*
X105261727Y-71400610D01*
X105367661Y-71457972D01*
X105429464Y-71546235D01*
X105453750Y-71627883D01*
X105464806Y-71784564D01*
X105444960Y-71897114D01*
X105380983Y-72040564D01*
X105330236Y-72108982D01*
X105241973Y-72170785D01*
X105122808Y-72188456D01*
X104935226Y-72155380D01*
X106135753Y-72367065D02*
X105685556Y-72287683D01*
X105910654Y-72327374D02*
X106049573Y-71539528D01*
X105954695Y-71638847D01*
X105866431Y-71700650D01*
X105784783Y-71724936D01*
%TO.C,D8*%
X113771822Y-131745130D02*
X113910740Y-130957284D01*
X114098323Y-130990360D01*
X114204257Y-131047722D01*
X114266060Y-131135985D01*
X114290346Y-131217633D01*
X114301402Y-131374314D01*
X114281556Y-131486864D01*
X114217579Y-131630314D01*
X114166832Y-131698732D01*
X114078569Y-131760535D01*
X113959404Y-131778206D01*
X113771822Y-131745130D01*
X114751600Y-131453696D02*
X114683182Y-131402949D01*
X114652280Y-131358818D01*
X114627994Y-131277170D01*
X114634609Y-131239653D01*
X114685356Y-131171235D01*
X114729488Y-131140334D01*
X114811136Y-131116048D01*
X114961202Y-131142509D01*
X115029620Y-131193255D01*
X115060521Y-131237387D01*
X115084807Y-131319035D01*
X115078192Y-131356552D01*
X115027445Y-131424969D01*
X114983314Y-131455871D01*
X114901665Y-131480157D01*
X114751600Y-131453696D01*
X114669951Y-131477982D01*
X114625820Y-131508884D01*
X114575073Y-131577301D01*
X114548612Y-131727367D01*
X114572898Y-131809016D01*
X114603800Y-131853147D01*
X114672218Y-131903894D01*
X114822283Y-131930355D01*
X114903932Y-131906069D01*
X114948063Y-131875167D01*
X114998810Y-131806749D01*
X115025271Y-131656684D01*
X115000985Y-131575035D01*
X114970083Y-131530904D01*
X114901665Y-131480157D01*
%TO.C,SW26*%
D15*
X262157989Y-89147270D02*
X262384998Y-89180933D01*
X262742342Y-89117924D01*
X262872678Y-89021251D01*
X262931545Y-88937180D01*
X262977810Y-88781641D01*
X262952607Y-88638703D01*
X262855934Y-88508367D01*
X262771863Y-88449500D01*
X262616323Y-88403235D01*
X262317846Y-88382174D01*
X262162306Y-88335909D01*
X262078235Y-88277041D01*
X261981563Y-88146706D01*
X261956359Y-88003768D01*
X262002624Y-87848228D01*
X262061491Y-87764157D01*
X262191827Y-87667485D01*
X262549171Y-87604475D01*
X262776180Y-87638138D01*
X263263860Y-87478456D02*
X263885845Y-88916294D01*
X263982692Y-87793852D01*
X264457596Y-88815478D01*
X264550301Y-87251622D01*
X265075787Y-87306347D02*
X265134654Y-87222276D01*
X265264990Y-87125603D01*
X265622334Y-87062594D01*
X265777874Y-87108859D01*
X265861945Y-87167726D01*
X265958618Y-87298062D01*
X265983821Y-87440999D01*
X265950158Y-87668008D01*
X265243754Y-88676858D01*
X266172850Y-88513033D01*
X267194650Y-86785352D02*
X266908775Y-86835759D01*
X266778439Y-86932432D01*
X266719572Y-87016503D01*
X266614440Y-87256113D01*
X266593378Y-87554591D01*
X266694193Y-88126342D01*
X266790866Y-88256678D01*
X266874937Y-88315545D01*
X267030477Y-88361810D01*
X267316352Y-88311403D01*
X267446688Y-88214730D01*
X267505555Y-88130659D01*
X267551820Y-87975119D01*
X267488811Y-87617775D01*
X267392138Y-87487439D01*
X267308067Y-87428572D01*
X267152528Y-87382307D01*
X266866652Y-87432714D01*
X266736316Y-87529387D01*
X266677449Y-87613458D01*
X266631184Y-87768998D01*
%TO.C,SW21*%
X204042841Y-70317262D02*
X204244646Y-70426537D01*
X204601990Y-70489546D01*
X204757530Y-70443281D01*
X204841601Y-70384414D01*
X204938274Y-70254078D01*
X204963477Y-70111140D01*
X204917212Y-69955601D01*
X204858345Y-69871530D01*
X204728009Y-69774857D01*
X204454736Y-69652981D01*
X204324400Y-69556308D01*
X204265533Y-69472237D01*
X204219268Y-69316697D01*
X204244471Y-69173760D01*
X204341144Y-69043424D01*
X204425215Y-68984557D01*
X204580755Y-68938292D01*
X204938099Y-69001301D01*
X205139904Y-69110576D01*
X205652788Y-69127320D02*
X205745493Y-70691177D01*
X206220397Y-69669551D01*
X206317244Y-70791992D01*
X206939228Y-69354154D01*
X207414307Y-69585305D02*
X207498378Y-69526438D01*
X207653917Y-69480173D01*
X208011262Y-69543183D01*
X208141598Y-69639855D01*
X208200465Y-69723926D01*
X208246730Y-69879466D01*
X208221526Y-70022404D01*
X208112252Y-70224208D01*
X207103402Y-70930613D01*
X208032498Y-71094437D01*
X209461876Y-71346475D02*
X208604249Y-71195252D01*
X209033062Y-71270864D02*
X209297702Y-69770017D01*
X209116959Y-69959220D01*
X208948817Y-70076954D01*
X208793277Y-70123219D01*
%TO.C,SW24*%
X202738088Y-141492139D02*
X202813049Y-141709043D01*
X203033942Y-141996916D01*
X203179875Y-142067887D01*
X203281628Y-142081283D01*
X203440956Y-142050501D01*
X203556106Y-141962143D01*
X203627077Y-141816211D01*
X203640473Y-141714458D01*
X203609690Y-141555130D01*
X203490550Y-141280652D01*
X203459768Y-141121324D01*
X203473164Y-141019570D01*
X203544135Y-140873638D01*
X203659284Y-140785281D01*
X203818613Y-140754498D01*
X203920366Y-140767894D01*
X204066298Y-140838865D01*
X204287192Y-141126739D01*
X204362153Y-141343642D01*
X204728978Y-141702487D02*
X203740801Y-142918113D01*
X204781138Y-142485732D01*
X204094231Y-143378711D01*
X205524195Y-142738833D01*
X205718296Y-143230214D02*
X205820050Y-143243610D01*
X205965982Y-143314581D01*
X206186875Y-143602455D01*
X206217658Y-143761783D01*
X206204262Y-143863536D01*
X206133291Y-144009468D01*
X206018141Y-144097826D01*
X205801238Y-144172787D01*
X204580196Y-144012034D01*
X205154519Y-144760506D01*
X206755783Y-145178351D02*
X205949736Y-145796852D01*
X206995488Y-144537047D02*
X205910972Y-144911854D01*
X206485295Y-145660326D01*
%TO.C,SW14*%
X164316333Y-76208325D02*
X164518138Y-76317600D01*
X164875482Y-76380609D01*
X165031022Y-76334344D01*
X165115093Y-76275477D01*
X165211766Y-76145141D01*
X165236969Y-76002203D01*
X165190704Y-75846664D01*
X165131837Y-75762593D01*
X165001501Y-75665920D01*
X164728228Y-75544044D01*
X164597892Y-75447371D01*
X164539025Y-75363300D01*
X164492760Y-75207760D01*
X164517963Y-75064823D01*
X164614636Y-74934487D01*
X164698707Y-74875620D01*
X164854247Y-74829355D01*
X165211591Y-74892364D01*
X165413396Y-75001639D01*
X165926280Y-75018383D02*
X166018985Y-76582240D01*
X166493889Y-75560614D01*
X166590736Y-76683055D01*
X167212720Y-75245217D01*
X168305990Y-76985500D02*
X167448363Y-76834277D01*
X167877176Y-76909889D02*
X168141816Y-75409042D01*
X167961073Y-75598245D01*
X167792931Y-75715979D01*
X167637391Y-75762244D01*
X169768857Y-76211770D02*
X169592430Y-77212334D01*
X169512327Y-75577009D02*
X168965954Y-76586033D01*
X169895050Y-76749858D01*
%TO.C,SW1*%
X109851923Y-60156821D02*
X110053728Y-60266096D01*
X110411072Y-60329105D01*
X110566612Y-60282840D01*
X110650683Y-60223973D01*
X110747356Y-60093637D01*
X110772559Y-59950699D01*
X110726294Y-59795160D01*
X110667427Y-59711089D01*
X110537091Y-59614416D01*
X110263818Y-59492540D01*
X110133482Y-59395867D01*
X110074615Y-59311796D01*
X110028350Y-59156256D01*
X110053553Y-59013319D01*
X110150226Y-58882983D01*
X110234297Y-58824116D01*
X110389837Y-58777851D01*
X110747181Y-58840860D01*
X110948986Y-58950135D01*
X111461870Y-58966879D02*
X111554575Y-60530736D01*
X112029479Y-59509110D01*
X112126326Y-60631551D01*
X112748310Y-59193713D01*
X113841580Y-60933996D02*
X112983953Y-60782773D01*
X113412766Y-60858385D02*
X113677406Y-59357538D01*
X113496663Y-59546741D01*
X113328521Y-59664475D01*
X113172981Y-59710740D01*
%TO.C,SW2*%
X106543932Y-78917407D02*
X106745737Y-79026682D01*
X107103081Y-79089691D01*
X107258621Y-79043426D01*
X107342692Y-78984559D01*
X107439365Y-78854223D01*
X107464568Y-78711285D01*
X107418303Y-78555746D01*
X107359436Y-78471675D01*
X107229100Y-78375002D01*
X106955827Y-78253126D01*
X106825491Y-78156453D01*
X106766624Y-78072382D01*
X106720359Y-77916842D01*
X106745562Y-77773905D01*
X106842235Y-77643569D01*
X106926306Y-77584702D01*
X107081846Y-77538437D01*
X107439190Y-77601446D01*
X107640995Y-77710721D01*
X108153879Y-77727465D02*
X108246584Y-79291322D01*
X108721488Y-78269696D01*
X108818335Y-79392137D01*
X109440319Y-77954299D01*
X109915398Y-78185450D02*
X109999469Y-78126583D01*
X110155009Y-78080318D01*
X110512353Y-78143328D01*
X110642689Y-78240000D01*
X110701556Y-78324071D01*
X110747821Y-78479611D01*
X110722617Y-78622549D01*
X110613343Y-78824353D01*
X109604493Y-79530758D01*
X110533589Y-79694582D01*
%TO.C,SW3*%
X103235931Y-97677996D02*
X103437736Y-97787271D01*
X103795080Y-97850280D01*
X103950620Y-97804015D01*
X104034691Y-97745148D01*
X104131364Y-97614812D01*
X104156567Y-97471874D01*
X104110302Y-97316335D01*
X104051435Y-97232264D01*
X103921099Y-97135591D01*
X103647826Y-97013715D01*
X103517490Y-96917042D01*
X103458623Y-96832971D01*
X103412358Y-96677431D01*
X103437561Y-96534494D01*
X103534234Y-96404158D01*
X103618305Y-96345291D01*
X103773845Y-96299026D01*
X104131189Y-96362035D01*
X104332994Y-96471310D01*
X104845878Y-96488054D02*
X104938583Y-98051911D01*
X105413487Y-97030285D01*
X105510334Y-98152726D01*
X106132318Y-96714888D01*
X106561132Y-96790500D02*
X107490228Y-96954324D01*
X106889130Y-97437862D01*
X107103537Y-97475668D01*
X107233873Y-97572341D01*
X107292740Y-97656411D01*
X107339005Y-97811951D01*
X107275995Y-98169296D01*
X107179323Y-98299631D01*
X107095252Y-98358499D01*
X106939712Y-98404764D01*
X106510899Y-98329152D01*
X106380563Y-98232480D01*
X106321696Y-98148409D01*
%TO.C,SW4*%
X99927932Y-116438581D02*
X100129737Y-116547856D01*
X100487081Y-116610865D01*
X100642621Y-116564600D01*
X100726692Y-116505733D01*
X100823365Y-116375397D01*
X100848568Y-116232459D01*
X100802303Y-116076920D01*
X100743436Y-115992849D01*
X100613100Y-115896176D01*
X100339827Y-115774300D01*
X100209491Y-115677627D01*
X100150624Y-115593556D01*
X100104359Y-115438016D01*
X100129562Y-115295079D01*
X100226235Y-115164743D01*
X100310306Y-115105876D01*
X100465846Y-115059611D01*
X100823190Y-115122620D01*
X101024995Y-115231895D01*
X101537879Y-115248639D02*
X101630584Y-116812496D01*
X102105488Y-115790870D01*
X102202335Y-116913311D01*
X102824319Y-115475473D01*
X103951078Y-116189988D02*
X103774651Y-117190552D01*
X103694548Y-115555227D02*
X103148175Y-116564251D01*
X104077271Y-116728076D01*
%TO.C,SW5*%
X128612512Y-63464817D02*
X128814317Y-63574092D01*
X129171661Y-63637101D01*
X129327201Y-63590836D01*
X129411272Y-63531969D01*
X129507945Y-63401633D01*
X129533148Y-63258695D01*
X129486883Y-63103156D01*
X129428016Y-63019085D01*
X129297680Y-62922412D01*
X129024407Y-62800536D01*
X128894071Y-62703863D01*
X128835204Y-62619792D01*
X128788939Y-62464252D01*
X128814142Y-62321315D01*
X128910815Y-62190979D01*
X128994886Y-62132112D01*
X129150426Y-62085847D01*
X129507770Y-62148856D01*
X129709575Y-62258131D01*
X130222459Y-62274875D02*
X130315164Y-63838732D01*
X130790068Y-62817106D01*
X130886915Y-63939547D01*
X131508899Y-62501709D01*
X132795340Y-62728543D02*
X132080651Y-62602524D01*
X131883163Y-63304611D01*
X131967234Y-63245744D01*
X132122773Y-63199479D01*
X132480118Y-63262489D01*
X132610454Y-63359162D01*
X132669321Y-63443232D01*
X132715586Y-63598772D01*
X132652576Y-63956117D01*
X132555904Y-64086452D01*
X132471833Y-64145320D01*
X132316293Y-64191585D01*
X131958949Y-64128575D01*
X131828613Y-64031902D01*
X131769746Y-63947832D01*
%TO.C,SW6*%
X125304518Y-82225404D02*
X125506323Y-82334679D01*
X125863667Y-82397688D01*
X126019207Y-82351423D01*
X126103278Y-82292556D01*
X126199951Y-82162220D01*
X126225154Y-82019282D01*
X126178889Y-81863743D01*
X126120022Y-81779672D01*
X125989686Y-81682999D01*
X125716413Y-81561123D01*
X125586077Y-81464450D01*
X125527210Y-81380379D01*
X125480945Y-81224839D01*
X125506148Y-81081902D01*
X125602821Y-80951566D01*
X125686892Y-80892699D01*
X125842432Y-80846434D01*
X126199776Y-80909443D01*
X126401581Y-81018718D01*
X126914465Y-81035462D02*
X127007170Y-82599319D01*
X127482074Y-81577693D01*
X127578921Y-82700134D01*
X128200905Y-81262296D01*
X129415877Y-81476528D02*
X129130001Y-81426121D01*
X128974462Y-81472386D01*
X128890391Y-81531253D01*
X128709647Y-81720456D01*
X128587771Y-81993730D01*
X128486956Y-82565481D01*
X128533221Y-82721021D01*
X128592088Y-82805091D01*
X128722424Y-82901764D01*
X129008299Y-82952172D01*
X129163839Y-82905907D01*
X129247910Y-82847039D01*
X129344582Y-82716704D01*
X129407592Y-82359359D01*
X129361327Y-82203819D01*
X129302460Y-82119749D01*
X129172124Y-82023076D01*
X128886248Y-81972668D01*
X128730709Y-82018933D01*
X128646638Y-82077800D01*
X128549965Y-82208136D01*
%TO.C,SW7*%
X121996514Y-100985990D02*
X122198319Y-101095265D01*
X122555663Y-101158274D01*
X122711203Y-101112009D01*
X122795274Y-101053142D01*
X122891947Y-100922806D01*
X122917150Y-100779868D01*
X122870885Y-100624329D01*
X122812018Y-100540258D01*
X122681682Y-100443585D01*
X122408409Y-100321709D01*
X122278073Y-100225036D01*
X122219206Y-100140965D01*
X122172941Y-99985425D01*
X122198144Y-99842488D01*
X122294817Y-99712152D01*
X122378888Y-99653285D01*
X122534428Y-99607020D01*
X122891772Y-99670029D01*
X123093577Y-99779304D01*
X123606461Y-99796048D02*
X123699166Y-101359905D01*
X124174070Y-100338279D01*
X124270917Y-101460720D01*
X124892901Y-100022882D01*
X125321715Y-100098494D02*
X126322280Y-100274920D01*
X125414420Y-101662350D01*
%TO.C,SW8*%
X118688516Y-119746577D02*
X118890321Y-119855852D01*
X119247665Y-119918861D01*
X119403205Y-119872596D01*
X119487276Y-119813729D01*
X119583949Y-119683393D01*
X119609152Y-119540455D01*
X119562887Y-119384916D01*
X119504020Y-119300845D01*
X119373684Y-119204172D01*
X119100411Y-119082296D01*
X118970075Y-118985623D01*
X118911208Y-118901552D01*
X118864943Y-118746012D01*
X118890146Y-118603075D01*
X118986819Y-118472739D01*
X119070890Y-118413872D01*
X119226430Y-118367607D01*
X119583774Y-118430616D01*
X119785579Y-118539891D01*
X120298463Y-118556635D02*
X120391168Y-120120492D01*
X120866072Y-119098866D01*
X120962919Y-120221307D01*
X121584903Y-118783469D01*
X122257644Y-119565310D02*
X122127308Y-119468637D01*
X122068441Y-119384567D01*
X122022176Y-119229027D01*
X122034778Y-119157558D01*
X122131451Y-119027222D01*
X122215522Y-118968355D01*
X122371061Y-118922090D01*
X122656937Y-118972498D01*
X122787273Y-119069170D01*
X122846140Y-119153241D01*
X122892405Y-119308781D01*
X122879803Y-119380250D01*
X122783130Y-119510586D01*
X122699060Y-119569453D01*
X122543520Y-119615718D01*
X122257644Y-119565310D01*
X122102105Y-119611575D01*
X122018034Y-119670442D01*
X121921361Y-119800778D01*
X121870954Y-120086654D01*
X121917219Y-120242194D01*
X121976086Y-120326264D01*
X122106422Y-120422937D01*
X122392297Y-120473345D01*
X122547837Y-120427080D01*
X122631908Y-120368212D01*
X122728580Y-120237877D01*
X122778988Y-119952001D01*
X122732723Y-119796461D01*
X122673856Y-119712390D01*
X122543520Y-119615718D01*
%TO.C,SW9*%
X148475768Y-60519290D02*
X148677573Y-60628565D01*
X149034917Y-60691574D01*
X149190457Y-60645309D01*
X149274528Y-60586442D01*
X149371201Y-60456106D01*
X149396404Y-60313168D01*
X149350139Y-60157629D01*
X149291272Y-60073558D01*
X149160936Y-59976885D01*
X148887663Y-59855009D01*
X148757327Y-59758336D01*
X148698460Y-59674265D01*
X148652195Y-59518725D01*
X148677398Y-59375788D01*
X148774071Y-59245452D01*
X148858142Y-59186585D01*
X149013682Y-59140320D01*
X149371026Y-59203329D01*
X149572831Y-59312604D01*
X150085715Y-59329348D02*
X150178420Y-60893205D01*
X150653324Y-59871579D01*
X150750171Y-60994020D01*
X151372155Y-59556182D01*
X151750736Y-61170446D02*
X152036611Y-61220854D01*
X152192151Y-61174589D01*
X152276222Y-61115722D01*
X152456965Y-60926519D01*
X152578842Y-60653245D01*
X152679657Y-60081494D01*
X152633392Y-59925954D01*
X152574525Y-59841883D01*
X152444189Y-59745211D01*
X152158313Y-59694803D01*
X152002774Y-59741068D01*
X151918703Y-59799935D01*
X151822030Y-59930271D01*
X151759021Y-60287616D01*
X151805286Y-60443155D01*
X151864153Y-60527226D01*
X151994489Y-60623899D01*
X152280364Y-60674306D01*
X152435904Y-60628041D01*
X152519975Y-60569174D01*
X152616648Y-60438838D01*
%TO.C,SW10*%
X144453084Y-79153855D02*
X144654889Y-79263130D01*
X145012233Y-79326139D01*
X145167773Y-79279874D01*
X145251844Y-79221007D01*
X145348517Y-79090671D01*
X145373720Y-78947733D01*
X145327455Y-78792194D01*
X145268588Y-78708123D01*
X145138252Y-78611450D01*
X144864979Y-78489574D01*
X144734643Y-78392901D01*
X144675776Y-78308830D01*
X144629511Y-78153290D01*
X144654714Y-78010353D01*
X144751387Y-77880017D01*
X144835458Y-77821150D01*
X144990998Y-77774885D01*
X145348342Y-77837894D01*
X145550147Y-77947169D01*
X146063031Y-77963913D02*
X146155736Y-79527770D01*
X146630640Y-78506144D01*
X146727487Y-79628585D01*
X147349471Y-78190747D01*
X148442741Y-79931030D02*
X147585114Y-79779807D01*
X148013927Y-79855419D02*
X148278567Y-78354572D01*
X148097824Y-78543775D01*
X147929682Y-78661509D01*
X147774142Y-78707774D01*
X149636476Y-78594008D02*
X149779414Y-78619212D01*
X149909750Y-78715884D01*
X149968617Y-78799955D01*
X150014882Y-78955495D01*
X150035944Y-79253972D01*
X149972934Y-79611317D01*
X149851058Y-79884591D01*
X149754385Y-80014927D01*
X149670314Y-80073794D01*
X149514774Y-80120059D01*
X149371837Y-80094855D01*
X149241501Y-79998182D01*
X149182634Y-79914111D01*
X149136369Y-79758572D01*
X149115307Y-79460094D01*
X149178317Y-79102750D01*
X149300193Y-78829476D01*
X149396866Y-78699140D01*
X149480937Y-78640273D01*
X149636476Y-78594008D01*
%TO.C,SW11*%
X141145081Y-97914443D02*
X141346886Y-98023718D01*
X141704230Y-98086727D01*
X141859770Y-98040462D01*
X141943841Y-97981595D01*
X142040514Y-97851259D01*
X142065717Y-97708321D01*
X142019452Y-97552782D01*
X141960585Y-97468711D01*
X141830249Y-97372038D01*
X141556976Y-97250162D01*
X141426640Y-97153489D01*
X141367773Y-97069418D01*
X141321508Y-96913878D01*
X141346711Y-96770941D01*
X141443384Y-96640605D01*
X141527455Y-96581738D01*
X141682995Y-96535473D01*
X142040339Y-96598482D01*
X142242144Y-96707757D01*
X142755028Y-96724501D02*
X142847733Y-98288358D01*
X143322637Y-97266732D01*
X143419484Y-98389173D01*
X144041468Y-96951335D01*
X145134738Y-98691618D02*
X144277111Y-98540395D01*
X144705924Y-98616007D02*
X144970564Y-97115160D01*
X144789821Y-97304363D01*
X144621679Y-97422097D01*
X144466139Y-97468362D01*
X146564116Y-98943656D02*
X145706489Y-98792433D01*
X146135302Y-98868045D02*
X146399942Y-97367198D01*
X146219199Y-97556401D01*
X146051057Y-97674135D01*
X145895517Y-97720400D01*
%TO.C,SW12*%
X136734417Y-122928561D02*
X136936222Y-123037836D01*
X137293566Y-123100845D01*
X137449106Y-123054580D01*
X137533177Y-122995713D01*
X137629850Y-122865377D01*
X137655053Y-122722439D01*
X137608788Y-122566900D01*
X137549921Y-122482829D01*
X137419585Y-122386156D01*
X137146312Y-122264280D01*
X137015976Y-122167607D01*
X136957109Y-122083536D01*
X136910844Y-121927996D01*
X136936047Y-121785059D01*
X137032720Y-121654723D01*
X137116791Y-121595856D01*
X137272331Y-121549591D01*
X137629675Y-121612600D01*
X137831480Y-121721875D01*
X138344364Y-121738619D02*
X138437069Y-123302476D01*
X138911973Y-122280850D01*
X139008820Y-123403291D01*
X139630804Y-121965453D01*
X140724074Y-123705736D02*
X139866447Y-123554513D01*
X140295260Y-123630125D02*
X140559900Y-122129278D01*
X140379157Y-122318481D01*
X140211015Y-122436215D01*
X140055475Y-122482480D01*
X141535261Y-122448642D02*
X141619332Y-122389775D01*
X141774872Y-122343510D01*
X142132216Y-122406520D01*
X142262552Y-122503192D01*
X142321419Y-122587263D01*
X142367684Y-122742803D01*
X142342480Y-122885741D01*
X142233206Y-123087545D01*
X141224356Y-123793950D01*
X142153452Y-123957774D01*
%TO.C,SW13*%
X167624327Y-57447730D02*
X167826132Y-57557005D01*
X168183476Y-57620014D01*
X168339016Y-57573749D01*
X168423087Y-57514882D01*
X168519760Y-57384546D01*
X168544963Y-57241608D01*
X168498698Y-57086069D01*
X168439831Y-57001998D01*
X168309495Y-56905325D01*
X168036222Y-56783449D01*
X167905886Y-56686776D01*
X167847019Y-56602705D01*
X167800754Y-56447165D01*
X167825957Y-56304228D01*
X167922630Y-56173892D01*
X168006701Y-56115025D01*
X168162241Y-56068760D01*
X168519585Y-56131769D01*
X168721390Y-56241044D01*
X169234274Y-56257788D02*
X169326979Y-57821645D01*
X169801883Y-56800019D01*
X169898730Y-57922460D01*
X170520714Y-56484622D01*
X171613984Y-58224905D02*
X170756357Y-58073682D01*
X171185170Y-58149294D02*
X171449810Y-56648447D01*
X171269067Y-56837650D01*
X171100925Y-56955384D01*
X170945385Y-57001649D01*
X172378906Y-56812271D02*
X173308002Y-56976096D01*
X172706904Y-57459634D01*
X172921311Y-57497440D01*
X173051647Y-57594113D01*
X173110514Y-57678183D01*
X173156779Y-57833723D01*
X173093769Y-58191068D01*
X172997097Y-58321403D01*
X172913026Y-58380270D01*
X172757486Y-58426536D01*
X172328673Y-58350924D01*
X172198337Y-58254252D01*
X172139470Y-58170181D01*
%TO.C,SW15*%
X161008339Y-94968908D02*
X161210144Y-95078183D01*
X161567488Y-95141192D01*
X161723028Y-95094927D01*
X161807099Y-95036060D01*
X161903772Y-94905724D01*
X161928975Y-94762786D01*
X161882710Y-94607247D01*
X161823843Y-94523176D01*
X161693507Y-94426503D01*
X161420234Y-94304627D01*
X161289898Y-94207954D01*
X161231031Y-94123883D01*
X161184766Y-93968343D01*
X161209969Y-93825406D01*
X161306642Y-93695070D01*
X161390713Y-93636203D01*
X161546253Y-93589938D01*
X161903597Y-93652947D01*
X162105402Y-93762222D01*
X162618286Y-93778966D02*
X162710991Y-95342823D01*
X163185895Y-94321197D01*
X163282742Y-95443638D01*
X163904726Y-94005800D01*
X164997996Y-95746083D02*
X164140369Y-95594860D01*
X164569182Y-95670472D02*
X164833822Y-94169625D01*
X164653079Y-94358828D01*
X164484937Y-94476562D01*
X164329397Y-94522827D01*
X166620545Y-94484672D02*
X165905856Y-94358653D01*
X165708368Y-95060740D01*
X165792439Y-95001873D01*
X165947978Y-94955608D01*
X166305323Y-95018618D01*
X166435659Y-95115291D01*
X166494526Y-95199361D01*
X166540791Y-95354901D01*
X166477781Y-95712246D01*
X166381109Y-95842581D01*
X166297038Y-95901448D01*
X166141498Y-95947714D01*
X165784154Y-95884704D01*
X165653818Y-95788031D01*
X165594951Y-95703961D01*
%TO.C,SW16*%
X155495014Y-126236555D02*
X155696819Y-126345830D01*
X156054163Y-126408839D01*
X156209703Y-126362574D01*
X156293774Y-126303707D01*
X156390447Y-126173371D01*
X156415650Y-126030433D01*
X156369385Y-125874894D01*
X156310518Y-125790823D01*
X156180182Y-125694150D01*
X155906909Y-125572274D01*
X155776573Y-125475601D01*
X155717706Y-125391530D01*
X155671441Y-125235990D01*
X155696644Y-125093053D01*
X155793317Y-124962717D01*
X155877388Y-124903850D01*
X156032928Y-124857585D01*
X156390272Y-124920594D01*
X156592077Y-125029869D01*
X157104961Y-125046613D02*
X157197666Y-126610470D01*
X157672570Y-125588844D01*
X157769417Y-126711285D01*
X158391401Y-125273447D01*
X159484671Y-127013730D02*
X158627044Y-126862507D01*
X159055857Y-126938119D02*
X159320497Y-125437272D01*
X159139754Y-125626475D01*
X158971612Y-125744209D01*
X158816072Y-125790474D01*
X161035751Y-125739717D02*
X160749875Y-125689310D01*
X160594336Y-125735575D01*
X160510265Y-125794442D01*
X160329521Y-125983645D01*
X160207645Y-126256919D01*
X160106830Y-126828670D01*
X160153095Y-126984209D01*
X160211962Y-127068280D01*
X160342298Y-127164953D01*
X160628173Y-127215361D01*
X160783713Y-127169095D01*
X160867784Y-127110228D01*
X160964456Y-126979893D01*
X161027466Y-126622548D01*
X160981201Y-126467008D01*
X160922334Y-126382938D01*
X160791998Y-126286265D01*
X160506122Y-126235857D01*
X160350583Y-126282122D01*
X160266512Y-126340989D01*
X160169839Y-126471325D01*
%TO.C,SW17*%
X185282247Y-67009263D02*
X185484052Y-67118538D01*
X185841396Y-67181547D01*
X185996936Y-67135282D01*
X186081007Y-67076415D01*
X186177680Y-66946079D01*
X186202883Y-66803141D01*
X186156618Y-66647602D01*
X186097751Y-66563531D01*
X185967415Y-66466858D01*
X185694142Y-66344982D01*
X185563806Y-66248309D01*
X185504939Y-66164238D01*
X185458674Y-66008698D01*
X185483877Y-65865761D01*
X185580550Y-65735425D01*
X185664621Y-65676558D01*
X185820161Y-65630293D01*
X186177505Y-65693302D01*
X186379310Y-65802577D01*
X186892194Y-65819321D02*
X186984899Y-67383178D01*
X187459803Y-66361552D01*
X187556650Y-67483993D01*
X188178634Y-66046155D01*
X189271904Y-67786438D02*
X188414277Y-67635215D01*
X188843090Y-67710827D02*
X189107730Y-66209980D01*
X188926987Y-66399183D01*
X188758845Y-66516917D01*
X188603305Y-66563182D01*
X190036826Y-66373804D02*
X191037391Y-66550231D01*
X190129531Y-67937661D01*
%TO.C,SW18*%
X181974263Y-85769849D02*
X182176068Y-85879124D01*
X182533412Y-85942133D01*
X182688952Y-85895868D01*
X182773023Y-85837001D01*
X182869696Y-85706665D01*
X182894899Y-85563727D01*
X182848634Y-85408188D01*
X182789767Y-85324117D01*
X182659431Y-85227444D01*
X182386158Y-85105568D01*
X182255822Y-85008895D01*
X182196955Y-84924824D01*
X182150690Y-84769284D01*
X182175893Y-84626347D01*
X182272566Y-84496011D01*
X182356637Y-84437144D01*
X182512177Y-84390879D01*
X182869521Y-84453888D01*
X183071326Y-84563163D01*
X183584210Y-84579907D02*
X183676915Y-86143764D01*
X184151819Y-85122138D01*
X184248666Y-86244579D01*
X184870650Y-84806741D01*
X185963920Y-86547024D02*
X185106293Y-86395801D01*
X185535106Y-86471413D02*
X185799746Y-84970566D01*
X185619003Y-85159769D01*
X185450861Y-85277503D01*
X185295321Y-85323768D01*
X186972769Y-85840620D02*
X186842433Y-85743947D01*
X186783566Y-85659877D01*
X186737301Y-85504337D01*
X186749903Y-85432868D01*
X186846576Y-85302532D01*
X186930647Y-85243665D01*
X187086186Y-85197400D01*
X187372062Y-85247808D01*
X187502398Y-85344480D01*
X187561265Y-85428551D01*
X187607530Y-85584091D01*
X187594928Y-85655560D01*
X187498256Y-85785896D01*
X187414185Y-85844763D01*
X187258645Y-85891028D01*
X186972769Y-85840620D01*
X186817230Y-85886885D01*
X186733159Y-85945752D01*
X186636486Y-86076088D01*
X186586079Y-86361964D01*
X186632344Y-86517503D01*
X186691211Y-86601574D01*
X186821547Y-86698247D01*
X187107422Y-86748655D01*
X187262962Y-86702389D01*
X187347033Y-86643522D01*
X187443705Y-86513187D01*
X187494113Y-86227311D01*
X187447848Y-86071771D01*
X187388981Y-85987700D01*
X187258645Y-85891028D01*
%TO.C,SW19*%
X178666259Y-104530437D02*
X178868064Y-104639712D01*
X179225408Y-104702721D01*
X179380948Y-104656456D01*
X179465019Y-104597589D01*
X179561692Y-104467253D01*
X179586895Y-104324315D01*
X179540630Y-104168776D01*
X179481763Y-104084705D01*
X179351427Y-103988032D01*
X179078154Y-103866156D01*
X178947818Y-103769483D01*
X178888951Y-103685412D01*
X178842686Y-103529872D01*
X178867889Y-103386935D01*
X178964562Y-103256599D01*
X179048633Y-103197732D01*
X179204173Y-103151467D01*
X179561517Y-103214476D01*
X179763322Y-103323751D01*
X180276206Y-103340495D02*
X180368911Y-104904352D01*
X180843815Y-103882726D01*
X180940662Y-105005167D01*
X181562646Y-103567329D01*
X182655916Y-105307612D02*
X181798289Y-105156389D01*
X182227102Y-105232001D02*
X182491742Y-103731154D01*
X182310999Y-103920357D01*
X182142857Y-104038091D01*
X181987317Y-104084356D01*
X183370605Y-105433631D02*
X183656480Y-105484039D01*
X183812020Y-105437774D01*
X183896091Y-105378907D01*
X184076834Y-105189704D01*
X184198711Y-104916430D01*
X184299526Y-104344679D01*
X184253261Y-104189139D01*
X184194394Y-104105068D01*
X184064058Y-104008396D01*
X183778182Y-103957988D01*
X183622643Y-104004253D01*
X183538572Y-104063120D01*
X183441899Y-104193456D01*
X183378890Y-104550801D01*
X183425155Y-104706340D01*
X183484022Y-104790411D01*
X183614358Y-104887084D01*
X183900233Y-104937491D01*
X184055773Y-104891226D01*
X184139844Y-104832359D01*
X184236517Y-104702023D01*
%TO.C,SW20*%
X181359707Y-125987810D02*
X181539471Y-126130467D01*
X181880445Y-126254572D01*
X182041656Y-126236019D01*
X182134671Y-126192645D01*
X182252508Y-126081076D01*
X182302150Y-125944686D01*
X182283597Y-125783476D01*
X182240223Y-125690460D01*
X182128654Y-125572623D01*
X181880695Y-125405145D01*
X181769127Y-125287308D01*
X181725753Y-125194293D01*
X181707200Y-125033082D01*
X181756841Y-124896692D01*
X181874678Y-124785124D01*
X181967694Y-124741750D01*
X182128904Y-124723197D01*
X182469878Y-124847301D01*
X182649642Y-124989959D01*
X183151827Y-125095510D02*
X182971562Y-126651706D01*
X183616655Y-125728067D01*
X183517121Y-126850273D01*
X184379334Y-125542286D01*
X184807056Y-125852422D02*
X184900072Y-125809048D01*
X185061282Y-125790495D01*
X185402256Y-125914599D01*
X185513825Y-126032436D01*
X185557199Y-126125452D01*
X185575752Y-126286662D01*
X185526110Y-126423052D01*
X185383453Y-126602816D01*
X184267264Y-127123303D01*
X185153797Y-127445974D01*
X186561569Y-126336554D02*
X186697958Y-126386196D01*
X186809527Y-126504033D01*
X186852901Y-126597049D01*
X186871454Y-126758259D01*
X186840365Y-127055859D01*
X186716261Y-127396834D01*
X186548783Y-127644792D01*
X186430946Y-127756361D01*
X186337930Y-127799735D01*
X186176720Y-127818288D01*
X186040330Y-127768646D01*
X185928761Y-127650809D01*
X185885387Y-127557794D01*
X185866834Y-127396583D01*
X185897923Y-127098983D01*
X186022027Y-126758009D01*
X186189506Y-126510050D01*
X186307342Y-126398481D01*
X186400358Y-126355108D01*
X186561569Y-126336554D01*
%TO.C,SW22*%
X200734846Y-89077845D02*
X200936651Y-89187120D01*
X201293995Y-89250129D01*
X201449535Y-89203864D01*
X201533606Y-89144997D01*
X201630279Y-89014661D01*
X201655482Y-88871723D01*
X201609217Y-88716184D01*
X201550350Y-88632113D01*
X201420014Y-88535440D01*
X201146741Y-88413564D01*
X201016405Y-88316891D01*
X200957538Y-88232820D01*
X200911273Y-88077280D01*
X200936476Y-87934343D01*
X201033149Y-87804007D01*
X201117220Y-87745140D01*
X201272760Y-87698875D01*
X201630104Y-87761884D01*
X201831909Y-87871159D01*
X202344793Y-87887903D02*
X202437498Y-89451760D01*
X202912402Y-88430134D01*
X203009249Y-89552575D01*
X203631233Y-88114737D01*
X204106312Y-88345888D02*
X204190383Y-88287021D01*
X204345922Y-88240756D01*
X204703267Y-88303766D01*
X204833603Y-88400438D01*
X204892470Y-88484509D01*
X204938735Y-88640049D01*
X204913531Y-88782987D01*
X204804257Y-88984791D01*
X203795407Y-89691196D01*
X204724503Y-89855020D01*
X205535690Y-88597926D02*
X205619761Y-88539059D01*
X205775301Y-88492794D01*
X206132645Y-88555804D01*
X206262981Y-88652476D01*
X206321848Y-88736547D01*
X206368113Y-88892087D01*
X206342909Y-89035025D01*
X206233635Y-89236829D01*
X205224785Y-89943234D01*
X206153881Y-90107058D01*
%TO.C,SW23*%
X197426843Y-107838431D02*
X197628648Y-107947706D01*
X197985992Y-108010715D01*
X198141532Y-107964450D01*
X198225603Y-107905583D01*
X198322276Y-107775247D01*
X198347479Y-107632309D01*
X198301214Y-107476770D01*
X198242347Y-107392699D01*
X198112011Y-107296026D01*
X197838738Y-107174150D01*
X197708402Y-107077477D01*
X197649535Y-106993406D01*
X197603270Y-106837866D01*
X197628473Y-106694929D01*
X197725146Y-106564593D01*
X197809217Y-106505726D01*
X197964757Y-106459461D01*
X198322101Y-106522470D01*
X198523906Y-106631745D01*
X199036790Y-106648489D02*
X199129495Y-108212346D01*
X199604399Y-107190720D01*
X199701246Y-108313161D01*
X200323230Y-106875323D01*
X200798309Y-107106474D02*
X200882380Y-107047607D01*
X201037919Y-107001342D01*
X201395264Y-107064352D01*
X201525600Y-107161024D01*
X201584467Y-107245095D01*
X201630732Y-107400635D01*
X201605528Y-107543573D01*
X201496254Y-107745377D01*
X200487404Y-108451782D01*
X201416500Y-108615606D01*
X202181422Y-107202972D02*
X203110518Y-107366797D01*
X202509420Y-107850335D01*
X202723827Y-107888141D01*
X202854163Y-107984814D01*
X202913030Y-108068884D01*
X202959295Y-108224424D01*
X202896285Y-108581769D01*
X202799613Y-108712104D01*
X202715542Y-108770971D01*
X202560002Y-108817237D01*
X202131189Y-108741625D01*
X202000853Y-108644953D01*
X201941986Y-108560882D01*
%TO.C,SW27*%
X265465992Y-107907853D02*
X265693001Y-107941516D01*
X266050345Y-107878507D01*
X266180681Y-107781834D01*
X266239548Y-107697763D01*
X266285813Y-107542224D01*
X266260610Y-107399286D01*
X266163937Y-107268950D01*
X266079866Y-107210083D01*
X265924326Y-107163818D01*
X265625849Y-107142757D01*
X265470309Y-107096492D01*
X265386238Y-107037624D01*
X265289566Y-106907289D01*
X265264362Y-106764351D01*
X265310627Y-106608811D01*
X265369494Y-106524740D01*
X265499830Y-106428068D01*
X265857174Y-106365058D01*
X266084183Y-106398721D01*
X266571863Y-106239039D02*
X267193848Y-107676877D01*
X267290695Y-106554435D01*
X267765599Y-107576061D01*
X267858304Y-106012205D01*
X268383790Y-106066930D02*
X268442657Y-105982859D01*
X268572993Y-105886186D01*
X268930337Y-105823177D01*
X269085877Y-105869442D01*
X269169948Y-105928309D01*
X269266621Y-106058645D01*
X269291824Y-106201582D01*
X269258161Y-106428591D01*
X268551757Y-107437441D01*
X269480853Y-107273616D01*
X269716495Y-105684556D02*
X270717060Y-105508129D01*
X270338480Y-107122393D01*
%TO.C,SW28*%
X260753572Y-141860117D02*
X260943683Y-141731572D01*
X261164576Y-141443698D01*
X261195359Y-141284369D01*
X261181963Y-141182616D01*
X261110992Y-141036684D01*
X260995842Y-140948326D01*
X260836514Y-140917544D01*
X260734761Y-140930940D01*
X260588829Y-141001911D01*
X260354539Y-141188031D01*
X260208607Y-141259002D01*
X260106853Y-141272398D01*
X259947525Y-141241616D01*
X259832376Y-141153258D01*
X259761405Y-141007326D01*
X259748009Y-140905573D01*
X259778791Y-140746244D01*
X259999685Y-140458370D01*
X260189795Y-140329825D01*
X260441471Y-139882623D02*
X261871435Y-140522501D01*
X261184528Y-139629522D01*
X262224865Y-140061903D01*
X261236688Y-138846276D01*
X261661088Y-138531610D02*
X261647692Y-138429857D01*
X261678475Y-138270529D01*
X261899368Y-137982655D01*
X262045300Y-137911684D01*
X262147054Y-137898288D01*
X262306382Y-137929070D01*
X262421532Y-138017428D01*
X262550077Y-138207538D01*
X262710830Y-139428580D01*
X263285153Y-138680108D01*
X263124400Y-137459066D02*
X262978468Y-137530037D01*
X262876715Y-137543433D01*
X262717386Y-137512651D01*
X262659811Y-137468472D01*
X262588841Y-137322540D01*
X262575444Y-137220786D01*
X262606227Y-137061458D01*
X262782942Y-136831159D01*
X262928874Y-136760188D01*
X263030627Y-136746792D01*
X263189956Y-136777575D01*
X263247530Y-136821753D01*
X263318501Y-136967685D01*
X263331897Y-137069439D01*
X263301115Y-137228767D01*
X263124400Y-137459066D01*
X263093618Y-137618394D01*
X263107014Y-137720148D01*
X263177985Y-137866080D01*
X263408284Y-138042795D01*
X263567612Y-138073577D01*
X263669365Y-138060181D01*
X263815298Y-137989210D01*
X263992012Y-137758911D01*
X264022795Y-137599583D01*
X264009399Y-137497830D01*
X263938428Y-137351897D01*
X263708129Y-137175183D01*
X263548801Y-137144400D01*
X263447047Y-137157796D01*
X263301115Y-137228767D01*
%TO.C,SW29*%
X277610585Y-67078677D02*
X277837594Y-67112340D01*
X278194938Y-67049331D01*
X278325274Y-66952658D01*
X278384141Y-66868587D01*
X278430406Y-66713048D01*
X278405203Y-66570110D01*
X278308530Y-66439774D01*
X278224459Y-66380907D01*
X278068919Y-66334642D01*
X277770442Y-66313581D01*
X277614902Y-66267316D01*
X277530831Y-66208448D01*
X277434159Y-66078113D01*
X277408955Y-65935175D01*
X277455220Y-65779635D01*
X277514087Y-65695564D01*
X277644423Y-65598892D01*
X278001767Y-65535882D01*
X278228776Y-65569545D01*
X278716456Y-65409863D02*
X279338441Y-66847701D01*
X279435288Y-65725259D01*
X279910192Y-66746885D01*
X280002897Y-65183029D01*
X280528383Y-65237754D02*
X280587250Y-65153683D01*
X280717586Y-65057010D01*
X281074930Y-64994001D01*
X281230470Y-65040266D01*
X281314541Y-65099133D01*
X281411214Y-65229469D01*
X281436417Y-65372406D01*
X281402754Y-65599415D01*
X280696350Y-66608265D01*
X281625446Y-66444440D01*
X282340135Y-66318421D02*
X282626010Y-66268013D01*
X282756346Y-66171341D01*
X282815213Y-66087270D01*
X282920346Y-65847659D01*
X282941407Y-65549182D01*
X282840592Y-64977431D01*
X282743919Y-64847095D01*
X282659848Y-64788228D01*
X282504308Y-64741963D01*
X282218433Y-64792370D01*
X282088097Y-64889043D01*
X282029230Y-64973114D01*
X281982965Y-65128653D01*
X282045974Y-65485998D01*
X282142647Y-65616334D01*
X282226718Y-65675201D01*
X282382258Y-65721466D01*
X282668133Y-65671058D01*
X282798469Y-65574386D01*
X282857336Y-65490315D01*
X282903601Y-65334775D01*
%TO.C,SW30*%
X280918576Y-85839260D02*
X281145585Y-85872923D01*
X281502929Y-85809914D01*
X281633265Y-85713241D01*
X281692132Y-85629170D01*
X281738397Y-85473631D01*
X281713194Y-85330693D01*
X281616521Y-85200357D01*
X281532450Y-85141490D01*
X281376910Y-85095225D01*
X281078433Y-85074164D01*
X280922893Y-85027899D01*
X280838822Y-84969031D01*
X280742150Y-84838696D01*
X280716946Y-84695758D01*
X280763211Y-84540218D01*
X280822078Y-84456147D01*
X280952414Y-84359475D01*
X281309758Y-84296465D01*
X281536767Y-84330128D01*
X282024447Y-84170446D02*
X282646432Y-85608284D01*
X282743279Y-84485842D01*
X283218183Y-85507468D01*
X283310888Y-83943612D01*
X283739701Y-83868001D02*
X284668797Y-83704176D01*
X284269330Y-84364140D01*
X284483737Y-84326335D01*
X284639276Y-84372600D01*
X284723347Y-84431467D01*
X284820020Y-84561803D01*
X284883029Y-84919147D01*
X284836764Y-85074687D01*
X284777897Y-85158758D01*
X284647561Y-85255431D01*
X284218748Y-85331042D01*
X284063208Y-85284777D01*
X283979137Y-85225910D01*
X285597893Y-83540351D02*
X285740831Y-83515148D01*
X285896370Y-83561413D01*
X285980441Y-83620280D01*
X286077114Y-83750616D01*
X286198990Y-84023889D01*
X286262000Y-84381234D01*
X286240938Y-84679711D01*
X286194673Y-84835251D01*
X286135806Y-84919322D01*
X286005470Y-85015995D01*
X285862533Y-85041198D01*
X285706993Y-84994933D01*
X285622922Y-84936066D01*
X285526249Y-84805730D01*
X285404373Y-84532457D01*
X285341363Y-84175112D01*
X285362425Y-83876635D01*
X285408690Y-83721095D01*
X285467557Y-83637024D01*
X285597893Y-83540351D01*
%TO.C,SW31*%
X284226574Y-104599851D02*
X284453583Y-104633514D01*
X284810927Y-104570505D01*
X284941263Y-104473832D01*
X285000130Y-104389761D01*
X285046395Y-104234222D01*
X285021192Y-104091284D01*
X284924519Y-103960948D01*
X284840448Y-103902081D01*
X284684908Y-103855816D01*
X284386431Y-103834755D01*
X284230891Y-103788490D01*
X284146820Y-103729622D01*
X284050148Y-103599287D01*
X284024944Y-103456349D01*
X284071209Y-103300809D01*
X284130076Y-103216738D01*
X284260412Y-103120066D01*
X284617756Y-103057056D01*
X284844765Y-103090719D01*
X285332445Y-102931037D02*
X285954430Y-104368875D01*
X286051277Y-103246433D01*
X286526181Y-104268059D01*
X286618886Y-102704203D01*
X287047699Y-102628592D02*
X287976795Y-102464767D01*
X287577328Y-103124731D01*
X287791735Y-103086926D01*
X287947274Y-103133191D01*
X288031345Y-103192058D01*
X288128018Y-103322394D01*
X288191027Y-103679738D01*
X288144762Y-103835278D01*
X288085895Y-103919349D01*
X287955559Y-104016022D01*
X287526746Y-104091633D01*
X287371206Y-104045368D01*
X287287135Y-103986501D01*
X289670813Y-103713576D02*
X288813186Y-103864799D01*
X289241999Y-103789187D02*
X288977360Y-102288340D01*
X288872228Y-102527951D01*
X288754494Y-102696093D01*
X288624158Y-102792765D01*
%TO.C,SW32*%
X281263028Y-126197200D02*
X281492434Y-126190933D01*
X281833408Y-126066828D01*
X281944977Y-125948992D01*
X281988351Y-125855976D01*
X282006904Y-125694765D01*
X281957262Y-125558376D01*
X281839425Y-125446807D01*
X281746410Y-125403433D01*
X281585199Y-125384880D01*
X281287599Y-125415969D01*
X281126388Y-125397415D01*
X281033372Y-125354042D01*
X280915536Y-125242473D01*
X280865894Y-125106083D01*
X280884447Y-124944873D01*
X280927821Y-124851857D01*
X281039390Y-124734020D01*
X281380364Y-124609916D01*
X281609769Y-124603648D01*
X282062312Y-124361707D02*
X282924525Y-125669694D01*
X282824991Y-124547488D01*
X283470084Y-125471127D01*
X283289819Y-123914931D01*
X283698988Y-123766005D02*
X284585521Y-123443334D01*
X284306725Y-124162639D01*
X284511309Y-124088176D01*
X284672520Y-124106729D01*
X284765535Y-124150103D01*
X284883372Y-124261672D01*
X285007476Y-124602646D01*
X284988923Y-124763857D01*
X284945549Y-124856872D01*
X284833981Y-124974709D01*
X284424812Y-125123634D01*
X284263601Y-125105081D01*
X284170585Y-125061707D01*
X285180722Y-123381156D02*
X285224096Y-123288141D01*
X285335665Y-123170304D01*
X285676639Y-123046200D01*
X285837849Y-123064753D01*
X285930865Y-123108127D01*
X286048702Y-123219695D01*
X286098343Y-123356085D01*
X286104611Y-123585490D01*
X285584124Y-124701679D01*
X286470657Y-124379008D01*
%TO.C,SW33*%
X295268506Y-57517149D02*
X295495515Y-57550812D01*
X295852859Y-57487803D01*
X295983195Y-57391130D01*
X296042062Y-57307059D01*
X296088327Y-57151520D01*
X296063124Y-57008582D01*
X295966451Y-56878246D01*
X295882380Y-56819379D01*
X295726840Y-56773114D01*
X295428363Y-56752053D01*
X295272823Y-56705788D01*
X295188752Y-56646920D01*
X295092080Y-56516585D01*
X295066876Y-56373647D01*
X295113141Y-56218107D01*
X295172008Y-56134036D01*
X295302344Y-56037364D01*
X295659688Y-55974354D01*
X295886697Y-56008017D01*
X296374377Y-55848335D02*
X296996362Y-57286173D01*
X297093209Y-56163731D01*
X297568113Y-57185357D01*
X297660818Y-55621501D01*
X298089631Y-55545890D02*
X299018727Y-55382065D01*
X298619260Y-56042029D01*
X298833667Y-56004224D01*
X298989206Y-56050489D01*
X299073277Y-56109356D01*
X299169950Y-56239692D01*
X299232959Y-56597036D01*
X299186694Y-56752576D01*
X299127827Y-56836647D01*
X298997491Y-56933320D01*
X298568678Y-57008931D01*
X298413138Y-56962666D01*
X298329067Y-56903799D01*
X299519009Y-55293852D02*
X300448105Y-55130027D01*
X300048638Y-55789992D01*
X300263045Y-55752186D01*
X300418584Y-55798451D01*
X300502655Y-55857318D01*
X300599328Y-55987654D01*
X300662337Y-56344998D01*
X300616072Y-56500538D01*
X300557205Y-56584609D01*
X300426869Y-56681282D01*
X299998056Y-56756893D01*
X299842516Y-56710628D01*
X299758445Y-56651761D01*
%TO.C,SW34*%
X298576505Y-76277733D02*
X298803514Y-76311396D01*
X299160858Y-76248387D01*
X299291194Y-76151714D01*
X299350061Y-76067643D01*
X299396326Y-75912104D01*
X299371123Y-75769166D01*
X299274450Y-75638830D01*
X299190379Y-75579963D01*
X299034839Y-75533698D01*
X298736362Y-75512637D01*
X298580822Y-75466372D01*
X298496751Y-75407504D01*
X298400079Y-75277169D01*
X298374875Y-75134231D01*
X298421140Y-74978691D01*
X298480007Y-74894620D01*
X298610343Y-74797948D01*
X298967687Y-74734938D01*
X299194696Y-74768601D01*
X299682376Y-74608919D02*
X300304361Y-76046757D01*
X300401208Y-74924315D01*
X300876112Y-75945941D01*
X300968817Y-74382085D01*
X301397630Y-74306474D02*
X302326726Y-74142649D01*
X301927259Y-74802613D01*
X302141666Y-74764808D01*
X302297205Y-74811073D01*
X302381276Y-74869940D01*
X302477949Y-75000276D01*
X302540958Y-75357620D01*
X302494693Y-75513160D01*
X302435826Y-75597231D01*
X302305490Y-75693904D01*
X301876677Y-75769515D01*
X301721137Y-75723250D01*
X301637066Y-75664383D01*
X303701380Y-74416097D02*
X303877806Y-75416662D01*
X303243220Y-73907355D02*
X303074904Y-75042398D01*
X304004000Y-74878574D01*
%TO.C,SW35*%
X301884496Y-95038324D02*
X302111505Y-95071987D01*
X302468849Y-95008978D01*
X302599185Y-94912305D01*
X302658052Y-94828234D01*
X302704317Y-94672695D01*
X302679114Y-94529757D01*
X302582441Y-94399421D01*
X302498370Y-94340554D01*
X302342830Y-94294289D01*
X302044353Y-94273228D01*
X301888813Y-94226963D01*
X301804742Y-94168095D01*
X301708070Y-94037760D01*
X301682866Y-93894822D01*
X301729131Y-93739282D01*
X301787998Y-93655211D01*
X301918334Y-93558539D01*
X302275678Y-93495529D01*
X302502687Y-93529192D01*
X302990367Y-93369510D02*
X303612352Y-94807348D01*
X303709199Y-93684906D01*
X304184103Y-94706532D01*
X304276808Y-93142676D01*
X304705621Y-93067065D02*
X305634717Y-92903240D01*
X305235250Y-93563204D01*
X305449657Y-93525399D01*
X305605196Y-93571664D01*
X305689267Y-93630531D01*
X305785940Y-93760867D01*
X305848949Y-94118211D01*
X305802684Y-94273751D01*
X305743817Y-94357822D01*
X305613481Y-94454495D01*
X305184668Y-94530106D01*
X305029128Y-94483841D01*
X304945057Y-94424974D01*
X306992626Y-92663804D02*
X306277937Y-92789823D01*
X306332487Y-93517114D01*
X306391354Y-93433043D01*
X306521690Y-93336370D01*
X306879035Y-93273361D01*
X307034574Y-93319626D01*
X307118645Y-93378493D01*
X307215318Y-93508829D01*
X307278327Y-93866173D01*
X307232062Y-94021713D01*
X307173195Y-94105784D01*
X307042859Y-94202457D01*
X306685515Y-94265466D01*
X306529975Y-94219201D01*
X306445904Y-94160334D01*
%TO.C,SW36*%
X307397835Y-126305967D02*
X307624844Y-126339630D01*
X307982188Y-126276621D01*
X308112524Y-126179948D01*
X308171391Y-126095877D01*
X308217656Y-125940338D01*
X308192453Y-125797400D01*
X308095780Y-125667064D01*
X308011709Y-125608197D01*
X307856169Y-125561932D01*
X307557692Y-125540871D01*
X307402152Y-125494606D01*
X307318081Y-125435738D01*
X307221409Y-125305403D01*
X307196205Y-125162465D01*
X307242470Y-125006925D01*
X307301337Y-124922854D01*
X307431673Y-124826182D01*
X307789017Y-124763172D01*
X308016026Y-124796835D01*
X308503706Y-124637153D02*
X309125691Y-126074991D01*
X309222538Y-124952549D01*
X309697442Y-125974175D01*
X309790147Y-124410319D01*
X310218960Y-124334708D02*
X311148056Y-124170883D01*
X310748589Y-124830847D01*
X310962996Y-124793042D01*
X311118535Y-124839307D01*
X311202606Y-124898174D01*
X311299279Y-125028510D01*
X311362288Y-125385854D01*
X311316023Y-125541394D01*
X311257156Y-125625465D01*
X311126820Y-125722138D01*
X310698007Y-125797749D01*
X310542467Y-125751484D01*
X310458396Y-125692617D01*
X312434496Y-123944049D02*
X312148621Y-123994456D01*
X312018285Y-124091129D01*
X311959418Y-124175200D01*
X311854286Y-124414810D01*
X311833224Y-124713288D01*
X311934039Y-125285039D01*
X312030712Y-125415375D01*
X312114783Y-125474242D01*
X312270323Y-125520507D01*
X312556198Y-125470100D01*
X312686534Y-125373427D01*
X312745401Y-125289356D01*
X312791666Y-125133816D01*
X312728657Y-124776472D01*
X312631984Y-124646136D01*
X312547913Y-124587269D01*
X312392374Y-124541004D01*
X312106498Y-124591411D01*
X311976162Y-124688084D01*
X311917295Y-124772155D01*
X311871030Y-124927695D01*
%TO.C,SW37*%
X315131759Y-60462678D02*
X315358768Y-60496341D01*
X315716112Y-60433332D01*
X315846448Y-60336659D01*
X315905315Y-60252588D01*
X315951580Y-60097049D01*
X315926377Y-59954111D01*
X315829704Y-59823775D01*
X315745633Y-59764908D01*
X315590093Y-59718643D01*
X315291616Y-59697582D01*
X315136076Y-59651317D01*
X315052005Y-59592449D01*
X314955333Y-59462114D01*
X314930129Y-59319176D01*
X314976394Y-59163636D01*
X315035261Y-59079565D01*
X315165597Y-58982893D01*
X315522941Y-58919883D01*
X315749950Y-58953546D01*
X316237630Y-58793864D02*
X316859615Y-60231702D01*
X316956462Y-59109260D01*
X317431366Y-60130886D01*
X317524071Y-58567030D01*
X317952884Y-58491419D02*
X318881980Y-58327594D01*
X318482513Y-58987558D01*
X318696920Y-58949753D01*
X318852459Y-58996018D01*
X318936530Y-59054885D01*
X319033203Y-59185221D01*
X319096212Y-59542565D01*
X319049947Y-59698105D01*
X318991080Y-59782176D01*
X318860744Y-59878849D01*
X318431931Y-59954460D01*
X318276391Y-59908195D01*
X318192320Y-59849328D01*
X319382262Y-58239381D02*
X320382827Y-58062954D01*
X320004247Y-59677218D01*
%TO.C,SW38*%
X318439758Y-79223268D02*
X318666767Y-79256931D01*
X319024111Y-79193922D01*
X319154447Y-79097249D01*
X319213314Y-79013178D01*
X319259579Y-78857639D01*
X319234376Y-78714701D01*
X319137703Y-78584365D01*
X319053632Y-78525498D01*
X318898092Y-78479233D01*
X318599615Y-78458172D01*
X318444075Y-78411907D01*
X318360004Y-78353039D01*
X318263332Y-78222704D01*
X318238128Y-78079766D01*
X318284393Y-77924226D01*
X318343260Y-77840155D01*
X318473596Y-77743483D01*
X318830940Y-77680473D01*
X319057949Y-77714136D01*
X319545629Y-77554454D02*
X320167614Y-78992292D01*
X320264461Y-77869850D01*
X320739365Y-78891476D01*
X320832070Y-77327620D01*
X321260883Y-77252009D02*
X322189979Y-77088184D01*
X321790512Y-77748148D01*
X322004919Y-77710343D01*
X322160458Y-77756608D01*
X322244529Y-77815475D01*
X322341202Y-77945811D01*
X322404211Y-78303155D01*
X322357946Y-78458695D01*
X322299079Y-78542766D01*
X322168743Y-78639439D01*
X321739930Y-78715050D01*
X321584390Y-78668785D01*
X321500319Y-78609918D01*
X323161023Y-77580181D02*
X323005483Y-77533916D01*
X322921412Y-77475049D01*
X322824740Y-77344713D01*
X322812138Y-77273244D01*
X322858403Y-77117705D01*
X322917270Y-77033634D01*
X323047606Y-76936961D01*
X323333481Y-76886554D01*
X323489021Y-76932819D01*
X323573092Y-76991686D01*
X323669765Y-77122022D01*
X323682367Y-77193491D01*
X323636101Y-77349030D01*
X323577234Y-77433101D01*
X323446899Y-77529774D01*
X323161023Y-77580181D01*
X323030687Y-77676854D01*
X322971820Y-77760925D01*
X322925555Y-77916465D01*
X322975962Y-78202340D01*
X323072635Y-78332676D01*
X323156706Y-78391543D01*
X323312246Y-78437808D01*
X323598121Y-78387401D01*
X323728457Y-78290728D01*
X323787324Y-78206657D01*
X323833589Y-78051117D01*
X323783182Y-77765242D01*
X323686509Y-77634906D01*
X323602438Y-77576039D01*
X323446899Y-77529774D01*
%TO.C,SW39*%
X321747753Y-97983855D02*
X321974762Y-98017518D01*
X322332106Y-97954509D01*
X322462442Y-97857836D01*
X322521309Y-97773765D01*
X322567574Y-97618226D01*
X322542371Y-97475288D01*
X322445698Y-97344952D01*
X322361627Y-97286085D01*
X322206087Y-97239820D01*
X321907610Y-97218759D01*
X321752070Y-97172494D01*
X321667999Y-97113626D01*
X321571327Y-96983291D01*
X321546123Y-96840353D01*
X321592388Y-96684813D01*
X321651255Y-96600742D01*
X321781591Y-96504070D01*
X322138935Y-96441060D01*
X322365944Y-96474723D01*
X322853624Y-96315041D02*
X323475609Y-97752879D01*
X323572456Y-96630437D01*
X324047360Y-97652063D01*
X324140065Y-96088207D01*
X324568878Y-96012596D02*
X325497974Y-95848771D01*
X325098507Y-96508735D01*
X325312914Y-96470930D01*
X325468453Y-96517195D01*
X325552524Y-96576062D01*
X325649197Y-96706398D01*
X325712206Y-97063742D01*
X325665941Y-97219282D01*
X325607074Y-97303353D01*
X325476738Y-97400026D01*
X325047925Y-97475637D01*
X324892385Y-97429372D01*
X324808314Y-97370505D01*
X326477303Y-97223599D02*
X326763178Y-97173191D01*
X326893514Y-97076519D01*
X326952381Y-96992448D01*
X327057514Y-96752837D01*
X327078575Y-96454360D01*
X326977760Y-95882609D01*
X326881087Y-95752273D01*
X326797016Y-95693406D01*
X326641476Y-95647141D01*
X326355601Y-95697548D01*
X326225265Y-95794221D01*
X326166398Y-95878292D01*
X326120133Y-96033831D01*
X326183142Y-96391176D01*
X326279815Y-96521512D01*
X326363886Y-96580379D01*
X326519426Y-96626644D01*
X326805301Y-96576236D01*
X326935637Y-96479564D01*
X326994504Y-96395493D01*
X327040769Y-96239953D01*
%TO.C,SW40*%
X326158416Y-122997974D02*
X326385425Y-123031637D01*
X326742769Y-122968628D01*
X326873105Y-122871955D01*
X326931972Y-122787884D01*
X326978237Y-122632345D01*
X326953034Y-122489407D01*
X326856361Y-122359071D01*
X326772290Y-122300204D01*
X326616750Y-122253939D01*
X326318273Y-122232878D01*
X326162733Y-122186613D01*
X326078662Y-122127745D01*
X325981990Y-121997410D01*
X325956786Y-121854472D01*
X326003051Y-121698932D01*
X326061918Y-121614861D01*
X326192254Y-121518189D01*
X326549598Y-121455179D01*
X326776607Y-121488842D01*
X327264287Y-121329160D02*
X327886272Y-122766998D01*
X327983119Y-121644556D01*
X328458023Y-122666182D01*
X328550728Y-121102326D01*
X329853912Y-121388376D02*
X330030339Y-122388941D01*
X329395753Y-120879634D02*
X329227437Y-122014677D01*
X330156532Y-121850853D01*
X330837733Y-120699065D02*
X330980671Y-120673862D01*
X331136210Y-120720127D01*
X331220281Y-120778994D01*
X331316954Y-120909330D01*
X331438830Y-121182603D01*
X331501840Y-121539948D01*
X331480778Y-121838425D01*
X331434513Y-121993965D01*
X331375646Y-122078036D01*
X331245310Y-122174709D01*
X331102373Y-122199912D01*
X330946833Y-122153647D01*
X330862762Y-122094780D01*
X330766089Y-121964444D01*
X330644213Y-121691171D01*
X330581203Y-121333826D01*
X330602265Y-121035349D01*
X330648530Y-120879809D01*
X330707397Y-120795738D01*
X330837733Y-120699065D01*
%TO.C,SW41*%
X334995011Y-63408211D02*
X335222020Y-63441874D01*
X335579364Y-63378865D01*
X335709700Y-63282192D01*
X335768567Y-63198121D01*
X335814832Y-63042582D01*
X335789629Y-62899644D01*
X335692956Y-62769308D01*
X335608885Y-62710441D01*
X335453345Y-62664176D01*
X335154868Y-62643115D01*
X334999328Y-62596850D01*
X334915257Y-62537982D01*
X334818585Y-62407647D01*
X334793381Y-62264709D01*
X334839646Y-62109169D01*
X334898513Y-62025098D01*
X335028849Y-61928426D01*
X335386193Y-61865416D01*
X335613202Y-61899079D01*
X336100882Y-61739397D02*
X336722867Y-63177235D01*
X336819714Y-62054793D01*
X337294618Y-63076419D01*
X337387323Y-61512563D01*
X338690507Y-61798613D02*
X338866934Y-62799178D01*
X338232348Y-61289871D02*
X338064032Y-62424914D01*
X338993127Y-62261090D01*
X340439250Y-62521936D02*
X339581623Y-62673159D01*
X340010436Y-62597547D02*
X339745797Y-61096700D01*
X339640665Y-61336311D01*
X339522931Y-61504453D01*
X339392595Y-61601125D01*
%TO.C,SW42*%
X338303011Y-82168799D02*
X338530020Y-82202462D01*
X338887364Y-82139453D01*
X339017700Y-82042780D01*
X339076567Y-81958709D01*
X339122832Y-81803170D01*
X339097629Y-81660232D01*
X339000956Y-81529896D01*
X338916885Y-81471029D01*
X338761345Y-81424764D01*
X338462868Y-81403703D01*
X338307328Y-81357438D01*
X338223257Y-81298570D01*
X338126585Y-81168235D01*
X338101381Y-81025297D01*
X338147646Y-80869757D01*
X338206513Y-80785686D01*
X338336849Y-80689014D01*
X338694193Y-80626004D01*
X338921202Y-80659667D01*
X339408882Y-80499985D02*
X340030867Y-81937823D01*
X340127714Y-80815381D01*
X340602618Y-81837007D01*
X340695323Y-80273151D01*
X341998507Y-80559201D02*
X342174934Y-81559766D01*
X341540348Y-80050459D02*
X341372032Y-81185502D01*
X342301127Y-81021678D01*
X342650187Y-80075838D02*
X342709054Y-79991767D01*
X342839390Y-79895094D01*
X343196734Y-79832085D01*
X343352274Y-79878350D01*
X343436345Y-79937217D01*
X343533018Y-80067553D01*
X343558221Y-80210490D01*
X343524558Y-80437499D01*
X342818154Y-81446349D01*
X343747250Y-81282524D01*
%TO.C,SW43*%
X341611005Y-100929388D02*
X341838014Y-100963051D01*
X342195358Y-100900042D01*
X342325694Y-100803369D01*
X342384561Y-100719298D01*
X342430826Y-100563759D01*
X342405623Y-100420821D01*
X342308950Y-100290485D01*
X342224879Y-100231618D01*
X342069339Y-100185353D01*
X341770862Y-100164292D01*
X341615322Y-100118027D01*
X341531251Y-100059159D01*
X341434579Y-99928824D01*
X341409375Y-99785886D01*
X341455640Y-99630346D01*
X341514507Y-99546275D01*
X341644843Y-99449603D01*
X342002187Y-99386593D01*
X342229196Y-99420256D01*
X342716876Y-99260574D02*
X343338861Y-100698412D01*
X343435708Y-99575970D01*
X343910612Y-100597596D01*
X344003317Y-99033740D01*
X345306501Y-99319790D02*
X345482928Y-100320355D01*
X344848342Y-98811048D02*
X344680026Y-99946091D01*
X345609121Y-99782267D01*
X345861508Y-98706091D02*
X346790604Y-98542266D01*
X346391137Y-99202231D01*
X346605544Y-99164425D01*
X346761083Y-99210690D01*
X346845154Y-99269557D01*
X346941827Y-99399893D01*
X347004836Y-99757237D01*
X346958571Y-99912777D01*
X346899704Y-99996848D01*
X346769368Y-100093521D01*
X346340555Y-100169132D01*
X346185015Y-100122867D01*
X346100944Y-100064000D01*
%TO.C,SW44*%
X344919002Y-119689977D02*
X345146011Y-119723640D01*
X345503355Y-119660631D01*
X345633691Y-119563958D01*
X345692558Y-119479887D01*
X345738823Y-119324348D01*
X345713620Y-119181410D01*
X345616947Y-119051074D01*
X345532876Y-118992207D01*
X345377336Y-118945942D01*
X345078859Y-118924881D01*
X344923319Y-118878616D01*
X344839248Y-118819748D01*
X344742576Y-118689413D01*
X344717372Y-118546475D01*
X344763637Y-118390935D01*
X344822504Y-118306864D01*
X344952840Y-118210192D01*
X345310184Y-118147182D01*
X345537193Y-118180845D01*
X346024873Y-118021163D02*
X346646858Y-119459001D01*
X346743705Y-118336559D01*
X347218609Y-119358185D01*
X347311314Y-117794329D01*
X348614498Y-118080379D02*
X348790925Y-119080944D01*
X348156339Y-117571637D02*
X347988023Y-118706680D01*
X348917118Y-118542856D01*
X350043877Y-117828341D02*
X350220303Y-118828906D01*
X349585717Y-117319599D02*
X349417401Y-118454642D01*
X350346497Y-118290818D01*
%TO.C,SW47*%
X363679592Y-116381979D02*
X363906601Y-116415642D01*
X364263945Y-116352633D01*
X364394281Y-116255960D01*
X364453148Y-116171889D01*
X364499413Y-116016350D01*
X364474210Y-115873412D01*
X364377537Y-115743076D01*
X364293466Y-115684209D01*
X364137926Y-115637944D01*
X363839449Y-115616883D01*
X363683909Y-115570618D01*
X363599838Y-115511750D01*
X363503166Y-115381415D01*
X363477962Y-115238477D01*
X363524227Y-115082937D01*
X363583094Y-114998866D01*
X363713430Y-114902194D01*
X364070774Y-114839184D01*
X364297783Y-114872847D01*
X364785463Y-114713165D02*
X365407448Y-116151003D01*
X365504295Y-115028561D01*
X365979199Y-116050187D01*
X366071904Y-114486331D01*
X367375088Y-114772381D02*
X367551515Y-115772946D01*
X366916929Y-114263639D02*
X366748613Y-115398682D01*
X367677708Y-115234858D01*
X367930095Y-114158682D02*
X368930660Y-113982255D01*
X368552080Y-115596519D01*
%TO.C,SW48*%
X360362629Y-97570545D02*
X360589638Y-97604208D01*
X360946982Y-97541199D01*
X361077318Y-97444526D01*
X361136185Y-97360455D01*
X361182450Y-97204916D01*
X361157247Y-97061978D01*
X361060574Y-96931642D01*
X360976503Y-96872775D01*
X360820963Y-96826510D01*
X360522486Y-96805449D01*
X360366946Y-96759184D01*
X360282875Y-96700316D01*
X360186203Y-96569981D01*
X360160999Y-96427043D01*
X360207264Y-96271503D01*
X360266131Y-96187432D01*
X360396467Y-96090760D01*
X360753811Y-96027750D01*
X360980820Y-96061413D01*
X361468500Y-95901731D02*
X362090485Y-97339569D01*
X362187332Y-96217127D01*
X362662236Y-97238753D01*
X362754941Y-95674897D01*
X364058125Y-95960947D02*
X364234552Y-96961512D01*
X363599966Y-95452205D02*
X363431650Y-96587248D01*
X364360745Y-96423424D01*
X365083894Y-95927458D02*
X364928354Y-95881193D01*
X364844283Y-95822326D01*
X364747611Y-95691990D01*
X364735009Y-95620521D01*
X364781274Y-95464982D01*
X364840141Y-95380911D01*
X364970477Y-95284238D01*
X365256352Y-95233831D01*
X365411892Y-95280096D01*
X365495963Y-95338963D01*
X365592636Y-95469299D01*
X365605238Y-95540768D01*
X365558972Y-95696307D01*
X365500105Y-95780378D01*
X365369770Y-95877051D01*
X365083894Y-95927458D01*
X364953558Y-96024131D01*
X364894691Y-96108202D01*
X364848426Y-96263742D01*
X364898833Y-96549617D01*
X364995506Y-96679953D01*
X365079577Y-96738820D01*
X365235117Y-96785085D01*
X365520992Y-96734678D01*
X365651328Y-96638005D01*
X365710195Y-96553934D01*
X365756460Y-96398394D01*
X365706053Y-96112519D01*
X365609380Y-95982183D01*
X365525309Y-95923316D01*
X365369770Y-95877051D01*
%TO.C,SW49*%
X357063595Y-78860806D02*
X357290604Y-78894469D01*
X357647948Y-78831460D01*
X357778284Y-78734787D01*
X357837151Y-78650716D01*
X357883416Y-78495177D01*
X357858213Y-78352239D01*
X357761540Y-78221903D01*
X357677469Y-78163036D01*
X357521929Y-78116771D01*
X357223452Y-78095710D01*
X357067912Y-78049445D01*
X356983841Y-77990577D01*
X356887169Y-77860242D01*
X356861965Y-77717304D01*
X356908230Y-77561764D01*
X356967097Y-77477693D01*
X357097433Y-77381021D01*
X357454777Y-77318011D01*
X357681786Y-77351674D01*
X358169466Y-77191992D02*
X358791451Y-78629830D01*
X358888298Y-77507388D01*
X359363202Y-78529014D01*
X359455907Y-76965158D01*
X360759091Y-77251208D02*
X360935518Y-78251773D01*
X360300932Y-76742466D02*
X360132616Y-77877509D01*
X361061711Y-77713685D01*
X361793145Y-78100550D02*
X362079020Y-78050142D01*
X362209356Y-77953470D01*
X362268223Y-77869399D01*
X362373356Y-77629788D01*
X362394417Y-77331311D01*
X362293602Y-76759560D01*
X362196929Y-76629224D01*
X362112858Y-76570357D01*
X361957318Y-76524092D01*
X361671443Y-76574499D01*
X361541107Y-76671172D01*
X361482240Y-76755243D01*
X361435975Y-76910782D01*
X361498984Y-77268127D01*
X361595657Y-77398463D01*
X361679728Y-77457330D01*
X361835268Y-77503595D01*
X362121143Y-77453187D01*
X362251479Y-77356515D01*
X362310346Y-77272444D01*
X362356611Y-77116904D01*
%TO.C,SW50*%
X353755604Y-60100216D02*
X353982613Y-60133879D01*
X354339957Y-60070870D01*
X354470293Y-59974197D01*
X354529160Y-59890126D01*
X354575425Y-59734587D01*
X354550222Y-59591649D01*
X354453549Y-59461313D01*
X354369478Y-59402446D01*
X354213938Y-59356181D01*
X353915461Y-59335120D01*
X353759921Y-59288855D01*
X353675850Y-59229987D01*
X353579178Y-59099652D01*
X353553974Y-58956714D01*
X353600239Y-58801174D01*
X353659106Y-58717103D01*
X353789442Y-58620431D01*
X354146786Y-58557421D01*
X354373795Y-58591084D01*
X354861475Y-58431402D02*
X355483460Y-59869240D01*
X355580307Y-58746798D01*
X356055211Y-59768424D01*
X356147916Y-58204568D01*
X357434356Y-57977734D02*
X356719667Y-58103753D01*
X356774217Y-58831044D01*
X356833084Y-58746973D01*
X356963420Y-58650300D01*
X357320765Y-58587291D01*
X357476304Y-58633556D01*
X357560375Y-58692423D01*
X357657048Y-58822759D01*
X357720057Y-59180103D01*
X357673792Y-59335643D01*
X357614925Y-59419714D01*
X357484589Y-59516387D01*
X357127245Y-59579396D01*
X356971705Y-59533131D01*
X356887634Y-59474264D01*
X358434921Y-57801307D02*
X358577859Y-57776104D01*
X358733398Y-57822369D01*
X358817469Y-57881236D01*
X358914142Y-58011572D01*
X359036018Y-58284845D01*
X359099028Y-58642190D01*
X359077966Y-58940667D01*
X359031701Y-59096207D01*
X358972834Y-59180278D01*
X358842498Y-59276951D01*
X358699561Y-59302154D01*
X358544021Y-59255889D01*
X358459950Y-59197022D01*
X358363277Y-59066686D01*
X358241401Y-58793413D01*
X358178391Y-58436068D01*
X358199453Y-58137591D01*
X358245718Y-57982051D01*
X358304585Y-57897980D01*
X358434921Y-57801307D01*
%TO.C,SW25*%
X258849999Y-70386673D02*
X259077008Y-70420336D01*
X259434352Y-70357327D01*
X259564688Y-70260654D01*
X259623555Y-70176583D01*
X259669820Y-70021044D01*
X259644617Y-69878106D01*
X259547944Y-69747770D01*
X259463873Y-69688903D01*
X259308333Y-69642638D01*
X259009856Y-69621577D01*
X258854316Y-69575312D01*
X258770245Y-69516444D01*
X258673573Y-69386109D01*
X258648369Y-69243171D01*
X258694634Y-69087631D01*
X258753501Y-69003560D01*
X258883837Y-68906888D01*
X259241181Y-68843878D01*
X259468190Y-68877541D01*
X259955870Y-68717859D02*
X260577855Y-70155697D01*
X260674702Y-69033255D01*
X261149606Y-70054881D01*
X261242311Y-68491025D01*
X261767797Y-68545750D02*
X261826664Y-68461679D01*
X261957000Y-68365006D01*
X262314344Y-68301997D01*
X262469884Y-68348262D01*
X262553955Y-68407129D01*
X262650628Y-68537465D01*
X262675831Y-68680402D01*
X262642168Y-68907411D01*
X261935764Y-69916261D01*
X262864860Y-69752436D01*
X263958129Y-68012153D02*
X263243440Y-68138172D01*
X263297990Y-68865463D01*
X263356857Y-68781392D01*
X263487193Y-68684719D01*
X263844538Y-68621710D01*
X264000077Y-68667975D01*
X264084148Y-68726842D01*
X264180821Y-68857178D01*
X264243830Y-69214522D01*
X264197565Y-69370062D01*
X264138698Y-69454133D01*
X264008362Y-69550806D01*
X263651018Y-69613815D01*
X263495478Y-69567550D01*
X263411407Y-69508683D01*
%TD*%
M02*
