M48
;DRILL file {KiCad (5.0.1-3-g963ef8bb5)} date Saturday, December 29, 2018 at 10:02:54 AM
;FORMAT={-:-/ absolute / inch / decimal}
FMAT,2
INCH,TZ
T1C0.0236
T2C0.0354
T3C0.0394
T4C0.0591
T5C0.1102
T6C0.1260
%
G90
G05
M72
T1
X5.68Y-5.5582
X5.7005Y-5.4419
X6.2508Y-4.5854
X6.4327Y-5.7109
X6.4566Y-5.5752
X6.6813Y-5.7747
X6.7086Y-5.6196
X7.5894Y-5.0776
X7.7975Y-5.112
X8.2587Y-3.5618
X8.2772Y-3.4632
X8.3177Y-4.5854
X8.3177Y-4.7626
X8.3768Y-4.5854
X8.3768Y-4.7626
X8.4358Y-4.9595
X8.4358Y-4.5854
X8.4358Y-4.7626
X8.4949Y-4.7626
X8.4949Y-4.5854
X8.4949Y-4.9595
X8.5343Y-5.2941
X8.5343Y-5.7075
X8.6002Y-4.4673
X9.8532Y-4.6839
X9.8925Y-5.2154
X9.8925Y-5.0579
X9.9319Y-4.6839
X9.9516Y-5.0579
X9.9516Y-5.2154
X10.2554Y-4.9479
X10.3717Y-4.9274
X10.7193Y-5.0776
X11.8721Y-5.5442
X11.9029Y-5.7187
X12.0834Y-4.5456
X12.097Y-4.6232
X12.6122Y-5.4337
X12.6361Y-5.5694
X13.3488Y-5.3038
X13.3694Y-5.4201
X8.1991Y-3.5545
X13.1354Y-4.7858
X7.4605Y-3.4243
X6.6351Y-3.7865
X4.3324Y-3.8882
X11.9193Y-2.2078
X12.9618Y-3.801
X12.7013Y-2.3238
X11.2241Y-2.5843
X9.4146Y-2.8335
X14.6126Y-4.5254
X5.9833Y-3.1638
X8.3293Y-2.8159
X8.0689Y-4.2932
X13.4833Y-2.4398
X7.3303Y-4.1629
X6.418Y-5.0175
X5.6794Y-4.8873
X12.0495Y-2.9465
X5.3315Y-2.5412
X11.4846Y-4.0615
X4.5929Y-2.411
X10.6157Y-3.4531
X4.4627Y-3.1496
X6.7653Y-3.0479
X12.8316Y-3.0624
X10.746Y-4.1917
X6.1135Y-2.4252
X12.3968Y-4.9161
X13.7438Y-3.917
X7.4235Y-5.0584
X7.5907Y-2.6857
X6.8955Y-2.3093
X8.168Y-5.8057
X14.4821Y-3.7848
X12.1798Y-3.6851
X11.3536Y-4.8615
X13.6136Y-3.1784
X5.071Y-4.0184
X4.9408Y-4.757
X5.853Y-3.9024
X4.2022Y-4.6268
X5.2013Y-3.2798
X11.3543Y-3.3229
X10.4855Y-2.7145
X10.4448Y-5.3443
X14.2219Y-2.3095
X14.3522Y-3.0481
X13.874Y-4.6556
T2
X11.9554Y-4.4339
X12.0539Y-4.4165
X12.1524Y-4.3992
T3
X4.0604Y-2.8778
X4.3629Y-2.9311
X4.4083Y-5.2238
X4.7108Y-5.2771
X5.8855Y-5.4843
X6.188Y-5.5376
X11.7088Y-3.5672
X12.0113Y-3.5139
X4.7874Y-3.0059
X5.0898Y-3.0593
X11.0137Y-3.9436
X11.3161Y-3.8903
X5.1469Y-5.3541
X5.4494Y-5.4074
X11.5786Y-2.8286
X11.881Y-2.7753
X12.0561Y-5.5368
X12.3586Y-5.4835
X14.272Y-5.1461
X14.5744Y-5.0928
X6.3631Y-2.7761
X6.6655Y-2.8294
X11.1259Y-5.532
X11.4144Y-5.427
X11.8391Y-4.3058
X12.1415Y-4.2525
X7.7852Y-3.2807
X8.0877Y-3.334
X13.5334Y-5.2764
X13.8358Y-5.223
X13.8813Y-2.9303
X14.1837Y-2.877
X7.655Y-4.0193
X7.9574Y-4.0726
X6.1026Y-4.2533
X6.405Y-4.3066
X10.4053Y-4.8125
X10.7077Y-4.7592
X11.1439Y-4.6823
X11.4463Y-4.6289
X3.9302Y-3.6164
X4.2326Y-3.6697
X13.1543Y-3.0585
X13.4567Y-3.0052
X12.6211Y-4.4218
X12.9235Y-4.3685
X12.3606Y-2.9446
X12.663Y-2.8912
X5.4508Y-3.6306
X5.7532Y-3.684
X13.2729Y-3.7991
X13.5753Y-3.7458
X6.8181Y-5.4256
X7.1067Y-5.5307
X6.7862Y-4.6277
X7.0886Y-4.681
X10.895Y-3.203
X11.1975Y-3.1497
X10.275Y-4.0739
X10.5775Y-4.0206
X6.2328Y-3.5147
X6.5353Y-3.568
X9.5248Y-4.6075
X9.5248Y-4.7075
X9.5248Y-4.8075
X9.5248Y-4.9075
X9.5248Y-5.0075
X9.5248Y-5.1075
X9.5248Y-5.2075
X9.5248Y-5.4075
X9.5248Y-5.5075
X9.5248Y-5.6075
X9.5248Y-5.7075
X9.5248Y-5.3075
X7.5272Y-5.4668
X7.7709Y-5.2799
X14.1417Y-4.4075
X14.4441Y-4.3542
X13.4031Y-4.5377
X13.7055Y-4.4844
X10.5381Y-5.2569
X10.7817Y-5.4439
X4.6688Y-3.7466
X4.9712Y-3.7999
X10.1448Y-3.3353
X10.4472Y-3.282
X5.5811Y-2.892
X5.8835Y-2.9454
X3.8072Y-4.3563
X4.1097Y-4.4096
X14.0115Y-3.6689
X14.3139Y-3.6156
X3.6697Y-5.0936
X3.9722Y-5.1469
X6.928Y-3.8911
X7.2305Y-3.9444
X7.0583Y-3.1525
X7.3607Y-3.2058
X4.5386Y-4.4852
X4.841Y-4.5385
X7.5248Y-4.7579
X7.8272Y-4.8112
X8.7248Y-4.6114
X8.7248Y-4.2114
X8.7248Y-4.3114
X8.7248Y-4.4114
X8.7248Y-4.5114
X8.7248Y-4.7114
X8.7248Y-4.8114
X8.7248Y-4.9114
X8.7248Y-5.0114
X8.7248Y-5.1114
X8.7248Y-5.2114
X8.7248Y-5.3114
X8.7248Y-5.4114
X8.7248Y-5.5114
X8.7248Y-5.6114
X8.7248Y-5.7114
X5.3206Y-4.3692
X5.623Y-4.4226
X12.7947Y-5.4066
X13.0972Y-5.3533
X12.4909Y-3.6832
X12.7933Y-3.6298
T5
X8.7705Y-4.0539
X9.4791Y-4.0539
T6
X14.9319Y-2.302
X3.3177Y-2.302
X3.3177Y-5.1169
X14.9319Y-5.1169
T4
X7.5876Y-4.4898G85X7.6091Y-4.5519
G05
X7.8204Y-4.6092G85X7.815Y-4.6313
G05
X13.0983Y-2.7891G85X13.1398Y-2.8401
G05
X13.358Y-2.8217G85X13.3604Y-2.8444
G05
X6.849Y-4.3595G85X6.8705Y-4.4216
G05
X7.0818Y-4.4789G85X7.0763Y-4.5011
G05
X5.9367Y-5.2141G85X5.9583Y-5.2762
G05
X6.1696Y-5.3335G85X6.1641Y-5.3557
G05
X5.1981Y-5.0839G85X5.2197Y-5.146
G05
X5.431Y-5.2033G85X5.4255Y-5.2254
G05
X11.6645Y-3.2958G85X11.706Y-3.3468
G05
X11.9242Y-3.3284G85X11.9266Y-3.3511
G05
X4.8502Y-2.7378G85X4.8718Y-2.7999
G05
X5.0831Y-2.8572G85X5.0776Y-2.8794
G05
X11.0996Y-4.4108G85X11.1411Y-4.4619
G05
X11.3592Y-4.4434G85X11.3616Y-4.4661
G05
X4.1116Y-2.6076G85X4.1332Y-2.6697
G05
X4.3445Y-2.727G85X4.339Y-2.7492
G05
X10.2307Y-3.8025G85X10.2722Y-3.8535
G05
X10.4904Y-3.8351G85X10.4928Y-3.8578
G05
X3.9814Y-3.3462G85X4.0029Y-3.4083
G05
X4.2142Y-3.4656G85X4.2087Y-3.4878
G05
X6.284Y-3.2445G85X6.3056Y-3.3066
G05
X6.5169Y-3.3639G85X6.5114Y-3.3861
G05
X12.4466Y-3.4118G85X12.488Y-3.4628
G05
X12.7062Y-3.4443G85X12.7086Y-3.467
G05
X10.361Y-4.5411G85X10.4024Y-4.5921
G05
X10.6206Y-4.5737G85X10.623Y-4.5964
G05
X5.6323Y-2.6218G85X5.6538Y-2.684
G05
X5.8651Y-2.7413G85X5.8596Y-2.7634
G05
X12.0118Y-5.2654G85X12.0533Y-5.3164
G05
X12.2715Y-5.298G85X12.2739Y-5.3207
G05
X13.3588Y-4.2663G85X13.4003Y-4.3174
G05
X13.6184Y-4.2989G85X13.6209Y-4.3216
G05
X6.9155Y-5.1684G85X6.9259Y-5.2334
G05
X7.124Y-5.3265G85X7.1148Y-5.3474
G05
X7.1095Y-2.8823G85X7.131Y-2.9444
G05
X7.3423Y-3.0017G85X7.3368Y-3.0239
G05
X6.4143Y-2.5059G85X6.4358Y-2.568
G05
X6.6471Y-2.6253G85X6.6416Y-2.6475
G05
X7.6804Y-5.6255G85X7.6543Y-5.6858
G05
X7.7714Y-5.8709G85X7.7524Y-5.8835
G05
X14.0971Y-4.1341G85X14.1385Y-4.1851
G05
X14.3567Y-4.1667G85X14.3591Y-4.1894
G05
X11.7948Y-4.0344G85X11.8362Y-4.0854
G05
X12.0544Y-4.067G85X12.0568Y-4.0897
G05
X11.0351Y-5.2724G85X11.0848Y-5.3154
G05
X11.2965Y-5.2594G85X11.3028Y-5.2813
G05
X13.2286Y-3.5277G85X13.27Y-3.5787
G05
X13.4882Y-3.5603G85X13.4906Y-3.583
G05
X4.5898Y-4.215G85X4.6113Y-4.2771
G05
X4.8226Y-4.3344G85X4.8171Y-4.3566
G05
X4.4595Y-4.9536G85X4.481Y-5.0157
G05
X4.6924Y-5.073G85X4.6869Y-5.0952
G05
X5.3718Y-4.099G85X5.3933Y-4.1612
G05
X5.6046Y-4.2185G85X5.5991Y-4.2406
G05
X3.7209Y-4.8234G85X3.7424Y-4.8855
G05
X3.9538Y-4.9428G85X3.9483Y-4.965
G05
X4.72Y-3.4764G85X4.7415Y-3.5385
G05
X4.9528Y-3.5958G85X4.9474Y-3.618
G05
X10.9693Y-3.6722G85X11.0108Y-3.7233
G05
X11.229Y-3.7048G85X11.2314Y-3.7275
G05
X10.1005Y-3.0639G85X10.142Y-3.1149
G05
X10.3601Y-3.0964G85X10.3626Y-3.1192
G05
X10.397Y-5.862G85X10.462Y-5.8716
G05
X10.6104Y-5.7106G85X10.6275Y-5.7257
G05
X13.8369Y-2.6589G85X13.8784Y-2.7099
G05
X14.0966Y-2.6915G85X14.099Y-2.7142
G05
X13.9672Y-3.3975G85X14.0086Y-3.4485
G05
X14.2268Y-3.4301G85X14.2292Y-3.4528
G05
X13.4891Y-5.0049G85X13.5305Y-5.056
G05
X13.7487Y-5.0375G85X13.7511Y-5.0602
G05
X7.7178Y-3.7511G85X7.7394Y-3.8133
G05
X7.9507Y-3.8706G85X7.9452Y-3.8927
G05
X12.7504Y-5.1352G85X12.7919Y-5.1862
G05
X13.0101Y-5.1678G85X13.0125Y-5.1905
G05
X6.9792Y-3.6209G85X7.0008Y-3.683
G05
X7.2121Y-3.7403G85X7.2066Y-3.7625
G05
X6.1538Y-3.9831G85X6.1753Y-4.0452
G05
X6.3866Y-4.1025G85X6.3812Y-4.1247
G05
X3.8512Y-4.0848G85X3.8727Y-4.1469
G05
X4.084Y-4.2042G85X4.0785Y-4.2264
G05
X11.5343Y-2.5572G85X11.5758Y-2.6082
G05
X11.7939Y-2.5898G85X11.7964Y-2.6125
G05
X12.5768Y-4.1504G85X12.6183Y-4.2014
G05
X12.8364Y-4.183G85X12.8389Y-4.2057
G05
X12.3163Y-2.6732G85X12.3578Y-2.7242
G05
X12.576Y-2.7057G85X12.5784Y-2.7284
G05
X10.8391Y-2.9336G85X10.8806Y-2.9846
G05
X11.0987Y-2.9662G85X11.1012Y-2.9889
G05
X8.9748Y-3.1107G85X9.0067Y-3.1681
G05
X9.2248Y-3.1878G85X9.2232Y-3.2106
G05
X14.2277Y-4.8747G85X14.2691Y-4.9257
G05
X14.4873Y-4.9073G85X14.4897Y-4.93
G05
X5.502Y-3.3604G85X5.5235Y-3.4226
G05
X5.7349Y-3.4799G85X5.7294Y-3.502
G05
X7.8481Y-3.0125G85X7.8696Y-3.0747
G05
X8.0809Y-3.132G85X8.0754Y-3.1541
G05
T0
M30
