%TF.GenerationSoftware,KiCad,Pcbnew,(5.0.1-3-g963ef8bb5)*%
%TF.CreationDate,2018-12-29T10:02:52-08:00*%
%TF.ProjectId,Laptreus-v1,4C617074726575732D76312E6B696361,rev?*%
%TF.SameCoordinates,Original*%
%TF.FileFunction,Profile,NP*%
%FSLAX46Y46*%
G04 Gerber Fmt 4.6, Leading zero omitted, Abs format (unit mm)*
G04 Created by KiCad (PCBNEW (5.0.1-3-g963ef8bb5)) date Saturday, December 29, 2018 at 10:02:52 AM*
%MOMM*%
%LPD*%
G01*
G04 APERTURE LIST*
%ADD10C,0.100000*%
G04 APERTURE END LIST*
D10*
X240770059Y-150470119D02*
X240770059Y-150970119D01*
X240770062Y-146970117D02*
X240770060Y-147470118D01*
X240770067Y-147470119D02*
G75*
G02X240770059Y-150470119I-4J-1500000D01*
G01*
X222770064Y-150470119D02*
X222770064Y-150970119D01*
X222770065Y-150470114D02*
G75*
G02X222770059Y-147470118I-3J1499998D01*
G01*
X237270063Y-83470115D02*
G75*
G02X238270062Y-84470118I-2J-1000001D01*
G01*
X225270061Y-84470119D02*
G75*
G02X226270062Y-83470116I1000002J1D01*
G01*
X226270062Y-83470116D02*
X237270063Y-83470117D01*
X268270063Y-153470119D02*
X382270062Y-135470116D01*
X194770063Y-153470117D02*
X239270063Y-153470116D01*
X240770060Y-150970118D02*
G75*
G02X240270061Y-151470119I-500000J-1D01*
G01*
X223270064Y-151470119D02*
G75*
G02X222770064Y-150970119I0J500000D01*
G01*
X245770062Y-114970120D02*
G75*
G02X244770061Y-115970119I-1000000J1D01*
G01*
X223270064Y-151470117D02*
X240270061Y-151470119D01*
X244770061Y-105470118D02*
G75*
G02X245770060Y-106470119I-1J-1000000D01*
G01*
X380770063Y-53470116D02*
G75*
G02X382270060Y-54970119I-3J-1500000D01*
G01*
X81270064Y-54970119D02*
G75*
G02X82770060Y-53470119I1499998J2D01*
G01*
X225270060Y-104470118D02*
G75*
G02X224270060Y-105470118I-1000000J0D01*
G01*
X223770061Y-105470118D02*
X224270060Y-105470118D01*
X222770064Y-106470119D02*
G75*
G02X223770061Y-105470118I999999J2D01*
G01*
X240770059Y-116970114D02*
G75*
G02X241770063Y-115970118I1000000J-4D01*
G01*
X225270063Y-104470118D02*
X225270059Y-84470117D01*
X239270063Y-105470116D02*
G75*
G02X238270061Y-104470118I-2J1000000D01*
G01*
X238270061Y-104470118D02*
X238270062Y-84470117D01*
X244770060Y-105470119D02*
X239270064Y-105470119D01*
X241770063Y-115970118D02*
X244770061Y-115970119D01*
X240770060Y-116970118D02*
X240770062Y-146970117D01*
X82770060Y-53470119D02*
X167270060Y-53470120D01*
X242270062Y-64470119D02*
X295770061Y-53470120D01*
X221770061Y-64470116D02*
X242270062Y-64470119D01*
X167270060Y-53470120D02*
X221770061Y-64470116D01*
X239270063Y-153470116D02*
X268270063Y-153470119D01*
X245770060Y-106470119D02*
X245770063Y-114970117D01*
X222770059Y-147470118D02*
X222770064Y-106470119D01*
X81270064Y-133970119D02*
X194770063Y-153470117D01*
X295770061Y-53470120D02*
X380770061Y-53470118D01*
X81270062Y-54970118D02*
X81270064Y-133970119D01*
X382270060Y-54970119D02*
X382270062Y-135470116D01*
M02*
