<?xml version="1.0" encoding="UTF-8" standalone="no"?>
<!DOCTYPE svg PUBLIC "-//W3C//DTD SVG 1.1//EN" "http://www.w3.org/Graphics/SVG/1.1/DTD/svg11.dtd">
<svg width="936px" height="792px" version="1.1" xmlns="http://www.w3.org/2000/svg" xmlns:xlink="http://www.w3.org/1999/xlink" xml:space="preserve" xmlns:serif="http://www.serif.com/" style="fill-rule:evenodd;clip-rule:evenodd;stroke-miterlimit:1.5;">
    <g id="_0.35mm-switch-master" serif:id="0.35mm switch master">
        <path d="M40.039,187.994l2.311,0l0,-2.778l2.724,0l0,-2.31l8.929,0l0,2.31l15.247,0l0,-2.31l8.93,0l0,2.31l2.777,0l0,2.778l2.311,0l0,8.929l-2.311,0l0,15.194l2.311,0l0,8.929l-2.311,0l0,2.778l-2.777,0l0,2.31l-8.93,0l0,-2.31l-15.247,0l0,2.31l-8.929,0l0,-2.31l-2.724,0l0,-2.778l-2.311,0l0,-8.929l2.311,0l0,-15.194l-2.311,0l0,-8.929Z" style="fill:none;stroke:#00f;stroke-width:0.03px;"/>
    </g>
    <g id="_0.35mm-switch-master1" serif:id="0.35mm switch master">
        <path d="M40.039,187.994l2.311,0l0,-2.778l2.724,0l0,-2.31l8.929,0l0,2.31l15.247,0l0,-2.31l8.93,0l0,2.31l2.777,0l0,2.778l2.311,0l0,8.929l-2.311,0l0,15.194l2.311,0l0,8.929l-2.311,0l0,2.778l-2.777,0l0,2.31l-8.93,0l0,-2.31l-15.247,0l0,2.31l-8.929,0l0,-2.31l-2.724,0l0,-2.778l-2.311,0l0,-8.929l2.311,0l0,-15.194l-2.311,0l0,-8.929Z" style="fill:none;stroke:#00f;stroke-width:0.03px;"/>
    </g>
    <g id="_0.35mm-switch-master2" serif:id="0.35mm switch master">
        <path d="M94.039,187.994l2.311,0l0,-2.778l2.724,0l0,-2.31l8.929,0l0,2.31l15.247,0l0,-2.31l8.93,0l0,2.31l2.777,0l0,2.778l2.311,0l0,8.929l-2.311,0l0,15.194l2.311,0l0,8.929l-2.311,0l0,2.778l-2.777,0l0,2.31l-8.93,0l0,-2.31l-15.247,0l0,2.31l-8.929,0l0,-2.31l-2.724,0l0,-2.778l-2.311,0l0,-8.929l2.311,0l0,-15.194l-2.311,0l0,-8.929Z" style="fill:none;stroke:#00f;stroke-width:0.03px;"/>
    </g>
    <g id="_0.35mm-switch-master3" serif:id="0.35mm switch master">
        <path d="M94.039,187.994l2.311,0l0,-2.778l2.724,0l0,-2.31l8.929,0l0,2.31l15.247,0l0,-2.31l8.93,0l0,2.31l2.777,0l0,2.778l2.311,0l0,8.929l-2.311,0l0,15.194l2.311,0l0,8.929l-2.311,0l0,2.778l-2.777,0l0,2.31l-8.93,0l0,-2.31l-15.247,0l0,2.31l-8.929,0l0,-2.31l-2.724,0l0,-2.778l-2.311,0l0,-8.929l2.311,0l0,-15.194l-2.311,0l0,-8.929Z" style="fill:none;stroke:#00f;stroke-width:0.03px;"/>
    </g>
    <g id="_0.35mm-switch-master4" serif:id="0.35mm switch master">
        <path d="M148.039,187.994l2.311,0l0,-2.778l2.724,0l0,-2.31l8.929,0l0,2.31l15.247,0l0,-2.31l8.93,0l0,2.31l2.777,0l0,2.778l2.311,0l0,8.929l-2.311,0l0,15.194l2.311,0l0,8.929l-2.311,0l0,2.778l-2.777,0l0,2.31l-8.93,0l0,-2.31l-15.247,0l0,2.31l-8.929,0l0,-2.31l-2.724,0l0,-2.778l-2.311,0l0,-8.929l2.311,0l0,-15.194l-2.311,0l0,-8.929Z" style="fill:none;stroke:#00f;stroke-width:0.03px;"/>
    </g>
    <g id="_0.35mm-switch-master5" serif:id="0.35mm switch master">
        <path d="M148.039,187.994l2.311,0l0,-2.778l2.724,0l0,-2.31l8.929,0l0,2.31l15.247,0l0,-2.31l8.93,0l0,2.31l2.777,0l0,2.778l2.311,0l0,8.929l-2.311,0l0,15.194l2.311,0l0,8.929l-2.311,0l0,2.778l-2.777,0l0,2.31l-8.93,0l0,-2.31l-15.247,0l0,2.31l-8.929,0l0,-2.31l-2.724,0l0,-2.778l-2.311,0l0,-8.929l2.311,0l0,-15.194l-2.311,0l0,-8.929Z" style="fill:none;stroke:#00f;stroke-width:0.03px;"/>
    </g>
    <g id="_0.35mm-switch-master6" serif:id="0.35mm switch master">
        <path d="M202.039,187.994l2.311,0l0,-2.778l2.724,0l0,-2.31l8.929,0l0,2.31l15.247,0l0,-2.31l8.93,0l0,2.31l2.777,0l0,2.778l2.311,0l0,8.929l-2.311,0l0,15.194l2.311,0l0,8.929l-2.311,0l0,2.778l-2.777,0l0,2.31l-8.93,0l0,-2.31l-15.247,0l0,2.31l-8.929,0l0,-2.31l-2.724,0l0,-2.778l-2.311,0l0,-8.929l2.311,0l0,-15.194l-2.311,0l0,-8.929Z" style="fill:none;stroke:#00f;stroke-width:0.03px;"/>
    </g>
    <g id="_0.35mm-switch-master7" serif:id="0.35mm switch master">
        <path d="M202.039,187.994l2.311,0l0,-2.778l2.724,0l0,-2.31l8.929,0l0,2.31l15.247,0l0,-2.31l8.93,0l0,2.31l2.777,0l0,2.778l2.311,0l0,8.929l-2.311,0l0,15.194l2.311,0l0,8.929l-2.311,0l0,2.778l-2.777,0l0,2.31l-8.93,0l0,-2.31l-15.247,0l0,2.31l-8.929,0l0,-2.31l-2.724,0l0,-2.778l-2.311,0l0,-8.929l2.311,0l0,-15.194l-2.311,0l0,-8.929Z" style="fill:none;stroke:#00f;stroke-width:0.03px;"/>
    </g>
    <g id="_0.35mm-switch-master8" serif:id="0.35mm switch master">
        <path d="M256.039,187.994l2.311,0l0,-2.778l2.724,0l0,-2.31l8.929,0l0,2.31l15.247,0l0,-2.31l8.93,0l0,2.31l2.777,0l0,2.778l2.311,0l0,8.929l-2.311,0l0,15.194l2.311,0l0,8.929l-2.311,0l0,2.778l-2.777,0l0,2.31l-8.93,0l0,-2.31l-15.247,0l0,2.31l-8.929,0l0,-2.31l-2.724,0l0,-2.778l-2.311,0l0,-8.929l2.311,0l0,-15.194l-2.311,0l0,-8.929Z" style="fill:none;stroke:#00f;stroke-width:0.03px;"/>
    </g>
    <g id="_0.35mm-switch-master9" serif:id="0.35mm switch master">
        <path d="M256.039,187.994l2.311,0l0,-2.778l2.724,0l0,-2.31l8.929,0l0,2.31l15.247,0l0,-2.31l8.93,0l0,2.31l2.777,0l0,2.778l2.311,0l0,8.929l-2.311,0l0,15.194l2.311,0l0,8.929l-2.311,0l0,2.778l-2.777,0l0,2.31l-8.93,0l0,-2.31l-15.247,0l0,2.31l-8.929,0l0,-2.31l-2.724,0l0,-2.778l-2.311,0l0,-8.929l2.311,0l0,-15.194l-2.311,0l0,-8.929Z" style="fill:none;stroke:#00f;stroke-width:0.03px;"/>
    </g>
    <g id="_0.35mm-switch-master10" serif:id="0.35mm switch master">
        <path d="M338.386,187.994l2.31,0l0,-2.778l2.724,0l0,-2.31l8.93,0l0,2.31l15.247,0l0,-2.31l8.929,0l0,2.31l2.778,0l0,2.778l2.31,0l0,8.929l-2.31,0l0,15.194l2.31,0l0,8.929l-2.31,0l0,2.778l-2.778,0l0,2.31l-8.929,0l0,-2.31l-15.247,0l0,2.31l-8.93,0l0,-2.31l-2.724,0l0,-2.778l-2.31,0l0,-8.929l2.31,0l0,-15.194l-2.31,0l0,-8.929Z" style="fill:none;stroke:#00f;stroke-width:0.03px;"/>
    </g>
    <g id="_0.35mm-switch-master11" serif:id="0.35mm switch master">
        <path d="M338.386,187.994l2.31,0l0,-2.778l2.724,0l0,-2.31l8.93,0l0,2.31l15.247,0l0,-2.31l8.929,0l0,2.31l2.778,0l0,2.778l2.31,0l0,8.929l-2.31,0l0,15.194l2.31,0l0,8.929l-2.31,0l0,2.778l-2.778,0l0,2.31l-8.929,0l0,-2.31l-15.247,0l0,2.31l-8.93,0l0,-2.31l-2.724,0l0,-2.778l-2.31,0l0,-8.929l2.31,0l0,-15.194l-2.31,0l0,-8.929Z" style="fill:none;stroke:#00f;stroke-width:0.03px;"/>
    </g>
    <g id="_0.35mm-switch-master12" serif:id="0.35mm switch master">
        <path d="M392.386,187.994l2.31,0l0,-2.778l2.724,0l0,-2.31l8.93,0l0,2.31l15.247,0l0,-2.31l8.929,0l0,2.31l2.778,0l0,2.778l2.31,0l0,8.929l-2.31,0l0,15.194l2.31,0l0,8.929l-2.31,0l0,2.778l-2.778,0l0,2.31l-8.929,0l0,-2.31l-15.247,0l0,2.31l-8.93,0l0,-2.31l-2.724,0l0,-2.778l-2.31,0l0,-8.929l2.31,0l0,-15.194l-2.31,0l0,-8.929Z" style="fill:none;stroke:#00f;stroke-width:0.03px;"/>
    </g>
    <g id="_0.35mm-switch-master13" serif:id="0.35mm switch master">
        <path d="M392.386,187.994l2.31,0l0,-2.778l2.724,0l0,-2.31l8.93,0l0,2.31l15.247,0l0,-2.31l8.929,0l0,2.31l2.778,0l0,2.778l2.31,0l0,8.929l-2.31,0l0,15.194l2.31,0l0,8.929l-2.31,0l0,2.778l-2.778,0l0,2.31l-8.929,0l0,-2.31l-15.247,0l0,2.31l-8.93,0l0,-2.31l-2.724,0l0,-2.778l-2.31,0l0,-8.929l2.31,0l0,-15.194l-2.31,0l0,-8.929Z" style="fill:none;stroke:#00f;stroke-width:0.03px;"/>
    </g>
    <g id="_0.35mm-switch-master14" serif:id="0.35mm switch master">
        <path d="M446.386,187.994l2.31,0l0,-2.778l2.724,0l0,-2.31l8.93,0l0,2.31l15.247,0l0,-2.31l8.929,0l0,2.31l2.778,0l0,2.778l2.31,0l0,8.929l-2.31,0l0,15.194l2.31,0l0,8.929l-2.31,0l0,2.778l-2.778,0l0,2.31l-8.929,0l0,-2.31l-15.247,0l0,2.31l-8.93,0l0,-2.31l-2.724,0l0,-2.778l-2.31,0l0,-8.929l2.31,0l0,-15.194l-2.31,0l0,-8.929Z" style="fill:none;stroke:#00f;stroke-width:0.03px;"/>
    </g>
    <g id="_0.35mm-switch-master15" serif:id="0.35mm switch master">
        <path d="M446.386,187.994l2.31,0l0,-2.778l2.724,0l0,-2.31l8.93,0l0,2.31l15.247,0l0,-2.31l8.929,0l0,2.31l2.778,0l0,2.778l2.31,0l0,8.929l-2.31,0l0,15.194l2.31,0l0,8.929l-2.31,0l0,2.778l-2.778,0l0,2.31l-8.929,0l0,-2.31l-15.247,0l0,2.31l-8.93,0l0,-2.31l-2.724,0l0,-2.778l-2.31,0l0,-8.929l2.31,0l0,-15.194l-2.31,0l0,-8.929Z" style="fill:none;stroke:#00f;stroke-width:0.03px;"/>
    </g>
    <g id="_0.35mm-switch-master16" serif:id="0.35mm switch master">
        <path d="M500.386,187.994l2.31,0l0,-2.778l2.724,0l0,-2.31l8.93,0l0,2.31l15.247,0l0,-2.31l8.929,0l0,2.31l2.778,0l0,2.778l2.31,0l0,8.929l-2.31,0l0,15.194l2.31,0l0,8.929l-2.31,0l0,2.778l-2.778,0l0,2.31l-8.929,0l0,-2.31l-15.247,0l0,2.31l-8.93,0l0,-2.31l-2.724,0l0,-2.778l-2.31,0l0,-8.929l2.31,0l0,-15.194l-2.31,0l0,-8.929Z" style="fill:none;stroke:#00f;stroke-width:0.03px;"/>
    </g>
    <g id="_0.35mm-switch-master17" serif:id="0.35mm switch master">
        <path d="M500.386,187.994l2.31,0l0,-2.778l2.724,0l0,-2.31l8.93,0l0,2.31l15.247,0l0,-2.31l8.929,0l0,2.31l2.778,0l0,2.778l2.31,0l0,8.929l-2.31,0l0,15.194l2.31,0l0,8.929l-2.31,0l0,2.778l-2.778,0l0,2.31l-8.929,0l0,-2.31l-15.247,0l0,2.31l-8.93,0l0,-2.31l-2.724,0l0,-2.778l-2.31,0l0,-8.929l2.31,0l0,-15.194l-2.31,0l0,-8.929Z" style="fill:none;stroke:#00f;stroke-width:0.03px;"/>
    </g>
    <g id="_0.35mm-switch-master18" serif:id="0.35mm switch master">
        <path d="M554.386,187.994l2.31,0l0,-2.778l2.724,0l0,-2.31l8.93,0l0,2.31l15.247,0l0,-2.31l8.929,0l0,2.31l2.778,0l0,2.778l2.31,0l0,8.929l-2.31,0l0,15.194l2.31,0l0,8.929l-2.31,0l0,2.778l-2.778,0l0,2.31l-8.929,0l0,-2.31l-15.247,0l0,2.31l-8.93,0l0,-2.31l-2.724,0l0,-2.778l-2.31,0l0,-8.929l2.31,0l0,-15.194l-2.31,0l0,-8.929Z" style="fill:none;stroke:#00f;stroke-width:0.03px;"/>
    </g>
    <g id="_0.35mm-switch-master19" serif:id="0.35mm switch master">
        <path d="M554.386,187.994l2.31,0l0,-2.778l2.724,0l0,-2.31l8.93,0l0,2.31l15.247,0l0,-2.31l8.929,0l0,2.31l2.778,0l0,2.778l2.31,0l0,8.929l-2.31,0l0,15.194l2.31,0l0,8.929l-2.31,0l0,2.778l-2.778,0l0,2.31l-8.929,0l0,-2.31l-15.247,0l0,2.31l-8.93,0l0,-2.31l-2.724,0l0,-2.778l-2.31,0l0,-8.929l2.31,0l0,-15.194l-2.31,0l0,-8.929Z" style="fill:none;stroke:#00f;stroke-width:0.03px;"/>
    </g>
    <g id="_0.35mm-switch-master20" serif:id="0.35mm switch master">
        <path d="M636.732,187.994l2.311,0l0,-2.778l2.724,0l0,-2.31l8.929,0l0,2.31l15.247,0l0,-2.31l8.929,0l0,2.31l2.778,0l0,2.778l2.311,0l0,8.929l-2.311,0l0,15.194l2.311,0l0,8.929l-2.311,0l0,2.778l-2.778,0l0,2.31l-8.929,0l0,-2.31l-15.247,0l0,2.31l-8.929,0l0,-2.31l-2.724,0l0,-2.778l-2.311,0l0,-8.929l2.311,0l0,-15.194l-2.311,0l0,-8.929Z" style="fill:none;stroke:#00f;stroke-width:0.03px;"/>
    </g>
    <g id="_0.35mm-switch-master21" serif:id="0.35mm switch master">
        <path d="M636.732,187.994l2.311,0l0,-2.778l2.724,0l0,-2.31l8.929,0l0,2.31l15.247,0l0,-2.31l8.929,0l0,2.31l2.778,0l0,2.778l2.311,0l0,8.929l-2.311,0l0,15.194l2.311,0l0,8.929l-2.311,0l0,2.778l-2.778,0l0,2.31l-8.929,0l0,-2.31l-15.247,0l0,2.31l-8.929,0l0,-2.31l-2.724,0l0,-2.778l-2.311,0l0,-8.929l2.311,0l0,-15.194l-2.311,0l0,-8.929Z" style="fill:none;stroke:#00f;stroke-width:0.03px;"/>
    </g>
    <g id="_0.35mm-switch-master22" serif:id="0.35mm switch master">
        <path d="M690.732,187.994l2.311,0l0,-2.778l2.724,0l0,-2.31l8.929,0l0,2.31l15.247,0l0,-2.31l8.929,0l0,2.31l2.778,0l0,2.778l2.311,0l0,8.929l-2.311,0l0,15.194l2.311,0l0,8.929l-2.311,0l0,2.778l-2.778,0l0,2.31l-8.929,0l0,-2.31l-15.247,0l0,2.31l-8.929,0l0,-2.31l-2.724,0l0,-2.778l-2.311,0l0,-8.929l2.311,0l0,-15.194l-2.311,0l0,-8.929Z" style="fill:none;stroke:#00f;stroke-width:0.03px;"/>
    </g>
    <g id="_0.35mm-switch-master23" serif:id="0.35mm switch master">
        <path d="M690.732,187.994l2.311,0l0,-2.778l2.724,0l0,-2.31l8.929,0l0,2.31l15.247,0l0,-2.31l8.929,0l0,2.31l2.778,0l0,2.778l2.311,0l0,8.929l-2.311,0l0,15.194l2.311,0l0,8.929l-2.311,0l0,2.778l-2.778,0l0,2.31l-8.929,0l0,-2.31l-15.247,0l0,2.31l-8.929,0l0,-2.31l-2.724,0l0,-2.778l-2.311,0l0,-8.929l2.311,0l0,-15.194l-2.311,0l0,-8.929Z" style="fill:none;stroke:#00f;stroke-width:0.03px;"/>
    </g>
    <g id="_0.35mm-switch-master24" serif:id="0.35mm switch master">
        <path d="M744.732,187.994l2.311,0l0,-2.778l2.724,0l0,-2.31l8.929,0l0,2.31l15.247,0l0,-2.31l8.929,0l0,2.31l2.778,0l0,2.778l2.311,0l0,8.929l-2.311,0l0,15.194l2.311,0l0,8.929l-2.311,0l0,2.778l-2.778,0l0,2.31l-8.929,0l0,-2.31l-15.247,0l0,2.31l-8.929,0l0,-2.31l-2.724,0l0,-2.778l-2.311,0l0,-8.929l2.311,0l0,-15.194l-2.311,0l0,-8.929Z" style="fill:none;stroke:#00f;stroke-width:0.03px;"/>
    </g>
    <g id="_0.35mm-switch-master25" serif:id="0.35mm switch master">
        <path d="M744.732,187.994l2.311,0l0,-2.778l2.724,0l0,-2.31l8.929,0l0,2.31l15.247,0l0,-2.31l8.929,0l0,2.31l2.778,0l0,2.778l2.311,0l0,8.929l-2.311,0l0,15.194l2.311,0l0,8.929l-2.311,0l0,2.778l-2.778,0l0,2.31l-8.929,0l0,-2.31l-15.247,0l0,2.31l-8.929,0l0,-2.31l-2.724,0l0,-2.778l-2.311,0l0,-8.929l2.311,0l0,-15.194l-2.311,0l0,-8.929Z" style="fill:none;stroke:#00f;stroke-width:0.03px;"/>
    </g>
    <g id="_0.35mm-switch-master26" serif:id="0.35mm switch master">
        <path d="M798.732,187.994l2.311,0l0,-2.778l2.724,0l0,-2.31l8.929,0l0,2.31l15.247,0l0,-2.31l8.929,0l0,2.31l2.778,0l0,2.778l2.311,0l0,8.929l-2.311,0l0,15.194l2.311,0l0,8.929l-2.311,0l0,2.778l-2.778,0l0,2.31l-8.929,0l0,-2.31l-15.247,0l0,2.31l-8.929,0l0,-2.31l-2.724,0l0,-2.778l-2.311,0l0,-8.929l2.311,0l0,-15.194l-2.311,0l0,-8.929Z" style="fill:none;stroke:#00f;stroke-width:0.03px;"/>
    </g>
    <g id="_0.35mm-switch-master27" serif:id="0.35mm switch master">
        <path d="M798.732,187.994l2.311,0l0,-2.778l2.724,0l0,-2.31l8.929,0l0,2.31l15.247,0l0,-2.31l8.929,0l0,2.31l2.778,0l0,2.778l2.311,0l0,8.929l-2.311,0l0,15.194l2.311,0l0,8.929l-2.311,0l0,2.778l-2.778,0l0,2.31l-8.929,0l0,-2.31l-15.247,0l0,2.31l-8.929,0l0,-2.31l-2.724,0l0,-2.778l-2.311,0l0,-8.929l2.311,0l0,-15.194l-2.311,0l0,-8.929Z" style="fill:none;stroke:#00f;stroke-width:0.03px;"/>
    </g>
    <g id="_0.35mm-switch-master28" serif:id="0.35mm switch master">
        <path d="M852.732,187.994l2.311,0l0,-2.778l2.724,0l0,-2.31l8.929,0l0,2.31l15.247,0l0,-2.31l8.929,0l0,2.31l2.778,0l0,2.778l2.311,0l0,8.929l-2.311,0l0,15.194l2.311,0l0,8.929l-2.311,0l0,2.778l-2.778,0l0,2.31l-8.929,0l0,-2.31l-15.247,0l0,2.31l-8.929,0l0,-2.31l-2.724,0l0,-2.778l-2.311,0l0,-8.929l2.311,0l0,-15.194l-2.311,0l0,-8.929Z" style="fill:none;stroke:#00f;stroke-width:0.03px;"/>
    </g>
    <g id="_0.35mm-switch-master29" serif:id="0.35mm switch master">
        <path d="M852.732,187.994l2.311,0l0,-2.778l2.724,0l0,-2.31l8.929,0l0,2.31l15.247,0l0,-2.31l8.929,0l0,2.31l2.778,0l0,2.778l2.311,0l0,8.929l-2.311,0l0,15.194l2.311,0l0,8.929l-2.311,0l0,2.778l-2.778,0l0,2.31l-8.929,0l0,-2.31l-15.247,0l0,2.31l-8.929,0l0,-2.31l-2.724,0l0,-2.778l-2.311,0l0,-8.929l2.311,0l0,-15.194l-2.311,0l0,-8.929Z" style="fill:none;stroke:#00f;stroke-width:0.03px;"/>
    </g>
    <g id="_0.3mm-switch-master" serif:id="0.3mm switch master">
        <path d="M39.969,133.923l2.31,0l0,-2.778l2.778,0l0,-2.31l9.071,0l0,2.31l15.052,0l0,-2.31l9.07,0l0,2.31l2.778,0l0,2.778l2.311,0l0,9.071l-2.311,0l0,15.052l2.311,0l0,9.071l-2.311,0l0,2.777l-2.778,0l0,2.311l-9.07,0l0,-2.311l-15.052,0l0,2.311l-9.071,0l0,-2.311l-2.778,0l0,-2.777l-2.31,0l0,-9.071l2.31,0l0,-15.052l-2.31,0l0,-9.071Z" style="fill:none;stroke:#00f;stroke-width:0.03px;stroke-linecap:round;"/>
    </g>
    <g id="_0.3mm-switch-master1" serif:id="0.3mm switch master">
        <path d="M39.969,133.923l2.31,0l0,-2.778l2.778,0l0,-2.31l9.071,0l0,2.31l15.052,0l0,-2.31l9.07,0l0,2.31l2.778,0l0,2.778l2.311,0l0,9.071l-2.311,0l0,15.052l2.311,0l0,9.071l-2.311,0l0,2.777l-2.778,0l0,2.311l-9.07,0l0,-2.311l-15.052,0l0,2.311l-9.071,0l0,-2.311l-2.778,0l0,-2.777l-2.31,0l0,-9.071l2.31,0l0,-15.052l-2.31,0l0,-9.071Z" style="fill:none;stroke:#00f;stroke-width:0.03px;stroke-linecap:round;"/>
    </g>
    <g id="_0.3mm-switch-master2" serif:id="0.3mm switch master">
        <path d="M93.969,133.923l2.31,0l0,-2.778l2.778,0l0,-2.31l9.071,0l0,2.31l15.052,0l0,-2.31l9.07,0l0,2.31l2.778,0l0,2.778l2.311,0l0,9.071l-2.311,0l0,15.052l2.311,0l0,9.071l-2.311,0l0,2.777l-2.778,0l0,2.311l-9.07,0l0,-2.311l-15.052,0l0,2.311l-9.071,0l0,-2.311l-2.778,0l0,-2.777l-2.31,0l0,-9.071l2.31,0l0,-15.052l-2.31,0l0,-9.071Z" style="fill:none;stroke:#00f;stroke-width:0.03px;stroke-linecap:round;"/>
    </g>
    <g id="_0.3mm-switch-master3" serif:id="0.3mm switch master">
        <path d="M93.969,133.923l2.31,0l0,-2.778l2.778,0l0,-2.31l9.071,0l0,2.31l15.052,0l0,-2.31l9.07,0l0,2.31l2.778,0l0,2.778l2.311,0l0,9.071l-2.311,0l0,15.052l2.311,0l0,9.071l-2.311,0l0,2.777l-2.778,0l0,2.311l-9.07,0l0,-2.311l-15.052,0l0,2.311l-9.071,0l0,-2.311l-2.778,0l0,-2.777l-2.31,0l0,-9.071l2.31,0l0,-15.052l-2.31,0l0,-9.071Z" style="fill:none;stroke:#00f;stroke-width:0.03px;stroke-linecap:round;"/>
    </g>
    <g id="_0.3mm-switch-master4" serif:id="0.3mm switch master">
        <path d="M147.969,133.923l2.31,0l0,-2.778l2.778,0l0,-2.31l9.071,0l0,2.31l15.052,0l0,-2.31l9.07,0l0,2.31l2.778,0l0,2.778l2.311,0l0,9.071l-2.311,0l0,15.052l2.311,0l0,9.071l-2.311,0l0,2.777l-2.778,0l0,2.311l-9.07,0l0,-2.311l-15.052,0l0,2.311l-9.071,0l0,-2.311l-2.778,0l0,-2.777l-2.31,0l0,-9.071l2.31,0l0,-15.052l-2.31,0l0,-9.071Z" style="fill:none;stroke:#00f;stroke-width:0.03px;stroke-linecap:round;"/>
    </g>
    <g id="_0.3mm-switch-master5" serif:id="0.3mm switch master">
        <path d="M147.969,133.923l2.31,0l0,-2.778l2.778,0l0,-2.31l9.071,0l0,2.31l15.052,0l0,-2.31l9.07,0l0,2.31l2.778,0l0,2.778l2.311,0l0,9.071l-2.311,0l0,15.052l2.311,0l0,9.071l-2.311,0l0,2.777l-2.778,0l0,2.311l-9.07,0l0,-2.311l-15.052,0l0,2.311l-9.071,0l0,-2.311l-2.778,0l0,-2.777l-2.31,0l0,-9.071l2.31,0l0,-15.052l-2.31,0l0,-9.071Z" style="fill:none;stroke:#00f;stroke-width:0.03px;stroke-linecap:round;"/>
    </g>
    <g id="_0.3mm-switch-master6" serif:id="0.3mm switch master">
        <path d="M201.969,133.923l2.31,0l0,-2.778l2.778,0l0,-2.31l9.071,0l0,2.31l15.052,0l0,-2.31l9.07,0l0,2.31l2.778,0l0,2.778l2.311,0l0,9.071l-2.311,0l0,15.052l2.311,0l0,9.071l-2.311,0l0,2.777l-2.778,0l0,2.311l-9.07,0l0,-2.311l-15.052,0l0,2.311l-9.071,0l0,-2.311l-2.778,0l0,-2.777l-2.31,0l0,-9.071l2.31,0l0,-15.052l-2.31,0l0,-9.071Z" style="fill:none;stroke:#00f;stroke-width:0.03px;stroke-linecap:round;"/>
    </g>
    <g id="_0.3mm-switch-master7" serif:id="0.3mm switch master">
        <path d="M201.969,133.923l2.31,0l0,-2.778l2.778,0l0,-2.31l9.071,0l0,2.31l15.052,0l0,-2.31l9.07,0l0,2.31l2.778,0l0,2.778l2.311,0l0,9.071l-2.311,0l0,15.052l2.311,0l0,9.071l-2.311,0l0,2.777l-2.778,0l0,2.311l-9.07,0l0,-2.311l-15.052,0l0,2.311l-9.071,0l0,-2.311l-2.778,0l0,-2.777l-2.31,0l0,-9.071l2.31,0l0,-15.052l-2.31,0l0,-9.071Z" style="fill:none;stroke:#00f;stroke-width:0.03px;stroke-linecap:round;"/>
    </g>
    <g id="_0.3mm-switch-master8" serif:id="0.3mm switch master">
        <path d="M255.969,133.923l2.31,0l0,-2.778l2.778,0l0,-2.31l9.071,0l0,2.31l15.052,0l0,-2.31l9.07,0l0,2.31l2.778,0l0,2.778l2.311,0l0,9.071l-2.311,0l0,15.052l2.311,0l0,9.071l-2.311,0l0,2.777l-2.778,0l0,2.311l-9.07,0l0,-2.311l-15.052,0l0,2.311l-9.071,0l0,-2.311l-2.778,0l0,-2.777l-2.31,0l0,-9.071l2.31,0l0,-15.052l-2.31,0l0,-9.071Z" style="fill:none;stroke:#00f;stroke-width:0.03px;stroke-linecap:round;"/>
    </g>
    <g id="_0.3mm-switch-master9" serif:id="0.3mm switch master">
        <path d="M255.969,133.923l2.31,0l0,-2.778l2.778,0l0,-2.31l9.071,0l0,2.31l15.052,0l0,-2.31l9.07,0l0,2.31l2.778,0l0,2.778l2.311,0l0,9.071l-2.311,0l0,15.052l2.311,0l0,9.071l-2.311,0l0,2.777l-2.778,0l0,2.311l-9.07,0l0,-2.311l-15.052,0l0,2.311l-9.071,0l0,-2.311l-2.778,0l0,-2.777l-2.31,0l0,-9.071l2.31,0l0,-15.052l-2.31,0l0,-9.071Z" style="fill:none;stroke:#00f;stroke-width:0.03px;stroke-linecap:round;"/>
    </g>
    <g id="_0.3mm-switch-master10" serif:id="0.3mm switch master">
        <path d="M338.315,133.923l2.31,0l0,-2.778l2.778,0l0,-2.31l9.071,0l0,2.31l15.052,0l0,-2.31l9.071,0l0,2.31l2.778,0l0,2.778l2.31,0l0,9.071l-2.31,0l0,15.052l2.31,0l0,9.071l-2.31,0l0,2.777l-2.778,0l0,2.311l-9.071,0l0,-2.311l-15.052,0l0,2.311l-9.071,0l0,-2.311l-2.778,0l0,-2.777l-2.31,0l0,-9.071l2.31,0l0,-15.052l-2.31,0l0,-9.071Z" style="fill:none;stroke:#00f;stroke-width:0.03px;stroke-linecap:round;"/>
    </g>
    <g id="_0.3mm-switch-master11" serif:id="0.3mm switch master">
        <path d="M338.315,133.923l2.31,0l0,-2.778l2.778,0l0,-2.31l9.071,0l0,2.31l15.052,0l0,-2.31l9.071,0l0,2.31l2.778,0l0,2.778l2.31,0l0,9.071l-2.31,0l0,15.052l2.31,0l0,9.071l-2.31,0l0,2.777l-2.778,0l0,2.311l-9.071,0l0,-2.311l-15.052,0l0,2.311l-9.071,0l0,-2.311l-2.778,0l0,-2.777l-2.31,0l0,-9.071l2.31,0l0,-15.052l-2.31,0l0,-9.071Z" style="fill:none;stroke:#00f;stroke-width:0.03px;stroke-linecap:round;"/>
    </g>
    <g id="_0.3mm-switch-master12" serif:id="0.3mm switch master">
        <path d="M392.315,133.923l2.31,0l0,-2.778l2.778,0l0,-2.31l9.071,0l0,2.31l15.052,0l0,-2.31l9.071,0l0,2.31l2.778,0l0,2.778l2.31,0l0,9.071l-2.31,0l0,15.052l2.31,0l0,9.071l-2.31,0l0,2.777l-2.778,0l0,2.311l-9.071,0l0,-2.311l-15.052,0l0,2.311l-9.071,0l0,-2.311l-2.778,0l0,-2.777l-2.31,0l0,-9.071l2.31,0l0,-15.052l-2.31,0l0,-9.071Z" style="fill:none;stroke:#00f;stroke-width:0.03px;stroke-linecap:round;"/>
    </g>
    <g id="_0.3mm-switch-master13" serif:id="0.3mm switch master">
        <path d="M392.315,133.923l2.31,0l0,-2.778l2.778,0l0,-2.31l9.071,0l0,2.31l15.052,0l0,-2.31l9.071,0l0,2.31l2.778,0l0,2.778l2.31,0l0,9.071l-2.31,0l0,15.052l2.31,0l0,9.071l-2.31,0l0,2.777l-2.778,0l0,2.311l-9.071,0l0,-2.311l-15.052,0l0,2.311l-9.071,0l0,-2.311l-2.778,0l0,-2.777l-2.31,0l0,-9.071l2.31,0l0,-15.052l-2.31,0l0,-9.071Z" style="fill:none;stroke:#00f;stroke-width:0.03px;stroke-linecap:round;"/>
    </g>
    <g id="_0.3mm-switch-master14" serif:id="0.3mm switch master">
        <path d="M446.315,133.923l2.31,0l0,-2.778l2.778,0l0,-2.31l9.071,0l0,2.31l15.052,0l0,-2.31l9.071,0l0,2.31l2.778,0l0,2.778l2.31,0l0,9.071l-2.31,0l0,15.052l2.31,0l0,9.071l-2.31,0l0,2.777l-2.778,0l0,2.311l-9.071,0l0,-2.311l-15.052,0l0,2.311l-9.071,0l0,-2.311l-2.778,0l0,-2.777l-2.31,0l0,-9.071l2.31,0l0,-15.052l-2.31,0l0,-9.071Z" style="fill:none;stroke:#00f;stroke-width:0.03px;stroke-linecap:round;"/>
    </g>
    <g id="_0.3mm-switch-master15" serif:id="0.3mm switch master">
        <path d="M446.315,133.923l2.31,0l0,-2.778l2.778,0l0,-2.31l9.071,0l0,2.31l15.052,0l0,-2.31l9.071,0l0,2.31l2.778,0l0,2.778l2.31,0l0,9.071l-2.31,0l0,15.052l2.31,0l0,9.071l-2.31,0l0,2.777l-2.778,0l0,2.311l-9.071,0l0,-2.311l-15.052,0l0,2.311l-9.071,0l0,-2.311l-2.778,0l0,-2.777l-2.31,0l0,-9.071l2.31,0l0,-15.052l-2.31,0l0,-9.071Z" style="fill:none;stroke:#00f;stroke-width:0.03px;stroke-linecap:round;"/>
    </g>
    <g id="_0.3mm-switch-master16" serif:id="0.3mm switch master">
        <path d="M500.315,133.923l2.31,0l0,-2.778l2.778,0l0,-2.31l9.071,0l0,2.31l15.052,0l0,-2.31l9.071,0l0,2.31l2.778,0l0,2.778l2.31,0l0,9.071l-2.31,0l0,15.052l2.31,0l0,9.071l-2.31,0l0,2.777l-2.778,0l0,2.311l-9.071,0l0,-2.311l-15.052,0l0,2.311l-9.071,0l0,-2.311l-2.778,0l0,-2.777l-2.31,0l0,-9.071l2.31,0l0,-15.052l-2.31,0l0,-9.071Z" style="fill:none;stroke:#00f;stroke-width:0.03px;stroke-linecap:round;"/>
    </g>
    <g id="_0.3mm-switch-master17" serif:id="0.3mm switch master">
        <path d="M500.315,133.923l2.31,0l0,-2.778l2.778,0l0,-2.31l9.071,0l0,2.31l15.052,0l0,-2.31l9.071,0l0,2.31l2.778,0l0,2.778l2.31,0l0,9.071l-2.31,0l0,15.052l2.31,0l0,9.071l-2.31,0l0,2.777l-2.778,0l0,2.311l-9.071,0l0,-2.311l-15.052,0l0,2.311l-9.071,0l0,-2.311l-2.778,0l0,-2.777l-2.31,0l0,-9.071l2.31,0l0,-15.052l-2.31,0l0,-9.071Z" style="fill:none;stroke:#00f;stroke-width:0.03px;stroke-linecap:round;"/>
    </g>
    <g id="_0.3mm-switch-master18" serif:id="0.3mm switch master">
        <path d="M554.315,133.923l2.31,0l0,-2.778l2.778,0l0,-2.31l9.071,0l0,2.31l15.052,0l0,-2.31l9.071,0l0,2.31l2.778,0l0,2.778l2.31,0l0,9.071l-2.31,0l0,15.052l2.31,0l0,9.071l-2.31,0l0,2.777l-2.778,0l0,2.311l-9.071,0l0,-2.311l-15.052,0l0,2.311l-9.071,0l0,-2.311l-2.778,0l0,-2.777l-2.31,0l0,-9.071l2.31,0l0,-15.052l-2.31,0l0,-9.071Z" style="fill:none;stroke:#00f;stroke-width:0.03px;stroke-linecap:round;"/>
    </g>
    <g id="_0.3mm-switch-master19" serif:id="0.3mm switch master">
        <path d="M554.315,133.923l2.31,0l0,-2.778l2.778,0l0,-2.31l9.071,0l0,2.31l15.052,0l0,-2.31l9.071,0l0,2.31l2.778,0l0,2.778l2.31,0l0,9.071l-2.31,0l0,15.052l2.31,0l0,9.071l-2.31,0l0,2.777l-2.778,0l0,2.311l-9.071,0l0,-2.311l-15.052,0l0,2.311l-9.071,0l0,-2.311l-2.778,0l0,-2.777l-2.31,0l0,-9.071l2.31,0l0,-15.052l-2.31,0l0,-9.071Z" style="fill:none;stroke:#00f;stroke-width:0.03px;stroke-linecap:round;"/>
    </g>
    <g id="_0.3mm-switch-master20" serif:id="0.3mm switch master">
        <path d="M636.661,133.923l2.311,0l0,-2.778l2.778,0l0,-2.31l9.07,0l0,2.31l15.052,0l0,-2.31l9.071,0l0,2.31l2.778,0l0,2.778l2.31,0l0,9.071l-2.31,0l0,15.052l2.31,0l0,9.071l-2.31,0l0,2.777l-2.778,0l0,2.311l-9.071,0l0,-2.311l-15.052,0l0,2.311l-9.07,0l0,-2.311l-2.778,0l0,-2.777l-2.311,0l0,-9.071l2.311,0l0,-15.052l-2.311,0l0,-9.071Z" style="fill:none;stroke:#00f;stroke-width:0.03px;stroke-linecap:round;"/>
    </g>
    <g id="_0.3mm-switch-master21" serif:id="0.3mm switch master">
        <path d="M636.661,133.923l2.311,0l0,-2.778l2.778,0l0,-2.31l9.07,0l0,2.31l15.052,0l0,-2.31l9.071,0l0,2.31l2.778,0l0,2.778l2.31,0l0,9.071l-2.31,0l0,15.052l2.31,0l0,9.071l-2.31,0l0,2.777l-2.778,0l0,2.311l-9.071,0l0,-2.311l-15.052,0l0,2.311l-9.07,0l0,-2.311l-2.778,0l0,-2.777l-2.311,0l0,-9.071l2.311,0l0,-15.052l-2.311,0l0,-9.071Z" style="fill:none;stroke:#00f;stroke-width:0.03px;stroke-linecap:round;"/>
    </g>
    <g id="_0.3mm-switch-master22" serif:id="0.3mm switch master">
        <path d="M690.661,133.923l2.311,0l0,-2.778l2.778,0l0,-2.31l9.07,0l0,2.31l15.052,0l0,-2.31l9.071,0l0,2.31l2.778,0l0,2.778l2.31,0l0,9.071l-2.31,0l0,15.052l2.31,0l0,9.071l-2.31,0l0,2.777l-2.778,0l0,2.311l-9.071,0l0,-2.311l-15.052,0l0,2.311l-9.07,0l0,-2.311l-2.778,0l0,-2.777l-2.311,0l0,-9.071l2.311,0l0,-15.052l-2.311,0l0,-9.071Z" style="fill:none;stroke:#00f;stroke-width:0.03px;stroke-linecap:round;"/>
    </g>
    <g id="_0.3mm-switch-master23" serif:id="0.3mm switch master">
        <path d="M690.661,133.923l2.311,0l0,-2.778l2.778,0l0,-2.31l9.07,0l0,2.31l15.052,0l0,-2.31l9.071,0l0,2.31l2.778,0l0,2.778l2.31,0l0,9.071l-2.31,0l0,15.052l2.31,0l0,9.071l-2.31,0l0,2.777l-2.778,0l0,2.311l-9.071,0l0,-2.311l-15.052,0l0,2.311l-9.07,0l0,-2.311l-2.778,0l0,-2.777l-2.311,0l0,-9.071l2.311,0l0,-15.052l-2.311,0l0,-9.071Z" style="fill:none;stroke:#00f;stroke-width:0.03px;stroke-linecap:round;"/>
    </g>
    <g id="_0.3mm-switch-master24" serif:id="0.3mm switch master">
        <path d="M744.661,133.923l2.311,0l0,-2.778l2.778,0l0,-2.31l9.07,0l0,2.31l15.052,0l0,-2.31l9.071,0l0,2.31l2.778,0l0,2.778l2.31,0l0,9.071l-2.31,0l0,15.052l2.31,0l0,9.071l-2.31,0l0,2.777l-2.778,0l0,2.311l-9.071,0l0,-2.311l-15.052,0l0,2.311l-9.07,0l0,-2.311l-2.778,0l0,-2.777l-2.311,0l0,-9.071l2.311,0l0,-15.052l-2.311,0l0,-9.071Z" style="fill:none;stroke:#00f;stroke-width:0.03px;stroke-linecap:round;"/>
    </g>
    <g id="_0.3mm-switch-master25" serif:id="0.3mm switch master">
        <path d="M744.661,133.923l2.311,0l0,-2.778l2.778,0l0,-2.31l9.07,0l0,2.31l15.052,0l0,-2.31l9.071,0l0,2.31l2.778,0l0,2.778l2.31,0l0,9.071l-2.31,0l0,15.052l2.31,0l0,9.071l-2.31,0l0,2.777l-2.778,0l0,2.311l-9.071,0l0,-2.311l-15.052,0l0,2.311l-9.07,0l0,-2.311l-2.778,0l0,-2.777l-2.311,0l0,-9.071l2.311,0l0,-15.052l-2.311,0l0,-9.071Z" style="fill:none;stroke:#00f;stroke-width:0.03px;stroke-linecap:round;"/>
    </g>
    <g id="_0.3mm-switch-master26" serif:id="0.3mm switch master">
        <path d="M798.661,133.923l2.311,0l0,-2.778l2.778,0l0,-2.31l9.07,0l0,2.31l15.052,0l0,-2.31l9.071,0l0,2.31l2.778,0l0,2.778l2.31,0l0,9.071l-2.31,0l0,15.052l2.31,0l0,9.071l-2.31,0l0,2.777l-2.778,0l0,2.311l-9.071,0l0,-2.311l-15.052,0l0,2.311l-9.07,0l0,-2.311l-2.778,0l0,-2.777l-2.311,0l0,-9.071l2.311,0l0,-15.052l-2.311,0l0,-9.071Z" style="fill:none;stroke:#00f;stroke-width:0.03px;stroke-linecap:round;"/>
    </g>
    <g id="_0.3mm-switch-master27" serif:id="0.3mm switch master">
        <path d="M798.661,133.923l2.311,0l0,-2.778l2.778,0l0,-2.31l9.07,0l0,2.31l15.052,0l0,-2.31l9.071,0l0,2.31l2.778,0l0,2.778l2.31,0l0,9.071l-2.31,0l0,15.052l2.31,0l0,9.071l-2.31,0l0,2.777l-2.778,0l0,2.311l-9.071,0l0,-2.311l-15.052,0l0,2.311l-9.07,0l0,-2.311l-2.778,0l0,-2.777l-2.311,0l0,-9.071l2.311,0l0,-15.052l-2.311,0l0,-9.071Z" style="fill:none;stroke:#00f;stroke-width:0.03px;stroke-linecap:round;"/>
    </g>
    <g id="_0.3mm-switch-master28" serif:id="0.3mm switch master">
        <path d="M852.661,133.923l2.311,0l0,-2.778l2.778,0l0,-2.31l9.07,0l0,2.31l15.052,0l0,-2.31l9.071,0l0,2.31l2.778,0l0,2.778l2.31,0l0,9.071l-2.31,0l0,15.052l2.31,0l0,9.071l-2.31,0l0,2.777l-2.778,0l0,2.311l-9.071,0l0,-2.311l-15.052,0l0,2.311l-9.07,0l0,-2.311l-2.778,0l0,-2.777l-2.311,0l0,-9.071l2.311,0l0,-15.052l-2.311,0l0,-9.071Z" style="fill:none;stroke:#00f;stroke-width:0.03px;stroke-linecap:round;"/>
    </g>
    <g id="_0.3mm-switch-master29" serif:id="0.3mm switch master">
        <path d="M852.661,133.923l2.311,0l0,-2.778l2.778,0l0,-2.31l9.07,0l0,2.31l15.052,0l0,-2.31l9.071,0l0,2.31l2.778,0l0,2.778l2.31,0l0,9.071l-2.31,0l0,15.052l2.31,0l0,9.071l-2.31,0l0,2.777l-2.778,0l0,2.311l-9.071,0l0,-2.311l-15.052,0l0,2.311l-9.07,0l0,-2.311l-2.778,0l0,-2.777l-2.311,0l0,-9.071l2.311,0l0,-15.052l-2.311,0l0,-9.071Z" style="fill:none;stroke:#00f;stroke-width:0.03px;stroke-linecap:round;"/>
    </g>
    <g id="_0.25mm-switch-master" serif:id="0.25mm switch master">
        <path d="M39.898,79.852l2.31,0l0,-2.778l2.778,0l0,-2.31l9.212,0l0,2.31l14.911,0l0,-2.31l9.212,0l0,2.31l2.778,0l0,2.778l2.31,0l0,9.213l-2.31,0l0,14.91l2.31,0l0,9.212l-2.31,0l0,2.778l-2.778,0l0,2.311l-9.212,0l0,-2.311l-14.911,0l0,2.311l-9.212,0l0,-2.311l-2.778,0l0,-2.778l-2.31,0l0,-9.212l2.31,0l0,-14.91l-2.31,0l0,-9.213Z" style="fill:none;stroke:#00f;stroke-width:0.03px;stroke-linecap:round;"/>
    </g>
    <g id="_0.25mm-switch-master1" serif:id="0.25mm switch master">
        <path d="M39.898,79.852l2.31,0l0,-2.778l2.778,0l0,-2.31l9.212,0l0,2.31l14.911,0l0,-2.31l9.212,0l0,2.31l2.778,0l0,2.778l2.31,0l0,9.213l-2.31,0l0,14.91l2.31,0l0,9.212l-2.31,0l0,2.778l-2.778,0l0,2.311l-9.212,0l0,-2.311l-14.911,0l0,2.311l-9.212,0l0,-2.311l-2.778,0l0,-2.778l-2.31,0l0,-9.212l2.31,0l0,-14.91l-2.31,0l0,-9.213Z" style="fill:none;stroke:#00f;stroke-width:0.03px;stroke-linecap:round;"/>
    </g>
    <g id="_0.25mm-switch-master2" serif:id="0.25mm switch master">
        <path d="M93.898,79.852l2.31,0l0,-2.778l2.778,0l0,-2.31l9.212,0l0,2.31l14.911,0l0,-2.31l9.212,0l0,2.31l2.778,0l0,2.778l2.31,0l0,9.213l-2.31,0l0,14.91l2.31,0l0,9.212l-2.31,0l0,2.778l-2.778,0l0,2.311l-9.212,0l0,-2.311l-14.911,0l0,2.311l-9.212,0l0,-2.311l-2.778,0l0,-2.778l-2.31,0l0,-9.212l2.31,0l0,-14.91l-2.31,0l0,-9.213Z" style="fill:none;stroke:#00f;stroke-width:0.03px;stroke-linecap:round;"/>
    </g>
    <g id="_0.25mm-switch-master3" serif:id="0.25mm switch master">
        <path d="M93.898,79.852l2.31,0l0,-2.778l2.778,0l0,-2.31l9.212,0l0,2.31l14.911,0l0,-2.31l9.212,0l0,2.31l2.778,0l0,2.778l2.31,0l0,9.213l-2.31,0l0,14.91l2.31,0l0,9.212l-2.31,0l0,2.778l-2.778,0l0,2.311l-9.212,0l0,-2.311l-14.911,0l0,2.311l-9.212,0l0,-2.311l-2.778,0l0,-2.778l-2.31,0l0,-9.212l2.31,0l0,-14.91l-2.31,0l0,-9.213Z" style="fill:none;stroke:#00f;stroke-width:0.03px;stroke-linecap:round;"/>
    </g>
    <g id="_0.25mm-switch-master4" serif:id="0.25mm switch master">
        <path d="M147.898,79.852l2.31,0l0,-2.778l2.778,0l0,-2.31l9.212,0l0,2.31l14.911,0l0,-2.31l9.212,0l0,2.31l2.778,0l0,2.778l2.31,0l0,9.213l-2.31,0l0,14.91l2.31,0l0,9.212l-2.31,0l0,2.778l-2.778,0l0,2.311l-9.212,0l0,-2.311l-14.911,0l0,2.311l-9.212,0l0,-2.311l-2.778,0l0,-2.778l-2.31,0l0,-9.212l2.31,0l0,-14.91l-2.31,0l0,-9.213Z" style="fill:none;stroke:#00f;stroke-width:0.03px;stroke-linecap:round;"/>
    </g>
    <g id="_0.25mm-switch-master5" serif:id="0.25mm switch master">
        <path d="M147.898,79.852l2.31,0l0,-2.778l2.778,0l0,-2.31l9.212,0l0,2.31l14.911,0l0,-2.31l9.212,0l0,2.31l2.778,0l0,2.778l2.31,0l0,9.213l-2.31,0l0,14.91l2.31,0l0,9.212l-2.31,0l0,2.778l-2.778,0l0,2.311l-9.212,0l0,-2.311l-14.911,0l0,2.311l-9.212,0l0,-2.311l-2.778,0l0,-2.778l-2.31,0l0,-9.212l2.31,0l0,-14.91l-2.31,0l0,-9.213Z" style="fill:none;stroke:#00f;stroke-width:0.03px;stroke-linecap:round;"/>
    </g>
    <g id="_0.25mm-switch-master6" serif:id="0.25mm switch master">
        <path d="M201.898,79.852l2.31,0l0,-2.778l2.778,0l0,-2.31l9.212,0l0,2.31l14.911,0l0,-2.31l9.212,0l0,2.31l2.778,0l0,2.778l2.31,0l0,9.213l-2.31,0l0,14.91l2.31,0l0,9.212l-2.31,0l0,2.778l-2.778,0l0,2.311l-9.212,0l0,-2.311l-14.911,0l0,2.311l-9.212,0l0,-2.311l-2.778,0l0,-2.778l-2.31,0l0,-9.212l2.31,0l0,-14.91l-2.31,0l0,-9.213Z" style="fill:none;stroke:#00f;stroke-width:0.03px;stroke-linecap:round;"/>
    </g>
    <g id="_0.25mm-switch-master7" serif:id="0.25mm switch master">
        <path d="M201.898,79.852l2.31,0l0,-2.778l2.778,0l0,-2.31l9.212,0l0,2.31l14.911,0l0,-2.31l9.212,0l0,2.31l2.778,0l0,2.778l2.31,0l0,9.213l-2.31,0l0,14.91l2.31,0l0,9.212l-2.31,0l0,2.778l-2.778,0l0,2.311l-9.212,0l0,-2.311l-14.911,0l0,2.311l-9.212,0l0,-2.311l-2.778,0l0,-2.778l-2.31,0l0,-9.212l2.31,0l0,-14.91l-2.31,0l0,-9.213Z" style="fill:none;stroke:#00f;stroke-width:0.03px;stroke-linecap:round;"/>
    </g>
    <g id="_0.25mm-switch-master8" serif:id="0.25mm switch master">
        <path d="M255.898,79.852l2.31,0l0,-2.778l2.778,0l0,-2.31l9.212,0l0,2.31l14.911,0l0,-2.31l9.212,0l0,2.31l2.778,0l0,2.778l2.31,0l0,9.213l-2.31,0l0,14.91l2.31,0l0,9.212l-2.31,0l0,2.778l-2.778,0l0,2.311l-9.212,0l0,-2.311l-14.911,0l0,2.311l-9.212,0l0,-2.311l-2.778,0l0,-2.778l-2.31,0l0,-9.212l2.31,0l0,-14.91l-2.31,0l0,-9.213Z" style="fill:none;stroke:#00f;stroke-width:0.03px;stroke-linecap:round;"/>
    </g>
    <g id="_0.25mm-switch-master9" serif:id="0.25mm switch master">
        <path d="M255.898,79.852l2.31,0l0,-2.778l2.778,0l0,-2.31l9.212,0l0,2.31l14.911,0l0,-2.31l9.212,0l0,2.31l2.778,0l0,2.778l2.31,0l0,9.213l-2.31,0l0,14.91l2.31,0l0,9.212l-2.31,0l0,2.778l-2.778,0l0,2.311l-9.212,0l0,-2.311l-14.911,0l0,2.311l-9.212,0l0,-2.311l-2.778,0l0,-2.778l-2.31,0l0,-9.212l2.31,0l0,-14.91l-2.31,0l0,-9.213Z" style="fill:none;stroke:#00f;stroke-width:0.03px;stroke-linecap:round;"/>
    </g>
    <g id="_0.25mm-switch-master10" serif:id="0.25mm switch master">
        <path d="M338.244,79.852l2.31,0l0,-2.778l2.778,0l0,-2.31l9.213,0l0,2.31l14.91,0l0,-2.31l9.213,0l0,2.31l2.778,0l0,2.778l2.31,0l0,9.213l-2.31,0l0,14.91l2.31,0l0,9.212l-2.31,0l0,2.778l-2.778,0l0,2.311l-9.213,0l0,-2.311l-14.91,0l0,2.311l-9.213,0l0,-2.311l-2.778,0l0,-2.778l-2.31,0l0,-9.212l2.31,0l0,-14.91l-2.31,0l0,-9.213Z" style="fill:none;stroke:#00f;stroke-width:0.03px;stroke-linecap:round;"/>
    </g>
    <g id="_0.25mm-switch-master11" serif:id="0.25mm switch master">
        <path d="M338.244,79.852l2.31,0l0,-2.778l2.778,0l0,-2.31l9.213,0l0,2.31l14.91,0l0,-2.31l9.213,0l0,2.31l2.778,0l0,2.778l2.31,0l0,9.213l-2.31,0l0,14.91l2.31,0l0,9.212l-2.31,0l0,2.778l-2.778,0l0,2.311l-9.213,0l0,-2.311l-14.91,0l0,2.311l-9.213,0l0,-2.311l-2.778,0l0,-2.778l-2.31,0l0,-9.212l2.31,0l0,-14.91l-2.31,0l0,-9.213Z" style="fill:none;stroke:#00f;stroke-width:0.03px;stroke-linecap:round;"/>
    </g>
    <g id="_0.25mm-switch-master12" serif:id="0.25mm switch master">
        <path d="M392.244,79.852l2.31,0l0,-2.778l2.778,0l0,-2.31l9.213,0l0,2.31l14.91,0l0,-2.31l9.213,0l0,2.31l2.778,0l0,2.778l2.31,0l0,9.213l-2.31,0l0,14.91l2.31,0l0,9.212l-2.31,0l0,2.778l-2.778,0l0,2.311l-9.213,0l0,-2.311l-14.91,0l0,2.311l-9.213,0l0,-2.311l-2.778,0l0,-2.778l-2.31,0l0,-9.212l2.31,0l0,-14.91l-2.31,0l0,-9.213Z" style="fill:none;stroke:#00f;stroke-width:0.03px;stroke-linecap:round;"/>
    </g>
    <g id="_0.25mm-switch-master13" serif:id="0.25mm switch master">
        <path d="M392.244,79.852l2.31,0l0,-2.778l2.778,0l0,-2.31l9.213,0l0,2.31l14.91,0l0,-2.31l9.213,0l0,2.31l2.778,0l0,2.778l2.31,0l0,9.213l-2.31,0l0,14.91l2.31,0l0,9.212l-2.31,0l0,2.778l-2.778,0l0,2.311l-9.213,0l0,-2.311l-14.91,0l0,2.311l-9.213,0l0,-2.311l-2.778,0l0,-2.778l-2.31,0l0,-9.212l2.31,0l0,-14.91l-2.31,0l0,-9.213Z" style="fill:none;stroke:#00f;stroke-width:0.03px;stroke-linecap:round;"/>
    </g>
    <g id="_0.25mm-switch-master14" serif:id="0.25mm switch master">
        <path d="M446.244,79.852l2.31,0l0,-2.778l2.778,0l0,-2.31l9.213,0l0,2.31l14.91,0l0,-2.31l9.213,0l0,2.31l2.778,0l0,2.778l2.31,0l0,9.213l-2.31,0l0,14.91l2.31,0l0,9.212l-2.31,0l0,2.778l-2.778,0l0,2.311l-9.213,0l0,-2.311l-14.91,0l0,2.311l-9.213,0l0,-2.311l-2.778,0l0,-2.778l-2.31,0l0,-9.212l2.31,0l0,-14.91l-2.31,0l0,-9.213Z" style="fill:none;stroke:#00f;stroke-width:0.03px;stroke-linecap:round;"/>
    </g>
    <g id="_0.25mm-switch-master15" serif:id="0.25mm switch master">
        <path d="M446.244,79.852l2.31,0l0,-2.778l2.778,0l0,-2.31l9.213,0l0,2.31l14.91,0l0,-2.31l9.213,0l0,2.31l2.778,0l0,2.778l2.31,0l0,9.213l-2.31,0l0,14.91l2.31,0l0,9.212l-2.31,0l0,2.778l-2.778,0l0,2.311l-9.213,0l0,-2.311l-14.91,0l0,2.311l-9.213,0l0,-2.311l-2.778,0l0,-2.778l-2.31,0l0,-9.212l2.31,0l0,-14.91l-2.31,0l0,-9.213Z" style="fill:none;stroke:#00f;stroke-width:0.03px;stroke-linecap:round;"/>
    </g>
    <g id="_0.25mm-switch-master16" serif:id="0.25mm switch master">
        <path d="M500.244,79.852l2.31,0l0,-2.778l2.778,0l0,-2.31l9.213,0l0,2.31l14.91,0l0,-2.31l9.213,0l0,2.31l2.778,0l0,2.778l2.31,0l0,9.213l-2.31,0l0,14.91l2.31,0l0,9.212l-2.31,0l0,2.778l-2.778,0l0,2.311l-9.213,0l0,-2.311l-14.91,0l0,2.311l-9.213,0l0,-2.311l-2.778,0l0,-2.778l-2.31,0l0,-9.212l2.31,0l0,-14.91l-2.31,0l0,-9.213Z" style="fill:none;stroke:#00f;stroke-width:0.03px;stroke-linecap:round;"/>
    </g>
    <g id="_0.25mm-switch-master17" serif:id="0.25mm switch master">
        <path d="M500.244,79.852l2.31,0l0,-2.778l2.778,0l0,-2.31l9.213,0l0,2.31l14.91,0l0,-2.31l9.213,0l0,2.31l2.778,0l0,2.778l2.31,0l0,9.213l-2.31,0l0,14.91l2.31,0l0,9.212l-2.31,0l0,2.778l-2.778,0l0,2.311l-9.213,0l0,-2.311l-14.91,0l0,2.311l-9.213,0l0,-2.311l-2.778,0l0,-2.778l-2.31,0l0,-9.212l2.31,0l0,-14.91l-2.31,0l0,-9.213Z" style="fill:none;stroke:#00f;stroke-width:0.03px;stroke-linecap:round;"/>
    </g>
    <g id="_0.25mm-switch-master18" serif:id="0.25mm switch master">
        <path d="M554.244,79.852l2.31,0l0,-2.778l2.778,0l0,-2.31l9.213,0l0,2.31l14.91,0l0,-2.31l9.213,0l0,2.31l2.778,0l0,2.778l2.31,0l0,9.213l-2.31,0l0,14.91l2.31,0l0,9.212l-2.31,0l0,2.778l-2.778,0l0,2.311l-9.213,0l0,-2.311l-14.91,0l0,2.311l-9.213,0l0,-2.311l-2.778,0l0,-2.778l-2.31,0l0,-9.212l2.31,0l0,-14.91l-2.31,0l0,-9.213Z" style="fill:none;stroke:#00f;stroke-width:0.03px;stroke-linecap:round;"/>
    </g>
    <g id="_0.25mm-switch-master19" serif:id="0.25mm switch master">
        <path d="M554.244,79.852l2.31,0l0,-2.778l2.778,0l0,-2.31l9.213,0l0,2.31l14.91,0l0,-2.31l9.213,0l0,2.31l2.778,0l0,2.778l2.31,0l0,9.213l-2.31,0l0,14.91l2.31,0l0,9.212l-2.31,0l0,2.778l-2.778,0l0,2.311l-9.213,0l0,-2.311l-14.91,0l0,2.311l-9.213,0l0,-2.311l-2.778,0l0,-2.778l-2.31,0l0,-9.212l2.31,0l0,-14.91l-2.31,0l0,-9.213Z" style="fill:none;stroke:#00f;stroke-width:0.03px;stroke-linecap:round;"/>
    </g>
    <g id="_0.25mm-switch-master20" serif:id="0.25mm switch master">
        <path d="M636.591,79.852l2.31,0l0,-2.778l2.778,0l0,-2.31l9.212,0l0,2.31l14.911,0l0,-2.31l9.212,0l0,2.31l2.778,0l0,2.778l2.31,0l0,9.213l-2.31,0l0,14.91l2.31,0l0,9.212l-2.31,0l0,2.778l-2.778,0l0,2.311l-9.212,0l0,-2.311l-14.911,0l0,2.311l-9.212,0l0,-2.311l-2.778,0l0,-2.778l-2.31,0l0,-9.212l2.31,0l0,-14.91l-2.31,0l0,-9.213Z" style="fill:none;stroke:#00f;stroke-width:0.03px;stroke-linecap:round;"/>
    </g>
    <g id="_0.25mm-switch-master21" serif:id="0.25mm switch master">
        <path d="M636.591,79.852l2.31,0l0,-2.778l2.778,0l0,-2.31l9.212,0l0,2.31l14.911,0l0,-2.31l9.212,0l0,2.31l2.778,0l0,2.778l2.31,0l0,9.213l-2.31,0l0,14.91l2.31,0l0,9.212l-2.31,0l0,2.778l-2.778,0l0,2.311l-9.212,0l0,-2.311l-14.911,0l0,2.311l-9.212,0l0,-2.311l-2.778,0l0,-2.778l-2.31,0l0,-9.212l2.31,0l0,-14.91l-2.31,0l0,-9.213Z" style="fill:none;stroke:#00f;stroke-width:0.03px;stroke-linecap:round;"/>
    </g>
    <g id="_0.25mm-switch-master22" serif:id="0.25mm switch master">
        <path d="M690.591,79.852l2.31,0l0,-2.778l2.778,0l0,-2.31l9.212,0l0,2.31l14.911,0l0,-2.31l9.212,0l0,2.31l2.778,0l0,2.778l2.31,0l0,9.213l-2.31,0l0,14.91l2.31,0l0,9.212l-2.31,0l0,2.778l-2.778,0l0,2.311l-9.212,0l0,-2.311l-14.911,0l0,2.311l-9.212,0l0,-2.311l-2.778,0l0,-2.778l-2.31,0l0,-9.212l2.31,0l0,-14.91l-2.31,0l0,-9.213Z" style="fill:none;stroke:#00f;stroke-width:0.03px;stroke-linecap:round;"/>
    </g>
    <g id="_0.25mm-switch-master23" serif:id="0.25mm switch master">
        <path d="M690.591,79.852l2.31,0l0,-2.778l2.778,0l0,-2.31l9.212,0l0,2.31l14.911,0l0,-2.31l9.212,0l0,2.31l2.778,0l0,2.778l2.31,0l0,9.213l-2.31,0l0,14.91l2.31,0l0,9.212l-2.31,0l0,2.778l-2.778,0l0,2.311l-9.212,0l0,-2.311l-14.911,0l0,2.311l-9.212,0l0,-2.311l-2.778,0l0,-2.778l-2.31,0l0,-9.212l2.31,0l0,-14.91l-2.31,0l0,-9.213Z" style="fill:none;stroke:#00f;stroke-width:0.03px;stroke-linecap:round;"/>
    </g>
    <g id="_0.25mm-switch-master24" serif:id="0.25mm switch master">
        <path d="M744.591,79.852l2.31,0l0,-2.778l2.778,0l0,-2.31l9.212,0l0,2.31l14.911,0l0,-2.31l9.212,0l0,2.31l2.778,0l0,2.778l2.31,0l0,9.213l-2.31,0l0,14.91l2.31,0l0,9.212l-2.31,0l0,2.778l-2.778,0l0,2.311l-9.212,0l0,-2.311l-14.911,0l0,2.311l-9.212,0l0,-2.311l-2.778,0l0,-2.778l-2.31,0l0,-9.212l2.31,0l0,-14.91l-2.31,0l0,-9.213Z" style="fill:none;stroke:#00f;stroke-width:0.03px;stroke-linecap:round;"/>
    </g>
    <g id="_0.25mm-switch-master25" serif:id="0.25mm switch master">
        <path d="M744.591,79.852l2.31,0l0,-2.778l2.778,0l0,-2.31l9.212,0l0,2.31l14.911,0l0,-2.31l9.212,0l0,2.31l2.778,0l0,2.778l2.31,0l0,9.213l-2.31,0l0,14.91l2.31,0l0,9.212l-2.31,0l0,2.778l-2.778,0l0,2.311l-9.212,0l0,-2.311l-14.911,0l0,2.311l-9.212,0l0,-2.311l-2.778,0l0,-2.778l-2.31,0l0,-9.212l2.31,0l0,-14.91l-2.31,0l0,-9.213Z" style="fill:none;stroke:#00f;stroke-width:0.03px;stroke-linecap:round;"/>
    </g>
    <g id="_0.25mm-switch-master26" serif:id="0.25mm switch master">
        <path d="M798.591,79.852l2.31,0l0,-2.778l2.778,0l0,-2.31l9.212,0l0,2.31l14.911,0l0,-2.31l9.212,0l0,2.31l2.778,0l0,2.778l2.31,0l0,9.213l-2.31,0l0,14.91l2.31,0l0,9.212l-2.31,0l0,2.778l-2.778,0l0,2.311l-9.212,0l0,-2.311l-14.911,0l0,2.311l-9.212,0l0,-2.311l-2.778,0l0,-2.778l-2.31,0l0,-9.212l2.31,0l0,-14.91l-2.31,0l0,-9.213Z" style="fill:none;stroke:#00f;stroke-width:0.03px;stroke-linecap:round;"/>
    </g>
    <g id="_0.25mm-switch-master27" serif:id="0.25mm switch master">
        <path d="M798.591,79.852l2.31,0l0,-2.778l2.778,0l0,-2.31l9.212,0l0,2.31l14.911,0l0,-2.31l9.212,0l0,2.31l2.778,0l0,2.778l2.31,0l0,9.213l-2.31,0l0,14.91l2.31,0l0,9.212l-2.31,0l0,2.778l-2.778,0l0,2.311l-9.212,0l0,-2.311l-14.911,0l0,2.311l-9.212,0l0,-2.311l-2.778,0l0,-2.778l-2.31,0l0,-9.212l2.31,0l0,-14.91l-2.31,0l0,-9.213Z" style="fill:none;stroke:#00f;stroke-width:0.03px;stroke-linecap:round;"/>
    </g>
    <g id="_0.25mm-switch-master28" serif:id="0.25mm switch master">
        <path d="M852.591,79.852l2.31,0l0,-2.778l2.778,0l0,-2.31l9.212,0l0,2.31l14.911,0l0,-2.31l9.212,0l0,2.31l2.778,0l0,2.778l2.31,0l0,9.213l-2.31,0l0,14.91l2.31,0l0,9.212l-2.31,0l0,2.778l-2.778,0l0,2.311l-9.212,0l0,-2.311l-14.911,0l0,2.311l-9.212,0l0,-2.311l-2.778,0l0,-2.778l-2.31,0l0,-9.212l2.31,0l0,-14.91l-2.31,0l0,-9.213Z" style="fill:none;stroke:#00f;stroke-width:0.03px;stroke-linecap:round;"/>
    </g>
    <g id="_0.25mm-switch-master29" serif:id="0.25mm switch master">
        <path d="M852.591,79.852l2.31,0l0,-2.778l2.778,0l0,-2.31l9.212,0l0,2.31l14.911,0l0,-2.31l9.212,0l0,2.31l2.778,0l0,2.778l2.31,0l0,9.213l-2.31,0l0,14.91l2.31,0l0,9.212l-2.31,0l0,2.778l-2.778,0l0,2.311l-9.212,0l0,-2.311l-14.911,0l0,2.311l-9.212,0l0,-2.311l-2.778,0l0,-2.778l-2.31,0l0,-9.212l2.31,0l0,-14.91l-2.31,0l0,-9.213Z" style="fill:none;stroke:#00f;stroke-width:0.03px;stroke-linecap:round;"/>
    </g>
    <g id="_0.2mm-switch-master" serif:id="0.2mm switch master">
        <path d="M39.827,25.781l2.31,0l0,-2.778l2.778,0l0,-2.31l9.354,0l0,2.31l14.769,0l0,-2.31l9.354,0l0,2.31l2.778,0l0,2.778l2.31,0l0,9.354l-2.31,0l0,14.769l2.31,0l0,9.354l-2.31,0l0,2.778l-2.778,0l0,2.31l-9.354,0l0,-2.31l-14.769,0l0,2.31l-9.354,0l0,-2.31l-2.778,0l0,-2.778l-2.31,0l0,-9.354l2.31,0l0,-14.769l-2.31,0l0,-9.354Z" style="fill:none;stroke:#00f;stroke-width:0.03px;stroke-linecap:round;"/>
    </g>
    <g id="_0.2mm-switch-master1" serif:id="0.2mm switch master">
        <path d="M39.827,25.781l2.31,0l0,-2.778l2.778,0l0,-2.31l9.354,0l0,2.31l14.769,0l0,-2.31l9.354,0l0,2.31l2.778,0l0,2.778l2.31,0l0,9.354l-2.31,0l0,14.769l2.31,0l0,9.354l-2.31,0l0,2.778l-2.778,0l0,2.31l-9.354,0l0,-2.31l-14.769,0l0,2.31l-9.354,0l0,-2.31l-2.778,0l0,-2.778l-2.31,0l0,-9.354l2.31,0l0,-14.769l-2.31,0l0,-9.354Z" style="fill:none;stroke:#00f;stroke-width:0.03px;stroke-linecap:round;"/>
    </g>
    <g id="_0.2mm-switch-master2" serif:id="0.2mm switch master">
        <path d="M93.827,25.781l2.31,0l0,-2.778l2.778,0l0,-2.31l9.354,0l0,2.31l14.769,0l0,-2.31l9.354,0l0,2.31l2.778,0l0,2.778l2.31,0l0,9.354l-2.31,0l0,14.769l2.31,0l0,9.354l-2.31,0l0,2.778l-2.778,0l0,2.31l-9.354,0l0,-2.31l-14.769,0l0,2.31l-9.354,0l0,-2.31l-2.778,0l0,-2.778l-2.31,0l0,-9.354l2.31,0l0,-14.769l-2.31,0l0,-9.354Z" style="fill:none;stroke:#00f;stroke-width:0.03px;stroke-linecap:round;"/>
    </g>
    <g id="_0.2mm-switch-master3" serif:id="0.2mm switch master">
        <path d="M93.827,25.781l2.31,0l0,-2.778l2.778,0l0,-2.31l9.354,0l0,2.31l14.769,0l0,-2.31l9.354,0l0,2.31l2.778,0l0,2.778l2.31,0l0,9.354l-2.31,0l0,14.769l2.31,0l0,9.354l-2.31,0l0,2.778l-2.778,0l0,2.31l-9.354,0l0,-2.31l-14.769,0l0,2.31l-9.354,0l0,-2.31l-2.778,0l0,-2.778l-2.31,0l0,-9.354l2.31,0l0,-14.769l-2.31,0l0,-9.354Z" style="fill:none;stroke:#00f;stroke-width:0.03px;stroke-linecap:round;"/>
    </g>
    <g id="_0.2mm-switch-master4" serif:id="0.2mm switch master">
        <path d="M147.827,25.781l2.31,0l0,-2.778l2.778,0l0,-2.31l9.354,0l0,2.31l14.769,0l0,-2.31l9.354,0l0,2.31l2.778,0l0,2.778l2.31,0l0,9.354l-2.31,0l0,14.769l2.31,0l0,9.354l-2.31,0l0,2.778l-2.778,0l0,2.31l-9.354,0l0,-2.31l-14.769,0l0,2.31l-9.354,0l0,-2.31l-2.778,0l0,-2.778l-2.31,0l0,-9.354l2.31,0l0,-14.769l-2.31,0l0,-9.354Z" style="fill:none;stroke:#00f;stroke-width:0.03px;stroke-linecap:round;"/>
    </g>
    <g id="_0.2mm-switch-master5" serif:id="0.2mm switch master">
        <path d="M147.827,25.781l2.31,0l0,-2.778l2.778,0l0,-2.31l9.354,0l0,2.31l14.769,0l0,-2.31l9.354,0l0,2.31l2.778,0l0,2.778l2.31,0l0,9.354l-2.31,0l0,14.769l2.31,0l0,9.354l-2.31,0l0,2.778l-2.778,0l0,2.31l-9.354,0l0,-2.31l-14.769,0l0,2.31l-9.354,0l0,-2.31l-2.778,0l0,-2.778l-2.31,0l0,-9.354l2.31,0l0,-14.769l-2.31,0l0,-9.354Z" style="fill:none;stroke:#00f;stroke-width:0.03px;stroke-linecap:round;"/>
    </g>
    <g id="_0.2mm-switch-master6" serif:id="0.2mm switch master">
        <path d="M201.827,25.781l2.31,0l0,-2.778l2.778,0l0,-2.31l9.354,0l0,2.31l14.769,0l0,-2.31l9.354,0l0,2.31l2.778,0l0,2.778l2.31,0l0,9.354l-2.31,0l0,14.769l2.31,0l0,9.354l-2.31,0l0,2.778l-2.778,0l0,2.31l-9.354,0l0,-2.31l-14.769,0l0,2.31l-9.354,0l0,-2.31l-2.778,0l0,-2.778l-2.31,0l0,-9.354l2.31,0l0,-14.769l-2.31,0l0,-9.354Z" style="fill:none;stroke:#00f;stroke-width:0.03px;stroke-linecap:round;"/>
    </g>
    <g id="_0.2mm-switch-master7" serif:id="0.2mm switch master">
        <path d="M201.827,25.781l2.31,0l0,-2.778l2.778,0l0,-2.31l9.354,0l0,2.31l14.769,0l0,-2.31l9.354,0l0,2.31l2.778,0l0,2.778l2.31,0l0,9.354l-2.31,0l0,14.769l2.31,0l0,9.354l-2.31,0l0,2.778l-2.778,0l0,2.31l-9.354,0l0,-2.31l-14.769,0l0,2.31l-9.354,0l0,-2.31l-2.778,0l0,-2.778l-2.31,0l0,-9.354l2.31,0l0,-14.769l-2.31,0l0,-9.354Z" style="fill:none;stroke:#00f;stroke-width:0.03px;stroke-linecap:round;"/>
    </g>
    <g id="_0.2mm-switch-master8" serif:id="0.2mm switch master">
        <path d="M255.827,25.781l2.31,0l0,-2.778l2.778,0l0,-2.31l9.354,0l0,2.31l14.769,0l0,-2.31l9.354,0l0,2.31l2.778,0l0,2.778l2.31,0l0,9.354l-2.31,0l0,14.769l2.31,0l0,9.354l-2.31,0l0,2.778l-2.778,0l0,2.31l-9.354,0l0,-2.31l-14.769,0l0,2.31l-9.354,0l0,-2.31l-2.778,0l0,-2.778l-2.31,0l0,-9.354l2.31,0l0,-14.769l-2.31,0l0,-9.354Z" style="fill:none;stroke:#00f;stroke-width:0.03px;stroke-linecap:round;"/>
    </g>
    <g id="_0.2mm-switch-master9" serif:id="0.2mm switch master">
        <path d="M255.827,25.781l2.31,0l0,-2.778l2.778,0l0,-2.31l9.354,0l0,2.31l14.769,0l0,-2.31l9.354,0l0,2.31l2.778,0l0,2.778l2.31,0l0,9.354l-2.31,0l0,14.769l2.31,0l0,9.354l-2.31,0l0,2.778l-2.778,0l0,2.31l-9.354,0l0,-2.31l-14.769,0l0,2.31l-9.354,0l0,-2.31l-2.778,0l0,-2.778l-2.31,0l0,-9.354l2.31,0l0,-14.769l-2.31,0l0,-9.354Z" style="fill:none;stroke:#00f;stroke-width:0.03px;stroke-linecap:round;"/>
    </g>
    <g id="_0.2mm-switch-master10" serif:id="0.2mm switch master">
        <path d="M338.173,25.781l2.31,0l0,-2.778l2.778,0l0,-2.31l9.355,0l0,2.31l14.768,0l0,-2.31l9.355,0l0,2.31l2.778,0l0,2.778l2.31,0l0,9.354l-2.31,0l0,14.769l2.31,0l0,9.354l-2.31,0l0,2.778l-2.778,0l0,2.31l-9.355,0l0,-2.31l-14.768,0l0,2.31l-9.355,0l0,-2.31l-2.778,0l0,-2.778l-2.31,0l0,-9.354l2.31,0l0,-14.769l-2.31,0l0,-9.354Z" style="fill:none;stroke:#00f;stroke-width:0.03px;stroke-linecap:round;"/>
    </g>
    <g id="_0.2mm-switch-master11" serif:id="0.2mm switch master">
        <path d="M338.173,25.781l2.31,0l0,-2.778l2.778,0l0,-2.31l9.355,0l0,2.31l14.768,0l0,-2.31l9.355,0l0,2.31l2.778,0l0,2.778l2.31,0l0,9.354l-2.31,0l0,14.769l2.31,0l0,9.354l-2.31,0l0,2.778l-2.778,0l0,2.31l-9.355,0l0,-2.31l-14.768,0l0,2.31l-9.355,0l0,-2.31l-2.778,0l0,-2.778l-2.31,0l0,-9.354l2.31,0l0,-14.769l-2.31,0l0,-9.354Z" style="fill:none;stroke:#00f;stroke-width:0.03px;stroke-linecap:round;"/>
    </g>
    <g id="_0.2mm-switch-master12" serif:id="0.2mm switch master">
        <path d="M392.173,25.781l2.31,0l0,-2.778l2.778,0l0,-2.31l9.355,0l0,2.31l14.768,0l0,-2.31l9.355,0l0,2.31l2.778,0l0,2.778l2.31,0l0,9.354l-2.31,0l0,14.769l2.31,0l0,9.354l-2.31,0l0,2.778l-2.778,0l0,2.31l-9.355,0l0,-2.31l-14.768,0l0,2.31l-9.355,0l0,-2.31l-2.778,0l0,-2.778l-2.31,0l0,-9.354l2.31,0l0,-14.769l-2.31,0l0,-9.354Z" style="fill:none;stroke:#00f;stroke-width:0.03px;stroke-linecap:round;"/>
    </g>
    <g id="_0.2mm-switch-master13" serif:id="0.2mm switch master">
        <path d="M392.173,25.781l2.31,0l0,-2.778l2.778,0l0,-2.31l9.355,0l0,2.31l14.768,0l0,-2.31l9.355,0l0,2.31l2.778,0l0,2.778l2.31,0l0,9.354l-2.31,0l0,14.769l2.31,0l0,9.354l-2.31,0l0,2.778l-2.778,0l0,2.31l-9.355,0l0,-2.31l-14.768,0l0,2.31l-9.355,0l0,-2.31l-2.778,0l0,-2.778l-2.31,0l0,-9.354l2.31,0l0,-14.769l-2.31,0l0,-9.354Z" style="fill:none;stroke:#00f;stroke-width:0.03px;stroke-linecap:round;"/>
    </g>
    <g id="_0.2mm-switch-master14" serif:id="0.2mm switch master">
        <path d="M446.173,25.781l2.31,0l0,-2.778l2.778,0l0,-2.31l9.355,0l0,2.31l14.768,0l0,-2.31l9.355,0l0,2.31l2.778,0l0,2.778l2.31,0l0,9.354l-2.31,0l0,14.769l2.31,0l0,9.354l-2.31,0l0,2.778l-2.778,0l0,2.31l-9.355,0l0,-2.31l-14.768,0l0,2.31l-9.355,0l0,-2.31l-2.778,0l0,-2.778l-2.31,0l0,-9.354l2.31,0l0,-14.769l-2.31,0l0,-9.354Z" style="fill:none;stroke:#00f;stroke-width:0.03px;stroke-linecap:round;"/>
    </g>
    <g id="_0.2mm-switch-master15" serif:id="0.2mm switch master">
        <path d="M446.173,25.781l2.31,0l0,-2.778l2.778,0l0,-2.31l9.355,0l0,2.31l14.768,0l0,-2.31l9.355,0l0,2.31l2.778,0l0,2.778l2.31,0l0,9.354l-2.31,0l0,14.769l2.31,0l0,9.354l-2.31,0l0,2.778l-2.778,0l0,2.31l-9.355,0l0,-2.31l-14.768,0l0,2.31l-9.355,0l0,-2.31l-2.778,0l0,-2.778l-2.31,0l0,-9.354l2.31,0l0,-14.769l-2.31,0l0,-9.354Z" style="fill:none;stroke:#00f;stroke-width:0.03px;stroke-linecap:round;"/>
    </g>
    <g id="_0.2mm-switch-master16" serif:id="0.2mm switch master">
        <path d="M500.173,25.781l2.31,0l0,-2.778l2.778,0l0,-2.31l9.355,0l0,2.31l14.768,0l0,-2.31l9.355,0l0,2.31l2.778,0l0,2.778l2.31,0l0,9.354l-2.31,0l0,14.769l2.31,0l0,9.354l-2.31,0l0,2.778l-2.778,0l0,2.31l-9.355,0l0,-2.31l-14.768,0l0,2.31l-9.355,0l0,-2.31l-2.778,0l0,-2.778l-2.31,0l0,-9.354l2.31,0l0,-14.769l-2.31,0l0,-9.354Z" style="fill:none;stroke:#00f;stroke-width:0.03px;stroke-linecap:round;"/>
    </g>
    <g id="_0.2mm-switch-master17" serif:id="0.2mm switch master">
        <path d="M500.173,25.781l2.31,0l0,-2.778l2.778,0l0,-2.31l9.355,0l0,2.31l14.768,0l0,-2.31l9.355,0l0,2.31l2.778,0l0,2.778l2.31,0l0,9.354l-2.31,0l0,14.769l2.31,0l0,9.354l-2.31,0l0,2.778l-2.778,0l0,2.31l-9.355,0l0,-2.31l-14.768,0l0,2.31l-9.355,0l0,-2.31l-2.778,0l0,-2.778l-2.31,0l0,-9.354l2.31,0l0,-14.769l-2.31,0l0,-9.354Z" style="fill:none;stroke:#00f;stroke-width:0.03px;stroke-linecap:round;"/>
    </g>
    <g id="_0.2mm-switch-master18" serif:id="0.2mm switch master">
        <path d="M554.173,25.781l2.31,0l0,-2.778l2.778,0l0,-2.31l9.355,0l0,2.31l14.768,0l0,-2.31l9.355,0l0,2.31l2.778,0l0,2.778l2.31,0l0,9.354l-2.31,0l0,14.769l2.31,0l0,9.354l-2.31,0l0,2.778l-2.778,0l0,2.31l-9.355,0l0,-2.31l-14.768,0l0,2.31l-9.355,0l0,-2.31l-2.778,0l0,-2.778l-2.31,0l0,-9.354l2.31,0l0,-14.769l-2.31,0l0,-9.354Z" style="fill:none;stroke:#00f;stroke-width:0.03px;stroke-linecap:round;"/>
    </g>
    <g id="_0.2mm-switch-master19" serif:id="0.2mm switch master">
        <path d="M554.173,25.781l2.31,0l0,-2.778l2.778,0l0,-2.31l9.355,0l0,2.31l14.768,0l0,-2.31l9.355,0l0,2.31l2.778,0l0,2.778l2.31,0l0,9.354l-2.31,0l0,14.769l2.31,0l0,9.354l-2.31,0l0,2.778l-2.778,0l0,2.31l-9.355,0l0,-2.31l-14.768,0l0,2.31l-9.355,0l0,-2.31l-2.778,0l0,-2.778l-2.31,0l0,-9.354l2.31,0l0,-14.769l-2.31,0l0,-9.354Z" style="fill:none;stroke:#00f;stroke-width:0.03px;stroke-linecap:round;"/>
    </g>
    <g id="_0.2mm-switch-master20" serif:id="0.2mm switch master">
        <path d="M636.52,25.781l2.31,0l0,-2.778l2.778,0l0,-2.31l9.354,0l0,2.31l14.769,0l0,-2.31l9.354,0l0,2.31l2.778,0l0,2.778l2.31,0l0,9.354l-2.31,0l0,14.769l2.31,0l0,9.354l-2.31,0l0,2.778l-2.778,0l0,2.31l-9.354,0l0,-2.31l-14.769,0l0,2.31l-9.354,0l0,-2.31l-2.778,0l0,-2.778l-2.31,0l0,-9.354l2.31,0l0,-14.769l-2.31,0l0,-9.354Z" style="fill:none;stroke:#00f;stroke-width:0.03px;stroke-linecap:round;"/>
    </g>
    <g id="_0.2mm-switch-master21" serif:id="0.2mm switch master">
        <path d="M636.52,25.781l2.31,0l0,-2.778l2.778,0l0,-2.31l9.354,0l0,2.31l14.769,0l0,-2.31l9.354,0l0,2.31l2.778,0l0,2.778l2.31,0l0,9.354l-2.31,0l0,14.769l2.31,0l0,9.354l-2.31,0l0,2.778l-2.778,0l0,2.31l-9.354,0l0,-2.31l-14.769,0l0,2.31l-9.354,0l0,-2.31l-2.778,0l0,-2.778l-2.31,0l0,-9.354l2.31,0l0,-14.769l-2.31,0l0,-9.354Z" style="fill:none;stroke:#00f;stroke-width:0.03px;stroke-linecap:round;"/>
    </g>
    <g id="_0.2mm-switch-master22" serif:id="0.2mm switch master">
        <path d="M690.52,25.781l2.31,0l0,-2.778l2.778,0l0,-2.31l9.354,0l0,2.31l14.769,0l0,-2.31l9.354,0l0,2.31l2.778,0l0,2.778l2.31,0l0,9.354l-2.31,0l0,14.769l2.31,0l0,9.354l-2.31,0l0,2.778l-2.778,0l0,2.31l-9.354,0l0,-2.31l-14.769,0l0,2.31l-9.354,0l0,-2.31l-2.778,0l0,-2.778l-2.31,0l0,-9.354l2.31,0l0,-14.769l-2.31,0l0,-9.354Z" style="fill:none;stroke:#00f;stroke-width:0.03px;stroke-linecap:round;"/>
    </g>
    <g id="_0.2mm-switch-master23" serif:id="0.2mm switch master">
        <path d="M690.52,25.781l2.31,0l0,-2.778l2.778,0l0,-2.31l9.354,0l0,2.31l14.769,0l0,-2.31l9.354,0l0,2.31l2.778,0l0,2.778l2.31,0l0,9.354l-2.31,0l0,14.769l2.31,0l0,9.354l-2.31,0l0,2.778l-2.778,0l0,2.31l-9.354,0l0,-2.31l-14.769,0l0,2.31l-9.354,0l0,-2.31l-2.778,0l0,-2.778l-2.31,0l0,-9.354l2.31,0l0,-14.769l-2.31,0l0,-9.354Z" style="fill:none;stroke:#00f;stroke-width:0.03px;stroke-linecap:round;"/>
    </g>
    <g id="_0.2mm-switch-master24" serif:id="0.2mm switch master">
        <path d="M744.52,25.781l2.31,0l0,-2.778l2.778,0l0,-2.31l9.354,0l0,2.31l14.769,0l0,-2.31l9.354,0l0,2.31l2.778,0l0,2.778l2.31,0l0,9.354l-2.31,0l0,14.769l2.31,0l0,9.354l-2.31,0l0,2.778l-2.778,0l0,2.31l-9.354,0l0,-2.31l-14.769,0l0,2.31l-9.354,0l0,-2.31l-2.778,0l0,-2.778l-2.31,0l0,-9.354l2.31,0l0,-14.769l-2.31,0l0,-9.354Z" style="fill:none;stroke:#00f;stroke-width:0.03px;stroke-linecap:round;"/>
    </g>
    <g id="_0.2mm-switch-master25" serif:id="0.2mm switch master">
        <path d="M744.52,25.781l2.31,0l0,-2.778l2.778,0l0,-2.31l9.354,0l0,2.31l14.769,0l0,-2.31l9.354,0l0,2.31l2.778,0l0,2.778l2.31,0l0,9.354l-2.31,0l0,14.769l2.31,0l0,9.354l-2.31,0l0,2.778l-2.778,0l0,2.31l-9.354,0l0,-2.31l-14.769,0l0,2.31l-9.354,0l0,-2.31l-2.778,0l0,-2.778l-2.31,0l0,-9.354l2.31,0l0,-14.769l-2.31,0l0,-9.354Z" style="fill:none;stroke:#00f;stroke-width:0.03px;stroke-linecap:round;"/>
    </g>
    <g id="_0.2mm-switch-master26" serif:id="0.2mm switch master">
        <path d="M798.52,25.781l2.31,0l0,-2.778l2.778,0l0,-2.31l9.354,0l0,2.31l14.769,0l0,-2.31l9.354,0l0,2.31l2.778,0l0,2.778l2.31,0l0,9.354l-2.31,0l0,14.769l2.31,0l0,9.354l-2.31,0l0,2.778l-2.778,0l0,2.31l-9.354,0l0,-2.31l-14.769,0l0,2.31l-9.354,0l0,-2.31l-2.778,0l0,-2.778l-2.31,0l0,-9.354l2.31,0l0,-14.769l-2.31,0l0,-9.354Z" style="fill:none;stroke:#00f;stroke-width:0.03px;stroke-linecap:round;"/>
    </g>
    <g id="_0.2mm-switch-master27" serif:id="0.2mm switch master">
        <path d="M798.52,25.781l2.31,0l0,-2.778l2.778,0l0,-2.31l9.354,0l0,2.31l14.769,0l0,-2.31l9.354,0l0,2.31l2.778,0l0,2.778l2.31,0l0,9.354l-2.31,0l0,14.769l2.31,0l0,9.354l-2.31,0l0,2.778l-2.778,0l0,2.31l-9.354,0l0,-2.31l-14.769,0l0,2.31l-9.354,0l0,-2.31l-2.778,0l0,-2.778l-2.31,0l0,-9.354l2.31,0l0,-14.769l-2.31,0l0,-9.354Z" style="fill:none;stroke:#00f;stroke-width:0.03px;stroke-linecap:round;"/>
    </g>
    <g id="_0.2mm-switch-master28" serif:id="0.2mm switch master">
        <path d="M852.52,25.781l2.31,0l0,-2.778l2.778,0l0,-2.31l9.354,0l0,2.31l14.769,0l0,-2.31l9.354,0l0,2.31l2.778,0l0,2.778l2.31,0l0,9.354l-2.31,0l0,14.769l2.31,0l0,9.354l-2.31,0l0,2.778l-2.778,0l0,2.31l-9.354,0l0,-2.31l-14.769,0l0,2.31l-9.354,0l0,-2.31l-2.778,0l0,-2.778l-2.31,0l0,-9.354l2.31,0l0,-14.769l-2.31,0l0,-9.354Z" style="fill:none;stroke:#00f;stroke-width:0.03px;stroke-linecap:round;"/>
    </g>
    <g id="_0.2mm-switch-master29" serif:id="0.2mm switch master">
        <path d="M852.52,25.781l2.31,0l0,-2.778l2.778,0l0,-2.31l9.354,0l0,2.31l14.769,0l0,-2.31l9.354,0l0,2.31l2.778,0l0,2.778l2.31,0l0,9.354l-2.31,0l0,14.769l2.31,0l0,9.354l-2.31,0l0,2.778l-2.778,0l0,2.31l-9.354,0l0,-2.31l-14.769,0l0,2.31l-9.354,0l0,-2.31l-2.778,0l0,-2.778l-2.31,0l0,-9.354l2.31,0l0,-14.769l-2.31,0l0,-9.354Z" style="fill:none;stroke:#00f;stroke-width:0.03px;stroke-linecap:round;"/>
    </g>
    <path d="M72,763.654l0,14.173l792,0l0,-14.173l-792,0Z" style="fill:none;stroke:#00f;stroke-width:0.03px;stroke-linecap:round;stroke-linejoin:round;"/>
    <path d="M864,763.654l0,-14.174l-792,0l0,14.174" style="fill:none;stroke:#00f;stroke-width:0.03px;stroke-linecap:round;stroke-linejoin:round;"/>
    <path d="M864,749.48l0,-14.173l-792,0l0,14.173" style="fill:none;stroke:#00f;stroke-width:0.03px;stroke-linecap:round;stroke-linejoin:round;"/>
    <path d="M864,735.307l0,-14.173l-792,0l0,14.173" style="fill:none;stroke:#00f;stroke-width:0.03px;stroke-linecap:round;stroke-linejoin:round;"/>
</svg>
