<?xml version="1.0" encoding="UTF-8" standalone="no"?>
<!DOCTYPE svg PUBLIC "-//W3C//DTD SVG 1.1//EN" "http://www.w3.org/Graphics/SVG/1.1/DTD/svg11.dtd">
<svg width="1248px" height="1056px" version="1.1" xmlns="http://www.w3.org/2000/svg" xmlns:xlink="http://www.w3.org/1999/xlink" xml:space="preserve" xmlns:serif="http://www.serif.com/" style="fill-rule:evenodd;clip-rule:evenodd;stroke-miterlimit:1.5;">
    <g id="_0.35mm-switch-master" serif:id="0.35mm switch master">
        <path d="M53.386,250.658l3.08,0l0,-3.704l3.633,0l0,-3.08l11.905,0l0,3.08l20.33,0l0,-3.08l11.905,0l0,3.08l3.704,0l0,3.704l3.081,0l0,11.906l-3.081,0l0,20.258l3.081,0l0,11.906l-3.081,0l0,3.703l-3.704,0l0,3.081l-11.905,0l0,-3.081l-20.33,0l0,3.081l-11.905,0l0,-3.081l-3.633,0l0,-3.703l-3.08,0l0,-11.906l3.08,0l0,-20.258l-3.08,0l0,-11.906Z" style="fill:none;stroke:#00f;stroke-width:0.04px;"/>
    </g>
    <g id="_0.35mm-switch-master1" serif:id="0.35mm switch master">
        <path d="M53.386,250.658l3.08,0l0,-3.704l3.633,0l0,-3.08l11.905,0l0,3.08l20.33,0l0,-3.08l11.905,0l0,3.08l3.704,0l0,3.704l3.081,0l0,11.906l-3.081,0l0,20.258l3.081,0l0,11.906l-3.081,0l0,3.703l-3.704,0l0,3.081l-11.905,0l0,-3.081l-20.33,0l0,3.081l-11.905,0l0,-3.081l-3.633,0l0,-3.703l-3.08,0l0,-11.906l3.08,0l0,-20.258l-3.08,0l0,-11.906Z" style="fill:none;stroke:#00f;stroke-width:0.04px;"/>
    </g>
    <g id="_0.35mm-switch-master2" serif:id="0.35mm switch master">
        <path d="M125.386,250.658l3.08,0l0,-3.704l3.633,0l0,-3.08l11.905,0l0,3.08l20.33,0l0,-3.08l11.905,0l0,3.08l3.704,0l0,3.704l3.081,0l0,11.906l-3.081,0l0,20.258l3.081,0l0,11.906l-3.081,0l0,3.703l-3.704,0l0,3.081l-11.905,0l0,-3.081l-20.33,0l0,3.081l-11.905,0l0,-3.081l-3.633,0l0,-3.703l-3.08,0l0,-11.906l3.08,0l0,-20.258l-3.08,0l0,-11.906Z" style="fill:none;stroke:#00f;stroke-width:0.04px;"/>
    </g>
    <g id="_0.35mm-switch-master3" serif:id="0.35mm switch master">
        <path d="M125.386,250.658l3.08,0l0,-3.704l3.633,0l0,-3.08l11.905,0l0,3.08l20.33,0l0,-3.08l11.905,0l0,3.08l3.704,0l0,3.704l3.081,0l0,11.906l-3.081,0l0,20.258l3.081,0l0,11.906l-3.081,0l0,3.703l-3.704,0l0,3.081l-11.905,0l0,-3.081l-20.33,0l0,3.081l-11.905,0l0,-3.081l-3.633,0l0,-3.703l-3.08,0l0,-11.906l3.08,0l0,-20.258l-3.08,0l0,-11.906Z" style="fill:none;stroke:#00f;stroke-width:0.04px;"/>
    </g>
    <g id="_0.35mm-switch-master4" serif:id="0.35mm switch master">
        <path d="M197.386,250.658l3.08,0l0,-3.704l3.633,0l0,-3.08l11.905,0l0,3.08l20.33,0l0,-3.08l11.905,0l0,3.08l3.704,0l0,3.704l3.081,0l0,11.906l-3.081,0l0,20.258l3.081,0l0,11.906l-3.081,0l0,3.703l-3.704,0l0,3.081l-11.905,0l0,-3.081l-20.33,0l0,3.081l-11.905,0l0,-3.081l-3.633,0l0,-3.703l-3.08,0l0,-11.906l3.08,0l0,-20.258l-3.08,0l0,-11.906Z" style="fill:none;stroke:#00f;stroke-width:0.04px;"/>
    </g>
    <g id="_0.35mm-switch-master5" serif:id="0.35mm switch master">
        <path d="M197.386,250.658l3.08,0l0,-3.704l3.633,0l0,-3.08l11.905,0l0,3.08l20.33,0l0,-3.08l11.905,0l0,3.08l3.704,0l0,3.704l3.081,0l0,11.906l-3.081,0l0,20.258l3.081,0l0,11.906l-3.081,0l0,3.703l-3.704,0l0,3.081l-11.905,0l0,-3.081l-20.33,0l0,3.081l-11.905,0l0,-3.081l-3.633,0l0,-3.703l-3.08,0l0,-11.906l3.08,0l0,-20.258l-3.08,0l0,-11.906Z" style="fill:none;stroke:#00f;stroke-width:0.04px;"/>
    </g>
    <g id="_0.35mm-switch-master6" serif:id="0.35mm switch master">
        <path d="M269.386,250.658l3.08,0l0,-3.704l3.633,0l0,-3.08l11.905,0l0,3.08l20.33,0l0,-3.08l11.905,0l0,3.08l3.704,0l0,3.704l3.081,0l0,11.906l-3.081,0l0,20.258l3.081,0l0,11.906l-3.081,0l0,3.703l-3.704,0l0,3.081l-11.905,0l0,-3.081l-20.33,0l0,3.081l-11.905,0l0,-3.081l-3.633,0l0,-3.703l-3.08,0l0,-11.906l3.08,0l0,-20.258l-3.08,0l0,-11.906Z" style="fill:none;stroke:#00f;stroke-width:0.04px;"/>
    </g>
    <g id="_0.35mm-switch-master7" serif:id="0.35mm switch master">
        <path d="M269.386,250.658l3.08,0l0,-3.704l3.633,0l0,-3.08l11.905,0l0,3.08l20.33,0l0,-3.08l11.905,0l0,3.08l3.704,0l0,3.704l3.081,0l0,11.906l-3.081,0l0,20.258l3.081,0l0,11.906l-3.081,0l0,3.703l-3.704,0l0,3.081l-11.905,0l0,-3.081l-20.33,0l0,3.081l-11.905,0l0,-3.081l-3.633,0l0,-3.703l-3.08,0l0,-11.906l3.08,0l0,-20.258l-3.08,0l0,-11.906Z" style="fill:none;stroke:#00f;stroke-width:0.04px;"/>
    </g>
    <g id="_0.35mm-switch-master8" serif:id="0.35mm switch master">
        <path d="M341.386,250.658l3.08,0l0,-3.704l3.633,0l0,-3.08l11.905,0l0,3.08l20.33,0l0,-3.08l11.905,0l0,3.08l3.704,0l0,3.704l3.081,0l0,11.906l-3.081,0l0,20.258l3.081,0l0,11.906l-3.081,0l0,3.703l-3.704,0l0,3.081l-11.905,0l0,-3.081l-20.33,0l0,3.081l-11.905,0l0,-3.081l-3.633,0l0,-3.703l-3.08,0l0,-11.906l3.08,0l0,-20.258l-3.08,0l0,-11.906Z" style="fill:none;stroke:#00f;stroke-width:0.04px;"/>
    </g>
    <g id="_0.35mm-switch-master9" serif:id="0.35mm switch master">
        <path d="M341.386,250.658l3.08,0l0,-3.704l3.633,0l0,-3.08l11.905,0l0,3.08l20.33,0l0,-3.08l11.905,0l0,3.08l3.704,0l0,3.704l3.081,0l0,11.906l-3.081,0l0,20.258l3.081,0l0,11.906l-3.081,0l0,3.703l-3.704,0l0,3.081l-11.905,0l0,-3.081l-20.33,0l0,3.081l-11.905,0l0,-3.081l-3.633,0l0,-3.703l-3.08,0l0,-11.906l3.08,0l0,-20.258l-3.08,0l0,-11.906Z" style="fill:none;stroke:#00f;stroke-width:0.04px;"/>
    </g>
    <g id="_0.35mm-switch-master10" serif:id="0.35mm switch master">
        <path d="M451.181,250.658l3.08,0l0,-3.704l3.633,0l0,-3.08l11.905,0l0,3.08l20.33,0l0,-3.08l11.906,0l0,3.08l3.704,0l0,3.704l3.08,0l0,11.906l-3.08,0l0,20.258l3.08,0l0,11.906l-3.08,0l0,3.703l-3.704,0l0,3.081l-11.906,0l0,-3.081l-20.33,0l0,3.081l-11.905,0l0,-3.081l-3.633,0l0,-3.703l-3.08,0l0,-11.906l3.08,0l0,-20.258l-3.08,0l0,-11.906Z" style="fill:none;stroke:#00f;stroke-width:0.04px;"/>
    </g>
    <g id="_0.35mm-switch-master11" serif:id="0.35mm switch master">
        <path d="M451.181,250.658l3.08,0l0,-3.704l3.633,0l0,-3.08l11.905,0l0,3.08l20.33,0l0,-3.08l11.906,0l0,3.08l3.704,0l0,3.704l3.08,0l0,11.906l-3.08,0l0,20.258l3.08,0l0,11.906l-3.08,0l0,3.703l-3.704,0l0,3.081l-11.906,0l0,-3.081l-20.33,0l0,3.081l-11.905,0l0,-3.081l-3.633,0l0,-3.703l-3.08,0l0,-11.906l3.08,0l0,-20.258l-3.08,0l0,-11.906Z" style="fill:none;stroke:#00f;stroke-width:0.04px;"/>
    </g>
    <g id="_0.35mm-switch-master12" serif:id="0.35mm switch master">
        <path d="M523.181,250.658l3.08,0l0,-3.704l3.633,0l0,-3.08l11.905,0l0,3.08l20.33,0l0,-3.08l11.906,0l0,3.08l3.704,0l0,3.704l3.08,0l0,11.906l-3.08,0l0,20.258l3.08,0l0,11.906l-3.08,0l0,3.703l-3.704,0l0,3.081l-11.906,0l0,-3.081l-20.33,0l0,3.081l-11.905,0l0,-3.081l-3.633,0l0,-3.703l-3.08,0l0,-11.906l3.08,0l0,-20.258l-3.08,0l0,-11.906Z" style="fill:none;stroke:#00f;stroke-width:0.04px;"/>
    </g>
    <g id="_0.35mm-switch-master13" serif:id="0.35mm switch master">
        <path d="M523.181,250.658l3.08,0l0,-3.704l3.633,0l0,-3.08l11.905,0l0,3.08l20.33,0l0,-3.08l11.906,0l0,3.08l3.704,0l0,3.704l3.08,0l0,11.906l-3.08,0l0,20.258l3.08,0l0,11.906l-3.08,0l0,3.703l-3.704,0l0,3.081l-11.906,0l0,-3.081l-20.33,0l0,3.081l-11.905,0l0,-3.081l-3.633,0l0,-3.703l-3.08,0l0,-11.906l3.08,0l0,-20.258l-3.08,0l0,-11.906Z" style="fill:none;stroke:#00f;stroke-width:0.04px;"/>
    </g>
    <g id="_0.35mm-switch-master14" serif:id="0.35mm switch master">
        <path d="M595.181,250.658l3.08,0l0,-3.704l3.633,0l0,-3.08l11.905,0l0,3.08l20.33,0l0,-3.08l11.906,0l0,3.08l3.704,0l0,3.704l3.08,0l0,11.906l-3.08,0l0,20.258l3.08,0l0,11.906l-3.08,0l0,3.703l-3.704,0l0,3.081l-11.906,0l0,-3.081l-20.33,0l0,3.081l-11.905,0l0,-3.081l-3.633,0l0,-3.703l-3.08,0l0,-11.906l3.08,0l0,-20.258l-3.08,0l0,-11.906Z" style="fill:none;stroke:#00f;stroke-width:0.04px;"/>
    </g>
    <g id="_0.35mm-switch-master15" serif:id="0.35mm switch master">
        <path d="M595.181,250.658l3.08,0l0,-3.704l3.633,0l0,-3.08l11.905,0l0,3.08l20.33,0l0,-3.08l11.906,0l0,3.08l3.704,0l0,3.704l3.08,0l0,11.906l-3.08,0l0,20.258l3.08,0l0,11.906l-3.08,0l0,3.703l-3.704,0l0,3.081l-11.906,0l0,-3.081l-20.33,0l0,3.081l-11.905,0l0,-3.081l-3.633,0l0,-3.703l-3.08,0l0,-11.906l3.08,0l0,-20.258l-3.08,0l0,-11.906Z" style="fill:none;stroke:#00f;stroke-width:0.04px;"/>
    </g>
    <g id="_0.35mm-switch-master16" serif:id="0.35mm switch master">
        <path d="M667.181,250.658l3.08,0l0,-3.704l3.633,0l0,-3.08l11.905,0l0,3.08l20.33,0l0,-3.08l11.906,0l0,3.08l3.704,0l0,3.704l3.08,0l0,11.906l-3.08,0l0,20.258l3.08,0l0,11.906l-3.08,0l0,3.703l-3.704,0l0,3.081l-11.906,0l0,-3.081l-20.33,0l0,3.081l-11.905,0l0,-3.081l-3.633,0l0,-3.703l-3.08,0l0,-11.906l3.08,0l0,-20.258l-3.08,0l0,-11.906Z" style="fill:none;stroke:#00f;stroke-width:0.04px;"/>
    </g>
    <g id="_0.35mm-switch-master17" serif:id="0.35mm switch master">
        <path d="M667.181,250.658l3.08,0l0,-3.704l3.633,0l0,-3.08l11.905,0l0,3.08l20.33,0l0,-3.08l11.906,0l0,3.08l3.704,0l0,3.704l3.08,0l0,11.906l-3.08,0l0,20.258l3.08,0l0,11.906l-3.08,0l0,3.703l-3.704,0l0,3.081l-11.906,0l0,-3.081l-20.33,0l0,3.081l-11.905,0l0,-3.081l-3.633,0l0,-3.703l-3.08,0l0,-11.906l3.08,0l0,-20.258l-3.08,0l0,-11.906Z" style="fill:none;stroke:#00f;stroke-width:0.04px;"/>
    </g>
    <g id="_0.35mm-switch-master18" serif:id="0.35mm switch master">
        <path d="M739.181,250.658l3.08,0l0,-3.704l3.633,0l0,-3.08l11.905,0l0,3.08l20.33,0l0,-3.08l11.906,0l0,3.08l3.704,0l0,3.704l3.08,0l0,11.906l-3.08,0l0,20.258l3.08,0l0,11.906l-3.08,0l0,3.703l-3.704,0l0,3.081l-11.906,0l0,-3.081l-20.33,0l0,3.081l-11.905,0l0,-3.081l-3.633,0l0,-3.703l-3.08,0l0,-11.906l3.08,0l0,-20.258l-3.08,0l0,-11.906Z" style="fill:none;stroke:#00f;stroke-width:0.04px;"/>
    </g>
    <g id="_0.35mm-switch-master19" serif:id="0.35mm switch master">
        <path d="M739.181,250.658l3.08,0l0,-3.704l3.633,0l0,-3.08l11.905,0l0,3.08l20.33,0l0,-3.08l11.906,0l0,3.08l3.704,0l0,3.704l3.08,0l0,11.906l-3.08,0l0,20.258l3.08,0l0,11.906l-3.08,0l0,3.703l-3.704,0l0,3.081l-11.906,0l0,-3.081l-20.33,0l0,3.081l-11.905,0l0,-3.081l-3.633,0l0,-3.703l-3.08,0l0,-11.906l3.08,0l0,-20.258l-3.08,0l0,-11.906Z" style="fill:none;stroke:#00f;stroke-width:0.04px;"/>
    </g>
    <g id="_0.35mm-switch-master20" serif:id="0.35mm switch master">
        <path d="M848.976,250.658l3.081,0l0,-3.704l3.632,0l0,-3.08l11.906,0l0,3.08l20.329,0l0,-3.08l11.906,0l0,3.08l3.704,0l0,3.704l3.08,0l0,11.906l-3.08,0l0,20.258l3.08,0l0,11.906l-3.08,0l0,3.703l-3.704,0l0,3.081l-11.906,0l0,-3.081l-20.329,0l0,3.081l-11.906,0l0,-3.081l-3.632,0l0,-3.703l-3.081,0l0,-11.906l3.081,0l0,-20.258l-3.081,0l0,-11.906Z" style="fill:none;stroke:#00f;stroke-width:0.04px;"/>
    </g>
    <g id="_0.35mm-switch-master21" serif:id="0.35mm switch master">
        <path d="M848.976,250.658l3.081,0l0,-3.704l3.632,0l0,-3.08l11.906,0l0,3.08l20.329,0l0,-3.08l11.906,0l0,3.08l3.704,0l0,3.704l3.08,0l0,11.906l-3.08,0l0,20.258l3.08,0l0,11.906l-3.08,0l0,3.703l-3.704,0l0,3.081l-11.906,0l0,-3.081l-20.329,0l0,3.081l-11.906,0l0,-3.081l-3.632,0l0,-3.703l-3.081,0l0,-11.906l3.081,0l0,-20.258l-3.081,0l0,-11.906Z" style="fill:none;stroke:#00f;stroke-width:0.04px;"/>
    </g>
    <g id="_0.35mm-switch-master22" serif:id="0.35mm switch master">
        <path d="M920.976,250.658l3.081,0l0,-3.704l3.632,0l0,-3.08l11.906,0l0,3.08l20.329,0l0,-3.08l11.906,0l0,3.08l3.704,0l0,3.704l3.08,0l0,11.906l-3.08,0l0,20.258l3.08,0l0,11.906l-3.08,0l0,3.703l-3.704,0l0,3.081l-11.906,0l0,-3.081l-20.329,0l0,3.081l-11.906,0l0,-3.081l-3.632,0l0,-3.703l-3.081,0l0,-11.906l3.081,0l0,-20.258l-3.081,0l0,-11.906Z" style="fill:none;stroke:#00f;stroke-width:0.04px;"/>
    </g>
    <g id="_0.35mm-switch-master23" serif:id="0.35mm switch master">
        <path d="M920.976,250.658l3.081,0l0,-3.704l3.632,0l0,-3.08l11.906,0l0,3.08l20.329,0l0,-3.08l11.906,0l0,3.08l3.704,0l0,3.704l3.08,0l0,11.906l-3.08,0l0,20.258l3.08,0l0,11.906l-3.08,0l0,3.703l-3.704,0l0,3.081l-11.906,0l0,-3.081l-20.329,0l0,3.081l-11.906,0l0,-3.081l-3.632,0l0,-3.703l-3.081,0l0,-11.906l3.081,0l0,-20.258l-3.081,0l0,-11.906Z" style="fill:none;stroke:#00f;stroke-width:0.04px;"/>
    </g>
    <g id="_0.35mm-switch-master24" serif:id="0.35mm switch master">
        <path d="M992.976,250.658l3.081,0l0,-3.704l3.632,0l0,-3.08l11.906,0l0,3.08l20.329,0l0,-3.08l11.906,0l0,3.08l3.704,0l0,3.704l3.08,0l0,11.906l-3.08,0l0,20.258l3.08,0l0,11.906l-3.08,0l0,3.703l-3.704,0l0,3.081l-11.906,0l0,-3.081l-20.329,0l0,3.081l-11.906,0l0,-3.081l-3.632,0l0,-3.703l-3.081,0l0,-11.906l3.081,0l0,-20.258l-3.081,0l0,-11.906Z" style="fill:none;stroke:#00f;stroke-width:0.04px;"/>
    </g>
    <g id="_0.35mm-switch-master25" serif:id="0.35mm switch master">
        <path d="M992.976,250.658l3.081,0l0,-3.704l3.632,0l0,-3.08l11.906,0l0,3.08l20.329,0l0,-3.08l11.906,0l0,3.08l3.704,0l0,3.704l3.08,0l0,11.906l-3.08,0l0,20.258l3.08,0l0,11.906l-3.08,0l0,3.703l-3.704,0l0,3.081l-11.906,0l0,-3.081l-20.329,0l0,3.081l-11.906,0l0,-3.081l-3.632,0l0,-3.703l-3.081,0l0,-11.906l3.081,0l0,-20.258l-3.081,0l0,-11.906Z" style="fill:none;stroke:#00f;stroke-width:0.04px;"/>
    </g>
    <g id="_0.35mm-switch-master26" serif:id="0.35mm switch master">
        <path d="M1064.98,250.658l3.081,0l0,-3.704l3.632,0l0,-3.08l11.906,0l0,3.08l20.329,0l0,-3.08l11.906,0l0,3.08l3.704,0l0,3.704l3.08,0l0,11.906l-3.08,0l0,20.258l3.08,0l0,11.906l-3.08,0l0,3.703l-3.704,0l0,3.081l-11.906,0l0,-3.081l-20.329,0l0,3.081l-11.906,0l0,-3.081l-3.632,0l0,-3.703l-3.081,0l0,-11.906l3.081,0l0,-20.258l-3.081,0l0,-11.906Z" style="fill:none;stroke:#00f;stroke-width:0.04px;"/>
    </g>
    <g id="_0.35mm-switch-master27" serif:id="0.35mm switch master">
        <path d="M1064.98,250.658l3.081,0l0,-3.704l3.632,0l0,-3.08l11.906,0l0,3.08l20.329,0l0,-3.08l11.906,0l0,3.08l3.704,0l0,3.704l3.08,0l0,11.906l-3.08,0l0,20.258l3.08,0l0,11.906l-3.08,0l0,3.703l-3.704,0l0,3.081l-11.906,0l0,-3.081l-20.329,0l0,3.081l-11.906,0l0,-3.081l-3.632,0l0,-3.703l-3.081,0l0,-11.906l3.081,0l0,-20.258l-3.081,0l0,-11.906Z" style="fill:none;stroke:#00f;stroke-width:0.04px;"/>
    </g>
    <g id="_0.35mm-switch-master28" serif:id="0.35mm switch master">
        <path d="M1136.98,250.658l3.081,0l0,-3.704l3.632,0l0,-3.08l11.906,0l0,3.08l20.329,0l0,-3.08l11.906,0l0,3.08l3.704,0l0,3.704l3.08,0l0,11.906l-3.08,0l0,20.258l3.08,0l0,11.906l-3.08,0l0,3.703l-3.704,0l0,3.081l-11.906,0l0,-3.081l-20.329,0l0,3.081l-11.906,0l0,-3.081l-3.632,0l0,-3.703l-3.081,0l0,-11.906l3.081,0l0,-20.258l-3.081,0l0,-11.906Z" style="fill:none;stroke:#00f;stroke-width:0.04px;"/>
    </g>
    <g id="_0.35mm-switch-master29" serif:id="0.35mm switch master">
        <path d="M1136.98,250.658l3.081,0l0,-3.704l3.632,0l0,-3.08l11.906,0l0,3.08l20.329,0l0,-3.08l11.906,0l0,3.08l3.704,0l0,3.704l3.08,0l0,11.906l-3.08,0l0,20.258l3.08,0l0,11.906l-3.08,0l0,3.703l-3.704,0l0,3.081l-11.906,0l0,-3.081l-20.329,0l0,3.081l-11.906,0l0,-3.081l-3.632,0l0,-3.703l-3.081,0l0,-11.906l3.081,0l0,-20.258l-3.081,0l0,-11.906Z" style="fill:none;stroke:#00f;stroke-width:0.04px;"/>
    </g>
    <g id="_0.3mm-switch-master" serif:id="0.3mm switch master">
        <path d="M53.291,178.564l3.081,0l0,-3.704l3.704,0l0,-3.08l12.094,0l0,3.08l20.069,0l0,-3.08l12.095,0l0,3.08l3.704,0l0,3.704l3.08,0l0,12.094l-3.08,0l0,20.07l3.08,0l0,12.094l-3.08,0l0,3.704l-3.704,0l0,3.08l-12.095,0l0,-3.08l-20.069,0l0,3.08l-12.094,0l0,-3.08l-3.704,0l0,-3.704l-3.081,0l0,-12.094l3.081,0l0,-20.07l-3.081,0l0,-12.094Z" style="fill:none;stroke:#00f;stroke-width:0.04px;stroke-linecap:round;"/>
    </g>
    <g id="_0.3mm-switch-master1" serif:id="0.3mm switch master">
        <path d="M53.291,178.564l3.081,0l0,-3.704l3.704,0l0,-3.08l12.094,0l0,3.08l20.069,0l0,-3.08l12.095,0l0,3.08l3.704,0l0,3.704l3.08,0l0,12.094l-3.08,0l0,20.07l3.08,0l0,12.094l-3.08,0l0,3.704l-3.704,0l0,3.08l-12.095,0l0,-3.08l-20.069,0l0,3.08l-12.094,0l0,-3.08l-3.704,0l0,-3.704l-3.081,0l0,-12.094l3.081,0l0,-20.07l-3.081,0l0,-12.094Z" style="fill:none;stroke:#00f;stroke-width:0.04px;stroke-linecap:round;"/>
    </g>
    <g id="_0.3mm-switch-master2" serif:id="0.3mm switch master">
        <path d="M125.291,178.564l3.081,0l0,-3.704l3.704,0l0,-3.08l12.094,0l0,3.08l20.069,0l0,-3.08l12.095,0l0,3.08l3.704,0l0,3.704l3.08,0l0,12.094l-3.08,0l0,20.07l3.08,0l0,12.094l-3.08,0l0,3.704l-3.704,0l0,3.08l-12.095,0l0,-3.08l-20.069,0l0,3.08l-12.094,0l0,-3.08l-3.704,0l0,-3.704l-3.081,0l0,-12.094l3.081,0l0,-20.07l-3.081,0l0,-12.094Z" style="fill:none;stroke:#00f;stroke-width:0.04px;stroke-linecap:round;"/>
    </g>
    <g id="_0.3mm-switch-master3" serif:id="0.3mm switch master">
        <path d="M125.291,178.564l3.081,0l0,-3.704l3.704,0l0,-3.08l12.094,0l0,3.08l20.069,0l0,-3.08l12.095,0l0,3.08l3.704,0l0,3.704l3.08,0l0,12.094l-3.08,0l0,20.07l3.08,0l0,12.094l-3.08,0l0,3.704l-3.704,0l0,3.08l-12.095,0l0,-3.08l-20.069,0l0,3.08l-12.094,0l0,-3.08l-3.704,0l0,-3.704l-3.081,0l0,-12.094l3.081,0l0,-20.07l-3.081,0l0,-12.094Z" style="fill:none;stroke:#00f;stroke-width:0.04px;stroke-linecap:round;"/>
    </g>
    <g id="_0.3mm-switch-master4" serif:id="0.3mm switch master">
        <path d="M197.291,178.564l3.081,0l0,-3.704l3.704,0l0,-3.08l12.094,0l0,3.08l20.069,0l0,-3.08l12.095,0l0,3.08l3.704,0l0,3.704l3.08,0l0,12.094l-3.08,0l0,20.07l3.08,0l0,12.094l-3.08,0l0,3.704l-3.704,0l0,3.08l-12.095,0l0,-3.08l-20.069,0l0,3.08l-12.094,0l0,-3.08l-3.704,0l0,-3.704l-3.081,0l0,-12.094l3.081,0l0,-20.07l-3.081,0l0,-12.094Z" style="fill:none;stroke:#00f;stroke-width:0.04px;stroke-linecap:round;"/>
    </g>
    <g id="_0.3mm-switch-master5" serif:id="0.3mm switch master">
        <path d="M197.291,178.564l3.081,0l0,-3.704l3.704,0l0,-3.08l12.094,0l0,3.08l20.069,0l0,-3.08l12.095,0l0,3.08l3.704,0l0,3.704l3.08,0l0,12.094l-3.08,0l0,20.07l3.08,0l0,12.094l-3.08,0l0,3.704l-3.704,0l0,3.08l-12.095,0l0,-3.08l-20.069,0l0,3.08l-12.094,0l0,-3.08l-3.704,0l0,-3.704l-3.081,0l0,-12.094l3.081,0l0,-20.07l-3.081,0l0,-12.094Z" style="fill:none;stroke:#00f;stroke-width:0.04px;stroke-linecap:round;"/>
    </g>
    <g id="_0.3mm-switch-master6" serif:id="0.3mm switch master">
        <path d="M269.291,178.564l3.081,0l0,-3.704l3.704,0l0,-3.08l12.094,0l0,3.08l20.069,0l0,-3.08l12.095,0l0,3.08l3.704,0l0,3.704l3.08,0l0,12.094l-3.08,0l0,20.07l3.08,0l0,12.094l-3.08,0l0,3.704l-3.704,0l0,3.08l-12.095,0l0,-3.08l-20.069,0l0,3.08l-12.094,0l0,-3.08l-3.704,0l0,-3.704l-3.081,0l0,-12.094l3.081,0l0,-20.07l-3.081,0l0,-12.094Z" style="fill:none;stroke:#00f;stroke-width:0.04px;stroke-linecap:round;"/>
    </g>
    <g id="_0.3mm-switch-master7" serif:id="0.3mm switch master">
        <path d="M269.291,178.564l3.081,0l0,-3.704l3.704,0l0,-3.08l12.094,0l0,3.08l20.069,0l0,-3.08l12.095,0l0,3.08l3.704,0l0,3.704l3.08,0l0,12.094l-3.08,0l0,20.07l3.08,0l0,12.094l-3.08,0l0,3.704l-3.704,0l0,3.08l-12.095,0l0,-3.08l-20.069,0l0,3.08l-12.094,0l0,-3.08l-3.704,0l0,-3.704l-3.081,0l0,-12.094l3.081,0l0,-20.07l-3.081,0l0,-12.094Z" style="fill:none;stroke:#00f;stroke-width:0.04px;stroke-linecap:round;"/>
    </g>
    <g id="_0.3mm-switch-master8" serif:id="0.3mm switch master">
        <path d="M341.291,178.564l3.081,0l0,-3.704l3.704,0l0,-3.08l12.094,0l0,3.08l20.069,0l0,-3.08l12.095,0l0,3.08l3.704,0l0,3.704l3.08,0l0,12.094l-3.08,0l0,20.07l3.08,0l0,12.094l-3.08,0l0,3.704l-3.704,0l0,3.08l-12.095,0l0,-3.08l-20.069,0l0,3.08l-12.094,0l0,-3.08l-3.704,0l0,-3.704l-3.081,0l0,-12.094l3.081,0l0,-20.07l-3.081,0l0,-12.094Z" style="fill:none;stroke:#00f;stroke-width:0.04px;stroke-linecap:round;"/>
    </g>
    <g id="_0.3mm-switch-master9" serif:id="0.3mm switch master">
        <path d="M341.291,178.564l3.081,0l0,-3.704l3.704,0l0,-3.08l12.094,0l0,3.08l20.069,0l0,-3.08l12.095,0l0,3.08l3.704,0l0,3.704l3.08,0l0,12.094l-3.08,0l0,20.07l3.08,0l0,12.094l-3.08,0l0,3.704l-3.704,0l0,3.08l-12.095,0l0,-3.08l-20.069,0l0,3.08l-12.094,0l0,-3.08l-3.704,0l0,-3.704l-3.081,0l0,-12.094l3.081,0l0,-20.07l-3.081,0l0,-12.094Z" style="fill:none;stroke:#00f;stroke-width:0.04px;stroke-linecap:round;"/>
    </g>
    <g id="_0.3mm-switch-master10" serif:id="0.3mm switch master">
        <path d="M451.087,178.564l3.08,0l0,-3.704l3.704,0l0,-3.08l12.094,0l0,3.08l20.07,0l0,-3.08l12.094,0l0,3.08l3.704,0l0,3.704l3.08,0l0,12.094l-3.08,0l0,20.07l3.08,0l0,12.094l-3.08,0l0,3.704l-3.704,0l0,3.08l-12.094,0l0,-3.08l-20.07,0l0,3.08l-12.094,0l0,-3.08l-3.704,0l0,-3.704l-3.08,0l0,-12.094l3.08,0l0,-20.07l-3.08,0l0,-12.094Z" style="fill:none;stroke:#00f;stroke-width:0.04px;stroke-linecap:round;"/>
    </g>
    <g id="_0.3mm-switch-master11" serif:id="0.3mm switch master">
        <path d="M451.087,178.564l3.08,0l0,-3.704l3.704,0l0,-3.08l12.094,0l0,3.08l20.07,0l0,-3.08l12.094,0l0,3.08l3.704,0l0,3.704l3.08,0l0,12.094l-3.08,0l0,20.07l3.08,0l0,12.094l-3.08,0l0,3.704l-3.704,0l0,3.08l-12.094,0l0,-3.08l-20.07,0l0,3.08l-12.094,0l0,-3.08l-3.704,0l0,-3.704l-3.08,0l0,-12.094l3.08,0l0,-20.07l-3.08,0l0,-12.094Z" style="fill:none;stroke:#00f;stroke-width:0.04px;stroke-linecap:round;"/>
    </g>
    <g id="_0.3mm-switch-master12" serif:id="0.3mm switch master">
        <path d="M523.087,178.564l3.08,0l0,-3.704l3.704,0l0,-3.08l12.094,0l0,3.08l20.07,0l0,-3.08l12.094,0l0,3.08l3.704,0l0,3.704l3.08,0l0,12.094l-3.08,0l0,20.07l3.08,0l0,12.094l-3.08,0l0,3.704l-3.704,0l0,3.08l-12.094,0l0,-3.08l-20.07,0l0,3.08l-12.094,0l0,-3.08l-3.704,0l0,-3.704l-3.08,0l0,-12.094l3.08,0l0,-20.07l-3.08,0l0,-12.094Z" style="fill:none;stroke:#00f;stroke-width:0.04px;stroke-linecap:round;"/>
    </g>
    <g id="_0.3mm-switch-master13" serif:id="0.3mm switch master">
        <path d="M523.087,178.564l3.08,0l0,-3.704l3.704,0l0,-3.08l12.094,0l0,3.08l20.07,0l0,-3.08l12.094,0l0,3.08l3.704,0l0,3.704l3.08,0l0,12.094l-3.08,0l0,20.07l3.08,0l0,12.094l-3.08,0l0,3.704l-3.704,0l0,3.08l-12.094,0l0,-3.08l-20.07,0l0,3.08l-12.094,0l0,-3.08l-3.704,0l0,-3.704l-3.08,0l0,-12.094l3.08,0l0,-20.07l-3.08,0l0,-12.094Z" style="fill:none;stroke:#00f;stroke-width:0.04px;stroke-linecap:round;"/>
    </g>
    <g id="_0.3mm-switch-master14" serif:id="0.3mm switch master">
        <path d="M595.087,178.564l3.08,0l0,-3.704l3.704,0l0,-3.08l12.094,0l0,3.08l20.07,0l0,-3.08l12.094,0l0,3.08l3.704,0l0,3.704l3.08,0l0,12.094l-3.08,0l0,20.07l3.08,0l0,12.094l-3.08,0l0,3.704l-3.704,0l0,3.08l-12.094,0l0,-3.08l-20.07,0l0,3.08l-12.094,0l0,-3.08l-3.704,0l0,-3.704l-3.08,0l0,-12.094l3.08,0l0,-20.07l-3.08,0l0,-12.094Z" style="fill:none;stroke:#00f;stroke-width:0.04px;stroke-linecap:round;"/>
    </g>
    <g id="_0.3mm-switch-master15" serif:id="0.3mm switch master">
        <path d="M595.087,178.564l3.08,0l0,-3.704l3.704,0l0,-3.08l12.094,0l0,3.08l20.07,0l0,-3.08l12.094,0l0,3.08l3.704,0l0,3.704l3.08,0l0,12.094l-3.08,0l0,20.07l3.08,0l0,12.094l-3.08,0l0,3.704l-3.704,0l0,3.08l-12.094,0l0,-3.08l-20.07,0l0,3.08l-12.094,0l0,-3.08l-3.704,0l0,-3.704l-3.08,0l0,-12.094l3.08,0l0,-20.07l-3.08,0l0,-12.094Z" style="fill:none;stroke:#00f;stroke-width:0.04px;stroke-linecap:round;"/>
    </g>
    <g id="_0.3mm-switch-master16" serif:id="0.3mm switch master">
        <path d="M667.087,178.564l3.08,0l0,-3.704l3.704,0l0,-3.08l12.094,0l0,3.08l20.07,0l0,-3.08l12.094,0l0,3.08l3.704,0l0,3.704l3.08,0l0,12.094l-3.08,0l0,20.07l3.08,0l0,12.094l-3.08,0l0,3.704l-3.704,0l0,3.08l-12.094,0l0,-3.08l-20.07,0l0,3.08l-12.094,0l0,-3.08l-3.704,0l0,-3.704l-3.08,0l0,-12.094l3.08,0l0,-20.07l-3.08,0l0,-12.094Z" style="fill:none;stroke:#00f;stroke-width:0.04px;stroke-linecap:round;"/>
    </g>
    <g id="_0.3mm-switch-master17" serif:id="0.3mm switch master">
        <path d="M667.087,178.564l3.08,0l0,-3.704l3.704,0l0,-3.08l12.094,0l0,3.08l20.07,0l0,-3.08l12.094,0l0,3.08l3.704,0l0,3.704l3.08,0l0,12.094l-3.08,0l0,20.07l3.08,0l0,12.094l-3.08,0l0,3.704l-3.704,0l0,3.08l-12.094,0l0,-3.08l-20.07,0l0,3.08l-12.094,0l0,-3.08l-3.704,0l0,-3.704l-3.08,0l0,-12.094l3.08,0l0,-20.07l-3.08,0l0,-12.094Z" style="fill:none;stroke:#00f;stroke-width:0.04px;stroke-linecap:round;"/>
    </g>
    <g id="_0.3mm-switch-master18" serif:id="0.3mm switch master">
        <path d="M739.087,178.564l3.08,0l0,-3.704l3.704,0l0,-3.08l12.094,0l0,3.08l20.07,0l0,-3.08l12.094,0l0,3.08l3.704,0l0,3.704l3.08,0l0,12.094l-3.08,0l0,20.07l3.08,0l0,12.094l-3.08,0l0,3.704l-3.704,0l0,3.08l-12.094,0l0,-3.08l-20.07,0l0,3.08l-12.094,0l0,-3.08l-3.704,0l0,-3.704l-3.08,0l0,-12.094l3.08,0l0,-20.07l-3.08,0l0,-12.094Z" style="fill:none;stroke:#00f;stroke-width:0.04px;stroke-linecap:round;"/>
    </g>
    <g id="_0.3mm-switch-master19" serif:id="0.3mm switch master">
        <path d="M739.087,178.564l3.08,0l0,-3.704l3.704,0l0,-3.08l12.094,0l0,3.08l20.07,0l0,-3.08l12.094,0l0,3.08l3.704,0l0,3.704l3.08,0l0,12.094l-3.08,0l0,20.07l3.08,0l0,12.094l-3.08,0l0,3.704l-3.704,0l0,3.08l-12.094,0l0,-3.08l-20.07,0l0,3.08l-12.094,0l0,-3.08l-3.704,0l0,-3.704l-3.08,0l0,-12.094l3.08,0l0,-20.07l-3.08,0l0,-12.094Z" style="fill:none;stroke:#00f;stroke-width:0.04px;stroke-linecap:round;"/>
    </g>
    <g id="_0.3mm-switch-master20" serif:id="0.3mm switch master">
        <path d="M848.882,178.564l3.08,0l0,-3.704l3.704,0l0,-3.08l12.095,0l0,3.08l20.069,0l0,-3.08l12.094,0l0,3.08l3.704,0l0,3.704l3.081,0l0,12.094l-3.081,0l0,20.07l3.081,0l0,12.094l-3.081,0l0,3.704l-3.704,0l0,3.08l-12.094,0l0,-3.08l-20.069,0l0,3.08l-12.095,0l0,-3.08l-3.704,0l0,-3.704l-3.08,0l0,-12.094l3.08,0l0,-20.07l-3.08,0l0,-12.094Z" style="fill:none;stroke:#00f;stroke-width:0.04px;stroke-linecap:round;"/>
    </g>
    <g id="_0.3mm-switch-master21" serif:id="0.3mm switch master">
        <path d="M848.882,178.564l3.08,0l0,-3.704l3.704,0l0,-3.08l12.095,0l0,3.08l20.069,0l0,-3.08l12.094,0l0,3.08l3.704,0l0,3.704l3.081,0l0,12.094l-3.081,0l0,20.07l3.081,0l0,12.094l-3.081,0l0,3.704l-3.704,0l0,3.08l-12.094,0l0,-3.08l-20.069,0l0,3.08l-12.095,0l0,-3.08l-3.704,0l0,-3.704l-3.08,0l0,-12.094l3.08,0l0,-20.07l-3.08,0l0,-12.094Z" style="fill:none;stroke:#00f;stroke-width:0.04px;stroke-linecap:round;"/>
    </g>
    <g id="_0.3mm-switch-master22" serif:id="0.3mm switch master">
        <path d="M920.882,178.564l3.08,0l0,-3.704l3.704,0l0,-3.08l12.095,0l0,3.08l20.069,0l0,-3.08l12.094,0l0,3.08l3.704,0l0,3.704l3.081,0l0,12.094l-3.081,0l0,20.07l3.081,0l0,12.094l-3.081,0l0,3.704l-3.704,0l0,3.08l-12.094,0l0,-3.08l-20.069,0l0,3.08l-12.095,0l0,-3.08l-3.704,0l0,-3.704l-3.08,0l0,-12.094l3.08,0l0,-20.07l-3.08,0l0,-12.094Z" style="fill:none;stroke:#00f;stroke-width:0.04px;stroke-linecap:round;"/>
    </g>
    <g id="_0.3mm-switch-master23" serif:id="0.3mm switch master">
        <path d="M920.882,178.564l3.08,0l0,-3.704l3.704,0l0,-3.08l12.095,0l0,3.08l20.069,0l0,-3.08l12.094,0l0,3.08l3.704,0l0,3.704l3.081,0l0,12.094l-3.081,0l0,20.07l3.081,0l0,12.094l-3.081,0l0,3.704l-3.704,0l0,3.08l-12.094,0l0,-3.08l-20.069,0l0,3.08l-12.095,0l0,-3.08l-3.704,0l0,-3.704l-3.08,0l0,-12.094l3.08,0l0,-20.07l-3.08,0l0,-12.094Z" style="fill:none;stroke:#00f;stroke-width:0.04px;stroke-linecap:round;"/>
    </g>
    <g id="_0.3mm-switch-master24" serif:id="0.3mm switch master">
        <path d="M992.882,178.564l3.08,0l0,-3.704l3.704,0l0,-3.08l12.095,0l0,3.08l20.069,0l0,-3.08l12.094,0l0,3.08l3.704,0l0,3.704l3.081,0l0,12.094l-3.081,0l0,20.07l3.081,0l0,12.094l-3.081,0l0,3.704l-3.704,0l0,3.08l-12.094,0l0,-3.08l-20.069,0l0,3.08l-12.095,0l0,-3.08l-3.704,0l0,-3.704l-3.08,0l0,-12.094l3.08,0l0,-20.07l-3.08,0l0,-12.094Z" style="fill:none;stroke:#00f;stroke-width:0.04px;stroke-linecap:round;"/>
    </g>
    <g id="_0.3mm-switch-master25" serif:id="0.3mm switch master">
        <path d="M992.882,178.564l3.08,0l0,-3.704l3.704,0l0,-3.08l12.095,0l0,3.08l20.069,0l0,-3.08l12.094,0l0,3.08l3.704,0l0,3.704l3.081,0l0,12.094l-3.081,0l0,20.07l3.081,0l0,12.094l-3.081,0l0,3.704l-3.704,0l0,3.08l-12.094,0l0,-3.08l-20.069,0l0,3.08l-12.095,0l0,-3.08l-3.704,0l0,-3.704l-3.08,0l0,-12.094l3.08,0l0,-20.07l-3.08,0l0,-12.094Z" style="fill:none;stroke:#00f;stroke-width:0.04px;stroke-linecap:round;"/>
    </g>
    <g id="_0.3mm-switch-master26" serif:id="0.3mm switch master">
        <path d="M1064.88,178.564l3.08,0l0,-3.704l3.704,0l0,-3.08l12.095,0l0,3.08l20.069,0l0,-3.08l12.094,0l0,3.08l3.704,0l0,3.704l3.081,0l0,12.094l-3.081,0l0,20.07l3.081,0l0,12.094l-3.081,0l0,3.704l-3.704,0l0,3.08l-12.094,0l0,-3.08l-20.069,0l0,3.08l-12.095,0l0,-3.08l-3.704,0l0,-3.704l-3.08,0l0,-12.094l3.08,0l0,-20.07l-3.08,0l0,-12.094Z" style="fill:none;stroke:#00f;stroke-width:0.04px;stroke-linecap:round;"/>
    </g>
    <g id="_0.3mm-switch-master27" serif:id="0.3mm switch master">
        <path d="M1064.88,178.564l3.08,0l0,-3.704l3.704,0l0,-3.08l12.095,0l0,3.08l20.069,0l0,-3.08l12.094,0l0,3.08l3.704,0l0,3.704l3.081,0l0,12.094l-3.081,0l0,20.07l3.081,0l0,12.094l-3.081,0l0,3.704l-3.704,0l0,3.08l-12.094,0l0,-3.08l-20.069,0l0,3.08l-12.095,0l0,-3.08l-3.704,0l0,-3.704l-3.08,0l0,-12.094l3.08,0l0,-20.07l-3.08,0l0,-12.094Z" style="fill:none;stroke:#00f;stroke-width:0.04px;stroke-linecap:round;"/>
    </g>
    <g id="_0.3mm-switch-master28" serif:id="0.3mm switch master">
        <path d="M1136.88,178.564l3.08,0l0,-3.704l3.704,0l0,-3.08l12.095,0l0,3.08l20.069,0l0,-3.08l12.094,0l0,3.08l3.704,0l0,3.704l3.081,0l0,12.094l-3.081,0l0,20.07l3.081,0l0,12.094l-3.081,0l0,3.704l-3.704,0l0,3.08l-12.094,0l0,-3.08l-20.069,0l0,3.08l-12.095,0l0,-3.08l-3.704,0l0,-3.704l-3.08,0l0,-12.094l3.08,0l0,-20.07l-3.08,0l0,-12.094Z" style="fill:none;stroke:#00f;stroke-width:0.04px;stroke-linecap:round;"/>
    </g>
    <g id="_0.3mm-switch-master29" serif:id="0.3mm switch master">
        <path d="M1136.88,178.564l3.08,0l0,-3.704l3.704,0l0,-3.08l12.095,0l0,3.08l20.069,0l0,-3.08l12.094,0l0,3.08l3.704,0l0,3.704l3.081,0l0,12.094l-3.081,0l0,20.07l3.081,0l0,12.094l-3.081,0l0,3.704l-3.704,0l0,3.08l-12.094,0l0,-3.08l-20.069,0l0,3.08l-12.095,0l0,-3.08l-3.704,0l0,-3.704l-3.08,0l0,-12.094l3.08,0l0,-20.07l-3.08,0l0,-12.094Z" style="fill:none;stroke:#00f;stroke-width:0.04px;stroke-linecap:round;"/>
    </g>
    <g id="_0.25mm-switch-master" serif:id="0.25mm switch master">
        <path d="M53.197,106.469l3.08,0l0,-3.704l3.704,0l0,-3.08l12.284,0l0,3.08l19.88,0l0,-3.08l12.283,0l0,3.08l3.704,0l0,3.704l3.081,0l0,12.284l-3.081,0l0,19.88l3.081,0l0,12.284l-3.081,0l0,3.703l-3.704,0l0,3.081l-12.283,0l0,-3.081l-19.88,0l0,3.081l-12.284,0l0,-3.081l-3.704,0l0,-3.703l-3.08,0l0,-12.284l3.08,0l0,-19.88l-3.08,0l0,-12.284Z" style="fill:none;stroke:#00f;stroke-width:0.04px;stroke-linecap:round;"/>
    </g>
    <g id="_0.25mm-switch-master1" serif:id="0.25mm switch master">
        <path d="M53.197,106.469l3.08,0l0,-3.704l3.704,0l0,-3.08l12.284,0l0,3.08l19.88,0l0,-3.08l12.283,0l0,3.08l3.704,0l0,3.704l3.081,0l0,12.284l-3.081,0l0,19.88l3.081,0l0,12.284l-3.081,0l0,3.703l-3.704,0l0,3.081l-12.283,0l0,-3.081l-19.88,0l0,3.081l-12.284,0l0,-3.081l-3.704,0l0,-3.703l-3.08,0l0,-12.284l3.08,0l0,-19.88l-3.08,0l0,-12.284Z" style="fill:none;stroke:#00f;stroke-width:0.04px;stroke-linecap:round;"/>
    </g>
    <g id="_0.25mm-switch-master2" serif:id="0.25mm switch master">
        <path d="M125.197,106.469l3.08,0l0,-3.704l3.704,0l0,-3.08l12.284,0l0,3.08l19.88,0l0,-3.08l12.283,0l0,3.08l3.704,0l0,3.704l3.081,0l0,12.284l-3.081,0l0,19.88l3.081,0l0,12.284l-3.081,0l0,3.703l-3.704,0l0,3.081l-12.283,0l0,-3.081l-19.88,0l0,3.081l-12.284,0l0,-3.081l-3.704,0l0,-3.703l-3.08,0l0,-12.284l3.08,0l0,-19.88l-3.08,0l0,-12.284Z" style="fill:none;stroke:#00f;stroke-width:0.04px;stroke-linecap:round;"/>
    </g>
    <g id="_0.25mm-switch-master3" serif:id="0.25mm switch master">
        <path d="M125.197,106.469l3.08,0l0,-3.704l3.704,0l0,-3.08l12.284,0l0,3.08l19.88,0l0,-3.08l12.283,0l0,3.08l3.704,0l0,3.704l3.081,0l0,12.284l-3.081,0l0,19.88l3.081,0l0,12.284l-3.081,0l0,3.703l-3.704,0l0,3.081l-12.283,0l0,-3.081l-19.88,0l0,3.081l-12.284,0l0,-3.081l-3.704,0l0,-3.703l-3.08,0l0,-12.284l3.08,0l0,-19.88l-3.08,0l0,-12.284Z" style="fill:none;stroke:#00f;stroke-width:0.04px;stroke-linecap:round;"/>
    </g>
    <g id="_0.25mm-switch-master4" serif:id="0.25mm switch master">
        <path d="M197.197,106.469l3.08,0l0,-3.704l3.704,0l0,-3.08l12.284,0l0,3.08l19.88,0l0,-3.08l12.283,0l0,3.08l3.704,0l0,3.704l3.081,0l0,12.284l-3.081,0l0,19.88l3.081,0l0,12.284l-3.081,0l0,3.703l-3.704,0l0,3.081l-12.283,0l0,-3.081l-19.88,0l0,3.081l-12.284,0l0,-3.081l-3.704,0l0,-3.703l-3.08,0l0,-12.284l3.08,0l0,-19.88l-3.08,0l0,-12.284Z" style="fill:none;stroke:#00f;stroke-width:0.04px;stroke-linecap:round;"/>
    </g>
    <g id="_0.25mm-switch-master5" serif:id="0.25mm switch master">
        <path d="M197.197,106.469l3.08,0l0,-3.704l3.704,0l0,-3.08l12.284,0l0,3.08l19.88,0l0,-3.08l12.283,0l0,3.08l3.704,0l0,3.704l3.081,0l0,12.284l-3.081,0l0,19.88l3.081,0l0,12.284l-3.081,0l0,3.703l-3.704,0l0,3.081l-12.283,0l0,-3.081l-19.88,0l0,3.081l-12.284,0l0,-3.081l-3.704,0l0,-3.703l-3.08,0l0,-12.284l3.08,0l0,-19.88l-3.08,0l0,-12.284Z" style="fill:none;stroke:#00f;stroke-width:0.04px;stroke-linecap:round;"/>
    </g>
    <g id="_0.25mm-switch-master6" serif:id="0.25mm switch master">
        <path d="M269.197,106.469l3.08,0l0,-3.704l3.704,0l0,-3.08l12.284,0l0,3.08l19.88,0l0,-3.08l12.283,0l0,3.08l3.704,0l0,3.704l3.081,0l0,12.284l-3.081,0l0,19.88l3.081,0l0,12.284l-3.081,0l0,3.703l-3.704,0l0,3.081l-12.283,0l0,-3.081l-19.88,0l0,3.081l-12.284,0l0,-3.081l-3.704,0l0,-3.703l-3.08,0l0,-12.284l3.08,0l0,-19.88l-3.08,0l0,-12.284Z" style="fill:none;stroke:#00f;stroke-width:0.04px;stroke-linecap:round;"/>
    </g>
    <g id="_0.25mm-switch-master7" serif:id="0.25mm switch master">
        <path d="M269.197,106.469l3.08,0l0,-3.704l3.704,0l0,-3.08l12.284,0l0,3.08l19.88,0l0,-3.08l12.283,0l0,3.08l3.704,0l0,3.704l3.081,0l0,12.284l-3.081,0l0,19.88l3.081,0l0,12.284l-3.081,0l0,3.703l-3.704,0l0,3.081l-12.283,0l0,-3.081l-19.88,0l0,3.081l-12.284,0l0,-3.081l-3.704,0l0,-3.703l-3.08,0l0,-12.284l3.08,0l0,-19.88l-3.08,0l0,-12.284Z" style="fill:none;stroke:#00f;stroke-width:0.04px;stroke-linecap:round;"/>
    </g>
    <g id="_0.25mm-switch-master8" serif:id="0.25mm switch master">
        <path d="M341.197,106.469l3.08,0l0,-3.704l3.704,0l0,-3.08l12.284,0l0,3.08l19.88,0l0,-3.08l12.283,0l0,3.08l3.704,0l0,3.704l3.081,0l0,12.284l-3.081,0l0,19.88l3.081,0l0,12.284l-3.081,0l0,3.703l-3.704,0l0,3.081l-12.283,0l0,-3.081l-19.88,0l0,3.081l-12.284,0l0,-3.081l-3.704,0l0,-3.703l-3.08,0l0,-12.284l3.08,0l0,-19.88l-3.08,0l0,-12.284Z" style="fill:none;stroke:#00f;stroke-width:0.04px;stroke-linecap:round;"/>
    </g>
    <g id="_0.25mm-switch-master9" serif:id="0.25mm switch master">
        <path d="M341.197,106.469l3.08,0l0,-3.704l3.704,0l0,-3.08l12.284,0l0,3.08l19.88,0l0,-3.08l12.283,0l0,3.08l3.704,0l0,3.704l3.081,0l0,12.284l-3.081,0l0,19.88l3.081,0l0,12.284l-3.081,0l0,3.703l-3.704,0l0,3.081l-12.283,0l0,-3.081l-19.88,0l0,3.081l-12.284,0l0,-3.081l-3.704,0l0,-3.703l-3.08,0l0,-12.284l3.08,0l0,-19.88l-3.08,0l0,-12.284Z" style="fill:none;stroke:#00f;stroke-width:0.04px;stroke-linecap:round;"/>
    </g>
    <g id="_0.25mm-switch-master10" serif:id="0.25mm switch master">
        <path d="M450.992,106.469l3.08,0l0,-3.704l3.704,0l0,-3.08l12.284,0l0,3.08l19.88,0l0,-3.08l12.284,0l0,3.08l3.704,0l0,3.704l3.08,0l0,12.284l-3.08,0l0,19.88l3.08,0l0,12.284l-3.08,0l0,3.703l-3.704,0l0,3.081l-12.284,0l0,-3.081l-19.88,0l0,3.081l-12.284,0l0,-3.081l-3.704,0l0,-3.703l-3.08,0l0,-12.284l3.08,0l0,-19.88l-3.08,0l0,-12.284Z" style="fill:none;stroke:#00f;stroke-width:0.04px;stroke-linecap:round;"/>
    </g>
    <g id="_0.25mm-switch-master11" serif:id="0.25mm switch master">
        <path d="M450.992,106.469l3.08,0l0,-3.704l3.704,0l0,-3.08l12.284,0l0,3.08l19.88,0l0,-3.08l12.284,0l0,3.08l3.704,0l0,3.704l3.08,0l0,12.284l-3.08,0l0,19.88l3.08,0l0,12.284l-3.08,0l0,3.703l-3.704,0l0,3.081l-12.284,0l0,-3.081l-19.88,0l0,3.081l-12.284,0l0,-3.081l-3.704,0l0,-3.703l-3.08,0l0,-12.284l3.08,0l0,-19.88l-3.08,0l0,-12.284Z" style="fill:none;stroke:#00f;stroke-width:0.04px;stroke-linecap:round;"/>
    </g>
    <g id="_0.25mm-switch-master12" serif:id="0.25mm switch master">
        <path d="M522.992,106.469l3.08,0l0,-3.704l3.704,0l0,-3.08l12.284,0l0,3.08l19.88,0l0,-3.08l12.284,0l0,3.08l3.704,0l0,3.704l3.08,0l0,12.284l-3.08,0l0,19.88l3.08,0l0,12.284l-3.08,0l0,3.703l-3.704,0l0,3.081l-12.284,0l0,-3.081l-19.88,0l0,3.081l-12.284,0l0,-3.081l-3.704,0l0,-3.703l-3.08,0l0,-12.284l3.08,0l0,-19.88l-3.08,0l0,-12.284Z" style="fill:none;stroke:#00f;stroke-width:0.04px;stroke-linecap:round;"/>
    </g>
    <g id="_0.25mm-switch-master13" serif:id="0.25mm switch master">
        <path d="M522.992,106.469l3.08,0l0,-3.704l3.704,0l0,-3.08l12.284,0l0,3.08l19.88,0l0,-3.08l12.284,0l0,3.08l3.704,0l0,3.704l3.08,0l0,12.284l-3.08,0l0,19.88l3.08,0l0,12.284l-3.08,0l0,3.703l-3.704,0l0,3.081l-12.284,0l0,-3.081l-19.88,0l0,3.081l-12.284,0l0,-3.081l-3.704,0l0,-3.703l-3.08,0l0,-12.284l3.08,0l0,-19.88l-3.08,0l0,-12.284Z" style="fill:none;stroke:#00f;stroke-width:0.04px;stroke-linecap:round;"/>
    </g>
    <g id="_0.25mm-switch-master14" serif:id="0.25mm switch master">
        <path d="M594.992,106.469l3.08,0l0,-3.704l3.704,0l0,-3.08l12.284,0l0,3.08l19.88,0l0,-3.08l12.284,0l0,3.08l3.704,0l0,3.704l3.08,0l0,12.284l-3.08,0l0,19.88l3.08,0l0,12.284l-3.08,0l0,3.703l-3.704,0l0,3.081l-12.284,0l0,-3.081l-19.88,0l0,3.081l-12.284,0l0,-3.081l-3.704,0l0,-3.703l-3.08,0l0,-12.284l3.08,0l0,-19.88l-3.08,0l0,-12.284Z" style="fill:none;stroke:#00f;stroke-width:0.04px;stroke-linecap:round;"/>
    </g>
    <g id="_0.25mm-switch-master15" serif:id="0.25mm switch master">
        <path d="M594.992,106.469l3.08,0l0,-3.704l3.704,0l0,-3.08l12.284,0l0,3.08l19.88,0l0,-3.08l12.284,0l0,3.08l3.704,0l0,3.704l3.08,0l0,12.284l-3.08,0l0,19.88l3.08,0l0,12.284l-3.08,0l0,3.703l-3.704,0l0,3.081l-12.284,0l0,-3.081l-19.88,0l0,3.081l-12.284,0l0,-3.081l-3.704,0l0,-3.703l-3.08,0l0,-12.284l3.08,0l0,-19.88l-3.08,0l0,-12.284Z" style="fill:none;stroke:#00f;stroke-width:0.04px;stroke-linecap:round;"/>
    </g>
    <g id="_0.25mm-switch-master16" serif:id="0.25mm switch master">
        <path d="M666.992,106.469l3.08,0l0,-3.704l3.704,0l0,-3.08l12.284,0l0,3.08l19.88,0l0,-3.08l12.284,0l0,3.08l3.704,0l0,3.704l3.08,0l0,12.284l-3.08,0l0,19.88l3.08,0l0,12.284l-3.08,0l0,3.703l-3.704,0l0,3.081l-12.284,0l0,-3.081l-19.88,0l0,3.081l-12.284,0l0,-3.081l-3.704,0l0,-3.703l-3.08,0l0,-12.284l3.08,0l0,-19.88l-3.08,0l0,-12.284Z" style="fill:none;stroke:#00f;stroke-width:0.04px;stroke-linecap:round;"/>
    </g>
    <g id="_0.25mm-switch-master17" serif:id="0.25mm switch master">
        <path d="M666.992,106.469l3.08,0l0,-3.704l3.704,0l0,-3.08l12.284,0l0,3.08l19.88,0l0,-3.08l12.284,0l0,3.08l3.704,0l0,3.704l3.08,0l0,12.284l-3.08,0l0,19.88l3.08,0l0,12.284l-3.08,0l0,3.703l-3.704,0l0,3.081l-12.284,0l0,-3.081l-19.88,0l0,3.081l-12.284,0l0,-3.081l-3.704,0l0,-3.703l-3.08,0l0,-12.284l3.08,0l0,-19.88l-3.08,0l0,-12.284Z" style="fill:none;stroke:#00f;stroke-width:0.04px;stroke-linecap:round;"/>
    </g>
    <g id="_0.25mm-switch-master18" serif:id="0.25mm switch master">
        <path d="M738.992,106.469l3.08,0l0,-3.704l3.704,0l0,-3.08l12.284,0l0,3.08l19.88,0l0,-3.08l12.284,0l0,3.08l3.704,0l0,3.704l3.08,0l0,12.284l-3.08,0l0,19.88l3.08,0l0,12.284l-3.08,0l0,3.703l-3.704,0l0,3.081l-12.284,0l0,-3.081l-19.88,0l0,3.081l-12.284,0l0,-3.081l-3.704,0l0,-3.703l-3.08,0l0,-12.284l3.08,0l0,-19.88l-3.08,0l0,-12.284Z" style="fill:none;stroke:#00f;stroke-width:0.04px;stroke-linecap:round;"/>
    </g>
    <g id="_0.25mm-switch-master19" serif:id="0.25mm switch master">
        <path d="M738.992,106.469l3.08,0l0,-3.704l3.704,0l0,-3.08l12.284,0l0,3.08l19.88,0l0,-3.08l12.284,0l0,3.08l3.704,0l0,3.704l3.08,0l0,12.284l-3.08,0l0,19.88l3.08,0l0,12.284l-3.08,0l0,3.703l-3.704,0l0,3.081l-12.284,0l0,-3.081l-19.88,0l0,3.081l-12.284,0l0,-3.081l-3.704,0l0,-3.703l-3.08,0l0,-12.284l3.08,0l0,-19.88l-3.08,0l0,-12.284Z" style="fill:none;stroke:#00f;stroke-width:0.04px;stroke-linecap:round;"/>
    </g>
    <g id="_0.25mm-switch-master20" serif:id="0.25mm switch master">
        <path d="M848.787,106.469l3.081,0l0,-3.704l3.704,0l0,-3.08l12.283,0l0,3.08l19.88,0l0,-3.08l12.284,0l0,3.08l3.704,0l0,3.704l3.08,0l0,12.284l-3.08,0l0,19.88l3.08,0l0,12.284l-3.08,0l0,3.703l-3.704,0l0,3.081l-12.284,0l0,-3.081l-19.88,0l0,3.081l-12.283,0l0,-3.081l-3.704,0l0,-3.703l-3.081,0l0,-12.284l3.081,0l0,-19.88l-3.081,0l0,-12.284Z" style="fill:none;stroke:#00f;stroke-width:0.04px;stroke-linecap:round;"/>
    </g>
    <g id="_0.25mm-switch-master21" serif:id="0.25mm switch master">
        <path d="M848.787,106.469l3.081,0l0,-3.704l3.704,0l0,-3.08l12.283,0l0,3.08l19.88,0l0,-3.08l12.284,0l0,3.08l3.704,0l0,3.704l3.08,0l0,12.284l-3.08,0l0,19.88l3.08,0l0,12.284l-3.08,0l0,3.703l-3.704,0l0,3.081l-12.284,0l0,-3.081l-19.88,0l0,3.081l-12.283,0l0,-3.081l-3.704,0l0,-3.703l-3.081,0l0,-12.284l3.081,0l0,-19.88l-3.081,0l0,-12.284Z" style="fill:none;stroke:#00f;stroke-width:0.04px;stroke-linecap:round;"/>
    </g>
    <g id="_0.25mm-switch-master22" serif:id="0.25mm switch master">
        <path d="M920.787,106.469l3.081,0l0,-3.704l3.704,0l0,-3.08l12.283,0l0,3.08l19.88,0l0,-3.08l12.284,0l0,3.08l3.704,0l0,3.704l3.08,0l0,12.284l-3.08,0l0,19.88l3.08,0l0,12.284l-3.08,0l0,3.703l-3.704,0l0,3.081l-12.284,0l0,-3.081l-19.88,0l0,3.081l-12.283,0l0,-3.081l-3.704,0l0,-3.703l-3.081,0l0,-12.284l3.081,0l0,-19.88l-3.081,0l0,-12.284Z" style="fill:none;stroke:#00f;stroke-width:0.04px;stroke-linecap:round;"/>
    </g>
    <g id="_0.25mm-switch-master23" serif:id="0.25mm switch master">
        <path d="M920.787,106.469l3.081,0l0,-3.704l3.704,0l0,-3.08l12.283,0l0,3.08l19.88,0l0,-3.08l12.284,0l0,3.08l3.704,0l0,3.704l3.08,0l0,12.284l-3.08,0l0,19.88l3.08,0l0,12.284l-3.08,0l0,3.703l-3.704,0l0,3.081l-12.284,0l0,-3.081l-19.88,0l0,3.081l-12.283,0l0,-3.081l-3.704,0l0,-3.703l-3.081,0l0,-12.284l3.081,0l0,-19.88l-3.081,0l0,-12.284Z" style="fill:none;stroke:#00f;stroke-width:0.04px;stroke-linecap:round;"/>
    </g>
    <g id="_0.25mm-switch-master24" serif:id="0.25mm switch master">
        <path d="M992.787,106.469l3.081,0l0,-3.704l3.704,0l0,-3.08l12.283,0l0,3.08l19.88,0l0,-3.08l12.284,0l0,3.08l3.704,0l0,3.704l3.08,0l0,12.284l-3.08,0l0,19.88l3.08,0l0,12.284l-3.08,0l0,3.703l-3.704,0l0,3.081l-12.284,0l0,-3.081l-19.88,0l0,3.081l-12.283,0l0,-3.081l-3.704,0l0,-3.703l-3.081,0l0,-12.284l3.081,0l0,-19.88l-3.081,0l0,-12.284Z" style="fill:none;stroke:#00f;stroke-width:0.04px;stroke-linecap:round;"/>
    </g>
    <g id="_0.25mm-switch-master25" serif:id="0.25mm switch master">
        <path d="M992.787,106.469l3.081,0l0,-3.704l3.704,0l0,-3.08l12.283,0l0,3.08l19.88,0l0,-3.08l12.284,0l0,3.08l3.704,0l0,3.704l3.08,0l0,12.284l-3.08,0l0,19.88l3.08,0l0,12.284l-3.08,0l0,3.703l-3.704,0l0,3.081l-12.284,0l0,-3.081l-19.88,0l0,3.081l-12.283,0l0,-3.081l-3.704,0l0,-3.703l-3.081,0l0,-12.284l3.081,0l0,-19.88l-3.081,0l0,-12.284Z" style="fill:none;stroke:#00f;stroke-width:0.04px;stroke-linecap:round;"/>
    </g>
    <g id="_0.25mm-switch-master26" serif:id="0.25mm switch master">
        <path d="M1064.79,106.469l3.081,0l0,-3.704l3.704,0l0,-3.08l12.283,0l0,3.08l19.88,0l0,-3.08l12.284,0l0,3.08l3.704,0l0,3.704l3.08,0l0,12.284l-3.08,0l0,19.88l3.08,0l0,12.284l-3.08,0l0,3.703l-3.704,0l0,3.081l-12.284,0l0,-3.081l-19.88,0l0,3.081l-12.283,0l0,-3.081l-3.704,0l0,-3.703l-3.081,0l0,-12.284l3.081,0l0,-19.88l-3.081,0l0,-12.284Z" style="fill:none;stroke:#00f;stroke-width:0.04px;stroke-linecap:round;"/>
    </g>
    <g id="_0.25mm-switch-master27" serif:id="0.25mm switch master">
        <path d="M1064.79,106.469l3.081,0l0,-3.704l3.704,0l0,-3.08l12.283,0l0,3.08l19.88,0l0,-3.08l12.284,0l0,3.08l3.704,0l0,3.704l3.08,0l0,12.284l-3.08,0l0,19.88l3.08,0l0,12.284l-3.08,0l0,3.703l-3.704,0l0,3.081l-12.284,0l0,-3.081l-19.88,0l0,3.081l-12.283,0l0,-3.081l-3.704,0l0,-3.703l-3.081,0l0,-12.284l3.081,0l0,-19.88l-3.081,0l0,-12.284Z" style="fill:none;stroke:#00f;stroke-width:0.04px;stroke-linecap:round;"/>
    </g>
    <g id="_0.25mm-switch-master28" serif:id="0.25mm switch master">
        <path d="M1136.79,106.469l3.081,0l0,-3.704l3.704,0l0,-3.08l12.283,0l0,3.08l19.88,0l0,-3.08l12.284,0l0,3.08l3.704,0l0,3.704l3.08,0l0,12.284l-3.08,0l0,19.88l3.08,0l0,12.284l-3.08,0l0,3.703l-3.704,0l0,3.081l-12.284,0l0,-3.081l-19.88,0l0,3.081l-12.283,0l0,-3.081l-3.704,0l0,-3.703l-3.081,0l0,-12.284l3.081,0l0,-19.88l-3.081,0l0,-12.284Z" style="fill:none;stroke:#00f;stroke-width:0.04px;stroke-linecap:round;"/>
    </g>
    <g id="_0.25mm-switch-master29" serif:id="0.25mm switch master">
        <path d="M1136.79,106.469l3.081,0l0,-3.704l3.704,0l0,-3.08l12.283,0l0,3.08l19.88,0l0,-3.08l12.284,0l0,3.08l3.704,0l0,3.704l3.08,0l0,12.284l-3.08,0l0,19.88l3.08,0l0,12.284l-3.08,0l0,3.703l-3.704,0l0,3.081l-12.284,0l0,-3.081l-19.88,0l0,3.081l-12.283,0l0,-3.081l-3.704,0l0,-3.703l-3.081,0l0,-12.284l3.081,0l0,-19.88l-3.081,0l0,-12.284Z" style="fill:none;stroke:#00f;stroke-width:0.04px;stroke-linecap:round;"/>
    </g>
    <g id="_0.2mm-switch-master" serif:id="0.2mm switch master">
        <path d="M53.102,34.375l3.081,0l0,-3.704l3.704,0l0,-3.08l12.472,0l0,3.08l19.691,0l0,-3.08l12.473,0l0,3.08l3.704,0l0,3.704l3.08,0l0,12.472l-3.08,0l0,19.692l3.08,0l0,12.472l-3.08,0l0,3.704l-3.704,0l0,3.08l-12.473,0l0,-3.08l-19.691,0l0,3.08l-12.472,0l0,-3.08l-3.704,0l0,-3.704l-3.081,0l0,-12.472l3.081,0l0,-19.692l-3.081,0l0,-12.472Z" style="fill:none;stroke:#00f;stroke-width:0.04px;stroke-linecap:round;"/>
    </g>
    <g id="_0.2mm-switch-master1" serif:id="0.2mm switch master">
        <path d="M53.102,34.375l3.081,0l0,-3.704l3.704,0l0,-3.08l12.472,0l0,3.08l19.691,0l0,-3.08l12.473,0l0,3.08l3.704,0l0,3.704l3.08,0l0,12.472l-3.08,0l0,19.692l3.08,0l0,12.472l-3.08,0l0,3.704l-3.704,0l0,3.08l-12.473,0l0,-3.08l-19.691,0l0,3.08l-12.472,0l0,-3.08l-3.704,0l0,-3.704l-3.081,0l0,-12.472l3.081,0l0,-19.692l-3.081,0l0,-12.472Z" style="fill:none;stroke:#00f;stroke-width:0.04px;stroke-linecap:round;"/>
    </g>
    <g id="_0.2mm-switch-master2" serif:id="0.2mm switch master">
        <path d="M125.102,34.375l3.081,0l0,-3.704l3.704,0l0,-3.08l12.472,0l0,3.08l19.691,0l0,-3.08l12.473,0l0,3.08l3.704,0l0,3.704l3.08,0l0,12.472l-3.08,0l0,19.692l3.08,0l0,12.472l-3.08,0l0,3.704l-3.704,0l0,3.08l-12.473,0l0,-3.08l-19.691,0l0,3.08l-12.472,0l0,-3.08l-3.704,0l0,-3.704l-3.081,0l0,-12.472l3.081,0l0,-19.692l-3.081,0l0,-12.472Z" style="fill:none;stroke:#00f;stroke-width:0.04px;stroke-linecap:round;"/>
    </g>
    <g id="_0.2mm-switch-master3" serif:id="0.2mm switch master">
        <path d="M125.102,34.375l3.081,0l0,-3.704l3.704,0l0,-3.08l12.472,0l0,3.08l19.691,0l0,-3.08l12.473,0l0,3.08l3.704,0l0,3.704l3.08,0l0,12.472l-3.08,0l0,19.692l3.08,0l0,12.472l-3.08,0l0,3.704l-3.704,0l0,3.08l-12.473,0l0,-3.08l-19.691,0l0,3.08l-12.472,0l0,-3.08l-3.704,0l0,-3.704l-3.081,0l0,-12.472l3.081,0l0,-19.692l-3.081,0l0,-12.472Z" style="fill:none;stroke:#00f;stroke-width:0.04px;stroke-linecap:round;"/>
    </g>
    <g id="_0.2mm-switch-master4" serif:id="0.2mm switch master">
        <path d="M197.102,34.375l3.081,0l0,-3.704l3.704,0l0,-3.08l12.472,0l0,3.08l19.691,0l0,-3.08l12.473,0l0,3.08l3.704,0l0,3.704l3.08,0l0,12.472l-3.08,0l0,19.692l3.08,0l0,12.472l-3.08,0l0,3.704l-3.704,0l0,3.08l-12.473,0l0,-3.08l-19.691,0l0,3.08l-12.472,0l0,-3.08l-3.704,0l0,-3.704l-3.081,0l0,-12.472l3.081,0l0,-19.692l-3.081,0l0,-12.472Z" style="fill:none;stroke:#00f;stroke-width:0.04px;stroke-linecap:round;"/>
    </g>
    <g id="_0.2mm-switch-master5" serif:id="0.2mm switch master">
        <path d="M197.102,34.375l3.081,0l0,-3.704l3.704,0l0,-3.08l12.472,0l0,3.08l19.691,0l0,-3.08l12.473,0l0,3.08l3.704,0l0,3.704l3.08,0l0,12.472l-3.08,0l0,19.692l3.08,0l0,12.472l-3.08,0l0,3.704l-3.704,0l0,3.08l-12.473,0l0,-3.08l-19.691,0l0,3.08l-12.472,0l0,-3.08l-3.704,0l0,-3.704l-3.081,0l0,-12.472l3.081,0l0,-19.692l-3.081,0l0,-12.472Z" style="fill:none;stroke:#00f;stroke-width:0.04px;stroke-linecap:round;"/>
    </g>
    <g id="_0.2mm-switch-master6" serif:id="0.2mm switch master">
        <path d="M269.102,34.375l3.081,0l0,-3.704l3.704,0l0,-3.08l12.472,0l0,3.08l19.691,0l0,-3.08l12.473,0l0,3.08l3.704,0l0,3.704l3.08,0l0,12.472l-3.08,0l0,19.692l3.08,0l0,12.472l-3.08,0l0,3.704l-3.704,0l0,3.08l-12.473,0l0,-3.08l-19.691,0l0,3.08l-12.472,0l0,-3.08l-3.704,0l0,-3.704l-3.081,0l0,-12.472l3.081,0l0,-19.692l-3.081,0l0,-12.472Z" style="fill:none;stroke:#00f;stroke-width:0.04px;stroke-linecap:round;"/>
    </g>
    <g id="_0.2mm-switch-master7" serif:id="0.2mm switch master">
        <path d="M269.102,34.375l3.081,0l0,-3.704l3.704,0l0,-3.08l12.472,0l0,3.08l19.691,0l0,-3.08l12.473,0l0,3.08l3.704,0l0,3.704l3.08,0l0,12.472l-3.08,0l0,19.692l3.08,0l0,12.472l-3.08,0l0,3.704l-3.704,0l0,3.08l-12.473,0l0,-3.08l-19.691,0l0,3.08l-12.472,0l0,-3.08l-3.704,0l0,-3.704l-3.081,0l0,-12.472l3.081,0l0,-19.692l-3.081,0l0,-12.472Z" style="fill:none;stroke:#00f;stroke-width:0.04px;stroke-linecap:round;"/>
    </g>
    <g id="_0.2mm-switch-master8" serif:id="0.2mm switch master">
        <path d="M341.102,34.375l3.081,0l0,-3.704l3.704,0l0,-3.08l12.472,0l0,3.08l19.691,0l0,-3.08l12.473,0l0,3.08l3.704,0l0,3.704l3.08,0l0,12.472l-3.08,0l0,19.692l3.08,0l0,12.472l-3.08,0l0,3.704l-3.704,0l0,3.08l-12.473,0l0,-3.08l-19.691,0l0,3.08l-12.472,0l0,-3.08l-3.704,0l0,-3.704l-3.081,0l0,-12.472l3.081,0l0,-19.692l-3.081,0l0,-12.472Z" style="fill:none;stroke:#00f;stroke-width:0.04px;stroke-linecap:round;"/>
    </g>
    <g id="_0.2mm-switch-master9" serif:id="0.2mm switch master">
        <path d="M341.102,34.375l3.081,0l0,-3.704l3.704,0l0,-3.08l12.472,0l0,3.08l19.691,0l0,-3.08l12.473,0l0,3.08l3.704,0l0,3.704l3.08,0l0,12.472l-3.08,0l0,19.692l3.08,0l0,12.472l-3.08,0l0,3.704l-3.704,0l0,3.08l-12.473,0l0,-3.08l-19.691,0l0,3.08l-12.472,0l0,-3.08l-3.704,0l0,-3.704l-3.081,0l0,-12.472l3.081,0l0,-19.692l-3.081,0l0,-12.472Z" style="fill:none;stroke:#00f;stroke-width:0.04px;stroke-linecap:round;"/>
    </g>
    <g id="_0.2mm-switch-master10" serif:id="0.2mm switch master">
        <path d="M450.898,34.375l3.08,0l0,-3.704l3.704,0l0,-3.08l12.472,0l0,3.08l19.692,0l0,-3.08l12.472,0l0,3.08l3.704,0l0,3.704l3.08,0l0,12.472l-3.08,0l0,19.692l3.08,0l0,12.472l-3.08,0l0,3.704l-3.704,0l0,3.08l-12.472,0l0,-3.08l-19.692,0l0,3.08l-12.472,0l0,-3.08l-3.704,0l0,-3.704l-3.08,0l0,-12.472l3.08,0l0,-19.692l-3.08,0l0,-12.472Z" style="fill:none;stroke:#00f;stroke-width:0.04px;stroke-linecap:round;"/>
    </g>
    <g id="_0.2mm-switch-master11" serif:id="0.2mm switch master">
        <path d="M450.898,34.375l3.08,0l0,-3.704l3.704,0l0,-3.08l12.472,0l0,3.08l19.692,0l0,-3.08l12.472,0l0,3.08l3.704,0l0,3.704l3.08,0l0,12.472l-3.08,0l0,19.692l3.08,0l0,12.472l-3.08,0l0,3.704l-3.704,0l0,3.08l-12.472,0l0,-3.08l-19.692,0l0,3.08l-12.472,0l0,-3.08l-3.704,0l0,-3.704l-3.08,0l0,-12.472l3.08,0l0,-19.692l-3.08,0l0,-12.472Z" style="fill:none;stroke:#00f;stroke-width:0.04px;stroke-linecap:round;"/>
    </g>
    <g id="_0.2mm-switch-master12" serif:id="0.2mm switch master">
        <path d="M522.898,34.375l3.08,0l0,-3.704l3.704,0l0,-3.08l12.472,0l0,3.08l19.692,0l0,-3.08l12.472,0l0,3.08l3.704,0l0,3.704l3.08,0l0,12.472l-3.08,0l0,19.692l3.08,0l0,12.472l-3.08,0l0,3.704l-3.704,0l0,3.08l-12.472,0l0,-3.08l-19.692,0l0,3.08l-12.472,0l0,-3.08l-3.704,0l0,-3.704l-3.08,0l0,-12.472l3.08,0l0,-19.692l-3.08,0l0,-12.472Z" style="fill:none;stroke:#00f;stroke-width:0.04px;stroke-linecap:round;"/>
    </g>
    <g id="_0.2mm-switch-master13" serif:id="0.2mm switch master">
        <path d="M522.898,34.375l3.08,0l0,-3.704l3.704,0l0,-3.08l12.472,0l0,3.08l19.692,0l0,-3.08l12.472,0l0,3.08l3.704,0l0,3.704l3.08,0l0,12.472l-3.08,0l0,19.692l3.08,0l0,12.472l-3.08,0l0,3.704l-3.704,0l0,3.08l-12.472,0l0,-3.08l-19.692,0l0,3.08l-12.472,0l0,-3.08l-3.704,0l0,-3.704l-3.08,0l0,-12.472l3.08,0l0,-19.692l-3.08,0l0,-12.472Z" style="fill:none;stroke:#00f;stroke-width:0.04px;stroke-linecap:round;"/>
    </g>
    <g id="_0.2mm-switch-master14" serif:id="0.2mm switch master">
        <path d="M594.898,34.375l3.08,0l0,-3.704l3.704,0l0,-3.08l12.472,0l0,3.08l19.692,0l0,-3.08l12.472,0l0,3.08l3.704,0l0,3.704l3.08,0l0,12.472l-3.08,0l0,19.692l3.08,0l0,12.472l-3.08,0l0,3.704l-3.704,0l0,3.08l-12.472,0l0,-3.08l-19.692,0l0,3.08l-12.472,0l0,-3.08l-3.704,0l0,-3.704l-3.08,0l0,-12.472l3.08,0l0,-19.692l-3.08,0l0,-12.472Z" style="fill:none;stroke:#00f;stroke-width:0.04px;stroke-linecap:round;"/>
    </g>
    <g id="_0.2mm-switch-master15" serif:id="0.2mm switch master">
        <path d="M594.898,34.375l3.08,0l0,-3.704l3.704,0l0,-3.08l12.472,0l0,3.08l19.692,0l0,-3.08l12.472,0l0,3.08l3.704,0l0,3.704l3.08,0l0,12.472l-3.08,0l0,19.692l3.08,0l0,12.472l-3.08,0l0,3.704l-3.704,0l0,3.08l-12.472,0l0,-3.08l-19.692,0l0,3.08l-12.472,0l0,-3.08l-3.704,0l0,-3.704l-3.08,0l0,-12.472l3.08,0l0,-19.692l-3.08,0l0,-12.472Z" style="fill:none;stroke:#00f;stroke-width:0.04px;stroke-linecap:round;"/>
    </g>
    <g id="_0.2mm-switch-master16" serif:id="0.2mm switch master">
        <path d="M666.898,34.375l3.08,0l0,-3.704l3.704,0l0,-3.08l12.472,0l0,3.08l19.692,0l0,-3.08l12.472,0l0,3.08l3.704,0l0,3.704l3.08,0l0,12.472l-3.08,0l0,19.692l3.08,0l0,12.472l-3.08,0l0,3.704l-3.704,0l0,3.08l-12.472,0l0,-3.08l-19.692,0l0,3.08l-12.472,0l0,-3.08l-3.704,0l0,-3.704l-3.08,0l0,-12.472l3.08,0l0,-19.692l-3.08,0l0,-12.472Z" style="fill:none;stroke:#00f;stroke-width:0.04px;stroke-linecap:round;"/>
    </g>
    <g id="_0.2mm-switch-master17" serif:id="0.2mm switch master">
        <path d="M666.898,34.375l3.08,0l0,-3.704l3.704,0l0,-3.08l12.472,0l0,3.08l19.692,0l0,-3.08l12.472,0l0,3.08l3.704,0l0,3.704l3.08,0l0,12.472l-3.08,0l0,19.692l3.08,0l0,12.472l-3.08,0l0,3.704l-3.704,0l0,3.08l-12.472,0l0,-3.08l-19.692,0l0,3.08l-12.472,0l0,-3.08l-3.704,0l0,-3.704l-3.08,0l0,-12.472l3.08,0l0,-19.692l-3.08,0l0,-12.472Z" style="fill:none;stroke:#00f;stroke-width:0.04px;stroke-linecap:round;"/>
    </g>
    <g id="_0.2mm-switch-master18" serif:id="0.2mm switch master">
        <path d="M738.898,34.375l3.08,0l0,-3.704l3.704,0l0,-3.08l12.472,0l0,3.08l19.692,0l0,-3.08l12.472,0l0,3.08l3.704,0l0,3.704l3.08,0l0,12.472l-3.08,0l0,19.692l3.08,0l0,12.472l-3.08,0l0,3.704l-3.704,0l0,3.08l-12.472,0l0,-3.08l-19.692,0l0,3.08l-12.472,0l0,-3.08l-3.704,0l0,-3.704l-3.08,0l0,-12.472l3.08,0l0,-19.692l-3.08,0l0,-12.472Z" style="fill:none;stroke:#00f;stroke-width:0.04px;stroke-linecap:round;"/>
    </g>
    <g id="_0.2mm-switch-master19" serif:id="0.2mm switch master">
        <path d="M738.898,34.375l3.08,0l0,-3.704l3.704,0l0,-3.08l12.472,0l0,3.08l19.692,0l0,-3.08l12.472,0l0,3.08l3.704,0l0,3.704l3.08,0l0,12.472l-3.08,0l0,19.692l3.08,0l0,12.472l-3.08,0l0,3.704l-3.704,0l0,3.08l-12.472,0l0,-3.08l-19.692,0l0,3.08l-12.472,0l0,-3.08l-3.704,0l0,-3.704l-3.08,0l0,-12.472l3.08,0l0,-19.692l-3.08,0l0,-12.472Z" style="fill:none;stroke:#00f;stroke-width:0.04px;stroke-linecap:round;"/>
    </g>
    <g id="_0.2mm-switch-master20" serif:id="0.2mm switch master">
        <path d="M848.693,34.375l3.08,0l0,-3.704l3.704,0l0,-3.08l12.473,0l0,3.08l19.691,0l0,-3.08l12.472,0l0,3.08l3.704,0l0,3.704l3.081,0l0,12.472l-3.081,0l0,19.692l3.081,0l0,12.472l-3.081,0l0,3.704l-3.704,0l0,3.08l-12.472,0l0,-3.08l-19.691,0l0,3.08l-12.473,0l0,-3.08l-3.704,0l0,-3.704l-3.08,0l0,-12.472l3.08,0l0,-19.692l-3.08,0l0,-12.472Z" style="fill:none;stroke:#00f;stroke-width:0.04px;stroke-linecap:round;"/>
    </g>
    <g id="_0.2mm-switch-master21" serif:id="0.2mm switch master">
        <path d="M848.693,34.375l3.08,0l0,-3.704l3.704,0l0,-3.08l12.473,0l0,3.08l19.691,0l0,-3.08l12.472,0l0,3.08l3.704,0l0,3.704l3.081,0l0,12.472l-3.081,0l0,19.692l3.081,0l0,12.472l-3.081,0l0,3.704l-3.704,0l0,3.08l-12.472,0l0,-3.08l-19.691,0l0,3.08l-12.473,0l0,-3.08l-3.704,0l0,-3.704l-3.08,0l0,-12.472l3.08,0l0,-19.692l-3.08,0l0,-12.472Z" style="fill:none;stroke:#00f;stroke-width:0.04px;stroke-linecap:round;"/>
    </g>
    <g id="_0.2mm-switch-master22" serif:id="0.2mm switch master">
        <path d="M920.693,34.375l3.08,0l0,-3.704l3.704,0l0,-3.08l12.473,0l0,3.08l19.691,0l0,-3.08l12.472,0l0,3.08l3.704,0l0,3.704l3.081,0l0,12.472l-3.081,0l0,19.692l3.081,0l0,12.472l-3.081,0l0,3.704l-3.704,0l0,3.08l-12.472,0l0,-3.08l-19.691,0l0,3.08l-12.473,0l0,-3.08l-3.704,0l0,-3.704l-3.08,0l0,-12.472l3.08,0l0,-19.692l-3.08,0l0,-12.472Z" style="fill:none;stroke:#00f;stroke-width:0.04px;stroke-linecap:round;"/>
    </g>
    <g id="_0.2mm-switch-master23" serif:id="0.2mm switch master">
        <path d="M920.693,34.375l3.08,0l0,-3.704l3.704,0l0,-3.08l12.473,0l0,3.08l19.691,0l0,-3.08l12.472,0l0,3.08l3.704,0l0,3.704l3.081,0l0,12.472l-3.081,0l0,19.692l3.081,0l0,12.472l-3.081,0l0,3.704l-3.704,0l0,3.08l-12.472,0l0,-3.08l-19.691,0l0,3.08l-12.473,0l0,-3.08l-3.704,0l0,-3.704l-3.08,0l0,-12.472l3.08,0l0,-19.692l-3.08,0l0,-12.472Z" style="fill:none;stroke:#00f;stroke-width:0.04px;stroke-linecap:round;"/>
    </g>
    <g id="_0.2mm-switch-master24" serif:id="0.2mm switch master">
        <path d="M992.693,34.375l3.08,0l0,-3.704l3.704,0l0,-3.08l12.473,0l0,3.08l19.691,0l0,-3.08l12.472,0l0,3.08l3.704,0l0,3.704l3.081,0l0,12.472l-3.081,0l0,19.692l3.081,0l0,12.472l-3.081,0l0,3.704l-3.704,0l0,3.08l-12.472,0l0,-3.08l-19.691,0l0,3.08l-12.473,0l0,-3.08l-3.704,0l0,-3.704l-3.08,0l0,-12.472l3.08,0l0,-19.692l-3.08,0l0,-12.472Z" style="fill:none;stroke:#00f;stroke-width:0.04px;stroke-linecap:round;"/>
    </g>
    <g id="_0.2mm-switch-master25" serif:id="0.2mm switch master">
        <path d="M992.693,34.375l3.08,0l0,-3.704l3.704,0l0,-3.08l12.473,0l0,3.08l19.691,0l0,-3.08l12.472,0l0,3.08l3.704,0l0,3.704l3.081,0l0,12.472l-3.081,0l0,19.692l3.081,0l0,12.472l-3.081,0l0,3.704l-3.704,0l0,3.08l-12.472,0l0,-3.08l-19.691,0l0,3.08l-12.473,0l0,-3.08l-3.704,0l0,-3.704l-3.08,0l0,-12.472l3.08,0l0,-19.692l-3.08,0l0,-12.472Z" style="fill:none;stroke:#00f;stroke-width:0.04px;stroke-linecap:round;"/>
    </g>
    <g id="_0.2mm-switch-master26" serif:id="0.2mm switch master">
        <path d="M1064.69,34.375l3.08,0l0,-3.704l3.704,0l0,-3.08l12.473,0l0,3.08l19.691,0l0,-3.08l12.472,0l0,3.08l3.704,0l0,3.704l3.081,0l0,12.472l-3.081,0l0,19.692l3.081,0l0,12.472l-3.081,0l0,3.704l-3.704,0l0,3.08l-12.472,0l0,-3.08l-19.691,0l0,3.08l-12.473,0l0,-3.08l-3.704,0l0,-3.704l-3.08,0l0,-12.472l3.08,0l0,-19.692l-3.08,0l0,-12.472Z" style="fill:none;stroke:#00f;stroke-width:0.04px;stroke-linecap:round;"/>
    </g>
    <g id="_0.2mm-switch-master27" serif:id="0.2mm switch master">
        <path d="M1064.69,34.375l3.08,0l0,-3.704l3.704,0l0,-3.08l12.473,0l0,3.08l19.691,0l0,-3.08l12.472,0l0,3.08l3.704,0l0,3.704l3.081,0l0,12.472l-3.081,0l0,19.692l3.081,0l0,12.472l-3.081,0l0,3.704l-3.704,0l0,3.08l-12.472,0l0,-3.08l-19.691,0l0,3.08l-12.473,0l0,-3.08l-3.704,0l0,-3.704l-3.08,0l0,-12.472l3.08,0l0,-19.692l-3.08,0l0,-12.472Z" style="fill:none;stroke:#00f;stroke-width:0.04px;stroke-linecap:round;"/>
    </g>
    <g id="_0.2mm-switch-master28" serif:id="0.2mm switch master">
        <path d="M1136.69,34.375l3.08,0l0,-3.704l3.704,0l0,-3.08l12.473,0l0,3.08l19.691,0l0,-3.08l12.472,0l0,3.08l3.704,0l0,3.704l3.081,0l0,12.472l-3.081,0l0,19.692l3.081,0l0,12.472l-3.081,0l0,3.704l-3.704,0l0,3.08l-12.472,0l0,-3.08l-19.691,0l0,3.08l-12.473,0l0,-3.08l-3.704,0l0,-3.704l-3.08,0l0,-12.472l3.08,0l0,-19.692l-3.08,0l0,-12.472Z" style="fill:none;stroke:#00f;stroke-width:0.04px;stroke-linecap:round;"/>
    </g>
    <g id="_0.2mm-switch-master29" serif:id="0.2mm switch master">
        <path d="M1136.69,34.375l3.08,0l0,-3.704l3.704,0l0,-3.08l12.473,0l0,3.08l19.691,0l0,-3.08l12.472,0l0,3.08l3.704,0l0,3.704l3.081,0l0,12.472l-3.081,0l0,19.692l3.081,0l0,12.472l-3.081,0l0,3.704l-3.704,0l0,3.08l-12.472,0l0,-3.08l-19.691,0l0,3.08l-12.473,0l0,-3.08l-3.704,0l0,-3.704l-3.08,0l0,-12.472l3.08,0l0,-19.692l-3.08,0l0,-12.472Z" style="fill:none;stroke:#00f;stroke-width:0.04px;stroke-linecap:round;"/>
    </g>
    <path d="M96,1018.21l0,18.897l1056,0l0,-18.897l-1056,0Z" style="fill:none;stroke:#00f;stroke-width:0.04px;stroke-linecap:round;stroke-linejoin:round;"/>
    <path d="M1152,1018.21l0,-18.898l-1056,0l0,18.898" style="fill:none;stroke:#00f;stroke-width:0.04px;stroke-linecap:round;stroke-linejoin:round;"/>
    <path d="M1152,999.307l0,-18.898l-1056,0l0,18.898" style="fill:none;stroke:#00f;stroke-width:0.04px;stroke-linecap:round;stroke-linejoin:round;"/>
    <path d="M1152,980.409l0,-18.897l-1056,0l0,18.897" style="fill:none;stroke:#00f;stroke-width:0.04px;stroke-linecap:round;stroke-linejoin:round;"/>
</svg>
