<?xml version="1.0" encoding="UTF-8" standalone="no"?>
<!DOCTYPE svg PUBLIC "-//W3C//DTD SVG 1.1//EN" "http://www.w3.org/Graphics/SVG/1.1/DTD/svg11.dtd">
<svg width="514px" height="514px" version="1.1" xmlns="http://www.w3.org/2000/svg" xmlns:xlink="http://www.w3.org/1999/xlink" xml:space="preserve" xmlns:serif="http://www.serif.com/" style="fill-rule:evenodd;clip-rule:evenodd;stroke-linecap:round;stroke-linejoin:round;stroke-miterlimit:1.5;">
    <g id="Left-angled-by-10deg" serif:id="Left angled by 10deg" transform="matrix(0.984808,-0.173648,0.173648,0.984808,-17.9822,219.915)">
        <g id="_4-bumps" serif:id="4 bumps" transform="matrix(1,0,0,1,42.5197,19.8425)">
            <g transform="matrix(1,0,0,1,-33.7323,37.1339)">
                <g id="_0.3mm-switch-master" serif:id="0.3mm switch master">
                    <path d="M164.877,110.537l0,-4.677l-2.31,0l0,-9.071l2.31,0l0,-2.778l2.778,0l0,-2.31l9.071,0l0,2.31l4.677,0l0,0.71l5.669,0l0,-0.71l4.706,0l0,-2.31l9.071,0l0,2.31l2.778,0l0,2.778l2.31,0l0,9.071l-2.31,0l0,4.677l-0.709,0l0,5.669l0.709,0l0,4.706l2.31,0l0,9.071l-2.31,0l0,2.778l-2.778,0l0,2.31l-9.071,0l0,-2.31l-4.706,0l0,-0.709l-5.669,0l0,0.709l-4.677,0l0,2.31l-9.071,0l0,-2.31l-2.778,0l0,-2.778l-2.31,0l0,-9.071l2.31,0l0,-4.706l0.707,0l0,-5.669l-0.707,0Z" style="fill:none;stroke:#00f;stroke-width:0.03px;"/>
                </g>
            </g>
            <g transform="matrix(1,0,0,1,-16.8661,37.1339)">
                <g id="_0.25mm-switch-master" serif:id="0.25mm switch master">
                    <path d="M105.931,93.94l4.606,0l0,0.709l5.669,0l0,-0.709l4.635,0l0,-2.31l9.213,0l0,2.31l2.777,0l0,2.778l2.311,0l0,9.213l-2.311,0l0,4.606l-0.708,0l0,5.669l0.708,0l0,4.635l2.311,0l0,9.213l-2.311,0l0,2.777l-2.777,0l0,2.311l-9.213,0l0,-2.311l-4.635,0l0,-0.708l-5.669,0l0,0.708l-4.606,0l0,2.311l-9.213,0l0,-2.311l-2.778,0l0,-2.777l-2.31,0l0,-9.213l2.31,0l0,-4.635l0.709,0l0,-5.669l-0.709,0l0,-4.606l-2.31,0l0,-9.213l2.31,0l0,-2.778l2.778,0l0,-2.31l9.213,0l0,2.31Z" style="fill:none;stroke:#00f;stroke-width:0.03px;"/>
                </g>
            </g>
            <g transform="matrix(1,0,0,1,0,37.1339)">
                <g id="_0.2mm-switch-master" serif:id="0.2mm switch master">
                    <path d="M59.258,93.869l2.778,0l0,2.778l2.31,0l0,9.355l-2.31,0l0,4.549l-0.708,0l0,5.669l0.708,0l0,4.55l2.31,0l0,9.354l-2.31,0l0,2.778l-2.778,0l0,2.311l-9.354,0l0,-2.311l-4.55,0l0,-0.708l-5.669,0l0,0.708l-4.55,0l0,2.311l-9.354,0l0,-2.311l-2.778,0l0,-2.778l-2.31,0l0,-9.354l2.31,0l0,-4.55l0.709,0l0,-5.669l-0.709,0l0,-4.549l-2.31,0l0,-9.355l2.31,0l0,-2.778l2.778,0l0,-2.31l9.354,0l0,2.31l4.55,0l0,0.709l5.669,0l0,-0.709l4.55,0l0,-2.31l9.354,0l0,2.31Z" style="fill:none;stroke:#00f;stroke-width:0.03px;stroke-miterlimit:1;"/>
                </g>
            </g>
        </g>
        <g id="_2-bumps" serif:id="2 bumps" transform="matrix(1,0,0,1,42.5197,19.8425)">
            <g transform="matrix(1,0,0,1,-33.7323,-16.8661)">
                <g id="_0.3mm-switch-master1" serif:id="0.3mm switch master">
                    <path d="M176.726,135.071l-9.071,0l0,-2.31l-2.778,0l0,-2.778l-2.31,0l0,-9.071l2.31,0l0,-15.052l-2.31,0l0,-9.071l2.31,0l0,-2.778l2.778,0l0,-2.31l9.071,0l0,2.31l4.677,0l0,0.71l5.669,0l0,-0.71l4.706,0l0,-2.31l9.071,0l0,2.31l2.778,0l0,2.778l2.31,0l0,9.071l-2.31,0l0,15.052l2.31,0l0,9.071l-2.31,0l0,2.778l-2.778,0l0,2.31l-9.071,0l0,-2.31l-4.706,0l0,-0.709l-5.669,0l0,0.709l-4.677,0l0,2.31Z" style="fill:none;stroke:#00f;stroke-width:0.03px;"/>
                </g>
            </g>
            <g transform="matrix(1,0,0,1,-16.8661,-16.8661)">
                <g id="_0.25mm-switch-master1" serif:id="0.25mm switch master">
                    <path d="M105.931,135.142l-9.213,0l0,-2.311l-2.778,0l0,-2.777l-2.31,0l0,-9.213l2.31,0l0,-14.91l-2.31,0l0,-9.213l2.31,0l0,-2.778l2.778,0l0,-2.31l9.213,0l0,2.31l4.606,0l0,0.723l5.669,0l0,-0.723l4.635,0l0,-2.31l9.213,0l0,2.31l2.777,0l0,2.778l2.311,0l0,9.213l-2.311,0l0,14.91l2.311,0l0,9.213l-2.311,0l0,2.777l-2.777,0l0,2.311l-9.213,0l0,-2.311l-4.635,0l0,-0.708l-5.669,0l0,0.708l-4.606,0l0,2.311Z" style="fill:none;stroke:#00f;stroke-width:0.03px;"/>
                </g>
            </g>
            <g transform="matrix(1,0,0,1,0,-16.8661)">
                <g id="_0.2mm-switch-master1" serif:id="0.2mm switch master">
                    <path d="M59.258,93.869l2.778,0l0,2.778l2.31,0l0,9.355l-2.31,0l0,14.768l2.31,0l0,9.354l-2.31,0l0,2.778l-2.778,0l0,2.311l-9.354,0l0,-2.311l-4.55,0l0,-0.708l-5.669,0l0,0.708l-4.55,0l0,2.311l-9.354,0l0,-2.311l-2.778,0l0,-2.778l-2.31,0l0,-9.354l2.31,0l0,-14.768l-2.31,0l0,-9.355l2.31,0l0,-2.778l2.778,0l0,-2.31l9.354,0l0,2.31l4.55,0l0,0.709l5.669,0l0,-0.709l4.55,0l0,-2.31l9.354,0l0,2.31Z" style="fill:none;stroke:#00f;stroke-width:0.03px;stroke-miterlimit:1;"/>
                </g>
            </g>
        </g>
        <g id="No-bumps" serif:id="No bumps" transform="matrix(1,0,0,1,42.5197,19.8425)">
            <g transform="matrix(1,0,0,1,-15.9566,1.24345e-14)">
                <g id="_0.3mm-switch-master2" serif:id="0.3mm switch master">
                    <path d="M144.791,25.923l2.31,0l0,-2.778l2.778,0l0,-2.31l9.071,0l0,2.31l15.052,0l0,-2.31l9.071,0l0,2.31l2.778,0l0,2.778l2.31,0l0,9.071l-2.31,0l0,15.052l2.31,0l0,9.071l-2.31,0l0,2.777l-2.778,0l0,2.311l-9.071,0l0,-2.311l-15.052,0l0,2.311l-9.071,0l0,-2.311l-2.778,0l0,-2.777l-2.31,0l0,-9.071l2.31,0l0,-15.052l-2.31,0l0,-9.071Z" style="fill:none;stroke:#00f;stroke-width:0.03px;"/>
                </g>
            </g>
            <g id="_0.25mm-switch-master2" serif:id="0.25mm switch master" transform="matrix(1,0,0,1,-7.9783,1.24345e-14)">
                <path d="M82.742,25.852l2.31,0l0,-2.778l2.778,0l0,-2.31l9.213,0l0,2.31l14.91,0l0,-2.31l9.213,0l0,2.31l2.778,0l0,2.778l2.31,0l0,9.213l-2.31,0l0,14.91l2.31,0l0,9.212l-2.31,0l0,2.778l-2.778,0l0,2.311l-9.213,0l0,-2.311l-14.91,0l0,2.311l-9.213,0l0,-2.311l-2.778,0l0,-2.778l-2.31,0l0,-9.212l2.31,0l0,-14.91l-2.31,0l0,-9.213Z" style="fill:none;stroke:#00f;stroke-width:0.03px;"/>
            </g>
            <g id="_0.2mm-switch-master2" serif:id="0.2mm switch master">
                <path d="M20.693,25.781l2.31,0l0,-2.778l2.778,0l0,-2.31l9.354,0l0,2.31l14.769,0l0,-2.31l9.354,0l0,2.31l2.778,0l0,2.778l2.31,0l0,9.354l-2.31,0l0,14.769l2.31,0l0,9.354l-2.31,0l0,2.778l-2.778,0l0,2.31l-9.354,0l0,-2.31l-14.769,0l0,2.31l-9.354,0l0,-2.31l-2.778,0l0,-2.778l-2.31,0l0,-9.354l2.31,0l0,-14.769l-2.31,0l0,-9.354Z" style="fill:none;stroke:#00f;stroke-width:0.03px;stroke-miterlimit:1;"/>
            </g>
        </g>
    </g>
    <g id="Flat-angle" serif:id="Flat angle">
        <g id="_4-bumps1" serif:id="4 bumps" transform="matrix(1,0,0,1,42.5197,19.8425)">
            <g transform="matrix(1,0,0,1,-33.7323,37.1339)">
                <g id="_0.3mm-switch-master3" serif:id="0.3mm switch master">
                    <path d="M164.877,110.537l0,-4.677l-2.31,0l0,-9.071l2.31,0l0,-2.778l2.778,0l0,-2.31l9.071,0l0,2.31l4.677,0l0,0.71l5.669,0l0,-0.71l4.706,0l0,-2.31l9.071,0l0,2.31l2.778,0l0,2.778l2.31,0l0,9.071l-2.31,0l0,4.677l-0.709,0l0,5.669l0.709,0l0,4.706l2.31,0l0,9.071l-2.31,0l0,2.778l-2.778,0l0,2.31l-9.071,0l0,-2.31l-4.706,0l0,-0.709l-5.669,0l0,0.709l-4.677,0l0,2.31l-9.071,0l0,-2.31l-2.778,0l0,-2.778l-2.31,0l0,-9.071l2.31,0l0,-4.706l0.707,0l0,-5.669l-0.707,0Z" style="fill:none;stroke:#00f;stroke-width:0.03px;"/>
                </g>
            </g>
            <g transform="matrix(1,0,0,1,-16.8661,37.1339)">
                <g id="_0.25mm-switch-master3" serif:id="0.25mm switch master">
                    <path d="M105.931,93.94l4.606,0l0,0.709l5.669,0l0,-0.709l4.635,0l0,-2.31l9.213,0l0,2.31l2.777,0l0,2.778l2.311,0l0,9.213l-2.311,0l0,4.606l-0.708,0l0,5.669l0.708,0l0,4.635l2.311,0l0,9.213l-2.311,0l0,2.777l-2.777,0l0,2.311l-9.213,0l0,-2.311l-4.635,0l0,-0.708l-5.669,0l0,0.708l-4.606,0l0,2.311l-9.213,0l0,-2.311l-2.778,0l0,-2.777l-2.31,0l0,-9.213l2.31,0l0,-4.635l0.709,0l0,-5.669l-0.709,0l0,-4.606l-2.31,0l0,-9.213l2.31,0l0,-2.778l2.778,0l0,-2.31l9.213,0l0,2.31Z" style="fill:none;stroke:#00f;stroke-width:0.03px;"/>
                </g>
            </g>
            <g transform="matrix(1,0,0,1,0,37.1339)">
                <g id="_0.2mm-switch-master3" serif:id="0.2mm switch master">
                    <path d="M59.258,93.869l2.778,0l0,2.778l2.31,0l0,9.355l-2.31,0l0,4.549l-0.708,0l0,5.669l0.708,0l0,4.55l2.31,0l0,9.354l-2.31,0l0,2.778l-2.778,0l0,2.311l-9.354,0l0,-2.311l-4.55,0l0,-0.708l-5.669,0l0,0.708l-4.55,0l0,2.311l-9.354,0l0,-2.311l-2.778,0l0,-2.778l-2.31,0l0,-9.354l2.31,0l0,-4.55l0.709,0l0,-5.669l-0.709,0l0,-4.549l-2.31,0l0,-9.355l2.31,0l0,-2.778l2.778,0l0,-2.31l9.354,0l0,2.31l4.55,0l0,0.709l5.669,0l0,-0.709l4.55,0l0,-2.31l9.354,0l0,2.31Z" style="fill:none;stroke:#00f;stroke-width:0.03px;stroke-miterlimit:1;"/>
                </g>
            </g>
        </g>
        <g id="_2-bumps1" serif:id="2 bumps" transform="matrix(1,0,0,1,42.5197,19.8425)">
            <g transform="matrix(1,0,0,1,-33.7323,-16.8661)">
                <g id="_0.3mm-switch-master4" serif:id="0.3mm switch master">
                    <path d="M176.726,135.071l-9.071,0l0,-2.31l-2.778,0l0,-2.778l-2.31,0l0,-9.071l2.31,0l0,-15.052l-2.31,0l0,-9.071l2.31,0l0,-2.778l2.778,0l0,-2.31l9.071,0l0,2.31l4.677,0l0,0.71l5.669,0l0,-0.71l4.706,0l0,-2.31l9.071,0l0,2.31l2.778,0l0,2.778l2.31,0l0,9.071l-2.31,0l0,15.052l2.31,0l0,9.071l-2.31,0l0,2.778l-2.778,0l0,2.31l-9.071,0l0,-2.31l-4.706,0l0,-0.709l-5.669,0l0,0.709l-4.677,0l0,2.31Z" style="fill:none;stroke:#00f;stroke-width:0.03px;"/>
                </g>
            </g>
            <g transform="matrix(1,0,0,1,-16.8661,-16.8661)">
                <g id="_0.25mm-switch-master4" serif:id="0.25mm switch master">
                    <path d="M105.931,135.142l-9.213,0l0,-2.311l-2.778,0l0,-2.777l-2.31,0l0,-9.213l2.31,0l0,-14.91l-2.31,0l0,-9.213l2.31,0l0,-2.778l2.778,0l0,-2.31l9.213,0l0,2.31l4.606,0l0,0.723l5.669,0l0,-0.723l4.635,0l0,-2.31l9.213,0l0,2.31l2.777,0l0,2.778l2.311,0l0,9.213l-2.311,0l0,14.91l2.311,0l0,9.213l-2.311,0l0,2.777l-2.777,0l0,2.311l-9.213,0l0,-2.311l-4.635,0l0,-0.708l-5.669,0l0,0.708l-4.606,0l0,2.311Z" style="fill:none;stroke:#00f;stroke-width:0.03px;"/>
                </g>
            </g>
            <g transform="matrix(1,0,0,1,0,-16.8661)">
                <g id="_0.2mm-switch-master4" serif:id="0.2mm switch master">
                    <path d="M59.258,93.869l2.778,0l0,2.778l2.31,0l0,9.355l-2.31,0l0,14.768l2.31,0l0,9.354l-2.31,0l0,2.778l-2.778,0l0,2.311l-9.354,0l0,-2.311l-4.55,0l0,-0.708l-5.669,0l0,0.708l-4.55,0l0,2.311l-9.354,0l0,-2.311l-2.778,0l0,-2.778l-2.31,0l0,-9.354l2.31,0l0,-14.768l-2.31,0l0,-9.355l2.31,0l0,-2.778l2.778,0l0,-2.31l9.354,0l0,2.31l4.55,0l0,0.709l5.669,0l0,-0.709l4.55,0l0,-2.31l9.354,0l0,2.31Z" style="fill:none;stroke:#00f;stroke-width:0.03px;stroke-miterlimit:1;"/>
                </g>
            </g>
        </g>
        <g id="No-bumps1" serif:id="No bumps" transform="matrix(1,0,0,1,42.5197,19.8425)">
            <g transform="matrix(1,0,0,1,-15.9566,1.24345e-14)">
                <g id="_0.3mm-switch-master5" serif:id="0.3mm switch master">
                    <path d="M144.791,25.923l2.31,0l0,-2.778l2.778,0l0,-2.31l9.071,0l0,2.31l15.052,0l0,-2.31l9.071,0l0,2.31l2.778,0l0,2.778l2.31,0l0,9.071l-2.31,0l0,15.052l2.31,0l0,9.071l-2.31,0l0,2.777l-2.778,0l0,2.311l-9.071,0l0,-2.311l-15.052,0l0,2.311l-9.071,0l0,-2.311l-2.778,0l0,-2.777l-2.31,0l0,-9.071l2.31,0l0,-15.052l-2.31,0l0,-9.071Z" style="fill:none;stroke:#00f;stroke-width:0.03px;"/>
                </g>
            </g>
            <g id="_0.25mm-switch-master5" serif:id="0.25mm switch master" transform="matrix(1,0,0,1,-7.9783,1.24345e-14)">
                <path d="M82.742,25.852l2.31,0l0,-2.778l2.778,0l0,-2.31l9.213,0l0,2.31l14.91,0l0,-2.31l9.213,0l0,2.31l2.778,0l0,2.778l2.31,0l0,9.213l-2.31,0l0,14.91l2.31,0l0,9.212l-2.31,0l0,2.778l-2.778,0l0,2.311l-9.213,0l0,-2.311l-14.91,0l0,2.311l-9.213,0l0,-2.311l-2.778,0l0,-2.778l-2.31,0l0,-9.212l2.31,0l0,-14.91l-2.31,0l0,-9.213Z" style="fill:none;stroke:#00f;stroke-width:0.03px;"/>
            </g>
            <g id="_0.2mm-switch-master5" serif:id="0.2mm switch master">
                <path d="M20.693,25.781l2.31,0l0,-2.778l2.778,0l0,-2.31l9.354,0l0,2.31l14.769,0l0,-2.31l9.354,0l0,2.31l2.778,0l0,2.778l2.31,0l0,9.354l-2.31,0l0,14.769l2.31,0l0,9.354l-2.31,0l0,2.778l-2.778,0l0,2.31l-9.354,0l0,-2.31l-14.769,0l0,2.31l-9.354,0l0,-2.31l-2.778,0l0,-2.778l-2.31,0l0,-9.354l2.31,0l0,-14.769l-2.31,0l0,-9.354Z" style="fill:none;stroke:#00f;stroke-width:0.03px;stroke-miterlimit:1;"/>
            </g>
        </g>
        <g id="Text">
            <g transform="matrix(1,0,0,1,-0.151584,3.24292)">
                <path d="M19.556,58.375c0,-0.677 0.07,-1.222 0.209,-1.635c0.14,-0.412 0.347,-0.731 0.621,-0.955c0.275,-0.224 0.621,-0.336 1.037,-0.336c0.308,0 0.577,0.062 0.809,0.186c0.232,0.124 0.423,0.302 0.574,0.535c0.151,0.233 0.27,0.517 0.356,0.852c0.086,0.334 0.129,0.785 0.129,1.353c0,0.672 -0.069,1.214 -0.207,1.627c-0.138,0.413 -0.345,0.732 -0.62,0.957c-0.274,0.225 -0.621,0.338 -1.041,0.338c-0.552,0 -0.985,-0.198 -1.3,-0.594c-0.378,-0.476 -0.567,-1.252 -0.567,-2.328Zm0.723,0c0,0.94 0.11,1.566 0.33,1.877c0.22,0.311 0.492,0.467 0.814,0.467c0.323,0 0.595,-0.156 0.815,-0.469c0.22,-0.312 0.33,-0.937 0.33,-1.875c0,-0.943 -0.11,-1.569 -0.33,-1.879c-0.22,-0.31 -0.494,-0.465 -0.822,-0.465c-0.323,0 -0.581,0.137 -0.774,0.411c-0.242,0.349 -0.363,0.993 -0.363,1.933Z" style="fill:none;stroke:#f00;stroke-width:0.03px;stroke-linecap:butt;stroke-miterlimit:1.41421;"/>
                <path d="M27.072,61.199l-0.652,0l0,-5.726l0.703,0l0,2.043c0.297,-0.373 0.675,-0.559 1.136,-0.559c0.256,0 0.497,0.052 0.725,0.154c0.228,0.103 0.415,0.248 0.562,0.434c0.148,0.186 0.263,0.411 0.346,0.674c0.084,0.263 0.125,0.544 0.125,0.844c0,0.711 -0.176,1.26 -0.527,1.648c-0.352,0.388 -0.774,0.582 -1.266,0.582c-0.489,0 -0.873,-0.204 -1.152,-0.613l0,0.519Zm-0.008,-2.105c0,0.497 0.068,0.857 0.203,1.078c0.222,0.362 0.521,0.543 0.899,0.543c0.307,0 0.573,-0.133 0.796,-0.4c0.224,-0.267 0.336,-0.665 0.336,-1.194c0,-0.541 -0.107,-0.941 -0.322,-1.199c-0.215,-0.258 -0.474,-0.387 -0.779,-0.387c-0.307,0 -0.573,0.134 -0.797,0.401c-0.224,0.267 -0.336,0.653 -0.336,1.158Z" style="fill:none;stroke:#f00;stroke-width:0.03px;stroke-linecap:butt;stroke-miterlimit:1.41421;"/>
                <path d="M33.591,61.199l0,-0.609c-0.323,0.469 -0.761,0.703 -1.316,0.703c-0.245,0 -0.473,-0.047 -0.686,-0.141c-0.212,-0.093 -0.369,-0.211 -0.472,-0.353c-0.103,-0.142 -0.175,-0.316 -0.217,-0.522c-0.029,-0.138 -0.043,-0.356 -0.043,-0.656l0,-2.57l0.703,0l0,2.301c0,0.367 0.014,0.614 0.043,0.742c0.044,0.185 0.138,0.33 0.281,0.435c0.144,0.106 0.321,0.159 0.532,0.159c0.211,0 0.408,-0.054 0.593,-0.162c0.185,-0.109 0.316,-0.256 0.393,-0.442c0.077,-0.186 0.115,-0.456 0.115,-0.81l0,-2.223l0.703,0l0,4.148l-0.629,0Z" style="fill:none;stroke:#f00;stroke-width:0.03px;stroke-linecap:butt;stroke-miterlimit:1.41421;"/>
                <path d="M35.322,61.199l0,-4.148l0.629,0l0,0.582c0.13,-0.203 0.303,-0.367 0.519,-0.49c0.216,-0.124 0.463,-0.186 0.739,-0.186c0.307,0 0.559,0.064 0.755,0.192c0.197,0.127 0.336,0.306 0.416,0.535c0.329,-0.485 0.756,-0.727 1.282,-0.727c0.411,0 0.728,0.114 0.949,0.342c0.221,0.228 0.332,0.579 0.332,1.053l0,2.847l-0.699,0l0,-2.613c0,-0.281 -0.023,-0.484 -0.069,-0.607c-0.045,-0.124 -0.128,-0.224 -0.248,-0.299c-0.119,-0.076 -0.26,-0.113 -0.422,-0.113c-0.291,0 -0.533,0.097 -0.726,0.291c-0.193,0.194 -0.289,0.504 -0.289,0.931l0,2.41l-0.703,0l0,-2.695c0,-0.312 -0.058,-0.547 -0.172,-0.703c-0.115,-0.156 -0.302,-0.234 -0.563,-0.234c-0.198,0 -0.381,0.052 -0.548,0.156c-0.168,0.104 -0.29,0.256 -0.366,0.457c-0.075,0.2 -0.113,0.489 -0.113,0.867l0,2.152l-0.703,0Z" style="fill:none;stroke:#f00;stroke-width:0.03px;stroke-linecap:butt;stroke-miterlimit:1.41421;"/>
                <path d="M41.986,62.789l0,-5.738l0.641,0l0,0.539c0.151,-0.211 0.321,-0.369 0.511,-0.475c0.19,-0.105 0.421,-0.158 0.692,-0.158c0.354,0 0.666,0.091 0.937,0.274c0.271,0.182 0.475,0.439 0.613,0.771c0.138,0.332 0.207,0.696 0.207,1.092c0,0.424 -0.076,0.807 -0.228,1.146c-0.152,0.34 -0.374,0.601 -0.664,0.782c-0.29,0.181 -0.596,0.271 -0.916,0.271c-0.234,0 -0.445,-0.049 -0.631,-0.148c-0.186,-0.099 -0.339,-0.224 -0.459,-0.375l0,2.019l-0.703,0Zm0.637,-3.64c0,0.533 0.108,0.928 0.324,1.183c0.216,0.255 0.478,0.383 0.785,0.383c0.313,0 0.58,-0.132 0.803,-0.396c0.222,-0.265 0.334,-0.674 0.334,-1.229c0,-0.529 -0.109,-0.924 -0.326,-1.188c-0.218,-0.263 -0.478,-0.394 -0.78,-0.394c-0.299,0 -0.564,0.14 -0.795,0.42c-0.23,0.28 -0.345,0.687 -0.345,1.221Z" style="fill:none;stroke:#f00;stroke-width:0.03px;stroke-linecap:butt;stroke-miterlimit:1.41421;"/>
                <path d="M46.154,59.961l0.695,-0.109c0.039,0.278 0.148,0.492 0.326,0.64c0.179,0.149 0.428,0.223 0.748,0.223c0.323,0 0.563,-0.066 0.719,-0.197c0.156,-0.132 0.235,-0.286 0.235,-0.463c0,-0.159 -0.069,-0.284 -0.207,-0.375c-0.097,-0.063 -0.336,-0.142 -0.719,-0.238c-0.516,-0.131 -0.873,-0.243 -1.072,-0.338c-0.2,-0.095 -0.351,-0.227 -0.454,-0.395c-0.102,-0.168 -0.154,-0.353 -0.154,-0.557c0,-0.184 0.042,-0.356 0.127,-0.513c0.085,-0.158 0.2,-0.289 0.346,-0.393c0.109,-0.08 0.258,-0.149 0.447,-0.205c0.189,-0.056 0.391,-0.084 0.607,-0.084c0.326,0 0.612,0.047 0.858,0.141c0.246,0.094 0.428,0.221 0.545,0.381c0.117,0.16 0.198,0.374 0.242,0.642l-0.688,0.094c-0.031,-0.214 -0.121,-0.38 -0.271,-0.5c-0.15,-0.12 -0.361,-0.18 -0.635,-0.18c-0.323,0 -0.553,0.054 -0.691,0.16c-0.138,0.107 -0.207,0.232 -0.207,0.375c0,0.092 0.028,0.174 0.086,0.247c0.057,0.075 0.147,0.138 0.269,0.187c0.071,0.026 0.278,0.086 0.621,0.18c0.498,0.133 0.845,0.241 1.041,0.326c0.197,0.085 0.351,0.208 0.463,0.369c0.112,0.162 0.168,0.362 0.168,0.602c0,0.234 -0.068,0.455 -0.205,0.662c-0.137,0.207 -0.334,0.367 -0.592,0.48c-0.257,0.113 -0.549,0.17 -0.875,0.17c-0.539,0 -0.95,-0.112 -1.232,-0.336c-0.283,-0.224 -0.463,-0.556 -0.541,-0.996Z" style="fill:none;stroke:#f00;stroke-width:0.03px;stroke-linecap:butt;stroke-miterlimit:1.41421;"/>
            </g>
            <g transform="matrix(1,0,0,1,53.6823,-35.8094)">
                <path d="M19.556,58.375c0,-0.677 0.07,-1.222 0.209,-1.635c0.14,-0.412 0.347,-0.731 0.621,-0.955c0.275,-0.224 0.621,-0.336 1.037,-0.336c0.308,0 0.577,0.062 0.809,0.186c0.232,0.124 0.423,0.302 0.574,0.535c0.151,0.233 0.27,0.517 0.356,0.852c0.086,0.334 0.129,0.785 0.129,1.353c0,0.672 -0.069,1.214 -0.207,1.627c-0.138,0.413 -0.345,0.732 -0.62,0.957c-0.274,0.225 -0.621,0.338 -1.041,0.338c-0.552,0 -0.985,-0.198 -1.3,-0.594c-0.378,-0.476 -0.567,-1.252 -0.567,-2.328Zm0.723,0c0,0.94 0.11,1.566 0.33,1.877c0.22,0.311 0.492,0.467 0.814,0.467c0.323,0 0.595,-0.156 0.815,-0.469c0.22,-0.312 0.33,-0.937 0.33,-1.875c0,-0.943 -0.11,-1.569 -0.33,-1.879c-0.22,-0.31 -0.494,-0.465 -0.822,-0.465c-0.323,0 -0.581,0.137 -0.774,0.411c-0.242,0.349 -0.363,0.993 -0.363,1.933Z" style="fill:none;stroke:#f00;stroke-width:0.03px;stroke-linecap:butt;stroke-miterlimit:1.41421;"/>
                <rect x="24.4" y="60.399" width="0.801" height="0.801" style="fill:none;stroke:#f00;stroke-width:0.03px;stroke-linecap:butt;stroke-miterlimit:1.41421;"/>
                <path d="M29.923,60.524l0,0.675l-3.785,0c-0.005,-0.169 0.022,-0.332 0.082,-0.488c0.097,-0.258 0.251,-0.512 0.463,-0.762c0.212,-0.25 0.519,-0.539 0.92,-0.867c0.623,-0.51 1.043,-0.915 1.262,-1.213c0.219,-0.298 0.328,-0.58 0.328,-0.845c0,-0.279 -0.1,-0.514 -0.299,-0.705c-0.199,-0.192 -0.459,-0.288 -0.779,-0.288c-0.339,0 -0.61,0.102 -0.813,0.305c-0.203,0.203 -0.306,0.484 -0.308,0.844l-0.723,-0.074c0.05,-0.539 0.236,-0.95 0.559,-1.233c0.323,-0.282 0.756,-0.424 1.3,-0.424c0.55,0 0.985,0.153 1.305,0.457c0.32,0.305 0.481,0.683 0.481,1.133c0,0.229 -0.047,0.455 -0.141,0.676c-0.094,0.221 -0.249,0.454 -0.467,0.699c-0.217,0.245 -0.579,0.581 -1.084,1.008c-0.422,0.354 -0.692,0.594 -0.812,0.721c-0.12,0.126 -0.219,0.253 -0.297,0.381l2.808,0Z" style="fill:none;stroke:#f00;stroke-width:0.03px;stroke-linecap:butt;stroke-miterlimit:1.41421;"/>
                <path d="M30.873,61.199l0,-4.148l0.629,0l0,0.582c0.13,-0.203 0.303,-0.367 0.519,-0.49c0.216,-0.124 0.462,-0.186 0.738,-0.186c0.308,0 0.56,0.064 0.756,0.192c0.197,0.127 0.336,0.306 0.416,0.535c0.328,-0.485 0.755,-0.727 1.281,-0.727c0.412,0 0.728,0.114 0.95,0.342c0.221,0.228 0.332,0.579 0.332,1.053l0,2.847l-0.699,0l0,-2.613c0,-0.281 -0.023,-0.484 -0.069,-0.607c-0.045,-0.124 -0.128,-0.224 -0.248,-0.299c-0.12,-0.076 -0.26,-0.113 -0.422,-0.113c-0.291,0 -0.534,0.097 -0.726,0.291c-0.193,0.194 -0.289,0.504 -0.289,0.931l0,2.41l-0.704,0l0,-2.695c0,-0.312 -0.057,-0.547 -0.171,-0.703c-0.115,-0.156 -0.302,-0.234 -0.563,-0.234c-0.198,0 -0.381,0.052 -0.549,0.156c-0.168,0.104 -0.289,0.256 -0.365,0.457c-0.075,0.2 -0.113,0.489 -0.113,0.867l0,2.152l-0.703,0Z" style="fill:none;stroke:#f00;stroke-width:0.03px;stroke-linecap:butt;stroke-miterlimit:1.41421;"/>
                <path d="M37.537,61.199l0,-4.148l0.629,0l0,0.582c0.13,-0.203 0.303,-0.367 0.519,-0.49c0.216,-0.124 0.462,-0.186 0.738,-0.186c0.308,0 0.56,0.064 0.756,0.192c0.197,0.127 0.336,0.306 0.416,0.535c0.328,-0.485 0.756,-0.727 1.282,-0.727c0.411,0 0.727,0.114 0.949,0.342c0.221,0.228 0.332,0.579 0.332,1.053l0,2.847l-0.699,0l0,-2.613c0,-0.281 -0.023,-0.484 -0.069,-0.607c-0.045,-0.124 -0.128,-0.224 -0.248,-0.299c-0.12,-0.076 -0.26,-0.113 -0.422,-0.113c-0.291,0 -0.534,0.097 -0.726,0.291c-0.193,0.194 -0.289,0.504 -0.289,0.931l0,2.41l-0.703,0l0,-2.695c0,-0.312 -0.058,-0.547 -0.172,-0.703c-0.115,-0.156 -0.302,-0.234 -0.563,-0.234c-0.198,0 -0.381,0.052 -0.549,0.156c-0.168,0.104 -0.289,0.256 -0.365,0.457c-0.075,0.2 -0.113,0.489 -0.113,0.867l0,2.152l-0.703,0Z" style="fill:none;stroke:#f00;stroke-width:0.03px;stroke-linecap:butt;stroke-miterlimit:1.41421;"/>
            </g>
            <g transform="matrix(1,0,0,1,105.458,-35.8133)">
                <path d="M19.556,58.375c0,-0.677 0.07,-1.222 0.209,-1.635c0.14,-0.412 0.347,-0.731 0.621,-0.955c0.275,-0.224 0.621,-0.336 1.037,-0.336c0.308,0 0.577,0.062 0.809,0.186c0.232,0.124 0.423,0.302 0.574,0.535c0.151,0.233 0.27,0.517 0.356,0.852c0.086,0.334 0.129,0.785 0.129,1.353c0,0.672 -0.069,1.214 -0.207,1.627c-0.138,0.413 -0.345,0.732 -0.62,0.957c-0.274,0.225 -0.621,0.338 -1.041,0.338c-0.552,0 -0.985,-0.198 -1.3,-0.594c-0.378,-0.476 -0.567,-1.252 -0.567,-2.328Zm0.723,0c0,0.94 0.11,1.566 0.33,1.877c0.22,0.311 0.492,0.467 0.814,0.467c0.323,0 0.595,-0.156 0.815,-0.469c0.22,-0.312 0.33,-0.937 0.33,-1.875c0,-0.943 -0.11,-1.569 -0.33,-1.879c-0.22,-0.31 -0.494,-0.465 -0.822,-0.465c-0.323,0 -0.581,0.137 -0.774,0.411c-0.242,0.349 -0.363,0.993 -0.363,1.933Z" style="fill:none;stroke:#f00;stroke-width:0.03px;stroke-linecap:butt;stroke-miterlimit:1.41421;"/>
                <rect x="24.4" y="60.399" width="0.801" height="0.801" style="fill:none;stroke:#f00;stroke-width:0.03px;stroke-linecap:butt;stroke-miterlimit:1.41421;"/>
                <path d="M29.923,60.524l0,0.675l-3.785,0c-0.005,-0.169 0.022,-0.332 0.082,-0.488c0.097,-0.258 0.251,-0.512 0.463,-0.762c0.212,-0.25 0.519,-0.539 0.92,-0.867c0.623,-0.51 1.043,-0.915 1.262,-1.213c0.219,-0.298 0.328,-0.58 0.328,-0.845c0,-0.279 -0.1,-0.514 -0.299,-0.705c-0.199,-0.192 -0.459,-0.288 -0.779,-0.288c-0.339,0 -0.61,0.102 -0.813,0.305c-0.203,0.203 -0.306,0.484 -0.308,0.844l-0.723,-0.074c0.05,-0.539 0.236,-0.95 0.559,-1.233c0.323,-0.282 0.756,-0.424 1.3,-0.424c0.55,0 0.985,0.153 1.305,0.457c0.32,0.305 0.481,0.683 0.481,1.133c0,0.229 -0.047,0.455 -0.141,0.676c-0.094,0.221 -0.249,0.454 -0.467,0.699c-0.217,0.245 -0.579,0.581 -1.084,1.008c-0.422,0.354 -0.692,0.594 -0.812,0.721c-0.12,0.126 -0.219,0.253 -0.297,0.381l2.808,0Z" style="fill:none;stroke:#f00;stroke-width:0.03px;stroke-linecap:butt;stroke-miterlimit:1.41421;"/>
                <path d="M30.677,59.699l0.739,-0.062c0.054,0.359 0.181,0.629 0.38,0.81c0.2,0.181 0.44,0.272 0.721,0.272c0.339,0 0.625,-0.128 0.86,-0.383c0.234,-0.255 0.351,-0.594 0.351,-1.016c0,-0.401 -0.113,-0.717 -0.338,-0.949c-0.225,-0.232 -0.52,-0.347 -0.885,-0.347c-0.226,0 -0.431,0.051 -0.613,0.154c-0.182,0.103 -0.325,0.236 -0.43,0.4l-0.66,-0.086l0.555,-2.941l2.848,0l0,0.672l-2.285,0l-0.309,1.539c0.344,-0.24 0.704,-0.36 1.082,-0.36c0.5,0 0.922,0.174 1.266,0.52c0.343,0.346 0.515,0.792 0.515,1.336c0,0.518 -0.151,0.966 -0.453,1.344c-0.367,0.463 -0.868,0.695 -1.504,0.695c-0.521,0 -0.946,-0.146 -1.275,-0.437c-0.33,-0.292 -0.518,-0.679 -0.565,-1.161Z" style="fill:none;stroke:#f00;stroke-width:0.03px;stroke-linecap:butt;stroke-miterlimit:1.41421;"/>
                <path d="M35.322,61.199l0,-4.148l0.629,0l0,0.582c0.13,-0.203 0.303,-0.367 0.519,-0.49c0.216,-0.124 0.463,-0.186 0.739,-0.186c0.307,0 0.559,0.064 0.755,0.192c0.197,0.127 0.336,0.306 0.416,0.535c0.329,-0.485 0.756,-0.727 1.282,-0.727c0.411,0 0.728,0.114 0.949,0.342c0.221,0.228 0.332,0.579 0.332,1.053l0,2.847l-0.699,0l0,-2.613c0,-0.281 -0.023,-0.484 -0.069,-0.607c-0.045,-0.124 -0.128,-0.224 -0.248,-0.299c-0.119,-0.076 -0.26,-0.113 -0.422,-0.113c-0.291,0 -0.533,0.097 -0.726,0.291c-0.193,0.194 -0.289,0.504 -0.289,0.931l0,2.41l-0.703,0l0,-2.695c0,-0.312 -0.058,-0.547 -0.172,-0.703c-0.115,-0.156 -0.302,-0.234 -0.563,-0.234c-0.198,0 -0.381,0.052 -0.548,0.156c-0.168,0.104 -0.29,0.256 -0.366,0.457c-0.075,0.2 -0.113,0.489 -0.113,0.867l0,2.152l-0.703,0Z" style="fill:none;stroke:#f00;stroke-width:0.03px;stroke-linecap:butt;stroke-miterlimit:1.41421;"/>
                <path d="M41.986,61.199l0,-4.148l0.629,0l0,0.582c0.13,-0.203 0.303,-0.367 0.519,-0.49c0.217,-0.124 0.463,-0.186 0.739,-0.186c0.307,0 0.559,0.064 0.756,0.192c0.196,0.127 0.335,0.306 0.416,0.535c0.328,-0.485 0.755,-0.727 1.281,-0.727c0.411,0 0.728,0.114 0.949,0.342c0.221,0.228 0.332,0.579 0.332,1.053l0,2.847l-0.699,0l0,-2.613c0,-0.281 -0.023,-0.484 -0.069,-0.607c-0.045,-0.124 -0.128,-0.224 -0.248,-0.299c-0.119,-0.076 -0.26,-0.113 -0.421,-0.113c-0.292,0 -0.534,0.097 -0.727,0.291c-0.193,0.194 -0.289,0.504 -0.289,0.931l0,2.41l-0.703,0l0,-2.695c0,-0.312 -0.058,-0.547 -0.172,-0.703c-0.115,-0.156 -0.302,-0.234 -0.563,-0.234c-0.198,0 -0.38,0.052 -0.548,0.156c-0.168,0.104 -0.29,0.256 -0.366,0.457c-0.075,0.2 -0.113,0.489 -0.113,0.867l0,2.152l-0.703,0Z" style="fill:none;stroke:#f00;stroke-width:0.03px;stroke-linecap:butt;stroke-miterlimit:1.41421;"/>
            </g>
            <g transform="matrix(1,0,0,1,161.682,-35.8094)">
                <path d="M19.556,58.375c0,-0.677 0.07,-1.222 0.209,-1.635c0.14,-0.412 0.347,-0.731 0.621,-0.955c0.275,-0.224 0.621,-0.336 1.037,-0.336c0.308,0 0.577,0.062 0.809,0.186c0.232,0.124 0.423,0.302 0.574,0.535c0.151,0.233 0.27,0.517 0.356,0.852c0.086,0.334 0.129,0.785 0.129,1.353c0,0.672 -0.069,1.214 -0.207,1.627c-0.138,0.413 -0.345,0.732 -0.62,0.957c-0.274,0.225 -0.621,0.338 -1.041,0.338c-0.552,0 -0.985,-0.198 -1.3,-0.594c-0.378,-0.476 -0.567,-1.252 -0.567,-2.328Zm0.723,0c0,0.94 0.11,1.566 0.33,1.877c0.22,0.311 0.492,0.467 0.814,0.467c0.323,0 0.595,-0.156 0.815,-0.469c0.22,-0.312 0.33,-0.937 0.33,-1.875c0,-0.943 -0.11,-1.569 -0.33,-1.879c-0.22,-0.31 -0.494,-0.465 -0.822,-0.465c-0.323,0 -0.581,0.137 -0.774,0.411c-0.242,0.349 -0.363,0.993 -0.363,1.933Z" style="fill:none;stroke:#f00;stroke-width:0.03px;stroke-linecap:butt;stroke-miterlimit:1.41421;"/>
                <rect x="24.4" y="60.399" width="0.801" height="0.801" style="fill:none;stroke:#f00;stroke-width:0.03px;stroke-linecap:butt;stroke-miterlimit:1.41421;"/>
                <path d="M26.232,59.688l0.703,-0.094c0.081,0.398 0.218,0.685 0.412,0.861c0.194,0.176 0.431,0.264 0.709,0.264c0.331,0 0.61,-0.115 0.838,-0.344c0.228,-0.229 0.342,-0.513 0.342,-0.851c0,-0.323 -0.106,-0.59 -0.316,-0.799c-0.211,-0.21 -0.48,-0.315 -0.805,-0.315c-0.133,0 -0.298,0.026 -0.496,0.078l0.078,-0.617c0.047,0.005 0.085,0.008 0.113,0.008c0.3,0 0.569,-0.078 0.809,-0.234c0.239,-0.157 0.359,-0.397 0.359,-0.723c0,-0.258 -0.087,-0.471 -0.262,-0.641c-0.174,-0.169 -0.399,-0.254 -0.675,-0.254c-0.274,0 -0.502,0.086 -0.684,0.258c-0.182,0.172 -0.299,0.43 -0.352,0.774l-0.703,-0.125c0.086,-0.472 0.282,-0.837 0.586,-1.096c0.305,-0.259 0.684,-0.389 1.137,-0.389c0.312,0 0.6,0.067 0.863,0.202c0.263,0.134 0.464,0.317 0.604,0.548c0.139,0.232 0.209,0.478 0.209,0.739c0,0.247 -0.067,0.472 -0.199,0.675c-0.133,0.204 -0.33,0.365 -0.59,0.485c0.338,0.078 0.601,0.24 0.789,0.486c0.187,0.246 0.281,0.554 0.281,0.924c0,0.5 -0.182,0.924 -0.547,1.271c-0.364,0.348 -0.825,0.522 -1.383,0.522c-0.502,0 -0.92,-0.15 -1.252,-0.449c-0.332,-0.3 -0.521,-0.688 -0.568,-1.164Z" style="fill:none;stroke:#f00;stroke-width:0.03px;stroke-linecap:butt;stroke-miterlimit:1.41421;"/>
                <path d="M30.873,61.199l0,-4.148l0.629,0l0,0.582c0.13,-0.203 0.303,-0.367 0.519,-0.49c0.216,-0.124 0.462,-0.186 0.738,-0.186c0.308,0 0.56,0.064 0.756,0.192c0.197,0.127 0.336,0.306 0.416,0.535c0.328,-0.485 0.755,-0.727 1.281,-0.727c0.412,0 0.728,0.114 0.95,0.342c0.221,0.228 0.332,0.579 0.332,1.053l0,2.847l-0.699,0l0,-2.613c0,-0.281 -0.023,-0.484 -0.069,-0.607c-0.045,-0.124 -0.128,-0.224 -0.248,-0.299c-0.12,-0.076 -0.26,-0.113 -0.422,-0.113c-0.291,0 -0.534,0.097 -0.726,0.291c-0.193,0.194 -0.289,0.504 -0.289,0.931l0,2.41l-0.704,0l0,-2.695c0,-0.312 -0.057,-0.547 -0.171,-0.703c-0.115,-0.156 -0.302,-0.234 -0.563,-0.234c-0.198,0 -0.381,0.052 -0.549,0.156c-0.168,0.104 -0.289,0.256 -0.365,0.457c-0.075,0.2 -0.113,0.489 -0.113,0.867l0,2.152l-0.703,0Z" style="fill:none;stroke:#f00;stroke-width:0.03px;stroke-linecap:butt;stroke-miterlimit:1.41421;"/>
                <path d="M37.537,61.199l0,-4.148l0.629,0l0,0.582c0.13,-0.203 0.303,-0.367 0.519,-0.49c0.216,-0.124 0.462,-0.186 0.738,-0.186c0.308,0 0.56,0.064 0.756,0.192c0.197,0.127 0.336,0.306 0.416,0.535c0.328,-0.485 0.756,-0.727 1.282,-0.727c0.411,0 0.727,0.114 0.949,0.342c0.221,0.228 0.332,0.579 0.332,1.053l0,2.847l-0.699,0l0,-2.613c0,-0.281 -0.023,-0.484 -0.069,-0.607c-0.045,-0.124 -0.128,-0.224 -0.248,-0.299c-0.12,-0.076 -0.26,-0.113 -0.422,-0.113c-0.291,0 -0.534,0.097 -0.726,0.291c-0.193,0.194 -0.289,0.504 -0.289,0.931l0,2.41l-0.703,0l0,-2.695c0,-0.312 -0.058,-0.547 -0.172,-0.703c-0.115,-0.156 -0.302,-0.234 -0.563,-0.234c-0.198,0 -0.381,0.052 -0.549,0.156c-0.168,0.104 -0.289,0.256 -0.365,0.457c-0.075,0.2 -0.113,0.489 -0.113,0.867l0,2.152l-0.703,0Z" style="fill:none;stroke:#f00;stroke-width:0.03px;stroke-linecap:butt;stroke-miterlimit:1.41421;"/>
            </g>
            <g transform="matrix(1,0,0,1,-0.151584,57.242)">
                <path d="M23.252,60.524l0,0.675l-3.786,0c-0.005,-0.169 0.023,-0.332 0.082,-0.488c0.097,-0.258 0.251,-0.512 0.463,-0.762c0.213,-0.25 0.519,-0.539 0.92,-0.867c0.623,-0.51 1.043,-0.915 1.262,-1.213c0.219,-0.298 0.328,-0.58 0.328,-0.845c0,-0.279 -0.1,-0.514 -0.299,-0.705c-0.199,-0.192 -0.459,-0.288 -0.779,-0.288c-0.339,0 -0.609,0.102 -0.813,0.305c-0.203,0.203 -0.306,0.484 -0.308,0.844l-0.723,-0.074c0.05,-0.539 0.236,-0.95 0.559,-1.233c0.323,-0.282 0.756,-0.424 1.301,-0.424c0.549,0 0.984,0.153 1.304,0.457c0.321,0.305 0.481,0.683 0.481,1.133c0,0.229 -0.047,0.455 -0.141,0.676c-0.094,0.221 -0.249,0.454 -0.467,0.699c-0.217,0.245 -0.578,0.581 -1.084,1.008c-0.422,0.354 -0.692,0.594 -0.812,0.721c-0.12,0.126 -0.219,0.253 -0.297,0.381l2.809,0Z" style="fill:none;stroke:#f00;stroke-width:0.03px;stroke-linecap:butt;stroke-miterlimit:1.41421;"/>
                <path d="M27.072,61.199l-0.652,0l0,-5.726l0.703,0l0,2.043c0.297,-0.373 0.675,-0.559 1.136,-0.559c0.256,0 0.497,0.052 0.725,0.154c0.228,0.103 0.415,0.248 0.562,0.434c0.148,0.186 0.263,0.411 0.346,0.674c0.084,0.263 0.125,0.544 0.125,0.844c0,0.711 -0.176,1.26 -0.527,1.648c-0.352,0.388 -0.774,0.582 -1.266,0.582c-0.489,0 -0.873,-0.204 -1.152,-0.613l0,0.519Zm-0.008,-2.105c0,0.497 0.068,0.857 0.203,1.078c0.222,0.362 0.521,0.543 0.899,0.543c0.307,0 0.573,-0.133 0.796,-0.4c0.224,-0.267 0.336,-0.665 0.336,-1.194c0,-0.541 -0.107,-0.941 -0.322,-1.199c-0.215,-0.258 -0.474,-0.387 -0.779,-0.387c-0.307,0 -0.573,0.134 -0.797,0.401c-0.224,0.267 -0.336,0.653 -0.336,1.158Z" style="fill:none;stroke:#f00;stroke-width:0.03px;stroke-linecap:butt;stroke-miterlimit:1.41421;"/>
                <path d="M33.591,61.199l0,-0.609c-0.323,0.469 -0.761,0.703 -1.316,0.703c-0.245,0 -0.473,-0.047 -0.686,-0.141c-0.212,-0.093 -0.369,-0.211 -0.472,-0.353c-0.103,-0.142 -0.175,-0.316 -0.217,-0.522c-0.029,-0.138 -0.043,-0.356 -0.043,-0.656l0,-2.57l0.703,0l0,2.301c0,0.367 0.014,0.614 0.043,0.742c0.044,0.185 0.138,0.33 0.281,0.435c0.144,0.106 0.321,0.159 0.532,0.159c0.211,0 0.408,-0.054 0.593,-0.162c0.185,-0.109 0.316,-0.256 0.393,-0.442c0.077,-0.186 0.115,-0.456 0.115,-0.81l0,-2.223l0.703,0l0,4.148l-0.629,0Z" style="fill:none;stroke:#f00;stroke-width:0.03px;stroke-linecap:butt;stroke-miterlimit:1.41421;"/>
                <path d="M35.322,61.199l0,-4.148l0.629,0l0,0.582c0.13,-0.203 0.303,-0.367 0.519,-0.49c0.216,-0.124 0.463,-0.186 0.739,-0.186c0.307,0 0.559,0.064 0.755,0.192c0.197,0.127 0.336,0.306 0.416,0.535c0.329,-0.485 0.756,-0.727 1.282,-0.727c0.411,0 0.728,0.114 0.949,0.342c0.221,0.228 0.332,0.579 0.332,1.053l0,2.847l-0.699,0l0,-2.613c0,-0.281 -0.023,-0.484 -0.069,-0.607c-0.045,-0.124 -0.128,-0.224 -0.248,-0.299c-0.119,-0.076 -0.26,-0.113 -0.422,-0.113c-0.291,0 -0.533,0.097 -0.726,0.291c-0.193,0.194 -0.289,0.504 -0.289,0.931l0,2.41l-0.703,0l0,-2.695c0,-0.312 -0.058,-0.547 -0.172,-0.703c-0.115,-0.156 -0.302,-0.234 -0.563,-0.234c-0.198,0 -0.381,0.052 -0.548,0.156c-0.168,0.104 -0.29,0.256 -0.366,0.457c-0.075,0.2 -0.113,0.489 -0.113,0.867l0,2.152l-0.703,0Z" style="fill:none;stroke:#f00;stroke-width:0.03px;stroke-linecap:butt;stroke-miterlimit:1.41421;"/>
                <path d="M41.986,62.789l0,-5.738l0.641,0l0,0.539c0.151,-0.211 0.321,-0.369 0.511,-0.475c0.19,-0.105 0.421,-0.158 0.692,-0.158c0.354,0 0.666,0.091 0.937,0.274c0.271,0.182 0.475,0.439 0.613,0.771c0.138,0.332 0.207,0.696 0.207,1.092c0,0.424 -0.076,0.807 -0.228,1.146c-0.152,0.34 -0.374,0.601 -0.664,0.782c-0.29,0.181 -0.596,0.271 -0.916,0.271c-0.234,0 -0.445,-0.049 -0.631,-0.148c-0.186,-0.099 -0.339,-0.224 -0.459,-0.375l0,2.019l-0.703,0Zm0.637,-3.64c0,0.533 0.108,0.928 0.324,1.183c0.216,0.255 0.478,0.383 0.785,0.383c0.313,0 0.58,-0.132 0.803,-0.396c0.222,-0.265 0.334,-0.674 0.334,-1.229c0,-0.529 -0.109,-0.924 -0.326,-1.188c-0.218,-0.263 -0.478,-0.394 -0.78,-0.394c-0.299,0 -0.564,0.14 -0.795,0.42c-0.23,0.28 -0.345,0.687 -0.345,1.221Z" style="fill:none;stroke:#f00;stroke-width:0.03px;stroke-linecap:butt;stroke-miterlimit:1.41421;"/>
                <path d="M46.154,59.961l0.695,-0.109c0.039,0.278 0.148,0.492 0.326,0.64c0.179,0.149 0.428,0.223 0.748,0.223c0.323,0 0.563,-0.066 0.719,-0.197c0.156,-0.132 0.235,-0.286 0.235,-0.463c0,-0.159 -0.069,-0.284 -0.207,-0.375c-0.097,-0.063 -0.336,-0.142 -0.719,-0.238c-0.516,-0.131 -0.873,-0.243 -1.072,-0.338c-0.2,-0.095 -0.351,-0.227 -0.454,-0.395c-0.102,-0.168 -0.154,-0.353 -0.154,-0.557c0,-0.184 0.042,-0.356 0.127,-0.513c0.085,-0.158 0.2,-0.289 0.346,-0.393c0.109,-0.08 0.258,-0.149 0.447,-0.205c0.189,-0.056 0.391,-0.084 0.607,-0.084c0.326,0 0.612,0.047 0.858,0.141c0.246,0.094 0.428,0.221 0.545,0.381c0.117,0.16 0.198,0.374 0.242,0.642l-0.688,0.094c-0.031,-0.214 -0.121,-0.38 -0.271,-0.5c-0.15,-0.12 -0.361,-0.18 -0.635,-0.18c-0.323,0 -0.553,0.054 -0.691,0.16c-0.138,0.107 -0.207,0.232 -0.207,0.375c0,0.092 0.028,0.174 0.086,0.247c0.057,0.075 0.147,0.138 0.269,0.187c0.071,0.026 0.278,0.086 0.621,0.18c0.498,0.133 0.845,0.241 1.041,0.326c0.197,0.085 0.351,0.208 0.463,0.369c0.112,0.162 0.168,0.362 0.168,0.602c0,0.234 -0.068,0.455 -0.205,0.662c-0.137,0.207 -0.334,0.367 -0.592,0.48c-0.257,0.113 -0.549,0.17 -0.875,0.17c-0.539,0 -0.95,-0.112 -1.232,-0.336c-0.283,-0.224 -0.463,-0.556 -0.541,-0.996Z" style="fill:none;stroke:#f00;stroke-width:0.03px;stroke-linecap:butt;stroke-miterlimit:1.41421;"/>
            </g>
            <g transform="matrix(1,0,0,1,-0.151584,111.241)">
                <path d="M21.81,61.199l0,-1.371l-2.484,0l0,-0.644l2.613,-3.711l0.574,0l0,3.711l0.774,0l0,0.644l-0.774,0l0,1.371l-0.703,0Zm0,-2.015l0,-2.582l-1.793,2.582l1.793,0Z" style="fill:none;stroke:#f00;stroke-width:0.03px;stroke-linecap:butt;stroke-miterlimit:1.41421;"/>
                <path d="M27.072,61.199l-0.652,0l0,-5.726l0.703,0l0,2.043c0.297,-0.373 0.675,-0.559 1.136,-0.559c0.256,0 0.497,0.052 0.725,0.154c0.228,0.103 0.415,0.248 0.562,0.434c0.148,0.186 0.263,0.411 0.346,0.674c0.084,0.263 0.125,0.544 0.125,0.844c0,0.711 -0.176,1.26 -0.527,1.648c-0.352,0.388 -0.774,0.582 -1.266,0.582c-0.489,0 -0.873,-0.204 -1.152,-0.613l0,0.519Zm-0.008,-2.105c0,0.497 0.068,0.857 0.203,1.078c0.222,0.362 0.521,0.543 0.899,0.543c0.307,0 0.573,-0.133 0.796,-0.4c0.224,-0.267 0.336,-0.665 0.336,-1.194c0,-0.541 -0.107,-0.941 -0.322,-1.199c-0.215,-0.258 -0.474,-0.387 -0.779,-0.387c-0.307,0 -0.573,0.134 -0.797,0.401c-0.224,0.267 -0.336,0.653 -0.336,1.158Z" style="fill:none;stroke:#f00;stroke-width:0.03px;stroke-linecap:butt;stroke-miterlimit:1.41421;"/>
                <path d="M33.591,61.199l0,-0.609c-0.323,0.469 -0.761,0.703 -1.316,0.703c-0.245,0 -0.473,-0.047 -0.686,-0.141c-0.212,-0.093 -0.369,-0.211 -0.472,-0.353c-0.103,-0.142 -0.175,-0.316 -0.217,-0.522c-0.029,-0.138 -0.043,-0.356 -0.043,-0.656l0,-2.57l0.703,0l0,2.301c0,0.367 0.014,0.614 0.043,0.742c0.044,0.185 0.138,0.33 0.281,0.435c0.144,0.106 0.321,0.159 0.532,0.159c0.211,0 0.408,-0.054 0.593,-0.162c0.185,-0.109 0.316,-0.256 0.393,-0.442c0.077,-0.186 0.115,-0.456 0.115,-0.81l0,-2.223l0.703,0l0,4.148l-0.629,0Z" style="fill:none;stroke:#f00;stroke-width:0.03px;stroke-linecap:butt;stroke-miterlimit:1.41421;"/>
                <path d="M35.322,61.199l0,-4.148l0.629,0l0,0.582c0.13,-0.203 0.303,-0.367 0.519,-0.49c0.216,-0.124 0.463,-0.186 0.739,-0.186c0.307,0 0.559,0.064 0.755,0.192c0.197,0.127 0.336,0.306 0.416,0.535c0.329,-0.485 0.756,-0.727 1.282,-0.727c0.411,0 0.728,0.114 0.949,0.342c0.221,0.228 0.332,0.579 0.332,1.053l0,2.847l-0.699,0l0,-2.613c0,-0.281 -0.023,-0.484 -0.069,-0.607c-0.045,-0.124 -0.128,-0.224 -0.248,-0.299c-0.119,-0.076 -0.26,-0.113 -0.422,-0.113c-0.291,0 -0.533,0.097 -0.726,0.291c-0.193,0.194 -0.289,0.504 -0.289,0.931l0,2.41l-0.703,0l0,-2.695c0,-0.312 -0.058,-0.547 -0.172,-0.703c-0.115,-0.156 -0.302,-0.234 -0.563,-0.234c-0.198,0 -0.381,0.052 -0.548,0.156c-0.168,0.104 -0.29,0.256 -0.366,0.457c-0.075,0.2 -0.113,0.489 -0.113,0.867l0,2.152l-0.703,0Z" style="fill:none;stroke:#f00;stroke-width:0.03px;stroke-linecap:butt;stroke-miterlimit:1.41421;"/>
                <path d="M41.986,62.789l0,-5.738l0.641,0l0,0.539c0.151,-0.211 0.321,-0.369 0.511,-0.475c0.19,-0.105 0.421,-0.158 0.692,-0.158c0.354,0 0.666,0.091 0.937,0.274c0.271,0.182 0.475,0.439 0.613,0.771c0.138,0.332 0.207,0.696 0.207,1.092c0,0.424 -0.076,0.807 -0.228,1.146c-0.152,0.34 -0.374,0.601 -0.664,0.782c-0.29,0.181 -0.596,0.271 -0.916,0.271c-0.234,0 -0.445,-0.049 -0.631,-0.148c-0.186,-0.099 -0.339,-0.224 -0.459,-0.375l0,2.019l-0.703,0Zm0.637,-3.64c0,0.533 0.108,0.928 0.324,1.183c0.216,0.255 0.478,0.383 0.785,0.383c0.313,0 0.58,-0.132 0.803,-0.396c0.222,-0.265 0.334,-0.674 0.334,-1.229c0,-0.529 -0.109,-0.924 -0.326,-1.188c-0.218,-0.263 -0.478,-0.394 -0.78,-0.394c-0.299,0 -0.564,0.14 -0.795,0.42c-0.23,0.28 -0.345,0.687 -0.345,1.221Z" style="fill:none;stroke:#f00;stroke-width:0.03px;stroke-linecap:butt;stroke-miterlimit:1.41421;"/>
                <path d="M46.154,59.961l0.695,-0.109c0.039,0.278 0.148,0.492 0.326,0.64c0.179,0.149 0.428,0.223 0.748,0.223c0.323,0 0.563,-0.066 0.719,-0.197c0.156,-0.132 0.235,-0.286 0.235,-0.463c0,-0.159 -0.069,-0.284 -0.207,-0.375c-0.097,-0.063 -0.336,-0.142 -0.719,-0.238c-0.516,-0.131 -0.873,-0.243 -1.072,-0.338c-0.2,-0.095 -0.351,-0.227 -0.454,-0.395c-0.102,-0.168 -0.154,-0.353 -0.154,-0.557c0,-0.184 0.042,-0.356 0.127,-0.513c0.085,-0.158 0.2,-0.289 0.346,-0.393c0.109,-0.08 0.258,-0.149 0.447,-0.205c0.189,-0.056 0.391,-0.084 0.607,-0.084c0.326,0 0.612,0.047 0.858,0.141c0.246,0.094 0.428,0.221 0.545,0.381c0.117,0.16 0.198,0.374 0.242,0.642l-0.688,0.094c-0.031,-0.214 -0.121,-0.38 -0.271,-0.5c-0.15,-0.12 -0.361,-0.18 -0.635,-0.18c-0.323,0 -0.553,0.054 -0.691,0.16c-0.138,0.107 -0.207,0.232 -0.207,0.375c0,0.092 0.028,0.174 0.086,0.247c0.057,0.075 0.147,0.138 0.269,0.187c0.071,0.026 0.278,0.086 0.621,0.18c0.498,0.133 0.845,0.241 1.041,0.326c0.197,0.085 0.351,0.208 0.463,0.369c0.112,0.162 0.168,0.362 0.168,0.602c0,0.234 -0.068,0.455 -0.205,0.662c-0.137,0.207 -0.334,0.367 -0.592,0.48c-0.257,0.113 -0.549,0.17 -0.875,0.17c-0.539,0 -0.95,-0.112 -1.232,-0.336c-0.283,-0.224 -0.463,-0.556 -0.541,-0.996Z" style="fill:none;stroke:#f00;stroke-width:0.03px;stroke-linecap:butt;stroke-miterlimit:1.41421;"/>
            </g>
        </g>
    </g>
    <g id="Right-angled-by-10deg" serif:id="Right angled by 10deg" transform="matrix(1,0,0,1,-5.17136,2.50629)">
        <g id="_4-bumps2" serif:id="4 bumps" transform="matrix(0.984808,0.173648,-0.173648,0.984808,279.069,6.24148)">
            <g transform="matrix(1,0,0,1,-33.7323,37.1339)">
                <g id="_0.3mm-switch-master6" serif:id="0.3mm switch master">
                    <path d="M164.877,110.537l0,-4.677l-2.31,0l0,-9.071l2.31,0l0,-2.778l2.778,0l0,-2.31l9.071,0l0,2.31l4.677,0l0,0.71l5.669,0l0,-0.71l4.706,0l0,-2.31l9.071,0l0,2.31l2.778,0l0,2.778l2.31,0l0,9.071l-2.31,0l0,4.677l-0.709,0l0,5.669l0.709,0l0,4.706l2.31,0l0,9.071l-2.31,0l0,2.778l-2.778,0l0,2.31l-9.071,0l0,-2.31l-4.706,0l0,-0.709l-5.669,0l0,0.709l-4.677,0l0,2.31l-9.071,0l0,-2.31l-2.778,0l0,-2.778l-2.31,0l0,-9.071l2.31,0l0,-4.706l0.707,0l0,-5.669l-0.707,0Z" style="fill:none;stroke:#00f;stroke-width:0.03px;"/>
                </g>
            </g>
            <g transform="matrix(1,0,0,1,-16.8661,37.1339)">
                <g id="_0.25mm-switch-master6" serif:id="0.25mm switch master">
                    <path d="M105.931,93.94l4.606,0l0,0.709l5.669,0l0,-0.709l4.635,0l0,-2.31l9.213,0l0,2.31l2.777,0l0,2.778l2.311,0l0,9.213l-2.311,0l0,4.606l-0.708,0l0,5.669l0.708,0l0,4.635l2.311,0l0,9.213l-2.311,0l0,2.777l-2.777,0l0,2.311l-9.213,0l0,-2.311l-4.635,0l0,-0.708l-5.669,0l0,0.708l-4.606,0l0,2.311l-9.213,0l0,-2.311l-2.778,0l0,-2.777l-2.31,0l0,-9.213l2.31,0l0,-4.635l0.709,0l0,-5.669l-0.709,0l0,-4.606l-2.31,0l0,-9.213l2.31,0l0,-2.778l2.778,0l0,-2.31l9.213,0l0,2.31Z" style="fill:none;stroke:#00f;stroke-width:0.03px;"/>
                </g>
            </g>
            <g transform="matrix(1,0,0,1,0,37.1339)">
                <g id="_0.2mm-switch-master6" serif:id="0.2mm switch master">
                    <path d="M59.258,93.869l2.778,0l0,2.778l2.31,0l0,9.355l-2.31,0l0,4.549l-0.708,0l0,5.669l0.708,0l0,4.55l2.31,0l0,9.354l-2.31,0l0,2.778l-2.778,0l0,2.311l-9.354,0l0,-2.311l-4.55,0l0,-0.708l-5.669,0l0,0.708l-4.55,0l0,2.311l-9.354,0l0,-2.311l-2.778,0l0,-2.778l-2.31,0l0,-9.354l2.31,0l0,-4.55l0.709,0l0,-5.669l-0.709,0l0,-4.549l-2.31,0l0,-9.355l2.31,0l0,-2.778l2.778,0l0,-2.31l9.354,0l0,2.31l4.55,0l0,0.709l5.669,0l0,-0.709l4.55,0l0,-2.31l9.354,0l0,2.31Z" style="fill:none;stroke:#00f;stroke-width:0.03px;stroke-miterlimit:1;"/>
                </g>
            </g>
        </g>
        <g id="_2-bumps2" serif:id="2 bumps" transform="matrix(0.984808,0.173648,-0.173648,0.984808,279.069,6.24148)">
            <g transform="matrix(1,0,0,1,-33.7323,-16.8661)">
                <g id="_0.3mm-switch-master7" serif:id="0.3mm switch master">
                    <path d="M176.726,135.071l-9.071,0l0,-2.31l-2.778,0l0,-2.778l-2.31,0l0,-9.071l2.31,0l0,-15.052l-2.31,0l0,-9.071l2.31,0l0,-2.778l2.778,0l0,-2.31l9.071,0l0,2.31l4.677,0l0,0.71l5.669,0l0,-0.71l4.706,0l0,-2.31l9.071,0l0,2.31l2.778,0l0,2.778l2.31,0l0,9.071l-2.31,0l0,15.052l2.31,0l0,9.071l-2.31,0l0,2.778l-2.778,0l0,2.31l-9.071,0l0,-2.31l-4.706,0l0,-0.709l-5.669,0l0,0.709l-4.677,0l0,2.31Z" style="fill:none;stroke:#00f;stroke-width:0.03px;"/>
                </g>
            </g>
            <g transform="matrix(1,0,0,1,-16.8661,-16.8661)">
                <g id="_0.25mm-switch-master7" serif:id="0.25mm switch master">
                    <path d="M105.931,135.142l-9.213,0l0,-2.311l-2.778,0l0,-2.777l-2.31,0l0,-9.213l2.31,0l0,-14.91l-2.31,0l0,-9.213l2.31,0l0,-2.778l2.778,0l0,-2.31l9.213,0l0,2.31l4.606,0l0,0.723l5.669,0l0,-0.723l4.635,0l0,-2.31l9.213,0l0,2.31l2.777,0l0,2.778l2.311,0l0,9.213l-2.311,0l0,14.91l2.311,0l0,9.213l-2.311,0l0,2.777l-2.777,0l0,2.311l-9.213,0l0,-2.311l-4.635,0l0,-0.708l-5.669,0l0,0.708l-4.606,0l0,2.311Z" style="fill:none;stroke:#00f;stroke-width:0.03px;"/>
                </g>
            </g>
            <g transform="matrix(1,0,0,1,0,-16.8661)">
                <g id="_0.2mm-switch-master7" serif:id="0.2mm switch master">
                    <path d="M59.258,93.869l2.778,0l0,2.778l2.31,0l0,9.355l-2.31,0l0,14.768l2.31,0l0,9.354l-2.31,0l0,2.778l-2.778,0l0,2.311l-9.354,0l0,-2.311l-4.55,0l0,-0.708l-5.669,0l0,0.708l-4.55,0l0,2.311l-9.354,0l0,-2.311l-2.778,0l0,-2.778l-2.31,0l0,-9.354l2.31,0l0,-14.768l-2.31,0l0,-9.355l2.31,0l0,-2.778l2.778,0l0,-2.31l9.354,0l0,2.31l4.55,0l0,0.709l5.669,0l0,-0.709l4.55,0l0,-2.31l9.354,0l0,2.31Z" style="fill:none;stroke:#00f;stroke-width:0.03px;stroke-miterlimit:1;"/>
                </g>
            </g>
        </g>
        <g id="No-bumps2" serif:id="No bumps" transform="matrix(0.984808,0.173648,-0.173648,0.984808,279.069,6.24148)">
            <g transform="matrix(1,0,0,1,-15.9566,1.24345e-14)">
                <g id="_0.3mm-switch-master8" serif:id="0.3mm switch master">
                    <path d="M144.791,25.923l2.31,0l0,-2.778l2.778,0l0,-2.31l9.071,0l0,2.31l15.052,0l0,-2.31l9.071,0l0,2.31l2.778,0l0,2.778l2.31,0l0,9.071l-2.31,0l0,15.052l2.31,0l0,9.071l-2.31,0l0,2.777l-2.778,0l0,2.311l-9.071,0l0,-2.311l-15.052,0l0,2.311l-9.071,0l0,-2.311l-2.778,0l0,-2.777l-2.31,0l0,-9.071l2.31,0l0,-15.052l-2.31,0l0,-9.071Z" style="fill:none;stroke:#00f;stroke-width:0.03px;"/>
                </g>
            </g>
            <g id="_0.25mm-switch-master8" serif:id="0.25mm switch master" transform="matrix(1,0,0,1,-7.9783,1.24345e-14)">
                <path d="M82.742,25.852l2.31,0l0,-2.778l2.778,0l0,-2.31l9.213,0l0,2.31l14.91,0l0,-2.31l9.213,0l0,2.31l2.778,0l0,2.778l2.31,0l0,9.213l-2.31,0l0,14.91l2.31,0l0,9.212l-2.31,0l0,2.778l-2.778,0l0,2.311l-9.213,0l0,-2.311l-14.91,0l0,2.311l-9.213,0l0,-2.311l-2.778,0l0,-2.778l-2.31,0l0,-9.212l2.31,0l0,-14.91l-2.31,0l0,-9.213Z" style="fill:none;stroke:#00f;stroke-width:0.03px;"/>
            </g>
            <g id="_0.2mm-switch-master8" serif:id="0.2mm switch master">
                <path d="M20.693,25.781l2.31,0l0,-2.778l2.778,0l0,-2.31l9.354,0l0,2.31l14.769,0l0,-2.31l9.354,0l0,2.31l2.778,0l0,2.778l2.31,0l0,9.354l-2.31,0l0,14.769l2.31,0l0,9.354l-2.31,0l0,2.778l-2.778,0l0,2.31l-9.354,0l0,-2.31l-14.769,0l0,2.31l-9.354,0l0,-2.31l-2.778,0l0,-2.778l-2.31,0l0,-9.354l2.31,0l0,-14.769l-2.31,0l0,-9.354Z" style="fill:none;stroke:#00f;stroke-width:0.03px;stroke-miterlimit:1;"/>
            </g>
        </g>
    </g>
    <g id="Complete-4.5mm-Inlay-without-Outline" serif:id="Complete 4.5mm Inlay without Outline" transform="matrix(1,0,0,1,70.9546,150.386)">
        <g transform="matrix(1,0,0,1,-40.2495,-183.094)">
            <path d="M296.114,387.639c0.022,-0.002 0.044,-0.004 0.066,-0.005l12.755,0c0.083,0.005 0.165,0.009 0.248,0.014c1.033,0.183 1.067,0.246 1.595,1.051l42.362,73.575c0.162,0.323 0.233,0.665 0.227,1.001c0.022,0.374 -0.048,0.76 -0.228,1.123l-6.378,11.047c-0.631,0.959 -0.768,1.001 -1.841,1.063l-84.666,0c-0.731,-0.045 -1.351,-0.437 -1.719,-0.994c-0.037,-0.045 -0.072,-0.092 -0.105,-0.141l-6.553,-10.946c-0.539,-1.033 -0.506,-1.18 -0.017,-2.155l42.478,-73.575c0.623,-0.94 0.702,-1.051 1.776,-1.058Zm4.03,35.404l-3.964,-6.894l-32.252,56.107l79.764,0l3.923,-6.795l-68.169,0c-1.534,-0.089 -2.551,-1.769 -1.844,-3.185l22.542,-39.233Zm20.497,27.119l7.752,0l-32.219,-56.141l-40.007,69.295l4.079,6.813l34.09,-59.305c0.716,-1.083 0.858,-1.2 2.235,-1.03c0.572,0.145 0.92,0.225 1.452,1.03l22.618,39.338Zm-20.79,-58.276l34.058,59.344c0.677,1.368 -0.263,3.086 -1.844,3.184l-45.042,0l-3.904,6.795l64.501,0l-39.914,-69.323l-7.855,0Zm-10.385,58.276l26.271,0l-13.141,-22.853l-13.13,22.853Z" style="fill:none;stroke:#00f;stroke-width:0.03px;stroke-miterlimit:1.41421;"/>
        </g>
        <g id="Inlay-outline" serif:id="Inlay outline" transform="matrix(1,0,0,1,-168.689,31.4523)">
            <g transform="matrix(1.17265,0,0,-1.6096,-68.7183,585.703)">
                <rect x="421.197" y="264.525" width="9.669" height="5.283" style="fill:none;stroke:#00f;stroke-width:0.02px;"/>
            </g>
            <path d="M436.535,163.434c32.59,2.916 58.111,30.266 58.111,63.53c0,35.201 -28.579,63.78 -63.78,63.78c-35.201,0 -63.779,-28.579 -63.779,-63.78c0,-33.29 25.56,-60.658 58.11,-63.53l0,-3.509l11.338,0l0,3.509Z" style="fill:none;stroke:#00f;stroke-width:0.03px;"/>
        </g>
    </g>
    <g id="Complete-4.5mm-Inlay-with-Outline" serif:id="Complete 4.5mm Inlay with Outline" transform="matrix(1,0,0,1,-22.0649,-139.323)">
        <path d="M397.194,468.858l-0.018,0.01l-6.042,-10.092c0,0 -0.601,-0.992 -0.018,-2.155l39.168,-67.841c0.629,-0.955 0.767,-1.108 1.842,-1.061l0,-0.002l11.761,0c0.075,0.004 0.149,0.008 0.223,0.012c1.02,0.161 1.09,0.236 1.62,1.053l39.06,67.841c0.348,0.689 0.283,1.468 -0.07,2.084l0.069,0.04l-5.881,10.186c0,0 -0.561,0.988 -1.841,1.063l-78.067,0c-0.793,-0.049 -1.454,-0.505 -1.806,-1.138Zm38.396,-48.326l-3.464,-6.024l-29.452,51.236l73.166,0l3.426,-5.934l-62.57,0c-1.525,-0.084 -2.574,-1.734 -1.843,-3.185l5.852,-10.186l14.885,-25.907Zm19.187,24.84l6.766,0l-29.423,-51.268l-36.696,63.56l3.566,5.957l31.293,-54.438c0.715,-1.084 0.857,-1.201 2.234,-1.03c0.573,0.144 0.92,0.225 1.452,1.03l5.916,10.289l14.892,25.9Zm-18.98,-53.403l31.261,54.471c0.685,1.374 -0.264,3.092 -1.844,3.184l-41.435,0l-3.41,5.934l58.902,0l-36.613,-63.589l-6.861,0Zm-9.575,53.403l23.65,0l-11.83,-20.574l-11.82,20.574Z" style="fill:none;stroke:#00f;stroke-width:0.03px;stroke-miterlimit:1.41421;"/>
        <g id="Inlay-outline1" serif:id="Inlay outline" transform="matrix(1,0,0,1,7.08661,210.989)">
            <g transform="matrix(1.17265,0,0,-1.6096,-68.7183,585.703)">
                <rect x="421.197" y="264.525" width="9.669" height="5.283" style="fill:none;stroke:#00f;stroke-width:0.02px;"/>
            </g>
            <path d="M436.535,163.434c32.59,2.916 58.111,30.266 58.111,63.53c0,35.201 -28.579,63.78 -63.78,63.78c-35.201,0 -63.779,-28.579 -63.779,-63.78c0,-33.29 25.56,-60.658 58.11,-63.53l0,-3.509l11.338,0l0,3.509Z" style="fill:none;stroke:#00f;stroke-width:0.03px;"/>
        </g>
        <g id="Inlay-hole" serif:id="Inlay hole" transform="matrix(1.13826,1.05736e-16,-1.05736e-16,1.13826,-54.0991,179.608)">
            <circle cx="432.283" cy="226.964" r="49.807" style="fill:none;stroke:#00f;stroke-width:0.02px;"/>
        </g>
    </g>
</svg>
