<?xml version="1.0" standalone="no"?>
 <!DOCTYPE svg PUBLIC "-//W3C//DTD SVG 1.1//EN" 
 "http://www.w3.org/Graphics/SVG/1.1/DTD/svg11.dtd"> 
<svg xmlns="http://www.w3.org/2000/svg" version="1.1" 
    width="41.9989cm" height="29.7002cm" viewBox="0 0 165350 116930 ">
<title>SVG Picture created as Laptreus-v1-B.SilkS.svg date 2018/12/29 10:02:33 </title>
  <desc>Picture generated by PCBNEW </desc>
<g style="fill:#000000; fill-opacity:1;stroke:#000000; stroke-opacity:1;
stroke-linecap:round; stroke-linejoin:round; "
 transform="translate(0 0) scale(1 1)">
</g>
<g style="fill:#000000; fill-opacity:0.0; 
stroke:#000000; stroke-width:-0.000393701; stroke-opacity:1; 
stroke-linecap:round; stroke-linejoin:round;">
</g>
<g style="fill:#000000; fill-opacity:0.0; 
stroke:#000000; stroke-width:59.0551; stroke-opacity:1; 
stroke-linecap:round; stroke-linejoin:round;">
<path d="M96669 29763
L96557 29684
" />
<path d="M96669 29628
L96433 29628
L96433 29718
L96444 29740
L96456 29752
L96478 29763
L96512 29763
L96534 29752
L96546 29740
L96557 29718
L96557 29628
" />
<path d="M96546 29864
L96546 29943
" />
<path d="M96669 29976
L96669 29864
L96433 29864
L96433 29976
" />
<path d="M96658 30066
L96669 30100
L96669 30156
L96658 30179
L96647 30190
L96624 30201
L96602 30201
L96579 30190
L96568 30179
L96557 30156
L96546 30111
L96534 30089
L96523 30078
L96501 30066
L96478 30066
L96456 30078
L96444 30089
L96433 30111
L96433 30168
L96444 30201
" />
<path d="M96546 30303
L96546 30381
" />
<path d="M96669 30415
L96669 30303
L96433 30303
L96433 30415
" />
<path d="M96433 30483
L96433 30618
" />
<path d="M96669 30550
L96433 30550
" />
<path d="M94971 29172
L94982 29206
L94993 29217
L95016 29228
L95050 29228
L95072 29217
L95083 29206
L95095 29183
L95095 29093
L94858 29093
L94858 29172
L94870 29195
L94881 29206
L94903 29217
L94926 29217
L94948 29206
L94960 29195
L94971 29172
L94971 29093
" />
<path d="M94858 29307
L94858 29453
L94948 29375
L94948 29408
L94960 29431
L94971 29442
L94993 29453
L95050 29453
L95072 29442
L95083 29431
L95095 29408
L95095 29341
L95083 29318
L95072 29307
" />
<path d="M94858 29555
L95050 29555
L95072 29566
L95083 29577
L95095 29600
L95095 29645
L95083 29667
L95072 29678
L95050 29690
L94858 29690
" />
<path d="M95005 29802
L95005 29982
" />
<path d="M95095 30218
L95095 30083
" />
<path d="M95095 30151
L94858 30151
L94892 30128
L94915 30106
L94926 30083
" />
<path d="M94858 30365
L94858 30387
L94870 30410
L94881 30421
L94903 30432
L94948 30443
L95005 30443
L95050 30432
L95072 30421
L95083 30410
L95095 30387
L95095 30365
L95083 30342
L95072 30331
L95050 30320
L95005 30308
L94948 30308
L94903 30320
L94881 30331
L94870 30342
L94858 30365
" />
<path d="M94858 30590
L94858 30612
L94870 30635
L94881 30646
L94903 30657
L94948 30668
L95005 30668
L95050 30657
L95072 30646
L95083 30635
L95095 30612
L95095 30590
L95083 30567
L95072 30556
L95050 30545
L95005 30533
L94948 30533
L94903 30545
L94881 30556
L94870 30567
L94858 30590
" />
<path d="M94858 30815
L94858 30837
L94870 30860
L94881 30871
L94903 30882
L94948 30893
L95005 30893
L95050 30882
L95072 30871
L95083 30860
L95095 30837
L95095 30815
L95083 30792
L95072 30781
L95050 30770
L95005 30758
L94948 30758
L94903 30770
L94881 30781
L94870 30792
L94858 30815
" />
<path d="M95095 30994
L94858 30994
L94858 31084
L94870 31107
L94881 31118
L94903 31129
L94937 31129
L94960 31118
L94971 31107
L94982 31084
L94982 30994
" />
<path d="M121023 43446
L120945 43460
" />
<path d="M120934 43588
L121045 43568
L121004 43336
L120893 43355
" />
<path d="M120673 43405
L120693 43390
L120727 43384
L120762 43390
L120788 43408
L120803 43428
L120822 43470
L120828 43504
L120824 43550
L120817 43574
L120799 43600
L120768 43617
L120745 43621
L120710 43616
L120697 43607
L120684 43529
L120728 43521
" />
<path d="M120480 43668
L120612 43644
" />
<path d="M120546 43656
L120505 43423
L120533 43453
L120559 43471
L120583 43478
" />
<path d="M120354 43473
L120341 43464
L120317 43457
L120261 43466
L120241 43481
L120232 43494
L120225 43519
L120229 43541
L120246 43572
L120402 43682
L120258 43707
" />
<path d="M120036 43746
L120169 43723
" />
<path d="M120103 43734
L120062 43502
L120090 43531
L120116 43549
L120140 43556
" />
<path d="M119880 43636
L119900 43621
L119909 43608
L119917 43584
L119915 43573
L119900 43553
L119887 43544
L119863 43537
L119818 43545
L119798 43560
L119789 43573
L119782 43597
L119784 43608
L119799 43628
L119812 43637
L119836 43644
L119880 43636
L119904 43644
L119917 43653
L119932 43673
L119940 43717
L119933 43741
L119924 43754
L119904 43769
L119859 43777
L119835 43770
L119822 43761
L119807 43741
L119799 43696
L119806 43672
L119816 43659
L119836 43644
" />
</g>
<g style="fill:#000000; fill-opacity:0.0; 
stroke:#000000; stroke-width:78.7402; stroke-opacity:1; 
stroke-linecap:round; stroke-linejoin:round;">
<path d="M95138 60093
L94950 60093
" />
<path d="M95175 60205
L95044 59812
L94913 60205
" />
<path d="M94613 60205
L94613 59812
" />
<path d="M94613 60186
L94650 60205
L94725 60205
L94763 60186
L94781 60168
L94800 60130
L94800 60018
L94781 59980
L94763 59961
L94725 59943
L94650 59943
L94613 59961
" />
<path d="M94257 60205
L94257 59999
L94275 59961
L94313 59943
L94388 59943
L94425 59961
" />
<path d="M94257 60186
L94294 60205
L94388 60205
L94425 60186
L94444 60149
L94444 60111
L94425 60074
L94388 60055
L94294 60055
L94257 60036
" />
<path d="M94125 59943
L93975 59943
" />
<path d="M94069 60205
L94069 59868
L94050 59830
L94013 59812
L93975 59812
" />
<path d="M93844 60205
L93844 59943
" />
<path d="M93844 60018
L93825 59980
L93807 59961
L93769 59943
L93732 59943
" />
<path d="M93432 59943
L93432 60205
" />
<path d="M93600 59943
L93600 60149
L93582 60186
L93544 60205
L93488 60205
L93450 60186
L93432 60168
" />
<path d="M93244 60205
L93244 59943
" />
<path d="M93244 59812
L93263 59830
L93244 59849
L93225 59830
L93244 59812
L93244 59849
" />
<path d="M93113 59943
L92963 59943
" />
<path d="M93057 59812
L93057 60149
L93038 60186
L93000 60205
L92963 60205
" />
<path d="M92401 59999
L92532 59999
" />
<path d="M92532 60205
L92532 59812
L92344 59812
" />
<path d="M92044 60186
L92082 60205
L92157 60205
L92194 60186
L92213 60149
L92213 59999
L92194 59961
L92157 59943
L92082 59943
L92044 59961
L92026 59999
L92026 60036
L92213 60074
" />
<path d="M91688 60205
L91688 59999
L91707 59961
L91744 59943
L91819 59943
L91857 59961
" />
<path d="M91688 60186
L91726 60205
L91819 60205
L91857 60186
L91876 60149
L91876 60111
L91857 60074
L91819 60055
L91726 60055
L91688 60036
" />
<path d="M91557 59943
L91407 59943
" />
<path d="M91501 59812
L91501 60149
L91482 60186
L91444 60205
L91407 60205
" />
<path d="M91276 60205
L91276 59812
" />
<path d="M91107 60205
L91107 59999
L91126 59961
L91163 59943
L91219 59943
L91257 59961
L91276 59980
" />
<path d="M90769 60186
L90807 60205
L90882 60205
L90919 60186
L90938 60149
L90938 59999
L90919 59961
L90882 59943
L90807 59943
L90769 59961
L90751 59999
L90751 60036
L90938 60074
" />
<path d="M90582 60205
L90582 59943
" />
<path d="M90582 60018
L90563 59980
L90545 59961
L90507 59943
L90470 59943
" />
<path d="M90076 59812
L89832 59812
L89963 59961
L89907 59961
L89870 59980
L89851 59999
L89832 60036
L89832 60130
L89851 60168
L89870 60186
L89907 60205
L90020 60205
L90057 60186
L90076 60168
" />
<path d="M89682 59849
L89663 59830
L89626 59812
L89532 59812
L89495 59830
L89476 59849
L89457 59886
L89457 59924
L89476 59980
L89701 60205
L89457 60205
" />
<path d="M89120 59943
L89120 60205
" />
<path d="M89288 59943
L89288 60149
L89270 60186
L89232 60205
L89176 60205
L89138 60186
L89120 60168
" />
<path d="M88763 59943
L88763 60205
" />
<path d="M88857 59793
L88951 60074
L88707 60074
" />
<path d="M88126 59999
L88070 60018
L88051 60036
L88032 60074
L88032 60130
L88051 60168
L88070 60186
L88107 60205
L88257 60205
L88257 59812
L88126 59812
L88089 59830
L88070 59849
L88051 59886
L88051 59924
L88070 59961
L88089 59980
L88126 59999
L88257 59999
" />
<path d="M87676 60205
L87864 60205
L87864 59812
" />
<path d="M87545 59999
L87414 59999
" />
<path d="M87357 60205
L87545 60205
L87545 59812
L87357 59812
" />
</g>
<g style="fill:#000000; fill-opacity:0.0; 
stroke:#000000; stroke-width:39.3701; stroke-opacity:1; 
stroke-linecap:round; stroke-linejoin:round;">
<path d="M120833 45456
L120970 46231
" />
<path d="M102553 49479
L103716 49274
" />
<circle cx="62507.9" cy="45854.4" r="278.389" /> 
<path d="M98531 46838
L99318 46838
" />
<path d="M84948 49594
L84948 45854
" />
<path d="M84358 47626
L84358 49594
" />
<path d="M84358 45854
L84358 47626
" />
<path d="M83767 45854
L83767 47626
" />
<path d="M83177 45854
L83177 47626
" />
<path d="M98531 46838
L99318 46838
" />
</g>
<g style="fill:#000000; fill-opacity:0.0; 
stroke:#000000; stroke-width:118.11; stroke-opacity:1; 
stroke-linecap:round; stroke-linejoin:round;">
<path d="M88562 29445
L88281 29248
" />
<path d="M88562 29108
L87971 29108
L87971 29333
L88000 29389
L88028 29417
L88084 29445
L88168 29445
L88224 29417
L88253 29389
L88281 29333
L88281 29108
" />
<path d="M88253 29698
L88253 29895
" />
<path d="M88562 29979
L88562 29698
L87971 29698
L87971 29979
" />
<path d="M88534 30204
L88562 30289
L88562 30429
L88534 30485
L88506 30514
L88449 30542
L88393 30542
L88337 30514
L88309 30485
L88281 30429
L88253 30317
L88224 30261
L88196 30232
L88140 30204
L88084 30204
L88028 30232
L88000 30261
L87971 30317
L87971 30457
L88000 30542
" />
<path d="M88253 30795
L88253 30992
" />
<path d="M88562 31076
L88562 30795
L87971 30795
L87971 31076
" />
<path d="M87971 31245
L87971 31582
" />
<path d="M88562 31413
L87971 31413
" />
<path d="M122223 45482
L122120 44900
L121899 44940
L121848 44977
L121825 45010
L121807 45070
L121822 45153
L121860 45203
L121892 45226
L121952 45244
L122174 45205
" />
<path d="M121428 45023
L121317 45042
L121267 45080
L121221 45145
L121213 45260
L121247 45454
L121294 45560
L121359 45606
L121420 45624
L121530 45604
L121581 45567
L121627 45502
L121635 45386
L121601 45192
L121553 45086
L121488 45040
L121428 45023
" />
<path d="M120985 45101
L120949 45707
L120765 45311
L120727 45746
L120486 45189
" />
<path d="M120314 45505
L120120 45539
" />
<path d="M120090 45858
L120367 45809
L120265 45228
L119988 45276
" />
<path d="M119509 45961
L119654 45649
" />
<path d="M119841 45902
L119739 45320
L119517 45360
L119467 45397
L119444 45430
L119426 45490
L119440 45573
L119478 45623
L119510 45646
L119571 45664
L119792 45625
" />
</g>
<g style="fill:#000000; fill-opacity:0.0; 
stroke:#000000; stroke-width:39.3701; stroke-opacity:1; 
stroke-linecap:round; stroke-linejoin:round;">
<path d="M94791 59240
L94791 59437
" />
<path d="M94791 57862
L94791 58059
" />
<path d="M94791.4 59240.2 A590.551 590.551 0.0 0 0 94791.4 58059.1 " />
<path d="M87704 59240
L87704 59437
" />
<path d="M87704.7 58059.1 A590.55 590.55 0.0 1 0 87704.8 59240.2 " />
<path d="M93807.1 33256 A393.701 393.701 0.0 0 0 93413.4 32862.3 " />
<path d="M89082.7 32862.3 A393.702 393.702 0.0 0 0 88689 33256 " />
<path d="M89082 32862
L93413 32862
" />
<path d="M105618 60421
L150500 53334
" />
<path d="M76681 60421
L94200 60421
" />
<path d="M94594.5 59633.9 A196.85 196.85 0.0 0 0 94791.4 59437.1 " />
<path d="M87704.7 59437.1 A196.85 196.85 0.0 0 0 87901.6 59633.9 " />
<path d="M96366.2 45657.5 A393.701 393.701 0.0 0 0 96759.9 45263.8 " />
<path d="M87901 59633
L94594 59633
" />
<path d="M96759.9 41917.4 A393.701 393.701 0.0 0 0 96366.2 41523.7 " />
<path d="M150500 21641.8 A590.551 590.551 0.0 0 0 149909 21051.2 " />
<path d="M32586.6 21051.2 A590.55 590.55 0.0 0 0 31996.1 21641.8 " />
<path d="M88295.3 41523.7 A393.701 393.701 0.0 0 0 88689 41130 " />
<path d="M88098 41523
L88295 41523
" />
<path d="M88098.4 41523.7 A393.7 393.7 0.0 0 0 87704.7 41917.4 " />
<path d="M95185.1 45657.5 A393.701 393.701 0.0 0 0 94791.4 46051.2 " />
<path d="M88689 41129
L88688 33255
" />
<path d="M93807.1 41130 A393.701 393.701 0.0 0 0 94200.8 41523.7 " />
<path d="M93807 41129
L93807 33255
" />
<path d="M96366 41523
L94200 41523
" />
<path d="M95185 45657
L96366 45657
" />
<path d="M94791 46051
L94791 57862
" />
<path d="M32586 21051
L65854 21051
" />
<path d="M95381 25381
L116444 21051
" />
<path d="M87311 25381
L95381 25381
" />
<path d="M65854 21051
L87311 25381
" />
<path d="M94200 60421
L105618 60421
" />
<path d="M96759 41917
L96759 45263
" />
<path d="M87704 58059
L87704 41917
" />
<path d="M31996 52744
L76681 60421
" />
<path d="M116444 21051
L149909 21051
" />
<path d="M31996 21641
L31996 52744
" />
<path d="M150500 21641
L150500 53334
" />
</g>
<g style="fill:#000000; fill-opacity:0.0; 
stroke:#000000; stroke-width:47.2441; stroke-opacity:1; 
stroke-linecap:round; stroke-linejoin:round;">
<path d="M95224 30755
L95342 30755
" />
<path d="M95224 29456
L95224 30755
" />
<path d="M95342 29456
L95224 29456
" />
<path d="M96326 30755
L96208 30755
" />
<path d="M96326 29456
L96326 30755
" />
<path d="M96208 29456
L96326 29456
" />
</g>
<g style="fill:#000000; fill-opacity:0.0; 
stroke:#000000; stroke-width:50; stroke-opacity:1; 
stroke-linecap:round; stroke-linejoin:round;">
<path d="M120666 43736
L120805 44524
" />
<path d="M120903 44507
L120764 43719
" />
<path d="M120863 43701
L121002 44489
" />
<path d="M121100 44472
L120961 43684
" />
<path d="M121060 43667
L121199 44454
" />
<path d="M121297 44437
L121158 43649
" />
<path d="M121257 43632
L121396 44420
" />
<path d="M122699 43174
L122664 42977
" />
<path d="M122502 43209
L122699 43174
" />
<path d="M122711 44391
L122502 43209
" />
<path d="M122907 44356
L122711 44391
" />
<path d="M122942 44553
L122907 44356
" />
<path d="M120776 44935
L122942 44553
" />
<path d="M120660 44854
L120776 44935
" />
<path d="M120579 44970
L120660 44854
" />
<path d="M118412 45352
L120579 44970
" />
<path d="M118377 45155
L118412 45352
" />
<path d="M118574 45120
L118377 45155
" />
<path d="M118366 43938
L118574 45120
" />
<path d="M118169 43973
L118366 43938
" />
<path d="M118134 43776
L118169 43973
" />
<path d="M120301 43394
L118134 43776
" />
<path d="M120417 43475
L120301 43394
" />
<path d="M120498 43360
L120417 43475
" />
<path d="M122664 42977
L120498 43360
" />
</g>
<g style="fill:#000000; fill-opacity:0.0; 
stroke:#000000; stroke-width:120; stroke-opacity:1; 
stroke-linecap:round; stroke-linejoin:round;">
<path d="M103848 39031
L103900 38993
L103984 38978
L104074 38991
L104140 39037
L104178 39089
L104226 39196
L104241 39281
L104232 39398
L104214 39459
L104168 39526
L104088 39569
L104032 39579
L103943 39565
L103910 39542
L103875 39345
L103987 39325
" />
<path d="M79690 31907
L79640 32188
" />
<path d="M79941 31632
L79690 31907
L79547 31562
" />
<path d="M77079 59573
L77004 59523
L76917 59409
L76905 59346
L76910 59306
L76938 59249
L76983 59214
L77046 59202
L77086 59207
L77144 59235
L77236 59309
L77293 59336
L77333 59342
L77396 59330
L77442 59295
L77469 59237
L77475 59197
L77463 59135
L77376 59021
L77301 58971
" />
<path d="M76691 59115
L77167 58749
L77028 58568
L76970 58540
L76930 58535
L76868 58547
L76800 58599
L76772 58656
L76766 58697
L76778 58759
L76918 58941
" />
<path d="M76479 58557
L76305 58330
" />
<path d="M76378 58706
L76732 58183
L76134 58389
" />
<path d="M75849 57924
L75844 57964
L75873 58049
L75908 58094
L75983 58145
L76063 58156
L76126 58144
L76234 58097
L76302 58044
L76375 57952
L76403 57895
L76414 57815
L76384 57729
L76349 57684
L76275 57633
L76235 57628
" />
<path d="M75897 57563
L75775 57404
" />
<path d="M75473 57528
L75647 57754
L76123 57389
L75949 57163
" />
<path d="M64154 34535
L64259 33944
" />
<path d="M63817 34475
L64130 34182
" />
<path d="M63921 33884
L64199 34281
" />
<path d="M42491 28234
L42041 28155
" />
<path d="M41190 34953
L41170 35066
" />
<path d="M40965 34914
L40945 35026
" />
<path d="M40950 42817
L40753 42782
" />
<path d="M40614 43077
L40895 43126
L40999 42535
L40718 42486
" />
<path d="M40360 43032
L40465 42441
L40023 42972
L40127 42381
" />
<path d="M39930 42347
L39592 42287
" />
<path d="M39657 42908
L39761 42317
" />
<path d="M39346 42534
L39149 42499
" />
<path d="M39010 42794
L39291 42843
L39395 42252
L39114 42203
" />
<path d="M38419 42690
L38665 42443
" />
<path d="M38756 42749
L38861 42158
L38636 42119
L38574 42137
L38541 42160
L38503 42211
L38488 42296
L38507 42357
L38530 42390
L38581 42428
L38806 42468
" />
<path d="M39156 50435
L39403 50189
" />
<path d="M39494 50495
L39598 49904
L39373 49864
L39312 49882
L39279 49906
L39241 49957
L39226 50041
L39244 50103
L39267 50136
L39319 50174
L39544 50213
" />
<path d="M38903 50391
L39007 49800
" />
<path d="M38412 49724
L38473 49705
L38557 49720
L38637 49763
L38683 49830
L38701 49891
L38709 50008
L38695 50093
L38647 50200
L38609 50252
L38542 50298
L38453 50311
L38397 50301
L38317 50258
L38294 50225
L38329 50028
L38441 50048
" />
<path d="M38031 50237
L38135 49646
" />
<path d="M38086 49927
L37748 49868
" />
<path d="M37693 50177
L37797 49586
" />
<path d="M37601 49552
L37263 49492
" />
<path d="M37328 50113
L37432 49522
" />
<path d="M49816 29468
L49921 28877
L49696 28837
L49634 28855
L49601 28879
L49563 28930
L49548 29014
L49567 29076
L49590 29109
L49641 29147
L49866 29186
" />
<path d="M48336 36794
L48331 36822
L48349 36883
L48373 36916
" />
<path d="M48424 36461
L48391 36484
L48414 36517
L48447 36494
L48424 36461
L48414 36517
" />
<path d="M46913 43549
L47285 44398
" />
<path d="M46323 51090
L46239 51568
L46201 51619
L46168 51643
L46106 51661
L45994 51641
L45943 51603
L45919 51570
L45901 51509
L45985 51030
" />
<path d="M45600 51571
L45704 50981
L45479 50941
L45418 50959
L45385 50982
L45347 51034
L45332 51118
L45350 51179
L45373 51212
L45424 51250
L45650 51290
" />
<path d="M57642 27700
L57530 27680
L57469 27698
L57402 27745
L57354 27852
L57320 28049
L57328 28167
L57374 28233
L57426 28271
L57538 28291
L57599 28273
L57666 28226
L57714 28119
L57748 27922
L57740 27804
L57694 27738
L57642 27700
" />
<path d="M55997 35635
L56278 35684
L56382 35093
" />
<path d="M54887 42997
L54854 43020
L54877 43053
L54910 43030
L54887 42997
L54877 43053
" />
<path d="M54252 53097
L54356 52506
L54216 52481
L54126 52495
L54060 52541
L54022 52592
L53974 52700
L53959 52784
L53967 52902
L53986 52963
L54032 53029
L54111 53072
L54252 53097
" />
<path d="M53653 52382
L53540 52362
L53479 52381
L53413 52427
L53365 52534
L53330 52731
L53338 52849
L53385 52915
L53436 52953
L53549 52973
L53610 52955
L53676 52908
L53724 52801
L53759 52604
L53751 52486
L53704 52420
L53653 52382
" />
<path d="M53203 52303
L52958 52869
L52920 52427
L52733 52829
L52696 52213
" />
<path d="M52367 52765
L52471 52174
L52029 52705
L52133 52114
" />
<path d="M65302 27121
L65406 26530
" />
<path d="M62674 41860
L62669 41888
L62687 41950
L62711 41983
" />
<path d="M61090 54303
L61371 54352
L61475 53761
" />
<path d="M60947 53958
L60750 53924
" />
<path d="M60611 54218
L60893 54268
L60997 53677
L60715 53627
" />
<path d="M60216 53829
L60413 53864
" />
<path d="M60358 54174
L60462 53583
L60181 53533
" />
<path d="M60040 53508
L59702 53449
" />
<path d="M59767 54070
L59871 53479
" />
<path d="M72527 30325
L72443 30803
L72405 30854
L72372 30877
L72310 30896
L72198 30876
L72146 30838
L72123 30805
L72105 30743
L72189 30265
" />
<path d="M70971 37666
L70897 38088
L70910 38177
L70957 38244
L71036 38287
L71092 38296
" />
<path d="M69846 45692
L69950 45102
L69679 45489
L69557 45032
L69452 45623
" />
<path d="M72690 54584
L72502 54516
" />
<path d="M72314 54782
L72583 54880
L72788 54316
L72519 54218
" />
<path d="M72072 54694
L72278 54130
L71750 54577
L71955 54013
" />
<path d="M71768 53944
L71445 53827
" />
<path d="M71401 54450
L71606 53886
" />
<path d="M71160 54027
L70972 53959
" />
<path d="M70784 54225
L71052 54323
L71257 53759
L70989 53661
" />
<path d="M70220 54020
L70506 53820
" />
<path d="M70542 54137
L70747 53573
L70533 53495
L70469 53502
L70432 53519
L70386 53563
L70357 53644
L70364 53707
L70381 53744
L70425 53790
L70640 53868
" />
<path d="M69791 53194
L70010 54095
" />
<path d="M69065 53599
L69351 53399
" />
<path d="M69388 53717
L69593 53153
L69378 53075
L69315 53082
L69278 53099
L69232 53143
L69202 53224
L69210 53287
L69227 53324
L69271 53370
L69485 53448
" />
<path d="M68909 53360
L68641 53262
" />
<path d="M68904 53541
L68922 52909
L68528 53404
" />
<path d="M68341 53336
L68546 52772
" />
<path d="M68109 53221
L68018 53218
L67884 53170
L67840 53123
L67823 53086
L67816 53023
L67835 52969
L67882 52925
L67918 52908
L67982 52901
L68099 52913
L68162 52906
L68199 52889
L68245 52845
L68265 52791
L68258 52728
L68241 52691
L68197 52645
L68062 52596
L67972 52593
" />
<path d="M67643 52747
L67455 52679
" />
<path d="M67267 52945
L67535 53042
L67740 52479
L67472 52381
" />
<path d="M78507 39604
L78611 39013
" />
<path d="M78561 39294
L78223 39235
" />
<path d="M78169 39544
L78273 38953
" />
<path d="M77204 46990
L77308 46399
L76867 46930
L76971 46339
" />
<path d="M105308 46650
L105229 46693
L105205 46726
L105187 46787
L105202 46872
L105240 46923
L105273 46946
L105334 46965
L105560 46925
L105455 46334
L105258 46369
L105207 46407
L105184 46440
L105166 46501
L105176 46557
L105214 46609
L105247 46632
L105308 46650
L105505 46615
" />
<path d="M106990 57642
L106961 57727
L106874 57840
L106817 57868
L106776 57874
L106714 57861
L106668 57827
L106640 57769
L106635 57729
L106647 57666
L106694 57558
L106706 57496
L106701 57456
L106673 57398
L106628 57363
L106565 57351
L106525 57356
L106468 57384
L106381 57498
L106351 57583
" />
<path d="M106648 58135
L106172 57770
" />
<path d="M106399 57944
L106190 58216
" />
<path d="M106439 58407
L105963 58042
" />
<path d="M106265 58634
L105789 58268
" />
<path d="M105720 58828
L105842 58669
" />
<path d="M106091 58860
L105615 58495
L105441 58722
" />
<path d="M105354 58835
L105146 59107
" />
<path d="M105726 59336
L105250 58971
" />
<path d="M110003 30910
L110151 30594
" />
<path d="M110341 30850
L110237 30260
L110012 30299
L109960 30337
L109937 30370
L109919 30432
L109934 30516
L109972 30567
L110005 30591
L110066 30609
L110291 30569
" />
<path d="M111349 37969
L111546 37934
" />
<path d="M111601 38244
L111497 37653
L111215 37703
" />
<path d="M112884 45024
L112791 45650
L112490 45094
" />
<path d="M114749 52736
L114678 52792
L114661 52829
L114654 52892
L114683 52973
L114730 53016
L114766 53034
L114830 53041
L115045 52963
L114839 52399
L114651 52467
L114608 52514
L114590 52550
L114583 52614
L114603 52667
L114649 52711
L114686 52728
L114749 52736
L114937 52667
" />
<path d="M114481 53168
L114276 52604
" />
<path d="M114159 53285
L114283 52875
" />
<path d="M113953 52721
L114393 52926
" />
<path d="M113934 53336
L113863 53393
L113729 53441
L113666 53434
L113629 53417
L113583 53373
L113563 53319
L113570 53256
L113587 53219
L113631 53173
L113729 53107
L113773 53061
L113790 53024
L113797 52961
L113778 52907
L113731 52863
L113695 52846
L113631 52839
L113497 52887
L113426 52944
" />
<path d="M113380 53569
L113175 53005
L112960 53083
L112916 53129
L112899 53166
L112892 53229
L112921 53310
L112967 53354
L113004 53371
L113067 53378
L113282 53300
" />
<path d="M112198 53330
L112946 53879
" />
<path d="M111957 54086
L112226 53989
L112020 53425
" />
<path d="M111456 53630
L111349 53669
L111305 53716
L111271 53789
L111283 53906
L111352 54094
L111418 54192
L111491 54226
L111554 54233
L111662 54194
L111706 54148
L111740 54074
L111728 53957
L111659 53769
L111593 53672
L111520 53637
L111456 53630
" />
<path d="M111027 53786
L111098 54399
L110844 54036
L110883 54477
L110544 53962
" />
<path d="M110427 54309
L110239 54377
" />
<path d="M110266 54702
L110534 54604
L110329 54041
L110060 54138
" />
<path d="M109702 54907
L109792 54570
" />
<path d="M110024 54790
L109819 54226
L109604 54304
L109560 54351
L109543 54387
L109536 54451
L109565 54531
L109611 54575
L109648 54592
L109711 54600
L109926 54522
" />
<path d="M117210 26782
L117013 26816
" />
<path d="M116983 27141
L117265 27091
L117160 26500
L116879 26550
" />
<path d="M118595 34472
L118491 33881
L118350 33906
L118271 33949
L118224 34015
L118206 34076
L118198 34194
L118213 34278
L118261 34386
L118299 34437
L118365 34484
L118454 34497
L118595 34472
" />
<path d="M119550 41861
L119583 41885
L119672 41898
L119729 41888
L119808 41845
L119854 41779
L119873 41717
L119881 41600
L119866 41516
L119818 41408
L119780 41357
L119714 41310
L119624 41297
L119568 41307
L119489 41350
L119466 41383
" />
<path d="M122354 54060
L122387 54083
L122476 54096
L122532 54086
L122612 54043
L122658 53977
L122676 53916
L122685 53798
L122670 53714
L122622 53606
L122584 53555
L122518 53509
L122428 53496
L122372 53505
L122292 53548
L122269 53582
" />
<path d="M122110 54161
L122006 53570
L121884 54027
L121612 53639
L121716 54230
" />
<path d="M121435 54280
L121331 53689
L121190 53714
L121111 53757
L121064 53823
L121046 53884
L121038 54002
L121053 54086
L121101 54194
L121139 54245
L121205 54291
L121294 54305
L121435 54280
" />
<path d="M125107 27637
L125071 28253
L124884 27851
L124846 28293
L124601 27727
" />
<path d="M126424 35601
L126345 35644
L126204 35669
L126143 35651
L126110 35628
L126072 35576
L126062 35520
L126080 35459
L126103 35426
L126155 35388
L126262 35340
L126314 35302
L126337 35268
L126355 35207
L126345 35151
L126307 35100
L126274 35076
L126213 35058
L126072 35083
L125993 35126
" />
<path d="M127656 42420
L127366 43080
" />
<path d="M127262 42489
L127760 43010
" />
<path d="M130855 52010
L130743 52029
L130691 52067
L130645 52134
L130637 52251
L130672 52448
L130720 52556
L130786 52602
L130847 52620
L130960 52600
L131011 52562
L131057 52496
L131065 52379
L131031 52182
L130983 52074
L130917 52028
L130855 52010
" />
<path d="M130453 52690
L130349 52099
L130124 52139
L130072 52177
L130049 52210
L130031 52271
L130046 52355
L130084 52407
L130117 52430
L130178 52448
L130403 52408
" />
<path d="M129842 52188
L129505 52248
" />
<path d="M129778 52809
L129674 52218
" />
<path d="M128881 52329
L129521 52999
" />
<path d="M128773 52377
L128436 52436
" />
<path d="M128709 52997
L128604 52406
" />
<path d="M128341 52888
L128060 52938
" />
<path d="M128427 53047
L128126 52491
L128033 53116
" />
<path d="M127585 52876
L127505 52919
L127482 52953
L127464 53014
L127479 53098
L127517 53149
L127550 53173
L127611 53191
L127836 53151
L127732 52560
L127535 52595
L127484 52633
L127461 52666
L127442 52727
L127452 52784
L127490 52835
L127523 52858
L127585 52876
L127782 52842
" />
<path d="M132563 29529
L132615 29491
L132661 29424
L132730 29325
L132782 29287
L132838 29277
" />
<path d="M132835 29423
L132886 29385
L132932 29318
L132941 29201
L132906 29004
L132858 28896
L132792 28850
L132730 28832
L132618 28852
L132567 28890
L132520 28956
L132512 29073
L132547 29270
L132595 29378
L132661 29424
L132722 29443
L132835 29423
" />
<path d="M134192 36625
L133910 36675
" />
<path d="M134278 36784
L133977 36228
L133884 36853
" />
<path d="M135476 43579
L135082 43649
L135580 44170
L135186 44240
" />
<path d="M138406 51229
L138439 51253
L138528 51266
L138585 51256
L138664 51213
L138711 51147
L138729 51085
L138737 50968
L138722 50884
L138674 50776
L138636 50725
L138570 50678
L138481 50665
L138424 50675
L138345 50718
L138322 50751
" />
<path d="M138143 50725
L137805 50784
" />
<path d="M138078 51345
L137974 50754
" />
<path d="M137375 51469
L137522 51153
" />
<path d="M137712 51410
L137608 50819
L137383 50859
L137332 50897
L137309 50930
L137290 50991
L137305 51075
L137343 51127
L137377 51150
L137438 51168
L137663 51128
" />
<path d="M136840 51564
L137122 51514
L137017 50923
" />
<path d="M136112 51054
L136752 51724
" />
<path d="M135616 51199
L135667 51161
L135751 51146
L135841 51160
L135907 51206
L135945 51257
L135993 51365
L136008 51449
L135999 51567
L135981 51628
L135935 51694
L135855 51737
L135799 51747
L135710 51734
L135677 51711
L135642 51514
L135754 51494
" />
<path d="M135096 51871
L135243 51555
" />
<path d="M135433 51812
L135329 51221
L135104 51260
L135053 51298
L135030 51332
L135011 51393
L135026 51477
L135064 51529
L135097 51552
L135159 51570
L135384 51530
" />
<path d="M134823 51310
L134730 51936
L134429 51379
" />
<path d="M145352 50063
L145248 49472
" />
<path d="M145297 49753
L144960 49813
" />
<path d="M145014 50122
L144910 49531
" />
<path d="M144571 49910
L144620 50192
" />
<path d="M144713 49566
L144571 49910
L144319 49636
" />
<path d="M144226 50261
L144122 49670
L143897 49710
L143846 49748
L143823 49781
L143804 49842
L143819 49927
L143857 49978
L143890 50001
L143952 50020
L144177 49980
" />
<path d="M143581 50056
L143384 50091
" />
<path d="M143354 50415
L143635 50365
L143531 49774
L143250 49824
" />
<path d="M142763 50519
L142910 50203
" />
<path d="M143101 50460
L142997 49869
L142771 49908
L142720 49947
L142697 49980
L142679 50041
L142694 50125
L142732 50177
L142765 50200
L142826 50218
L143051 50178
" />
<path d="M143858 42661
L143779 42704
L143638 42729
L143577 42710
L143544 42687
L143505 42636
L143496 42580
L143514 42518
L143537 42485
L143588 42447
L143696 42399
L143747 42361
L143770 42328
L143789 42267
L143779 42211
L143741 42159
L143707 42136
L143646 42118
L143506 42143
L143426 42186
" />
<path d="M143272 42793
L143168 42202
" />
<path d="M143218 42484
L142880 42543
" />
<path d="M142934 42853
L142830 42262
" />
<path d="M142653 42902
L142549 42311
" />
<path d="M142120 42677
L142317 42642
" />
<path d="M142372 42952
L142268 42361
L141986 42411
" />
<path d="M141845 42435
L141508 42495
" />
<path d="M141781 43056
L141677 42465
" />
<path d="M142116 35083
L141919 35118
" />
<path d="M141889 35442
L142170 35392
L142066 34801
L141785 34851
" />
<path d="M141659 35453
L141579 35497
L141439 35521
L141377 35503
L141344 35480
L141306 35429
L141296 35372
L141315 35311
L141338 35278
L141389 35240
L141497 35192
L141548 35154
L141571 35121
L141589 35060
L141579 35003
L141541 34952
L141508 34929
L141447 34911
L141306 34935
L141227 34978
" />
<path d="M140725 35589
L140758 35612
L140848 35626
L140904 35616
L140984 35573
L141030 35506
L141048 35445
L141056 35328
L141041 35243
L140993 35136
L140955 35084
L140889 35038
L140800 35025
L140744 35035
L140664 35078
L140641 35111
" />
<path d="M140778 27413
L140440 27472
" />
<path d="M140713 28034
L140609 27443
" />
<path d="M140346 27924
L140064 27974
" />
<path d="M140432 28083
L140131 27527
L140038 28153
" />
<path d="M139589 27913
L139510 27956
L139487 27989
L139468 28050
L139483 28134
L139521 28186
L139555 28209
L139616 28227
L139841 28187
L139737 27596
L139540 27631
L139488 27669
L139465 27702
L139447 27764
L139457 27820
L139495 27871
L139528 27894
L139589 27913
L139786 27878
" />
<path d="M102865 31559
L102527 31619
" />
<path d="M102800 32180
L102696 31589
" />
</g> 
</svg>
