<?xml version="1.0" standalone="no"?>
 <!DOCTYPE svg PUBLIC "-//W3C//DTD SVG 1.1//EN" 
 "http://www.w3.org/Graphics/SVG/1.1/DTD/svg11.dtd"> 
<svg xmlns="http://www.w3.org/2000/svg" version="1.1" 
    width="41.9989cm" height="29.7002cm" viewBox="0 0 165350 116930 ">
<title>SVG Picture created as Laptreus-v1-Edge.Cuts.svg date 2018/12/29 10:02:33 </title>
  <desc>Picture generated by PCBNEW </desc>
<g style="fill:#000000; fill-opacity:1;stroke:#000000; stroke-opacity:1;
stroke-linecap:round; stroke-linejoin:round; "
 transform="translate(0 0) scale(1 1)">
</g>
<g style="fill:#000000; fill-opacity:0.0; 
stroke:#000000; stroke-width:-0.000393701; stroke-opacity:1; 
stroke-linecap:round; stroke-linejoin:round;">
</g>
<g style="fill:#000000; fill-opacity:0.0; 
stroke:#000000; stroke-width:39.3701; stroke-opacity:1; 
stroke-linecap:round; stroke-linejoin:round;">
<path d="M94791 59240
L94791 59437
" />
<path d="M94791 57862
L94791 58059
" />
<path d="M94791.4 59240.2 A590.551 590.551 0.0 0 0 94791.4 58059.1 " />
<path d="M87704 59240
L87704 59437
" />
<path d="M87704.7 58059.1 A590.55 590.55 0.0 1 0 87704.8 59240.2 " />
<path d="M93807.1 33256 A393.701 393.701 0.0 0 0 93413.4 32862.3 " />
<path d="M89082.7 32862.3 A393.702 393.702 0.0 0 0 88689 33256 " />
<path d="M89082 32862
L93413 32862
" />
<path d="M105618 60421
L150500 53334
" />
<path d="M76681 60421
L94200 60421
" />
<path d="M94594.5 59633.9 A196.85 196.85 0.0 0 0 94791.4 59437.1 " />
<path d="M87704.7 59437.1 A196.85 196.85 0.0 0 0 87901.6 59633.9 " />
<path d="M96366.2 45657.5 A393.701 393.701 0.0 0 0 96759.9 45263.8 " />
<path d="M87901 59633
L94594 59633
" />
<path d="M96759.9 41917.4 A393.701 393.701 0.0 0 0 96366.2 41523.7 " />
<path d="M150500 21641.8 A590.551 590.551 0.0 0 0 149909 21051.2 " />
<path d="M32586.6 21051.2 A590.55 590.55 0.0 0 0 31996.1 21641.8 " />
<path d="M88295.3 41523.7 A393.701 393.701 0.0 0 0 88689 41130 " />
<path d="M88098 41523
L88295 41523
" />
<path d="M88098.4 41523.7 A393.7 393.7 0.0 0 0 87704.7 41917.4 " />
<path d="M95185.1 45657.5 A393.701 393.701 0.0 0 0 94791.4 46051.2 " />
<path d="M88689 41129
L88688 33255
" />
<path d="M93807.1 41130 A393.701 393.701 0.0 0 0 94200.8 41523.7 " />
<path d="M93807 41129
L93807 33255
" />
<path d="M96366 41523
L94200 41523
" />
<path d="M95185 45657
L96366 45657
" />
<path d="M94791 46051
L94791 57862
" />
<path d="M32586 21051
L65854 21051
" />
<path d="M95381 25381
L116444 21051
" />
<path d="M87311 25381
L95381 25381
" />
<path d="M65854 21051
L87311 25381
" />
<path d="M94200 60421
L105618 60421
" />
<path d="M96759 41917
L96759 45263
" />
<path d="M87704 58059
L87704 41917
" />
<path d="M31996 52744
L76681 60421
" />
<path d="M116444 21051
L149909 21051
" />
<path d="M31996 21641
L31996 52744
" />
<path d="M150500 21641
L150500 53334
" />
</g> 
</svg>
