<svg xmlns="http://www.w3.org/2000/svg" viewBox="0 0 2239.37 1088.5"><defs><style>.cls-1,.cls-2,.cls-3,.cls-5{fill:none;}.cls-1,.cls-2,.cls-3{stroke:blue;}.cls-1,.cls-4{stroke-linecap:round;}.cls-1,.cls-4,.cls-5{stroke-linejoin:round;}.cls-1,.cls-2,.cls-3,.cls-4,.cls-5{stroke-width:0.03px;}.cls-2{stroke-linecap:square;stroke-miterlimit:2;}.cls-3{stroke-miterlimit:10;}.cls-3,.cls-4{fill-rule:evenodd;}.cls-4{fill:#999;}.cls-4,.cls-5{stroke:red;}</style></defs><title>laptreus post-print</title><g id="Layer_1" data-name="Layer 1"><path class="cls-1" d="M2190.93,727.6a5.1,5.1,0,0,1,5.1,5.11v355.46a5.1,5.1,0,0,1-5.1,5.1H1968.69a5.1,5.1,0,0,1-5.1-5.1v-4a5.1,5.1,0,0,0-5.1-5.1H1571.84a5.09,5.09,0,0,0-5.1,5.1v4a5.1,5.1,0,0,1-5.1,5.1H1339.4a5.1,5.1,0,0,1-5.1-5.1m0-355.46a5.1,5.1,0,0,1,5.1-5.11m74.83,0a5.11,5.11,0,0,1,5.11,5.11v1.13a5.09,5.09,0,0,0,5.1,5.1h681.45a5.09,5.09,0,0,0,5.1-5.1v-1.13a5.1,5.1,0,0,1,5.1-5.11m67.18,316.07a4.25,4.25,0,1,1-4.25,4.25,4.25,4.25,0,0,1,4.25-4.25Zm-206.93,32.6a4.25,4.25,0,1,0,4.26,4.25,4.25,4.25,0,0,0-4.26-4.25Zm-58.11-328.84a4.25,4.25,0,1,0,4.26,4.25,4.25,4.25,0,0,0-4.26-4.25Zm265,24.11a4.25,4.25,0,1,1-4.25,4.25,4.26,4.26,0,0,1,4.25-4.25Zm-836.22,0a4.25,4.25,0,1,1-4.25,4.25,4.25,4.25,0,0,1,4.25-4.25Zm0,136.06a4.26,4.26,0,1,1-4.25,4.26,4.25,4.25,0,0,1,4.25-4.26Zm836.22,0a4.26,4.26,0,1,1-4.25,4.26,4.26,4.26,0,0,1,4.25-4.26Zm-836.22,136.07a4.25,4.25,0,1,1-4.25,4.25,4.25,4.25,0,0,1,4.25-4.25ZM1554,1076.3a4.25,4.25,0,1,0,4.25,4.25,4.25,4.25,0,0,0-4.25-4.25Zm58.11-328.84a4.26,4.26,0,1,0,4.25,4.26,4.26,4.26,0,0,0-4.25-4.26ZM1334.3,367a5.1,5.1,0,0,1,5.1-5.11m74.83,0a5.11,5.11,0,0,1,5.11,5.11v1.13a5.09,5.09,0,0,0,5.1,5.1h681.45a5.09,5.09,0,0,0,5.1-5.1V367a5.1,5.1,0,0,1,5.1-5.11m74.84,0A5.1,5.1,0,0,1,2196,367V722.5a5.1,5.1,0,0,1-5.1,5.1H1968.69a5.1,5.1,0,0,1-5.1-5.1v-4a5.1,5.1,0,0,0-5.1-5.1H1571.84a5.09,5.09,0,0,0-5.1,5.1v4a5.1,5.1,0,0,1-5.1,5.1H1339.4a5.1,5.1,0,0,1-5.1-5.1m849-44.5a4.25,4.25,0,1,1-4.25,4.25,4.25,4.25,0,0,1,4.25-4.25Zm-206.93,32.6a4.25,4.25,0,1,0,4.26,4.25,4.25,4.25,0,0,0-4.26-4.25Zm-58.11-328.84a4.25,4.25,0,1,0,4.26,4.25,4.26,4.26,0,0,0-4.26-4.25Zm265,24.11a4.26,4.26,0,1,1-4.25,4.25,4.26,4.26,0,0,1,4.25-4.25Zm-836.22,0a4.26,4.26,0,1,1-4.25,4.25,4.25,4.25,0,0,1,4.25-4.25Zm0,136.06a4.26,4.26,0,1,1-4.25,4.26,4.25,4.25,0,0,1,4.25-4.26Zm836.22,0a4.26,4.26,0,1,1-4.25,4.26,4.26,4.26,0,0,1,4.25-4.26ZM1347.05,678a4.25,4.25,0,1,1-4.25,4.25,4.25,4.25,0,0,1,4.25-4.25ZM1554,710.63a4.25,4.25,0,1,0,4.25,4.25,4.25,4.25,0,0,0-4.25-4.25Zm58.11-328.84a4.26,4.26,0,1,0,4.25,4.26,4.26,4.26,0,0,0-4.25-4.26ZM1334.3,1.37a5.1,5.1,0,0,1,5.1-5.1h74.83a5.1,5.1,0,0,1,5.11,5.1V2.5a5.09,5.09,0,0,0,5.1,5.1h681.45a5.09,5.09,0,0,0,5.1-5.1V1.37a5.1,5.1,0,0,1,5.1-5.1h74.84a5.1,5.1,0,0,1,5.1,5.1V356.83a5.1,5.1,0,0,1-5.1,5.1H1968.69a5.1,5.1,0,0,1-5.1-5.1v-4a5.12,5.12,0,0,0-5.1-5.1H1571.84a5.1,5.1,0,0,0-5.1,5.1v4a5.1,5.1,0,0,1-5.1,5.1H1339.4a5.1,5.1,0,0,1-5.1-5.1m849-44.5a4.25,4.25,0,1,1-4.25,4.25,4.25,4.25,0,0,1,4.25-4.25Zm-206.93,32.6a4.25,4.25,0,1,0,4.26,4.25,4.25,4.25,0,0,0-4.26-4.25ZM1918.23,16.09a4.26,4.26,0,1,0,4.26,4.25,4.26,4.26,0,0,0-4.26-4.25Zm265,24.11a4.26,4.26,0,1,1-4.25,4.25,4.26,4.26,0,0,1,4.25-4.25Zm-836.22,0a4.26,4.26,0,1,1-4.25,4.25,4.25,4.25,0,0,1,4.25-4.25Zm0,136.07a4.25,4.25,0,1,1-4.25,4.25,4.25,4.25,0,0,1,4.25-4.25Zm836.22,0a4.25,4.25,0,1,1-4.25,4.25,4.25,4.25,0,0,1,4.25-4.25ZM1347.05,312.33a4.25,4.25,0,1,1-4.25,4.25,4.25,4.25,0,0,1,4.25-4.25ZM1554,345a4.25,4.25,0,1,0,4.25,4.25A4.26,4.26,0,0,0,1554,345Zm58.11-328.84a4.26,4.26,0,1,0,4.25,4.26,4.26,4.26,0,0,0-4.25-4.26Z"/><path class="cls-2" d="M1608.16,230.85l2.16.79,1-2.61L1648,242.38l-1,2.61,2.16.79-3.39,9.32-2.16-.79-4.67,12.81,2.17.79-3.39,9.33-2.17-.79-1,2.61-36.68-13.35.95-2.61-2.16-.79,3.39-9.32,2.16.78,4.67-12.81-2.17-.78,3.4-9.33Zm314,0-2.16.79-1-2.61-36.68,13.35.95,2.61-2.17.79,3.39,9.32,2.17-.79,4.66,12.81-2.16.79,3.39,9.33,2.17-.79,1,2.61,36.68-13.35-1-2.61,2.16-.79-3.39-9.32-2.17.78L1923.4,241l2.16-.78-3.39-9.33ZM1676.75,266l1.4,1.83,2.21-1.7,23.76,31-2.21,1.69,1.41,1.83-7.87,6-1.41-1.83-10.81,8.3,1.4,1.83-7.87,6-1.4-1.83-2.21,1.69-23.76-31,2.2-1.69-1.4-1.82,7.88-6,1.4,1.82,10.81-8.3-1.4-1.82,7.87-6Zm176.83,0-1.41,1.83-2.2-1.7-23.76,31,2.2,1.69-1.4,1.83,7.87,6,1.4-1.83,10.82,8.3-1.41,1.83,7.87,6,1.41-1.83,2.2,1.69,23.77-31-2.21-1.69,1.4-1.82-7.87-6-1.4,1.82-10.82-8.3,1.41-1.82-7.87-6ZM1445.16,54.91l-2.27-.4.49-2.74L1404.94,45l-.48,2.74-2.28-.4-1.72,9.77,2.27.4-2.37,13.42-2.27-.4-1.72,9.77,2.27.4-.48,2.74,38.44,6.78.48-2.74,2.27.4,1.72-9.77-2.26-.4,2.36-13.42,2.27.4,1.72-9.77Zm640,0,2.27-.4-.48-2.74L2125.39,45l.48,2.74,2.27-.4,1.72,9.77-2.27.4L2130,70.92l2.27-.4,1.72,9.77-2.27.4.49,2.74-38.44,6.78-.49-2.74-2.26.4-1.73-9.77,2.27-.4-2.37-13.42-2.26.4-1.73-9.77Zm-587.09,9.33-2.27-.4.49-2.74-38.44-6.78-.48,2.74-2.27-.4-1.73,9.77,2.27.4-2.37,13.42-2.26-.4-1.73,9.77,2.27.4-.48,2.74,38.44,6.78.48-2.74,2.27.4,1.72-9.77-2.26-.4,2.36-13.42,2.27.4,1.72-9.77Zm534.18,0,2.27-.4L2034,61.1l38.44-6.78.48,2.74,2.27-.4,1.72,9.77-2.27.4,2.37,13.42,2.27-.4,1.72,9.77-2.27.4.49,2.74-38.44,6.78-.49-2.74-2.26.4-1.73-9.77,2.27-.4-2.37-13.42L2034,74l-1.73-9.77Zm-478-8.41-2.27-.4.48-2.74L1514,45.91l-.48,2.74-2.27-.4L1509.55,58l2.27.4-2.37,13.42-2.27-.4-1.72,9.77,2.26.4-.48,2.74,38.44,6.78.49-2.74,2.26.4,1.73-9.77-2.27-.4,2.37-13.42,2.26.4,1.73-9.77Zm421.83,0,2.27-.4-.48-2.74,38.43-6.78.49,2.74,2.27-.4,1.72,9.77-2.27.4,2.37,13.42,2.27-.4,1.72,9.77-2.27.4.48,2.74-38.44,6.78-.48-2.74-2.27.4L1980.17,79l2.27-.4-2.37-13.42-2.27.4-1.72-9.77Zm-365.69-8.24-2.27-.4.48-2.74-38.44-6.77-.48,2.73-2.27-.4-1.72,9.77,2.27.4-2.37,13.43-2.27-.4L1561.6,73l2.27.4-.49,2.74,38.44,6.77.49-2.73,2.27.4,1.72-9.77-2.27-.4L1606.4,57l2.26.4,1.73-9.77Zm309.55,0,2.27-.4-.48-2.74,38.43-6.77.49,2.73,2.27-.4,1.72,9.77-2.27.4,2.37,13.43,2.27-.4,1.72,9.77-2.27.4.48,2.74-38.44,6.77-.48-2.73-2.27.4L1924,70.79l2.27-.4L1923.93,57l-2.27.4-1.72-9.77ZM1660.33,74.53l-2.27-.4.48-2.74-38.44-6.78-.48,2.74-2.27-.4-1.72,9.77,2.26.4-2.36,13.43-2.27-.4-1.73,9.77,2.27.4-.48,2.73,38.44,6.78.49-2.73,2.26.4,1.73-9.78-2.27-.39,2.37-13.43,2.26.4,1.73-9.77Zm209.67,0,2.27-.4-.48-2.74,38.44-6.78.48,2.74L1913,67l1.72,9.77-2.27.4,2.37,13.43,2.27-.4,1.72,9.77-2.27.4.48,2.73-38.44,6.78-.48-2.73-2.27.4-1.72-9.78,2.27-.39L1874,83.9l-2.27.4L1870,74.53Zm-156.63,9.35-2.27-.4.48-2.73L1673.14,74l-.48,2.73-2.27-.4-1.72,9.77,2.27.41-2.37,13.42-2.27-.4-1.72,9.77,2.27.4-.49,2.74,38.44,6.78.49-2.74,2.26.4,1.73-9.77-2.27-.4,2.37-13.43,2.26.4,1.73-9.77Zm103.59,0,2.27-.4-.48-2.73L1857.19,74l.48,2.73,2.27-.4,1.72,9.77-2.27.41,2.37,13.42,2.27-.4,1.72,9.77-2.27.4.48,2.74-38.44,6.78-.48-2.74-2.27.4-1.72-9.77,2.27-.4L1821,93.25l-2.27.4L1817,83.88Zm-381.17,24.19-2.27-.4.48-2.74-38.43-6.78-.49,2.74-2.27-.4-1.72,9.77,2.27.4L1391,124.09l-2.27-.4-1.72,9.77,2.27.4-.49,2.73,38.45,6.78.48-2.74,2.27.4,1.72-9.77-2.27-.4,2.37-13.42,2.27.4,1.72-9.77Zm658.75,0,2.27-.4-.49-2.74,38.44-6.78.48,2.74,2.28-.4,1.72,9.77-2.27.4,2.37,13.43,2.26-.4,1.73,9.77-2.27.4.48,2.73-38.44,6.78-.48-2.74-2.27.4-1.72-9.77,2.26-.4-2.36-13.42-2.27.4-1.72-9.77ZM1488.7,117.4l-2.27-.4.48-2.74-38.43-6.78-.49,2.74-2.27-.4-1.72,9.77,2.27.4-2.37,13.43-2.27-.41-1.72,9.78,2.27.4-.48,2.73,38.44,6.78.48-2.74,2.27.4,1.72-9.77-2.27-.4,2.37-13.42,2.27.4,1.72-9.77Zm552.93,0,2.27-.4-.49-2.74,38.44-6.78.48,2.74,2.27-.4,1.73,9.77-2.27.4,2.36,13.43,2.27-.41,1.73,9.78-2.27.4.48,2.73-38.44,6.78-.48-2.74-2.27.4-1.72-9.77,2.26-.4-2.36-13.42-2.27.4-1.72-9.77ZM1544.87,109l-2.27-.4.49-2.74-38.44-6.78-.49,2.74-2.27-.4-1.72,9.77,2.27.4L1500.07,125l-2.27-.4-1.72,9.77,2.27.4-.48,2.74,38.44,6.78.48-2.74,2.27.4,1.72-9.77-2.27-.4,2.37-13.42,2.27.4,1.72-9.77Zm440.58,0,2.27-.4-.48-2.74,38.44-6.78.48,2.74,2.27-.4,1.72,9.77-2.27.4,2.37,13.42,2.27-.4,1.73,9.77-2.27.4.48,2.74L1994,144.29l-.49-2.74-2.26.4-1.73-9.77,2.27-.4-2.37-13.42-2.26.4-1.73-9.77ZM1601,100.75l-2.27-.4.49-2.74-38.44-6.77-.48,2.73-2.28-.4-1.72,9.77,2.27.4-2.36,13.43-2.27-.4-1.73,9.77,2.27.4-.48,2.74,38.44,6.77.48-2.73,2.27.4,1.72-9.77-2.26-.4,2.36-13.43,2.27.4,1.72-9.77Zm328.3,0,2.27-.4-.48-2.74,38.44-6.77.48,2.73,2.27-.4,1.72,9.77-2.27.4,2.37,13.43,2.27-.4,1.72,9.77-2.27.4.49,2.74-38.44,6.77-.49-2.73-2.26.4L1933.4,124l2.27-.4-2.37-13.43-2.26.4-1.73-9.77ZM1651,127.69l-2.27-.4.49-2.74-38.44-6.77-.48,2.73-2.28-.4-1.72,9.77,2.27.4-2.37,13.43-2.27-.4-1.72,9.77,2.27.4-.48,2.74,38.44,6.77.48-2.73,2.27.4,1.72-9.77-2.27-.4,2.37-13.43,2.27.4,1.72-9.77Zm228.42,0,2.27-.4-.48-2.74,38.44-6.77.48,2.73,2.27-.4,1.72,9.77-2.27.4,2.37,13.43,2.27-.4,1.72,9.77-2.26.4.48,2.74L1887.94,163l-.49-2.73-2.26.4-1.73-9.77,2.27-.4-2.37-13.43-2.26.4-1.73-9.77ZM1704,137l-2.27-.4.49-2.73-38.44-6.78-.49,2.74-2.27-.41-1.72,9.78,2.27.4-2.37,13.42-2.27-.4-1.72,9.77,2.27.4-.48,2.74,38.44,6.78.48-2.74,2.27.4,1.72-9.77-2.27-.4,2.37-13.43,2.27.4L1704,137Zm122.34,0,2.27-.4-.48-2.73,38.44-6.78.48,2.74,2.27-.41,1.72,9.78-2.26.4,2.36,13.42,2.27-.4,1.72,9.77-2.26.4.48,2.74-38.44,6.78-.49-2.74-2.26.4-1.73-9.77,2.27-.4-2.37-13.43-2.26.4-1.73-9.77Zm-399.92,24.19-2.26-.4.48-2.74-38.44-6.78-.48,2.74-2.27-.4-1.72,9.77,2.27.4-2.37,13.43-2.27-.4-1.73,9.77,2.27.4-.48,2.73,38.44,6.78.49-2.73,2.26.4,1.73-9.78-2.27-.39,2.37-13.43,2.26.4,1.72-9.77Zm677.5,0,2.27-.4-.48-2.74,38.44-6.78.48,2.74,2.27-.4,1.72,9.77-2.27.4,2.37,13.43,2.27-.4,1.72,9.77-2.27.4.48,2.73-38.44,6.78-.48-2.73-2.27.4-1.72-9.78,2.27-.39-2.37-13.43-2.27.4-1.72-9.77Zm-624.58,9.33-2.27-.4.48-2.74-38.44-6.78-.48,2.74-2.27-.4-1.72,9.77,2.26.4-2.36,13.43-2.27-.4-1.73,9.77,2.27.4-.48,2.73,38.44,6.78.49-2.73,2.26.4,1.73-9.78-2.27-.4,2.37-13.42,2.26.4,1.73-9.77Zm571.67,0,2.27-.4-.48-2.74,38.44-6.78.48,2.74,2.27-.4,1.72,9.77-2.27.4,2.37,13.43,2.27-.4,1.72,9.77-2.27.4.48,2.73-38.44,6.78-.48-2.73-2.27.4-1.72-9.78,2.27-.4L2055,179.93l-2.27.4-1.72-9.77Zm-515.5-8.41-2.27-.4.48-2.74-38.44-6.78-.48,2.74-2.27-.4-1.72,9.77,2.27.4-2.37,13.42-2.27-.4-1.72,9.78,2.27.4-.49,2.73,38.45,6.78.48-2.74,2.27.4,1.72-9.77-2.27-.4,2.37-13.42,2.26.4,1.73-9.77Zm459.33,0,2.27-.4-.49-2.74,38.44-6.78.49,2.74,2.27-.4,1.72,9.77-2.27.4,2.37,13.42,2.27-.4,1.72,9.78-2.27.4.48,2.73-38.44,6.78-.48-2.74-2.27.4-1.72-9.77,2.27-.4-2.37-13.42-2.27.4-1.72-9.77Zm-403.19-8.24-2.27-.4.48-2.73L1551.41,144l-.48,2.73-2.27-.4-1.72,9.78,2.27.4-2.37,13.42-2.27-.4-1.72,9.77,2.27.4-.49,2.74,38.45,6.78.48-2.74,2.27.4,1.72-9.77-2.27-.4,2.37-13.43,2.27.4,1.72-9.77Zm347,0,2.27-.4-.49-2.73,38.44-6.78.48,2.73,2.27-.4,1.73,9.78-2.27.4,2.37,13.42,2.27-.4,1.72,9.77-2.27.4.48,2.74-38.44,6.78-.48-2.74-2.27.4-1.72-9.77,2.26-.4-2.36-13.43-2.27.4-1.72-9.77Zm-297.11,26.94-2.27-.4.48-2.73-38.44-6.78-.48,2.73-2.27-.4-1.72,9.77,2.27.41-2.37,13.42-2.27-.4-1.72,9.77,2.27.4-.49,2.74,38.45,6.78.48-2.74,2.27.4,1.72-9.77-2.27-.4,2.37-13.43,2.26.4,1.73-9.77Zm247.17,0,2.27-.4-.49-2.73,38.44-6.78.49,2.73,2.27-.4,1.72,9.77-2.27.41,2.37,13.42,2.27-.4,1.72,9.77-2.27.4.48,2.74-38.44,6.78-.48-2.74-2.27.4-1.72-9.77,2.26-.4-2.36-13.43-2.27.4-1.72-9.77Zm-194.13,9.35-2.27-.4.48-2.73-38.44-6.78-.48,2.74-2.27-.4-1.72,9.77,2.27.4-2.37,13.42-2.27-.4-1.72,9.77,2.27.4-.49,2.74,38.45,6.78.48-2.74,2.27.4,1.72-9.77-2.27-.4,2.37-13.42,2.26.4,1.73-9.78Zm141.09,0,2.27-.4-.49-2.73,38.44-6.78.48,2.74,2.28-.4,1.72,9.77-2.27.4,2.37,13.42,2.27-.4,1.72,9.77-2.27.4.48,2.74-38.44,6.78-.48-2.74-2.27.4-1.72-9.77,2.26-.4-2.36-13.42-2.27.4-1.72-9.78ZM1417,214.39l-2.27-.4.49-2.74-38.44-6.77-.48,2.73-2.28-.4-1.72,9.77,2.27.4-2.37,13.43L1370,230l-1.72,9.77,2.27.4-.48,2.74,38.44,6.77L1409,247l2.27.4,1.72-9.77-2.26-.4,2.36-13.43,2.27.4,1.72-9.77Zm696.24,0,2.27-.4-.48-2.74,38.44-6.77.48,2.73,2.27-.4,1.72,9.77-2.26.4,2.36,13.43,2.27-.4,1.73,9.77-2.27.4.48,2.74-38.44,6.77-.49-2.73-2.26.4-1.73-9.77,2.27-.4-2.37-13.43-2.26.4-1.73-9.77Zm-590.22,18.69-2.27-.4.48-2.73-38.44-6.78-.48,2.74-2.27-.4-1.72,9.77,2.27.4-2.37,13.42-2.27-.4-1.72,9.77,2.27.4-.49,2.74,38.45,6.78.48-2.74,2.27.4,1.72-9.77-2.27-.4,2.37-13.43,2.26.4,1.73-9.77Zm484.21,0,2.27-.4-.48-2.73,38.43-6.78.49,2.74,2.27-.4,1.72,9.77-2.27.4,2.37,13.42,2.27-.4,1.72,9.77-2.27.4.48,2.74-38.44,6.78-.48-2.74-2.27.4-1.72-9.77,2.27-.4-2.37-13.43-2.27.4-1.72-9.77ZM1470,223.72l-2.27-.4.49-2.74-38.44-6.78-.48,2.74-2.28-.4-1.72,9.77,2.27.4-2.37,13.43-2.27-.4-1.72,9.77,2.27.4-.48,2.73,38.44,6.78.48-2.73,2.27.4,1.72-9.78-2.26-.4,2.36-13.42,2.27.4,1.72-9.77Zm590.42,0,2.27-.4-.48-2.74,38.44-6.78.48,2.74,2.27-.4,1.72,9.77-2.27.4,2.37,13.43,2.27-.4,1.73,9.77-2.28.4.49,2.73L2068.94,259l-.49-2.73-2.26.4-1.73-9.78,2.27-.4-2.37-13.42-2.26.4-1.73-9.77ZM1576,242.41l-2.27-.4.48-2.73-38.44-6.78-.48,2.73-2.27-.4-1.72,9.78,2.27.4-2.37,13.42-2.27-.4-1.72,9.77,2.27.4-.49,2.74,38.44,6.78.49-2.74,2.26.4,1.73-9.77-2.27-.4,2.37-13.43,2.26.4,1.73-9.77Zm378.39,0,2.27-.4-.48-2.73,38.43-6.78.49,2.73,2.27-.4,1.72,9.78-2.27.4,2.37,13.42,2.27-.4,1.72,9.77-2.27.4.48,2.74-38.44,6.78-.48-2.74-2.27.4-1.72-9.77,2.27-.4-2.37-13.43-2.27.4-1.72-9.77Zm-211-184.6h2.31V55h39v2.78h2.3v9.92h-2.3V81.37h2.3v9.92h-2.3v2.78h-39V91.29h-2.31V81.37h2.31V67.73h-2.31V57.81Zm0,54.09h2.31v-2.78h39v2.78h2.3v9.92h-2.3v13.63h2.3v9.92h-2.3v2.78h-39v-2.78h-2.31v-9.92h2.31V121.82h-2.31V111.9ZM2060.84,280h2.3v-2.78h39V280h2.31v9.92h-2.31v13.63h2.31v9.92h-2.31v2.78h-39v-2.77h-2.3v-9.92h2.3V289.92h-2.3V280Zm53.84,0H2117v-2.78h39V280h2.3v9.92H2156v13.63h2.3v9.92H2156v2.78h-39v-2.77h-2.3v-9.92h2.3V289.92h-2.3V280ZM1372,280h2.31v-2.78h39V280h2.31v9.92h-2.31v13.63h2.31v9.92h-2.31v2.78h-39v-2.77H1372v-9.92h2.31V289.92H1372V280Zm53.85,0h2.3v-2.78h39V280h2.31v9.92h-2.31v13.63h2.31v9.92h-2.3v2.78h-39v-2.77h-2.3v-9.92h2.3V289.92h-2.3V280Z"/><path class="cls-1" d="M472.56,367a5.11,5.11,0,0,1,5.11-5.11m74.83,0a5.1,5.1,0,0,1,5.1,5.11v1.13a5.1,5.1,0,0,0,5.11,5.1h681.44a5.1,5.1,0,0,0,5.11-5.1V367a5.1,5.1,0,0,1,5.1-5.11m74.84,0a5.11,5.11,0,0,1,5.1,5.11v92.69m0,36.87V722.5a5.1,5.1,0,0,1-5.1,5.1m-222.24,0a5.1,5.1,0,0,1-5.1-5.1v-4a5.1,5.1,0,0,0-5.11-5.1H710.11a5.09,5.09,0,0,0-5.1,5.1v4a5.1,5.1,0,0,1-5.11,5.1m-222.23,0a5.1,5.1,0,0,1-5.11-5.1m849-44.5a4.25,4.25,0,1,1-4.25,4.25,4.25,4.25,0,0,1,4.25-4.25Zm-206.93,32.6a4.25,4.25,0,1,0,4.25,4.25,4.25,4.25,0,0,0-4.25-4.25ZM1056.5,381.76a4.25,4.25,0,1,0,4.25,4.25,4.25,4.25,0,0,0-4.25-4.25Zm265,24.11a4.26,4.26,0,1,1-4.25,4.25,4.25,4.25,0,0,1,4.25-4.25Zm0,136.06a4.26,4.26,0,1,1-4.25,4.26,4.25,4.25,0,0,1,4.25-4.26ZM692.25,710.63a4.25,4.25,0,1,0,4.25,4.25,4.25,4.25,0,0,0-4.25-4.25Zm58.11-328.84a4.26,4.26,0,1,0,4.25,4.26,4.25,4.25,0,0,0-4.25-4.26ZM472.56,1.37a5.1,5.1,0,0,1,5.11-5.1H552.5a5.1,5.1,0,0,1,5.1,5.1V2.5a5.11,5.11,0,0,0,1.5,3.61,5.07,5.07,0,0,0,3.61,1.49h681.44a5.07,5.07,0,0,0,3.61-1.49,5.11,5.11,0,0,0,1.5-3.61V1.37a5.1,5.1,0,0,1,5.1-5.1h74.84a5.1,5.1,0,0,1,5.1,5.1V356.83a5.1,5.1,0,0,1-5.1,5.1H1107a5.1,5.1,0,0,1-5.1-5.1v-4a5.12,5.12,0,0,0-5.11-5.1H710.11a5.1,5.1,0,0,0-5.1,5.1v4a5.1,5.1,0,0,1-5.11,5.1H477.67a5.1,5.1,0,0,1-5.11-5.1m849-44.5a4.25,4.25,0,1,1-4.25,4.25,4.25,4.25,0,0,1,4.25-4.25Zm-206.93,32.6a4.25,4.25,0,1,0,4.25,4.25,4.25,4.25,0,0,0-4.25-4.25ZM1056.5,16.09a4.26,4.26,0,1,0,4.25,4.25,4.25,4.25,0,0,0-4.25-4.25Zm265,24.11a4.26,4.26,0,1,1-4.25,4.25,4.25,4.25,0,0,1,4.25-4.25Zm0,136.07a4.25,4.25,0,1,1-4.25,4.25,4.25,4.25,0,0,1,4.25-4.25ZM692.25,345a4.25,4.25,0,1,0,4.25,4.25,4.25,4.25,0,0,0-4.25-4.25ZM750.36,16.12a4.26,4.26,0,1,0,4.25,4.26,4.25,4.25,0,0,0-4.25-4.26Z"/><path class="cls-3" d="M931.78,157h-56.7V46.2h56.7V157ZM875.11,46.23V157h56.64V46.23Z"/><path class="cls-3" d="M1108.7,45l53-9.35,3.13,17.76,106-18.68,9.37,53.16,9.38,53.17,9.37,53.16,9.84,55.83L1253,259.92l-48,8.47h98.2v56.69H1192.58V270.57l-45.64,8.05L1094,288l-9.85-55.84,106-18.69-2.66-15.09-53,9.35-3.1-17.59L1081.15,199l3.1,17.59-20.74,3.66L1082,271l-51.51,18.74-33.41,43.54-45-34.51,34.52-45,39.94,30.66-17.22-47.34,39.18-14.26-73.13,12.9-9.85-55.83-8.9-50.5-9.85-55.83,106.09-18.7-3.11-17.59,55.84-9.84L1108.7,45Zm-58.9-7.72,3.1,17.59-53.07,9.36-53,9.35,9.84,55.8,8.9,50.49,9.84,55.8,73.1-12.89,0,.06-39.16,14.25,17.22,47.31,0,0-39.93-30.64-34.48,44.94,44.94,34.47,33.39-43.52L1082,271l-18.48-50.79,20.75-3.66-3.1-17.59,50.3-8.87,3.1,17.59,53-9.36,2.67,15.15L1140,222.3l-55.8,9.84,9.83,55.77,52.88-9.32,45.68-8.06v54.53h110.48V268.42h-98.17v-.06l48-8.47,55.8-9.84-9.84-55.8-9.37-53.16-9.38-53.16L1270.8,34.8l-52.89,9.32-53.06,9.36-3.14-17.77-53,9.36-3.1-17.59-55.77,9.83Z"/><path class="cls-3" d="M757.1,37.29,754,54.88l50.24,8.86,55.84,9.84-9.38,53.16-9.37,53.17-9.85,55.83-53-9.36-20.08-3.54,39.17,14.26-17.22,47.34,40-30.66,34.51,45-45,34.51-33.41-43.54L724.87,271l18.49-50.79-20.75-3.66,3.1-17.59-50.24-8.86-3.11,17.59-53-9.35-2.66,15.09,50.19,8.85,55.83,9.84L712.83,288,657,278.1l-42.72-7.53v54.51H503.75V268.39h98.19l-48-8.47-55.83-9.84L536,34.76l55.83,9.85L642,53.44l3.13-17.76,53,9.35,3.11-17.58,55.83,9.84Zm-58.91,7.78-53-9.36L642,53.48l-50.15-8.84L536.06,34.8,526.7,87.93l-9.38,53.16L508,194.25l-9.84,55.8,55.8,9.84,48,8.47v.06H503.77v56.64H614.25V270.53L657,278.07l55.8,9.84,9.83-55.77-55.8-9.84-50.21-8.86,2.67-15.15,53,9.36,3.1-17.59,50.31,8.87-3.1,17.59,20.74,3.66L724.91,271l51.49,18.74,33.4,43.52,44.93-34.47-34.48-44.94-39.93,30.64,0,0,17.22-47.31-39.15-14.25v-.06l20.09,3.55,53,9.34,9.84-55.8,9.37-53.16L860,73.61l-55.8-9.84L754,54.9l3.1-17.59-55.77-9.83-3.1,17.59Z"/><path class="cls-1" d="M903.43,732.71a5.11,5.11,0,0,1,5.1-5.11H1329.2a5.11,5.11,0,0,1,5.1,5.11v355.46a5.1,5.1,0,0,1-5.1,5.1H908.53a5.1,5.1,0,0,1-5.1-5.1M472.56,825.4V732.71m0,0a5.11,5.11,0,0,1,5.11-5.11H898.33a5.1,5.1,0,0,1,5.1,5.11v355.46a5.1,5.1,0,0,1-5.1,5.1H477.67a5.1,5.1,0,0,1-5.11-5.1m-5.1-360.57a5.1,5.1,0,0,1,5.1,5.11V825.4m0,36.85v225.92a5.1,5.1,0,0,1-5.1,5.1H46.8a5.1,5.1,0,0,1-5.1-5.1V732.71a5.1,5.1,0,0,1,5.1-5.11m1274.74,316.07a4.25,4.25,0,1,1-4.25,4.25,4.25,4.25,0,0,1,4.25-4.25Zm-430.87,0a4.25,4.25,0,1,1-4.25,4.25,4.25,4.25,0,0,1,4.25-4.25Zm-430.86,0a4.25,4.25,0,1,1-4.25,4.25,4.25,4.25,0,0,1,4.25-4.25Zm861.73-272.13a4.25,4.25,0,1,1-4.25,4.25,4.25,4.25,0,0,1,4.25-4.25Zm-430.87,0a4.25,4.25,0,1,1-4.25,4.25,4.26,4.26,0,0,1,4.25-4.25Zm-430.86,0a4.25,4.25,0,1,1-4.25,4.25,4.25,4.25,0,0,1,4.25-4.25Zm456.38,0a4.25,4.25,0,1,1-4.25,4.25,4.26,4.26,0,0,1,4.25-4.25Zm-430.87,0a4.25,4.25,0,1,1-4.25,4.25,4.25,4.25,0,0,1,4.25-4.25Zm-430.86,0a4.25,4.25,0,1,1-4.26,4.25,4.26,4.26,0,0,1,4.26-4.25ZM916.19,907.6a4.26,4.26,0,1,1-4.25,4.26,4.26,4.26,0,0,1,4.25-4.26Zm-430.87,0a4.26,4.26,0,1,1-4.25,4.26,4.25,4.25,0,0,1,4.25-4.26Zm-430.86,0a4.26,4.26,0,1,1-4.26,4.26,4.26,4.26,0,0,1,4.26-4.26Zm1267.08,0a4.26,4.26,0,1,1-4.25,4.26,4.25,4.25,0,0,1,4.25-4.26Zm-430.87,0a4.26,4.26,0,1,1-4.25,4.26,4.26,4.26,0,0,1,4.25-4.26Zm-430.86,0a4.26,4.26,0,1,1-4.25,4.26,4.25,4.25,0,0,1,4.25-4.26Zm456.38,136.07a4.25,4.25,0,1,1-4.25,4.25,4.25,4.25,0,0,1,4.25-4.25Zm-430.87,0a4.25,4.25,0,1,1-4.25,4.25,4.25,4.25,0,0,1,4.25-4.25Zm-430.86,0a4.25,4.25,0,1,1-4.26,4.25,4.25,4.25,0,0,1,4.26-4.25Zm413-681.74a5.1,5.1,0,0,1,5.1,5.11V722.5a5.1,5.1,0,0,1-5.1,5.1H46.8a5.1,5.1,0,0,1-5.1-5.1V367a5.1,5.1,0,0,1,5.1-5.11M41.7,1.37a5.1,5.1,0,0,1,5.1-5.1H467.46a5.1,5.1,0,0,1,5.1,5.1V356.83a5.1,5.1,0,0,1-5.1,5.1H46.8a5.1,5.1,0,0,1-5.1-5.1V1.37Zm12.76,404.5a4.26,4.26,0,1,1-4.26,4.25,4.26,4.26,0,0,1,4.26-4.25Zm0-365.67a4.26,4.26,0,1,1-4.26,4.25,4.26,4.26,0,0,1,4.26-4.25Zm0,501.73a4.26,4.26,0,1,1-4.26,4.26,4.26,4.26,0,0,1,4.26-4.26Zm0-365.66a4.25,4.25,0,1,1-4.26,4.25,4.25,4.25,0,0,1,4.26-4.25Zm0,501.73a4.25,4.25,0,1,1-4.26,4.25A4.25,4.25,0,0,1,54.46,678Zm0-365.67a4.25,4.25,0,1,1-4.26,4.25,4.25,4.25,0,0,1,4.26-4.25Z"/><path class="cls-2" d="M332.06,596.68l2.16.79.95-2.61,36.68,13.35-1,2.61,2.17.79-3.4,9.32-2.16-.79L362.85,633l2.16.79-3.39,9.32-2.17-.79-.95,2.62-36.68-13.35.95-2.62-2.16-.78,3.39-9.33,2.17.79,4.66-12.81-2.17-.79,3.4-9.32Zm68.59,35.18,1.41,1.82,2.2-1.69L428,663l-2.2,1.69,1.4,1.83-7.87,6-1.4-1.83L407.13,679l1.41,1.83-7.88,6-1.4-1.83-2.2,1.69-23.77-31,2.21-1.69-1.4-1.83,7.87-6,1.4,1.83,10.81-8.3-1.4-1.82,7.87-6ZM222,430.06l-2.27-.4.48-2.73-38.44-6.78-.48,2.74-2.27-.4-1.72,9.77,2.26.4-2.36,13.42-2.27-.4-1.72,9.77,2.26.4-.48,2.74,38.44,6.78.49-2.74,2.26.4,1.73-9.77-2.27-.4L218,439.43l2.26.4,1.73-9.77ZM119.36,422h-2.3V419.2H78V422H75.72v9.92H78v13.64h-2.3v9.92H78v2.78h39v-2.78h2.3v-9.92h-2.3V431.9h2.3V422Zm158.79-.33-2.27-.4.48-2.74-38.44-6.77-.48,2.73-2.27-.4-1.72,9.77,2.27.4-2.37,13.43-2.27-.4L229.36,447l2.27.4-.49,2.74L269.59,457l.48-2.73,2.27.4,1.72-9.77-2.27-.4L274.16,431l2.27.4,1.72-9.77Zm56.14-8.23L332,413l.48-2.74-38.43-6.78-.49,2.74-2.27-.4-1.72,9.77,2.27.4-2.37,13.42-2.27-.4-1.72,9.77,2.27.41-.48,2.73,38.44,6.78.48-2.74,2.27.4,1.72-9.77-2.27-.4,2.37-13.42,2.27.4,1.72-9.77Zm49.94,26.94L382,440l.48-2.74L344,430.44l-.48,2.74-2.27-.4-1.72,9.77,2.27.4-2.37,13.42-2.27-.4-1.72,9.77,2.27.4-.49,2.74,38.45,6.78.48-2.74,2.27.4,1.72-9.77-2.27-.4,2.37-13.42,2.27.4,1.72-9.77Zm53,9.35-2.27-.4.48-2.74L397,439.79l-.48,2.74-2.27-.4-1.72,9.77,2.27.4-2.37,13.43-2.27-.4-1.72,9.77,2.27.4-.49,2.73L428.71,485l.48-2.73,2.27.39,1.72-9.77-2.27-.4,2.37-13.42,2.27.4,1.72-9.77ZM212.6,483.23l-2.27-.41.49-2.73-38.44-6.78-.48,2.74-2.28-.4-1.72,9.77,2.27.4-2.37,13.42-2.27-.4-1.72,9.77,2.27.4-.48,2.74L204,518.53l.48-2.74,2.27.4,1.72-9.77-2.27-.4,2.37-13.42,2.27.4,1.72-9.77ZM119.36,476h-2.3v-2.77H78V476H75.72v9.93H78v13.63h-2.3v9.92H78v2.78h39v-2.78h2.3v-9.92h-2.3V485.89h2.3V476Zm149.41-1.15-2.26-.4.48-2.73-38.44-6.78-.48,2.74-2.27-.41L224.07,477l2.27.4L224,490.83l-2.27-.4L220,500.2l2.27.4-.48,2.74,38.44,6.78.49-2.74,2.26.4,1.73-9.77-2.27-.4,2.36-13.43,2.27.4,1.72-9.77Zm56.15-8.23-2.27-.4.48-2.74-38.44-6.78-.48,2.74-2.27-.4-1.72,9.77,2.27.4-2.37,13.43-2.27-.4L276.13,492l2.26.4-.48,2.73,38.44,6.78.49-2.74,2.26.4,1.73-9.77-2.27-.4L320.93,476l2.26.4,1.73-9.77Zm49.93,26.94-2.26-.4.48-2.74-38.44-6.78-.48,2.74-2.27-.4-1.72,9.77,2.26.4-2.36,13.43-2.27-.41-1.73,9.78,2.27.4-.48,2.73,38.44,6.78.48-2.74,2.27.4,1.72-9.77-2.26-.4,2.37-13.42,2.26.4,1.72-9.77Zm53,9.35-2.26-.4.48-2.74L387.67,493l-.48,2.73-2.27-.4-1.72,9.77,2.26.4-2.36,13.43-2.27-.4-1.73,9.77,2.27.4-.48,2.74,38.44,6.77.49-2.73,2.26.4,1.72-9.77-2.26-.4,2.37-13.43,2.26.4,1.72-9.77ZM203.23,536.39,201,536l.48-2.74L163,526.47l-.48,2.74-2.27-.4-1.72,9.77,2.27.4-2.37,13.42-2.27-.4-1.72,9.77,2.27.4-.49,2.74,38.45,6.78.48-2.74,2.27.4,1.72-9.77-2.27-.4,2.37-13.42,2.27.4,1.72-9.77ZM119.36,530h-2.3v-2.78H78V530H75.72v9.92H78V553.5h-2.3v9.92H78v2.78h39v-2.78h2.3V553.5h-2.3V539.87h2.3V530Zm140-2-2.27-.4.48-2.73-38.43-6.78-.49,2.74-2.27-.4-1.72,9.77,2.27.4L214.6,544l-2.27-.4-1.72,9.77,2.27.4-.48,2.74,38.44,6.78.48-2.74,2.27.4,1.72-9.77-2.27-.4,2.37-13.42,2.27.4L259.4,528Zm56.14-8.23-2.27-.4.49-2.74-38.44-6.77-.48,2.73-2.28-.4-1.72,9.77,2.27.4-2.37,13.43-2.27-.4-1.72,9.77,2.27.4-.48,2.73L307,555l.48-2.73,2.27.4,1.72-9.77-2.26-.4,2.36-13.43,2.27.4,1.72-9.77Zm49.94,26.94-2.27-.4.49-2.74-38.44-6.78-.49,2.74-2.27-.4-1.72,9.77,2.27.4-2.37,13.43-2.27-.4-1.72,9.77,2.27.4-.48,2.73L356.92,582l.48-2.73,2.27.4,1.72-9.78-2.27-.4,2.37-13.42,2.27.4,1.72-9.77Zm53,9.35-2.27-.4.48-2.74-38.43-6.77-.49,2.73-2.27-.4-1.72,9.77,2.27.4-2.37,13.43-2.27-.4-1.72,9.77,2.27.4-.48,2.74L410,591.33l.48-2.73,2.27.4,1.72-9.77-2.27-.4,2.37-13.43,2.27.4,1.72-9.77ZM247,598.91l-2.27-.4.48-2.74L206.74,589l-.49,2.73-2.27-.4-1.72,9.77,2.27.4-2.37,13.43-2.27-.4-1.72,9.77,2.27.4-.48,2.74,38.44,6.77.48-2.73,2.27.4,1.72-9.77-2.27-.4L243,608.28l2.27.4,1.72-9.77Zm-53.11-9.36-2.26-.4.48-2.74-38.44-6.78-.48,2.74-2.27-.4-1.73,9.77,2.27.4-2.36,13.42-2.27-.4-1.73,9.77,2.27.4-.48,2.74,38.44,6.78.48-2.74,2.27.4,1.72-9.77-2.26-.4,2.36-13.42,2.27.4,1.72-9.77Zm-74.49-5.62h-2.3v-2.78H78v2.78H75.72v9.92H78v13.63h-2.3v9.92H78v2.78h39V617.4h2.3v-9.92h-2.3V593.85h2.3v-9.92Zm0,54h-2.3v-2.78H78v2.78H75.72v9.92H78v13.63h-2.3v9.92H78v2.78h39v-2.78h2.3v-9.92h-2.3V647.83h2.3v-9.92Zm180.51-29.67-2.27-.4.48-2.74-38.44-6.78-.48,2.74-2.27-.4-1.72,9.77,2.27.4-2.37,13.43-2.27-.4-1.72,9.77,2.27.4-.48,2.73,38.44,6.78.48-2.73,2.27.4,1.72-9.77-2.27-.4,2.37-13.43,2.27.4,1.72-9.77Z"/><path class="cls-3" d="M125.89,317.32H69.19V44.7h56.7V317.32ZM69.22,44.73V317.29h56.64V44.73Z"/><path class="cls-3" d="M342.73,37.45,339.63,55l50.25,8.86,55.83,9.84-9.84,55.83L427,180.06l-9.84,55.83-55.83-9.84L344,223l39.18,14.26L365.94,284.6l39.95-30.66,34.51,45-45,34.51L362,289.89l-51.51-18.75L329,220.36l-20.74-3.66,3.1-17.59-50.25-8.86L258,207.84l-53-9.36-2.66,15.1,53.1,9.36,52.91,9.33-9.84,55.83-55.83-9.84-52.91-9.33-53.11-9.37,38-215.31,53,9.35,3.13-17.76,53,9.35,3.1-17.59,55.83,9.85Zm-58.91,7.77-53-9.35-3.13,17.77-53-9.36-9.84,55.81-9.37,53.16L146,206.41l-9.36,53.13,53.07,9.36,52.91,9.33,55.81,9.84,9.83-55.78L255.4,223l-53.13-9.37,2.67-15.15,53,9.35,3.1-17.58,50.3,8.87-3.1,17.58L329,220.33l-18.49,50.8L362,289.87l33.4,43.52,44.93-34.48L405.89,254,366,284.62l0,0,17.22-47.31L344,223V223l17.3,3.05,55.81,9.84,9.84-55.8,8.9-50.49,9.84-55.81-55.8-9.84L339.6,55.06l3.1-17.59-55.78-9.83-3.1,17.58Z"/><path class="cls-1" d="M1308.78,496.58V690.75a2.83,2.83,0,0,1-2.83,2.84h-805a2.84,2.84,0,0,1-2.83-2.84V401.62a2.84,2.84,0,0,1,2.83-2.84h805a2.83,2.83,0,0,1,2.83,2.84v58.11h51V401.62a2.84,2.84,0,0,1,2.83-2.84h805a2.84,2.84,0,0,1,2.84,2.84V690.75a2.84,2.84,0,0,1-2.84,2.84h-805a2.84,2.84,0,0,1-2.83-2.84V496.58ZM447.62,862.25v194.17a2.84,2.84,0,0,1-2.84,2.84H70a2.84,2.84,0,0,1-2.83-2.84V767.29A2.84,2.84,0,0,1,70,764.45H444.78a2.84,2.84,0,0,1,2.84,2.84V825.4h50.46V767.29a2.84,2.84,0,0,1,2.83-2.84H875.65a2.84,2.84,0,0,1,2.84,2.84v289.13a2.84,2.84,0,0,1-2.84,2.84H500.91a2.84,2.84,0,0,1-2.83-2.84V862.25Z"/></g><g id="Layer_2" data-name="Layer 2"><path class="cls-4" d="M2174.77,1053.59a18.43,18.43,0,1,1-18.43,18.42,18.43,18.43,0,0,1,18.43-18.42Z"/><path class="cls-4" d="M2175.2,730.44a18.43,18.43,0,1,1-18.43,18.42,18.43,18.43,0,0,1,18.43-18.42Z"/><path class="cls-4" d="M1355.56,730.44a18.43,18.43,0,1,1-18.43,18.42,18.42,18.42,0,0,1,18.43-18.42Z"/><path class="cls-4" d="M1765.16,741.78a18.43,18.43,0,1,1-18.42,18.42,18.43,18.43,0,0,1,18.42-18.42Z"/><path class="cls-4" d="M1355.56,1053.59a18.43,18.43,0,1,1-18.43,18.42,18.42,18.42,0,0,1,18.43-18.42Z"/><path class="cls-4" d="M1313,1053.59a18.43,18.43,0,1,1-18.43,18.42,18.42,18.42,0,0,1,18.43-18.42Z"/><path class="cls-4" d="M1313.46,730.44A18.43,18.43,0,1,1,1295,748.86a18.43,18.43,0,0,1,18.42-18.42Z"/><path class="cls-4" d="M924.69,730.44a18.43,18.43,0,1,1-18.42,18.42,18.43,18.43,0,0,1,18.42-18.42Z"/><path class="cls-4" d="M924.69,1053.59A18.43,18.43,0,1,1,906.27,1072a18.43,18.43,0,0,1,18.42-18.42Z"/><path class="cls-5" d="M1633.26,890.15a1.57,1.57,0,0,0,1,1.54,6.45,6.45,0,0,0,2.62.44h7a9.54,9.54,0,0,0,3.2-.48,6.55,6.55,0,0,0,2.3-1.37,9.18,9.18,0,0,0,1.7-2.21,17.91,17.91,0,0,0,1.31-3,.75.75,0,0,1,.77-.51,1.72,1.72,0,0,1,.67.16l.74.35c-.3,1.28-.59,2.64-.87,4.07s-.52,3-.73,4.83c-.05.47-.17.77-.39.9a1.53,1.53,0,0,1-.76.19c-.73,0-1.64-.06-2.73-.16a28.37,28.37,0,0,0-2.84-.16h-16c-1,0-2.22,0-3.71.09s-2.93.14-4.29.23a5.21,5.21,0,0,1-.13-1c0-.59.21-.93.64-1a12.49,12.49,0,0,0,3.58-1,1.82,1.82,0,0,0,1-1.7V857.7a2,2,0,0,0-.89-1.82,10.67,10.67,0,0,0-3.46-.93.69.69,0,0,1-.48-.35,1.33,1.33,0,0,1-.16-.67,5.32,5.32,0,0,1,.13-1.09c1.45.08,2.88.16,4.29.22s2.6.1,3.58.1c1.45,0,3,0,4.61-.1s3.07-.14,4.35-.22a5.12,5.12,0,0,1,.13,1c0,.73-.24,1.11-.7,1.15a14.61,14.61,0,0,0-4.07.93,2.23,2.23,0,0,0-1.31,2.21v32Zm50.5,2.88c.46,0,.72.45.76,1.34a7.22,7.22,0,0,1-4.22,1.16,6.37,6.37,0,0,1-2.43-.42,5.05,5.05,0,0,1-2.82-2.72,6.77,6.77,0,0,1-.51-1.86,9,9,0,0,1-3.81,3.94,11.72,11.72,0,0,1-5.09,1.06,17.72,17.72,0,0,1-2.72-.23,8.28,8.28,0,0,1-2.72-.93,6,6,0,0,1-2.11-2,6.16,6.16,0,0,1-.83-3.39,6.88,6.88,0,0,1,1.12-4,9.16,9.16,0,0,1,2.88-2.69,17.56,17.56,0,0,1,3.84-1.7c1.39-.42,2.72-.79,4-1.08.72-.13,1.4-.27,2-.42a15.82,15.82,0,0,0,1.64-.48,1.75,1.75,0,0,0,1.12-.7,4.45,4.45,0,0,0,.22-1.73,9.61,9.61,0,0,0-1.15-5c-.77-1.3-2.13-2-4.1-2a5.91,5.91,0,0,0-1.85.25,3.07,3.07,0,0,0-1.28.8,4.94,4.94,0,0,0-.9,1.44c-.26.6-.51,1.3-.77,2.11a1.55,1.55,0,0,1-.86,1,16.7,16.7,0,0,1-2.27.77c-.26.08-.58.17-1,.25a4.4,4.4,0,0,1-1,.13c-.43,0-.64-.45-.64-1.34a4.58,4.58,0,0,1,1.09-2.82,10.9,10.9,0,0,1,2.78-2.5,17.1,17.1,0,0,1,3.68-1.76,12,12,0,0,1,3.77-.67,19.1,19.1,0,0,1,4,.39,7.22,7.22,0,0,1,3.07,1.4,6.47,6.47,0,0,1,2,2.76,12.48,12.48,0,0,1,.67,4.48v11a24,24,0,0,0,.16,3.24,5,5,0,0,0,.48,1.56,2.6,2.6,0,0,0,1,1.19,2.43,2.43,0,0,0,1.12.29,2.84,2.84,0,0,0,1-.13,1.39,1.39,0,0,1,.61-.13Zm-9.67-12.48-2,.32c-1.11.21-2.18.47-3.23.77a9.94,9.94,0,0,0-2.78,1.25,6.37,6.37,0,0,0-2,2,5.74,5.74,0,0,0-.73,3,5.11,5.11,0,0,0,1.25,3.71,4.12,4.12,0,0,0,3.1,1.28,5.74,5.74,0,0,0,2.4-.54,6.06,6.06,0,0,0,2.05-1.54,8.33,8.33,0,0,0,1.41-2.33,7.86,7.86,0,0,0,.54-3v-5Zm22.4,9a13.45,13.45,0,0,0,3.52,2.66,9.35,9.35,0,0,0,4.35,1,6.36,6.36,0,0,0,3.27-.83,6.92,6.92,0,0,0,2.33-2.27,11,11,0,0,0,1.41-3.46,18.84,18.84,0,0,0,.48-4.38,19.47,19.47,0,0,0-.54-4.64,13.28,13.28,0,0,0-1.6-3.87,8.48,8.48,0,0,0-2.56-2.63,6.15,6.15,0,0,0-3.36-1,5.08,5.08,0,0,0-2.56.74,9.53,9.53,0,0,0-2.34,1.89,10.2,10.2,0,0,0-1.73,2.59,6.94,6.94,0,0,0-.67,2.91v11.26Zm-5.37-16.19a4.22,4.22,0,0,0-.61-2.56,4.1,4.1,0,0,0-2.79-1c-.55-.08-.83-.36-.83-.83a3.61,3.61,0,0,1,.13-.9c.55,0,1.31,0,2.27-.09a19.72,19.72,0,0,0,2.4-.29,23.38,23.38,0,0,0,2.53-.48,7.64,7.64,0,0,1,1.63-.29c.56,0,.83.32.83,1s0,1.12-.09,1.83-.1,1.73-.1,3.1a20.12,20.12,0,0,1,4.32-4.19,10,10,0,0,1,5.92-1.7,10.26,10.26,0,0,1,7.75,3.55,13.71,13.71,0,0,1,2.46,4.32,17,17,0,0,1,.93,5.83,14.17,14.17,0,0,1-1.35,6.33,15.77,15.77,0,0,1-3.32,4.64,14.57,14.57,0,0,1-4.32,2.88,11,11,0,0,1-4.33,1,20.47,20.47,0,0,1-4-.39,18.18,18.18,0,0,1-4.06-1.34v11.58a2.24,2.24,0,0,0,1.47,2.27,17.92,17.92,0,0,0,4.8.93.77.77,0,0,1,.71.83,6.09,6.09,0,0,1-.13,1c-1-.09-2.33-.16-4-.23s-3.31-.09-4.8-.09c-1.11,0-2.29,0-3.52.09s-2.41.14-3.52.23a5.21,5.21,0,0,1-.13-1,.69.69,0,0,1,.57-.76,10.72,10.72,0,0,0,2.31-.77,1.53,1.53,0,0,0,.9-1.47v-33Zm46.27,17.6a1.37,1.37,0,0,1,.54-.38,1.63,1.63,0,0,1,.35-.07c.39,0,.73.28,1,.84a15.61,15.61,0,0,1-3.59,3,7.8,7.8,0,0,1-4.09,1.16,10,10,0,0,1-2.43-.29,4.25,4.25,0,0,1-2-1.12,5.79,5.79,0,0,1-1.31-2.27,12.12,12.12,0,0,1-.48-3.75V870.44h-3.84v-.71a2.12,2.12,0,0,1,.16-.83.66.66,0,0,1,.67-.38,4.3,4.3,0,0,0,2.82-.9,7,7,0,0,0,1.79-2.3c.51-1,1-2,1.34-2.88s.81-1.35,1.28-1.35h1.15v6.66h7.49a5.23,5.23,0,0,1-.29,2,1.05,1.05,0,0,1-1,.67h-6.15v15.87a22.23,22.23,0,0,0,.2,3.3,5.7,5.7,0,0,0,.57,1.92,1.89,1.89,0,0,0,.9.86,3.19,3.19,0,0,0,1.15.19,4.33,4.33,0,0,0,2-.48,11.63,11.63,0,0,0,1.76-1.12Zm22.91-23.93a3.73,3.73,0,0,1,2.75.89,2.76,2.76,0,0,1,.9,2,2,2,0,0,1-.13.7,1.74,1.74,0,0,1-.61.67,12.84,12.84,0,0,1-1.34.83c-.58.32-1.38.72-2.4,1.19a6,6,0,0,0-1.38-1.22,3.2,3.2,0,0,0-1.76-.51,3.41,3.41,0,0,0-2,.61,5.26,5.26,0,0,0-1.54,1.66,8.84,8.84,0,0,0-1,2.43,11.24,11.24,0,0,0-.35,2.85v11a2.2,2.2,0,0,0,1.47,2.08,15.91,15.91,0,0,0,4.22,1.06.7.7,0,0,1,.64.76,5.21,5.21,0,0,1-.13,1c-.46,0-1.05-.08-1.76-.1l-2.2-.09c-.77,0-1.56-.08-2.37-.1l-2.24,0c-1.15,0-2.35,0-3.58.09s-2.42.14-3.52.23a5.21,5.21,0,0,1-.13-1,.69.69,0,0,1,.57-.76,10.54,10.54,0,0,0,2.59-.77,1.6,1.6,0,0,0,1.12-1.47V874.79a13.91,13.91,0,0,0-.15-2.24,3.53,3.53,0,0,0-.55-1.44,2.2,2.2,0,0,0-1.12-.8,8.58,8.58,0,0,0-1.89-.38c-.55-.09-.83-.37-.83-.84a3.53,3.53,0,0,1,.13-.89c.55,0,1.33,0,2.34-.1s1.82-.14,2.46-.22c.94-.17,1.76-.35,2.46-.55a6.73,6.73,0,0,1,1.57-.28q.9,0,.9,1v4.28a27.45,27.45,0,0,1,4.12-3.74,7.87,7.87,0,0,1,4.71-1.5Zm27.52,21.76a1.35,1.35,0,0,1,1-.45c.43,0,.83.36,1.22,1.09a19.66,19.66,0,0,1-1.93,2.24,12.28,12.28,0,0,1-2.59,1.95,14.29,14.29,0,0,1-3.42,1.37,16.81,16.81,0,0,1-4.42.52,14.11,14.11,0,0,1-4.86-.84,10.9,10.9,0,0,1-4.06-2.56,12.57,12.57,0,0,1-2.82-4.28,15.83,15.83,0,0,1-1.06-6,14.45,14.45,0,0,1,1.25-6,15.29,15.29,0,0,1,7.62-7.74,11.12,11.12,0,0,1,4.64-1.09c4,0,6.86,1.15,8.67,3.46a14.17,14.17,0,0,1,2.72,9,.34.34,0,0,1-.39.39l-18.56.83a14.51,14.51,0,0,0,.71,4.61,11.19,11.19,0,0,0,2,3.64,8.92,8.92,0,0,0,3.11,2.4,9.45,9.45,0,0,0,4.13.87,8.57,8.57,0,0,0,3.93-1,10.33,10.33,0,0,0,3.17-2.43Zm-10.37-19.52a5.8,5.8,0,0,0-5,2.49,10.92,10.92,0,0,0-1.79,6.53l12.09-.58c.64,0,1-.27,1-.83a9.57,9.57,0,0,0-.38-2.56,8.53,8.53,0,0,0-1.15-2.46,6.65,6.65,0,0,0-2-1.86,5.18,5.18,0,0,0-2.79-.73Zm20.48,4.35a4.68,4.68,0,0,0-.61-2.85,4.17,4.17,0,0,0-2.78-.93c-.56-.08-.83-.36-.83-.83a3.61,3.61,0,0,1,.13-.9c.55,0,1.29,0,2.2-.09a19.59,19.59,0,0,0,2.34-.29,19.9,19.9,0,0,0,2.46-.48,6.88,6.88,0,0,1,1.57-.29q.9,0,.9,1v16a20.7,20.7,0,0,0,.19,2.95,7.41,7.41,0,0,0,.7,2.33,3.64,3.64,0,0,0,1.47,1.54,5,5,0,0,0,2.44.54,9.37,9.37,0,0,0,3.13-.54,8.08,8.08,0,0,0,2.72-1.6,7.85,7.85,0,0,0,1.89-2.59,8.55,8.55,0,0,0,.7-3.59v-9.34a4.79,4.79,0,0,0-.6-2.82q-.62-.77-2.85-1c-.56-.08-.83-.36-.83-.83a3.61,3.61,0,0,1,.13-.9c.55,0,1.29,0,2.2-.09a22,22,0,0,0,2.4-.29,19.17,19.17,0,0,0,2.44-.48A6.37,6.37,0,0,1,1821,867q.9,0,.9,1v20.8a10.37,10.37,0,0,0,.12,1.76,2.18,2.18,0,0,0,.52,1.09,2.43,2.43,0,0,0,1,.64,6.91,6.91,0,0,0,1.76.29c.56.08.83.36.83.83a4.06,4.06,0,0,1-.12.9,17.77,17.77,0,0,0-2.56.19l-2.56.38c-.81.13-1.53.26-2.15.39a8.33,8.33,0,0,1-1.31.19q-.9,0-.9-1v-5.31c-.12.12-.49.53-1.08,1.21a18.91,18.91,0,0,1-2.34,2.18,18,18,0,0,1-3.33,2.08,9.06,9.06,0,0,1-4.06.93c-2.6,0-4.56-.75-5.86-2.24a9.37,9.37,0,0,1-2-6.34V873.64Zm49.6,1.21a1,1,0,0,1-.74-.22,1.08,1.08,0,0,1-.28-.48,5.35,5.35,0,0,0-2.08-3.74,7,7,0,0,0-4.07-1.12,5.45,5.45,0,0,0-3.29,1.05,3.43,3.43,0,0,0-1.44,2.91,3.51,3.51,0,0,0,1.31,2.79,14.6,14.6,0,0,0,4.77,2.21,29.46,29.46,0,0,1,3.42,1.28,10.54,10.54,0,0,1,2.69,1.69,7,7,0,0,1,1.76,2.43,8.37,8.37,0,0,1,.64,3.43,8.55,8.55,0,0,1-.61,3.2,7.26,7.26,0,0,1-1.85,2.69,9.63,9.63,0,0,1-3.14,1.85,12.9,12.9,0,0,1-4.51.71,24.78,24.78,0,0,1-4.58-.48,14.87,14.87,0,0,1-4.57-1.64c-.09-1.11-.17-2.27-.23-3.48s-.09-2.45-.09-3.68h.63a2.41,2.41,0,0,1,1.09.22.88.88,0,0,1,.51.74,6.41,6.41,0,0,0,2.09,4.32,7.38,7.38,0,0,0,5.08,1.63,6.08,6.08,0,0,0,4-1.19,4,4,0,0,0,1.41-3.23,3.76,3.76,0,0,0-1.53-3.23,15.31,15.31,0,0,0-4.55-2,16.24,16.24,0,0,1-5.92-3,6.8,6.8,0,0,1-2.14-5.44,7.79,7.79,0,0,1,2.43-5.7,8.49,8.49,0,0,1,2.82-1.73,10.39,10.39,0,0,1,3.71-.64,17.19,17.19,0,0,1,4.83.67,15.75,15.75,0,0,1,3.55,1.44c0,.35.09.76.13,1.25s.08,1,.1,1.54l.06,1.6q0,.79,0,1.44l-1.47-.07Zm27.58-7.29a4.49,4.49,0,0,1-.38,1.63,1.32,1.32,0,0,1-1.34.67h-12.8l-1.09,9.79a22.56,22.56,0,0,1,3.13-.76,19.65,19.65,0,0,1,3.2-.26,10.58,10.58,0,0,1,7.56,2.66,9.27,9.27,0,0,1,2.81,7.07q0,5.88-5.44,10.59t-16.06,7.58a2.07,2.07,0,0,1-.58-1.28.74.74,0,0,1,.58-.76,39,39,0,0,0,7.45-3.88,21.29,21.29,0,0,0,4.55-4,11.73,11.73,0,0,0,2.85-7.52,7,7,0,0,0-1.76-4.93c-1.18-1.28-3-1.92-5.6-1.92a22.7,22.7,0,0,0-6,1l1.53-18h17.41l-.07,2.37Zm33.16,23v4.16H1903v10.88h-5.76V894.76h-17.67a6.09,6.09,0,0,1-.13-1,1.9,1.9,0,0,1,.51-1l20.93-27.65a1.06,1.06,0,0,1,.9-.45H1903v26Zm-11.07-16.51-12.55,16.51h12.55V874.09Zm-59,40.17a3.4,3.4,0,0,0,.88.65,2.45,2.45,0,0,0,1.11.24,1.52,1.52,0,0,0,1.38-.77,3.72,3.72,0,0,0,.47-2,4.34,4.34,0,0,0-.14-1.16,3,3,0,0,0-.4-1,2,2,0,0,0-.63-.66,1.5,1.5,0,0,0-.84-.24,1.19,1.19,0,0,0-.64.19,2.4,2.4,0,0,0-.59.47,2.37,2.37,0,0,0-.43.65,1.72,1.72,0,0,0-.17.72v2.84Zm-1.33-8.26a1.08,1.08,0,0,0-.16-.68,1.12,1.12,0,0,0-.73-.25c-.14,0-.21-.09-.21-.22a1,1,0,0,1,0-.23c.14,0,.33,0,.59,0l.61-.06a4.92,4.92,0,0,0,.66-.12,1.47,1.47,0,0,1,.41-.08.21.21,0,0,1,.23.24,5.12,5.12,0,0,1,0,.62,6.75,6.75,0,0,0,0,.86v4a4.17,4.17,0,0,1,1.17-1.12,2.68,2.68,0,0,1,1.41-.35,2.5,2.5,0,0,1,1,.23,2.38,2.38,0,0,1,.89.66,3.33,3.33,0,0,1,.62,1.08,4.39,4.39,0,0,1,.23,1.46,3.5,3.5,0,0,1-.34,1.58,4,4,0,0,1-.83,1.16,3.78,3.78,0,0,1-1.08.72,3,3,0,0,1-1.09.25,4.47,4.47,0,0,1-1.17-.15,5.44,5.44,0,0,1-1-.36.9.9,0,0,0-.33.09,1.58,1.58,0,0,0-.29.17l-.23.16a.32.32,0,0,1-.17.07.48.48,0,0,1-.24-.06c0-.17,0-.33,0-.46l0-.39c0-.13,0-.26,0-.39s0-.29,0-.46v-8Zm11.11,7.79c.16-.4.33-.82.52-1.25s.38-.84.54-1.23.3-.73.41-1a2.28,2.28,0,0,0,.16-.69.23.23,0,0,0-.13-.21,1.82,1.82,0,0,0-.28-.13l-.28-.11a.21.21,0,0,1-.13-.19.51.51,0,0,1,0-.09.81.81,0,0,1,0-.11c.42,0,.86,0,1.33,0h.64l.51,0a.18.18,0,0,1,0,.11.34.34,0,0,1,0,.09.23.23,0,0,1-.21.23l-.37.09a.82.82,0,0,0-.23.13.72.72,0,0,0-.16.21,3.55,3.55,0,0,0-.17.37l-3.28,7.74a2.71,2.71,0,0,1-1,1.22,2.32,2.32,0,0,1-1.37.45.23.23,0,0,1-.19-.08.28.28,0,0,1,0-.16,1.28,1.28,0,0,1,0-.38,2,2,0,0,1,.12-.37,1.17,1.17,0,0,1,.19-.27.29.29,0,0,1,.21-.1.9.9,0,0,1,.24,0,.79.79,0,0,0,.23,0,1,1,0,0,0,.64-.16,1.55,1.55,0,0,0,.37-.54l.81-1.9-2.46-5.49c-.08-.15-.14-.27-.2-.36a1.06,1.06,0,0,0-.17-.23.53.53,0,0,0-.22-.12,1.9,1.9,0,0,0-.34-.08.23.23,0,0,1-.21-.24.34.34,0,0,1,0-.09.18.18,0,0,1,0-.11l.65,0h1.93l.67,0a.28.28,0,0,1,0,.11v.09a.19.19,0,0,1-.2.21,1.63,1.63,0,0,0-.5.14.23.23,0,0,0-.13.2,3,3,0,0,0,.1.4,5.72,5.72,0,0,0,.32.8l1.41,3.1Zm11,0c.52-1.27.9-2.24,1.15-2.93a5.43,5.43,0,0,0,.37-1.28.35.35,0,0,0-.1-.26,1,1,0,0,0-.5-.17q-.21,0-.21-.21a.34.34,0,0,1,0-.09.28.28,0,0,1,0-.11c.41,0,.85,0,1.32,0h.65l.54,0a.58.58,0,0,1,0,.2c0,.07,0,.11-.05.14l-.15.1c-.19.12-.38.23-.56.32a.85.85,0,0,0-.4.47l-2.32,5.73a.88.88,0,0,1-.24,0,.26.26,0,0,1-.25-.15c-.05-.11-.13-.28-.23-.52L1856,910c-.07-.16-.13-.29-.18-.38a.63.63,0,0,0-.18-.21.46.46,0,0,0-.24-.12,2.1,2.1,0,0,0-.37-.08c-.13,0-.2-.09-.2-.24a.45.45,0,0,1,.05-.2l.75,0h1.72l.8,0a.35.35,0,0,1,0,.2.19.19,0,0,1-.2.21,1.54,1.54,0,0,0-.51.14.22.22,0,0,0-.12.2,1.73,1.73,0,0,0,.1.39,7.35,7.35,0,0,0,.3.81l1.31,3.1Zm3.44-1.63a3.6,3.6,0,0,1,1-2.53,3.68,3.68,0,0,1,1.13-.76,3.43,3.43,0,0,1,1.4-.28,3.77,3.77,0,0,1,1.44.27,3.31,3.31,0,0,1,1.13.72,3.41,3.41,0,0,1,.74,1.13,4,4,0,0,1,.26,1.45,3.43,3.43,0,0,1-.28,1.4,3.54,3.54,0,0,1-1.89,1.89,3.61,3.61,0,0,1-1.4.28,3.77,3.77,0,0,1-1.44-.27,3.47,3.47,0,0,1-1.13-.72,3.29,3.29,0,0,1-.73-1.12,3.83,3.83,0,0,1-.27-1.46Zm1.51-.53a6.46,6.46,0,0,0,.12,1.22,4.44,4.44,0,0,0,.4,1.13,2.51,2.51,0,0,0,.68.83,1.55,1.55,0,0,0,1,.33,1.71,1.71,0,0,0,1.41-.64,2.57,2.57,0,0,0,.5-1.65,6,6,0,0,0-.12-1.24,4.15,4.15,0,0,0-.38-1.19,2.51,2.51,0,0,0-.69-.88,1.56,1.56,0,0,0-1-.36,1.73,1.73,0,0,0-1.36.59,2.74,2.74,0,0,0-.52,1.86Zm11.08-1.07a.24.24,0,0,1-.18-.06.19.19,0,0,1-.07-.12,1.36,1.36,0,0,0-.52-.93,1.73,1.73,0,0,0-1-.28,1.38,1.38,0,0,0-.82.26.86.86,0,0,0-.36.73.89.89,0,0,0,.33.7,3.69,3.69,0,0,0,1.19.55,6.68,6.68,0,0,1,.86.32,2.63,2.63,0,0,1,.67.42,2,2,0,0,1,.44.61,2.2,2.2,0,0,1,.16.86,2.22,2.22,0,0,1-.15.8,1.94,1.94,0,0,1-.47.67,2.48,2.48,0,0,1-.78.46,3.19,3.19,0,0,1-1.13.18,6.33,6.33,0,0,1-1.15-.12,3.77,3.77,0,0,1-1.14-.41l-.06-.87c0-.31,0-.61,0-.92h.16a.68.68,0,0,1,.27.05.22.22,0,0,1,.13.19,1.59,1.59,0,0,0,.52,1.08,1.85,1.85,0,0,0,1.27.41,1.5,1.5,0,0,0,1-.3,1,1,0,0,0,.35-.81.94.94,0,0,0-.38-.81,4.13,4.13,0,0,0-1.14-.5,4,4,0,0,1-1.48-.75,1.73,1.73,0,0,1-.53-1.36,1.92,1.92,0,0,1,.16-.79,1.88,1.88,0,0,1,.44-.64,2.28,2.28,0,0,1,.71-.43,2.52,2.52,0,0,1,.93-.16,4.37,4.37,0,0,1,1.21.17,3.78,3.78,0,0,1,.88.36c0,.08,0,.19,0,.31s0,.25,0,.39,0,.26,0,.4v.36l-.37,0Zm7.65,3.49a.33.33,0,0,1,.24-.11c.11,0,.21.09.31.27a4.92,4.92,0,0,1-.48.56,3.35,3.35,0,0,1-.65.49,4,4,0,0,1-.86.34,4.55,4.55,0,0,1-1.1.13,3.56,3.56,0,0,1-1.22-.21,2.76,2.76,0,0,1-1-.64,3.23,3.23,0,0,1-.71-1.07,4.08,4.08,0,0,1-.26-1.51,3.57,3.57,0,0,1,.31-1.5,4,4,0,0,1,.81-1.18,3.87,3.87,0,0,1,1.1-.76,2.79,2.79,0,0,1,1.15-.27,2.57,2.57,0,0,1,2.17.87,3.47,3.47,0,0,1,.68,2.25c0,.07,0,.1-.09.1l-4.64.21a3.85,3.85,0,0,0,.17,1.15,3,3,0,0,0,.5.91,2.1,2.1,0,0,0,.78.6,2.4,2.4,0,0,0,1,.22,2.12,2.12,0,0,0,1-.24,2.57,2.57,0,0,0,.79-.61Zm-2.59-4.88a1.47,1.47,0,0,0-1.25.62,2.73,2.73,0,0,0-.44,1.63l3-.14q.24,0,.24-.21a2.17,2.17,0,0,0-.1-.64,1.91,1.91,0,0,0-.29-.61,1.54,1.54,0,0,0-.48-.47,1.33,1.33,0,0,0-.7-.18Zm7.44,0a1.43,1.43,0,0,0-1.22.66,2.91,2.91,0,0,0-.48,1.77,3.79,3.79,0,0,0,.7,2.42,2.26,2.26,0,0,0,1.85.86,1.92,1.92,0,0,0,.85-.16,5.45,5.45,0,0,0,.6-.32l.12-.07a.19.19,0,0,1,.12,0,.26.26,0,0,1,.18.11.7.7,0,0,1,.13.18,3,3,0,0,1-.4.38,2.88,2.88,0,0,1-.58.36,3.47,3.47,0,0,1-.79.27,4.58,4.58,0,0,1-1,.11,3.41,3.41,0,0,1-1.24-.22,2.86,2.86,0,0,1-1-.65,3,3,0,0,1-.69-1.08,4.08,4.08,0,0,1-.26-1.51,3.49,3.49,0,0,1,.32-1.49,3.72,3.72,0,0,1,.79-1.16,3.83,3.83,0,0,1,1.09-.76,2.88,2.88,0,0,1,1.18-.27,4,4,0,0,1,1.07.13,2.93,2.93,0,0,1,.82.34,1.72,1.72,0,0,1,.52.48,1.07,1.07,0,0,1,.18.59c0,.06-.05.11-.16.16l-.36.1-.38.06h-.22a.36.36,0,0,1-.33-.2c-.08-.13-.17-.27-.26-.43a2,2,0,0,0-.39-.43,1.12,1.12,0,0,0-.7-.2Zm6.19,1a2.67,2.67,0,0,0,.28-.29,4.5,4.5,0,0,1,.58-.55,5,5,0,0,1,.82-.52,2.33,2.33,0,0,1,1-.23,2.53,2.53,0,0,1,.73.11,1.63,1.63,0,0,1,.62.37,1.83,1.83,0,0,1,.42.66,2.56,2.56,0,0,1,.16,1v3.9a.39.39,0,0,0,.29.36,3.46,3.46,0,0,0,.66.19.17.17,0,0,1,.13.19,1.86,1.86,0,0,1,0,.26l-.81-.06c-.26,0-.55,0-.87,0s-.55,0-.84,0l-.84.06a1.58,1.58,0,0,1,0-.26.17.17,0,0,1,.15-.19,1.11,1.11,0,0,0,.29-.07l.28-.11a.71.71,0,0,0,.22-.15.29.29,0,0,0,.08-.22v-3.13a5.7,5.7,0,0,0,0-.74,1.88,1.88,0,0,0-.19-.58,1,1,0,0,0-.36-.39,1.23,1.23,0,0,0-.61-.13,2.36,2.36,0,0,0-.78.13,2.22,2.22,0,0,0-.68.4,2,2,0,0,0-.65,1.53v2.91a.38.38,0,0,0,.28.36,3.25,3.25,0,0,0,.6.19.17.17,0,0,1,.15.19,1,1,0,0,1,0,.26l-.81-.06c-.27,0-.55,0-.85,0s-.6,0-.88,0-.55,0-.81.06a1,1,0,0,1,0-.26.17.17,0,0,1,.13-.19,3.46,3.46,0,0,0,.66-.19.4.4,0,0,0,.29-.37V906a.93.93,0,0,0-.2-.69,1.37,1.37,0,0,0-.76-.24c-.14,0-.21-.09-.21-.22a1,1,0,0,1,0-.23c.14,0,.33,0,.57,0l.68-.06a5.06,5.06,0,0,0,.65-.12,1.53,1.53,0,0,1,.42-.08c.1,0,.16,0,.19.06a.3.3,0,0,1,.05.18,5.27,5.27,0,0,1-.05.63,6.78,6.78,0,0,0,0,.84v4.13Zm7.41.08a1.22,1.22,0,0,0-.15-.72,1,1,0,0,0-.7-.23q-.21,0-.21-.21a1,1,0,0,1,0-.22l.55,0a3.87,3.87,0,0,0,.58-.08,4.27,4.27,0,0,0,.62-.12,2.16,2.16,0,0,1,.39-.07c.15,0,.22.08.22.24v4a5.62,5.62,0,0,0,0,.74,1.88,1.88,0,0,0,.18.58.93.93,0,0,0,.37.39,1.23,1.23,0,0,0,.61.13,2.36,2.36,0,0,0,.78-.13,2.44,2.44,0,0,0,.68-.4,2,2,0,0,0,.47-.65,2.13,2.13,0,0,0,.18-.9v-2.33a1.2,1.2,0,0,0-.15-.71,1,1,0,0,0-.72-.24q-.21,0-.21-.21a1,1,0,0,1,0-.22l.55,0a4.38,4.38,0,0,0,.6-.08,4.12,4.12,0,0,0,.61-.12,2.09,2.09,0,0,1,.38-.07.21.21,0,0,1,.23.24V914a2.59,2.59,0,0,0,0,.44.49.49,0,0,0,.13.27.53.53,0,0,0,.26.16,2.05,2.05,0,0,0,.44.08c.14,0,.21.09.21.2a1,1,0,0,1,0,.23,3.52,3.52,0,0,0-.64.05l-.64.09-.54.1-.33.05c-.15,0-.22-.08-.22-.24v-1.33s-.13.13-.27.3a5.47,5.47,0,0,1-.59.55,5.12,5.12,0,0,1-.83.52,2.35,2.35,0,0,1-1,.23,1.83,1.83,0,0,1-1.46-.56,2.33,2.33,0,0,1-.49-1.59v-3.32Zm-240.37,137.65v6.41a.39.39,0,0,0,.23.39,2.34,2.34,0,0,0,.77.18c.08,0,.13.06.13.19a1.91,1.91,0,0,1,0,.2l-.81,0-.86,0-.86,0-.82,0a.88.88,0,0,1,0-.2c0-.11,0-.18.12-.19a3.22,3.22,0,0,0,.78-.18.4.4,0,0,0,.24-.39v-6.41h-1.23a2.1,2.1,0,0,0-.61.08,1.11,1.11,0,0,0-.42.21,1.28,1.28,0,0,0-.32.37c-.09.16-.18.33-.27.53a.24.24,0,0,1-.08.09l-.1,0a.35.35,0,0,1-.23-.07c.08-.29.14-.55.18-.77s.08-.41.11-.56a1.41,1.41,0,0,1,.1-.34.18.18,0,0,1,.17-.12h.24l.33,0,.36,0h4.66l.37,0,.32,0h.25a.19.19,0,0,1,.18.13c0,.08.06.2.1.35s.06.34.1.56a6.7,6.7,0,0,0,.18.75l-.11,0-.13,0-.1,0a.2.2,0,0,1-.09-.09,4.37,4.37,0,0,0-.26-.53,1.42,1.42,0,0,0-.31-.37,1,1,0,0,0-.42-.21,2,2,0,0,0-.6-.08Zm5.56,3.29a2.27,2.27,0,0,0,.2-.21,3,3,0,0,1,.44-.41,2.73,2.73,0,0,1,.62-.39,1.61,1.61,0,0,1,.76-.18,1.73,1.73,0,0,1,.56.09,1.19,1.19,0,0,1,.46.27,1.48,1.48,0,0,1,.32.5,2,2,0,0,1,.12.74v2.93a.29.29,0,0,0,.21.27,3.15,3.15,0,0,0,.49.14c.07,0,.1.06.1.14a1.76,1.76,0,0,1,0,.19l-.61,0-.65,0-.63,0-.63,0a.81.81,0,0,1,0-.19.13.13,0,0,1,.11-.14l.22,0a1,1,0,0,0,.21-.09.5.5,0,0,0,.16-.11.2.2,0,0,0,.07-.16v-2.35a3.28,3.28,0,0,0,0-.56,1.36,1.36,0,0,0-.13-.43.71.71,0,0,0-.28-.29.88.88,0,0,0-.45-.1,1.7,1.7,0,0,0-.59.1,1.63,1.63,0,0,0-.51.3,1.57,1.57,0,0,0-.35.48,1.59,1.59,0,0,0-.13.66v2.19a.29.29,0,0,0,.2.27,2.77,2.77,0,0,0,.46.14c.07,0,.1.06.1.14a.72.72,0,0,1,0,.19l-.61,0-.64,0-.66,0-.61,0a.72.72,0,0,1,0-.19c0-.08,0-.13.09-.14a3,3,0,0,0,.5-.14.3.3,0,0,0,.21-.28v-6.46a.74.74,0,0,0-.14-.52,1.26,1.26,0,0,0-.58-.18.16.16,0,0,1-.16-.16.55.55,0,0,1,0-.17l.43,0,.51,0,.49-.1a1.33,1.33,0,0,1,.31-.06.17.17,0,0,1,.14,0,.18.18,0,0,1,0,.13,2.9,2.9,0,0,1,0,.48,5.78,5.78,0,0,0,0,.63v3.09Zm10,3.7c.09,0,.13.08.14.25a1.39,1.39,0,0,1-.79.22,1.26,1.26,0,0,1-.46-.08,1,1,0,0,1-.32-.21,1,1,0,0,1-.21-.3,2,2,0,0,1-.09-.35,1.7,1.7,0,0,1-.71.74,2.26,2.26,0,0,1-1,.2,3.14,3.14,0,0,1-.51,0,1.34,1.34,0,0,1-.51-.17,1.18,1.18,0,0,1-.4-.37,1.19,1.19,0,0,1-.15-.64,1.32,1.32,0,0,1,.21-.75,1.73,1.73,0,0,1,.54-.5,3.35,3.35,0,0,1,.72-.32c.26-.08.51-.15.75-.2l.38-.08.3-.09a.32.32,0,0,0,.21-.13.85.85,0,0,0,0-.33,1.88,1.88,0,0,0-.21-.93.82.82,0,0,0-.77-.36,1.25,1.25,0,0,0-.35,0,1,1,0,0,0-.24.15,1.14,1.14,0,0,0-.17.27l-.14.4a.28.28,0,0,1-.16.19,3.22,3.22,0,0,1-.43.15l-.18,0-.18,0c-.08,0-.12-.09-.12-.25a.83.83,0,0,1,.21-.53,2,2,0,0,1,.52-.47,2.74,2.74,0,0,1,.69-.33,2.32,2.32,0,0,1,.71-.13,3.38,3.38,0,0,1,.75.08,1.24,1.24,0,0,1,.58.26,1.26,1.26,0,0,1,.37.52,2.41,2.41,0,0,1,.12.84v2.06a4.4,4.4,0,0,0,0,.61.9.9,0,0,0,.09.29.47.47,0,0,0,.19.22.39.39,0,0,0,.21.06.36.36,0,0,0,.18,0l.12,0Zm-1.82-2.34-.38.06-.61.14a2.25,2.25,0,0,0-.52.24,1.16,1.16,0,0,0-.36.37,1,1,0,0,0-.14.57,1,1,0,0,0,.23.69.78.78,0,0,0,.58.24,1,1,0,0,0,.45-.1,1.11,1.11,0,0,0,.39-.29,1.34,1.34,0,0,0,.26-.43,1.47,1.47,0,0,0,.1-.56v-.93Zm7.76,2a.29.29,0,0,0,.21.27,3.36,3.36,0,0,0,.48.14c.08,0,.11.06.11.14a1.76,1.76,0,0,1,0,.19l-.62,0-.64,0-.64,0-.64,0a1.76,1.76,0,0,1,0-.19.13.13,0,0,1,.11-.14,2.77,2.77,0,0,0,.46-.14.29.29,0,0,0,.2-.27v-2.35a3.28,3.28,0,0,0,0-.56,1.15,1.15,0,0,0-.14-.43.63.63,0,0,0-.27-.29.88.88,0,0,0-.45-.1,1.7,1.7,0,0,0-.59.1,1.63,1.63,0,0,0-.51.3,1.42,1.42,0,0,0-.35.48,1.59,1.59,0,0,0-.14.66v2.19a.3.3,0,0,0,.21.27,3.36,3.36,0,0,0,.45.14c.08,0,.11.06.11.14a.72.72,0,0,1,0,.19l-.61,0-.64,0-.66,0-.61,0a.81.81,0,0,1,0-.19.13.13,0,0,1,.11-.14,2.74,2.74,0,0,0,.48-.14.3.3,0,0,0,.22-.28v-3.27a.59.59,0,0,0-.67-.71c-.11,0-.16-.07-.16-.16a1.15,1.15,0,0,1,0-.16l.44,0,.47,0,.49-.1a1.33,1.33,0,0,1,.31-.06c.11,0,.17.06.17.18a3.51,3.51,0,0,1,0,.41,4.64,4.64,0,0,0,0,.61,5.4,5.4,0,0,1,1-.88,1.87,1.87,0,0,1,1-.32,1.38,1.38,0,0,1,1.1.43,1.72,1.72,0,0,1,.37,1.18v2.92Zm3.33,0a.29.29,0,0,0,.2.27,2.07,2.07,0,0,0,.46.15.13.13,0,0,1,.11.14,1.76,1.76,0,0,1,0,.19l-.61,0-.63,0-.67,0-.61,0a.81.81,0,0,1,0-.19c0-.08,0-.13.1-.14a3.36,3.36,0,0,0,.48-.14.31.31,0,0,0,.23-.28v-6.46a.69.69,0,0,0-.15-.52,1,1,0,0,0-.57-.18c-.11,0-.16-.07-.16-.16a1.11,1.11,0,0,1,0-.17l.44,0,.5,0a4.19,4.19,0,0,0,.49-.1,1.43,1.43,0,0,1,.31-.06c.08,0,.13,0,.15,0a.25.25,0,0,1,0,.13,4.64,4.64,0,0,1,0,.48,5.57,5.57,0,0,0,0,.63v4.29l1.8-1.59a.2.2,0,0,0,.11-.18.1.1,0,0,0-.09-.11l-.2,0-.2-.06a.16.16,0,0,1-.09-.15.56.56,0,0,1,0-.15l.4,0,.68,0,.65,0,.37,0a.1.1,0,0,0,0,.06.2.2,0,0,1,0,.09.24.24,0,0,1,0,.13.14.14,0,0,1-.12.06,1.27,1.27,0,0,0-.45.09.83.83,0,0,0-.25.12l-1.68,1.52,1.94,2.25a1.22,1.22,0,0,0,.47.37,2.73,2.73,0,0,0,.44.1c.08,0,.11,0,.11.14a.49.49,0,0,1,0,.11.37.37,0,0,1,0,.12c-.55,0-1.1,0-1.68,0l-2.18-2.64h0v1.92Zm7.5-3a.2.2,0,0,1-.14,0,.41.41,0,0,1,0-.09,1,1,0,0,0-.39-.7,1.31,1.31,0,0,0-.76-.21,1,1,0,0,0-.62.19.66.66,0,0,0-.27.55.64.64,0,0,0,.25.52,2.73,2.73,0,0,0,.89.42,4.75,4.75,0,0,1,.64.24,1.83,1.83,0,0,1,.51.31,1.39,1.39,0,0,1,.33.46,1.56,1.56,0,0,1,.12.64,1.53,1.53,0,0,1-.12.6,1.43,1.43,0,0,1-.34.51,1.79,1.79,0,0,1-.59.34,2.4,2.4,0,0,1-.85.14,4.66,4.66,0,0,1-.86-.09,3,3,0,0,1-.86-.31c0-.21,0-.43,0-.65s0-.46,0-.69h.13a.42.42,0,0,1,.2,0,.19.19,0,0,1,.1.14,1.24,1.24,0,0,0,.38.81,1.42,1.42,0,0,0,1,.3,1.1,1.1,0,0,0,.75-.22.75.75,0,0,0,.27-.61.7.7,0,0,0-.29-.6,2.84,2.84,0,0,0-.85-.38,3,3,0,0,1-1.11-.56,1.29,1.29,0,0,1-.4-1,1.45,1.45,0,0,1,.12-.59,1.37,1.37,0,0,1,.33-.48,1.59,1.59,0,0,1,.53-.33,1.94,1.94,0,0,1,.7-.12,3.26,3.26,0,0,1,.9.13,2.57,2.57,0,0,1,.67.27c0,.06,0,.14,0,.23a2.83,2.83,0,0,1,0,.29c0,.1,0,.2,0,.3a2.62,2.62,0,0,1,0,.27Zm6.73,3,.11-.07h.06c.07,0,.14,0,.19.16a2.7,2.7,0,0,1-.67.56,1.5,1.5,0,0,1-.77.22,1.68,1.68,0,0,1-.45-.06.69.69,0,0,1-.37-.21,1,1,0,0,1-.25-.42,2.32,2.32,0,0,1-.09-.71v-3.31H1697v-.13a.41.41,0,0,1,0-.16.13.13,0,0,1,.13-.07.79.79,0,0,0,.53-.17,1.33,1.33,0,0,0,.33-.43c.1-.19.18-.37.25-.54s.15-.25.24-.25h.22v1.25h1.4a1.2,1.2,0,0,1,0,.38.2.2,0,0,1-.2.12h-1.15v3a3.57,3.57,0,0,0,0,.62,1,1,0,0,0,.1.36.42.42,0,0,0,.17.16.73.73,0,0,0,.22,0,.78.78,0,0,0,.37-.09,1.85,1.85,0,0,0,.33-.21Zm.76-1.82a2.58,2.58,0,0,1,.21-1,2.69,2.69,0,0,1,.57-.86,2.65,2.65,0,0,1,.85-.57,2.59,2.59,0,0,1,1-.21,2.92,2.92,0,0,1,1.08.2,2.45,2.45,0,0,1,.84.55,2.32,2.32,0,0,1,.55.84,2.82,2.82,0,0,1,.2,1.09,2.59,2.59,0,0,1-.21,1,2.76,2.76,0,0,1-.57.85,2.71,2.71,0,0,1-.84.57,2.66,2.66,0,0,1-1.05.21,2.92,2.92,0,0,1-1.08-.2,2.6,2.6,0,0,1-.85-.55,2.45,2.45,0,0,1-.55-.84,2.94,2.94,0,0,1-.2-1.09Zm1.13-.4a4.94,4.94,0,0,0,.09.92,3.47,3.47,0,0,0,.3.84,2,2,0,0,0,.51.63,1.21,1.21,0,0,0,.76.24,1.29,1.29,0,0,0,1.06-.48,1.94,1.94,0,0,0,.37-1.23,4.31,4.31,0,0,0-.09-.93,3.09,3.09,0,0,0-.28-.89,2,2,0,0,0-.52-.67,1.2,1.2,0,0,0-.78-.26,1.28,1.28,0,0,0-1,.44,2,2,0,0,0-.39,1.39Zm10.4,2.22a.37.37,0,0,1,.1-.07h.07c.07,0,.14,0,.19.16a2.89,2.89,0,0,1-.67.56,1.52,1.52,0,0,1-.77.22,1.63,1.63,0,0,1-.45-.06.72.72,0,0,1-.38-.21,1.06,1.06,0,0,1-.24-.42,2.32,2.32,0,0,1-.09-.71v-3.31h-.72v-.13a.41.41,0,0,1,0-.16.13.13,0,0,1,.12-.07.75.75,0,0,0,.53-.17,1.23,1.23,0,0,0,.34-.43c.09-.19.18-.37.25-.54s.15-.25.24-.25h.22v1.25h1.4a1.2,1.2,0,0,1-.05.38.2.2,0,0,1-.2.12H1711v3a5.22,5.22,0,0,0,0,.62,1.28,1.28,0,0,0,.11.36.42.42,0,0,0,.17.16.69.69,0,0,0,.22,0,.78.78,0,0,0,.37-.09,1.85,1.85,0,0,0,.33-.21Zm5.09-.4a.26.26,0,0,1,.18-.09c.08,0,.16.07.23.21a3.36,3.36,0,0,1-.36.42,2.7,2.7,0,0,1-.49.36,2.45,2.45,0,0,1-.64.26,3.37,3.37,0,0,1-.83.1,2.76,2.76,0,0,1-.91-.16,2,2,0,0,1-.76-.48,2.38,2.38,0,0,1-.53-.8,3,3,0,0,1-.2-1.13,2.63,2.63,0,0,1,.24-1.13,2.92,2.92,0,0,1,.6-.88,2.64,2.64,0,0,1,.82-.57,2.12,2.12,0,0,1,.87-.21,2,2,0,0,1,1.63.65,2.66,2.66,0,0,1,.51,1.69c0,.05,0,.08-.07.08l-3.48.15a2.73,2.73,0,0,0,.13.87,2.12,2.12,0,0,0,.37.68,1.75,1.75,0,0,0,.59.45,1.71,1.71,0,0,0,.77.16,1.62,1.62,0,0,0,.74-.18,2.05,2.05,0,0,0,.59-.45Zm-1.94-3.66a1.09,1.09,0,0,0-.94.46,2.11,2.11,0,0,0-.34,1.23l2.27-.11c.12,0,.18,0,.18-.16a1.69,1.69,0,0,0-.07-.48,1.92,1.92,0,0,0-.21-.46,1.38,1.38,0,0,0-.37-.35,1,1,0,0,0-.52-.13Zm5.58,0a1.08,1.08,0,0,0-.92.49,2.21,2.21,0,0,0-.36,1.33,2.84,2.84,0,0,0,.53,1.82,1.68,1.68,0,0,0,1.38.64,1.57,1.57,0,0,0,.65-.12,3.49,3.49,0,0,0,.44-.24l.09-.05.09,0a.23.23,0,0,1,.14.08.63.63,0,0,1,.09.14,2.06,2.06,0,0,1-.3.28,2,2,0,0,1-.43.27,2.27,2.27,0,0,1-.59.21,3.67,3.67,0,0,1-.78.08,2.64,2.64,0,0,1-.93-.17,2.22,2.22,0,0,1-.77-.48,2.4,2.4,0,0,1-.52-.81,3.28,3.28,0,0,1-.19-1.14,2.77,2.77,0,0,1,.23-1.12,2.89,2.89,0,0,1,.61-.87,2.62,2.62,0,0,1,.81-.56,2.06,2.06,0,0,1,.88-.21,3.32,3.32,0,0,1,.81.1,2.28,2.28,0,0,1,.61.25,1.27,1.27,0,0,1,.39.37.79.79,0,0,1,.14.44s0,.08-.12.12l-.27.07-.29.05h-.16a.27.27,0,0,1-.25-.15l-.2-.33a1.43,1.43,0,0,0-.29-.32.81.81,0,0,0-.52-.15Zm4.64.73a2.27,2.27,0,0,0,.2-.21,3.58,3.58,0,0,1,.44-.41,3,3,0,0,1,.62-.39,1.65,1.65,0,0,1,.77-.18,1.67,1.67,0,0,1,.55.09,1.12,1.12,0,0,1,.46.27,1.35,1.35,0,0,1,.32.5,2,2,0,0,1,.12.74v2.93c0,.12.07.21.22.27a2.86,2.86,0,0,0,.49.14c.06,0,.09.06.09.14a.72.72,0,0,1,0,.19l-.6,0-.66,0-.63,0-.63,0a.72.72,0,0,1,0-.19c0-.08,0-.13.1-.14l.23,0,.21-.09a.64.64,0,0,0,.16-.11.23.23,0,0,0,.06-.16v-2.35a4.86,4.86,0,0,0,0-.56,1.15,1.15,0,0,0-.14-.43.71.71,0,0,0-.28-.29.83.83,0,0,0-.45-.1,1.69,1.69,0,0,0-.58.1,1.63,1.63,0,0,0-.51.3,1.44,1.44,0,0,0-.36.48,1.59,1.59,0,0,0-.13.66v2.19a.29.29,0,0,0,.2.27,2.77,2.77,0,0,0,.46.14.13.13,0,0,1,.11.14.81.81,0,0,1,0,.19l-.61,0-.63,0-.66,0-.62,0a1.76,1.76,0,0,1,0-.19c0-.08,0-.13.1-.14a2.86,2.86,0,0,0,.49-.14.3.3,0,0,0,.21-.28v-6.46a.69.69,0,0,0-.14-.52,1.26,1.26,0,0,0-.58-.18.15.15,0,0,1-.15-.16,1.11,1.11,0,0,1,0-.17l.43,0,.51,0a4.67,4.67,0,0,0,.49-.1,1.33,1.33,0,0,1,.31-.06.21.21,0,0,1,.15,0,.25.25,0,0,1,0,.13,4.4,4.4,0,0,1,0,.48,3.92,3.92,0,0,0,0,.63v3.09Zm10.28,3.34a.3.3,0,0,0,.22.27,3,3,0,0,0,.48.14.13.13,0,0,1,.11.14,1.76,1.76,0,0,1,0,.19l-.62,0-.64,0-.65,0-.63,0a1.76,1.76,0,0,1,0-.19.13.13,0,0,1,.11-.14,2.65,2.65,0,0,0,.45-.14.29.29,0,0,0,.21-.27v-2.35a4.75,4.75,0,0,0,0-.56,1.15,1.15,0,0,0-.14-.43.69.69,0,0,0-.27-.29.88.88,0,0,0-.45-.1,1.7,1.7,0,0,0-.59.1,1.63,1.63,0,0,0-.51.3,1.3,1.3,0,0,0-.35.48,1.59,1.59,0,0,0-.14.66v2.19a.29.29,0,0,0,.21.27,3,3,0,0,0,.45.14.13.13,0,0,1,.11.14,1.76,1.76,0,0,1,0,.19l-.61,0-.64,0-.66,0-.61,0a.81.81,0,0,1,0-.19.13.13,0,0,1,.11-.14,2.74,2.74,0,0,0,.48-.14.31.31,0,0,0,.22-.28v-3.27a.82.82,0,0,0-.13-.51.76.76,0,0,0-.54-.2c-.11,0-.16-.07-.16-.16a1.15,1.15,0,0,1,0-.16l.44,0,.46,0,.5-.1a1.24,1.24,0,0,1,.31-.06c.11,0,.17.06.17.18a3.51,3.51,0,0,1,0,.41,4.64,4.64,0,0,0,0,.61,5.4,5.4,0,0,1,1-.88,1.85,1.85,0,0,1,1-.32,1.38,1.38,0,0,1,1.1.43,1.77,1.77,0,0,1,.36,1.18v2.92Zm1.53-1.85a2.58,2.58,0,0,1,.21-1,2.69,2.69,0,0,1,.57-.86,2.65,2.65,0,0,1,.85-.57,2.58,2.58,0,0,1,1-.21,2.94,2.94,0,0,1,1.09.2,2.55,2.55,0,0,1,.84.55,2.32,2.32,0,0,1,.55.84,3,3,0,0,1,.2,1.09,2.59,2.59,0,0,1-.21,1,2.76,2.76,0,0,1-.57.85,2.65,2.65,0,0,1-.85.57,2.59,2.59,0,0,1-1,.21,2.83,2.83,0,0,1-1.07-.2,2.5,2.5,0,0,1-.85-.55,2.32,2.32,0,0,1-.55-.84,2.94,2.94,0,0,1-.2-1.09Zm1.13-.4a4.94,4.94,0,0,0,.09.92,3.09,3.09,0,0,0,.3.84,2,2,0,0,0,.51.63,1.2,1.2,0,0,0,.75.24,1.3,1.3,0,0,0,1.07-.48,1.94,1.94,0,0,0,.37-1.23,5,5,0,0,0-.09-.93,3.44,3.44,0,0,0-.28-.89,2.19,2.19,0,0,0-.52-.67,1.23,1.23,0,0,0-.79-.26,1.28,1.28,0,0,0-1,.44,2,2,0,0,0-.39,1.39Zm10.16-1.06.22-.23a2.86,2.86,0,0,1,.43-.41,4.25,4.25,0,0,1,.63-.4,1.67,1.67,0,0,1,.76-.18,1.17,1.17,0,0,1,1,.43,2,2,0,0,1,.3,1.18v2.92c0,.12.07.21.22.27a2.74,2.74,0,0,0,.48.14c.07,0,.1.06.1.14a.72.72,0,0,1,0,.19l-.61,0-.65,0-.64,0-.62,0a.72.72,0,0,1,0-.19c0-.08,0-.13.11-.14l.22,0,.21-.09a.64.64,0,0,0,.16-.11.23.23,0,0,0,.06-.16v-2.47a1.86,1.86,0,0,0-.18-1,.65.65,0,0,0-.58-.25,1.72,1.72,0,0,0-.6.1,1.54,1.54,0,0,0-.49.3,1.3,1.3,0,0,0-.35.48,1.59,1.59,0,0,0-.13.66v2.19a.28.28,0,0,0,.2.27,2.65,2.65,0,0,0,.45.14c.08,0,.11.06.11.14a.72.72,0,0,1,0,.19l-.61,0-.61,0-.65,0-.63,0a1.76,1.76,0,0,1,0-.19.13.13,0,0,1,.11-.14,2.71,2.71,0,0,0,.44-.13.3.3,0,0,0,.22-.28v-2.47a2,2,0,0,0-.18-1,.64.64,0,0,0-.58-.25,1.64,1.64,0,0,0-1.1.4,1.57,1.57,0,0,0-.35.48,1.59,1.59,0,0,0-.13.66v2.19a.29.29,0,0,0,.21.27,3,3,0,0,0,.45.14.13.13,0,0,1,.11.14.81.81,0,0,1,0,.19l-.61,0-.64,0-.66,0-.61,0a1.76,1.76,0,0,1,0-.19c0-.08,0-.13.1-.14a3.15,3.15,0,0,0,.49-.14.3.3,0,0,0,.21-.28v-3.27a.83.83,0,0,0-.12-.51.81.81,0,0,0-.55-.2.16.16,0,0,1-.16-.16.55.55,0,0,1,0-.16l.43,0,.47,0,.49-.1a1.33,1.33,0,0,1,.31-.06c.11,0,.17.06.17.18a2.17,2.17,0,0,1,0,.41,4.93,4.93,0,0,0,0,.61l.2-.22a3,3,0,0,1,.44-.41,2.73,2.73,0,0,1,.62-.39,1.62,1.62,0,0,1,.77-.18,1.22,1.22,0,0,1,.92.32,1.43,1.43,0,0,1,.37.9Zm9.89,3.67c.09,0,.13.08.14.25a1.37,1.37,0,0,1-.79.22,1.21,1.21,0,0,1-.45-.08.93.93,0,0,1-.33-.21,1,1,0,0,1-.2-.3,1.4,1.4,0,0,1-.1-.35,1.7,1.7,0,0,1-.71.74,2.26,2.26,0,0,1-1,.2,3.14,3.14,0,0,1-.51,0,1.34,1.34,0,0,1-.51-.17,1.06,1.06,0,0,1-.39-.37,1.1,1.1,0,0,1-.16-.64,1.32,1.32,0,0,1,.21-.75,1.73,1.73,0,0,1,.54-.5,3.35,3.35,0,0,1,.72-.32c.26-.08.51-.15.75-.2l.38-.08.31-.09a.35.35,0,0,0,.21-.13,1.11,1.11,0,0,0,0-.33,1.78,1.78,0,0,0-.22-.93.82.82,0,0,0-.77-.36,1.25,1.25,0,0,0-.35,0,.76.76,0,0,0-.23.15.73.73,0,0,0-.17.27c0,.12-.1.25-.15.4a.28.28,0,0,1-.16.19,2.76,2.76,0,0,1-.43.15l-.18,0-.18,0c-.07,0-.12-.09-.12-.25a.83.83,0,0,1,.21-.53,2,2,0,0,1,.52-.47,2.74,2.74,0,0,1,.69-.33,2.32,2.32,0,0,1,.71-.13,3.55,3.55,0,0,1,.76.08,1.24,1.24,0,0,1,.57.26,1.26,1.26,0,0,1,.37.52,2.41,2.41,0,0,1,.12.84v2.06a4.4,4.4,0,0,0,0,.61.9.9,0,0,0,.09.29.47.47,0,0,0,.19.22.42.42,0,0,0,.21.06.44.44,0,0,0,.19,0l.11,0Zm-1.81-2.34-.39.06-.6.14a2.14,2.14,0,0,0-.53.24,1.16,1.16,0,0,0-.36.37,1.12,1.12,0,0,0-.14.57.93.93,0,0,0,.24.69.77.77,0,0,0,.58.24,1,1,0,0,0,.45-.1,1.17,1.17,0,0,0,.38-.29,1.34,1.34,0,0,0,.26-.43,1.47,1.47,0,0,0,.11-.56v-.93Zm7.75,2c0,.12.07.21.22.27a2.74,2.74,0,0,0,.48.14c.07,0,.1.06.1.14a1.76,1.76,0,0,1,0,.19l-.61,0-.65,0-.64,0-.63,0a.81.81,0,0,1,0-.19.13.13,0,0,1,.11-.14,2.77,2.77,0,0,0,.46-.14.29.29,0,0,0,.2-.27v-2.35a4.86,4.86,0,0,0,0-.56,1.67,1.67,0,0,0-.14-.43.71.71,0,0,0-.28-.29.86.86,0,0,0-.45-.1,1.74,1.74,0,0,0-.59.1,1.63,1.63,0,0,0-.51.3,1.42,1.42,0,0,0-.35.48,1.59,1.59,0,0,0-.13.66v2.19a.29.29,0,0,0,.21.27,3,3,0,0,0,.45.14c.07,0,.1.06.1.14a.72.72,0,0,1,0,.19l-.61,0-.64,0-.66,0-.61,0a1.76,1.76,0,0,1,0-.19c0-.08,0-.13.1-.14a2.74,2.74,0,0,0,.48-.14.3.3,0,0,0,.22-.28v-3.27a.83.83,0,0,0-.12-.51.81.81,0,0,0-.55-.2.16.16,0,0,1-.16-.16.55.55,0,0,1,0-.16l.43,0,.47,0,.49-.1a1.33,1.33,0,0,1,.31-.06c.11,0,.17.06.17.18a2.17,2.17,0,0,1,0,.41,4.93,4.93,0,0,0,0,.61,4.82,4.82,0,0,1,1-.88,1.82,1.82,0,0,1,1-.32,1.38,1.38,0,0,1,1.1.43,1.72,1.72,0,0,1,.37,1.18v2.92Zm3.91-4.07a1.08,1.08,0,0,0-.92.49,2.28,2.28,0,0,0-.35,1.33,2.84,2.84,0,0,0,.52,1.82,1.69,1.69,0,0,0,1.39.64,1.52,1.52,0,0,0,.64-.12,4.6,4.6,0,0,0,.45-.24l.08-.05.1,0s.08,0,.13.08a.76.76,0,0,1,.1.14,2.31,2.31,0,0,1-.74.55,2.14,2.14,0,0,1-.59.21,3.64,3.64,0,0,1-.77.08,2.6,2.6,0,0,1-.93-.17,2.13,2.13,0,0,1-.77-.48,2.26,2.26,0,0,1-.52-.81,3.05,3.05,0,0,1-.2-1.14,2.62,2.62,0,0,1,.24-1.12,2.87,2.87,0,0,1,.6-.87,2.66,2.66,0,0,1,.82-.56,2,2,0,0,1,.88-.21,3.3,3.3,0,0,1,.8.1,2.28,2.28,0,0,1,.61.25,1.27,1.27,0,0,1,.39.37.72.72,0,0,1,.14.44s0,.08-.12.12l-.27.07-.29.05h-.16a.26.26,0,0,1-.24-.15l-.2-.33a1.49,1.49,0,0,0-.3-.32.81.81,0,0,0-.52-.15Zm5.44,3.44c.12-.3.25-.61.39-.94s.28-.63.4-.92a7.4,7.4,0,0,0,.31-.78,1.76,1.76,0,0,0,.12-.51.17.17,0,0,0-.09-.16l-.22-.1-.21-.08a.15.15,0,0,1-.09-.14.2.2,0,0,1,0-.07l0-.09c.31,0,.64,0,1,0h.48a2.25,2.25,0,0,0,.38,0,.25.25,0,0,1,0,.09v.07c0,.09-.05.14-.16.17a1.42,1.42,0,0,0-.28.07.46.46,0,0,0-.17.09,1.11,1.11,0,0,0-.12.16l-.12.28-2.46,5.8a2.07,2.07,0,0,1-.72.92,1.78,1.78,0,0,1-1,.33.18.18,0,0,1-.14,0,.2.2,0,0,1,0-.13,1.41,1.41,0,0,1,0-.28,2.31,2.31,0,0,1,.1-.28.6.6,0,0,1,.14-.2.23.23,0,0,1,.16-.08l.17,0,.18,0a.74.74,0,0,0,.48-.13,1.07,1.07,0,0,0,.27-.4l.61-1.43-1.84-4.11a2.67,2.67,0,0,0-.15-.27.59.59,0,0,0-.13-.17.37.37,0,0,0-.17-.1l-.25,0c-.1,0-.16-.09-.16-.18s0,0,0-.07a.24.24,0,0,1,0-.09,3.91,3.91,0,0,0,.49,0h1.44a4.36,4.36,0,0,0,.51,0l0,.09v.07a.14.14,0,0,1-.15.15,1.5,1.5,0,0,0-.38.11.16.16,0,0,0-.09.15,1.34,1.34,0,0,0,.07.3,5.29,5.29,0,0,0,.24.6l1.06,2.32Zm10.51,1c.09,0,.14.08.14.25a1.39,1.39,0,0,1-.79.22,1.17,1.17,0,0,1-.45-.08.93.93,0,0,1-.33-.21.83.83,0,0,1-.2-.3,1.4,1.4,0,0,1-.1-.35,1.7,1.7,0,0,1-.71.74,2.26,2.26,0,0,1-1,.2,3.14,3.14,0,0,1-.51,0,1.34,1.34,0,0,1-.51-.17,1.06,1.06,0,0,1-.39-.37,1.1,1.1,0,0,1-.16-.64,1.32,1.32,0,0,1,.21-.75,1.73,1.73,0,0,1,.54-.5,3.35,3.35,0,0,1,.72-.32c.26-.08.51-.15.75-.2l.38-.08.3-.09a.34.34,0,0,0,.22-.13,1.11,1.11,0,0,0,0-.33,1.78,1.78,0,0,0-.22-.93.82.82,0,0,0-.77-.36,1.13,1.13,0,0,0-.34,0,.7.7,0,0,0-.24.15.73.73,0,0,0-.17.27c0,.12-.1.25-.15.4a.28.28,0,0,1-.16.19,3.22,3.22,0,0,1-.43.15l-.18,0-.17,0c-.09,0-.13-.09-.13-.25a.83.83,0,0,1,.21-.53,2.15,2.15,0,0,1,.52-.47,2.74,2.74,0,0,1,.69-.33,2.38,2.38,0,0,1,.71-.13,3.55,3.55,0,0,1,.76.08,1.24,1.24,0,0,1,.57.26,1.26,1.26,0,0,1,.37.52,2.41,2.41,0,0,1,.12.84v2.06a4.4,4.4,0,0,0,0,.61.9.9,0,0,0,.09.29.47.47,0,0,0,.19.22.42.42,0,0,0,.21.06.44.44,0,0,0,.19,0l.11,0Zm-1.81-2.34-.39.06-.6.14a2.14,2.14,0,0,0-.53.24,1.16,1.16,0,0,0-.36.37,1.12,1.12,0,0,0-.14.57,1,1,0,0,0,.23.69.79.79,0,0,0,.59.24,1,1,0,0,0,.45-.1,1.17,1.17,0,0,0,.38-.29,1.57,1.57,0,0,0,.27-.43,1.69,1.69,0,0,0,.1-.56v-.93Zm7.75,2a.29.29,0,0,0,.21.27,3.15,3.15,0,0,0,.49.14c.07,0,.1.06.1.14a.72.72,0,0,1,0,.19l-.61,0-.65,0-.64,0-.63,0a.81.81,0,0,1,0-.19.13.13,0,0,1,.11-.14,2.77,2.77,0,0,0,.46-.14.29.29,0,0,0,.2-.27v-2.35a4.86,4.86,0,0,0,0-.56,1.36,1.36,0,0,0-.14-.43.71.71,0,0,0-.28-.29.83.83,0,0,0-.45-.1,1.74,1.74,0,0,0-.59.1,1.63,1.63,0,0,0-.51.3,1.42,1.42,0,0,0-.35.48,1.59,1.59,0,0,0-.13.66v2.19a.29.29,0,0,0,.21.27,3,3,0,0,0,.45.14c.07,0,.1.06.1.14a.72.72,0,0,1,0,.19l-.61,0-.64,0-.66,0-.61,0a.72.72,0,0,1,0-.19c0-.08,0-.13.11-.14a2.89,2.89,0,0,0,.47-.14.3.3,0,0,0,.22-.28v-3.27a.83.83,0,0,0-.12-.51.81.81,0,0,0-.55-.2c-.11,0-.16-.07-.16-.16a.55.55,0,0,1,0-.16l.44,0,.46,0,.49-.1a1.33,1.33,0,0,1,.31-.06c.11,0,.17.06.17.18a2.17,2.17,0,0,1,0,.41,4.93,4.93,0,0,0,0,.61,4.82,4.82,0,0,1,1-.88,1.82,1.82,0,0,1,1-.32,1.38,1.38,0,0,1,1.1.43,1.72,1.72,0,0,1,.37,1.18v2.92Zm6.51-.39a.9.9,0,0,0,0,.25.32.32,0,0,0,.1.17.44.44,0,0,0,.19.12,1.39,1.39,0,0,0,.33.06c.11,0,.16.07.16.16a.61.61,0,0,1,0,.17,3.34,3.34,0,0,0-.41,0l-.44,0a4,4,0,0,0-.46.1,1,1,0,0,1-.29,0c-.12,0-.17-.06-.17-.18v-.91c-.11.15-.22.3-.34.44a2,2,0,0,1-.39.37,1.64,1.64,0,0,1-.51.26,2.29,2.29,0,0,1-.69.1,1.89,1.89,0,0,1-.78-.17,1.87,1.87,0,0,1-.66-.5,2.66,2.66,0,0,1-.47-.81,3.33,3.33,0,0,1-.17-1.09,2.62,2.62,0,0,1,.25-1.18,3,3,0,0,1,.63-.88,2.61,2.61,0,0,1,.81-.54,2.16,2.16,0,0,1,.81-.19,3.35,3.35,0,0,1,.81.09,4.83,4.83,0,0,1,.7.24v-2.27a.76.76,0,0,0-.13-.51.81.81,0,0,0-.54-.19c-.11,0-.16-.07-.16-.16a1.11,1.11,0,0,1,0-.17l.44,0,.46,0,.5-.1a1.24,1.24,0,0,1,.31-.06c.11,0,.17.06.17.18a2.79,2.79,0,0,1,0,.47,5.64,5.64,0,0,0,0,.65v6Zm-1-3a2.36,2.36,0,0,0-.66-.49,1.8,1.8,0,0,0-.82-.18,1.17,1.17,0,0,0-1,.57,2.87,2.87,0,0,0-.35,1.48,3.57,3.57,0,0,0,.1.87,2.48,2.48,0,0,0,.3.72,1.54,1.54,0,0,0,.48.5,1.16,1.16,0,0,0,.63.18.9.9,0,0,0,.48-.15,1.88,1.88,0,0,0,.44-.36,1.91,1.91,0,0,0,.32-.51,1.27,1.27,0,0,0,.13-.56v-2.07Zm6.78,3.13a2.62,2.62,0,0,0,.66.5,1.79,1.79,0,0,0,.81.18,1.24,1.24,0,0,0,.62-.15,1.5,1.5,0,0,0,.44-.43,2.15,2.15,0,0,0,.26-.65,3.49,3.49,0,0,0,.09-.82,3.57,3.57,0,0,0-.1-.87,2.48,2.48,0,0,0-.3-.72,1.64,1.64,0,0,0-.48-.5,1.16,1.16,0,0,0-.63-.18,1,1,0,0,0-.48.14,1.66,1.66,0,0,0-.44.36,1.75,1.75,0,0,0-.32.48,1.2,1.2,0,0,0-.13.55v2.11Zm-1-3a.85.85,0,0,0-.11-.48.83.83,0,0,0-.52-.18c-.11,0-.16-.06-.16-.15a1.11,1.11,0,0,1,0-.17l.43,0,.45,0,.47-.09a1.24,1.24,0,0,1,.31-.06c.1,0,.16.06.16.18s0,.21,0,.35a4.47,4.47,0,0,0,0,.58,3.78,3.78,0,0,1,.81-.79,1.89,1.89,0,0,1,1.11-.32,1.92,1.92,0,0,1,.78.17,1.82,1.82,0,0,1,.67.5,2.45,2.45,0,0,1,.46.81,3.08,3.08,0,0,1,.18,1.09,2.64,2.64,0,0,1-.26,1.19,2.92,2.92,0,0,1-.62.87,2.61,2.61,0,0,1-.81.54,2.16,2.16,0,0,1-.81.19,3.74,3.74,0,0,1-.75-.08,3.07,3.07,0,0,1-.76-.25v2.17a.42.42,0,0,0,.28.43,3.23,3.23,0,0,0,.89.17.15.15,0,0,1,.14.16.81.81,0,0,1,0,.19l-.75,0-.9,0-.66,0-.66,0a.81.81,0,0,1,0-.19.13.13,0,0,1,.11-.14,1.64,1.64,0,0,0,.43-.15.28.28,0,0,0,.17-.27v-6.2Zm9.29-1.18a.69.69,0,0,1,.51.16.51.51,0,0,1,.17.38.59.59,0,0,1,0,.13.4.4,0,0,1-.11.12,1.74,1.74,0,0,1-.26.16l-.45.22a1.37,1.37,0,0,0-.25-.23.66.66,0,0,0-.33-.09.73.73,0,0,0-.38.11,1.05,1.05,0,0,0-.28.31,1.44,1.44,0,0,0-.19.46,2.33,2.33,0,0,0-.07.53v2.07a.43.43,0,0,0,.28.39,3.19,3.19,0,0,0,.79.2.13.13,0,0,1,.12.14,1.76,1.76,0,0,1,0,.19l-.33,0h-.42l-.44,0h-.42l-.67,0-.66,0a.81.81,0,0,1,0-.19.13.13,0,0,1,.11-.14,2,2,0,0,0,.49-.15.29.29,0,0,0,.21-.27v-3a2.42,2.42,0,0,0,0-.42.67.67,0,0,0-.11-.27.35.35,0,0,0-.2-.15,1.53,1.53,0,0,0-.36-.07c-.1,0-.15-.07-.15-.16a.56.56,0,0,1,0-.17,4,4,0,0,0,.44,0l.46,0a3.61,3.61,0,0,0,.46-.1,1,1,0,0,1,.29,0c.12,0,.17.06.17.18v.8a5.47,5.47,0,0,1,.78-.7,1.44,1.44,0,0,1,.88-.28Zm.83,2.66a2.58,2.58,0,0,1,.21-1,2.65,2.65,0,0,1,1.41-1.43,2.66,2.66,0,0,1,1.05-.21,2.92,2.92,0,0,1,1.08.2,2.6,2.6,0,0,1,.85.55,2.45,2.45,0,0,1,.55.84,3,3,0,0,1,.2,1.09,2.59,2.59,0,0,1-.21,1,2.76,2.76,0,0,1-.57.85,2.65,2.65,0,0,1-.85.57,2.59,2.59,0,0,1-1,.21,2.92,2.92,0,0,1-1.08-.2,2.55,2.55,0,0,1-.84-.55,2.47,2.47,0,0,1-.56-.84,2.94,2.94,0,0,1-.19-1.09Zm1.12-.4a5,5,0,0,0,.1.92,3.09,3.09,0,0,0,.3.84,2.08,2.08,0,0,0,.5.63,1.21,1.21,0,0,0,.76.24,1.26,1.26,0,0,0,1.06-.48,1.94,1.94,0,0,0,.38-1.23,5,5,0,0,0-.09-.93,3.1,3.1,0,0,0-.29-.89,2,2,0,0,0-.51-.67,1.23,1.23,0,0,0-.79-.26,1.28,1.28,0,0,0-1,.44,2,2,0,0,0-.4,1.39Zm5.81-1.63h-.72v-.21a.16.16,0,0,1,.12-.17l.24,0a.75.75,0,0,0,.25-.09c.08,0,.11-.14.11-.28v-.55a3.14,3.14,0,0,1,.19-1.13,2.33,2.33,0,0,1,.47-.77,1.74,1.74,0,0,1,.65-.45,1.72,1.72,0,0,1,.69-.15,3.08,3.08,0,0,1,.71.08,1.9,1.9,0,0,1,.54.21,1.38,1.38,0,0,1,.36.29.58.58,0,0,1,.13.33s0,.1-.11.14a1,1,0,0,1-.23.12l-.24.07-.17,0a.29.29,0,0,1-.25-.14,2,2,0,0,0-.32-.47.7.7,0,0,0-.56-.2.69.69,0,0,0-.64.35,2,2,0,0,0-.21,1v1.53h1.42a1.66,1.66,0,0,1,0,.37c0,.09-.09.13-.2.13h-1.18v3.67a.42.42,0,0,0,.28.43,3.24,3.24,0,0,0,.9.17.15.15,0,0,1,.13.16.54.54,0,0,1,0,.11.37.37,0,0,0,0,.08h-.21l-.42,0-.52,0h-.92l-.41,0-.33,0H1818a.37.37,0,0,0,0-.08.54.54,0,0,1,0-.11c0-.08,0-.13.1-.14a1.9,1.9,0,0,0,.44-.14.3.3,0,0,0,.16-.28v-3.87Zm7.31,3.45a.26.26,0,0,1,.18-.09c.08,0,.16.07.23.21a4.48,4.48,0,0,1-.36.42,2.7,2.7,0,0,1-.49.36,2.32,2.32,0,0,1-.64.26,3.43,3.43,0,0,1-.83.1,2.76,2.76,0,0,1-.91-.16,2,2,0,0,1-.76-.48,2.38,2.38,0,0,1-.53-.8,3,3,0,0,1-.2-1.13,2.63,2.63,0,0,1,.24-1.13,2.92,2.92,0,0,1,.6-.88,2.76,2.76,0,0,1,.82-.57,2.06,2.06,0,0,1,.88-.21,1.94,1.94,0,0,1,1.62.65,2.66,2.66,0,0,1,.51,1.69c0,.05,0,.08-.07.08l-3.48.15a2.73,2.73,0,0,0,.13.87,2.12,2.12,0,0,0,.37.68,1.82,1.82,0,0,0,.58.45,1.78,1.78,0,0,0,.78.16,1.62,1.62,0,0,0,.74-.18,2.05,2.05,0,0,0,.59-.45Zm-1.94-3.66a1.09,1.09,0,0,0-.94.46,2.11,2.11,0,0,0-.34,1.23l2.27-.11c.12,0,.18,0,.18-.16a1.69,1.69,0,0,0-.07-.48,1.62,1.62,0,0,0-.22-.46,1.2,1.2,0,0,0-.36-.35,1,1,0,0,0-.52-.13Zm6,4.06a.26.26,0,0,1,.1-.07h.07c.07,0,.13,0,.19.16a2.89,2.89,0,0,1-.67.56,1.52,1.52,0,0,1-.77.22,1.76,1.76,0,0,1-.46-.06.69.69,0,0,1-.37-.21,1.07,1.07,0,0,1-.25-.42,2.32,2.32,0,0,1-.09-.71v-3.31h-.72v-.13a.41.41,0,0,1,0-.16.13.13,0,0,1,.13-.07.79.79,0,0,0,.53-.17,1.2,1.2,0,0,0,.33-.43c.1-.19.18-.37.25-.54s.16-.25.24-.25h.22v1.25h1.41a.94.94,0,0,1-.06.38.2.2,0,0,1-.2.12h-1.15v3a3.57,3.57,0,0,0,0,.62,1.31,1.31,0,0,0,.1.36.42.42,0,0,0,.17.16.78.78,0,0,0,.22,0,.82.82,0,0,0,.38-.09l.33-.21Zm4.13-3.85h-.73v-.21a.16.16,0,0,1,.12-.17l.24,0a.68.68,0,0,0,.25-.09c.08,0,.12-.14.12-.28v-.55a3.15,3.15,0,0,1,.18-1.13,2.33,2.33,0,0,1,.47-.77,1.74,1.74,0,0,1,.65-.45,1.72,1.72,0,0,1,.69-.15,3.08,3.08,0,0,1,.71.08,2,2,0,0,1,.55.21,1.32,1.32,0,0,1,.35.29.58.58,0,0,1,.13.33s0,.1-.11.14a1.14,1.14,0,0,1-.22.12l-.25.07-.17,0a.29.29,0,0,1-.25-.14,2,2,0,0,0-.32-.47.81.81,0,0,0-1.2.15,2,2,0,0,0-.21,1v1.53h1.42a1.22,1.22,0,0,1,0,.37c0,.09-.09.13-.2.13h-1.18v3.67a.44.44,0,0,0,.28.43,3.24,3.24,0,0,0,.9.17.15.15,0,0,1,.13.16.54.54,0,0,1,0,.11.37.37,0,0,0,0,.08h-.21l-.42,0-.51,0h-.93l-.4,0-.33,0h-.18a.37.37,0,0,0,0-.08.54.54,0,0,1,0-.11c0-.08,0-.13.1-.14a1.9,1.9,0,0,0,.44-.14.31.31,0,0,0,.17-.28v-3.87Zm3,2a2.58,2.58,0,0,1,.21-1,2.69,2.69,0,0,1,.57-.86,2.65,2.65,0,0,1,.85-.57,2.59,2.59,0,0,1,1-.21,2.92,2.92,0,0,1,1.08.2,2.55,2.55,0,0,1,.84.55,2.32,2.32,0,0,1,.55.84,2.82,2.82,0,0,1,.2,1.09,2.59,2.59,0,0,1-.21,1,2.76,2.76,0,0,1-.57.85,2.71,2.71,0,0,1-.84.57,2.66,2.66,0,0,1-1,.21,2.85,2.85,0,0,1-1.08-.2,2.6,2.6,0,0,1-.85-.55,2.45,2.45,0,0,1-.55-.84,2.94,2.94,0,0,1-.2-1.09Zm1.13-.4a4.94,4.94,0,0,0,.09.92,3.47,3.47,0,0,0,.3.84,2,2,0,0,0,.51.63,1.2,1.2,0,0,0,.75.24,1.28,1.28,0,0,0,1.07-.48,1.94,1.94,0,0,0,.37-1.23,6,6,0,0,0-.08-.93,3.44,3.44,0,0,0-.29-.89,2.19,2.19,0,0,0-.52-.67,1.21,1.21,0,0,0-.79-.26,1.28,1.28,0,0,0-1,.44,2,2,0,0,0-.39,1.39Zm8.5-2.26a.69.69,0,0,1,.51.16.55.55,0,0,1,.17.38.31.31,0,0,1,0,.13.24.24,0,0,1-.11.12,1.57,1.57,0,0,1-.25.16l-.45.22a1.16,1.16,0,0,0-.26-.23.63.63,0,0,0-.33-.09.67.67,0,0,0-.37.11,1.08,1.08,0,0,0-.29.31,2.11,2.11,0,0,0-.19.46,2.33,2.33,0,0,0-.06.53v2.07a.42.42,0,0,0,.27.39,3.29,3.29,0,0,0,.8.2.13.13,0,0,1,.12.14.81.81,0,0,1,0,.19l-.33,0h-.41l-.45,0h-.41l-.68,0-.66,0a1.76,1.76,0,0,1,0-.19c0-.08,0-.13.11-.14a2.08,2.08,0,0,0,.48-.15.29.29,0,0,0,.21-.27v-3a2.42,2.42,0,0,0,0-.42.66.66,0,0,0-.1-.27.41.41,0,0,0-.21-.15,1.44,1.44,0,0,0-.35-.07c-.11,0-.16-.07-.16-.16a.61.61,0,0,1,0-.17,3.73,3.73,0,0,0,.43,0l.46,0a3.8,3.8,0,0,0,.47-.1,1,1,0,0,1,.29,0c.11,0,.17.06.17.18v.8a5.42,5.42,0,0,1,.77-.7,1.47,1.47,0,0,1,.89-.28Zm6.45,4.48a.26.26,0,0,1,.1-.07h.07c.07,0,.14,0,.19.16a2.89,2.89,0,0,1-.67.56,1.52,1.52,0,0,1-.77.22,1.76,1.76,0,0,1-.46-.06.73.73,0,0,1-.37-.21,1.06,1.06,0,0,1-.24-.42,2.32,2.32,0,0,1-.09-.71v-3.31h-.72v-.13a.41.41,0,0,1,0-.16.13.13,0,0,1,.12-.07.77.77,0,0,0,.53-.17,1.23,1.23,0,0,0,.34-.43c.09-.19.18-.37.25-.54s.15-.25.24-.25h.22v1.25h1.4a.94.94,0,0,1-.06.38.19.19,0,0,1-.19.12H1852v3a5.22,5.22,0,0,0,0,.62,1,1,0,0,0,.11.36.37.37,0,0,0,.17.16.66.66,0,0,0,.21,0,.79.79,0,0,0,.38-.09,1.85,1.85,0,0,0,.33-.21Zm2.69-3.31a2.27,2.27,0,0,0,.2-.21,3.58,3.58,0,0,1,.44-.41,3,3,0,0,1,.62-.39,1.65,1.65,0,0,1,.77-.18,1.71,1.71,0,0,1,.55.09,1.19,1.19,0,0,1,.46.27,1.48,1.48,0,0,1,.32.5,2,2,0,0,1,.12.74v2.93a.29.29,0,0,0,.21.27,3,3,0,0,0,.5.14c.06,0,.09.06.09.14a1.76,1.76,0,0,1,0,.19l-.61,0-.65,0-.63,0-.63,0a.81.81,0,0,1,0-.19.13.13,0,0,1,.11-.14l.23,0,.21-.09a.91.91,0,0,0,.16-.11.23.23,0,0,0,.06-.16v-2.35a4.86,4.86,0,0,0,0-.56,1.36,1.36,0,0,0-.14-.43.71.71,0,0,0-.28-.29.83.83,0,0,0-.45-.1,1.65,1.65,0,0,0-.58.1,1.52,1.52,0,0,0-.87.78,1.59,1.59,0,0,0-.13.66v2.19a.29.29,0,0,0,.2.27,2.77,2.77,0,0,0,.46.14.13.13,0,0,1,.11.14.81.81,0,0,1,0,.19l-.61,0-.63,0-.66,0-.62,0a1.76,1.76,0,0,1,0-.19c0-.08,0-.13.1-.14a3.15,3.15,0,0,0,.49-.14.3.3,0,0,0,.21-.28v-6.46a.74.74,0,0,0-.14-.52,1.26,1.26,0,0,0-.58-.18.15.15,0,0,1-.15-.16.52.52,0,0,1,0-.17l.43,0,.51,0,.49-.1a1.33,1.33,0,0,1,.31-.06.17.17,0,0,1,.14,0,.18.18,0,0,1,0,.13,2.9,2.9,0,0,1,0,.48,5.78,5.78,0,0,0,0,.63v3.09Zm9.36,2.91a.23.23,0,0,1,.18-.09c.08,0,.15.07.23.21q-.17.21-.36.42a2.7,2.7,0,0,1-.49.36,2.45,2.45,0,0,1-.64.26,3.43,3.43,0,0,1-.83.1,2.76,2.76,0,0,1-.91-.16,2,2,0,0,1-.76-.48,2.38,2.38,0,0,1-.53-.8,3,3,0,0,1-.2-1.13,2.78,2.78,0,0,1,.23-1.13,2.94,2.94,0,0,1,.61-.88,2.64,2.64,0,0,1,.82-.57,2.05,2.05,0,0,1,.87-.21,2,2,0,0,1,1.63.65,2.66,2.66,0,0,1,.51,1.69.07.07,0,0,1-.07.08l-3.48.15a2.73,2.73,0,0,0,.13.87,2.12,2.12,0,0,0,.37.68,1.71,1.71,0,0,0,.58.45,1.78,1.78,0,0,0,.78.16,1.58,1.58,0,0,0,.73-.18,2,2,0,0,0,.6-.45Zm-2-3.66a1.07,1.07,0,0,0-.93.46,2,2,0,0,0-.34,1.23l2.27-.11c.12,0,.18,0,.18-.16a1.69,1.69,0,0,0-.07-.48,1.62,1.62,0,0,0-.22-.46,1.2,1.2,0,0,0-.36-.35,1,1,0,0,0-.53-.13Zm4.47,4.77h-.42l-.38,0-.32,0h-.16l0-.08s0-.09,0-.11a.13.13,0,0,1,.11-.14,2,2,0,0,0,.5-.15.28.28,0,0,0,.2-.27v-3.27a.82.82,0,0,0-.13-.51.81.81,0,0,0-.55-.2.15.15,0,0,1-.15-.16,1.15,1.15,0,0,1,0-.16l.44,0,.46,0,.49-.1a1.43,1.43,0,0,1,.31-.06c.12,0,.17.06.17.18a3.29,3.29,0,0,1,0,.41,3.37,3.37,0,0,0,0,.61v3.32a.28.28,0,0,0,.19.27,2.06,2.06,0,0,0,.52.15c.06,0,.09.06.09.14v.11s0,.07,0,.08h-.16l-.31,0-.39,0Zm-.7-7.21a.72.72,0,0,1,.2-.5.66.66,0,0,1,.5-.21.63.63,0,0,1,.48.21.71.71,0,0,1,.19.5.65.65,0,0,1-.19.5.66.66,0,0,1-.48.2.69.69,0,0,1-.5-.2.65.65,0,0,1-.2-.5Zm6.12,2a.72.72,0,0,1,.52.16.55.55,0,0,1,.17.38.31.31,0,0,1,0,.13.24.24,0,0,1-.11.12,2.22,2.22,0,0,1-.25.16l-.45.22a1.16,1.16,0,0,0-.26-.23.63.63,0,0,0-.33-.09.67.67,0,0,0-.37.11,1.08,1.08,0,0,0-.29.31,2.11,2.11,0,0,0-.19.46,2.33,2.33,0,0,0-.06.53v2.07a.42.42,0,0,0,.27.39,3.32,3.32,0,0,0,.79.2.13.13,0,0,1,.13.14.81.81,0,0,1,0,.19l-.33,0H1872l-.45,0h-.42l-.67,0-.66,0a1.76,1.76,0,0,1,0-.19c0-.08,0-.13.1-.14a2,2,0,0,0,.49-.15.29.29,0,0,0,.21-.27v-3a2.42,2.42,0,0,0,0-.42.66.66,0,0,0-.1-.27.41.41,0,0,0-.21-.15,1.43,1.43,0,0,0-.36-.07c-.1,0-.15-.07-.15-.16a1.28,1.28,0,0,1,0-.17,3.88,3.88,0,0,0,.44,0l.46,0a3.61,3.61,0,0,0,.46-.1,1.07,1.07,0,0,1,.3,0c.11,0,.17.06.17.18v.8a4.93,4.93,0,0,1,.77-.7,1.44,1.44,0,0,1,.88-.28Zm-191.32,16.22a2.62,2.62,0,0,0,.66.5,1.8,1.8,0,0,0,.82.18,1.23,1.23,0,0,0,.61-.15,1.5,1.5,0,0,0,.44-.43,2.15,2.15,0,0,0,.26-.65,3.49,3.49,0,0,0,.09-.82,3.57,3.57,0,0,0-.1-.87,2.48,2.48,0,0,0-.3-.72,1.54,1.54,0,0,0-.48-.5,1.16,1.16,0,0,0-.63-.18,1,1,0,0,0-.48.14,1.66,1.66,0,0,0-.44.36,1.75,1.75,0,0,0-.32.48,1.2,1.2,0,0,0-.13.55v2.11Zm-1-3a.85.85,0,0,0-.11-.48.83.83,0,0,0-.52-.18c-.11,0-.16-.06-.16-.15a1.11,1.11,0,0,1,0-.17l.43,0,.45,0,.48-.09a1.27,1.27,0,0,1,.3-.06c.1,0,.16.06.16.18s0,.21,0,.35,0,.32,0,.58a3.78,3.78,0,0,1,.81-.79,1.89,1.89,0,0,1,1.11-.32,2,2,0,0,1,.79.17,1.87,1.87,0,0,1,.66.5,2.47,2.47,0,0,1,.47.81,3.33,3.33,0,0,1,.17,1.09,2.78,2.78,0,0,1-.25,1.19,3.14,3.14,0,0,1-.63.87,2.4,2.4,0,0,1-.81.54,2.16,2.16,0,0,1-.81.19,3.82,3.82,0,0,1-.75-.08,3.21,3.21,0,0,1-.76-.25v2.17a.42.42,0,0,0,.28.43,3.24,3.24,0,0,0,.9.17.15.15,0,0,1,.13.16.81.81,0,0,1,0,.19l-.75,0-.9,0-.66,0-.66,0a.81.81,0,0,1,0-.19.13.13,0,0,1,.11-.14,1.88,1.88,0,0,0,.44-.15.28.28,0,0,0,.16-.27v-6.2Zm9.29-1.18a.74.74,0,0,1,.52.16.54.54,0,0,1,.16.38.3.3,0,0,1,0,.13.3.3,0,0,1-.11.12,2.22,2.22,0,0,1-.25.16l-.45.22a1.43,1.43,0,0,0-.26-.23.63.63,0,0,0-.33-.09.73.73,0,0,0-.38.11,1.05,1.05,0,0,0-.28.31,1.71,1.71,0,0,0-.19.46,2.33,2.33,0,0,0-.06.53v2.07a.42.42,0,0,0,.27.39,3.32,3.32,0,0,0,.79.2.13.13,0,0,1,.12.14,1.76,1.76,0,0,1,0,.19l-.33,0h-.42l-.44,0h-.42l-.67,0-.66,0a.72.72,0,0,1,0-.19c0-.08,0-.13.1-.14a2,2,0,0,0,.49-.15.29.29,0,0,0,.21-.27v-3a2.42,2.42,0,0,0,0-.42.85.85,0,0,0-.1-.27.41.41,0,0,0-.21-.15,1.53,1.53,0,0,0-.36-.07c-.1,0-.15-.07-.15-.16a.56.56,0,0,1,0-.17,4,4,0,0,0,.44,0l.46,0a3.61,3.61,0,0,0,.46-.1,1,1,0,0,1,.3,0c.11,0,.17.06.17.18v.8a4.93,4.93,0,0,1,.77-.7,1.44,1.44,0,0,1,.88-.28Zm2.4,5.19h-.41l-.39,0-.31,0h-.17a.38.38,0,0,1,0-.08.89.89,0,0,1,0-.11.13.13,0,0,1,.11-.14,2,2,0,0,0,.5-.15.28.28,0,0,0,.2-.27v-3.27a.76.76,0,0,0-.13-.51.78.78,0,0,0-.54-.2c-.11,0-.16-.07-.16-.16a1.15,1.15,0,0,1,0-.16l.44,0,.46,0,.5-.1a1.24,1.24,0,0,1,.31-.06c.11,0,.16.06.16.18a3.29,3.29,0,0,1,0,.41,3.37,3.37,0,0,0,0,.61v3.32a.28.28,0,0,0,.19.27,2.06,2.06,0,0,0,.52.15.13.13,0,0,1,.1.14.54.54,0,0,1,0,.11s0,.07,0,.08h-.16l-.31,0-.38,0Zm-.7-7.21a.72.72,0,0,1,.2-.5.67.67,0,0,1,.5-.21.63.63,0,0,1,.48.21.71.71,0,0,1,.19.5.65.65,0,0,1-.19.5.66.66,0,0,1-.48.2.7.7,0,0,1-.5-.2.65.65,0,0,1-.2-.5Zm2.7,4.68a2.58,2.58,0,0,1,.22-1,2.51,2.51,0,0,1,.56-.86,2.76,2.76,0,0,1,.85-.57,2.63,2.63,0,0,1,1-.21,2.92,2.92,0,0,1,1.08.2,2.6,2.6,0,0,1,.85.55,2.45,2.45,0,0,1,.55.84,3,3,0,0,1,.2,1.09,2.59,2.59,0,0,1-.21,1,2.65,2.65,0,0,1-1.42,1.42,2.59,2.59,0,0,1-1,.21,2.92,2.92,0,0,1-1.08-.2,2.44,2.44,0,0,1-1.4-1.39,2.94,2.94,0,0,1-.2-1.09Zm1.13-.4a5,5,0,0,0,.1.92,3.08,3.08,0,0,0,.29.84,2.11,2.11,0,0,0,.51.63,1.21,1.21,0,0,0,.76.24,1.28,1.28,0,0,0,1.06-.48,1.94,1.94,0,0,0,.38-1.23,5,5,0,0,0-.09-.93,3.44,3.44,0,0,0-.29-.89,2,2,0,0,0-.51-.67,1.25,1.25,0,0,0-.79-.26,1.28,1.28,0,0,0-1,.44,2,2,0,0,0-.39,1.39Zm8.5-2.26a.74.74,0,0,1,.52.16.54.54,0,0,1,.16.38.3.3,0,0,1,0,.13.4.4,0,0,1-.11.12l-.26.16-.45.22a1.1,1.1,0,0,0-.25-.23.68.68,0,0,0-.33-.09.7.7,0,0,0-.38.11,1.08,1.08,0,0,0-.29.31,2.1,2.1,0,0,0-.18.46,1.88,1.88,0,0,0-.07.53v2.07a.42.42,0,0,0,.28.39,3.19,3.19,0,0,0,.79.2.13.13,0,0,1,.12.14,1.76,1.76,0,0,1,0,.19l-.33,0h-.42l-.44,0h-.42l-.67,0-.66,0a.81.81,0,0,1,0-.19.13.13,0,0,1,.11-.14,2,2,0,0,0,.49-.15.29.29,0,0,0,.21-.27v-3a2.42,2.42,0,0,0,0-.42.85.85,0,0,0-.1-.27.41.41,0,0,0-.21-.15,1.53,1.53,0,0,0-.36-.07c-.1,0-.16-.07-.16-.16a.61.61,0,0,1,0-.17,4,4,0,0,0,.44,0l.46,0a4,4,0,0,0,.46-.1,1,1,0,0,1,.29,0c.12,0,.17.06.17.18v.8a5.47,5.47,0,0,1,.78-.7,1.44,1.44,0,0,1,.88-.28Zm9.53,3.88c.11-.29.23-.6.36-.91s.24-.61.35-.89.2-.55.27-.78a2.62,2.62,0,0,0,.1-.57.18.18,0,0,0-.1-.16.92.92,0,0,0-.23-.09l-.22-.09a.15.15,0,0,1-.1-.14.41.41,0,0,1,0-.16c.34,0,.68,0,1,0h.43l.4,0a.14.14,0,0,1,0,.09s0,0,0,.07a.15.15,0,0,1-.16.17,1,1,0,0,0-.22,0,.42.42,0,0,0-.16.09.59.59,0,0,0-.13.17,1.7,1.7,0,0,0-.12.29l-1.67,4.29-.19,0a.18.18,0,0,1-.15-.06,1.25,1.25,0,0,1-.17-.34l-1.34-3.26-1.42,3.63-.2,0c-.09,0-.16-.06-.21-.17a4,4,0,0,1-.17-.39l-1.55-3.76a1.58,1.58,0,0,0-.14-.29.57.57,0,0,0-.12-.17.35.35,0,0,0-.16-.08l-.21,0a.18.18,0,0,1-.15-.18.41.41,0,0,1,0-.16,4.17,4.17,0,0,0,.52,0h1.46l.47,0a.14.14,0,0,1,0,.09s0,0,0,.07a.14.14,0,0,1-.16.15c-.37.06-.55.15-.55.27a3.72,3.72,0,0,0,.29.89l.92,2.31,1.44-3.75c0-.09.08-.14.15-.14l.1,0,1.59,3.87Zm2.48-1.22a2.58,2.58,0,0,1,.21-1,2.69,2.69,0,0,1,.57-.86,2.65,2.65,0,0,1,.85-.57,2.59,2.59,0,0,1,1-.21,2.92,2.92,0,0,1,1.08.2,2.55,2.55,0,0,1,.84.55,2.32,2.32,0,0,1,.55.84,2.82,2.82,0,0,1,.2,1.09,2.59,2.59,0,0,1-.21,1,2.76,2.76,0,0,1-.57.85,2.71,2.71,0,0,1-.84.57,2.66,2.66,0,0,1-1.05.21,2.92,2.92,0,0,1-1.08-.2,2.6,2.6,0,0,1-.85-.55,2.45,2.45,0,0,1-.55-.84,2.94,2.94,0,0,1-.2-1.09Zm1.13-.4a4.94,4.94,0,0,0,.09.92,3.47,3.47,0,0,0,.3.84,2,2,0,0,0,.51.63,1.21,1.21,0,0,0,.76.24,1.29,1.29,0,0,0,1.06-.48,1.94,1.94,0,0,0,.37-1.23,4.31,4.31,0,0,0-.09-.93,3.09,3.09,0,0,0-.28-.89,2.19,2.19,0,0,0-.52-.67,1.2,1.2,0,0,0-.78-.26,1.28,1.28,0,0,0-1,.44,2,2,0,0,0-.39,1.39Zm8.49-2.26a.7.7,0,0,1,.52.16.55.55,0,0,1,.17.38.59.59,0,0,1,0,.13.34.34,0,0,1-.12.12,1.57,1.57,0,0,1-.25.16l-.45.22a1.16,1.16,0,0,0-.26-.23.63.63,0,0,0-.33-.09.7.7,0,0,0-.37.11,1.08,1.08,0,0,0-.29.31,1.7,1.7,0,0,0-.18.46,1.88,1.88,0,0,0-.07.53v2.07a.42.42,0,0,0,.28.39,3.07,3.07,0,0,0,.79.2.13.13,0,0,1,.12.14.81.81,0,0,1,0,.19l-.33,0h-.41l-.44,0h-.42l-.68,0-.66,0a1.76,1.76,0,0,1,0-.19.13.13,0,0,1,.11-.14,2.08,2.08,0,0,0,.48-.15.29.29,0,0,0,.21-.27v-3a2.42,2.42,0,0,0,0-.42.66.66,0,0,0-.1-.27.41.41,0,0,0-.21-.15,1.44,1.44,0,0,0-.35-.07c-.11,0-.16-.07-.16-.16a1.28,1.28,0,0,1,0-.17,3.8,3.8,0,0,0,.44,0l.47,0,.46-.1a1,1,0,0,1,.29,0c.11,0,.17.06.17.18v.8a4.93,4.93,0,0,1,.77-.7,1.46,1.46,0,0,1,.88-.28Zm3,4.5a.28.28,0,0,0,.19.27,2.26,2.26,0,0,0,.46.15c.08,0,.11.06.11.14a.72.72,0,0,1,0,.19l-.61,0-.63,0-.66,0-.62,0a.72.72,0,0,1,0-.19c0-.08,0-.13.09-.14a3.36,3.36,0,0,0,.48-.14.31.31,0,0,0,.23-.28v-6.46a.69.69,0,0,0-.15-.52,1,1,0,0,0-.57-.18.16.16,0,0,1-.16-.16.55.55,0,0,1,0-.17l.43,0,.5,0a4.19,4.19,0,0,0,.49-.1,1.39,1.39,0,0,1,.32-.06.17.17,0,0,1,.14,0,.25.25,0,0,1,0,.13,4.64,4.64,0,0,1,0,.48,5.78,5.78,0,0,0,0,.63v4.29l1.79-1.59a.18.18,0,0,0,.11-.18.1.1,0,0,0-.09-.11l-.19,0-.2-.06a.16.16,0,0,1-.09-.15.47.47,0,0,1,0-.15l.4,0,.68,0,.65,0,.37,0a.39.39,0,0,0,0,.06.2.2,0,0,1,0,.09.33.33,0,0,1,0,.13.16.16,0,0,1-.13.06,1.32,1.32,0,0,0-.45.09.83.83,0,0,0-.25.12l-1.68,1.52,2,2.25a1.13,1.13,0,0,0,.46.37,2.73,2.73,0,0,0,.44.1c.08,0,.12,0,.12.14a.65.65,0,0,1,0,.11.37.37,0,0,1,0,.12q-.81,0-1.68,0l-2.18-2.64h0v1.92Zm6.77-1.84a2.76,2.76,0,0,1,.21-1,2.69,2.69,0,0,1,.57-.86,2.76,2.76,0,0,1,.85-.57,2.66,2.66,0,0,1,1-.21,2.92,2.92,0,0,1,1.08.2,2.6,2.6,0,0,1,.85.55,2.45,2.45,0,0,1,.55.84,3,3,0,0,1,.2,1.09,2.59,2.59,0,0,1-.21,1,2.65,2.65,0,0,1-1.42,1.42,2.59,2.59,0,0,1-1,.21,2.92,2.92,0,0,1-1.08-.2,2.6,2.6,0,0,1-.85-.55,2.45,2.45,0,0,1-.55-.84,2.94,2.94,0,0,1-.2-1.09Zm1.13-.4a5,5,0,0,0,.1.92,3.08,3.08,0,0,0,.29.84,2.11,2.11,0,0,0,.51.63,1.21,1.21,0,0,0,.76.24,1.28,1.28,0,0,0,1.06-.48,1.94,1.94,0,0,0,.38-1.23,5,5,0,0,0-.09-.93,3.44,3.44,0,0,0-.29-.89,1.92,1.92,0,0,0-.52-.67,1.2,1.2,0,0,0-.78-.26,1.28,1.28,0,0,0-1,.44,2,2,0,0,0-.39,1.39Zm10.33,2.25a.3.3,0,0,0,.22.27,3,3,0,0,0,.48.14.13.13,0,0,1,.11.14.81.81,0,0,1,0,.19l-.61,0-.64,0-.65,0-.63,0a1.76,1.76,0,0,1,0-.19.13.13,0,0,1,.11-.14,2.65,2.65,0,0,0,.45-.14.29.29,0,0,0,.21-.27v-2.35a3.28,3.28,0,0,0,0-.56,1.15,1.15,0,0,0-.14-.43.69.69,0,0,0-.27-.29.88.88,0,0,0-.45-.1,1.7,1.7,0,0,0-.59.1,1.63,1.63,0,0,0-.51.3,1.3,1.3,0,0,0-.35.48,1.59,1.59,0,0,0-.14.66v2.19a.29.29,0,0,0,.21.27,3,3,0,0,0,.45.14c.08,0,.11.06.11.14a1.76,1.76,0,0,1,0,.19l-.61,0-.64,0-.66,0-.61,0a.81.81,0,0,1,0-.19.13.13,0,0,1,.11-.14,2.74,2.74,0,0,0,.48-.14.3.3,0,0,0,.22-.28v-3.27a.76.76,0,0,0-.13-.51c-.08-.11-.26-.17-.55-.2a.15.15,0,0,1-.15-.16,1.15,1.15,0,0,1,0-.16l.44,0,.46,0,.49-.1a1.39,1.39,0,0,1,.32-.06c.11,0,.16.06.16.18a3.29,3.29,0,0,1,0,.41,4.64,4.64,0,0,0,0,.61,5.4,5.4,0,0,1,1-.88,1.85,1.85,0,0,1,1-.32,1.39,1.39,0,0,1,1.1.43,1.77,1.77,0,0,1,.36,1.18v2.92Zm8.77-2.17h-2.68l-.77,1.93a.6.6,0,0,0-.06.24c0,.17.25.29.73.36a.17.17,0,0,1,.12.06.28.28,0,0,1,0,.13.81.81,0,0,1,0,.19l-.68,0-.71,0h-.49l-.53,0a.62.62,0,0,1,0-.19.29.29,0,0,1,0-.14.15.15,0,0,1,.12-.08,2.07,2.07,0,0,0,.56-.15.49.49,0,0,0,.27-.28l2.89-7c.06-.13.13-.2.23-.2l.14,0,2.91,7.18a.54.54,0,0,0,.32.26,2,2,0,0,0,.5.13.41.41,0,0,1,.11.07.21.21,0,0,1,0,.15,1.76,1.76,0,0,1,0,.19l-.76,0-.7,0-.76,0-.78,0a.81.81,0,0,1,0-.19.27.27,0,0,1,0-.15.12.12,0,0,1,.08,0,3,3,0,0,0,.51-.14.25.25,0,0,0,.19-.23.49.49,0,0,0,0-.18l-.75-2Zm-.2-.5-1.11-2.94-1.17,2.94Zm6,2.64a.37.37,0,0,1,.1-.07h.07c.07,0,.13,0,.19.16a2.89,2.89,0,0,1-.67.56,1.52,1.52,0,0,1-.77.22,1.76,1.76,0,0,1-.46-.06.73.73,0,0,1-.37-.21,1.06,1.06,0,0,1-.24-.42,2.32,2.32,0,0,1-.09-.71v-3.31h-.72v-.13a.41.41,0,0,1,0-.16.13.13,0,0,1,.12-.07.75.75,0,0,0,.53-.17,1.23,1.23,0,0,0,.34-.43c.09-.19.18-.37.25-.54s.15-.25.24-.25h.22v1.25h1.4a1.2,1.2,0,0,1,0,.38.21.21,0,0,1-.2.12h-1.15v3a5.22,5.22,0,0,0,0,.62,1.28,1.28,0,0,0,.11.36.37.37,0,0,0,.17.16.66.66,0,0,0,.21,0,.82.82,0,0,0,.38-.09,1.85,1.85,0,0,0,.33-.21Zm4.3-4.48a.69.69,0,0,1,.51.16.55.55,0,0,1,.17.38.59.59,0,0,1,0,.13.34.34,0,0,1-.12.12,1.57,1.57,0,0,1-.25.16l-.45.22a1.16,1.16,0,0,0-.26-.23.63.63,0,0,0-.33-.09.7.7,0,0,0-.37.11,1.08,1.08,0,0,0-.29.31,1.7,1.7,0,0,0-.18.46,1.88,1.88,0,0,0-.07.53v2.07a.42.42,0,0,0,.28.39,3.19,3.19,0,0,0,.79.2.13.13,0,0,1,.12.14.81.81,0,0,1,0,.19l-.33,0h-.41l-.44,0h-.42l-.67,0-.66,0a.81.81,0,0,1,0-.19.13.13,0,0,1,.11-.14,2.08,2.08,0,0,0,.48-.15c.15-.06.22-.15.22-.27v-3a2.42,2.42,0,0,0,0-.42.84.84,0,0,0-.11-.27.37.37,0,0,0-.21-.15,1.44,1.44,0,0,0-.35-.07c-.11,0-.16-.07-.16-.16a.61.61,0,0,1,0-.17,3.73,3.73,0,0,0,.43,0l.47,0a4,4,0,0,0,.46-.1,1,1,0,0,1,.29,0c.12,0,.17.06.17.18v.8a6,6,0,0,1,.77-.7,1.47,1.47,0,0,1,.89-.28Zm5.16,4.08a.23.23,0,0,1,.18-.09c.08,0,.15.07.23.21a4.64,4.64,0,0,1-.37.42,2.31,2.31,0,0,1-.48.36,2.45,2.45,0,0,1-.64.26,3.43,3.43,0,0,1-.83.1,2.72,2.72,0,0,1-.91-.16,1.9,1.9,0,0,1-.76-.48,2.38,2.38,0,0,1-.53-.8,2.82,2.82,0,0,1-.2-1.13,2.78,2.78,0,0,1,.23-1.13,2.94,2.94,0,0,1,.61-.88,2.64,2.64,0,0,1,.82-.57,2.05,2.05,0,0,1,.87-.21,2,2,0,0,1,1.63.65,2.66,2.66,0,0,1,.51,1.69.07.07,0,0,1-.08.08l-3.47.15a2.73,2.73,0,0,0,.13.87,2.12,2.12,0,0,0,.37.68,1.71,1.71,0,0,0,.58.45,1.78,1.78,0,0,0,.78.16,1.58,1.58,0,0,0,.73-.18,2,2,0,0,0,.6-.45Zm-2-3.66a1.07,1.07,0,0,0-.93.46,2,2,0,0,0-.34,1.23l2.27-.11c.12,0,.18,0,.18-.16a2.14,2.14,0,0,0-.07-.48,1.62,1.62,0,0,0-.22-.46,1.5,1.5,0,0,0-.36-.35,1,1,0,0,0-.53-.13Zm3.84.81a.93.93,0,0,0-.11-.53.83.83,0,0,0-.52-.18c-.11,0-.16-.06-.16-.15a.55.55,0,0,1,0-.17l.41,0,.44,0,.46-.09a1.13,1.13,0,0,1,.29-.06c.11,0,.17.06.17.18v3a3.28,3.28,0,0,0,0,.56,1.36,1.36,0,0,0,.13.43.63.63,0,0,0,.27.29.92.92,0,0,0,.46.1,1.7,1.7,0,0,0,.59-.1,1.63,1.63,0,0,0,.51-.3,1.3,1.3,0,0,0,.35-.48,1.62,1.62,0,0,0,.14-.68v-1.75a.88.88,0,0,0-.12-.53.82.82,0,0,0-.53-.18c-.11,0-.16-.06-.16-.15a1.11,1.11,0,0,1,0-.17l.42,0,.45,0,.45-.09a1.13,1.13,0,0,1,.29-.06c.11,0,.17.06.17.18v3.9a1.42,1.42,0,0,0,0,.33.34.34,0,0,0,.09.21.56.56,0,0,0,.2.12,1.28,1.28,0,0,0,.33,0c.1,0,.16.07.16.16a.61.61,0,0,1,0,.17l-.48,0-.48.07-.4.08-.25,0c-.11,0-.16-.06-.16-.18v-1a2.49,2.49,0,0,0-.21.22,3.54,3.54,0,0,1-1.06.8,1.67,1.67,0,0,1-.76.18,1.37,1.37,0,0,1-1.1-.42,1.78,1.78,0,0,1-.37-1.19v-2.5Zm9.3.23c-.06,0-.11,0-.13,0a.24.24,0,0,1-.06-.09,1,1,0,0,0-.39-.7,1.31,1.31,0,0,0-.76-.21,1,1,0,0,0-.62.19.66.66,0,0,0-.27.55.64.64,0,0,0,.25.52,2.73,2.73,0,0,0,.89.42,4.75,4.75,0,0,1,.64.24,1.83,1.83,0,0,1,.51.31,1.39,1.39,0,0,1,.33.46,1.56,1.56,0,0,1,.12.64,1.53,1.53,0,0,1-.12.6,1.33,1.33,0,0,1-.35.51,1.65,1.65,0,0,1-.58.34,2.4,2.4,0,0,1-.85.14,4.66,4.66,0,0,1-.86-.09,3,3,0,0,1-.86-.31c0-.21,0-.43,0-.65s0-.46,0-.69h.13a.45.45,0,0,1,.2,0,.17.17,0,0,1,.1.14,1.24,1.24,0,0,0,.38.81,1.42,1.42,0,0,0,1,.3,1.1,1.1,0,0,0,.75-.22.75.75,0,0,0,.27-.61.7.7,0,0,0-.29-.6,2.73,2.73,0,0,0-.85-.38,3,3,0,0,1-1.11-.56,1.29,1.29,0,0,1-.4-1,1.45,1.45,0,0,1,.12-.59,1.37,1.37,0,0,1,.33-.48,1.59,1.59,0,0,1,.53-.33,1.94,1.94,0,0,1,.7-.12,3.26,3.26,0,0,1,.9.13,2.57,2.57,0,0,1,.67.27,1.4,1.4,0,0,1,0,.23,2.83,2.83,0,0,1,0,.29c0,.1,0,.2,0,.3a2.62,2.62,0,0,1,0,.27Zm8.92,3.41c.09,0,.13.08.14.25a1.39,1.39,0,0,1-.79.22,1.3,1.3,0,0,1-.46-.08,1,1,0,0,1-.32-.21.83.83,0,0,1-.2-.3,1.4,1.4,0,0,1-.1-.35,1.7,1.7,0,0,1-.71.74,2.26,2.26,0,0,1-1,.2,3.14,3.14,0,0,1-.51,0,1.34,1.34,0,0,1-.51-.17,1.06,1.06,0,0,1-.39-.37,1.1,1.1,0,0,1-.16-.64,1.32,1.32,0,0,1,.21-.75,1.73,1.73,0,0,1,.54-.5,3.35,3.35,0,0,1,.72-.32c.26-.08.51-.15.75-.2l.38-.08.3-.09c.12,0,.19-.08.21-.13a.8.8,0,0,0,0-.33,1.88,1.88,0,0,0-.22-.93.82.82,0,0,0-.77-.36,1.25,1.25,0,0,0-.35,0,1,1,0,0,0-.24.15.88.88,0,0,0-.16.27c-.05.12-.1.25-.15.4a.28.28,0,0,1-.16.19,3,3,0,0,1-.42.15l-.18,0-.19,0c-.08,0-.12-.09-.12-.25a.83.83,0,0,1,.21-.53,2.15,2.15,0,0,1,.52-.47,2.74,2.74,0,0,1,.69-.33,2.32,2.32,0,0,1,.71-.13,3.38,3.38,0,0,1,.75.08,1.24,1.24,0,0,1,.58.26,1.26,1.26,0,0,1,.37.52,2.41,2.41,0,0,1,.12.84v2.06a4.4,4.4,0,0,0,0,.61.9.9,0,0,0,.09.29.47.47,0,0,0,.19.22.42.42,0,0,0,.21.06.36.36,0,0,0,.18,0l.12,0Zm-1.81-2.34-.39.06-.6.14a2.14,2.14,0,0,0-.53.24,1.16,1.16,0,0,0-.36.37,1.12,1.12,0,0,0-.14.57,1,1,0,0,0,.23.69.81.81,0,0,0,.59.24,1,1,0,0,0,.45-.1,1.07,1.07,0,0,0,.38-.29,1.57,1.57,0,0,0,.27-.43,1.69,1.69,0,0,0,.1-.56v-.93Zm7.75,2a.29.29,0,0,0,.21.27,3.36,3.36,0,0,0,.48.14c.08,0,.11.06.11.14a1.76,1.76,0,0,1,0,.19l-.61,0-.65,0-.64,0-.63,0a.81.81,0,0,1,0-.19.13.13,0,0,1,.11-.14,2.77,2.77,0,0,0,.46-.14.29.29,0,0,0,.2-.27v-2.35a3.28,3.28,0,0,0,0-.56,1.14,1.14,0,0,0-.13-.43.71.71,0,0,0-.28-.29.88.88,0,0,0-.45-.1,1.7,1.7,0,0,0-.59.1,1.63,1.63,0,0,0-.51.3,1.57,1.57,0,0,0-.35.48,1.59,1.59,0,0,0-.13.66v2.19a.29.29,0,0,0,.21.27,3,3,0,0,0,.45.14.13.13,0,0,1,.11.14.81.81,0,0,1,0,.19l-.61,0-.64,0-.66,0-.61,0a1.76,1.76,0,0,1,0-.19c0-.08,0-.13.11-.14a2.89,2.89,0,0,0,.47-.14.3.3,0,0,0,.22-.28v-3.27a.83.83,0,0,0-.12-.51.81.81,0,0,0-.55-.2.16.16,0,0,1-.16-.16.55.55,0,0,1,0-.16l.44,0,.46,0,.49-.1a1.33,1.33,0,0,1,.31-.06c.11,0,.17.06.17.18a2.17,2.17,0,0,1,0,.41,4.93,4.93,0,0,0,0,.61,4.82,4.82,0,0,1,1-.88,1.82,1.82,0,0,1,1-.32,1.38,1.38,0,0,1,1.1.43,1.72,1.72,0,0,1,.37,1.18v2.92Zm6.52-.39a.94.94,0,0,0,0,.25.27.27,0,0,0,.1.17.44.44,0,0,0,.19.12,1.39,1.39,0,0,0,.33.06c.11,0,.16.07.16.16a.61.61,0,0,1,0,.17,3.34,3.34,0,0,0-.41,0l-.44,0a4,4,0,0,0-.46.1,1,1,0,0,1-.29,0c-.11,0-.17-.06-.17-.18v-.91l-.34.44a2,2,0,0,1-.39.37,1.64,1.64,0,0,1-.51.26,2.29,2.29,0,0,1-.69.1,1.89,1.89,0,0,1-.78-.17,1.87,1.87,0,0,1-.66-.5,2.47,2.47,0,0,1-.47-.81,3.33,3.33,0,0,1-.17-1.09,2.76,2.76,0,0,1,.25-1.18,3,3,0,0,1,.63-.88,2.5,2.5,0,0,1,.81-.54,2.16,2.16,0,0,1,.81-.19,3.35,3.35,0,0,1,.81.09,4.83,4.83,0,0,1,.7.24v-2.27a.76.76,0,0,0-.13-.51.81.81,0,0,0-.54-.19c-.11,0-.16-.07-.16-.16a1.11,1.11,0,0,1,0-.17l.44,0,.47,0,.49-.1a1.33,1.33,0,0,1,.31-.06c.11,0,.17.06.17.18a2.79,2.79,0,0,1,0,.47,5.92,5.92,0,0,0,0,.65v6Zm-1-3a2.36,2.36,0,0,0-.66-.49,1.8,1.8,0,0,0-.82-.18,1.17,1.17,0,0,0-1.05.57,2.87,2.87,0,0,0-.35,1.48,3.57,3.57,0,0,0,.1.87,2.48,2.48,0,0,0,.3.72,1.54,1.54,0,0,0,.48.5,1.16,1.16,0,0,0,.63.18.9.9,0,0,0,.48-.15,1.88,1.88,0,0,0,.44-.36,1.91,1.91,0,0,0,.32-.51,1.27,1.27,0,0,0,.13-.56v-2.07Zm9.79,1.25h-2.67l-.77,1.93a.6.6,0,0,0-.06.24c0,.17.24.29.73.36a.15.15,0,0,1,.11.06.28.28,0,0,1,0,.13,1.76,1.76,0,0,1,0,.19l-.69,0-.7,0h-.49l-.53,0a.63.63,0,0,1,0-.19.29.29,0,0,1,0-.14.17.17,0,0,1,.13-.08,2.19,2.19,0,0,0,.56-.15.57.57,0,0,0,.27-.28l2.89-7c0-.13.13-.2.23-.2l.14,0,2.9,7.18a.53.53,0,0,0,.33.26,1.88,1.88,0,0,0,.49.13.23.23,0,0,1,.11.07.21.21,0,0,1,0,.15.81.81,0,0,1,0,.19l-.75,0-.7,0-.77,0-.78,0a1.76,1.76,0,0,1,0-.19.21.21,0,0,1,0-.15.12.12,0,0,1,.08,0,2.85,2.85,0,0,0,.5-.14c.13,0,.2-.13.2-.23a.49.49,0,0,0,0-.18l-.76-2Zm-.19-.5-1.12-2.94-1.16,2.94Zm6,2.64a.26.26,0,0,1,.1-.07h.07c.07,0,.13,0,.19.16a2.89,2.89,0,0,1-.67.56,1.52,1.52,0,0,1-.77.22,1.76,1.76,0,0,1-.46-.06.69.69,0,0,1-.37-.21,1,1,0,0,1-.25-.42,2.32,2.32,0,0,1-.09-.71v-3.31h-.72v-.13a.41.41,0,0,1,0-.16.13.13,0,0,1,.13-.07.77.77,0,0,0,.53-.17,1.2,1.2,0,0,0,.33-.43c.1-.19.18-.37.25-.54s.16-.25.24-.25h.22v1.25h1.41a.94.94,0,0,1-.06.38.2.2,0,0,1-.2.12h-1.15v3a3.57,3.57,0,0,0,0,.62,1,1,0,0,0,.11.36.35.35,0,0,0,.16.16.78.78,0,0,0,.22,0,.82.82,0,0,0,.38-.09l.33-.21Zm4.29-4.48a.72.72,0,0,1,.52.16.55.55,0,0,1,.17.38.31.31,0,0,1,0,.13.24.24,0,0,1-.11.12,1.57,1.57,0,0,1-.25.16l-.45.22a1.43,1.43,0,0,0-.26-.23.63.63,0,0,0-.33-.09.67.67,0,0,0-.37.11,1,1,0,0,0-.29.31,2.11,2.11,0,0,0-.19.46,2.33,2.33,0,0,0-.06.53v2.07a.42.42,0,0,0,.27.39,3.32,3.32,0,0,0,.79.2.12.12,0,0,1,.12.14.72.72,0,0,1,0,.19l-.33,0h-.41l-.45,0h-.42l-.67,0-.66,0a.72.72,0,0,1,0-.19c0-.08,0-.13.11-.14a2.08,2.08,0,0,0,.48-.15.29.29,0,0,0,.21-.27v-3a2.42,2.42,0,0,0,0-.42.66.66,0,0,0-.1-.27.41.41,0,0,0-.21-.15,1.44,1.44,0,0,0-.35-.07c-.11,0-.16-.07-.16-.16a1.28,1.28,0,0,1,0-.17,3.88,3.88,0,0,0,.44,0l.46,0a4.24,4.24,0,0,0,.47-.1,1,1,0,0,1,.29,0c.11,0,.17.06.17.18v.8a4.93,4.93,0,0,1,.77-.7,1.46,1.46,0,0,1,.88-.28Zm5.16,4.08a.26.26,0,0,1,.18-.09c.08,0,.16.07.23.21a3.36,3.36,0,0,1-.36.42,2.7,2.7,0,0,1-.49.36,2.32,2.32,0,0,1-.64.26,3.37,3.37,0,0,1-.83.1,2.81,2.81,0,0,1-.91-.16,2,2,0,0,1-.76-.48,2.54,2.54,0,0,1-.53-.8,3,3,0,0,1-.19-1.13,2.63,2.63,0,0,1,.23-1.13,2.92,2.92,0,0,1,.6-.88,2.68,2.68,0,0,1,.83-.57,2.05,2.05,0,0,1,.87-.21,1.94,1.94,0,0,1,1.62.65,2.66,2.66,0,0,1,.51,1.69c0,.05,0,.08-.07.08l-3.48.15a3,3,0,0,0,.13.87,2.12,2.12,0,0,0,.37.68,1.85,1.85,0,0,0,.59.45,1.71,1.71,0,0,0,.77.16,1.62,1.62,0,0,0,.74-.18,2.05,2.05,0,0,0,.59-.45Zm-1.94-3.66a1.1,1.1,0,0,0-.94.46,2.1,2.1,0,0,0-.33,1.23l2.26-.11c.12,0,.19,0,.19-.16a1.72,1.72,0,0,0-.08-.48,1.92,1.92,0,0,0-.21-.46,1.38,1.38,0,0,0-.37-.35,1,1,0,0,0-.52-.13Zm3.84.81a.84.84,0,0,0-.12-.53.81.81,0,0,0-.52-.18q-.15,0-.15-.15a.52.52,0,0,1,0-.17l.41,0a3.88,3.88,0,0,0,.44,0l.47-.09a1.06,1.06,0,0,1,.29-.06c.11,0,.17.06.17.18v3a4.86,4.86,0,0,0,0,.56,1.67,1.67,0,0,0,.13.43.71.71,0,0,0,.28.29.9.9,0,0,0,.46.1,1.74,1.74,0,0,0,.59-.1,1.63,1.63,0,0,0,.51-.3,1.57,1.57,0,0,0,.35-.48,1.62,1.62,0,0,0,.13-.68v-1.75a1,1,0,0,0-.11-.53.88.88,0,0,0-.54-.18q-.15,0-.15-.15a1.11,1.11,0,0,1,0-.17l.42,0,.45,0,.45-.09a1.06,1.06,0,0,1,.29-.06c.11,0,.17.06.17.18v3.9a1.52,1.52,0,0,0,0,.33.41.41,0,0,0,.1.21.43.43,0,0,0,.2.12,1.26,1.26,0,0,0,.32,0c.11,0,.16.07.16.16a1.28,1.28,0,0,1,0,.17l-.48,0-.48.07-.41.08-.24,0c-.11,0-.17-.06-.17-.18v-1l-.2.22a3,3,0,0,1-.44.41,2.8,2.8,0,0,1-.63.39,1.64,1.64,0,0,1-.76.18,1.37,1.37,0,0,1-1.09-.42,1.73,1.73,0,0,1-.37-1.19v-2.5Zm9.3.23a.18.18,0,0,1-.14,0,.2.2,0,0,1,0-.09,1,1,0,0,0-.39-.7,1.34,1.34,0,0,0-.77-.21,1,1,0,0,0-.61.19.69.69,0,0,0,0,1.07,2.8,2.8,0,0,0,.9.42,5.32,5.32,0,0,1,.64.24,1.77,1.77,0,0,1,.5.31,1.39,1.39,0,0,1,.33.46,1.56,1.56,0,0,1,.12.64,1.73,1.73,0,0,1-.11.6,1.46,1.46,0,0,1-.35.51,1.7,1.7,0,0,1-.59.34,2.3,2.3,0,0,1-.84.14,4.66,4.66,0,0,1-.86-.09,2.93,2.93,0,0,1-.86-.31c0-.21,0-.43,0-.65s0-.46,0-.69h.12a.4.4,0,0,1,.2,0,.17.17,0,0,1,.1.14,1.2,1.2,0,0,0,.39.81,1.41,1.41,0,0,0,1,.3,1.13,1.13,0,0,0,.76-.22.74.74,0,0,0,.26-.61.7.7,0,0,0-.28-.6,2.92,2.92,0,0,0-.86-.38,3,3,0,0,1-1.11-.56,1.32,1.32,0,0,1-.4-1,1.45,1.45,0,0,1,.12-.59,1.39,1.39,0,0,1,.34-.48,1.49,1.49,0,0,1,.53-.33,1.92,1.92,0,0,1,.69-.12,3.39,3.39,0,0,1,.91.13,2.48,2.48,0,0,1,.66.27c0,.06,0,.14,0,.23s0,.19,0,.29,0,.2,0,.3,0,.19,0,.27Zm2.81.4a1.58,1.58,0,0,0-.12.45,3.62,3.62,0,0,0,0,.54,2.79,2.79,0,0,0,.34,1.51,1,1,0,0,0,.87.54,1.11,1.11,0,0,0,.91-.46,2.31,2.31,0,0,0,.36-1.43,2.59,2.59,0,0,0-.1-.78,1.7,1.7,0,0,0-.26-.54,1.08,1.08,0,0,0-.38-.33,1,1,0,0,0-.44-.1,1.94,1.94,0,0,0-.64.12.9.9,0,0,0-.5.48Zm0-.63a2.28,2.28,0,0,1,.78-.46,2.77,2.77,0,0,1,.78-.13,2,2,0,0,1,.68.12,1.56,1.56,0,0,1,.6.39,2.12,2.12,0,0,1,.42.69,2.78,2.78,0,0,1,.16,1,2.54,2.54,0,0,1-.17.88,2.81,2.81,0,0,1-.47.8,2.55,2.55,0,0,1-.75.59,2.19,2.19,0,0,1-1,.23,2.33,2.33,0,0,1-1.15-.25,2.06,2.06,0,0,1-.73-.64,2.65,2.65,0,0,1-.39-.89,4.11,4.11,0,0,1-.12-1,4.31,4.31,0,0,1,.25-1.4,5.15,5.15,0,0,1,.75-1.37,7.22,7.22,0,0,1,1.27-1.26,10.2,10.2,0,0,1,1.83-1.11.54.54,0,0,1,.07.13.27.27,0,0,1,0,.12.2.2,0,0,1-.1.17,10.44,10.44,0,0,0-1.06.79,7.25,7.25,0,0,0-.79.77,4.44,4.44,0,0,0-.54.84,5.17,5.17,0,0,0-.36,1Zm4.43-.35-.07.06-.09,0a.3.3,0,0,1-.25-.16,4.07,4.07,0,0,1,1-1,2.2,2.2,0,0,1,1.24-.37,1.64,1.64,0,0,1,1.24.43,1.5,1.5,0,0,1,.42,1.11,2,2,0,0,1-.14.72,2.63,2.63,0,0,1-.47.75,6.94,6.94,0,0,1-.86.87c-.36.31-.81.66-1.34,1h2a.72.72,0,0,0,.4-.1.92.92,0,0,0,.29-.41.21.21,0,0,1,.19-.14l.14,0h.07c-.07.21-.14.42-.2.65s-.11.44-.16.65a.33.33,0,0,1-.06.12l-.12,0-.54,0c-.22,0-.45,0-.71,0h-2.46v-.29c.49-.41.92-.79,1.26-1.12a8.46,8.46,0,0,0,.85-.92,3.12,3.12,0,0,0,.47-.8,1.79,1.79,0,0,0,.16-.73,1.25,1.25,0,0,0-.22-.75.8.8,0,0,0-.72-.32,1.71,1.71,0,0,0-.67.14,3.2,3.2,0,0,0-.72.48Z"/></g></svg>