<?xml version="1.0" encoding="UTF-8" standalone="no"?>
<!DOCTYPE svg PUBLIC "-//W3C//DTD SVG 1.1//EN" "http://www.w3.org/Graphics/SVG/1.1/DTD/svg11.dtd">
<svg width="100%" height="100%" viewBox="0 0 2835 2835" version="1.1" xmlns="http://www.w3.org/2000/svg" xmlns:xlink="http://www.w3.org/1999/xlink" xml:space="preserve" xmlns:serif="http://www.serif.com/" style="fill-rule:evenodd;clip-rule:evenodd;stroke-linecap:round;stroke-linejoin:round;stroke-miterlimit:1.5;">
    <g transform="matrix(1,0,0,1,986.457,1167.02)">
        <path d="M0,7.937C0,5.119 2.284,2.835 5.102,2.835C20.242,2.835 64.797,2.835 79.937,2.835C82.755,2.835 85.039,5.119 85.039,7.937C85.039,8.314 85.039,8.694 85.039,9.071C85.039,10.424 85.577,11.722 86.534,12.679C87.491,13.636 88.789,14.173 90.142,14.173C149.716,14.173 712.016,14.173 771.591,14.173C772.944,14.173 774.242,13.636 775.198,12.679C776.155,11.722 776.693,10.424 776.693,9.071C776.693,8.694 776.693,8.314 776.693,7.937C776.693,5.119 778.977,2.835 781.795,2.835C796.935,2.835 841.49,2.835 856.63,2.835C859.448,2.835 861.732,5.119 861.732,7.937C861.732,48.813 861.732,322.526 861.732,363.402C861.732,366.22 859.448,368.504 856.63,368.504C825.846,368.504 665.178,368.504 634.394,368.504C631.576,368.504 629.291,366.22 629.291,363.402C629.291,362.111 629.291,360.724 629.291,359.433C629.291,358.08 628.754,356.782 627.797,355.825C626.84,354.868 625.542,354.331 624.189,354.331C581.233,354.331 280.499,354.331 237.543,354.331C236.19,354.331 234.892,354.868 233.935,355.825C232.979,356.782 232.441,358.08 232.441,359.433C232.441,360.724 232.441,362.111 232.441,363.402C232.441,366.22 230.157,368.504 227.339,368.504C196.554,368.504 35.886,368.504 5.102,368.504C2.284,368.504 0,366.22 0,363.402L0,7.937Z" style="fill:none;stroke:#00f;stroke-width:0.03px;"/>
    </g>
    <g transform="matrix(1,0,0,1,1006.3,1145.76)">
        <circle cx="829.134" cy="344.409" r="4.252" style="fill:none;stroke:#00f;stroke-width:0.03px;"/>
    </g>
    <g transform="matrix(-1,0,0,1,2457.64,1178.36)">
        <circle cx="829.134" cy="344.409" r="4.252" style="fill:none;stroke:#00f;stroke-width:0.03px;"/>
    </g>
    <g transform="matrix(-1,0,0,1,2399.53,849.52)">
        <circle cx="829.134" cy="344.409" r="4.252" style="fill:none;stroke:#00f;stroke-width:0.03px;"/>
    </g>
    <g transform="matrix(1,0,0,1,1006.3,873.631)">
        <circle cx="829.134" cy="344.409" r="4.252" style="fill:none;stroke:#00f;stroke-width:0.03px;"/>
    </g>
    <g transform="matrix(1,0,0,1,170.079,873.631)">
        <circle cx="829.134" cy="344.409" r="4.252" style="fill:none;stroke:#00f;stroke-width:0.03px;"/>
    </g>
    <g transform="matrix(1,0,0,1,170.079,1009.69)">
        <circle cx="829.134" cy="344.409" r="4.252" style="fill:none;stroke:#00f;stroke-width:0.03px;"/>
    </g>
    <g transform="matrix(1,0,0,1,1006.3,1009.69)">
        <circle cx="829.134" cy="344.409" r="4.252" style="fill:none;stroke:#00f;stroke-width:0.03px;"/>
    </g>
    <g transform="matrix(1,0,0,1,170.079,1145.76)">
        <circle cx="829.134" cy="344.409" r="4.252" style="fill:none;stroke:#00f;stroke-width:0.03px;"/>
    </g>
    <g transform="matrix(-1,0,0,1,2035.28,1178.39)">
        <circle cx="829.134" cy="344.409" r="4.252" style="fill:none;stroke:#00f;stroke-width:0.03px;"/>
    </g>
    <g transform="matrix(-1,0,0,1,2093.39,849.553)">
        <circle cx="829.134" cy="344.409" r="4.252" style="fill:none;stroke:#00f;stroke-width:0.03px;"/>
    </g>
    <g transform="matrix(0.939693,0.34202,-0.34202,0.939693,1050.28,1157.27)">
        <path d="M281.911,160.428L284.215,160.428L284.215,157.649L323.247,157.649L323.247,160.428L325.552,160.428L325.552,170.35L323.247,170.35L323.247,183.981L325.552,183.981L325.552,193.903L323.248,193.903L323.248,196.682L284.213,196.682L284.213,193.903L281.911,193.903L281.911,183.981L284.214,183.981L284.214,170.35L281.911,170.35L281.911,160.428Z" style="fill:none;stroke:#00f;stroke-width:0.03px;stroke-linecap:square;stroke-linejoin:miter;stroke-miterlimit:2;"/>
    </g>
    <g transform="matrix(-0.939693,0.34202,0.34202,0.939693,1784.37,1157.27)">
        <path d="M281.911,160.428L284.215,160.428L284.215,157.649L323.247,157.649L323.247,160.428L325.552,160.428L325.552,170.35L323.247,170.35L323.247,183.981L325.552,183.981L325.552,193.903L323.248,193.903L323.248,196.682L284.213,196.682L284.213,193.903L281.911,193.903L281.911,183.981L284.214,183.981L284.214,170.35L281.911,170.35L281.911,160.428Z" style="fill:none;stroke:#00f;stroke-width:0.03px;stroke-linecap:square;stroke-linejoin:miter;stroke-miterlimit:2;"/>
    </g>
    <g transform="matrix(0.608761,0.793353,-0.793353,0.608761,1284.57,1118.3)">
        <path d="M281.911,160.428L284.215,160.428L284.215,157.649L323.247,157.649L323.247,160.428L325.552,160.428L325.552,170.35L323.247,170.35L323.247,183.981L325.552,183.981L325.552,193.903L323.248,193.903L323.248,196.682L284.213,196.682L284.213,193.903L281.911,193.903L281.911,183.981L284.214,183.981L284.214,170.35L281.911,170.35L281.911,160.428Z" style="fill:none;stroke:#00f;stroke-width:0.03px;stroke-linecap:square;stroke-linejoin:miter;stroke-miterlimit:2;"/>
    </g>
    <g transform="matrix(-0.608761,0.793353,0.793353,0.608761,1550.08,1118.3)">
        <path d="M281.911,160.428L284.215,160.428L284.215,157.649L323.247,157.649L323.247,160.428L325.552,160.428L325.552,170.35L323.247,170.35L323.247,183.981L325.552,183.981L325.552,193.903L323.248,193.903L323.248,196.682L284.213,196.682L284.213,193.903L281.911,193.903L281.911,183.981L284.214,183.981L284.214,170.35L281.911,170.35L281.911,160.428Z" style="fill:none;stroke:#00f;stroke-width:0.03px;stroke-linecap:square;stroke-linejoin:miter;stroke-miterlimit:2;"/>
    </g>
    <g transform="matrix(-0.984808,-0.173648,-0.173648,0.984808,1402.81,1119.46)">
        <path d="M281.911,160.428L284.215,160.428L284.215,157.649L323.247,157.649L323.247,160.428L325.552,160.428L325.552,170.35L323.247,170.35L323.247,183.981L325.552,183.981L325.552,193.903L323.248,193.903L323.248,196.682L284.213,196.682L284.213,193.903L281.911,193.903L281.911,183.981L284.214,183.981L284.214,170.35L281.911,170.35L281.911,160.428Z" style="fill:none;stroke:#00f;stroke-width:0.03px;stroke-linecap:square;stroke-linejoin:miter;stroke-miterlimit:2;"/>
    </g>
    <g transform="matrix(0.984808,-0.173648,0.173648,0.984808,1431.84,1119.46)">
        <path d="M281.911,160.428L284.215,160.428L284.215,157.649L323.247,157.649L323.247,160.428L325.552,160.428L325.552,170.35L323.247,170.35L323.247,183.981L325.552,183.981L325.552,193.903L323.248,193.903L323.248,196.682L284.213,196.682L284.213,193.903L281.911,193.903L281.911,183.981L284.214,183.981L284.214,170.35L281.911,170.35L281.911,160.428Z" style="fill:none;stroke:#00f;stroke-width:0.03px;stroke-linecap:square;stroke-linejoin:miter;stroke-miterlimit:2;"/>
    </g>
    <g transform="matrix(-0.984808,-0.173648,-0.173648,0.984808,1455.72,1128.79)">
        <path d="M281.911,160.428L284.215,160.428L284.215,157.649L323.247,157.649L323.247,160.428L325.552,160.428L325.552,170.35L323.247,170.35L323.247,183.981L325.552,183.981L325.552,193.903L323.248,193.903L323.248,196.682L284.213,196.682L284.213,193.903L281.911,193.903L281.911,183.981L284.214,183.981L284.214,170.35L281.911,170.35L281.911,160.428Z" style="fill:none;stroke:#00f;stroke-width:0.03px;stroke-linecap:square;stroke-linejoin:miter;stroke-miterlimit:2;"/>
    </g>
    <g transform="matrix(0.984808,-0.173648,0.173648,0.984808,1378.93,1128.79)">
        <path d="M281.911,160.428L284.215,160.428L284.215,157.649L323.247,157.649L323.247,160.428L325.552,160.428L325.552,170.35L323.247,170.35L323.247,183.981L325.552,183.981L325.552,193.903L323.248,193.903L323.248,196.682L284.213,196.682L284.213,193.903L281.911,193.903L281.911,183.981L284.214,183.981L284.214,170.35L281.911,170.35L281.911,160.428Z" style="fill:none;stroke:#00f;stroke-width:0.03px;stroke-linecap:square;stroke-linejoin:miter;stroke-miterlimit:2;"/>
    </g>
    <g transform="matrix(-0.984808,-0.173648,-0.173648,0.984808,1511.89,1120.37)">
        <path d="M281.911,160.428L284.215,160.428L284.215,157.649L323.247,157.649L323.247,160.428L325.552,160.428L325.552,170.35L323.247,170.35L323.247,183.981L325.552,183.981L325.552,193.903L323.248,193.903L323.248,196.682L284.213,196.682L284.213,193.903L281.911,193.903L281.911,183.981L284.214,183.981L284.214,170.35L281.911,170.35L281.911,160.428Z" style="fill:none;stroke:#00f;stroke-width:0.03px;stroke-linecap:square;stroke-linejoin:miter;stroke-miterlimit:2;"/>
    </g>
    <g transform="matrix(0.984808,-0.173648,0.173648,0.984808,1322.75,1120.37)">
        <path d="M281.911,160.428L284.215,160.428L284.215,157.649L323.247,157.649L323.247,160.428L325.552,160.428L325.552,170.35L323.247,170.35L323.247,183.981L325.552,183.981L325.552,193.903L323.248,193.903L323.248,196.682L284.213,196.682L284.213,193.903L281.911,193.903L281.911,183.981L284.214,183.981L284.214,170.35L281.911,170.35L281.911,160.428Z" style="fill:none;stroke:#00f;stroke-width:0.03px;stroke-linecap:square;stroke-linejoin:miter;stroke-miterlimit:2;"/>
    </g>
    <g transform="matrix(-0.984808,-0.173648,-0.173648,0.984808,1568.03,1112.14)">
        <path d="M281.911,160.428L284.215,160.428L284.215,157.649L323.247,157.649L323.247,160.428L325.552,160.428L325.552,170.35L323.247,170.35L323.247,183.981L325.552,183.981L325.552,193.903L323.248,193.903L323.248,196.682L284.213,196.682L284.213,193.903L281.911,193.903L281.911,183.981L284.214,183.981L284.214,170.35L281.911,170.35L281.911,160.428Z" style="fill:none;stroke:#00f;stroke-width:0.03px;stroke-linecap:square;stroke-linejoin:miter;stroke-miterlimit:2;"/>
    </g>
    <g transform="matrix(0.984808,-0.173648,0.173648,0.984808,1266.61,1112.14)">
        <path d="M281.911,160.428L284.215,160.428L284.215,157.649L323.247,157.649L323.247,160.428L325.552,160.428L325.552,170.35L323.247,170.35L323.247,183.981L325.552,183.981L325.552,193.903L323.248,193.903L323.248,196.682L284.213,196.682L284.213,193.903L281.911,193.903L281.911,183.981L284.214,183.981L284.214,170.35L281.911,170.35L281.911,160.428Z" style="fill:none;stroke:#00f;stroke-width:0.03px;stroke-linecap:square;stroke-linejoin:miter;stroke-miterlimit:2;"/>
    </g>
    <g transform="matrix(-0.984808,-0.173648,-0.173648,0.984808,1617.97,1139.08)">
        <path d="M281.911,160.428L284.215,160.428L284.215,157.649L323.247,157.649L323.247,160.428L325.552,160.428L325.552,170.35L323.247,170.35L323.247,183.981L325.552,183.981L325.552,193.903L323.248,193.903L323.248,196.682L284.213,196.682L284.213,193.903L281.911,193.903L281.911,183.981L284.214,183.981L284.214,170.35L281.911,170.35L281.911,160.428Z" style="fill:none;stroke:#00f;stroke-width:0.03px;stroke-linecap:square;stroke-linejoin:miter;stroke-miterlimit:2;"/>
    </g>
    <g transform="matrix(0.984808,-0.173648,0.173648,0.984808,1216.67,1139.08)">
        <path d="M281.911,160.428L284.215,160.428L284.215,157.649L323.247,157.649L323.247,160.428L325.552,160.428L325.552,170.35L323.247,170.35L323.247,183.981L325.552,183.981L325.552,193.903L323.248,193.903L323.248,196.682L284.213,196.682L284.213,193.903L281.911,193.903L281.911,183.981L284.214,183.981L284.214,170.35L281.911,170.35L281.911,160.428Z" style="fill:none;stroke:#00f;stroke-width:0.03px;stroke-linecap:square;stroke-linejoin:miter;stroke-miterlimit:2;"/>
    </g>
    <g transform="matrix(-0.984808,-0.173648,-0.173648,0.984808,1671.01,1148.43)">
        <path d="M281.911,160.428L284.215,160.428L284.215,157.649L323.247,157.649L323.247,160.428L325.552,160.428L325.552,170.35L323.247,170.35L323.247,183.981L325.552,183.981L325.552,193.903L323.248,193.903L323.248,196.682L284.213,196.682L284.213,193.903L281.911,193.903L281.911,183.981L284.214,183.981L284.214,170.35L281.911,170.35L281.911,160.428Z" style="fill:none;stroke:#00f;stroke-width:0.03px;stroke-linecap:square;stroke-linejoin:miter;stroke-miterlimit:2;"/>
    </g>
    <g transform="matrix(0.984808,-0.173648,0.173648,0.984808,1163.63,1148.43)">
        <path d="M281.911,160.428L284.215,160.428L284.215,157.649L323.247,157.649L323.247,160.428L325.552,160.428L325.552,170.35L323.247,170.35L323.247,183.981L325.552,183.981L325.552,193.903L323.248,193.903L323.248,196.682L284.213,196.682L284.213,193.903L281.911,193.903L281.911,183.981L284.214,183.981L284.214,170.35L281.911,170.35L281.911,160.428Z" style="fill:none;stroke:#00f;stroke-width:0.03px;stroke-linecap:square;stroke-linejoin:miter;stroke-miterlimit:2;"/>
    </g>
    <g transform="matrix(-0.984808,-0.173648,-0.173648,0.984808,1393.44,1172.62)">
        <path d="M281.911,160.428L284.215,160.428L284.215,157.649L323.247,157.649L323.247,160.428L325.552,160.428L325.552,170.35L323.247,170.35L323.247,183.981L325.552,183.981L325.552,193.903L323.248,193.903L323.248,196.682L284.213,196.682L284.213,193.903L281.911,193.903L281.911,183.981L284.214,183.981L284.214,170.35L281.911,170.35L281.911,160.428Z" style="fill:none;stroke:#00f;stroke-width:0.03px;stroke-linecap:square;stroke-linejoin:miter;stroke-miterlimit:2;"/>
    </g>
    <g transform="matrix(0.984808,-0.173648,0.173648,0.984808,1441.21,1172.62)">
        <path d="M281.911,160.428L284.215,160.428L284.215,157.649L323.247,157.649L323.247,160.428L325.552,160.428L325.552,170.35L323.247,170.35L323.247,183.981L325.552,183.981L325.552,193.903L323.248,193.903L323.248,196.682L284.213,196.682L284.213,193.903L281.911,193.903L281.911,183.981L284.214,183.981L284.214,170.35L281.911,170.35L281.911,160.428Z" style="fill:none;stroke:#00f;stroke-width:0.03px;stroke-linecap:square;stroke-linejoin:miter;stroke-miterlimit:2;"/>
    </g>
    <g transform="matrix(-0.984808,-0.173648,-0.173648,0.984808,1446.35,1181.95)">
        <path d="M281.911,160.428L284.215,160.428L284.215,157.649L323.247,157.649L323.247,160.428L325.552,160.428L325.552,170.35L323.247,170.35L323.247,183.981L325.552,183.981L325.552,193.903L323.248,193.903L323.248,196.682L284.213,196.682L284.213,193.903L281.911,193.903L281.911,183.981L284.214,183.981L284.214,170.35L281.911,170.35L281.911,160.428Z" style="fill:none;stroke:#00f;stroke-width:0.03px;stroke-linecap:square;stroke-linejoin:miter;stroke-miterlimit:2;"/>
    </g>
    <g transform="matrix(0.984808,-0.173648,0.173648,0.984808,1388.3,1181.95)">
        <path d="M281.911,160.428L284.215,160.428L284.215,157.649L323.247,157.649L323.247,160.428L325.552,160.428L325.552,170.35L323.247,170.35L323.247,183.981L325.552,183.981L325.552,193.903L323.248,193.903L323.248,196.682L284.213,196.682L284.213,193.903L281.911,193.903L281.911,183.981L284.214,183.981L284.214,170.35L281.911,170.35L281.911,160.428Z" style="fill:none;stroke:#00f;stroke-width:0.03px;stroke-linecap:square;stroke-linejoin:miter;stroke-miterlimit:2;"/>
    </g>
    <g transform="matrix(-0.984808,-0.173648,-0.173648,0.984808,1502.52,1173.54)">
        <path d="M281.911,160.428L284.215,160.428L284.215,157.649L323.247,157.649L323.247,160.428L325.552,160.428L325.552,170.35L323.247,170.35L323.247,183.981L325.552,183.981L325.552,193.903L323.248,193.903L323.248,196.682L284.213,196.682L284.213,193.903L281.911,193.903L281.911,183.981L284.214,183.981L284.214,170.35L281.911,170.35L281.911,160.428Z" style="fill:none;stroke:#00f;stroke-width:0.03px;stroke-linecap:square;stroke-linejoin:miter;stroke-miterlimit:2;"/>
    </g>
    <g transform="matrix(0.984808,-0.173648,0.173648,0.984808,1332.13,1173.54)">
        <path d="M281.911,160.428L284.215,160.428L284.215,157.649L323.247,157.649L323.247,160.428L325.552,160.428L325.552,170.35L323.247,170.35L323.247,183.981L325.552,183.981L325.552,193.903L323.248,193.903L323.248,196.682L284.213,196.682L284.213,193.903L281.911,193.903L281.911,183.981L284.214,183.981L284.214,170.35L281.911,170.35L281.911,160.428Z" style="fill:none;stroke:#00f;stroke-width:0.03px;stroke-linecap:square;stroke-linejoin:miter;stroke-miterlimit:2;"/>
    </g>
    <g transform="matrix(-0.984808,-0.173648,-0.173648,0.984808,1558.66,1165.3)">
        <path d="M281.911,160.428L284.215,160.428L284.215,157.649L323.247,157.649L323.247,160.428L325.552,160.428L325.552,170.35L323.247,170.35L323.247,183.981L325.552,183.981L325.552,193.903L323.248,193.903L323.248,196.682L284.213,196.682L284.213,193.903L281.911,193.903L281.911,183.981L284.214,183.981L284.214,170.35L281.911,170.35L281.911,160.428Z" style="fill:none;stroke:#00f;stroke-width:0.03px;stroke-linecap:square;stroke-linejoin:miter;stroke-miterlimit:2;"/>
    </g>
    <g transform="matrix(0.984808,-0.173648,0.173648,0.984808,1275.99,1165.3)">
        <path d="M281.911,160.428L284.215,160.428L284.215,157.649L323.247,157.649L323.247,160.428L325.552,160.428L325.552,170.35L323.247,170.35L323.247,183.981L325.552,183.981L325.552,193.903L323.248,193.903L323.248,196.682L284.213,196.682L284.213,193.903L281.911,193.903L281.911,183.981L284.214,183.981L284.214,170.35L281.911,170.35L281.911,160.428Z" style="fill:none;stroke:#00f;stroke-width:0.03px;stroke-linecap:square;stroke-linejoin:miter;stroke-miterlimit:2;"/>
    </g>
    <g transform="matrix(-0.984808,-0.173648,-0.173648,0.984808,1608.6,1192.24)">
        <path d="M281.911,160.428L284.215,160.428L284.215,157.649L323.247,157.649L323.247,160.428L325.552,160.428L325.552,170.35L323.247,170.35L323.247,183.981L325.552,183.981L325.552,193.903L323.248,193.903L323.248,196.682L284.213,196.682L284.213,193.903L281.911,193.903L281.911,183.981L284.214,183.981L284.214,170.35L281.911,170.35L281.911,160.428Z" style="fill:none;stroke:#00f;stroke-width:0.03px;stroke-linecap:square;stroke-linejoin:miter;stroke-miterlimit:2;"/>
    </g>
    <g transform="matrix(0.984808,-0.173648,0.173648,0.984808,1226.05,1192.24)">
        <path d="M281.911,160.428L284.215,160.428L284.215,157.649L323.247,157.649L323.247,160.428L325.552,160.428L325.552,170.35L323.247,170.35L323.247,183.981L325.552,183.981L325.552,193.903L323.248,193.903L323.248,196.682L284.213,196.682L284.213,193.903L281.911,193.903L281.911,183.981L284.214,183.981L284.214,170.35L281.911,170.35L281.911,160.428Z" style="fill:none;stroke:#00f;stroke-width:0.03px;stroke-linecap:square;stroke-linejoin:miter;stroke-miterlimit:2;"/>
    </g>
    <g transform="matrix(-0.984808,-0.173648,-0.173648,0.984808,1661.64,1201.59)">
        <path d="M281.911,160.428L284.215,160.428L284.215,157.649L323.247,157.649L323.247,160.428L325.552,160.428L325.552,170.35L323.247,170.35L323.247,183.981L325.552,183.981L325.552,193.903L323.248,193.903L323.248,196.682L284.213,196.682L284.213,193.903L281.911,193.903L281.911,183.981L284.214,183.981L284.214,170.35L281.911,170.35L281.911,160.428Z" style="fill:none;stroke:#00f;stroke-width:0.03px;stroke-linecap:square;stroke-linejoin:miter;stroke-miterlimit:2;"/>
    </g>
    <g transform="matrix(0.984808,-0.173648,0.173648,0.984808,1173.01,1201.59)">
        <path d="M281.911,160.428L284.215,160.428L284.215,157.649L323.247,157.649L323.247,160.428L325.552,160.428L325.552,170.35L323.247,170.35L323.247,183.981L325.552,183.981L325.552,193.903L323.248,193.903L323.248,196.682L284.213,196.682L284.213,193.903L281.911,193.903L281.911,183.981L284.214,183.981L284.214,170.35L281.911,170.35L281.911,160.428Z" style="fill:none;stroke:#00f;stroke-width:0.03px;stroke-linecap:square;stroke-linejoin:miter;stroke-miterlimit:2;"/>
    </g>
    <g transform="matrix(-0.984808,-0.173648,-0.173648,0.984808,1384.06,1225.78)">
        <path d="M281.911,160.428L284.215,160.428L284.215,157.649L323.247,157.649L323.247,160.428L325.552,160.428L325.552,170.35L323.247,170.35L323.247,183.981L325.552,183.981L325.552,193.903L323.248,193.903L323.248,196.682L284.213,196.682L284.213,193.903L281.911,193.903L281.911,183.981L284.214,183.981L284.214,170.35L281.911,170.35L281.911,160.428Z" style="fill:none;stroke:#00f;stroke-width:0.03px;stroke-linecap:square;stroke-linejoin:miter;stroke-miterlimit:2;"/>
    </g>
    <g transform="matrix(0.984808,-0.173648,0.173648,0.984808,1450.58,1225.78)">
        <path d="M281.911,160.428L284.215,160.428L284.215,157.649L323.247,157.649L323.247,160.428L325.552,160.428L325.552,170.35L323.247,170.35L323.247,183.981L325.552,183.981L325.552,193.903L323.248,193.903L323.248,196.682L284.213,196.682L284.213,193.903L281.911,193.903L281.911,183.981L284.214,183.981L284.214,170.35L281.911,170.35L281.911,160.428Z" style="fill:none;stroke:#00f;stroke-width:0.03px;stroke-linecap:square;stroke-linejoin:miter;stroke-miterlimit:2;"/>
    </g>
    <g transform="matrix(-0.984808,-0.173648,-0.173648,0.984808,1436.97,1235.11)">
        <path d="M281.911,160.428L284.215,160.428L284.215,157.649L323.247,157.649L323.247,160.428L325.552,160.428L325.552,170.35L323.247,170.35L323.247,183.981L325.552,183.981L325.552,193.903L323.248,193.903L323.248,196.682L284.213,196.682L284.213,193.903L281.911,193.903L281.911,183.981L284.214,183.981L284.214,170.35L281.911,170.35L281.911,160.428Z" style="fill:none;stroke:#00f;stroke-width:0.03px;stroke-linecap:square;stroke-linejoin:miter;stroke-miterlimit:2;"/>
    </g>
    <g transform="matrix(0.984808,-0.173648,0.173648,0.984808,1397.67,1235.11)">
        <path d="M281.911,160.428L284.215,160.428L284.215,157.649L323.247,157.649L323.247,160.428L325.552,160.428L325.552,170.35L323.247,170.35L323.247,183.981L325.552,183.981L325.552,193.903L323.248,193.903L323.248,196.682L284.213,196.682L284.213,193.903L281.911,193.903L281.911,183.981L284.214,183.981L284.214,170.35L281.911,170.35L281.911,160.428Z" style="fill:none;stroke:#00f;stroke-width:0.03px;stroke-linecap:square;stroke-linejoin:miter;stroke-miterlimit:2;"/>
    </g>
    <g transform="matrix(-0.984808,-0.173648,-0.173648,0.984808,1493.14,1226.7)">
        <path d="M281.911,160.428L284.215,160.428L284.215,157.649L323.247,157.649L323.247,160.428L325.552,160.428L325.552,170.35L323.247,170.35L323.247,183.981L325.552,183.981L325.552,193.903L323.248,193.903L323.248,196.682L284.213,196.682L284.213,193.903L281.911,193.903L281.911,183.981L284.214,183.981L284.214,170.35L281.911,170.35L281.911,160.428Z" style="fill:none;stroke:#00f;stroke-width:0.03px;stroke-linecap:square;stroke-linejoin:miter;stroke-miterlimit:2;"/>
    </g>
    <g transform="matrix(0.984808,-0.173648,0.173648,0.984808,1341.5,1226.7)">
        <path d="M281.911,160.428L284.215,160.428L284.215,157.649L323.247,157.649L323.247,160.428L325.552,160.428L325.552,170.35L323.247,170.35L323.247,183.981L325.552,183.981L325.552,193.903L323.248,193.903L323.248,196.682L284.213,196.682L284.213,193.903L281.911,193.903L281.911,183.981L284.214,183.981L284.214,170.35L281.911,170.35L281.911,160.428Z" style="fill:none;stroke:#00f;stroke-width:0.03px;stroke-linecap:square;stroke-linejoin:miter;stroke-miterlimit:2;"/>
    </g>
    <g transform="matrix(-0.984808,-0.173648,-0.173648,0.984808,1549.29,1218.46)">
        <path d="M281.911,160.428L284.215,160.428L284.215,157.649L323.247,157.649L323.247,160.428L325.552,160.428L325.552,170.35L323.247,170.35L323.247,183.981L325.552,183.981L325.552,193.903L323.248,193.903L323.248,196.682L284.213,196.682L284.213,193.903L281.911,193.903L281.911,183.981L284.214,183.981L284.214,170.35L281.911,170.35L281.911,160.428Z" style="fill:none;stroke:#00f;stroke-width:0.03px;stroke-linecap:square;stroke-linejoin:miter;stroke-miterlimit:2;"/>
    </g>
    <g transform="matrix(0.984808,-0.173648,0.173648,0.984808,1285.36,1218.46)">
        <path d="M281.911,160.428L284.215,160.428L284.215,157.649L323.247,157.649L323.247,160.428L325.552,160.428L325.552,170.35L323.247,170.35L323.247,183.981L325.552,183.981L325.552,193.903L323.248,193.903L323.248,196.682L284.213,196.682L284.213,193.903L281.911,193.903L281.911,183.981L284.214,183.981L284.214,170.35L281.911,170.35L281.911,160.428Z" style="fill:none;stroke:#00f;stroke-width:0.03px;stroke-linecap:square;stroke-linejoin:miter;stroke-miterlimit:2;"/>
    </g>
    <g transform="matrix(-0.984808,-0.173648,-0.173648,0.984808,1599.22,1245.4)">
        <path d="M281.911,160.428L284.215,160.428L284.215,157.649L323.247,157.649L323.247,160.428L325.552,160.428L325.552,170.35L323.247,170.35L323.247,183.981L325.552,183.981L325.552,193.903L323.248,193.903L323.248,196.682L284.213,196.682L284.213,193.903L281.911,193.903L281.911,183.981L284.214,183.981L284.214,170.35L281.911,170.35L281.911,160.428Z" style="fill:none;stroke:#00f;stroke-width:0.03px;stroke-linecap:square;stroke-linejoin:miter;stroke-miterlimit:2;"/>
    </g>
    <g transform="matrix(0.984808,-0.173648,0.173648,0.984808,1235.42,1245.4)">
        <path d="M281.911,160.428L284.215,160.428L284.215,157.649L323.247,157.649L323.247,160.428L325.552,160.428L325.552,170.35L323.247,170.35L323.247,183.981L325.552,183.981L325.552,193.903L323.248,193.903L323.248,196.682L284.213,196.682L284.213,193.903L281.911,193.903L281.911,183.981L284.214,183.981L284.214,170.35L281.911,170.35L281.911,160.428Z" style="fill:none;stroke:#00f;stroke-width:0.03px;stroke-linecap:square;stroke-linejoin:miter;stroke-miterlimit:2;"/>
    </g>
    <g transform="matrix(-0.984808,-0.173648,-0.173648,0.984808,1652.26,1254.75)">
        <path d="M281.911,160.428L284.215,160.428L284.215,157.649L323.247,157.649L323.247,160.428L325.552,160.428L325.552,170.35L323.247,170.35L323.247,183.981L325.552,183.981L325.552,193.903L323.248,193.903L323.248,196.682L284.213,196.682L284.213,193.903L281.911,193.903L281.911,183.981L284.214,183.981L284.214,170.35L281.911,170.35L281.911,160.428Z" style="fill:none;stroke:#00f;stroke-width:0.03px;stroke-linecap:square;stroke-linejoin:miter;stroke-miterlimit:2;"/>
    </g>
    <g transform="matrix(0.984808,-0.173648,0.173648,0.984808,1182.38,1254.75)">
        <path d="M281.911,160.428L284.215,160.428L284.215,157.649L323.247,157.649L323.247,160.428L325.552,160.428L325.552,170.35L323.247,170.35L323.247,183.981L325.552,183.981L325.552,193.903L323.248,193.903L323.248,196.682L284.213,196.682L284.213,193.903L281.911,193.903L281.911,183.981L284.214,183.981L284.214,170.35L281.911,170.35L281.911,160.428Z" style="fill:none;stroke:#00f;stroke-width:0.03px;stroke-linecap:square;stroke-linejoin:miter;stroke-miterlimit:2;"/>
    </g>
    <g transform="matrix(-0.984808,-0.173648,-0.173648,0.984808,1374.69,1278.94)">
        <path d="M281.911,160.428L284.215,160.428L284.215,157.649L323.247,157.649L323.247,160.428L325.552,160.428L325.552,170.35L323.247,170.35L323.247,183.981L325.552,183.981L325.552,193.903L323.248,193.903L323.248,196.682L284.213,196.682L284.213,193.903L281.911,193.903L281.911,183.981L284.214,183.981L284.214,170.35L281.911,170.35L281.911,160.428Z" style="fill:none;stroke:#00f;stroke-width:0.03px;stroke-linecap:square;stroke-linejoin:miter;stroke-miterlimit:2;"/>
    </g>
    <g transform="matrix(0.984808,-0.173648,0.173648,0.984808,1459.96,1278.94)">
        <path d="M281.911,160.428L284.215,160.428L284.215,157.649L323.247,157.649L323.247,160.428L325.552,160.428L325.552,170.35L323.247,170.35L323.247,183.981L325.552,183.981L325.552,193.903L323.248,193.903L323.248,196.682L284.213,196.682L284.213,193.903L281.911,193.903L281.911,183.981L284.214,183.981L284.214,170.35L281.911,170.35L281.911,160.428Z" style="fill:none;stroke:#00f;stroke-width:0.03px;stroke-linecap:square;stroke-linejoin:miter;stroke-miterlimit:2;"/>
    </g>
    <g transform="matrix(-0.984808,-0.173648,-0.173648,0.984808,1480.7,1297.63)">
        <path d="M281.911,160.428L284.215,160.428L284.215,157.649L323.247,157.649L323.247,160.428L325.552,160.428L325.552,170.35L323.247,170.35L323.247,183.981L325.552,183.981L325.552,193.903L323.248,193.903L323.248,196.682L284.213,196.682L284.213,193.903L281.911,193.903L281.911,183.981L284.214,183.981L284.214,170.35L281.911,170.35L281.911,160.428Z" style="fill:none;stroke:#00f;stroke-width:0.03px;stroke-linecap:square;stroke-linejoin:miter;stroke-miterlimit:2;"/>
    </g>
    <g transform="matrix(0.984808,-0.173648,0.173648,0.984808,1353.94,1297.63)">
        <path d="M281.911,160.428L284.215,160.428L284.215,157.649L323.247,157.649L323.247,160.428L325.552,160.428L325.552,170.35L323.247,170.35L323.247,183.981L325.552,183.981L325.552,193.903L323.248,193.903L323.248,196.682L284.213,196.682L284.213,193.903L281.911,193.903L281.911,183.981L284.214,183.981L284.214,170.35L281.911,170.35L281.911,160.428Z" style="fill:none;stroke:#00f;stroke-width:0.03px;stroke-linecap:square;stroke-linejoin:miter;stroke-miterlimit:2;"/>
    </g>
    <g transform="matrix(-0.984808,-0.173648,-0.173648,0.984808,1427.6,1288.27)">
        <path d="M281.911,160.428L284.215,160.428L284.215,157.649L323.247,157.649L323.247,160.428L325.552,160.428L325.552,170.35L323.247,170.35L323.247,183.981L325.552,183.981L325.552,193.903L323.248,193.903L323.248,196.682L284.213,196.682L284.213,193.903L281.911,193.903L281.911,183.981L284.214,183.981L284.214,170.35L281.911,170.35L281.911,160.428Z" style="fill:none;stroke:#00f;stroke-width:0.03px;stroke-linecap:square;stroke-linejoin:miter;stroke-miterlimit:2;"/>
    </g>
    <g transform="matrix(0.984808,-0.173648,0.173648,0.984808,1407.05,1288.27)">
        <path d="M281.911,160.428L284.215,160.428L284.215,157.649L323.247,157.649L323.247,160.428L325.552,160.428L325.552,170.35L323.247,170.35L323.247,183.981L325.552,183.981L325.552,193.903L323.248,193.903L323.248,196.682L284.213,196.682L284.213,193.903L281.911,193.903L281.911,183.981L284.214,183.981L284.214,170.35L281.911,170.35L281.911,160.428Z" style="fill:none;stroke:#00f;stroke-width:0.03px;stroke-linecap:square;stroke-linejoin:miter;stroke-miterlimit:2;"/>
    </g>
    <g transform="matrix(-0.984808,-0.173648,-0.173648,0.984808,1533.61,1306.96)">
        <path d="M281.911,160.428L284.215,160.428L284.215,157.649L323.247,157.649L323.247,160.428L325.552,160.428L325.552,170.35L323.247,170.35L323.247,183.981L325.552,183.981L325.552,193.903L323.248,193.903L323.248,196.682L284.213,196.682L284.213,193.903L281.911,193.903L281.911,183.981L284.214,183.981L284.214,170.35L281.911,170.35L281.911,160.428Z" style="fill:none;stroke:#00f;stroke-width:0.03px;stroke-linecap:square;stroke-linejoin:miter;stroke-miterlimit:2;"/>
    </g>
    <g transform="matrix(0.984808,-0.173648,0.173648,0.984808,1301.03,1306.96)">
        <path d="M281.911,160.428L284.215,160.428L284.215,157.649L323.247,157.649L323.247,160.428L325.552,160.428L325.552,170.35L323.247,170.35L323.247,183.981L325.552,183.981L325.552,193.903L323.248,193.903L323.248,196.682L284.213,196.682L284.213,193.903L281.911,193.903L281.911,183.981L284.214,183.981L284.214,170.35L281.911,170.35L281.911,160.428Z" style="fill:none;stroke:#00f;stroke-width:0.03px;stroke-linecap:square;stroke-linejoin:miter;stroke-miterlimit:2;"/>
    </g>
    <g transform="matrix(1,0,0,1,1113.59,1070.97)">
        <path d="M281.911,160.428L284.215,160.428L284.215,157.649L323.247,157.649L323.247,160.428L325.552,160.428L325.552,170.35L323.247,170.35L323.247,183.981L325.552,183.981L325.552,193.903L323.248,193.903L323.248,196.682L284.213,196.682L284.213,193.903L281.911,193.903L281.911,183.981L284.214,183.981L284.214,170.35L281.911,170.35L281.911,160.428Z" style="fill:none;stroke:#00f;stroke-width:0.03px;stroke-linecap:square;stroke-linejoin:miter;stroke-miterlimit:2;"/>
    </g>
    <g transform="matrix(1,0,0,1,1113.59,1125.06)">
        <path d="M281.911,160.428L284.215,160.428L284.215,157.649L323.247,157.649L323.247,160.428L325.552,160.428L325.552,170.35L323.247,170.35L323.247,183.981L325.552,183.981L325.552,193.903L323.248,193.903L323.248,196.682L284.213,196.682L284.213,193.903L281.911,193.903L281.911,183.981L284.214,183.981L284.214,170.35L281.911,170.35L281.911,160.428Z" style="fill:none;stroke:#00f;stroke-width:0.03px;stroke-linecap:square;stroke-linejoin:miter;stroke-miterlimit:2;"/>
    </g>
    <g transform="matrix(1,0,0,1,1431.09,1293.16)">
        <path d="M281.911,160.428L284.215,160.428L284.215,157.649L323.247,157.649L323.247,160.428L325.552,160.428L325.552,170.35L323.247,170.35L323.247,183.981L325.552,183.981L325.552,193.903L323.248,193.903L323.248,196.682L284.213,196.682L284.213,193.903L281.911,193.903L281.911,183.981L284.214,183.981L284.214,170.35L281.911,170.35L281.911,160.428Z" style="fill:none;stroke:#00f;stroke-width:0.03px;stroke-linecap:square;stroke-linejoin:miter;stroke-miterlimit:2;"/>
    </g>
    <g transform="matrix(1,0,0,1,1484.93,1293.16)">
        <path d="M281.911,160.428L284.215,160.428L284.215,157.649L323.247,157.649L323.247,160.428L325.552,160.428L325.552,170.35L323.247,170.35L323.247,183.981L325.552,183.981L325.552,193.903L323.248,193.903L323.248,196.682L284.213,196.682L284.213,193.903L281.911,193.903L281.911,183.981L284.214,183.981L284.214,170.35L281.911,170.35L281.911,160.428Z" style="fill:none;stroke:#00f;stroke-width:0.03px;stroke-linecap:square;stroke-linejoin:miter;stroke-miterlimit:2;"/>
    </g>
    <g transform="matrix(1,0,0,1,742.253,1293.16)">
        <path d="M281.911,160.428L284.215,160.428L284.215,157.649L323.247,157.649L323.247,160.428L325.552,160.428L325.552,170.35L323.247,170.35L323.247,183.981L325.552,183.981L325.552,193.903L323.248,193.903L323.248,196.682L284.213,196.682L284.213,193.903L281.911,193.903L281.911,183.981L284.214,183.981L284.214,170.35L281.911,170.35L281.911,160.428Z" style="fill:none;stroke:#00f;stroke-width:0.03px;stroke-linecap:square;stroke-linejoin:miter;stroke-miterlimit:2;"/>
    </g>
    <g transform="matrix(1,0,0,1,796.097,1293.16)">
        <path d="M281.911,160.428L284.215,160.428L284.215,157.649L323.247,157.649L323.247,160.428L325.552,160.428L325.552,170.35L323.247,170.35L323.247,183.981L325.552,183.981L325.552,193.903L323.248,193.903L323.248,196.682L284.213,196.682L284.213,193.903L281.911,193.903L281.911,183.981L284.214,183.981L284.214,170.35L281.911,170.35L281.911,160.428Z" style="fill:none;stroke:#00f;stroke-width:0.03px;stroke-linecap:square;stroke-linejoin:miter;stroke-miterlimit:2;"/>
    </g>
</svg>
