<?xml version="1.0" encoding="UTF-8" standalone="no"?>
<!DOCTYPE svg PUBLIC "-//W3C//DTD SVG 1.1//EN" "http://www.w3.org/Graphics/SVG/1.1/DTD/svg11.dtd">
<svg width="514px" height="514px" version="1.1" xmlns="http://www.w3.org/2000/svg" xmlns:xlink="http://www.w3.org/1999/xlink" xml:space="preserve" xmlns:serif="http://www.serif.com/" style="fill-rule:evenodd;clip-rule:evenodd;stroke-linecap:round;stroke-linejoin:round;stroke-miterlimit:1.5;">
    <g id="Impossible-triangle-w--circle" serif:id="Impossible triangle w/ circle" transform="matrix(6.12323e-17,1,1,-6.12323e-17,-352.109,168.945)">
        <g id="Inlay-chamber" serif:id="Inlay chamber" transform="matrix(1,0,0,1,-265.747,200.263)">
            <path d="M367.09,226.256c0.381,-34.875 28.812,-63.071 63.776,-63.071c35.201,0 63.78,28.578 63.78,63.779c0,35.201 -28.579,63.78 -63.78,63.78c-34.964,0 -63.395,-28.196 -63.776,-63.071l-1.279,0l0,-1.417l1.279,0Z" style="fill:none;stroke:#00f;stroke-width:0.03px;"/>
        </g>
        <g id="Inner-circle" serif:id="Inner circle" transform="matrix(0.955993,0,0,0.955556,-246.814,210.35)">
            <path d="M367.09,226.256c0.381,-34.875 28.812,-63.071 63.776,-63.071c35.201,0 63.78,28.578 63.78,63.779c0,35.201 -28.579,63.78 -63.78,63.78c-34.964,0 -63.395,-28.196 -63.776,-63.071l-1.279,0l0,-1.417l1.279,0Z" style="fill:none;stroke:#00f;stroke-width:0.03px;"/>
        </g>
        <g transform="matrix(0.867576,0,0,0.867576,-210.541,230.067)">
            <path d="M387.645,263.6l-0.058,0.034l-8.86,-15.126c-0.279,-0.807 -0.138,-1.039 0.094,-1.51l43.173,-74.87c0.549,-0.816 0.684,-0.951 1.541,-0.852l17.538,0c0.074,0.005 0.148,0.01 0.222,0.015c0.832,0.165 0.961,0.402 1.251,0.836l43.226,74.87c0.273,0.553 0.227,1.175 -0.053,1.667l0.055,0.032l-8.888,15.41c-0.333,0.381 -0.536,0.615 -1.356,0.667l-86.482,-0.299c-0.609,-0.048 -1.118,-0.394 -1.403,-0.874Zm42.671,-51.009l-5.086,-8.81l-33.23,57.301l82.554,0.286l6.805,-11.822l-69.409,-0.044c-1.221,-0.08 -2.047,-1.384 -1.471,-2.551l19.837,-34.36Zm16.21,21.273l10.173,0l-33.23,-57.485l-41.207,71.461l6.783,11.558l34.717,-59.866c0.354,-0.518 0.585,-0.915 1.726,-0.828c0.919,0.21 0.941,0.424 1.218,0.831l19.82,34.329Zm-20.111,-59.186l34.704,60.035c0.538,1.102 -0.179,2.461 -1.473,2.552l-39.647,0l-5.103,8.838l66.457,0.041l-41.262,-71.466l-13.676,0Zm-4.453,59.186l20.636,0l-10.318,-17.871l-10.318,17.871Z" style="fill:none;stroke:#00f;stroke-width:0.03px;stroke-linecap:butt;stroke-miterlimit:1.41421;"/>
        </g>
    </g>
    <g id="Impossible-triangle-w--circle1" serif:id="Impossible triangle w/ circle" transform="matrix(6.12323e-17,1,1,-6.12323e-17,-352.109,40.11)">
        <g id="Inlay-chamber1" serif:id="Inlay chamber" transform="matrix(1,0,0,1,-265.747,200.263)">
            <path d="M367.09,226.256c0.381,-34.875 28.812,-63.071 63.776,-63.071c35.201,0 63.78,28.578 63.78,63.779c0,35.201 -28.579,63.78 -63.78,63.78c-34.964,0 -63.395,-28.196 -63.776,-63.071l-1.279,0l0,-1.417l1.279,0Z" style="fill:none;stroke:#00f;stroke-width:0.03px;"/>
        </g>
        <g id="Inner-circle1" serif:id="Inner circle" transform="matrix(0.955993,0,0,0.955556,-246.814,210.35)">
            <path d="M367.09,226.256c0.381,-34.875 28.812,-63.071 63.776,-63.071c35.201,0 63.78,28.578 63.78,63.779c0,35.201 -28.579,63.78 -63.78,63.78c-34.964,0 -63.395,-28.196 -63.776,-63.071l-1.279,0l0,-1.417l1.279,0Z" style="fill:none;stroke:#00f;stroke-width:0.03px;"/>
        </g>
        <g transform="matrix(0.867576,0,0,0.867576,-210.541,230.067)">
            <path d="M387.645,263.6l-0.058,0.034l-8.86,-15.126c-0.279,-0.807 -0.138,-1.039 0.094,-1.51l43.173,-74.87c0.549,-0.816 0.684,-0.951 1.541,-0.852l17.538,0c0.074,0.005 0.148,0.01 0.222,0.015c0.832,0.165 0.961,0.402 1.251,0.836l43.226,74.87c0.273,0.553 0.227,1.175 -0.053,1.667l0.055,0.032l-8.888,15.41c-0.333,0.381 -0.536,0.615 -1.356,0.667l-86.482,-0.299c-0.609,-0.048 -1.118,-0.394 -1.403,-0.874Zm42.671,-51.009l-5.086,-8.81l-33.23,57.301l82.554,0.286l6.805,-11.822l-69.409,-0.044c-1.221,-0.08 -2.047,-1.384 -1.471,-2.551l19.837,-34.36Zm16.21,21.273l10.173,0l-33.23,-57.485l-41.207,71.461l6.783,11.558l34.717,-59.866c0.354,-0.518 0.585,-0.915 1.726,-0.828c0.919,0.21 0.941,0.424 1.218,0.831l19.82,34.329Zm-20.111,-59.186l34.704,60.035c0.538,1.102 -0.179,2.461 -1.473,2.552l-39.647,0l-5.103,8.838l66.457,0.041l-41.262,-71.466l-13.676,0Zm-4.453,59.186l20.636,0l-10.318,-17.871l-10.318,17.871Z" style="fill:none;stroke:#00f;stroke-width:0.03px;stroke-linecap:butt;stroke-miterlimit:1.41421;"/>
        </g>
    </g>
    <g id="Impossible-triangle" serif:id="Impossible triangle" transform="matrix(6.12323e-17,1,1,-6.12323e-17,-224.266,40.11)">
        <g id="Inlay-chamber2" serif:id="Inlay chamber" transform="matrix(1,0,0,1,-265.747,200.262)">
            <path d="M367.09,226.256c0.381,-34.875 28.812,-63.071 63.776,-63.071c35.201,0 63.78,28.578 63.78,63.779c0,35.201 -28.579,63.78 -63.78,63.78c-34.964,0 -63.395,-28.196 -63.776,-63.071l-1.279,0l0,-1.417l1.279,0Z" style="fill:none;stroke:#00f;stroke-width:0.03px;"/>
        </g>
        <g transform="matrix(1,0,0,1,-267.146,199.169)">
            <path d="M387.645,263.6l-0.058,0.034l-8.86,-15.126c-0.279,-0.807 -0.138,-1.039 0.094,-1.51l43.173,-74.87c0.549,-0.816 0.684,-0.951 1.541,-0.852l17.538,0c0.074,0.005 0.148,0.01 0.222,0.015c0.832,0.165 0.961,0.402 1.251,0.836l43.226,74.87c0.273,0.553 0.227,1.175 -0.053,1.667l0.055,0.032l-8.888,15.41c-0.333,0.381 -0.536,0.615 -1.356,0.667l-86.482,-0.299c-0.609,-0.048 -1.118,-0.394 -1.403,-0.874Zm42.671,-51.009l-5.086,-8.81l-33.23,57.301l82.554,0.286l6.805,-11.822l-69.409,-0.044c-1.221,-0.08 -2.047,-1.384 -1.471,-2.551l19.837,-34.36Zm16.21,21.273l10.173,0l-33.23,-57.485l-41.207,71.461l6.783,11.558l34.717,-59.866c0.354,-0.518 0.585,-0.915 1.726,-0.828c0.919,0.21 0.941,0.424 1.218,0.831l19.82,34.329Zm-20.111,-59.186l34.704,60.035c0.538,1.102 -0.179,2.461 -1.473,2.552l-39.647,0l-5.103,8.838l66.457,0.041l-41.262,-71.466l-13.676,0Zm-4.453,59.186l20.636,0l-10.318,-17.871l-10.318,17.871Z" style="fill:none;stroke:#00f;stroke-width:0.03px;stroke-linecap:butt;stroke-miterlimit:1.41421;"/>
        </g>
    </g>
    <g id="Impossible-triangle1" serif:id="Impossible triangle" transform="matrix(6.12323e-17,1,1,-6.12323e-17,-224.549,-88.725)">
        <g id="Inlay-chamber3" serif:id="Inlay chamber" transform="matrix(1,0,0,1,-265.747,200.262)">
            <path d="M367.09,226.256c0.381,-34.875 28.812,-63.071 63.776,-63.071c35.201,0 63.78,28.578 63.78,63.779c0,35.201 -28.579,63.78 -63.78,63.78c-34.964,0 -63.395,-28.196 -63.776,-63.071l-1.279,0l0,-1.417l1.279,0Z" style="fill:none;stroke:#00f;stroke-width:0.03px;"/>
        </g>
        <g transform="matrix(1,0,0,1,-267.146,199.169)">
            <path d="M387.645,263.6l-0.058,0.034l-8.86,-15.126c-0.279,-0.807 -0.138,-1.039 0.094,-1.51l43.173,-74.87c0.549,-0.816 0.684,-0.951 1.541,-0.852l17.538,0c0.074,0.005 0.148,0.01 0.222,0.015c0.832,0.165 0.961,0.402 1.251,0.836l43.226,74.87c0.273,0.553 0.227,1.175 -0.053,1.667l0.055,0.032l-8.888,15.41c-0.333,0.381 -0.536,0.615 -1.356,0.667l-86.482,-0.299c-0.609,-0.048 -1.118,-0.394 -1.403,-0.874Zm42.671,-51.009l-5.086,-8.81l-33.23,57.301l82.554,0.286l6.805,-11.822l-69.409,-0.044c-1.221,-0.08 -2.047,-1.384 -1.471,-2.551l19.837,-34.36Zm16.21,21.273l10.173,0l-33.23,-57.485l-41.207,71.461l6.783,11.558l34.717,-59.866c0.354,-0.518 0.585,-0.915 1.726,-0.828c0.919,0.21 0.941,0.424 1.218,0.831l19.82,34.329Zm-20.111,-59.186l34.704,60.035c0.538,1.102 -0.179,2.461 -1.473,2.552l-39.647,0l-5.103,8.838l66.457,0.041l-41.262,-71.466l-13.676,0Zm-4.453,59.186l20.636,0l-10.318,-17.871l-10.318,17.871Z" style="fill:none;stroke:#00f;stroke-width:0.03px;stroke-linecap:butt;stroke-miterlimit:1.41421;"/>
        </g>
    </g>
    <g id="Impossible-triangle2" serif:id="Impossible triangle" transform="matrix(6.12323e-17,1,1,-6.12323e-17,-96.4235,-88.725)">
        <g id="Inlay-chamber4" serif:id="Inlay chamber" transform="matrix(1,0,0,1,-265.747,200.262)">
            <path d="M367.09,226.256c0.381,-34.875 28.812,-63.071 63.776,-63.071c35.201,0 63.78,28.578 63.78,63.779c0,35.201 -28.579,63.78 -63.78,63.78c-34.964,0 -63.395,-28.196 -63.776,-63.071l-1.279,0l0,-1.417l1.279,0Z" style="fill:none;stroke:#00f;stroke-width:0.03px;"/>
        </g>
        <g transform="matrix(1,0,0,1,-267.146,199.169)">
            <path d="M387.645,263.6l-0.058,0.034l-8.86,-15.126c-0.279,-0.807 -0.138,-1.039 0.094,-1.51l43.173,-74.87c0.549,-0.816 0.684,-0.951 1.541,-0.852l17.538,0c0.074,0.005 0.148,0.01 0.222,0.015c0.832,0.165 0.961,0.402 1.251,0.836l43.226,74.87c0.273,0.553 0.227,1.175 -0.053,1.667l0.055,0.032l-8.888,15.41c-0.333,0.381 -0.536,0.615 -1.356,0.667l-86.482,-0.299c-0.609,-0.048 -1.118,-0.394 -1.403,-0.874Zm42.671,-51.009l-5.086,-8.81l-33.23,57.301l82.554,0.286l6.805,-11.822l-69.409,-0.044c-1.221,-0.08 -2.047,-1.384 -1.471,-2.551l19.837,-34.36Zm16.21,21.273l10.173,0l-33.23,-57.485l-41.207,71.461l6.783,11.558l34.717,-59.866c0.354,-0.518 0.585,-0.915 1.726,-0.828c0.919,0.21 0.941,0.424 1.218,0.831l19.82,34.329Zm-20.111,-59.186l34.704,60.035c0.538,1.102 -0.179,2.461 -1.473,2.552l-39.647,0l-5.103,8.838l66.457,0.041l-41.262,-71.466l-13.676,0Zm-4.453,59.186l20.636,0l-10.318,-17.871l-10.318,17.871Z" style="fill:none;stroke:#00f;stroke-width:0.03px;stroke-linecap:butt;stroke-miterlimit:1.41421;"/>
        </g>
    </g>
    <g id="Impossible-triangle3" serif:id="Impossible triangle" transform="matrix(6.12323e-17,1,1,-6.12323e-17,-224.248,168.945)">
        <g id="Inlay-chamber5" serif:id="Inlay chamber" transform="matrix(1,0,0,1,-265.747,200.262)">
            <path d="M367.09,226.256c0.381,-34.875 28.812,-63.071 63.776,-63.071c35.201,0 63.78,28.578 63.78,63.779c0,35.201 -28.579,63.78 -63.78,63.78c-34.964,0 -63.395,-28.196 -63.776,-63.071l-1.279,0l0,-1.417l1.279,0Z" style="fill:none;stroke:#00f;stroke-width:0.03px;"/>
        </g>
        <g transform="matrix(1,0,0,1,-267.146,199.169)">
            <path d="M387.645,263.6l-0.058,0.034l-8.86,-15.126c-0.279,-0.807 -0.138,-1.039 0.094,-1.51l43.173,-74.87c0.549,-0.816 0.684,-0.951 1.541,-0.852l17.538,0c0.074,0.005 0.148,0.01 0.222,0.015c0.832,0.165 0.961,0.402 1.251,0.836l43.226,74.87c0.273,0.553 0.227,1.175 -0.053,1.667l0.055,0.032l-8.888,15.41c-0.333,0.381 -0.536,0.615 -1.356,0.667l-86.482,-0.299c-0.609,-0.048 -1.118,-0.394 -1.403,-0.874Zm42.671,-51.009l-5.086,-8.81l-33.23,57.301l82.554,0.286l6.805,-11.822l-69.409,-0.044c-1.221,-0.08 -2.047,-1.384 -1.471,-2.551l19.837,-34.36Zm16.21,21.273l10.173,0l-33.23,-57.485l-41.207,71.461l6.783,11.558l34.717,-59.866c0.354,-0.518 0.585,-0.915 1.726,-0.828c0.919,0.21 0.941,0.424 1.218,0.831l19.82,34.329Zm-20.111,-59.186l34.704,60.035c0.538,1.102 -0.179,2.461 -1.473,2.552l-39.647,0l-5.103,8.838l66.457,0.041l-41.262,-71.466l-13.676,0Zm-4.453,59.186l20.636,0l-10.318,-17.871l-10.318,17.871Z" style="fill:none;stroke:#00f;stroke-width:0.03px;stroke-linecap:butt;stroke-miterlimit:1.41421;"/>
        </g>
    </g>
    <g id="Impossible-triangle-w--circle2" serif:id="Impossible triangle w/ circle" transform="matrix(6.12323e-17,1,1,-6.12323e-17,-96.3875,168.945)">
        <g id="Inlay-chamber6" serif:id="Inlay chamber" transform="matrix(1,0,0,1,-265.747,200.263)">
            <path d="M367.09,226.256c0.381,-34.875 28.812,-63.071 63.776,-63.071c35.201,0 63.78,28.578 63.78,63.779c0,35.201 -28.579,63.78 -63.78,63.78c-34.964,0 -63.395,-28.196 -63.776,-63.071l-1.279,0l0,-1.417l1.279,0Z" style="fill:none;stroke:#00f;stroke-width:0.03px;"/>
        </g>
        <g id="Inner-circle2" serif:id="Inner circle" transform="matrix(0.955993,0,0,0.955556,-246.814,210.35)">
            <path d="M367.09,226.256c0.381,-34.875 28.812,-63.071 63.776,-63.071c35.201,0 63.78,28.578 63.78,63.779c0,35.201 -28.579,63.78 -63.78,63.78c-34.964,0 -63.395,-28.196 -63.776,-63.071l-1.279,0l0,-1.417l1.279,0Z" style="fill:none;stroke:#00f;stroke-width:0.03px;"/>
        </g>
        <g transform="matrix(0.867576,0,0,0.867576,-210.541,230.067)">
            <path d="M387.645,263.6l-0.058,0.034l-8.86,-15.126c-0.279,-0.807 -0.138,-1.039 0.094,-1.51l43.173,-74.87c0.549,-0.816 0.684,-0.951 1.541,-0.852l17.538,0c0.074,0.005 0.148,0.01 0.222,0.015c0.832,0.165 0.961,0.402 1.251,0.836l43.226,74.87c0.273,0.553 0.227,1.175 -0.053,1.667l0.055,0.032l-8.888,15.41c-0.333,0.381 -0.536,0.615 -1.356,0.667l-86.482,-0.299c-0.609,-0.048 -1.118,-0.394 -1.403,-0.874Zm42.671,-51.009l-5.086,-8.81l-33.23,57.301l82.554,0.286l6.805,-11.822l-69.409,-0.044c-1.221,-0.08 -2.047,-1.384 -1.471,-2.551l19.837,-34.36Zm16.21,21.273l10.173,0l-33.23,-57.485l-41.207,71.461l6.783,11.558l34.717,-59.866c0.354,-0.518 0.585,-0.915 1.726,-0.828c0.919,0.21 0.941,0.424 1.218,0.831l19.82,34.329Zm-20.111,-59.186l34.704,60.035c0.538,1.102 -0.179,2.461 -1.473,2.552l-39.647,0l-5.103,8.838l66.457,0.041l-41.262,-71.466l-13.676,0Zm-4.453,59.186l20.636,0l-10.318,-17.871l-10.318,17.871Z" style="fill:none;stroke:#00f;stroke-width:0.03px;stroke-linecap:butt;stroke-miterlimit:1.41421;"/>
        </g>
    </g>
    <g id="Impossible-triangle-w--circle3" serif:id="Impossible triangle w/ circle" transform="matrix(6.12323e-17,1,1,-6.12323e-17,-96.7078,40.11)">
        <g id="Inlay-chamber7" serif:id="Inlay chamber" transform="matrix(1,0,0,1,-265.747,200.263)">
            <path d="M367.09,226.256c0.381,-34.875 28.812,-63.071 63.776,-63.071c35.201,0 63.78,28.578 63.78,63.779c0,35.201 -28.579,63.78 -63.78,63.78c-34.964,0 -63.395,-28.196 -63.776,-63.071l-1.279,0l0,-1.417l1.279,0Z" style="fill:none;stroke:#00f;stroke-width:0.03px;"/>
        </g>
        <g id="Inner-circle3" serif:id="Inner circle" transform="matrix(0.955993,0,0,0.955556,-246.814,210.35)">
            <path d="M367.09,226.256c0.381,-34.875 28.812,-63.071 63.776,-63.071c35.201,0 63.78,28.578 63.78,63.779c0,35.201 -28.579,63.78 -63.78,63.78c-34.964,0 -63.395,-28.196 -63.776,-63.071l-1.279,0l0,-1.417l1.279,0Z" style="fill:none;stroke:#00f;stroke-width:0.03px;"/>
        </g>
        <g transform="matrix(0.867576,0,0,0.867576,-210.541,230.067)">
            <path d="M387.645,263.6l-0.058,0.034l-8.86,-15.126c-0.279,-0.807 -0.138,-1.039 0.094,-1.51l43.173,-74.87c0.549,-0.816 0.684,-0.951 1.541,-0.852l17.538,0c0.074,0.005 0.148,0.01 0.222,0.015c0.832,0.165 0.961,0.402 1.251,0.836l43.226,74.87c0.273,0.553 0.227,1.175 -0.053,1.667l0.055,0.032l-8.888,15.41c-0.333,0.381 -0.536,0.615 -1.356,0.667l-86.482,-0.299c-0.609,-0.048 -1.118,-0.394 -1.403,-0.874Zm42.671,-51.009l-5.086,-8.81l-33.23,57.301l82.554,0.286l6.805,-11.822l-69.409,-0.044c-1.221,-0.08 -2.047,-1.384 -1.471,-2.551l19.837,-34.36Zm16.21,21.273l10.173,0l-33.23,-57.485l-41.207,71.461l6.783,11.558l34.717,-59.866c0.354,-0.518 0.585,-0.915 1.726,-0.828c0.919,0.21 0.941,0.424 1.218,0.831l19.82,34.329Zm-20.111,-59.186l34.704,60.035c0.538,1.102 -0.179,2.461 -1.473,2.552l-39.647,0l-5.103,8.838l66.457,0.041l-41.262,-71.466l-13.676,0Zm-4.453,59.186l20.636,0l-10.318,-17.871l-10.318,17.871Z" style="fill:none;stroke:#00f;stroke-width:0.03px;stroke-linecap:butt;stroke-miterlimit:1.41421;"/>
        </g>
    </g>
</svg>
